<?xml version="1.0" encoding="UTF-8"?>
<svg id="_x31_0" xmlns="http://www.w3.org/2000/svg" width="300" height="300" version="1.1" viewBox="0 0 300 300">
  <!-- Generator: Adobe Illustrator 29.4.0, SVG Export Plug-In . SVG Version: 2.1.0 Build 152)  -->
  <rect x="-.5" y=".63" width="300" height="300" fill="#ded9c3"/>
  <g>
    <path d="M257.27,144.91h-52.65c-.29-3.14-.85-6.2-1.64-9.16l32.01-13.26c1.76-.73,3.12-2.09,3.85-3.85.73-1.76.73-3.69,0-5.44-1.5-3.63-5.67-5.35-9.29-3.85h0s-32.04,13.27-32.04,13.27c-.87-1.51-1.82-2.97-2.83-4.39l37.62-37.62c1.34-1.34,2.09-3.13,2.09-5.03s-.74-3.68-2.09-5.03c-2.77-2.77-7.28-2.77-10.06,0l-37.25,37.25c-2.38-1.98-4.93-3.74-7.62-5.3l13.28-32.05c1.5-3.62-.22-7.79-3.84-9.29-3.62-1.5-7.79.22-9.29,3.84l-13.28,32.03c-1.68-.45-3.38-.82-5.12-1.11v-53.18c0-3.92-3.19-7.11-7.11-7.11s-7.11,3.19-7.11,7.11v52.65c-3.13.29-6.19.84-9.15,1.64l-13.27-32.03c-.73-1.76-2.1-3.13-3.85-3.85-1.76-.72-3.69-.72-5.44,0-1.76.73-3.13,2.1-3.85,3.86-.73,1.76-.72,3.69.01,5.44l13.28,32.04c-1.51.87-2.98,1.82-4.4,2.83l-37.63-37.63c-2.77-2.77-7.29-2.77-10.06,0-1.35,1.34-2.09,3.13-2.09,5.03s.74,3.68,2.09,5.03l37.25,37.25c-1.98,2.38-3.75,4.93-5.3,7.62l-32.06-13.28c-1.76-.73-3.69-.73-5.44,0-1.76.73-3.12,2.1-3.85,3.85s-.73,3.69,0,5.44c.73,1.75,2.1,3.12,3.85,3.85l32.03,13.27c-.45,1.67-.82,3.38-1.11,5.11h-53.19c-3.92,0-7.11,3.19-7.11,7.11s3.19,7.11,7.11,7.11h52.65c.29,3.14.84,6.2,1.64,9.16l-32.02,13.26c-3.62,1.5-5.35,5.67-3.85,9.29,1.13,2.74,3.79,4.39,6.58,4.39.9,0,1.82-.17,2.71-.54h0l32.04-13.27c.87,1.51,1.82,2.97,2.83,4.39l-37.63,37.63c-1.35,1.34-2.09,3.13-2.09,5.03s.74,3.68,2.09,5.03c1.39,1.39,3.21,2.08,5.03,2.08s3.64-.69,5.03-2.08l37.25-37.25c2.38,1.98,4.94,3.75,7.63,5.31l-13.28,32.05c-1.5,3.62.22,7.79,3.84,9.29.89.37,1.81.54,2.71.54,2.79,0,5.45-1.66,6.58-4.39l13.27-32.02c1.68.45,3.38.82,5.12,1.11v53.18c0,3.92,3.19,7.11,7.11,7.11s7.11-3.19,7.11-7.11v-52.65c3.14-.29,6.19-.85,9.16-1.64l13.27,32.01c1.13,2.74,3.79,4.39,6.58,4.39.9,0,1.82-.17,2.71-.54,1.76-.73,3.13-2.1,3.85-3.85.72-1.76.72-3.69-.01-5.44l-13.27-32.03c1.51-.88,2.98-1.82,4.4-2.83l37.62,37.62c1.39,1.39,3.21,2.08,5.03,2.08s3.64-.69,5.03-2.08c2.77-2.77,2.77-7.29,0-10.06l-37.25-37.25c1.98-2.38,3.75-4.93,5.3-7.63l32.04,13.27c.89.37,1.81.54,2.71.54,2.79,0,5.45-1.66,6.58-4.39,1.5-3.62-.23-7.79-3.85-9.29l-32.02-13.26c.45-1.67.82-3.38,1.11-5.11h53.18c3.92,0,7.11-3.19,7.11-7.11s-3.19-7.11-7.11-7.11Z" fill="#2b3948"/>
    <path d="M102.38,53.62c1.13,2.73,3.78,4.39,6.58,4.39.91,0,1.83-.17,2.72-.54,1.76-.73,3.13-2.1,3.85-3.85.72-1.76.72-3.69-.01-5.44l-.78-1.88c-1.5-3.62-5.67-5.34-9.29-3.84-1.76.73-3.13,2.1-3.85,3.86-.72,1.76-.72,3.69.01,5.44l.78,1.88Z" fill="#2b3948"/>
    <path d="M46.29,114.74s0,0,0,0l1.87.78c.89.37,1.82.55,2.73.55,2.79,0,5.44-1.65,6.58-4.37,1.51-3.61-.21-7.79-3.83-9.31l-1.87-.78c-1.75-.73-3.68-.74-5.44-.02-1.76.72-3.14,2.09-3.87,3.84-1.51,3.62.2,7.79,3.82,9.31Z" fill="#2b3948"/>
    <path d="M48.16,184.47l-1.87.78c-3.62,1.51-5.33,5.69-3.82,9.31.73,1.76,2.1,3.12,3.86,3.84.87.36,1.79.54,2.7.54s1.86-.18,2.74-.55l1.87-.78c1.76-.73,3.12-2.1,3.84-3.86s.72-3.69-.02-5.45c-1.51-3.62-5.69-5.34-9.31-3.83Z" fill="#2b3948"/>
    <path d="M111.68,242.54h0c-3.62-1.51-7.79.2-9.31,3.83l-.78,1.87c-1.51,3.62.2,7.79,3.83,9.31.89.37,1.82.55,2.73.55,2.79,0,5.44-1.65,6.58-4.37l.78-1.87c1.51-3.62-.21-7.79-3.82-9.31Z" fill="#2b3948"/>
    <path d="M197.63,246.4c-.72-1.76-2.09-3.13-3.84-3.86-1.75-.73-3.69-.73-5.44,0-1.76.72-3.13,2.08-3.86,3.84-.73,1.75-.73,3.68-.01,5.44l.77,1.87c.72,1.76,2.09,3.13,3.84,3.86.88.37,1.81.55,2.73.55s1.83-.18,2.71-.54c1.76-.72,3.13-2.08,3.86-3.84.73-1.75.73-3.68.01-5.44l-.77-1.87Z" fill="#2b3948"/>
    <path d="M253.71,185.25h0l-1.87-.78c-1.76-.73-3.69-.74-5.45-.02-1.76.72-3.13,2.09-3.86,3.84-1.51,3.61.21,7.79,3.83,9.31l1.87.78c.89.37,1.82.55,2.73.55,2.79,0,5.44-1.65,6.58-4.37,1.51-3.62-.21-7.79-3.82-9.31Z" fill="#2b3948"/>
    <path d="M249.11,116.06c.91,0,1.84-.18,2.73-.55l1.87-.78c3.62-1.51,5.33-5.69,3.82-9.31-1.51-3.62-5.69-5.34-9.31-3.83l-1.87.78c-1.76.73-3.12,2.1-3.84,3.86-.72,1.76-.72,3.69.02,5.45,1.14,2.73,3.79,4.37,6.58,4.37Z" fill="#2b3948"/>
    <path d="M188.35,57.48c.87.36,1.78.54,2.7.54s1.86-.19,2.75-.56c1.75-.73,3.12-2.1,3.84-3.86l.77-1.88c.72-1.76.71-3.69-.02-5.44-.73-1.75-2.1-3.12-3.86-3.84-3.63-1.49-7.79.25-9.28,3.88l-.77,1.88c-.72,1.76-.71,3.69.02,5.44.73,1.75,2.1,3.12,3.86,3.84Z" fill="#2b3948"/>
  </g>
</svg>