<?xml version="1.0" encoding="UTF-8"?>
<svg id="_x31_0" xmlns="http://www.w3.org/2000/svg" width="300" height="300" version="1.1" viewBox="0 0 300 300">
  <!-- Generator: Adobe Illustrator 29.4.0, SVG Export Plug-In . SVG Version: 2.1.0 Build 152)  -->
  <rect x="-.5" y=".63" width="300" height="300" fill="#ded9c3"/>
  <g>
    <path d="M152.02,37.62c-2.83,0-5.11,2.29-5.11,5.11v55.66c0,2.82,2.29,5.11,5.11,5.11s5.11-2.29,5.11-5.11v-55.66c0-2.82-2.29-5.11-5.11-5.11Z" fill="#2b3948"/>
    <path d="M152.02,105.5c-3.92,0-7.11-3.19-7.11-7.11v-55.66c0-3.92,3.19-7.11,7.11-7.11s7.11,3.19,7.11,7.11v55.66c0,3.92-3.19,7.11-7.11,7.11ZM152.02,39.62c-1.71,0-3.11,1.4-3.11,3.11v55.66c0,1.71,1.4,3.11,3.11,3.11s3.11-1.4,3.11-3.11v-55.66c0-1.71-1.4-3.11-3.11-3.11Z" fill="#2b3948"/>
  </g>
  <g>
    <path d="M111.32,115.69c2,2,5.23,2,7.23,0s2-5.23,0-7.23l-39.36-39.36c-2-2-5.23-2-7.23,0s-2,5.23,0,7.23l39.36,39.36Z" fill="#2b3948"/>
    <path d="M114.93,119.18c-1.82,0-3.64-.69-5.03-2.08l-39.36-39.36c-1.35-1.34-2.09-3.13-2.09-5.03s.74-3.68,2.09-5.03c2.77-2.77,7.29-2.77,10.06,0l39.36,39.36c1.35,1.34,2.09,3.13,2.09,5.03s-.74,3.68-2.09,5.03c-1.39,1.39-3.21,2.08-5.03,2.08ZM75.57,69.6c-.8,0-1.59.3-2.2.91-.59.59-.91,1.37-.91,2.2s.32,1.61.91,2.2l39.36,39.36c1.21,1.21,3.19,1.21,4.4,0,.59-.59.91-1.37.91-2.2s-.32-1.61-.91-2.2l-39.36-39.36c-.61-.61-1.4-.91-2.2-.91Z" fill="#2b3948"/>
  </g>
  <g>
    <path d="M103.5,147.97c0-2.82-2.29-5.11-5.11-5.11h-55.66c-2.82,0-5.11,2.29-5.11,5.11s2.29,5.11,5.11,5.11h55.66c2.82,0,5.11-2.29,5.11-5.11Z" fill="#2b3948"/>
    <path d="M98.39,155.08h-55.66c-3.92,0-7.11-3.19-7.11-7.11s3.19-7.11,7.11-7.11h55.66c3.92,0,7.11,3.19,7.11,7.11s-3.19,7.11-7.11,7.11ZM42.73,144.86c-1.71,0-3.11,1.4-3.11,3.11s1.4,3.11,3.11,3.11h55.66c1.71,0,3.11-1.4,3.11-3.11s-1.4-3.11-3.11-3.11h-55.66Z" fill="#2b3948"/>
  </g>
  <g>
    <path d="M115.69,181.45c-2-2-5.23-2-7.23,0l-39.36,39.36c-2,2-2,5.23,0,7.23s5.23,2,7.23,0l39.36-39.36c2-2,2-5.23,0-7.23Z" fill="#2b3948"/>
    <path d="M72.71,231.53c-1.82,0-3.64-.69-5.03-2.08-1.35-1.34-2.09-3.13-2.09-5.03s.74-3.68,2.09-5.03l39.36-39.36c2.77-2.77,7.29-2.77,10.06,0,2.77,2.77,2.77,7.29,0,10.06l-39.36,39.36c-1.39,1.39-3.21,2.08-5.03,2.08ZM112.08,181.95c-.8,0-1.59.3-2.2.91l-39.36,39.36c-1.21,1.21-1.21,3.19,0,4.4,1.21,1.21,3.19,1.21,4.4,0l39.36-39.36c.59-.59.91-1.37.91-2.2s-.32-1.61-.91-2.2c-.61-.61-1.4-.91-2.2-.91Z" fill="#2b3948"/>
  </g>
  <g>
    <path d="M147.98,196.5c-2.83,0-5.11,2.29-5.11,5.11v55.67c0,2.82,2.29,5.11,5.11,5.11s5.11-2.29,5.11-5.11v-55.67c0-2.82-2.29-5.11-5.11-5.11Z" fill="#2b3948"/>
    <path d="M147.98,264.39c-3.92,0-7.11-3.19-7.11-7.11v-55.67c0-3.92,3.19-7.11,7.11-7.11s7.11,3.19,7.11,7.11v55.67c0,3.92-3.19,7.11-7.11,7.11ZM147.98,198.5c-1.71,0-3.11,1.4-3.11,3.11v55.67c0,1.71,1.4,3.11,3.11,3.11s3.11-1.39,3.11-3.11v-55.67c0-1.71-1.4-3.11-3.11-3.11Z" fill="#2b3948"/>
  </g>
  <g>
    <path d="M188.68,184.31c-2-2-5.23-2-7.23,0s-2,5.23,0,7.23l39.36,39.36c2,2,5.23,2,7.23,0s2-5.23,0-7.23l-39.36-39.36Z" fill="#2b3948"/>
    <path d="M224.42,234.39c-1.82,0-3.64-.69-5.03-2.08l-39.36-39.36c-1.34-1.34-2.09-3.13-2.09-5.03s.74-3.68,2.09-5.03,3.13-2.09,5.03-2.09,3.68.74,5.03,2.09l39.36,39.36c1.34,1.34,2.09,3.13,2.09,5.03s-.74,3.68-2.09,5.03-3.21,2.08-5.03,2.08ZM185.07,184.81c-.8,0-1.59.3-2.2.91-1.21,1.21-1.21,3.19,0,4.4l39.36,39.36c1.18,1.18,3.22,1.18,4.4,0s1.21-3.19,0-4.4l-39.36-39.36c-.61-.61-1.4-.91-2.2-.91Z" fill="#2b3948"/>
  </g>
  <g>
    <path d="M257.27,146.91h-55.67c-2.83,0-5.11,2.29-5.11,5.11s2.29,5.11,5.11,5.11h55.67c2.82,0,5.11-2.29,5.11-5.11s-2.29-5.11-5.11-5.11Z" fill="#2b3948"/>
    <path d="M257.27,159.13h-55.67c-3.92,0-7.11-3.19-7.11-7.11s3.19-7.11,7.11-7.11h55.67c3.92,0,7.11,3.19,7.11,7.11s-3.19,7.11-7.11,7.11ZM201.6,148.91c-1.71,0-3.11,1.4-3.11,3.11s1.39,3.11,3.11,3.11h55.67c1.71,0,3.11-1.4,3.11-3.11s-1.4-3.11-3.11-3.11h-55.67Z" fill="#2b3948"/>
  </g>
  <g>
    <path d="M184.31,118.55c2,2,5.23,2,7.23,0l39.35-39.35c2-2,2-5.23,0-7.23s-5.23-2-7.23,0l-39.35,39.35c-2,2-2,5.23,0,7.23Z" fill="#2b3948"/>
    <path d="M187.92,122.04c-1.82,0-3.64-.69-5.03-2.08s-2.09-3.13-2.09-5.03.74-3.68,2.09-5.03l39.35-39.35c2.77-2.77,7.29-2.77,10.06,0,1.34,1.34,2.09,3.13,2.09,5.03s-.74,3.68-2.09,5.03l-39.35,39.35c-1.39,1.39-3.21,2.08-5.03,2.08ZM227.28,72.47c-.8,0-1.59.3-2.2.91l-39.35,39.35c-.59.59-.91,1.37-.91,2.2s.32,1.61.91,2.2c1.18,1.18,3.22,1.18,4.4,0l39.35-39.35c1.21-1.21,1.21-3.19,0-4.4-.61-.61-1.4-.91-2.2-.91Z" fill="#2b3948"/>
  </g>
  <g>
    <path d="M104.23,52.86c1.08,2.61,4.07,3.84,6.68,2.76s3.85-4.07,2.76-6.68l-.78-1.88c-1.08-2.61-4.07-3.84-6.68-2.76s-3.85,4.07-2.76,6.68l.78,1.88Z" fill="#2b3948"/>
    <path d="M108.96,58.01c-2.79,0-5.45-1.65-6.58-4.39l-.78-1.88c-.73-1.75-.74-3.68-.01-5.44.73-1.76,2.09-3.13,3.85-3.86,3.62-1.5,7.79.22,9.29,3.84l.78,1.88c.73,1.75.74,3.68.01,5.44-.73,1.76-2.09,3.13-3.85,3.85-.89.37-1.81.54-2.72.54ZM108.17,45.91c-.4,0-.8.08-1.19.24-.77.32-1.37.92-1.69,1.69-.32.77-.31,1.61,0,2.38l.78,1.88s0,0,0,0c.65,1.58,2.48,2.33,4.07,1.68.77-.32,1.37-.92,1.68-1.68.32-.77.31-1.61,0-2.38l-.78-1.88c-.49-1.19-1.65-1.92-2.88-1.92Z" fill="#2b3948"/>
  </g>
  <g>
    <path d="M120.64,65.77c-1.08-2.61-4.07-3.85-6.68-2.76-2.61,1.08-3.85,4.07-2.76,6.68l13.95,33.66c1.08,2.61,4.07,3.85,6.68,2.76,2.61-1.08,3.85-4.07,2.76-6.68l-13.95-33.66h0Z" fill="#2b3948"/>
    <path d="M129.87,108.51c-.92,0-1.83-.18-2.71-.54-1.76-.73-3.13-2.09-3.86-3.85l-13.95-33.66c-.73-1.75-.74-3.68-.01-5.44.73-1.76,2.09-3.13,3.85-3.86,1.75-.73,3.68-.73,5.44,0,1.76.73,3.13,2.09,3.85,3.85l13.95,33.66c.73,1.75.74,3.68.01,5.44-.73,1.76-2.09,3.13-3.85,3.86-.88.37-1.8.55-2.73.55ZM115.93,64.61c-.4,0-.81.08-1.2.24-.78.32-1.37.92-1.69,1.69-.32.77-.31,1.61,0,2.38l13.95,33.67c.32.77.92,1.37,1.69,1.69.77.32,1.61.31,2.38,0,.78-.32,1.37-.92,1.69-1.69.32-.77.31-1.61,0-2.38l-13.95-33.67s0,0,0,0c-.32-.77-.92-1.37-1.69-1.69-.38-.16-.78-.24-1.18-.24Z" fill="#2b3948"/>
  </g>
  <g>
    <path d="M47.06,112.89l1.87.78c2.61,1.09,5.6-.14,6.69-2.75s-.15-5.6-2.75-6.69l-1.87-.78c-2.6-1.09-5.6.14-6.69,2.75s.14,5.6,2.75,6.69Z" fill="#2b3948"/>
    <path d="M50.89,116.06c-.91,0-1.84-.18-2.73-.55l-1.87-.78s0,0,0,0c-3.62-1.51-5.34-5.69-3.82-9.31.73-1.76,2.11-3.12,3.87-3.84,1.76-.72,3.69-.71,5.44.02l1.87.78c3.62,1.52,5.34,5.69,3.83,9.31-1.14,2.73-3.79,4.37-6.58,4.37ZM47.83,111.04l1.87.78c1.59.66,3.41-.09,4.08-1.67.66-1.58-.09-3.41-1.68-4.07l-1.87-.78c-.77-.32-1.61-.32-2.38,0-.77.32-1.37.91-1.69,1.68-.66,1.58.09,3.41,1.67,4.07Z" fill="#2b3948"/>
  </g>
  <g>
    <path d="M65.76,120.64l33.66,13.94c2.61,1.08,5.6-.16,6.68-2.77s-.16-5.6-2.77-6.68l-33.66-13.94c-2.61-1.08-5.6.16-6.68,2.77-1.08,2.61.16,5.6,2.77,6.68Z" fill="#2b3948"/>
    <path d="M101.37,136.97c-.9,0-1.82-.17-2.71-.54l-33.66-13.94c-1.76-.73-3.12-2.09-3.85-3.85-.73-1.75-.73-3.69,0-5.44s2.09-3.12,3.85-3.85c1.75-.73,3.69-.73,5.44,0l33.66,13.94c3.62,1.5,5.35,5.67,3.85,9.29-1.13,2.74-3.79,4.39-6.58,4.39ZM67.71,112.8c-.4,0-.81.08-1.19.24-.77.32-1.37.92-1.68,1.69-.66,1.59.1,3.41,1.69,4.07,0,0,0,0,0,0l33.66,13.94c1.58.65,3.41-.1,4.07-1.69.66-1.59-.1-3.41-1.69-4.07l-33.66-13.94c-.38-.16-.79-.24-1.19-.24Z" fill="#2b3948"/>
  </g>
  <g>
    <path d="M51,196.54l1.87-.78c2.61-1.09,3.84-4.08,2.75-6.69s-4.08-3.84-6.69-2.75l-1.87.78c-2.61,1.09-3.84,4.08-2.75,6.69s4.08,3.84,6.69,2.75Z" fill="#2b3948"/>
    <path d="M49.03,198.94c-.92,0-1.83-.18-2.7-.54-1.76-.72-3.13-2.09-3.86-3.84-1.51-3.62.21-7.79,3.82-9.31l1.87-.78c3.62-1.51,7.79.2,9.31,3.83.73,1.75.74,3.69.02,5.45s-2.09,3.13-3.84,3.86l-1.87.78c-.88.37-1.81.55-2.74.55ZM50.9,187.93c-.4,0-.8.08-1.19.24l-1.87.78c-1.58.66-2.34,2.49-1.67,4.07.32.77.92,1.37,1.69,1.68.77.32,1.61.31,2.38,0h0l1.87-.78c.77-.32,1.37-.92,1.68-1.69s.31-1.62,0-2.38c-.5-1.19-1.66-1.92-2.88-1.92Z" fill="#2b3948"/>
  </g>
  <g>
    <path d="M69.68,188.8l33.66-13.94c2.61-1.08,3.85-4.07,2.77-6.68-1.08-2.61-4.07-3.85-6.68-2.77l-33.66,13.94c-2.61,1.08-3.85,4.07-2.77,6.68,1.08,2.61,4.07,3.85,6.68,2.77h0Z" fill="#2b3948"/>
    <path d="M67.73,191.19c-2.79,0-5.45-1.66-6.58-4.39-1.5-3.62.23-7.79,3.85-9.29l33.66-13.94c3.62-1.5,7.79.23,9.29,3.85,1.5,3.62-.23,7.79-3.85,9.29l-33.66,13.94h0c-.89.37-1.81.54-2.71.54ZM69.68,188.8h0,0ZM101.38,167.02c-.4,0-.8.08-1.19.24l-33.66,13.94c-1.59.66-2.34,2.48-1.69,4.07.66,1.59,2.48,2.34,4.07,1.69l33.66-13.94c1.59-.66,2.34-2.48,1.69-4.07-.5-1.2-1.66-1.92-2.88-1.92Z" fill="#2b3948"/>
  </g>
  <g>
    <path d="M110.91,244.39c-2.61-1.09-5.6.14-6.69,2.75l-.78,1.87c-1.09,2.61.14,5.6,2.75,6.69,2.61,1.09,5.6-.14,6.69-2.75l.78-1.87c1.09-2.61-.14-5.6-2.75-6.69Z" fill="#2b3948"/>
    <path d="M108.15,258.09c-.91,0-1.84-.18-2.73-.55-3.62-1.51-5.34-5.69-3.83-9.31l.78-1.87c1.51-3.62,5.69-5.34,9.31-3.83h0c3.62,1.51,5.33,5.69,3.82,9.31l-.78,1.87c-1.14,2.73-3.79,4.37-6.58,4.37ZM108.94,246c-1.22,0-2.38.72-2.88,1.92l-.78,1.87c-.66,1.58.09,3.41,1.67,4.07,1.58.66,3.41-.09,4.07-1.67l.78-1.87c.66-1.58-.09-3.41-1.67-4.07h0c-.39-.16-.8-.24-1.19-.24Z" fill="#2b3948"/>
  </g>
  <g>
    <path d="M131.82,193.89c-2.61-1.08-5.6.16-6.68,2.77l-13.95,33.66c-1.08,2.61.16,5.6,2.76,6.68,2.61,1.08,5.6-.16,6.68-2.77l13.95-33.66c1.08-2.61-.16-5.6-2.76-6.68h0Z" fill="#2b3948"/>
    <path d="M115.9,239.39c-.9,0-1.82-.17-2.71-.54-3.62-1.5-5.34-5.67-3.84-9.29l13.95-33.66c.73-1.75,2.09-3.12,3.85-3.85,1.75-.73,3.69-.73,5.44,0,0,0,0,0,0,0,3.62,1.5,5.34,5.67,3.84,9.29l-13.95,33.66c-1.13,2.74-3.79,4.39-6.58,4.39ZM129.86,195.5c-.4,0-.81.08-1.19.24-.77.32-1.37.92-1.68,1.69l-13.95,33.66c-.66,1.58.1,3.41,1.68,4.07,1.59.66,3.41-.1,4.06-1.69l13.95-33.66c.66-1.58-.1-3.41-1.68-4.07-.38-.16-.79-.24-1.19-.24Z" fill="#2b3948"/>
  </g>
  <g>
    <path d="M195.78,247.16c-1.07-2.61-4.06-3.86-6.67-2.78-2.61,1.07-3.85,4.06-2.78,6.67l.77,1.87c1.07,2.61,4.06,3.86,6.67,2.78,2.61-1.07,3.85-4.06,2.78-6.67l-.77-1.87Z" fill="#2b3948"/>
    <path d="M191.82,258.09c-.92,0-1.85-.18-2.73-.55-1.76-.73-3.12-2.1-3.84-3.86l-.77-1.87c-.72-1.76-.72-3.69.01-5.44.73-1.76,2.1-3.12,3.86-3.84,1.75-.72,3.68-.72,5.44,0,1.76.73,3.12,2.1,3.84,3.86l.77,1.87c.72,1.76.72,3.69-.01,5.44-.73,1.76-2.1,3.12-3.86,3.84-.87.36-1.79.54-2.71.54ZM191.06,245.99c-.4,0-.8.08-1.18.24-.77.32-1.37.91-1.69,1.68-.32.77-.32,1.62,0,2.38l.77,1.87c.32.77.91,1.37,1.68,1.69.77.32,1.61.32,2.38,0,.77-.32,1.37-.91,1.69-1.68.32-.77.32-1.62,0-2.38l-.77-1.87s0,0,0,0c-.32-.77-.91-1.37-1.68-1.69-.38-.16-.79-.24-1.19-.24Z" fill="#2b3948"/>
  </g>
  <g>
    <path d="M188.8,230.32l-13.95-33.66c-1.08-2.61-4.07-3.85-6.68-2.77-2.61,1.08-3.85,4.07-2.76,6.68l13.95,33.66c1.08,2.61,4.07,3.85,6.68,2.77,2.61-1.08,3.85-4.07,2.76-6.68Z" fill="#2b3948"/>
    <path d="M184.09,239.39c-2.79,0-5.45-1.66-6.58-4.39l-13.95-33.66c-.73-1.75-.74-3.68,0-5.44.73-1.76,2.09-3.13,3.85-3.85,3.63-1.5,7.79.23,9.29,3.85l13.95,33.66c.73,1.75.74,3.69.01,5.44-.73,1.76-2.09,3.13-3.85,3.85-.89.37-1.81.54-2.71.54ZM170.12,195.5c-.4,0-.8.08-1.19.24-.77.32-1.37.92-1.68,1.68-.32.77-.31,1.61,0,2.38l13.95,33.67c.66,1.59,2.48,2.34,4.07,1.69.77-.32,1.37-.92,1.68-1.69.32-.77.31-1.61,0-2.38,0,0,0,0,0,0l-13.95-33.66c-.5-1.2-1.66-1.92-2.88-1.92Z" fill="#2b3948"/>
  </g>
  <g>
    <path d="M252.94,187.11l-1.87-.78c-2.61-1.09-5.6.14-6.69,2.75s.15,5.6,2.75,6.69l1.87.78c2.61,1.09,5.6-.14,6.69-2.75s-.14-5.6-2.75-6.69Z" fill="#2b3948"/>
    <path d="M250.96,198.94c-.91,0-1.84-.18-2.73-.55l-1.87-.78c-3.62-1.52-5.33-5.69-3.83-9.31.73-1.76,2.1-3.12,3.86-3.84,1.75-.72,3.69-.72,5.45.02l1.87.78h0c1.75.73,3.12,2.1,3.84,3.86.72,1.76.72,3.69-.02,5.45-1.14,2.73-3.79,4.37-6.58,4.37ZM249.1,187.93c-.4,0-.8.08-1.18.23-.77.32-1.37.91-1.69,1.68-.66,1.58.09,3.41,1.68,4.07l1.87.78c1.58.66,3.41-.09,4.07-1.68.66-1.58-.09-3.41-1.67-4.07l-1.87-.78c-.39-.16-.8-.24-1.2-.24Z" fill="#2b3948"/>
  </g>
  <g>
    <path d="M234.23,179.35l-33.65-13.94c-2.61-1.08-5.6.16-6.68,2.77-1.08,2.61.16,5.6,2.77,6.68l33.65,13.94c2.61,1.08,5.6-.16,6.68-2.77,1.08-2.61-.16-5.6-2.77-6.68Z" fill="#2b3948"/>
    <path d="M232.27,191.19c-.9,0-1.82-.17-2.71-.54l-33.65-13.94c-3.62-1.5-5.35-5.67-3.85-9.29,1.5-3.62,5.67-5.35,9.29-3.85l33.65,13.94c3.62,1.5,5.35,5.67,3.85,9.29-1.13,2.74-3.79,4.39-6.58,4.39ZM198.63,167.02c-1.22,0-2.38.72-2.88,1.92-.32.77-.32,1.62,0,2.38.32.77.92,1.37,1.69,1.68l33.65,13.94c.77.32,1.61.32,2.38,0s1.37-.92,1.68-1.69c.66-1.59-.1-3.41-1.69-4.07h0l-33.65-13.94c-.39-.16-.79-.24-1.19-.24Z" fill="#2b3948"/>
  </g>
  <g>
    <path d="M249,103.46l-1.87.78c-2.61,1.09-3.84,4.08-2.75,6.69s4.08,3.84,6.69,2.75l1.87-.78c2.61-1.09,3.84-4.08,2.75-6.69s-4.08-3.84-6.69-2.75Z" fill="#2b3948"/>
    <path d="M249.11,116.08c-2.79,0-5.44-1.65-6.58-4.37-.73-1.76-.74-3.69-.02-5.45.72-1.76,2.09-3.13,3.84-3.86l1.87-.78c3.62-1.51,7.79.2,9.31,3.82,1.51,3.62-.2,7.79-3.83,9.31l-1.87.78c-.89.37-1.82.55-2.73.55ZM250.96,105.07c-.4,0-.8.08-1.19.24h0l-1.87.78c-.77.32-1.37.92-1.68,1.69-.32.77-.31,1.61,0,2.38.66,1.59,2.49,2.34,4.07,1.67l1.87-.78c1.58-.66,2.34-2.49,1.67-4.07-.5-1.19-1.66-1.92-2.88-1.92ZM249,103.46h0,0Z" fill="#2b3948"/>
  </g>
  <g>
    <path d="M230.31,111.2l-33.65,13.94c-2.61,1.08-3.85,4.07-2.77,6.68,1.08,2.61,4.07,3.85,6.68,2.77l33.65-13.94c2.61-1.08,3.85-4.07,2.77-6.68s-4.07-3.85-6.68-2.77h0Z" fill="#2b3948"/>
    <path d="M198.62,136.98c-2.79,0-5.45-1.66-6.58-4.39-.73-1.76-.73-3.69,0-5.44.73-1.75,2.1-3.12,3.85-3.85l33.65-13.94h0c3.63-1.5,7.79.23,9.29,3.85.73,1.76.73,3.69,0,5.44-.73,1.75-2.1,3.12-3.85,3.85l-33.65,13.94c-.89.37-1.81.54-2.71.54ZM231.08,113.05l-33.65,13.94c-.77.32-1.37.92-1.69,1.68-.32.77-.32,1.61,0,2.38.66,1.59,2.48,2.34,4.07,1.69l33.65-13.94c.77-.32,1.37-.92,1.69-1.68.32-.77.32-1.61,0-2.38-.66-1.59-2.48-2.34-4.07-1.69h0Z" fill="#2b3948"/>
  </g>
  <g>
    <path d="M189.11,55.63c2.61,1.07,5.6-.18,6.67-2.79l.77-1.88c1.07-2.61-.18-5.6-2.79-6.67s-5.6.18-6.67,2.79l-.77,1.88c-1.07,2.61.18,5.6,2.79,6.67Z" fill="#2b3948"/>
    <path d="M191.05,58.02c-.91,0-1.83-.18-2.7-.54-1.76-.72-3.13-2.08-3.86-3.84-.73-1.75-.74-3.69-.02-5.44l.77-1.88c1.49-3.63,5.65-5.37,9.28-3.88,1.76.72,3.13,2.08,3.86,3.84.73,1.75.74,3.69.02,5.44l-.77,1.88c-.72,1.76-2.08,3.13-3.84,3.86-.88.37-1.82.56-2.75.56ZM191.82,45.91c-1.23,0-2.39.73-2.88,1.93l-.77,1.88c-.32.77-.31,1.62,0,2.38.32.77.92,1.36,1.69,1.68h0c.77.31,1.61.31,2.38,0,.77-.32,1.36-.92,1.68-1.69l.77-1.88c.32-.77.31-1.62,0-2.38-.32-.77-.92-1.36-1.69-1.68-.38-.16-.78-.23-1.18-.23Z" fill="#2b3948"/>
  </g>
  <g>
    <path d="M168.18,106.11c2.61,1.08,5.6-.16,6.68-2.76l13.95-33.66c1.08-2.61-.16-5.6-2.76-6.68-2.61-1.08-5.6.16-6.68,2.76l-13.95,33.66c-1.08,2.61.16,5.6,2.76,6.68Z" fill="#2b3948"/>
    <path d="M170.13,108.5c-.91,0-1.83-.17-2.71-.54,0,0,0,0,0,0-3.62-1.5-5.34-5.67-3.84-9.29l13.95-33.66c1.5-3.62,5.67-5.34,9.29-3.84,3.62,1.5,5.34,5.67,3.84,9.29l-13.95,33.66c-1.13,2.73-3.79,4.38-6.58,4.38ZM168.94,104.26c1.59.66,3.41-.1,4.07-1.68l13.95-33.66c.66-1.59-.1-3.41-1.68-4.07-1.58-.65-3.41.1-4.07,1.68l-13.95,33.66c-.66,1.58.1,3.41,1.68,4.07h0Z" fill="#2b3948"/>
  </g>
</svg>