<?xml version="1.0" encoding="UTF-8"?>
<svg id="_x31_0" xmlns="http://www.w3.org/2000/svg" width="300" height="300" version="1.1" viewBox="0 0 300 300">
  <!-- Generator: Adobe Illustrator 29.4.0, SVG Export Plug-In . SVG Version: 2.1.0 Build 152)  -->
  <rect x="-.5" y=".63" width="300" height="300" fill="#ded9c3"/>
  <path d="M150,40.42c-60.42,0-109.58,49.16-109.58,109.58s49.16,109.58,109.58,109.58,109.58-49.16,109.58-109.58-49.16-109.58-109.58-109.58h0ZM46.81,150c0-56.9,46.29-103.19,103.19-103.19,1.99,0,3.97.06,5.93.17-.1,8.88-3.91,13.21-8.33,18.2-4.66,5.27-9.94,11.24-9.94,22.79s5.28,17.52,9.94,22.79c1.97,2.22,3.82,4.32,5.27,6.74,1.85,3.09,3.07,6.71,3.07,11.82,0,7.07-2.33,11.29-5.46,15.18-.91,1.13-1.88,2.23-2.88,3.37-4.66,5.27-9.94,11.24-9.94,22.79,0,10.47,4.34,16.36,8.63,21.29.44.51.88,1.01,1.31,1.5,4.47,5.06,8.34,9.43,8.34,18.55s-3.86,13.49-8.34,18.55c-1.79,2.03-3.68,4.17-5.32,6.68-2.51,3.84-4.43,8.58-4.6,15.19-51.11-6.11-90.87-49.72-90.87-102.45v.03Z" fill="#2b3948"/>
</svg>