<?xml version="1.0" encoding="UTF-8"?>
<svg id="_x31_0" xmlns="http://www.w3.org/2000/svg" width="300" height="300" version="1.1" viewBox="0 0 300 300">
  <!-- Generator: Adobe Illustrator 29.4.0, SVG Export Plug-In . SVG Version: 2.1.0 Build 152)  -->
  <rect x="-.5" y=".63" width="300" height="300" fill="#ded9c3"/>
  <path d="M150,36.94c-62.34,0-113.06,50.72-113.06,113.06s50.72,113.06,113.06,113.06,113.06-50.72,113.06-113.06-50.72-113.06-113.06-113.06Z" fill="#2b3948"/>
  <g>
    <g>
      <path d="M90.28,107.65c0,3-2.65,5.43-5.92,5.43s-5.92-2.43-5.92-5.43,2.65-5.43,5.92-5.43,5.92,2.43,5.92,5.43Z" fill="#ded9c3"/>
      <path d="M147.23,130.62c0,3-2.65,5.43-5.92,5.43s-5.92-2.43-5.92-5.43,2.65-5.43,5.92-5.43,5.92,2.43,5.92,5.43Z" fill="#ded9c3"/>
      <path d="M106.57,130.62c0,1.44-1.27,2.61-2.85,2.61s-2.85-1.17-2.85-2.61,1.27-2.61,2.85-2.61,2.85,1.17,2.85,2.61Z" fill="#ded9c3"/>
      <path d="M116.82,107.65c0,1.44-1.27,2.61-2.85,2.61s-2.85-1.17-2.85-2.61,1.27-2.61,2.85-2.61,2.85,1.17,2.85,2.61Z" fill="#ded9c3"/>
    </g>
    <path d="M203.34,98.4c0,3-2.65,5.43-5.92,5.43s-5.92-2.43-5.92-5.43,2.65-5.43,5.92-5.43,5.92,2.43,5.92,5.43Z" fill="#ded9c3"/>
    <path d="M182.23,206.17c0,3-2.65,5.43-5.92,5.43s-5.92-2.43-5.92-5.43,2.65-5.43,5.92-5.43,5.92,2.43,5.92,5.43Z" fill="#ded9c3"/>
    <path d="M161.87,190.06c0,1.44-1.27,2.61-2.85,2.61s-2.85-1.17-2.85-2.61,1.27-2.61,2.85-2.61,2.85,1.17,2.85,2.61Z" fill="#ded9c3"/>
    <path d="M154.16,91.01c0,1.44-1.27,2.61-2.85,2.61s-2.85-1.17-2.85-2.61,1.27-2.61,2.85-2.61,2.85,1.17,2.85,2.61Z" fill="#ded9c3"/>
    <path d="M216.11,195.45c0,1.44-1.65,2.61-3.69,2.61s-3.69-1.17-3.69-2.61,1.65-2.61,3.69-2.61,3.69,1.17,3.69,2.61Z" fill="#ded9c3"/>
    <path d="M216.31,123.95c0,1.44-1.27,2.61-2.85,2.61s-2.85-1.17-2.85-2.61,1.27-2.61,2.85-2.61,2.85,1.17,2.85,2.61Z" fill="#ded9c3"/>
    <path d="M114.22,169.32l-6.33-6.42c-.24-.25-.35-.6-.28-.94l1.7-8.86c.16-.86-.72-1.53-1.5-1.14l-8.07,4.04c-.31.16-.68.15-.98-.02l-7.9-4.35c-.76-.42-1.68.22-1.55,1.08l1.35,8.92c.05.34-.07.69-.32.92l-6.58,6.17c-.64.6-.31,1.66.55,1.81l8.9,1.47c.34.06.63.28.78.59l3.83,8.17c.37.79,1.48.81,1.89.04l4.15-8.01c.16-.31.46-.52.8-.56l8.95-1.12c.86-.11,1.23-1.16.62-1.78h0Z" fill="#ded9c3"/>
    <path d="M202.59,143.69l-13.42,5.1c-.52.2-1.09.13-1.55-.19l-11.81-8.17c-1.14-.79-2.69.07-2.62,1.46l.7,14.34c.03.55-.22,1.08-.66,1.41l-11.42,8.71c-1.1.84-.76,2.58.58,2.95l13.85,3.77c.53.14.96.54,1.14,1.06l4.75,13.55c.46,1.31,2.22,1.52,2.98.36l7.86-12.01c.3-.46.81-.74,1.36-.76l14.35-.33c1.39-.03,2.14-1.64,1.27-2.72l-8.99-11.19c-.35-.43-.46-1-.3-1.53l4.12-13.75c.4-1.33-.9-2.54-2.2-2.05h0Z" fill="#ded9c3"/>
  </g>
</svg>