<?xml version="1.0" encoding="UTF-8"?>
<svg id="_x31_0" xmlns="http://www.w3.org/2000/svg" width="300" height="300" version="1.1" viewBox="0 0 300 300">
  <!-- Generator: Adobe Illustrator 29.4.0, SVG Export Plug-In . SVG Version: 2.1.0 Build 152)  -->
  <rect x="-.5" y=".63" width="300" height="300" fill="#ded9c3"/>
  <rect x="27.02" y="60.64" width="245.96" height="178.71" rx="3.5" ry="3.5" fill="#ded9c3"/>
  <path d="M269.48,64.14v171.71H30.52V64.14h238.96M269.48,57.14H30.52c-3.87,0-7,3.13-7,7v171.71c0,3.87,3.13,7,7,7h238.96c3.87,0,7-3.13,7-7V64.14c0-3.87-3.13-7-7-7h0Z" fill="#2b3948"/>
  <g>
    <path d="M233.78,177.18l-44.21-58.31c-1.47-1.93-3.72-3.04-6.18-3.04s-4.71,1.11-6.18,3.04c0,0,0,0,0,0l-41.51,54.75c-.72.95-1.84,1.46-3.07,1.45-1.21-.02-2.3-.58-2.98-1.53l-19.67-27.7c-1.44-2.02-3.8-3.23-6.32-3.23s-4.88,1.21-6.32,3.23l-31.17,43.89c-.24.34-.37.74-.37,1.16v17.6c0,1.1.9,2,2,2h164.38c1.1,0,2-.9,2-2v-30.1c0-.44-.14-.86-.41-1.21Z" fill="#2b3948"/>
    <path d="M100.4,128.92c10.69,0,19.38-8.69,19.38-19.38s-8.69-19.38-19.38-19.38-19.38,8.69-19.38,19.38,8.69,19.38,19.38,19.38Z" fill="#2b3948"/>
  </g>
</svg>