<?xml version="1.0" encoding="UTF-8"?>
<svg id="_x31_0" xmlns="http://www.w3.org/2000/svg" width="300" height="300" version="1.1" viewBox="0 0 300 300">
  <!-- Generator: Adobe Illustrator 29.4.0, SVG Export Plug-In . SVG Version: 2.1.0 Build 152)  -->
  <rect x="-.5" y=".63" width="300" height="300" fill="#ded9c3"/>
  <path d="M150,253.46c-8.56,0-13.01-5.4-16.93-10.16-3.89-4.72-6.53-7.61-11.53-7.61-5.46,0-8.05,2.6-11.34,5.88-3.53,3.53-7.93,7.93-16.29,7.93s-12.89-5.06-16.43-9.13c-3.23-3.72-5.79-6.66-10.96-6.66h-.97c-9.8,0-15.97-2.12-18.34-6.31-1.12-1.98-1.87-5.31.91-9.94.2-.33.46-.63.75-.88.12-.11,17.56-16.85,29.92-105.8,3.72-36.64,34.33-64.26,71.22-64.26s67.49,27.62,71.22,64.26c12.37,88.95,29.8,105.68,29.98,105.84.3.25.5.5.7.83,2.78,4.63,2.03,7.96.91,9.94-2.37,4.19-8.54,6.31-18.34,6.31h-.97c-5.17,0-7.73,2.94-10.97,6.66-3.54,4.07-7.95,9.13-16.43,9.13s-12.75-4.4-16.29-7.93c-3.29-3.29-5.88-5.88-11.34-5.88-5,0-7.64,2.89-11.54,7.61-3.93,4.76-8.38,10.16-16.93,10.16h-.01Z" fill="#ded9c3"/>
  <path d="M150,50.03c35.27,0,64.28,26.82,67.74,61.18,12.89,92.77,31.15,108.06,31.15,108.06,5.72,9.54-7.21,10.95-14.43,10.95h-.97c-13.57,0-13.66,15.79-27.39,15.79s-13.81-13.82-27.63-13.82-14.65,17.77-28.47,17.77-14.65-17.77-28.47-17.77-13.81,13.82-27.63,13.82-13.82-15.79-27.39-15.79h-.97c-7.23,0-20.16-1.42-14.43-10.95,0,0,18.26-15.3,31.15-108.06,3.46-34.36,32.47-61.18,67.74-61.18M150,43.03c-18.73,0-36.67,6.94-50.51,19.53-13.71,12.47-22.3,29.45-24.18,47.81-3.45,24.82-9.53,59.55-18.89,84.32-5.22,13.82-9.24,18.56-9.91,19.29-.69.52-.93.9-1.4,1.69-3.84,6.4-2.25,11.18-.95,13.46,3.04,5.37,10.24,8.09,21.39,8.09h.97c3.29,0,4.81,1.41,8.32,5.45,3.79,4.36,8.99,10.34,19.07,10.34s14.98-5.18,18.76-8.96c3.37-3.37,5.02-4.86,8.86-4.86,3.3,0,5.04,1.74,8.83,6.34,3.98,4.82,9.43,11.43,19.63,11.43s15.65-6.61,19.63-11.43c3.79-4.6,5.54-6.34,8.84-6.34,3.85,0,5.5,1.49,8.86,4.86,3.78,3.78,8.96,8.96,18.76,8.96s15.27-5.97,19.07-10.33c3.52-4.04,5.04-5.46,8.33-5.46h.97c11.15,0,18.35-2.72,21.39-8.09,1.29-2.28,2.89-7.06-.95-13.46-.47-.78-.7-1.17-1.4-1.69-.67-.73-4.69-5.47-9.91-19.29-9.36-24.78-15.44-59.51-18.89-84.32-1.88-18.36-10.47-35.34-24.18-47.81-13.84-12.59-31.78-19.53-50.51-19.53h0Z" fill="#2b3948"/>
</svg>