<?xml version="1.0" encoding="UTF-8"?>
<svg id="_x31_0" xmlns="http://www.w3.org/2000/svg" width="300" height="300" version="1.1" viewBox="0 0 300 300">
  <!-- Generator: Adobe Illustrator 29.4.0, SVG Export Plug-In . SVG Version: 2.1.0 Build 152)  -->
  <rect x="-.5" y=".63" width="300" height="300" fill="#ded9c3"/>
  <rect x="27.02" y="60.64" width="245.96" height="178.71" rx="3.5" ry="3.5" fill="#ded9c3"/>
  <path d="M266.12,135.68c0-28.92-23.45-52.38-52.38-52.38-3.98,0-7.86.45-11.58,1.3-2.42-26.69-24.84-47.61-52.16-47.61s-49.74,20.91-52.16,47.61c-3.72-.84-7.61-1.3-11.58-1.3-28.93,0-52.38,23.45-52.38,52.38,0,21.59,13.06,40.13,31.71,48.15-4.67,7.84-7.36,17-7.36,26.79,0,28.92,23.45,52.38,52.38,52.38,15.71,0,29.8-6.92,39.39-17.87,9.6,10.95,23.69,17.87,39.39,17.87,28.93,0,52.38-23.46,52.38-52.38,0-9.79-2.69-18.95-7.36-26.79,18.65-8.02,31.71-26.56,31.71-48.15ZM191.06,164.35c-3.73,0-6.91-2.25-8.31-5.44h-24l16.97,16.96c3.25-1.27,7.09-.6,9.72,2.03,3.54,3.54,3.54,9.28,0,12.83s-9.28,3.54-12.83,0c-2.64-2.62-3.3-6.46-2.03-9.72l-16.97-16.95v23.98c3.2,1.4,5.44,4.59,5.44,8.31,0,5.01-4.05,9.07-9.07,9.07s-9.07-4.06-9.07-9.07c0-3.71,2.24-6.9,5.44-8.31v-23.99l-16.97,16.96c1.28,3.26.61,7.1-2.01,9.73-3.54,3.54-9.3,3.54-12.84,0-3.53-3.54-3.54-9.28,0-12.83,2.64-2.62,6.48-3.3,9.72-2.03l16.97-16.96h-23.98c-1.4,3.2-4.59,5.45-8.31,5.45-5.02,0-9.07-4.07-9.08-9.08,0-5.01,4.06-9.07,9.07-9.07,3.72,0,6.91,2.25,8.31,5.44h23.98l-16.97-16.96c-3.25,1.28-7.09.6-9.72-2.03-3.54-3.54-3.54-9.28,0-12.83,3.54-3.54,9.3-3.54,12.84,0,2.63,2.62,3.3,6.46,2.02,9.72l16.97,16.97v-24c-3.2-1.4-5.44-4.59-5.44-8.31,0-5.01,4.07-9.07,9.07-9.07s9.07,4.06,9.07,9.07c0,3.71-2.24,6.9-5.44,8.31v23.99l16.97-16.96c-1.28-3.26-.61-7.1,2.03-9.72,3.54-3.54,9.28-3.54,12.83,0s3.54,9.28,0,12.83c-2.64,2.63-6.48,3.3-9.72,2.03l-16.97,16.96h24c1.4-3.2,4.58-5.44,8.3-5.44,5.01,0,9.08,4.06,9.08,9.07s-4.07,9.08-9.07,9.07Z" fill="#2b3948"/>
</svg>