<?xml version="1.0" encoding="UTF-8"?>
<svg id="_x31_0" xmlns="http://www.w3.org/2000/svg" width="300" height="300" version="1.1" viewBox="0 0 300 300">
  <!-- Generator: Adobe Illustrator 29.4.0, SVG Export Plug-In . SVG Version: 2.1.0 Build 152)  -->
  <rect width="300" height="300" fill="#ded9c3"/>
  <g>
    <g>
      <path d="M211.73,265.03c10.67-17.4,10.81-23.4.99-41.28,17.4,10.67,23.4,10.81,41.28.99-10.67,17.4-10.81,23.4-.99,41.28-17.4-10.67-23.4-10.81-41.28-.99h0Z" fill="#2b3948"/>
      <path d="M253.01,268.02c-.36,0-.72-.1-1.04-.29-16.83-10.32-21.97-10.44-39.27-.94-.8.44-1.78.28-2.41-.37-.63-.66-.73-1.65-.26-2.43,10.32-16.83,10.44-21.97.94-39.27-.44-.79-.28-1.78.37-2.41.66-.62,1.65-.73,2.43-.26,16.83,10.32,21.97,10.44,39.27.94.79-.44,1.79-.28,2.41.37.63.66.73,1.65.26,2.43-10.32,16.83-10.44,21.97-.94,39.27.44.79.28,1.78-.37,2.41-.38.36-.88.55-1.38.55h0ZM232.07,255.86c4.96,0,9.83,1.65,16.01,4.98-5.85-12.21-5.68-19.25.75-31.17-12.21,5.85-19.25,5.68-31.17-.75,5.85,12.2,5.68,19.25-.75,31.17,5.88-2.82,10.55-4.24,15.16-4.24h0Z" fill="#2b3948"/>
    </g>
    <g>
      <path d="M211.73,265.03c10.67-17.4,10.81-23.4.99-41.28,17.4,10.67,23.4,10.81,41.28.99-10.67,17.4-10.81,23.4-.99,41.28-17.4-10.67-23.4-10.81-41.28-.99h0Z" fill="#2b3948"/>
      <path d="M253.01,268.02c-.36,0-.72-.1-1.04-.29-16.83-10.32-21.97-10.44-39.27-.94-.8.44-1.78.28-2.41-.37-.63-.66-.73-1.65-.26-2.43,10.32-16.83,10.44-21.97.94-39.27-.44-.79-.28-1.78.37-2.41.66-.62,1.65-.73,2.43-.26,16.83,10.32,21.97,10.44,39.27.94.79-.44,1.79-.28,2.41.37.63.66.73,1.65.26,2.43-10.32,16.83-10.44,21.97-.94,39.27.44.79.28,1.78-.37,2.41-.38.36-.88.55-1.38.55h0ZM232.07,255.86c4.96,0,9.83,1.65,16.01,4.98-5.85-12.21-5.68-19.25.75-31.17-12.21,5.85-19.25,5.68-31.17-.75,5.85,12.2,5.68,19.25-.75,31.17,5.88-2.82,10.55-4.24,15.16-4.24h0Z" fill="#2b3948"/>
    </g>
  </g>
  <g>
    <g>
      <path d="M212.16,65.04c12.73,4.35,16.61,3.58,26.7-5.31-4.35,12.73-3.58,16.61,5.31,26.7-12.73-4.35-16.61-3.58-26.7,5.31,4.35-12.73,3.58-16.61-5.31-26.7Z" fill="#2b3948"/>
      <path d="M217.47,93.74c-.39,0-.77-.11-1.11-.34-.75-.5-1.07-1.45-.78-2.31,4.1-11.99,3.46-15.23-4.92-24.73-.6-.68-.67-1.68-.16-2.43.5-.75,1.45-1.07,2.31-.78,11.99,4.1,15.23,3.45,24.73-4.92.68-.6,1.68-.67,2.43-.16.75.5,1.07,1.45.78,2.31-4.1,11.99-3.46,15.23,4.92,24.73.6.68.67,1.68.16,2.43-.5.75-1.45,1.07-2.31.78-11.99-4.1-15.23-3.46-24.73,4.92-.38.33-.85.5-1.32.5h0ZM217.82,68.82c4.25,5.85,5.12,10.23,3.43,17.26,5.85-4.25,10.22-5.12,17.26-3.43-4.25-5.85-5.12-10.23-3.43-17.26-5.85,4.25-10.23,5.12-17.26,3.43Z" fill="#2b3948"/>
    </g>
    <g>
      <path d="M212.16,65.04c12.73,4.35,16.61,3.58,26.7-5.31-4.35,12.73-3.58,16.61,5.31,26.7-12.73-4.35-16.61-3.58-26.7,5.31,4.35-12.73,3.58-16.61-5.31-26.7Z" fill="#2b3948"/>
      <path d="M217.47,93.74c-.39,0-.77-.11-1.11-.34-.75-.5-1.07-1.45-.78-2.31,4.1-11.99,3.46-15.23-4.92-24.73-.6-.68-.67-1.68-.16-2.43.5-.75,1.45-1.07,2.31-.78,11.99,4.1,15.23,3.45,24.73-4.92.68-.6,1.68-.67,2.43-.16.75.5,1.07,1.45.78,2.31-4.1,11.99-3.46,15.23,4.92,24.73.6.68.67,1.68.16,2.43-.5.75-1.45,1.07-2.31.78-11.99-4.1-15.23-3.46-24.73,4.92-.38.33-.85.5-1.32.5h0ZM217.82,68.82c4.25,5.85,5.12,10.23,3.43,17.26,5.85-4.25,10.22-5.12,17.26-3.43-4.25-5.85-5.12-10.23-3.43-17.26-5.85,4.25-10.23,5.12-17.26,3.43Z" fill="#2b3948"/>
    </g>
  </g>
  <path d="M239.44,215.37c-1.93,0-3.5-1.56-3.5-3.49l-.18-111.51c0-1.93,1.56-3.5,3.49-3.51h0c1.93,0,3.5,1.56,3.5,3.49l.18,111.51c0,1.93-1.56,3.5-3.49,3.51h0Z" fill="#2b3948"/>
  <path d="M201.38,63.79c-.3,0-.61-.04-.91-.12l-85.21-22.95c-1.87-.5-2.97-2.42-2.47-4.29s2.42-2.97,4.29-2.47l85.21,22.95c1.87.5,2.97,2.42,2.47,4.29-.42,1.56-1.83,2.59-3.38,2.59Z" fill="#2b3948"/>
  <path d="M198.18,250.75c-.46,0-.92-.09-1.37-.28l-131.99-56.01c-1.78-.75-2.61-2.81-1.85-4.59.75-1.78,2.81-2.61,4.59-1.85l131.99,56.01c1.78.75,2.61,2.81,1.85,4.59-.57,1.33-1.86,2.13-3.22,2.13h0Z" fill="#2b3948"/>
  <g>
    <g>
      <path d="M47.14,194.28c.3-13.45-1.61-16.91-13.14-23.84,13.45.3,16.91-1.61,23.84-13.14-.3,13.45,1.61,16.91,13.14,23.84-13.45-.3-16.91,1.61-23.84,13.14Z" fill="#2b3948"/>
      <path d="M47.14,196.28c-.18,0-.37-.03-.56-.08-.87-.25-1.46-1.06-1.44-1.97.28-12.66-1.31-15.55-12.17-22.08-.78-.47-1.14-1.4-.89-2.27.25-.87,1.05-1.49,1.97-1.44,12.67.28,15.55-1.31,22.08-12.17.47-.78,1.4-1.14,2.27-.89s1.46,1.06,1.44,1.97c-.28,12.66,1.31,15.55,12.17,22.08.78.47,1.14,1.4.89,2.27-.25.87-1.07,1.51-1.97,1.44-12.66-.28-15.55,1.31-22.08,12.17-.37.61-1.03.97-1.71.97ZM40.54,172.33c5.82,4.29,7.97,8.2,8.49,15.41,4.29-5.82,8.2-7.97,15.41-8.49-5.82-4.29-7.97-8.2-8.49-15.41-4.29,5.82-8.2,7.97-15.41,8.49Z" fill="#2b3948"/>
    </g>
    <g>
      <path d="M47.14,194.28c.3-13.45-1.61-16.91-13.14-23.84,13.45.3,16.91-1.61,23.84-13.14-.3,13.45,1.61,16.91,13.14,23.84-13.45-.3-16.91,1.61-23.84,13.14Z" fill="#2b3948"/>
      <path d="M47.14,196.28c-.18,0-.37-.03-.56-.08-.87-.25-1.46-1.06-1.44-1.97.28-12.66-1.31-15.55-12.17-22.08-.78-.47-1.14-1.4-.89-2.27.25-.87,1.05-1.49,1.97-1.44,12.67.28,15.55-1.31,22.08-12.17.47-.78,1.4-1.14,2.27-.89s1.46,1.06,1.44,1.97c-.28,12.66,1.31,15.55,12.17,22.08.78.47,1.14,1.4.89,2.27-.25.87-1.07,1.51-1.97,1.44-12.66-.28-15.55,1.31-22.08,12.17-.37.61-1.03.97-1.71.97ZM40.54,172.33c5.82,4.29,7.97,8.2,8.49,15.41,4.29-5.82,8.2-7.97,15.41-8.49-5.82-4.29-7.97-8.2-8.49-15.41-4.29,5.82-8.2,7.97-15.41,8.49Z" fill="#2b3948"/>
    </g>
  </g>
  <g>
    <g>
      <path d="M66.59,69.32c9.48-14.68,9.73-19.82,1.67-35.33,14.68,9.48,19.82,9.73,35.33,1.67-9.48,14.68-9.73,19.82-1.67,35.33-14.68-9.48-19.82-9.73-35.33-1.67Z" fill="#2b3948"/>
      <path d="M101.92,72.99c-.38,0-.75-.11-1.08-.32-14.09-9.1-18.45-9.31-33.32-1.58-.81.42-1.79.24-2.4-.43s-.69-1.67-.2-2.43c9.1-14.09,9.3-18.45,1.58-33.32-.42-.81-.24-1.79.43-2.4s1.67-.69,2.43-.2c14.09,9.1,18.45,9.3,33.32,1.58.81-.42,1.79-.24,2.4.43s.69,1.67.2,2.43c-9.1,14.09-9.3,18.45-1.58,33.32.42.81.24,1.79-.43,2.4-.38.34-.86.52-1.35.52ZM83.74,61.56c4.24,0,8.33,1.39,13.43,4.22-4.33-9.92-4.05-15.9,1.2-25.38-9.92,4.33-15.9,4.05-25.38-1.2,4.33,9.92,4.05,15.9-1.2,25.38,4.58-2,8.31-3.01,11.94-3.01h0Z" fill="#2b3948"/>
    </g>
    <g>
      <path d="M66.59,69.32c9.48-14.68,9.73-19.82,1.67-35.33,14.68,9.48,19.82,9.73,35.33,1.67-9.48,14.68-9.73,19.82-1.67,35.33-14.68-9.48-19.82-9.73-35.33-1.67Z" fill="#2b3948"/>
      <path d="M101.92,72.99c-.38,0-.75-.11-1.08-.32-14.09-9.1-18.45-9.31-33.32-1.58-.81.42-1.79.24-2.4-.43s-.69-1.67-.2-2.43c9.1-14.09,9.3-18.45,1.58-33.32-.42-.81-.24-1.79.43-2.4s1.67-.69,2.43-.2c14.09,9.1,18.45,9.3,33.32,1.58.81-.42,1.79-.24,2.4.43s.69,1.67.2,2.43c-9.1,14.09-9.3,18.45-1.58,33.32.42.81.24,1.79-.43,2.4-.38.34-.86.52-1.35.52ZM83.74,61.56c4.24,0,8.33,1.39,13.43,4.22-4.33-9.92-4.05-15.9,1.2-25.38-9.92,4.33-15.9,4.05-25.38-1.2,4.33,9.92,4.05,15.9-1.2,25.38,4.58-2,8.31-3.01,11.94-3.01h0Z" fill="#2b3948"/>
    </g>
  </g>
  <path d="M60.37,149.95c-.26,0-.52-.03-.79-.09-1.88-.43-3.06-2.31-2.63-4.19l14.26-62.12c.43-1.88,2.31-3.06,4.19-2.63,1.88.43,3.06,2.31,2.63,4.19l-14.26,62.12c-.37,1.62-1.81,2.72-3.41,2.72h.01Z" fill="#2b3948"/>
</svg>