<?xml version="1.0" encoding="UTF-8"?>
<svg id="_x31_0" xmlns="http://www.w3.org/2000/svg" width="300" height="300" version="1.1" viewBox="0 0 300 300">
  <!-- Generator: Adobe Illustrator 29.4.0, SVG Export Plug-In . SVG Version: 2.1.0 Build 152)  -->
  <g>
    <path d="M66.6,123.82c6.28-5.65,13.62-11.43,21.89-16.59,4.05-2.53,8.3-4.94,12.65-6.99,2.16-1.05,4.32-1.97,6.48-2.81,2-.79,4.96-1.81,7.41-2.65,10.27-3.44,20.9-6.17,31.18-7.37,10.3-1.2,20.4-.82,28.92,1.7,8.72,2.57,15.48,7.35,18.85,13.29,1.75,3.04,2.63,6.37,2.48,9.61-.03.82-.12,1.63-.27,2.44-.13.81-.36,1.53-.71,2.65-.66,2.06-1.42,4.08-2.36,6.05-3.82,8.07-9.99,15.03-17.56,20.17-7.68,5.29-16.59,8.61-24.35,9.92-7.78,1.37-14.11.54-17.03-1.13-1.47-.81-2.31-1.69-2.73-2.86-.21-.58-.29-1.25-.3-1.97l.13-1.13.09-.84c.19-1.07,1.16-2.73,1.9-3.87.83-1.24,1.58-2.23,2.38-3.15,1.56-1.83,3.04-3.19,3-4.41,0-1.1-1.7-1.96-5.69-.97-4.06,1.14-9.88,4-15.28,10.26-.69.82-1.3,1.7-1.88,2.64-.55.81-1.02,1.68-1.5,2.58-.91,1.83-1.67,3.86-2.05,5.99-.86,4.34.17,8.96,3.04,12.42,6.04,7.24,17.71,9.9,31.09,9.01,13.55-.94,29.37-5.82,43.76-15.14,14.02-8.94,24.96-21.73,30.39-34.31,1.35-3.02,2.36-6.03,3.18-8.99.38-1.37.83-3.14,1.04-4.79.23-1.64.34-3.27.31-4.85-.08-6.18-2.05-11.72-5.18-16.48-6.02-9.08-16.51-15.53-29.22-18.87-12.27-3.23-26.27-3.43-39.6-1.7-13.3,1.72-26.25,5.22-38.13,9.35-3.11,1.1-5.7,2.02-9.09,3.37-3.26,1.31-6.41,2.71-9.41,4.2-6.08,2.97-11.63,6.23-16.79,9.58-10.57,6.86-19.41,14.23-26.72,21.37-15.45,15.22-23.5,29.23-26.63,38.48-3.32,9.85-1.81,14.35,1.45,13.5,3.52-.89,7.29-6.49,13.44-15.23,5.88-8.33,14.27-19.61,27.41-31.48Z"/>
    <path d="M267.33,102.74c-6.74,1.34-3.16,19.26-25.3,46.44-5.86,7.21-13.41,14.98-22.73,22.59-9.65,7.81-20.83,15.41-33.35,20.5-13.84,5.82-28.68,10.44-43.2,12.16-14.4,1.75-28.05.46-38.56-4.67-10.14-4.91-16.49-13.03-18.25-22.14-.86-4.37-.69-8.93.48-13.22.55-2.12,1.38-4.15,2.36-6.1,1.27-2.43,2.63-4.76,4.08-6.98,5.63-8.69,12.84-15.65,20.63-20.6,7.6-4.87,15.93-7.95,23.09-9.27,7.18-1.36,13.16-.85,16.08.5,1.51.67,2.38,1.43,2.89,2.45.24.51.41,1.08.45,1.74,0,.71,0,1.37-.06,1.84-.08.97-.93,2.57-1.62,3.67-.75,1.2-1.48,2.2-2.23,3.11-1.54,1.86-3.01,3.24-2.94,4.49.04,1.16,1.85,2.07,6.02,1,2.06-.54,4.64-1.68,7.24-3.4,2.62-1.77,5.15-3.82,7.57-7.16.57-.78,1.06-1.69,1.48-2.51.42-.76.74-1.59,1.07-2.42.62-1.68,1-3.5.99-5.36.05-3.66-1.74-7.27-4.95-9.78-6.34-4.91-16.55-6.25-27.73-5.09-11.14,1.19-24.36,5.17-37.34,12.5-13.39,7.46-26.13,18.74-35.26,31.03-2.4,3.2-4.62,6.47-6.66,9.8-2.36,3.89-4.31,7.87-5.72,11.8-2.98,8.09-3.96,16.01-3.33,23.48,1.35,15.83,10.26,29.51,25.49,38.07,16.08,9.12,37.33,11.33,58.38,8.64,21.31-2.65,41.56-9.68,59.36-18.02,18.91-8.7,33.69-20.45,45.21-31.52,11.09-10.79,19.33-21.52,25.13-31.46,11.03-18.69,12.81-34.5,10.69-43.92-2.01-9.04-6.44-12.87-9.46-12.18Z"/>
  </g>
  <g>
    <path d="M74.12,160.24c-8.8,0-15.97-7.16-15.97-15.97s7.16-15.97,15.97-15.97,15.97,7.16,15.97,15.97-7.16,15.97-15.97,15.97Z" fill="#fff"/>
    <path d="M74.12,131.3c7.16,0,12.97,5.81,12.97,12.97s-5.81,12.97-12.97,12.97-12.97-5.81-12.97-12.97,5.81-12.97,12.97-12.97M74.12,125.3c-10.46,0-18.97,8.51-18.97,18.97s8.51,18.97,18.97,18.97,18.97-8.51,18.97-18.97-8.51-18.97-18.97-18.97h0Z"/>
  </g>
  <g>
    <path d="M204.75,94.32c-9.71,0-17.62-7.9-17.62-17.62s7.9-17.62,17.62-17.62,17.62,7.9,17.62,17.62-7.9,17.62-17.62,17.62Z" fill="#fff"/>
    <path d="M204.75,62.09c8.07,0,14.62,6.54,14.62,14.62s-6.54,14.62-14.62,14.62-14.62-6.54-14.62-14.62,6.54-14.62,14.62-14.62M204.75,56.09c-11.37,0-20.62,9.25-20.62,20.62s9.25,20.62,20.62,20.62,20.62-9.25,20.62-20.62-9.25-20.62-20.62-20.62h0Z"/>
  </g>
  <g>
    <path d="M205.48,203.21c-11.1,0-20.13-9.03-20.13-20.13s9.03-20.13,20.13-20.13,20.13,9.03,20.13,20.13-9.03,20.13-20.13,20.13Z" fill="#fff"/>
    <path d="M205.48,165.96c9.46,0,17.13,7.67,17.13,17.13s-7.67,17.13-17.13,17.13-17.13-7.67-17.13-17.13,7.67-17.13,17.13-17.13M205.48,159.96c-12.75,0-23.13,10.37-23.13,23.13s10.37,23.13,23.13,23.13,23.13-10.37,23.13-23.13-10.37-23.13-23.13-23.13h0Z"/>
  </g>
</svg>