<?xml version="1.0" encoding="UTF-8"?>
<svg id="_x31_0" xmlns="http://www.w3.org/2000/svg" width="300" height="300" version="1.1" viewBox="0 0 300 300">
  <!-- Generator: Adobe Illustrator 29.4.0, SVG Export Plug-In . SVG Version: 2.1.0 Build 152)  -->
  <path d="M211.3,162.19l63.7-12.19-63.7-12.19,54.19-35.64-63.52,13.11,36.42-53.67-53.66,36.42,13.11-63.52-35.64,54.19-12.19-63.7-12.19,63.7-35.64-54.19,13.11,63.52-53.66-36.42,36.42,53.67-63.52-13.11,54.19,35.64-63.7,12.19,63.7,12.19-54.19,35.64,63.52-13.11-36.42,53.67,53.66-36.42-13.11,63.52,35.64-54.19,12.19,63.7,12.19-63.7,35.64,54.19-13.11-63.52,53.66,36.42-36.42-53.67,63.52,13.11-54.19-35.64ZM150,192.57c-23.51,0-42.57-19.06-42.57-42.57s19.06-42.57,42.57-42.57,42.57,19.06,42.57,42.57-19.06,42.57-42.57,42.57Z" stroke="#000" stroke-linecap="round" stroke-linejoin="round" stroke-width="4"/>
</svg>