<?xml version="1.0" encoding="UTF-8"?>
<svg id="_x31_0" xmlns="http://www.w3.org/2000/svg" width="300" height="300" version="1.1" viewBox="0 0 300 300">
  <!-- Generator: Adobe Illustrator 29.4.0, SVG Export Plug-In . SVG Version: 2.1.0 Build 152)  -->
  <path d="M150,30.12c-66.21,0-119.88,53.66-119.88,119.88s53.67,119.88,119.88,119.88,119.88-53.68,119.88-119.88c0-66.22-53.68-119.88-119.88-119.88Z" fill="#fff" stroke="#000" stroke-linecap="round" stroke-linejoin="round" stroke-width="7"/>
  <path d="M150,61.06c-49.12,0-88.94,39.82-88.94,88.94s39.82,88.94,88.94,88.94,88.94-39.83,88.94-88.94c0-49.13-39.83-88.94-88.94-88.94Z" fill="#fff" stroke="#000" stroke-linecap="round" stroke-linejoin="round" stroke-width="7"/>
  <path d="M150,87.23c-34.67,0-62.77,28.1-62.77,62.77s28.1,62.77,62.77,62.77,62.77-28.11,62.77-62.77c0-34.67-28.11-62.77-62.77-62.77Z" fill="#fff" stroke="#000" stroke-linecap="round" stroke-linejoin="round" stroke-width="7"/>
  <path d="M88.13,142.75c-7.51,0-13.59,6.08-13.59,13.59s6.08,13.59,13.59,13.59,13.59-6.09,13.59-13.59c0-7.51-6.09-13.59-13.59-13.59Z" fill="#fff" stroke="#000" stroke-linecap="round" stroke-linejoin="round" stroke-width="7"/>
  <path d="M230,169.62c-7.51,0-13.59,6.08-13.59,13.59s6.08,13.59,13.59,13.59,13.59-6.09,13.59-13.59c0-7.51-6.09-13.59-13.59-13.59Z" fill="#fff" stroke="#000" stroke-linecap="round" stroke-linejoin="round" stroke-width="7"/>
  <path d="M64.22,50.64c-7.51,0-13.59,6.08-13.59,13.59s6.08,13.59,13.59,13.59,13.59-6.09,13.59-13.59c0-7.51-6.09-13.59-13.59-13.59Z" fill="#fff" stroke="#000" stroke-linecap="round" stroke-linejoin="round" stroke-width="7"/>
  <g>
    <path d="M174.59,150c-16.61,4.41-20.18,7.98-24.59,24.59-4.41-16.61-7.98-20.18-24.59-24.59,16.61-4.41,20.18-7.98,24.59-24.59,4.41,16.61,7.98,20.18,24.59,24.59Z" stroke="#000" stroke-linecap="round" stroke-linejoin="round" stroke-width="4"/>
    <path d="M174.59,150c-16.61,4.41-20.18,7.98-24.59,24.59-4.41-16.61-7.98-20.18-24.59-24.59,16.61-4.41,20.18-7.98,24.59-24.59,4.41,16.61,7.98,20.18,24.59,24.59Z" stroke="#000" stroke-linecap="round" stroke-linejoin="round" stroke-width="4"/>
  </g>
</svg>