<?xml version="1.0" encoding="UTF-8"?>
<svg id="_x31_0" xmlns="http://www.w3.org/2000/svg" width="300" height="300" version="1.1" viewBox="0 0 300 300">
  <!-- Generator: Adobe Illustrator 29.4.0, SVG Export Plug-In . SVG Version: 2.1.0 Build 152)  -->
  <g>
    <path d="M211.73,265.03c10.67-17.4,10.81-23.4.99-41.28,17.4,10.67,23.4,10.81,41.28.99-10.67,17.4-10.81,23.4-.99,41.28-17.4-10.67-23.4-10.81-41.28-.99Z" stroke="#000" stroke-linecap="round" stroke-linejoin="round" stroke-width="4"/>
    <path d="M211.73,265.03c10.67-17.4,10.81-23.4.99-41.28,17.4,10.67,23.4,10.81,41.28.99-10.67,17.4-10.81,23.4-.99,41.28-17.4-10.67-23.4-10.81-41.28-.99Z" stroke="#000" stroke-linecap="round" stroke-linejoin="round" stroke-width="4"/>
  </g>
  <g>
    <path d="M212.16,65.04c12.73,4.35,16.61,3.58,26.7-5.31-4.35,12.73-3.58,16.61,5.31,26.7-12.73-4.35-16.61-3.58-26.7,5.31,4.35-12.73,3.58-16.61-5.31-26.7Z" stroke="#000" stroke-linecap="round" stroke-linejoin="round" stroke-width="4"/>
    <path d="M212.16,65.04c12.73,4.35,16.61,3.58,26.7-5.31-4.35,12.73-3.58,16.61,5.31,26.7-12.73-4.35-16.61-3.58-26.7,5.31,4.35-12.73,3.58-16.61-5.31-26.7Z" stroke="#000" stroke-linecap="round" stroke-linejoin="round" stroke-width="4"/>
  </g>
  <line x1="239.44" y1="211.87" x2="239.26" y2="100.36" fill="#fff" stroke="#000" stroke-linecap="round" stroke-linejoin="round" stroke-width="7"/>
  <line x1="201.38" y1="60.29" x2="116.17" y2="37.34" fill="#fff" stroke="#000" stroke-linecap="round" stroke-linejoin="round" stroke-width="7"/>
  <line x1="198.18" y1="247.25" x2="66.19" y2="191.24" fill="#fff" stroke="#000" stroke-linecap="round" stroke-linejoin="round" stroke-width="7"/>
  <g>
    <path d="M47.14,194.28c.3-13.45-1.61-16.91-13.14-23.84,13.45.3,16.91-1.61,23.84-13.14-.3,13.45,1.61,16.91,13.14,23.84-13.45-.3-16.91,1.61-23.84,13.14Z" stroke="#000" stroke-linecap="round" stroke-linejoin="round" stroke-width="4"/>
    <path d="M47.14,194.28c.3-13.45-1.61-16.91-13.14-23.84,13.45.3,16.91-1.61,23.84-13.14-.3,13.45,1.61,16.91,13.14,23.84-13.45-.3-16.91,1.61-23.84,13.14Z" stroke="#000" stroke-linecap="round" stroke-linejoin="round" stroke-width="4"/>
  </g>
  <g>
    <path d="M66.59,69.32c9.48-14.68,9.73-19.82,1.67-35.33,14.68,9.48,19.82,9.73,35.33,1.67-9.48,14.68-9.73,19.82-1.67,35.33-14.68-9.48-19.82-9.73-35.33-1.67Z" stroke="#000" stroke-linecap="round" stroke-linejoin="round" stroke-width="4"/>
    <path d="M66.59,69.32c9.48-14.68,9.73-19.82,1.67-35.33,14.68,9.48,19.82,9.73,35.33,1.67-9.48,14.68-9.73,19.82-1.67,35.33-14.68-9.48-19.82-9.73-35.33-1.67Z" stroke="#000" stroke-linecap="round" stroke-linejoin="round" stroke-width="4"/>
  </g>
  <line x1="60.37" y1="146.45" x2="74.63" y2="84.33" fill="#fff" stroke="#000" stroke-linecap="round" stroke-linejoin="round" stroke-width="7"/>
</svg>