<?xml version="1.0" encoding="UTF-8"?>
<svg id="_x31_0" xmlns="http://www.w3.org/2000/svg" width="300" height="300" version="1.1" viewBox="0 0 300 300">
  <!-- Generator: Adobe Illustrator 29.4.0, SVG Export Plug-In . SVG Version: 2.1.0 Build 152)  -->
  <rect x="-.5" y=".63" width="300" height="300" fill="#ded9c3"/>
  <path d="M150,273.38c-68.03,0-123.38-55.35-123.38-123.38S81.97,26.62,150,26.62s123.38,55.35,123.38,123.38-55.35,123.38-123.38,123.38ZM150,33.62c-64.17,0-116.38,52.21-116.38,116.38s52.21,116.38,116.38,116.38,116.38-52.21,116.38-116.38-52.21-116.38-116.38-116.38Z" fill="#2b3948"/>
  <path d="M150,242.44c-50.97,0-92.44-41.47-92.44-92.44s41.47-92.44,92.44-92.44,92.44,41.47,92.44,92.44-41.47,92.44-92.44,92.44ZM150,64.56c-47.11,0-85.44,38.33-85.44,85.44s38.33,85.44,85.44,85.44,85.44-38.33,85.44-85.44-38.33-85.44-85.44-85.44Z" fill="#2b3948"/>
  <path d="M150,216.27c-36.54,0-66.27-29.73-66.27-66.27s29.73-66.27,66.27-66.27,66.27,29.73,66.27,66.27-29.73,66.27-66.27,66.27ZM150,90.73c-32.68,0-59.27,26.59-59.27,59.27s26.59,59.27,59.27,59.27,59.27-26.59,59.27-59.27-26.59-59.27-59.27-59.27Z" fill="#2b3948"/>
  <g>
    <path d="M88.13,142.75c-7.51,0-13.59,6.08-13.59,13.59s6.08,13.59,13.59,13.59,13.59-6.09,13.59-13.59-6.09-13.59-13.59-13.59Z" fill="#ded9c3"/>
    <path d="M88.13,173.43c-9.42,0-17.09-7.67-17.09-17.09s7.67-17.09,17.09-17.09,17.09,7.67,17.09,17.09-7.67,17.09-17.09,17.09ZM88.13,146.25c-5.56,0-10.09,4.53-10.09,10.09s4.53,10.09,10.09,10.09,10.09-4.53,10.09-10.09-4.53-10.09-10.09-10.09Z" fill="#2b3948"/>
  </g>
  <g>
    <path d="M230,169.62c-7.51,0-13.59,6.08-13.59,13.59s6.08,13.59,13.59,13.59,13.59-6.09,13.59-13.59-6.09-13.59-13.59-13.59Z" fill="#ded9c3"/>
    <path d="M230,200.3c-9.42,0-17.09-7.67-17.09-17.09s7.67-17.09,17.09-17.09,17.09,7.67,17.09,17.09-7.67,17.09-17.09,17.09ZM230,173.12c-5.56,0-10.09,4.53-10.09,10.09s4.53,10.09,10.09,10.09,10.09-4.53,10.09-10.09-4.53-10.09-10.09-10.09Z" fill="#2b3948"/>
  </g>
  <g>
    <path d="M64.22,50.64c-7.51,0-13.59,6.08-13.59,13.59s6.08,13.59,13.59,13.59,13.59-6.09,13.59-13.59-6.09-13.59-13.59-13.59Z" fill="#ded9c3"/>
    <path d="M64.22,81.32c-9.42,0-17.09-7.67-17.09-17.09s7.67-17.09,17.09-17.09,17.09,7.67,17.09,17.09-7.67,17.09-17.09,17.09ZM64.22,54.14c-5.56,0-10.09,4.53-10.09,10.09s4.53,10.09,10.09,10.09,10.09-4.53,10.09-10.09-4.53-10.09-10.09-10.09Z" fill="#2b3948"/>
  </g>
  <g>
    <g>
      <path d="M174.59,150c-16.61,4.41-20.18,7.98-24.59,24.59-4.41-16.61-7.98-20.18-24.59-24.59,16.61-4.41,20.18-7.98,24.59-24.59,4.41,16.61,7.98,20.18,24.59,24.59Z" fill="#2b3948"/>
      <path d="M150,176.59c-.91,0-1.7-.61-1.93-1.49-4.23-15.91-7.26-18.95-23.17-23.17-.88-.23-1.49-1.03-1.49-1.93s.61-1.7,1.49-1.93c15.91-4.23,18.94-7.26,23.17-23.17.23-.88,1.03-1.49,1.93-1.49s1.7.61,1.93,1.49c4.23,15.91,7.26,18.94,23.17,23.17.88.23,1.49,1.03,1.49,1.93s-.61,1.7-1.49,1.93c-15.91,4.23-18.95,7.26-23.17,23.17-.23.88-1.03,1.49-1.93,1.49ZM132.43,150c10,3.41,14.16,7.57,17.57,17.57,3.41-10,7.57-14.16,17.57-17.57-10-3.41-14.16-7.56-17.57-17.57-3.41,10-7.56,14.16-17.57,17.57Z" fill="#2b3948"/>
    </g>
    <g>
      <path d="M174.59,150c-16.61,4.41-20.18,7.98-24.59,24.59-4.41-16.61-7.98-20.18-24.59-24.59,16.61-4.41,20.18-7.98,24.59-24.59,4.41,16.61,7.98,20.18,24.59,24.59Z" fill="#2b3948"/>
      <path d="M150,176.59c-.91,0-1.7-.61-1.93-1.49-4.23-15.91-7.26-18.95-23.17-23.17-.88-.23-1.49-1.03-1.49-1.93s.61-1.7,1.49-1.93c15.91-4.23,18.94-7.26,23.17-23.17.23-.88,1.03-1.49,1.93-1.49s1.7.61,1.93,1.49c4.23,15.91,7.26,18.94,23.17,23.17.88.23,1.49,1.03,1.49,1.93s-.61,1.7-1.49,1.93c-15.91,4.23-18.95,7.26-23.17,23.17-.23.88-1.03,1.49-1.93,1.49ZM132.43,150c10,3.41,14.16,7.57,17.57,17.57,3.41-10,7.57-14.16,17.57-17.57-10-3.41-14.16-7.56-17.57-17.57-3.41,10-7.56,14.16-17.57,17.57Z" fill="#2b3948"/>
    </g>
  </g>
</svg>