<?xml version="1.0" encoding="UTF-8"?>
<svg id="_x31_0" xmlns="http://www.w3.org/2000/svg" width="150" height="150" version="1.1" viewBox="0 0 150 150">
  <!-- Generator: Adobe Illustrator 29.4.0, SVG Export Plug-In . SVG Version: 2.1.0 Build 152)  -->
  <path d="M147.73,52.05c-2.4-6.28-17.93-6.67-39.36-2.09.9,1.27,1.74,2.59,2.51,3.98,8.78-.78,14.71.3,15.93,3.49,1.29,3.39-2.83,8.24-10.62,13.58-8.51,5.84-21.39,12.27-36.58,18.06-15.68,5.99-30.52,10.05-41.34,11.43-9.26,1.19-15.58.42-16.83-2.85-1.22-3.19,2.49-7.95,9.55-13.22-.35-1.54-.61-3.09-.78-4.64C11.19,90.68-.13,101.32,2.27,107.6c2.56,6.71,20.11,6.7,43.83,1.09,10.87-2.57,23.04-6.32,35.67-11.14,12.62-4.82,24.2-10.14,34.02-15.47,21.43-11.63,34.51-23.31,31.95-30.02Z" fill="#ded9c3"/>
  <path d="M40.22,95.92c10.35-1.63,23.94-5.49,37.88-10.81,13.45-5.14,25.23-10.84,33.59-16.23-.42-2.61-1.1-5.23-2.08-7.8-7.69-20.13-30.23-30.22-50.36-22.53-20.13,7.69-30.22,30.24-22.53,50.37.95,2.49,2.14,4.83,3.51,7Z" fill="#ded9c3"/>
  <path d="M56.65,110.32c9.24,4.32,20.15,5.05,30.43,1.13,10.28-3.93,17.92-11.74,21.93-21.12-8.04,3.95-16.77,7.76-25.73,11.18-8.96,3.42-18.01,6.4-26.63,8.82Z" fill="#ded9c3"/>
</svg>