<?xml version="1.0" encoding="UTF-8"?>
<svg id="_x31_0" xmlns="http://www.w3.org/2000/svg" width="150" height="150" version="1.1" viewBox="0 0 150 150">
  <!-- Generator: Adobe Illustrator 29.4.0, SVG Export Plug-In . SVG Version: 2.1.0 Build 152)  -->
  <path d="M145.8,69.55c-44.89-11.91-53.44-20.46-65.35-65.35-.66-2.47-2.89-4.2-5.45-4.2s-4.8,1.72-5.45,4.2C57.64,49.09,49.09,57.64,4.2,69.55c-2.47.66-4.2,2.89-4.2,5.45s1.72,4.8,4.2,5.45c44.89,11.91,53.44,20.46,65.35,65.35.66,2.47,2.89,4.2,5.45,4.2s4.8-1.72,5.45-4.2c11.91-44.89,20.46-53.44,65.35-65.35,2.47-.66,4.2-2.89,4.2-5.45s-1.72-4.8-4.2-5.45Z" fill="#ded9c3"/>
</svg>