<?xml version="1.0" encoding="UTF-8"?>
<svg id="_x31_0" xmlns="http://www.w3.org/2000/svg" width="150" height="150" version="1.1" viewBox="0 0 150 150">
  <!-- Generator: Adobe Illustrator 29.4.0, SVG Export Plug-In . SVG Version: 2.1.0 Build 152)  -->
  <g>
    <path d="M75,149C34.2,149,1,115.8,1,75S34.2,1,75,1s74,33.2,74,74-33.2,74-74,74Z" fill="#2b3948"/>
    <path d="M75,2c40.25,0,73,32.75,73,73s-32.75,73-73,73S2,115.25,2,75,34.75,2,75,2M75,0C33.58,0,0,33.58,0,75s33.58,75,75,75,75-33.58,75-75S116.42,0,75,0h0Z" fill="#2b3948"/>
  </g>
  <g>
    <path d="M117.37,51.12c-.43-2.21-1.18-4.37-2.25-6.41s-2.47-3.95-4.17-5.66c-2.27-2.27-4.92-3.99-7.73-5.14-4.23-1.71-8.83-2.14-13.25-1.28-2.21.43-4.37,1.17-6.41,2.24-2.03,1.07-3.95,2.47-5.66,4.17l-11.08,11.08c-2.24,2.23-2.24,5.86,0,8.09s5.86,2.23,8.09,0l11.08-11.08c1.18-1.17,2.51-2.03,3.94-2.62,2.15-.87,4.52-1.09,6.78-.65,1.13.22,2.23.6,3.27,1.14,1.03.54,2.01,1.25,2.89,2.13,1.18,1.18,2.04,2.52,2.62,3.95.87,2.15,1.09,4.52.65,6.78-.22,1.13-.6,2.23-1.14,3.26-.55,1.04-1.25,2.01-2.13,2.89l-11.08,11.07c-2.23,2.23-2.23,5.86,0,8.09s5.85,2.23,8.09,0l11.08-11.08c2.27-2.27,3.99-4.92,5.13-7.73,1.71-4.23,2.14-8.83,1.29-13.25h0Z" fill="#ded9c3"/>
    <path d="M75.09,91.79l-11.08,11.08c-1.18,1.17-2.51,2.04-3.94,2.62-2.15.87-4.52,1.09-6.78.66-1.13-.22-2.23-.61-3.27-1.15-1.03-.55-2.01-1.25-2.89-2.13-1.18-1.18-2.04-2.51-2.62-3.95-.87-2.14-1.09-4.52-.66-6.78.22-1.13.6-2.23,1.14-3.26.55-1.03,1.25-2.01,2.13-2.89l11.08-11.08c2.23-2.23,2.23-5.85,0-8.08-2.24-2.23-5.86-2.23-8.09,0l-11.08,11.07c-2.27,2.27-3.99,4.92-5.14,7.74-1.71,4.22-2.14,8.83-1.28,13.24.43,2.21,1.18,4.37,2.25,6.41s2.47,3.96,4.17,5.66c2.27,2.27,4.92,3.99,7.73,5.13,4.23,1.72,8.83,2.14,13.25,1.29,2.21-.43,4.37-1.18,6.41-2.25s3.96-2.47,5.66-4.17l11.08-11.08c2.23-2.23,2.23-5.85,0-8.08-2.24-2.23-5.86-2.23-8.09,0h.02Z" fill="#ded9c3"/>
    <path d="M89.45,60.55c-2.23-2.23-5.85-2.23-8.09,0l-20.82,20.81c-2.23,2.23-2.23,5.85,0,8.08,2.24,2.24,5.86,2.24,8.09,0l20.81-20.81c2.24-2.23,2.24-5.85,0-8.08h0Z" fill="#ded9c3"/>
  </g>
</svg>