<?xml version="1.0" encoding="UTF-8"?>
<svg id="_x31_0" xmlns="http://www.w3.org/2000/svg" width="150" height="150" version="1.1" viewBox="0 0 150 150">
  <!-- Generator: Adobe Illustrator 29.4.0, SVG Export Plug-In . SVG Version: 2.1.0 Build 152)  -->
  <g>
    <path d="M75,149C34.2,149,1,115.8,1,75S34.2,1,75,1s74,33.2,74,74-33.2,74-74,74Z" fill="#2b3948"/>
    <path d="M75,2c40.25,0,73,32.75,73,73s-32.75,73-73,73S2,115.25,2,75,34.75,2,75,2M75,0C33.58,0,0,33.58,0,75s33.58,75,75,75,75-33.58,75-75S116.42,0,75,0h0Z" fill="#2b3948"/>
  </g>
  <path d="M121.93,48.51c-.43-2.14-1.38-4.1-2.7-5.72-.28-.35-.57-.67-.89-.99-2.35-2.36-5.65-3.84-9.25-3.84H40.91c-3.6,0-6.89,1.47-9.25,3.84-.32.32-.61.63-.89.99-1.33,1.62-2.28,3.58-2.69,5.72-.17.83-.26,1.68-.26,2.55v47.88c0,1.84.39,3.6,1.08,5.2.64,1.52,1.59,2.9,2.75,4.05.29.29.58.56.9.83,2.26,1.88,5.19,3.01,8.35,3.01h68.18c3.17,0,6.1-1.13,8.35-3.02.32-.26.61-.52.9-.82,1.16-1.15,2.11-2.53,2.76-4.05h0c.69-1.61,1.07-3.36,1.07-5.2v-47.88c0-.86-.08-1.72-.24-2.55h0ZM36.39,46.54c1.17-1.17,2.74-1.88,4.52-1.88h68.18c1.78,0,3.36.71,4.52,1.88.21.21.4.44.57.67l-35.73,31.14c-.99.86-2.2,1.29-3.45,1.29s-2.45-.43-3.45-1.29l-35.72-31.16c.16-.23.35-.45.56-.66h0ZM34.52,98.94v-44.82l25.86,22.56-25.85,22.54c0-.09,0-.18,0-.28ZM109.09,105.33H40.91c-1.16,0-2.24-.3-3.16-.84l27.27-23.77,2.55,2.21c2.13,1.85,4.8,2.79,7.44,2.79s5.32-.94,7.45-2.79l2.54-2.21,27.26,23.77c-.93.53-2.01.84-3.17.84h0ZM115.48,98.94c0,.1,0,.19-.01.28l-25.85-22.52,25.86-22.56v44.8Z" fill="#ded9c3"/>
</svg>