<?xml version="1.0" encoding="UTF-8"?>
<svg id="_x31_0" xmlns="http://www.w3.org/2000/svg" width="150" height="150" version="1.1" viewBox="0 0 150 150">
  <!-- Generator: Adobe Illustrator 29.4.0, SVG Export Plug-In . SVG Version: 2.1.0 Build 152)  -->
  <g>
    <path d="M75,149C34.2,149,1,115.8,1,75S34.2,1,75,1s74,33.2,74,74-33.2,74-74,74Z" fill="#2b3948"/>
    <path d="M75,2c40.25,0,73,32.75,73,73s-32.75,73-73,73S2,115.25,2,75,34.75,2,75,2M75,0C33.58,0,0,33.58,0,75s33.58,75,75,75,75-33.58,75-75S116.42,0,75,0h0Z" fill="#2b3948"/>
  </g>
  <path d="M108.92,59.25c-16.95-17.96-36.56-29-36.56-29-.58-.46-1.38-.55-2.05-.23-.67.33-1.1,1-1.1,1.75v58.05c-3.54-1.46-7.88-2.06-12.59-1.47-11.84,1.47-21.4,9.74-21.38,18.45.03,8.73,9.65,14.61,21.48,13.14,11.84-1.47,21.4-9.74,21.37-18.46v-42.57c2.79.58,6.07,1.86,9.6,4.45,11.95,8.76,17.8,14.38,10.27,29.44,15.75-6.16,22.59-21.22,10.95-33.55h.01Z" fill="#ded9c3"/>
</svg>