<?xml version="1.0" encoding="UTF-8"?>
<svg id="_x31_0" xmlns="http://www.w3.org/2000/svg" width="300" height="300" version="1.1" viewBox="0 0 300 300">
  <!-- Generator: Adobe Illustrator 29.4.0, SVG Export Plug-In . SVG Version: 2.1.0 Build 152)  -->
  <rect x="-.5" y=".63" width="300" height="300" fill="#ded9c3"/>
  <g>
    <path d="M97.27,219.68c-4.81-13.21-7.65-28.27-7.65-44.3,0-9.27.4-18.26,1.35-26.8.96-8.55,2.47-16.63,4.74-24.11,1.51-4.99,3.36-9.69,5.62-14.06,2.08-4.01,4.5-7.73,7.33-11.09-4.45-1.14-9.23-1.59-14.34-1.24-33.82,2.35-48.7,37.19-45.82,78.68s28.07,73.55,56.25,71.59c2.5-.17,4.94-.61,7.31-1.29-2.18-2.83-4.25-5.86-6.18-9.1-3.32-5.56-6.22-11.7-8.62-18.29h.01Z" fill="#2b3948"/>
    <path d="M102.27,250.44c-13.39,0-26.33-7.15-36.7-20.35-10.87-13.83-17.64-32.72-19.06-53.19-3.25-46.85,15.46-78.58,47.68-80.81,5.19-.36,10.23.08,14.98,1.3.67.17,1.2.67,1.41,1.33s.07,1.37-.38,1.9c-2.63,3.12-5.01,6.73-7.08,10.72-2.13,4.11-3.97,8.73-5.48,13.72-2.14,7.04-3.66,14.81-4.67,23.75-.9,8.09-1.34,16.78-1.34,26.58,0,15.01,2.6,30.09,7.53,43.62.02.05.03.1.05.15,2.33,6.38,5.16,12.36,8.4,17.79,1.84,3.09,3.88,6.09,6.05,8.9.4.52.52,1.22.32,1.84-.21.63-.71,1.12-1.35,1.3-2.54.73-5.14,1.19-7.73,1.36-.87.06-1.75.09-2.62.09ZM97.65,99.97c-1.06,0-2.12.04-3.2.11-15.23,1.06-27.35,9.22-35.05,23.61-7.19,13.44-10.35,32.24-8.92,52.94,1.37,19.67,7.83,37.78,18.21,50.99,10.2,12.99,22.95,19.64,35.9,18.74,1.35-.09,2.7-.27,4.04-.53-1.59-2.21-3.09-4.5-4.49-6.84-3.39-5.68-6.35-11.95-8.78-18.63-.02-.05-.03-.1-.05-.15-5.12-14.11-7.71-29.19-7.71-44.82,0-9.94.45-18.78,1.36-27.02,1.03-9.19,2.61-17.2,4.81-24.47,1.58-5.23,3.52-10.07,5.76-14.4,1.66-3.21,3.52-6.19,5.54-8.89-2.41-.42-4.9-.63-7.44-.63Z" fill="#2b3948"/>
  </g>
  <g>
    <path d="M197.28,175.39c0-11.8-.68-22.95-2.31-32.92-1.21-7.48-2.97-14.29-5.3-20.2-1.75-4.44-3.84-8.37-6.24-11.76-1.81-2.54-3.81-4.77-6.01-6.71-3.31-2.89-7.08-5.14-11.57-6.71s-9.71-2.45-15.86-2.45-11.37.89-15.85,2.45c-4.49,1.56-8.26,3.82-11.57,6.71-2.2,1.94-4.2,4.17-6.01,6.71-2.41,3.39-4.49,7.32-6.24,11.76-2.33,5.91-4.08,12.71-5.3,20.2-1.63,9.97-2.31,21.12-2.31,32.92,0,10.85,1.45,21.21,3.98,30.66,2.53,9.46,6.15,18.01,10.45,25.23,2.87,4.82,6.02,9.03,9.34,12.55,2,2.12,4,3.68,6.04,4.85,2.04,1.19,4.12,2.01,6.34,2.6,1.47.39,2.99.68,4.57.86,2.1.25,4.3.35,6.58.35s4.48-.1,6.58-.35c1.58-.19,3.1-.48,4.57-.86,2.21-.59,4.3-1.41,6.34-2.6,2.04-1.18,4.04-2.73,6.04-4.85,3.32-3.52,6.48-7.73,9.35-12.55,4.29-7.22,7.91-15.77,10.44-25.23,2.53-9.45,3.98-19.81,3.98-30.66h-.03Z" fill="#2b3948"/>
    <path d="M150.01,254.49c-2.53,0-4.76-.12-6.82-.36-1.63-.19-3.26-.49-4.85-.91-2.5-.67-4.74-1.58-6.84-2.81-2.31-1.32-4.43-3.03-6.49-5.21-3.46-3.67-6.69-8.01-9.6-12.9-4.55-7.65-8.14-16.3-10.66-25.74-2.69-10.03-4.05-20.52-4.05-31.18,0-12.58.79-23.76,2.34-33.24,1.27-7.78,3.09-14.71,5.41-20.61,1.81-4.59,3.99-8.69,6.47-12.19,1.88-2.64,4.01-5.02,6.32-7.05,3.65-3.19,7.65-5.51,12.24-7.1,4.88-1.7,10.43-2.56,16.51-2.56s11.66.86,16.52,2.56c4.61,1.61,8.61,3.93,12.23,7.09,2.32,2.04,4.44,4.41,6.32,7.06,2.5,3.53,4.67,7.63,6.47,12.19,2.34,5.93,4.16,12.87,5.41,20.61,1.54,9.4,2.32,20.46,2.34,32.9.02.11.03.23.03.34,0,10.66-1.36,21.15-4.05,31.18-2.52,9.42-6.1,18.08-10.65,25.73-2.9,4.87-6.14,9.21-9.61,12.9-2.03,2.15-4.15,3.86-6.49,5.21-2.08,1.21-4.31,2.13-6.83,2.8-1.59.41-3.22.72-4.85.91-2.06.25-4.29.37-6.82.37ZM149.99,96.64c-5.62,0-10.74.79-15.19,2.34-4.1,1.42-7.67,3.49-10.91,6.33-2.07,1.83-3.99,3.97-5.7,6.36-2.29,3.23-4.32,7.04-6.01,11.33-2.22,5.63-3.96,12.29-5.19,19.79-1.52,9.27-2.28,20.24-2.28,32.6,0,10.3,1.32,20.45,3.91,30.14,2.43,9.08,5.87,17.4,10.24,24.72,2.76,4.64,5.81,8.74,9.08,12.2,1.78,1.89,3.6,3.35,5.58,4.49,1.8,1.05,3.71,1.83,5.86,2.4,1.39.37,2.84.64,4.28.8,1.91.23,3.99.34,6.35.34s4.44-.11,6.34-.34c1.45-.17,2.9-.45,4.31-.81,2.15-.57,4.06-1.36,5.83-2.39,2.01-1.16,3.83-2.63,5.59-4.49,3.28-3.47,6.33-7.58,9.09-12.2,4.36-7.34,7.8-15.66,10.23-24.72,2.57-9.59,3.88-19.62,3.91-29.81-.02-.11-.03-.22-.03-.33,0-12.36-.77-23.32-2.28-32.6-1.21-7.47-2.95-14.12-5.19-19.79-1.68-4.26-3.7-8.08-6.01-11.34-1.7-2.39-3.62-4.53-5.7-6.37-3.22-2.81-6.79-4.88-10.91-6.32-4.44-1.55-9.55-2.34-15.2-2.34ZM199.28,175.39h0,0Z" fill="#2b3948"/>
  </g>
  <g>
    <path d="M205.67,98.1c-5.11-.35-9.9.1-14.35,1.24,2.83,3.35,5.26,7.08,7.34,11.09,2.26,4.37,4.11,9.07,5.62,14.06,2.27,7.48,3.77,15.56,4.74,24.11.96,8.55,1.35,17.53,1.35,26.8,0,16.02-2.83,31.09-7.65,44.3-2.41,6.59-5.32,12.73-8.62,18.29-1.93,3.24-3.99,6.27-6.18,9.1,2.37.68,4.81,1.12,7.31,1.29,28.19,1.96,53.37-30.09,56.26-71.59,2.87-41.49-12.01-76.33-45.82-78.68h0Z" fill="#2b3948"/>
    <path d="M197.66,250.46c-.85,0-1.71-.03-2.57-.09-2.58-.18-5.18-.63-7.72-1.36-.64-.18-1.14-.67-1.35-1.3-.21-.63-.09-1.32.32-1.85,2.14-2.76,4.17-5.76,6.04-8.9,3.27-5.51,6.12-11.56,8.46-17.95,4.92-13.5,7.53-28.58,7.53-43.61,0-9.87-.44-18.57-1.34-26.58-1.02-9-2.55-16.77-4.67-23.75-1.51-4.99-3.36-9.61-5.48-13.72-2.07-4-4.46-7.6-7.09-10.72-.44-.53-.59-1.24-.38-1.9.21-.66.74-1.16,1.41-1.33,4.75-1.22,9.79-1.65,14.98-1.3.07,0,.14.01.2.02,32.08,2.36,50.71,34.04,47.48,80.8-2.88,41.28-27.64,73.53-55.83,73.54ZM191.34,245.86c1.34.26,2.69.44,4.03.53,27,1.86,51.32-29.4,54.13-69.73,1.43-20.7-1.74-39.5-8.92-52.94-7.69-14.39-19.81-22.55-35.04-23.61-.06,0-.13-.01-.19-.02-3.59-.23-7.09-.05-10.45.54,2.02,2.7,3.88,5.68,5.55,8.89,2.24,4.33,4.18,9.18,5.76,14.4,2.19,7.22,3.76,15.22,4.81,24.46.92,8.16,1.36,17,1.36,27.03,0,15.5-2.69,31.05-7.77,44.99-2.43,6.63-5.38,12.9-8.78,18.62-1.41,2.37-2.91,4.66-4.48,6.84Z" fill="#2b3948"/>
  </g>
  <g>
    <path d="M154.1,85.68l6.54-38.19h-22.37l4.37,38.19h11.46Z" fill="#2b3948"/>
    <path d="M154.1,87.68h-11.46c-1.02,0-1.87-.76-1.99-1.77l-4.37-38.19c-.06-.57.11-1.13.49-1.56.38-.43.92-.67,1.49-.67h22.37c.59,0,1.15.26,1.53.71.38.45.54,1.05.44,1.63l-6.54,38.19c-.17.96-1,1.66-1.97,1.66ZM144.42,83.68h7.99l5.85-34.19h-17.76l3.91,34.19Z" fill="#2b3948"/>
  </g>
</svg>