<?xml version="1.0" encoding="UTF-8"?>
<svg id="_x31_0" xmlns="http://www.w3.org/2000/svg" width="300" height="300" version="1.1" viewBox="0 0 300 300">
  <!-- Generator: Adobe Illustrator 29.4.0, SVG Export Plug-In . SVG Version: 2.1.0 Build 152)  -->
  <rect x="-.5" y=".63" width="300" height="300" fill="#ded9c3"/>
  <path d="M269.22,225.77l-91.61-154.32c-1.1-1.85-3.09-2.98-5.24-2.98h-44.75c-2.15,0-4.14,1.13-5.24,2.98L30.78,225.77c-1.47,2.48.14,5.77,2.82,5.77h232.8c2.68,0,4.29-3.29,2.82-5.77ZM174.57,108.77l-3.94-1.14v.02l-.08-.02-1.19,24.42-1.07,20.58-22.66-44.27-13.79,15.53-7.21,8.05-4.46-20.84-.77-3.67h-.01l-.02-.08-7.12,3.38-5.81,2.69,20.39-35.26c1.09-1.88,3.1-3.04,5.27-3.04h35.71c2.19,0,4.22,1.18,5.3,3.08l11.32,19.94,9.52,16.15-19.4-5.51h.02Z" fill="#2b3948"/>
</svg>