<?xml version="1.0" encoding="UTF-8"?>
<svg id="_x31_0" xmlns="http://www.w3.org/2000/svg" width="300" height="300" version="1.1" viewBox="0 0 300 300">
  <!-- Generator: Adobe Illustrator 29.4.0, SVG Export Plug-In . SVG Version: 2.1.0 Build 152)  -->
  <rect x="-.5" y=".63" width="300" height="300" fill="#ded9c3"/>
  <g>
    <g>
      <path d="M142.67,60.37c.13,0,.27,0,.4-.02,4.48-.35,9.14-.35,13.48-.04,1.58.12,3.09-.51,4.12-1.72,1.05-1.23,1.44-2.83,1.07-4.39l-7.14-30.24c-.54-2.3-2.5-3.85-4.86-3.85h-.01c-2.37,0-4.33,1.56-4.86,3.87l-7.01,30.27c-.36,1.57.03,3.17,1.08,4.4.95,1.11,2.3,1.72,3.74,1.72Z" fill="#2b3948"/>
      <path d="M73.57,90.93h0c.85,1.36,2.3,2.24,3.9,2.36.13,0,.26.01.38.01,1.43,0,2.77-.61,3.71-1.7,2.93-3.44,6.15-6.68,9.57-9.63,1.18-1.02,1.79-2.51,1.67-4.08-.12-1.59-1.01-3.05-2.37-3.9l-26.43-16.33c-2.01-1.25-4.49-.96-6.17.72-1.67,1.68-1.96,4.16-.7,6.17l16.44,26.38Z" fill="#2b3948"/>
      <path d="M208.57,81.72c3.49,2.98,6.73,6.2,9.63,9.57h0c.9,1.04,2.16,1.61,3.57,1.61.47,0,.95-.06,1.45-.19.71-.2,1.36-.56,1.96-1.08.1-.09.2-.19.27-.27l.08-.07c.17-.14.43-.36.64-.7l16.33-26.42c1.25-2.02.96-4.5-.72-6.17-1.68-1.67-4.15-1.95-6.17-.7l-26.38,16.45c-1.36.84-2.24,2.3-2.36,3.89-.12,1.58.5,3.07,1.69,4.09Z" fill="#2b3948"/>
      <path d="M226.42,209.42c-.84-1.35-2.3-2.24-3.89-2.36-1.56-.12-3.06.5-4.08,1.68-2.98,3.46-6.21,6.71-9.61,9.64-1.19,1.03-1.8,2.52-1.67,4.1.13,1.59,1.02,3.04,2.37,3.87l26.47,16.35c.83.52,1.75.77,2.65.77,1.28,0,2.54-.51,3.52-1.49,1.68-1.68,1.96-4.16.71-6.17l-16.46-26.4Z" fill="#2b3948"/>
      <path d="M276.2,145.06l-30.28-7.02c-.36-.08-.66-.06-.9-.03-.08-.01-.16-.02-.24-.02h-.28s-.06.03-.06.03c-.57.04-1.07.15-1.55.35l-.11.05c-1.95.88-3.11,2.77-2.96,4.82.17,2.3.26,4.62.26,6.91s-.08,4.45-.24,6.59c-.14,1.98.95,3.81,2.85,4.75l.16.08c.48.21,1,.33,1.61.38l.34.03c.11,0,.22-.01.28-.01.09,0,.21.02.34.02.16,0,.34-.01.55-.06l30.25-7.14c2.31-.54,3.85-2.5,3.85-4.87,0-2.37-1.56-4.32-3.87-4.85Z" fill="#2b3948"/>
      <path d="M91.13,218.03c-3.41-2.94-6.63-6.18-9.57-9.62h0c-1.02-1.19-2.5-1.81-4.09-1.69-1.59.12-3.05,1-3.9,2.35l-16.44,26.38c-1.26,2.01-.97,4.49.7,6.17.98.98,2.24,1.49,3.52,1.49.9,0,1.82-.25,2.65-.77l26.43-16.33c1.36-.84,2.24-2.29,2.37-3.89.13-1.58-.48-3.07-1.67-4.1Z" fill="#2b3948"/>
      <path d="M156.56,239.68c-4.2.31-8.97.31-13.49-.04-1.59-.12-3.1.51-4.14,1.72-1.05,1.22-1.44,2.82-1.07,4.38l7.01,30.28c.54,2.31,2.49,3.86,4.86,3.87h.01c2.37,0,4.32-1.55,4.87-3.85l7.14-30.24c.37-1.57-.02-3.17-1.06-4.39-1.04-1.21-2.55-1.84-4.12-1.73Z" fill="#2b3948"/>
      <path d="M57.2,161.58c1.97-.88,3.14-2.77,2.98-4.83-.18-2.29-.27-4.62-.27-6.92s.08-4.45.24-6.58c.15-2.03-.99-3.9-2.92-4.79l-.09-.04c-.49-.22-1.02-.34-1.66-.38-.08-.02-.19-.03-.3-.03l-.28.02s.01,0,0,0c-.19-.02-.51-.05-.88.04l-30.25,7.14c-2.31.55-3.85,2.51-3.84,4.89,0,2.37,1.56,4.32,3.87,4.85l30.27,7.02c.19.04.36.06.52.06.14,0,.27-.01.38-.02.08,0,.16.02.24.02h.28s.06-.03.06-.03c.58-.04,1.1-.16,1.58-.37l.07-.03Z" fill="#2b3948"/>
      <path d="M150,74.39c-41.76,0-75.61,33.84-75.61,75.61s33.85,75.61,75.61,75.61,75.61-33.85,75.61-75.61c0-41.76-33.85-75.61-75.61-75.61Z" fill="#2b3948"/>
    </g>
    <g>
      <path d="M145.14,124.76c.27.28.39.68.31,1.06l-2,9.97c-.19.96.8,1.73,1.68,1.3l9.13-4.47c.35-.17.76-.16,1.1.03l8.86,4.99c.86.48,1.89-.23,1.75-1.2l-1.43-10.06c-.05-.39.08-.77.37-1.04l7.48-6.88c.72-.67.37-1.87-.6-2.04l-10.01-1.75c-.38-.07-.71-.32-.87-.67l-4.24-9.24c-.41-.89-1.67-.93-2.12-.06l-4.76,8.98c-.18.34-.52.58-.91.62l-10.1,1.17c-.98.11-1.4,1.3-.71,2l7.07,7.3Z" fill="#ded9c3"/>
      <path d="M167.67,151.35l6.77,2.99c.26.11.45.35.5.63l1.37,7.28c.13.7,1.01.95,1.49.42l4.94-5.52c.19-.21.47-.32.75-.28l7.34.94c.71.09,1.22-.67.86-1.29l-3.72-6.4c-.14-.25-.16-.55-.03-.8l3.17-6.69c.31-.65-.26-1.36-.96-1.21l-7.24,1.56c-.28.06-.57-.02-.77-.22l-5.39-5.08c-.52-.49-1.38-.17-1.45.54l-.75,7.37c-.03.28-.2.53-.44.67l-6.5,3.56c-.63.34-.59,1.26.07,1.55Z" fill="#ded9c3"/>
      <path d="M185.9,191.54c-37.48,0-67.97-30.5-67.97-67.98,0-14.03,4.27-27.5,12.18-38.82-28.04,8.38-48.17,34.63-48.17,64.61,0,37.18,30.25,67.43,67.42,67.43,21.74,0,41.83-10.38,54.42-27.63-5.8,1.59-11.79,2.39-17.89,2.39Z" fill="#ded9c3"/>
    </g>
  </g>
</svg>