<?xml version="1.0" encoding="UTF-8"?>
<svg id="_x31_0" xmlns="http://www.w3.org/2000/svg" width="300" height="300" version="1.1" viewBox="0 0 300 300">
  <!-- Generator: Adobe Illustrator 29.4.0, SVG Export Plug-In . SVG Version: 2.1.0 Build 152)  -->
  <rect y="0" width="300" height="300" fill="#ded9c3"/>
  <g>
    <g>
      <path d="M155.92,38.27c-61.46,0-111.28,49.81-111.28,111.28s49.82,111.28,111.28,111.28,111.28-49.83,111.28-111.28c0-61.47-49.83-111.28-111.28-111.28Z" fill="#ded9c3"/>
      <path d="M155.92,51.27c54.19,0,98.28,44.09,98.28,98.28,0,54.19-44.09,98.28-98.28,98.28s-98.28-44.09-98.28-98.28,44.09-98.28,98.28-98.28M155.92,38.27c-61.46,0-111.28,49.81-111.28,111.28s49.82,111.28,111.28,111.28,111.28-49.83,111.28-111.28c0-61.47-49.83-111.28-111.28-111.28h0Z" fill="#2b3948"/>
    </g>
    <path d="M231.68,147.56l-32.13-2.76c-2.21-20.41-18.46-36.67-38.87-38.87l-2.76-32.13c-.09-1.03-.95-1.83-1.99-1.83s-1.9.79-1.99,1.83l-2.76,32.13c-20.41,2.21-36.67,18.46-38.87,38.87l-32.13,2.76c-1.03.09-1.83.95-1.83,1.99s.79,1.9,1.83,1.99l32.13,2.76c2.21,20.41,18.46,36.67,38.87,38.87l2.76,32.13c.09,1.03.95,1.83,1.99,1.83s1.9-.79,1.99-1.83l2.76-32.13c20.41-2.21,36.67-18.46,38.87-38.87l32.13-2.76c1.03-.09,1.83-.95,1.83-1.99s-.79-1.9-1.83-1.99ZM192.42,144.19l-17.19-1.48,8.89-16.91c4.33,5.13,7.29,11.45,8.3,18.39ZM179.68,121.36l-16.91,8.89-1.48-17.19c6.94,1.02,13.26,3.97,18.39,8.3ZM150.56,113.06l-1.48,17.19-16.91-8.89c5.13-4.33,11.45-7.29,18.39-8.3ZM127.73,125.8l8.89,16.91-17.19,1.48c1.02-6.94,3.97-13.26,8.3-18.39ZM119.43,154.92l17.19,1.48-8.89,16.91c-4.33-5.13-7.29-11.45-8.3-18.39ZM132.17,177.74l16.92-8.89,1.48,17.19c-6.94-1.02-13.26-3.97-18.39-8.3ZM162.77,168.86l16.91,8.89c-5.13,4.33-11.45,7.29-18.39,8.3l1.48-17.19ZM184.11,173.31l-8.89-16.91,17.19-1.48c-1.02,6.94-3.97,13.26-8.3,18.39Z" fill="#2b3948"/>
    <g>
      <path d="M144.23,58.13v-25.78h6.7l12.38,15.76v-15.76h6.67v25.78h-6.67l-12.38-15.76v15.76h-6.7Z" fill="#2b3948"/>
      <path d="M169.98,32.35v25.78h-6.67l-12.38-15.76v15.76h-6.7v-25.78h6.7l12.38,15.76v-15.76h6.67M169.98,27.35h-6.67c-2.76,0-5,2.24-5,5v1.3l-3.44-4.39c-.95-1.21-2.4-1.91-3.93-1.91h-6.7c-2.76,0-5,2.24-5,5v25.78c0,2.76,2.24,5,5,5h6.7c2.76,0,5-2.24,5-5v-1.3l3.44,4.39c.95,1.21,2.4,1.91,3.93,1.91h6.67c2.76,0,5-2.24,5-5v-25.78c0-2.76-2.24-5-5-5h0Z" fill="#ded9c3"/>
    </g>
    <g>
      <path d="M162.9,247.76c-.73-.59-1.46-1.03-2.19-1.32-.73-.28-1.44-.43-2.12-.43-.87,0-1.57.2-2.12.62-.55.41-.82.95-.82,1.61,0,.46.14.83.41,1.13.27.3.63.55,1.08.77.44.22.95.41,1.5.56.56.16,1.11.33,1.66.51,2.19.73,3.79,1.7,4.8,2.92,1.01,1.22,1.52,2.81,1.52,4.77,0,1.32-.22,2.52-.67,3.59-.44,1.07-1.09,1.99-1.95,2.75-.85.76-1.9,1.36-3.15,1.78-1.24.42-2.65.63-4.22.63-3.26,0-6.28-.97-9.06-2.91l2.87-5.4c1,.89,1.99,1.55,2.97,1.98.98.43,1.95.65,2.91.65,1.09,0,1.91-.25,2.44-.75.54-.5.8-1.07.8-1.71,0-.39-.07-.72-.21-1.01-.14-.28-.37-.55-.68-.79-.32-.24-.74-.46-1.25-.67-.51-.21-1.13-.43-1.86-.68-.87-.27-1.72-.58-2.55-.91-.83-.33-1.57-.77-2.22-1.32-.65-.55-1.17-1.24-1.57-2.07-.4-.83-.6-1.89-.6-3.16s.21-2.43.63-3.47c.42-1.04,1.01-1.93,1.78-2.67.76-.74,1.7-1.32,2.8-1.73,1.11-.41,2.34-.62,3.71-.62,1.28,0,2.61.18,4,.53,1.39.35,2.72.87,4,1.56l-2.67,5.23Z" fill="#2b3948"/>
      <path d="M157.57,240.44c1.28,0,2.61.18,4,.53,1.39.35,2.72.87,4,1.56l-2.67,5.23c-.73-.59-1.46-1.03-2.19-1.32-.73-.28-1.44-.43-2.12-.43-.87,0-1.57.2-2.12.62-.55.41-.82.95-.82,1.61,0,.46.14.83.41,1.13.27.3.63.55,1.08.77.44.22.95.41,1.5.56.56.16,1.11.33,1.66.51,2.19.73,3.79,1.7,4.8,2.92,1.01,1.22,1.52,2.81,1.52,4.77,0,1.32-.22,2.52-.67,3.59-.44,1.07-1.09,1.99-1.95,2.75-.85.76-1.9,1.36-3.15,1.78-1.24.42-2.65.63-4.22.63-3.26,0-6.28-.97-9.06-2.91l2.87-5.4c1,.89,1.99,1.55,2.97,1.98.98.43,1.95.65,2.91.65,1.09,0,1.91-.25,2.44-.75.54-.5.8-1.07.8-1.71,0-.39-.07-.72-.21-1.01-.14-.28-.37-.55-.68-.79-.32-.24-.74-.46-1.25-.67-.51-.21-1.13-.43-1.86-.68-.87-.27-1.72-.58-2.55-.91-.83-.33-1.57-.77-2.22-1.32-.65-.55-1.17-1.24-1.57-2.07-.4-.83-.6-1.89-.6-3.16s.21-2.43.63-3.47c.42-1.04,1.01-1.93,1.78-2.67.76-.74,1.7-1.32,2.8-1.73,1.11-.41,2.34-.62,3.71-.62M157.57,235.44c-1.96,0-3.79.31-5.45.93-1.76.65-3.29,1.6-4.55,2.83-1.26,1.22-2.25,2.69-2.93,4.37-.66,1.63-1,3.43-1,5.35,0,2.03.37,3.82,1.09,5.33.42.87.93,1.67,1.52,2.39-.08.12-.15.24-.22.37l-2.87,5.4c-1.19,2.23-.52,5,1.56,6.45,3.62,2.52,7.63,3.8,11.92,3.8,2.11,0,4.07-.3,5.83-.9,1.88-.64,3.52-1.57,4.87-2.78,1.41-1.26,2.5-2.8,3.24-4.57.7-1.67,1.05-3.53,1.05-5.5,0-3.15-.9-5.83-2.68-7.97-.4-.49-.86-.95-1.36-1.38l2.43-4.76c1.24-2.43.31-5.39-2.09-6.68-1.63-.87-3.35-1.54-5.13-1.99-1.79-.45-3.55-.68-5.23-.68h0Z" fill="#ded9c3"/>
    </g>
    <g>
      <path d="M267.26,146.13h-7.97v4.31h7.52v5.68h-7.52v4.44h7.97v5.68h-14.67v-25.78h14.67v5.68Z" fill="#2b3948"/>
      <path d="M267.26,140.46v5.68h-7.97v4.31h7.52v5.68h-7.52v4.44h7.97v5.68h-14.67v-25.78h14.67M267.26,135.46h-14.67c-2.76,0-5,2.24-5,5v25.78c0,2.76,2.24,5,5,5h14.67c2.76,0,5-2.24,5-5v-5.68c0-.98-.28-1.9-.77-2.67.21-.55.33-1.15.33-1.78v-5.68c0-.59-.1-1.16-.29-1.69.47-.76.74-1.66.74-2.62v-5.68c0-2.76-2.24-5-5-5h0Z" fill="#ded9c3"/>
    </g>
    <g>
      <path d="M39.75,140.46l4.44,16.65,5.47-16.65h5.33l5.47,16.65,4.44-16.65h7.01l-7.69,25.78h-6.84l-5.06-14.94-5.06,14.94h-6.84l-7.69-25.78h7.01Z" fill="#2b3948"/>
      <path d="M71.92,140.46h0M71.92,140.46l-7.69,25.78h-6.84l-5.06-14.94-5.06,14.94h-6.84l-7.69-25.78h7.01l4.44,16.65,5.47-16.65h5.33l5.47,16.65,4.44-16.65h7.01M71.93,135.46h-7.01c-2.26,0-4.25,1.52-4.83,3.71l-.11.41-.22-.68c-.67-2.05-2.59-3.44-4.75-3.44h-5.33c-2.16,0-4.08,1.39-4.75,3.44l-.22.68-.11-.41c-.58-2.19-2.57-3.71-4.83-3.71h-7.01c-1.58,0-3.07.75-4.01,2.01-.94,1.27-1.23,2.9-.78,4.42l7.69,25.78c.63,2.12,2.58,3.57,4.79,3.57h6.84c2.14,0,4.05-1.37,4.74-3.4l.32-.96.32.96c.69,2.03,2.59,3.4,4.74,3.4h6.84c2.21,0,4.16-1.45,4.79-3.57l7.64-25.6c.17-.5.26-1.05.26-1.61,0-2.76-2.24-5-5-5h0ZM71.92,145.46h0,0Z" fill="#ded9c3"/>
    </g>
  </g>
</svg>