<?xml version="1.0" encoding="UTF-8"?>
<svg id="_x31_0" xmlns="http://www.w3.org/2000/svg" width="300" height="300" version="1.1" viewBox="0 0 300 300">
  <!-- Generator: Adobe Illustrator 29.4.0, SVG Export Plug-In . SVG Version: 2.1.0 Build 152)  -->
  <rect x="-.5" y=".63" width="300" height="300" fill="#ded9c3"/>
  <g>
    <g>
      <path d="M139.74,127.18c-1.32,0-2.6-.41-3.7-1.17l-20.9-14.56-23.84,8.96c-.74.28-1.52.42-2.3.42-2.04,0-3.99-.99-5.22-2.64-1.23-1.66-1.59-3.76-.99-5.75l7.39-24.37-15.89-19.9c-1.55-1.95-1.86-4.56-.81-6.82,1.06-2.26,3.26-3.69,5.75-3.74l25.46-.51,14.02-21.26c1.21-1.83,3.23-2.92,5.42-2.92,2.77,0,5.24,1.76,6.15,4.37l8.35,24.06,24.55,6.76c2.4.66,4.19,2.59,4.66,5.04.47,2.45-.47,4.9-2.46,6.41l-20.3,15.38,1.16,25.44c.08,1.79-.55,3.49-1.78,4.78s-2.95,2.03-4.72,2.03h0Z" fill="#ded9c3"/>
      <path d="M139.74,127.69l-.5-.03c-1.24-.09-2.43-.51-3.48-1.24l-20.69-14.41-23.59,8.87c-.79.3-1.63.45-2.48.45-2.19,0-4.29-1.06-5.62-2.84-1.33-1.79-1.71-4.05-1.07-6.19l7.31-24.12-15.73-19.69c-1.67-2.1-2-4.91-.87-7.34,1.14-2.43,3.51-3.98,6.19-4.03l25.2-.5,13.88-21.04c1.3-1.97,3.48-3.14,5.84-3.14,2.98,0,5.64,1.89,6.62,4.71l8.26,23.81,24.3,6.69c2.59.71,4.51,2.79,5.02,5.43.5,2.63-.51,5.28-2.65,6.9l-20.09,15.22,1.15,25.18c.09,1.93-.6,3.76-1.92,5.15-1.32,1.39-3.18,2.18-5.08,2.18ZM115.21,110.89l21.12,14.71c1.02.71,2.2,1.08,3.41,1.08h.34c1.51-.09,2.96-.76,4.02-1.87,1.13-1.19,1.72-2.76,1.64-4.41l-1.17-25.7,20.51-15.54c1.83-1.39,2.7-3.66,2.27-5.92-.43-2.26-2.08-4.04-4.3-4.65l-24.8-6.83-8.44-24.31c-.84-2.41-3.12-4.03-5.68-4.03-2.02,0-3.89,1.01-5,2.7l-14.16,21.48-25.72.52c-2.3.05-4.33,1.37-5.31,3.45-.97,2.08-.68,4.5.75,6.3l16.05,20.1-7.47,24.62c-.55,1.84-.22,3.77.91,5.31,1.14,1.53,2.94,2.44,4.82,2.44.73,0,1.44-.13,2.12-.39l24.09-9.05Z" fill="#2b3948"/>
    </g>
    <path d="M124.14,36.42c1.2,0,2.39.7,2.84,2.02l8.44,24.31c.32.93,1.09,1.65,2.04,1.91l24.81,6.83c2.4.66,3,3.78,1.01,5.28l-20.51,15.53c-.79.6-1.23,1.54-1.19,2.53l1.17,25.7c.08,1.83-1.4,3.14-3.01,3.14-.58,0-1.17-.17-1.7-.54l-21.11-14.71c-.51-.36-1.11-.54-1.71-.54-.36,0-.71.06-1.06.19l-24.09,9.05c-.36.14-.72.2-1.07.2-1.9,0-3.47-1.86-2.86-3.88l7.46-24.62c.29-.94.09-1.97-.53-2.74l-16.05-20.11c-1.55-1.94-.2-4.82,2.28-4.87l25.73-.51c.99-.02,1.9-.52,2.44-1.35l14.16-21.48c.6-.91,1.55-1.35,2.5-1.35M124.14,29.42h0c-3.37,0-6.48,1.68-8.34,4.5l-13.01,19.72-23.62.47c-3.83.08-7.23,2.28-8.85,5.75-1.63,3.47-1.15,7.49,1.24,10.49l14.74,18.46-6.85,22.61c-.93,3.06-.37,6.29,1.53,8.85,1.88,2.54,4.89,4.06,8.03,4.06,1.2,0,2.39-.22,3.53-.65l22.12-8.31,19.39,13.5c1.69,1.18,3.66,1.8,5.71,1.8,2.72,0,5.37-1.13,7.25-3.11,1.9-1.98,2.87-4.6,2.75-7.35l-1.07-23.6,18.84-14.26c3.06-2.31,4.51-6.09,3.78-9.86s-3.47-6.74-7.17-7.76l-22.78-6.27-7.75-22.32c-1.4-4.02-5.2-6.72-9.46-6.72h0Z" fill="#2b3948"/>
  </g>
  <g>
    <path d="M211.85,161.22c-.9,0-1.79-.24-2.58-.68l-12.26-6.92-12.65,6.18c-.73.36-1.51.54-2.31.54-1.58,0-3.06-.71-4.07-1.94-1-1.22-1.39-2.81-1.08-4.36l2.79-13.8-9.79-10.12c-1.4-1.45-1.85-3.52-1.17-5.42s2.34-3.22,4.34-3.45l13.99-1.61,6.6-12.44c.91-1.72,2.69-2.79,4.63-2.79,2.05,0,3.92,1.2,4.77,3.06l5.86,12.8,13.87,2.43c1.98.35,3.56,1.76,4.13,3.69.57,1.93,0,3.98-1.49,5.34l-10.36,9.52,1.97,13.94c.21,1.51-.23,3.03-1.23,4.17-1,1.15-2.45,1.82-3.97,1.82h0v.04Z" fill="#ded9c3"/>
    <path d="M198.3,107.93c.64,0,1.28.34,1.59,1.02l6.24,13.64c.24.52.72.9,1.29.99l14.77,2.59c1.43.25,1.95,2.03.88,3.01l-11.04,10.15c-.42.39-.63.96-.55,1.53l2.1,14.85c.16,1.12-.73,2-1.73,2-.28,0-.58-.07-.86-.23l-13.06-7.37c-.27-.15-.56-.23-.86-.23-.26,0-.53.06-.77.18l-13.48,6.59c-.26.12-.52.18-.77.18-1.04,0-1.94-.96-1.71-2.1l2.97-14.7c.11-.56-.06-1.15-.46-1.56l-10.43-10.78c-1.01-1.04-.38-2.79,1.06-2.95l14.9-1.72c.57-.07,1.07-.41,1.34-.92l7.03-13.25c.33-.62.94-.93,1.54-.93M198.3,100.93c-3.24,0-6.21,1.78-7.73,4.65l-5.74,10.81-12.16,1.4c-3.33.38-6.1,2.59-7.23,5.74-1.13,3.16-.38,6.62,1.95,9.03l8.51,8.8-2.42,12c-.52,2.58.13,5.23,1.8,7.27,1.67,2.05,4.14,3.22,6.78,3.22,1.32,0,2.65-.31,3.84-.89l10.99-5.37,10.66,6.01c1.31.74,2.8,1.13,4.3,1.13,2.53,0,4.95-1.1,6.61-3.02,1.66-1.91,2.41-4.44,2.05-6.96l-1.71-12.12,9.01-8.28c2.47-2.27,3.42-5.68,2.48-8.9-.94-3.22-3.58-5.58-6.88-6.16l-12.05-2.12-5.09-11.13c-1.42-3.1-4.54-5.11-7.96-5.11h0Z" fill="#2b3948"/>
  </g>
  <path d="M158.71,314.91c-2.49,0-4.5-2.01-4.5-4.5v-98.02c-1.64-12.86-7.53-17.29-15.66-23.4-12.07-9.07-27.1-20.37-29.81-63.16-.16-2.48,1.73-4.62,4.21-4.78,2.48-.14,4.62,1.73,4.78,4.21,2.45,38.66,15.09,48.15,26.24,56.53,8.44,6.34,17.17,12.9,19.22,29.77.02.18.03.36.03.54v98.3c0,2.49-2.01,4.5-4.5,4.5Z" fill="#2b3948"/>
  <path d="M159.22,255.74c-.8,0-1.62-.22-2.35-.67-2.12-1.3-2.78-4.07-1.48-6.19,3.66-5.95,9.61-12.19,15.36-18.22,7.06-7.4,14.36-15.06,17.07-21.71,4.98-12.23,5.05-42.01,5.05-42.31,0-2.49,2.01-4.5,4.5-4.5h0c2.49,0,4.5,2.01,4.5,4.5,0,1.29-.06,31.85-5.71,45.71-3.36,8.23-11.26,16.52-18.9,24.53-5.68,5.96-11.05,11.58-14.21,16.72-.85,1.38-2.33,2.14-3.84,2.14Z" fill="#2b3948"/>
</svg>