<?xml version="1.0" encoding="UTF-8"?>
<svg id="_x31_0" xmlns="http://www.w3.org/2000/svg" width="300" height="300" version="1.1" viewBox="0 0 300 300">
  <!-- Generator: Adobe Illustrator 29.4.0, SVG Export Plug-In . SVG Version: 2.1.0 Build 152)  -->
  <rect width="300" height="300" fill="#ded9c3"/>
  <g>
    <path d="M150,38.72c-61.46,0-111.28,49.81-111.28,111.28s49.82,111.28,111.28,111.28,111.28-49.83,111.28-111.28-49.83-111.28-111.28-111.28h0Z" fill="#ded9c3"/>
    <path d="M150,51.72c54.19,0,98.28,44.09,98.28,98.28s-44.09,98.28-98.28,98.28-98.28-44.09-98.28-98.28,44.09-98.28,98.28-98.28M150,38.72c-61.46,0-111.28,49.81-111.28,111.28s49.82,111.28,111.28,111.28,111.28-49.83,111.28-111.28-49.83-111.28-111.28-111.28h0Z" fill="#2b3948"/>
  </g>
  <path d="M225.75,148.01l-32.13-2.76c-2.21-20.41-18.46-36.67-38.87-38.87l-2.76-32.13c-.09-1.03-.95-1.83-1.99-1.83s-1.9.79-1.99,1.83l-2.76,32.13c-20.41,2.21-36.67,18.46-38.87,38.87l-32.13,2.76c-1.03.09-1.83.95-1.83,1.99s.79,1.9,1.83,1.99l32.13,2.76c2.21,20.41,18.46,36.67,38.87,38.87l2.76,32.13c.09,1.03.95,1.83,1.99,1.83s1.9-.79,1.99-1.83l2.76-32.13c20.41-2.21,36.67-18.46,38.87-38.87l32.13-2.76c1.03-.09,1.83-.95,1.83-1.99s-.79-1.9-1.83-1.99ZM186.49,144.64l-17.19-1.48,8.89-16.91c4.33,5.13,7.29,11.45,8.3,18.39ZM173.75,121.81l-16.91,8.89-1.48-17.19c6.94,1.02,13.26,3.97,18.39,8.3ZM144.63,113.51l-1.48,17.19-16.91-8.89c5.13-4.33,11.45-7.29,18.39-8.3ZM121.8,126.25l8.89,16.91-17.19,1.48c1.02-6.94,3.97-13.26,8.3-18.39ZM113.5,155.37l17.19,1.48-8.89,16.91c-4.33-5.13-7.29-11.45-8.3-18.39ZM126.24,178.19l16.92-8.89,1.48,17.19c-6.94-1.02-13.26-3.97-18.39-8.3h0ZM156.84,169.31l16.91,8.89c-5.13,4.33-11.45,7.29-18.39,8.3l1.48-17.19ZM178.18,173.76l-8.89-16.91,17.19-1.48c-1.02,6.94-3.97,13.26-8.3,18.39Z" fill="#2b3948"/>
  <g>
    <g>
      <path d="M141.95,59.33c-1.92,0-3.68-.97-4.71-2.59s-1.15-3.63-.33-5.36l8.06-17.05c.93-1.97,2.86-3.19,5.04-3.19s4.11,1.22,5.04,3.19l8.05,17.05c.82,1.73.7,3.74-.33,5.36-1.03,1.62-2.79,2.59-4.71,2.59h-16.11Z" fill="#2b3948"/>
      <path d="M150,34.13c.93,0,1.86.49,2.33,1.47l8.05,17.05c.81,1.71-.44,3.67-2.33,3.67h-16.11c-1.89,0-3.13-1.96-2.33-3.67l8.05-17.05c.46-.98,1.39-1.47,2.33-1.47M150,28.13c-3.35,0-6.32,1.88-7.75,4.91l-8.05,17.05c-1.26,2.67-1.07,5.75.51,8.25,1.58,2.49,4.29,3.98,7.24,3.98h16.11c2.95,0,5.66-1.49,7.24-3.98,1.58-2.49,1.77-5.58.51-8.25l-8.05-17.05c-1.43-3.03-4.4-4.91-7.75-4.91h0Z" fill="#ded9c3"/>
    </g>
    <g>
      <path d="M150,268.87c-2.18,0-4.11-1.22-5.04-3.19l-8.05-17.05c-.82-1.74-.7-3.74.33-5.36,1.03-1.62,2.79-2.59,4.71-2.59h16.11c1.92,0,3.68.97,4.71,2.59s1.15,3.63.33,5.36l-8.05,17.05c-.93,1.97-2.86,3.19-5.04,3.19Z" fill="#2b3948"/>
      <path d="M158.05,243.67c1.89,0,3.13,1.96,2.33,3.67l-8.05,17.05c-.46.98-1.39,1.47-2.33,1.47s-1.86-.49-2.33-1.47l-8.05-17.05c-.81-1.71.44-3.67,2.33-3.67h16.11M158.05,237.67h-16.11c-2.95,0-5.66,1.49-7.24,3.98-1.58,2.49-1.77,5.58-.51,8.25l8.05,17.05c1.43,3.03,4.4,4.91,7.75,4.91s6.32-1.88,7.75-4.91l8.05-17.05c1.26-2.67,1.07-5.75-.51-8.25-1.58-2.49-4.29-3.98-7.24-3.98h0Z" fill="#ded9c3"/>
    </g>
  </g>
  <g>
    <g>
      <path d="M246.24,163.63c-3.07,0-5.57-2.5-5.57-5.58v-16.11c0-3.07,2.5-5.58,5.57-5.58.83,0,1.63.18,2.38.54l17.05,8.06c1.97.93,3.19,2.86,3.19,5.04s-1.22,4.11-3.19,5.04l-17.05,8.05c-.75.36-1.55.54-2.38.54h0Z" fill="#2b3948"/>
      <path d="M246.24,139.37c.36,0,.74.08,1.1.25l17.05,8.05c1.96.93,1.96,3.72,0,4.65l-17.05,8.05c-.36.17-.73.25-1.1.25-1.35,0-2.57-1.09-2.57-2.58v-16.11c0-1.49,1.22-2.58,2.57-2.58M246.24,133.37c-4.73,0-8.57,3.85-8.57,8.58v16.11c0,4.73,3.85,8.58,8.57,8.58,1.27,0,2.5-.28,3.66-.82l17.05-8.05c3.03-1.43,4.91-4.4,4.91-7.75s-1.88-6.32-4.91-7.75l-17.05-8.05c-1.16-.55-2.39-.82-3.66-.82h0Z" fill="#ded9c3"/>
    </g>
    <g>
      <path d="M53.76,163.63c-.83,0-1.63-.18-2.38-.54l-17.05-8.05c-1.97-.93-3.19-2.86-3.19-5.04,0-2.18,1.22-4.11,3.19-5.04l17.05-8.05c.75-.36,1.55-.54,2.38-.54,3.07,0,5.57,2.5,5.57,5.58v16.11c0,1.53-.6,2.95-1.69,4-1.05,1.01-2.43,1.57-3.88,1.57h0Z" fill="#2b3948"/>
      <path d="M53.76,139.37c1.35,0,2.57,1.09,2.57,2.58v16.11c0,1.49-1.22,2.58-2.57,2.58-.36,0-.74-.08-1.1-.25l-17.05-8.05c-1.96-.93-1.96-3.72,0-4.65l17.05-8.05c.36-.17.73-.25,1.1-.25M53.76,133.37c-1.27,0-2.5.28-3.66.82l-17.05,8.05c-3.03,1.43-4.91,4.4-4.91,7.75s1.88,6.32,4.91,7.75l17.05,8.05c1.16.55,2.39.82,3.66.82,4.73,0,8.57-3.85,8.57-8.58v-16.11c0-4.73-3.85-8.58-8.57-8.58h0Z" fill="#ded9c3"/>
    </g>
  </g>
</svg>