<?xml version="1.0" encoding="UTF-8"?>
<svg id="_x31_0" xmlns="http://www.w3.org/2000/svg" width="300" height="300" version="1.1" viewBox="0 0 300 300">
  <!-- Generator: Adobe Illustrator 29.4.0, SVG Export Plug-In . SVG Version: 2.1.0 Build 152)  -->
  <rect x="-.5" y=".63" width="300" height="300" fill="#ded9c3"/>
  <path d="M82.67,229.84c-27.07,0-49.1-21.44-49.1-47.8,0-16.72,9.23-32.46,24.08-41.09,1.02-.59,1.68-1.66,1.74-2.84,1.28-24.51,21.53-43.71,46.09-43.71,3.82,0,7.61.47,11.27,1.39.28.07.57.11.86.11,1.17,0,2.29-.59,2.94-1.61,4.11-6.38,9.43-11.7,15.82-15.81,8.46-5.44,18.28-8.32,28.38-8.32,11.4,0,22.24,3.59,31.35,10.37,7.82,5.82,13.84,13.63,17.43,22.59.37.92,1.11,1.64,2.04,1.98,7.42,2.73,13.95,7.41,18.91,13.54,5.07,6.27,8.3,13.78,9.32,21.72.13.99.68,1.88,1.5,2.45,13.23,8.99,21.13,23.65,21.13,39.23,0,26.36-22.03,47.8-49.1,47.8H82.67Z" fill="#ded9c3"/>
  <path d="M164.75,73.66c10.64,0,20.75,3.35,29.26,9.68,7.3,5.43,12.92,12.72,16.27,21.08.74,1.84,2.22,3.28,4.08,3.97,6.82,2.51,12.84,6.82,17.4,12.45,4.67,5.77,7.63,12.67,8.57,19.97.26,1.99,1.35,3.77,3.01,4.89,12.27,8.33,19.59,21.92,19.59,36.34,0,24.43-20.46,44.3-45.6,44.3H82.67c-25.14,0-45.6-19.87-45.6-44.3,0-15.48,8.56-30.06,22.34-38.06,2.04-1.19,3.35-3.33,3.48-5.69,1.19-22.65,19.9-40.39,42.59-40.39,3.53,0,7.03.43,10.41,1.28.57.14,1.14.21,1.71.21,2.34,0,4.58-1.18,5.89-3.21,3.83-5.95,8.8-10.92,14.77-14.76,7.9-5.08,17.06-7.76,26.49-7.76M164.75,66.66c-10.78,0-21.25,3.07-30.28,8.88-6.8,4.37-12.54,10.12-16.87,16.86-3.94-.99-8-1.5-12.12-1.5-26.5,0-48.21,20.86-49.58,47.03-15.84,9.2-25.82,26-25.82,44.12,0,28.29,23.6,51.3,52.6,51.3h134.65c29,0,52.6-23.01,52.6-51.3,0-16.79-8.58-32.57-22.66-42.13-1.11-8.61-4.55-16.65-10.07-23.47-5.34-6.61-12.48-11.69-20.42-14.62-3.83-9.58-10.2-17.85-18.59-24.1-9.72-7.24-21.29-11.07-33.44-11.07h0Z" fill="#2b3948"/>
  <path d="M175.47,249.46c-12.46,0-22.6-9.85-22.6-21.96,0-7.67,4.24-14.9,11.07-18.86,1.02-.59,1.68-1.66,1.74-2.84.59-11.22,9.86-20.01,21.11-20.01,1.75,0,3.49.21,5.16.63.28.07.57.11.86.11,1.17,0,2.29-.59,2.94-1.61,1.9-2.95,4.36-5.41,7.32-7.31,3.91-2.52,8.45-3.85,13.13-3.85,5.27,0,10.29,1.66,14.5,4.8,3.62,2.69,6.4,6.3,8.06,10.45.37.92,1.11,1.64,2.04,1.98,3.38,1.25,6.36,3.38,8.62,6.17,2.31,2.86,3.78,6.28,4.25,9.89.13.99.68,1.88,1.5,2.45,6.08,4.13,9.71,10.86,9.71,18.01,0,12.11-10.14,21.96-22.6,21.96h-66.81Z" fill="#ded9c3"/>
  <path d="M216.19,177.26c4.51,0,8.8,1.42,12.41,4.11,3.1,2.31,5.49,5.4,6.9,8.94.74,1.84,2.22,3.28,4.08,3.97,2.75,1.01,5.27,2.82,7.11,5.09,1.93,2.39,3.11,5.13,3.5,8.14.26,1.99,1.35,3.77,3.01,4.89,5.12,3.48,8.18,9.13,8.18,15.11,0,10.18-8.57,18.45-19.1,18.45h-66.81c-10.53,0-19.1-8.28-19.1-18.45,0-6.43,3.57-12.49,9.33-15.83,2.04-1.19,3.35-3.33,3.48-5.69.49-9.36,8.23-16.7,17.61-16.7,1.46,0,2.91.18,4.3.53.57.14,1.14.21,1.71.21,2.34,0,4.58-1.18,5.89-3.21,1.63-2.53,3.74-4.63,6.27-6.27,3.35-2.15,7.23-3.29,11.24-3.29M216.19,170.26c-5.35,0-10.54,1.52-15.02,4.4-3.37,2.17-6.22,5.02-8.37,8.37-1.96-.49-3.97-.74-6.01-.74-13.15,0-23.92,10.35-24.6,23.33-7.86,4.56-12.81,12.9-12.81,21.89,0,14.04,11.71,25.45,26.1,25.45h66.81c14.39,0,26.1-11.42,26.1-25.45,0-8.33-4.26-16.16-11.24-20.9-.55-4.27-2.26-8.26-5-11.65-2.65-3.28-6.19-5.8-10.13-7.25-1.9-4.75-5.06-8.86-9.22-11.96-4.82-3.59-10.56-5.49-16.59-5.49h-.02Z" fill="#2b3948"/>
</svg>