<?xml version="1.0" encoding="UTF-8"?>
<svg id="_x31_0" xmlns="http://www.w3.org/2000/svg" width="300" height="300" version="1.1" viewBox="0 0 300 300">
  <!-- Generator: Adobe Illustrator 29.4.0, SVG Export Plug-In . SVG Version: 2.1.0 Build 152)  -->
  <rect x="-.5" y=".63" width="300" height="300" fill="#ded9c3"/>
  <g>
    <path d="M206.72,203.48c-49.7,0-89.98-40.29-89.98-89.99,0-24.02,9.42-45.82,24.76-61.96-47.92,6.91-84.75,48.12-84.75,97.95,0,54.67,44.32,98.99,98.99,98.99,37.96,0,70.91-21.38,87.52-52.74-11.17,4.96-23.52,7.75-36.53,7.75h0Z" fill="#2b3948"/>
    <path d="M155.74,250.47c-55.69,0-100.99-45.3-100.99-100.99,0-24.43,8.84-48.01,24.9-66.39,15.9-18.2,37.76-30.11,61.57-33.54.85-.12,1.67.3,2.06,1.06.39.76.26,1.68-.33,2.3-15.61,16.43-24.21,37.94-24.21,60.58,0,48.52,39.47,87.99,87.98,87.99h.01c12.38,0,24.39-2.55,35.72-7.58.78-.35,1.69-.16,2.27.46.58.62.7,1.55.31,2.3-17.58,33.19-51.79,53.8-89.29,53.8ZM136.18,54.49c-20.67,4.24-39.5,15.2-53.52,31.24-15.42,17.65-23.91,40.29-23.91,63.75,0,53.48,43.51,96.99,96.99,96.99,34.1,0,65.38-17.76,82.94-46.71-10.24,3.8-20.96,5.72-31.95,5.72h-.01c-50.72,0-91.98-41.27-91.98-91.99,0-21.73,7.57-42.46,21.44-59Z" fill="#2b3948"/>
  </g>
</svg>