<?xml version="1.0" encoding="UTF-8"?>
<svg id="_x31_0" xmlns="http://www.w3.org/2000/svg" width="300" height="300" version="1.1" viewBox="0 0 300 300">
  <!-- Generator: Adobe Illustrator 29.4.0, SVG Export Plug-In . SVG Version: 2.1.0 Build 152)  -->
  <rect x="-.5" y=".63" width="300" height="300" fill="#ded9c3"/>
  <g>
    <path d="M107.61,236.95c-3.24-5.43-6.07-11.41-8.4-17.79-.02-.05-.03-.1-.05-.15-4.93-13.53-7.53-28.61-7.53-43.62,0-9.8.44-18.49,1.34-26.58,1.01-8.94,2.53-16.71,4.67-23.75,1.51-4.99,3.35-9.61,5.48-13.72,2.07-3.99,4.45-7.6,7.08-10.72.45-.53.59-1.24.38-1.9-.21-.66-.74-1.16-1.41-1.33-4.75-1.22-9.79-1.66-14.98-1.3-32.22,2.23-50.93,33.96-47.68,80.81,1.42,20.47,8.19,39.36,19.06,53.19,10.37,13.2,23.31,20.35,36.7,20.35h.01c.87,0,1.75-.03,2.62-.09,2.59-.17,5.19-.63,7.73-1.36.64-.18,1.14-.67,1.35-1.3.2-.62.08-1.32-.32-1.84-2.17-2.81-4.21-5.81-6.05-8.9Z" fill="#2b3948"/>
    <path d="M199.31,175.38c0-.11-.01-.23-.03-.34-.02-12.44-.8-23.5-2.34-32.9-1.25-7.74-3.07-14.68-5.41-20.61-1.8-4.56-3.97-8.66-6.47-12.19-1.88-2.65-4-5.02-6.32-7.06-3.62-3.16-7.62-5.48-12.23-7.09-4.86-1.7-10.44-2.56-16.52-2.56s-11.63.86-16.51,2.56c-4.59,1.59-8.59,3.91-12.24,7.1-2.31,2.03-4.44,4.41-6.32,7.05-2.48,3.5-4.66,7.6-6.47,12.19-2.32,5.9-4.14,12.83-5.41,20.61-1.55,9.48-2.34,20.66-2.34,33.24,0,10.66,1.36,21.15,4.05,31.18,2.52,9.44,6.11,18.09,10.66,25.74,2.91,4.89,6.14,9.23,9.6,12.9,2.06,2.18,4.18,3.89,6.49,5.21,2.1,1.23,4.34,2.14,6.84,2.81,1.59.42,3.22.72,4.85.91,2.06.24,4.29.36,6.82.36h0c2.53-.01,4.76-.13,6.82-.38,1.63-.19,3.26-.5,4.85-.91,2.52-.67,4.75-1.59,6.83-2.8,2.34-1.35,4.46-3.06,6.49-5.21,3.47-3.69,6.71-8.03,9.61-12.9,4.55-7.65,8.13-16.31,10.65-25.73,2.69-10.03,4.05-20.52,4.05-31.18Z" fill="#2b3948"/>
    <path d="M206,96.12c-.06-.01-.13-.02-.2-.02-5.19-.35-10.23.08-14.98,1.3-.67.17-1.2.67-1.41,1.33-.21.66-.06,1.37.38,1.9,2.63,3.12,5.02,6.72,7.09,10.72,2.12,4.11,3.97,8.73,5.48,13.72,2.12,6.98,3.65,14.75,4.67,23.75.9,8.01,1.34,16.71,1.34,26.58,0,15.03-2.61,30.11-7.53,43.61-2.34,6.39-5.19,12.44-8.46,17.95-1.87,3.14-3.9,6.14-6.04,8.9-.41.53-.53,1.22-.32,1.85.21.63.71,1.12,1.35,1.3,2.54.73,5.14,1.18,7.72,1.36.86.06,1.72.09,2.56.09,28.19-.01,52.95-32.26,55.83-73.54,3.23-46.76-15.4-78.44-47.48-80.8Z" fill="#2b3948"/>
    <polygon points="197.66 250.46 197.65 250.46 197.65 250.46 197.66 250.46" fill="#2b3948"/>
    <path d="M140.65,85.91c.12,1.01.97,1.77,1.99,1.77h11.45c.97,0,1.8-.7,1.97-1.66l6.54-38.19c.1-.58-.06-1.18-.44-1.63s-.94-.71-1.53-.71h-22.37c-.57,0-1.11.24-1.49.67-.38.43-.55.99-.49,1.56l4.37,38.19Z" fill="#2b3948"/>
  </g>
</svg>