<?xml version="1.0" encoding="UTF-8"?>
<svg id="_レイヤー_1" xmlns="http://www.w3.org/2000/svg" width="108.75" height="108.75" version="1.1" viewBox="0 0 108.75 108.75">
  <!-- Generator: Adobe Illustrator 29.4.0, SVG Export Plug-In . SVG Version: 2.1.0 Build 152)  -->
  <path d="M54.33,2.43v.05C25.72,2.48,2.4,25.74,2.4,54.41s23.26,51.98,51.93,51.98,51.98-23.31,51.98-51.98S83,2.43,54.33,2.43Z" fill="#dcd7c2"/>
  <g id="_レイヤー_3">
    <path d="M63.69,84.61c-3.65,0-6.72-2.59-7.95-3.88-2.7,2.65-5.47,3.83-8.3,3.48-4.18-.47-7.12-4.07-8.36-5.82-4,4.12-8.83,4.12-11.95,2.24-2.94-1.77-4.12-5.12-2.89-8.24,1.94-4.83,9.54-25.72,9.6-25.96v-.24c2.89-8.83,11.83-15.02,21.9-15.02s18.78,6.01,21.67,14.66h.05l.24,1.06c.17.59.29,1.18.41,1.82.76,3.36,2.41,10.13,4.36,16.9.76,2.65,1.47,4.95,2.12,6.77h0c.94,2.82.29,5.94-1.77,8.12-2.01,2.12-4.77,2.94-7.54,2.24-2.01-.53-3.65-1.42-4.54-2.01-2.01,2.48-4.36,3.77-6.89,3.83h-.17v.05h0ZM55.74,78.26l.59.71s3.29,3.95,7.31,3.95h.17c2.18-.05,4.18-1.3,6.01-3.77l.47-.64.64.47s2.12,1.47,4.71,2.18c2.12.53,4.36-.05,5.89-1.77,1.59-1.77,2.18-4.18,1.42-6.41h0c-.64-1.82-1.35-4.18-2.12-6.89-1.94-6.83-3.59-13.6-4.36-17.01-.12-.59-.24-1.18-.41-1.77l-.12-.35c-2.53-8.3-10.83-14.07-20.25-14.07s-17.79,5.77-20.25,14.07l-.24.59c-1.23,3.36-7.71,21.01-9.42,25.43-.94,2.41-.12,4.83,2.18,6.18,2.7,1.65,7.07,1.42,10.6-2.7l.76-.88.59,1.06s3.18,5.42,7.71,5.94c2.48.29,5.01-.94,7.48-3.59l.64-.71h0Z" fill="#5f8390"/>
    <g>
      <circle cx="39.49" cy="32.1" r="7.19" fill="#dcd7c2"/>
      <path d="M39.49,40.1c-4.42,0-8-3.59-8-8s3.59-8,8-8,8,3.59,8,8-3.59,8-8,8ZM39.49,25.79c-3.48,0-6.3,2.82-6.3,6.3s2.82,6.3,6.3,6.3,6.3-2.82,6.3-6.3-2.82-6.3-6.3-6.3Z" fill="#5f8390"/>
    </g>
    <g>
      <circle cx="71.76" cy="32.1" r="7.19" fill="#dcd7c2"/>
      <path d="M71.76,40.1c-4.42,0-8-3.59-8-8s3.59-8,8-8,8,3.59,8,8-3.59,8-8,8ZM71.76,25.79c-3.48,0-6.3,2.82-6.3,6.3s2.82,6.3,6.3,6.3,6.3-2.82,6.3-6.3-2.82-6.3-6.3-6.3Z" fill="#5f8390"/>
    </g>
    <path d="M55.68,69.07c-9.89,0-17.31-6.01-17.31-13.96s7.77-14.95,17.31-14.95,17.31,6.72,17.31,14.95-7.42,13.96-17.31,13.96ZM55.68,41.81c-8.66,0-15.66,5.94-15.66,13.3s6.72,12.3,15.66,12.3,15.66-5.3,15.66-12.3-7-13.3-15.66-13.3Z" fill="#5f8390"/>
    <circle cx="47.5" cy="55.59" r="2.53" fill="#5f8390"/>
    <ellipse cx="63.57" cy="55.59" rx="2.48" ry="2.53" fill="#5f8390"/>
    <path d="M55.68,63.59c-1.82,0-3.36-.59-4.3-1.65-.29-.35-.29-.88.05-1.23.35-.29.88-.29,1.23.05.59.71,1.77,1.06,3.06,1.06s2.53-.41,3-1c.29-.35.88-.41,1.23-.12s.41.88.12,1.23c-.83,1-2.48,1.65-4.3,1.65h-.17.08Z" fill="#5f8390"/>
  </g>
</svg>