<?xml version="1.0" encoding="UTF-8"?>
<svg id="_レイヤー_2" data-name="レイヤー_2" xmlns="http://www.w3.org/2000/svg" width="281.06" height="81.77" version="1.1" viewBox="0 0 281.06 81.77">
  <!-- Generator: Adobe Illustrator 29.4.0, SVG Export Plug-In . SVG Version: 2.1.0 Build 152)  -->
  <path d="M280.49,29.35c-.09-.09-.21-.14-.35-.14-2.65,0-5.05-1.07-6.8-2.82s-2.82-4.13-2.82-6.8c0-.12-.05-.26-.14-.35s-.21-.14-.35-.14H11.03c-.12,0-.26.05-.35.14s-.14.22-.14.35c0,2.65-1.07,5.05-2.82,6.8s-4.13,2.82-6.8,2.82c-.12,0-.26.05-.35.14s-.14.22-.14.35v40.35c0,.12.05.26.14.35s.21.14.35.14c2.65,0,5.05,1.07,6.8,2.82s2.82,4.13,2.82,6.8c0,.12.05.26.14.35s.21.14.35.14h259.01c.12,0,.26-.05.35-.14s.14-.22.14-.35c0-2.65,1.07-5.05,2.82-6.8s4.13-2.82,6.8-2.82c.12,0,.26-.05.35-.14s.14-.22.14-.35V29.69c0-.12-.05-.26-.14-.35h-.01Z" fill="#2b3948"/>
  <g>
    <path d="M266.79,23.73c-.05-.16-.19-.24-.35-.24H63.69v.02H14.62c-.16,0-.29.1-.35.24-1.37,4.39-4.83,7.85-9.22,9.22-.16.05-.24.19-.24.35v33.14c0,.16.1.29.24.35,4.39,1.37,7.85,4.83,9.22,9.22.05.16.19.24.35.24h202.75v-.02h49.07c.16,0,.29-.1.35-.24,1.37-4.39,4.83-7.85,9.22-9.22.16-.05.24-.19.24-.35v-33.14c0-.16-.1-.29-.24-.35-4.39-1.37-7.85-4.83-9.22-9.22ZM275.55,66.19c-4.41,1.45-7.91,4.93-9.36,9.34H63.7v.02H14.89c-1.45-4.41-4.95-7.89-9.36-9.36v-32.64c4.41-1.45,7.91-4.93,9.36-9.34h202.49v-.02h48.81c1.45,4.41,4.95,7.89,9.36,9.36v32.64Z" fill="#ded9c3"/>
    <path d="M280.49,29.35c-.09-.09-.21-.14-.35-.14-2.65,0-5.05-1.07-6.8-2.82s-2.82-4.13-2.82-6.8c0-.12-.05-.26-.14-.35s-.21-.14-.35-.14H11.03c-.12,0-.26.05-.35.14s-.14.22-.14.35c0,2.65-1.07,5.05-2.82,6.8s-4.13,2.82-6.8,2.82c-.12,0-.26.05-.35.14s-.14.22-.14.35v40.35c0,.12.05.26.14.35s.21.14.35.14c2.65,0,5.05,1.07,6.8,2.82s2.82,4.13,2.82,6.8c0,.12.05.26.14.35s.21.14.35.14h259.01c.12,0,.26-.05.35-.14s.14-.22.14-.35c0-2.65,1.07-5.05,2.82-6.8s4.13-2.82,6.8-2.82c.12,0,.26-.05.35-.14s.14-.22.14-.35V29.69c0-.12-.05-.26-.14-.35h-.01ZM279.66,69.56c-2.73.12-5.19,1.28-6.99,3.1-1.82,1.8-2.98,4.27-3.1,6.99H11.5c-.12-2.73-1.28-5.19-3.1-6.99-1.8-1.8-4.27-2.96-6.99-3.1V30.18c2.73-.12,5.19-1.28,6.99-3.1,1.82-1.8,2.98-4.27,3.1-6.99h258.08c.12,2.73,1.28,5.19,3.1,6.99,1.8,1.8,4.27,2.96,6.99,3.1v39.38h0Z" fill="#ded9c3"/>
  </g>
  <g>
    <g>
      <path d="M47.04,7.35h-.85c-1.31,0-2.37-1.06-2.37-2.37v-2.62c0-1.31,1.06-2.36,2.37-2.36h.85c1.31,0,2.37,1.06,2.37,2.37v2.62c0,1.31-1.06,2.37-2.37,2.37h0ZM46.18,1c-.75,0-1.37.61-1.37,1.37v2.62c0,.75.61,1.37,1.37,1.37h.85c.75,0,1.37-.61,1.37-1.37v-2.62c0-.75-.61-1.37-1.37-1.37,0,0-.85,0-.85,0Z" fill="#ded9c3"/>
      <path d="M47.04,19.45h-.85c-1.31,0-2.37-1.06-2.37-2.37v-2.62c0-1.31,1.06-2.37,2.37-2.37h.85c1.31,0,2.37,1.06,2.37,2.37v2.62c0,1.31-1.06,2.37-2.37,2.37ZM46.18,13.09c-.75,0-1.37.61-1.37,1.37v2.62c0,.75.61,1.37,1.37,1.37h.85c.75,0,1.37-.61,1.37-1.37v-2.62c0-.75-.61-1.37-1.37-1.37h-.85Z" fill="#ded9c3"/>
    </g>
    <path d="M46.61,13.99c-.28,0-.5-.22-.5-.5v-7.54c0-.28.22-.5.5-.5s.5.22.5.5v7.54c0,.28-.22.5-.5.5Z" fill="#ded9c3"/>
  </g>
  <g>
    <g>
      <path d="M234.97,7.35h-.85c-1.31,0-2.37-1.06-2.37-2.37v-2.62c0-1.31,1.06-2.37,2.37-2.37h.85c1.31,0,2.37,1.06,2.37,2.37v2.62c0,1.31-1.06,2.37-2.37,2.37ZM234.12,1c-.75,0-1.37.61-1.37,1.37v2.62c0,.75.61,1.37,1.37,1.37h.85c.75,0,1.37-.61,1.37-1.37v-2.62c0-.75-.61-1.37-1.37-1.37,0,0-.85,0-.85,0Z" fill="#ded9c3"/>
      <path d="M234.97,19.45h-.85c-1.31,0-2.37-1.06-2.37-2.37v-2.62c0-1.31,1.06-2.37,2.37-2.37h.85c1.31,0,2.37,1.06,2.37,2.37v2.62c0,1.31-1.06,2.37-2.37,2.37ZM234.12,13.09c-.75,0-1.37.61-1.37,1.37v2.62c0,.75.61,1.37,1.37,1.37h.85c.75,0,1.37-.61,1.37-1.37v-2.62c0-.75-.61-1.37-1.37-1.37h-.85Z" fill="#ded9c3"/>
    </g>
    <path d="M234.55,13.99c-.28,0-.5-.22-.5-.5v-7.54c0-.28.22-.5.5-.5s.5.22.5.5v7.54c0,.28-.22.5-.5.5Z" fill="#ded9c3"/>
  </g>
  <g>
    <polygon points="263.15 56.18 265.63 55.02 263.15 53.85 261.04 54.84 20.02 54.84 17.91 53.85 15.43 55.02 17.91 56.18 20.02 55.19 261.04 55.19 263.15 56.18" fill="#ded9c3"/>
    <g>
      <path d="M85.68,67.13c-.32.04-.62.04-.89-.01-.27-.05-.49-.15-.65-.29-.16-.15-.25-.34-.25-.59,0-.36.15-.7.44-1.01.29-.31.69-.57,1.18-.76v-1.52c-.28.03-.56.05-.83.07-.27.01-.53.01-.77,0l-.04-.49c.22.02.47.03.75.01.29,0,.58-.03.88-.06v-1.46h.47v1.4c.28-.04.54-.09.79-.14s.46-.11.64-.18l.06.47c-.2.07-.43.13-.68.18-.26.06-.52.1-.81.15v1.42c.22-.06.44-.11.68-.14s.49-.05.75-.05c.43,0,.82.06,1.14.19s.58.3.76.52c.18.22.27.47.27.76s-.07.55-.2.76c-.13.21-.31.36-.54.46-.23.1-.49.15-.79.15-.74-.01-1.23-.4-1.47-1.16.03,0,.08-.03.14-.05.06-.02.13-.05.19-.08.06-.03.11-.05.13-.07.08.28.19.49.35.64.16.15.37.22.66.23.3,0,.55-.07.74-.23.19-.16.28-.37.28-.66,0-.22-.07-.4-.22-.55-.14-.15-.34-.27-.59-.36-.25-.08-.54-.12-.86-.12-.26,0-.51.02-.75.05-.24.04-.47.09-.68.15v2.03c0,.11-.02.19-.07.24s-.12.08-.23.09ZM85.33,66.7c.07,0,.12-.02.15-.04s.04-.06.04-.11v-1.61c-.35.16-.62.35-.83.58-.21.23-.31.46-.31.7,0,.18.09.31.28.39.18.07.41.1.68.09ZM89.65,63.64c-.12-.12-.28-.25-.48-.39s-.41-.27-.63-.4c-.22-.13-.42-.22-.61-.3l.28-.38c.12.05.26.12.42.2s.32.18.48.28c.17.1.32.2.47.3.15.1.27.19.36.27-.02.02-.05.05-.09.12s-.09.12-.13.18c-.04.06-.07.1-.08.11Z" fill="#ded9c3"/>
      <path d="M91.33,67.45s-.05-.07-.09-.12c-.05-.06-.09-.11-.14-.16-.05-.05-.09-.08-.11-.09.73-.38,1.29-.84,1.67-1.38-.2-.13-.41-.25-.62-.36s-.41-.19-.61-.26c.06-.16.12-.36.18-.6.06-.24.13-.5.2-.79.07-.29.14-.58.2-.87h-.88v-.44h.97c.07-.33.13-.64.18-.93.05-.29.08-.52.09-.69l.51.05c-.02.18-.06.41-.11.69-.05.27-.11.57-.18.88h1.3v.28c0,.64-.05,1.19-.15,1.66-.09.47-.24.88-.43,1.25.2.13.39.28.58.43s.35.3.5.45c-.02,0-.05.04-.1.09-.05.05-.1.1-.15.15-.05.05-.08.09-.1.11-.14-.15-.3-.29-.46-.43s-.33-.27-.51-.4c-.21.28-.45.54-.73.78-.28.24-.62.47-.99.7ZM92.88,65.3c.17-.34.3-.71.38-1.12.08-.41.12-.86.12-1.36h-.89c-.09.39-.18.77-.27,1.14s-.17.66-.24.88c.14.06.29.12.44.2s.3.16.46.25ZM94.77,67.44c0-.07-.02-.16-.05-.26-.03-.1-.05-.17-.07-.23h.82c.11,0,.18-.02.23-.06s.07-.11.07-.2v-2.3h-1.7v-.46h1.7v-1.27h.25c.08-.07.19-.17.31-.29.13-.12.25-.25.37-.38.12-.13.21-.25.27-.34h-2.72v-.44h3.29l.19.21c-.12.18-.27.37-.44.56-.18.2-.36.38-.54.56-.18.18-.35.33-.5.46v.93h1.72v.46h-1.72v2.41c0,.42-.24.63-.71.63h-.78Z" fill="#ded9c3"/>
      <path d="M103.35,67.33c-.41.01-.79,0-1.14-.03-.35-.03-.66-.1-.92-.21s-.47-.25-.62-.44c-.15-.19-.22-.44-.22-.74,0-.25.08-.45.23-.62.15-.17.36-.29.62-.38.26-.08.55-.13.86-.14.32,0,.64.02.96.08-.14-.16-.27-.33-.41-.53-.13-.19-.26-.39-.38-.6-.34.06-.69.12-1.03.16-.34.05-.66.08-.95.11-.29.03-.53.04-.73.04l-.12-.45c.18,0,.41,0,.68-.03.28-.02.58-.06.91-.1.33-.05.66-.1.99-.15-.08-.16-.16-.33-.24-.49-.08-.17-.15-.33-.21-.49-.33.05-.65.08-.96.11-.31.03-.59.04-.83.05l-.1-.45c.23,0,.49-.01.79-.04s.61-.06.94-.1c-.08-.21-.14-.4-.19-.58-.05-.18-.09-.33-.11-.46l.5-.06c.03.28.12.63.27,1.04.32-.05.62-.11.9-.17.28-.06.51-.12.68-.18l.13.44c-.17.06-.39.11-.66.17-.27.06-.57.11-.89.16.07.16.14.32.22.48.08.16.16.32.24.49.41-.08.78-.16,1.12-.24s.58-.16.73-.24l.18.41c-.16.08-.41.17-.73.25-.32.08-.68.17-1.07.24.17.29.36.56.56.81.2.25.4.47.6.64l-.28.35c-.34-.14-.68-.22-1-.26-.33-.04-.62-.03-.88.02-.26.05-.47.13-.62.25-.15.12-.23.26-.23.43,0,.22.07.4.2.53s.32.23.56.3c.24.07.51.11.81.13.31.02.63.02.98,0-.04.06-.07.14-.09.24-.03.1-.04.18-.05.24Z" fill="#ded9c3"/>
      <path d="M107.35,65.92s-.06-.04-.12-.08-.11-.08-.17-.11-.1-.06-.13-.07c.33-.36.63-.8.9-1.31.27-.52.49-1.06.66-1.64-.31.05-.61.1-.88.14s-.49.07-.65.08l-.08-.48c.19,0,.45-.03.76-.07.31-.04.64-.08.97-.13.12-.5.19-.99.21-1.48l.47.05c-.02.45-.08.9-.18,1.34.23-.04.44-.08.65-.13.2-.05.38-.09.52-.14l.05.45c-.16.04-.35.09-.59.13-.23.05-.48.1-.74.14-.17.63-.4,1.23-.68,1.79-.28.56-.61,1.06-.97,1.51ZM109.5,67.34c-.34,0-.6-.09-.77-.26-.18-.17-.26-.37-.26-.61,0-.22.11-.43.31-.6.2-.18.51-.26.91-.26.11,0,.22.01.33.02.11.01.22.03.33.05v-2.04h.48v2.17c.3.1.59.22.87.38s.53.32.76.5c-.05.05-.1.12-.15.21-.05.09-.09.16-.12.23-.2-.17-.41-.33-.64-.47-.23-.15-.47-.27-.71-.37v.02c0,.33-.12.59-.36.77-.24.18-.56.27-.98.26ZM109.53,66.91c.26,0,.46-.05.61-.16.15-.11.22-.27.22-.48v-.13c-.22-.06-.45-.09-.68-.09-.24,0-.42.04-.55.13-.13.09-.2.2-.2.31,0,.13.04.23.15.31.1.08.26.12.46.12ZM112.4,63.64c-.1-.12-.25-.25-.43-.38-.18-.13-.37-.26-.57-.37-.19-.11-.37-.2-.51-.26l.25-.37c.11.05.24.11.39.19.15.08.29.17.45.26.15.1.29.19.42.29s.24.19.32.27l-.31.38Z" fill="#ded9c3"/>
      <path d="M115.25,67.57l-.12-.42c.12-.01.29-.03.51-.07.23-.04.47-.08.74-.13v-1.8h-1.21c-.08.52-.21.97-.37,1.36s-.36.73-.59,1.03c-.02-.01-.05-.04-.11-.08-.06-.04-.12-.07-.18-.11-.06-.04-.1-.06-.13-.06.3-.37.54-.85.72-1.43.18-.58.27-1.3.27-2.15v-2.82h5.48v1.65h-1.31v.86h1.37v.41h-1.37v.91h1.84v.43h-.96l.26.26c-.12.12-.29.26-.49.41-.21.15-.41.28-.6.4.28.22.59.4.93.55.34.15.69.27,1.06.38-.02.01-.05.05-.08.11s-.07.12-.1.18-.06.1-.07.13c-.46-.14-.89-.31-1.27-.52-.39-.2-.74-.46-1.04-.77-.31-.31-.57-.68-.79-1.13h-.77v1.71c.29-.06.56-.12.81-.18.25-.06.43-.11.55-.16v.43c-.1.04-.25.08-.43.13s-.39.09-.62.15-.46.1-.7.15c-.24.05-.46.09-.68.13-.21.04-.39.07-.54.09ZM115.22,64.7h1.53v-.91h-1.04v-.41h1.04v-.86h-1.47v1.17c0,.18,0,.36-.01.53-.01.17-.02.33-.04.49ZM115.28,62.11h4.51v-.82h-4.51v.82ZM117.22,63.38h1.27v-.86h-1.27v.86ZM117.22,64.7h1.27v-.91h-1.27v.91ZM118.68,65.91c.12-.07.24-.14.38-.23.13-.09.26-.18.38-.28.12-.1.22-.18.3-.26h-1.64c.09.15.18.29.28.41.1.13.2.25.31.36Z" fill="#ded9c3"/>
      <path d="M122.2,66.7s-.06-.05-.12-.1-.12-.09-.18-.13c-.06-.04-.1-.07-.13-.08.18-.12.36-.28.53-.46.17-.19.34-.39.49-.6.16-.21.3-.42.42-.64.12-.21.22-.41.29-.6l.47.19c-.11.27-.27.55-.46.86-.2.31-.41.6-.64.87-.23.28-.45.51-.67.69ZM123.92,67.4c0-.07-.02-.16-.05-.26-.03-.1-.05-.19-.08-.24h.87c.11,0,.19-.02.24-.06.05-.04.07-.11.07-.21v-3.06h-3.13v-.47h6.68v.47h-3.04v3.18c0,.22-.06.38-.17.49s-.3.16-.55.16h-.84ZM122.66,61.68v-.48h5.05v.48h-5.05ZM128.13,66.7c-.08-.16-.19-.35-.34-.57-.14-.22-.3-.44-.47-.67-.17-.23-.34-.44-.5-.64-.16-.2-.31-.36-.44-.48l.39-.28c.14.14.29.32.47.52s.35.42.52.64c.17.22.33.44.47.65.14.21.26.38.34.53-.02,0-.06.04-.13.08-.07.04-.13.08-.19.12s-.1.07-.12.09Z" fill="#ded9c3"/>
      <path d="M129.48,67.26v-.44h3.15v-.84h-2.23v-.44h2.23v-.73h.48v.73h2.23v.44h-2.23v.84h3.16v.44h-6.8ZM129.65,63.03v-1.52h2.96v-.9h.52v.9h2.96v1.5h-.48v-1.07h-5.48v1.09h-.48ZM135.08,64.95c-.13-.15-.31-.33-.54-.54-.31.04-.65.07-1.03.1-.38.03-.77.06-1.16.09-.39.03-.77.05-1.12.06-.35.01-.65.03-.91.03l-.07-.46c.19,0,.38,0,.58-.01.19,0,.39,0,.59-.01.12-.15.26-.33.4-.54s.26-.4.36-.58h-1.59v-.43h4.58v.43h-2.44c-.1.17-.22.36-.35.56s-.27.38-.39.53c.4-.01.79-.04,1.16-.06s.7-.05.99-.08c-.1-.09-.19-.17-.29-.24-.1-.07-.19-.14-.27-.19l.34-.31c.15.11.32.24.51.4s.38.31.56.48c.19.16.34.3.46.43-.01.01-.05.04-.1.09-.05.05-.11.1-.16.15s-.08.09-.1.11Z" fill="#ded9c3"/>
      <path d="M141.09,67.28c-.37,0-.7-.04-.99-.12-.29-.08-.52-.19-.69-.35s-.25-.36-.25-.6c0-.21.07-.42.23-.6.15-.19.35-.36.61-.52.25-.16.53-.3.84-.43v-.1c0-.29-.05-.48-.15-.58-.1-.1-.23-.16-.4-.16-.28-.01-.58.03-.88.15-.31.11-.57.29-.78.52-.1.11-.19.21-.29.3-.09.09-.19.19-.28.27l-.37-.37c.38-.28.73-.61,1.05-1.02.32-.4.58-.81.79-1.23-.34.02-.65.03-.94.04s-.49,0-.62,0l-.02-.49c.16.01.4.02.73.02s.68,0,1.06-.03c.08-.19.14-.39.18-.58.04-.19.07-.37.07-.53l.51.03c0,.17-.03.35-.07.52-.04.17-.09.35-.14.53.41-.03.79-.06,1.16-.1.36-.04.63-.09.82-.14l.05.47c-.14.03-.33.06-.57.09-.24.03-.49.05-.77.08-.28.02-.56.04-.86.07-.09.2-.21.42-.34.64-.14.22-.28.43-.43.62.15-.09.32-.16.51-.21.19-.05.37-.07.53-.07.6,0,.91.36.94,1.08.32-.12.63-.22.95-.31.32-.09.6-.16.85-.22l.15.46c-.34.06-.68.13-1.01.22-.33.09-.64.19-.93.3v1.09h-.48v-.9c-.35.16-.64.33-.86.51-.22.18-.33.36-.33.54,0,.21.13.37.38.48.25.1.6.15,1.02.15.24,0,.49-.02.78-.06.28-.04.55-.1.8-.18,0,.03,0,.07,0,.14s.02.13.03.2c0,.04,0,.08.01.1,0,.03,0,.05,0,.07-.26.07-.53.12-.81.15-.28.04-.54.05-.78.05Z" fill="#ded9c3"/>
      <path d="M147.12,67.13c-.32.04-.62.04-.89-.01-.27-.05-.49-.15-.65-.29-.16-.15-.25-.34-.25-.59,0-.36.15-.7.44-1.01.29-.31.69-.57,1.18-.76v-1.52c-.28.03-.56.05-.83.07-.27.01-.53.01-.77,0l-.04-.49c.22.02.47.03.75.01.29,0,.58-.03.88-.06v-1.46h.47v1.4c.28-.04.54-.09.79-.14.25-.05.46-.11.64-.18l.06.47c-.2.07-.43.13-.68.18-.26.06-.52.1-.81.15v1.42c.22-.06.44-.11.68-.14s.49-.05.74-.05c.44,0,.82.06,1.14.19.32.13.58.3.76.52.18.22.27.47.27.76s-.07.55-.2.76c-.13.21-.31.36-.54.46-.23.1-.49.15-.79.15-.74-.01-1.23-.4-1.47-1.16.03,0,.08-.03.14-.05.06-.02.13-.05.19-.08s.11-.05.13-.07c.08.28.19.49.35.64.16.15.37.22.66.23.3,0,.55-.07.74-.23.19-.16.28-.37.28-.66,0-.22-.07-.4-.22-.55-.14-.15-.34-.27-.59-.36s-.54-.12-.86-.12c-.26,0-.51.02-.75.05-.24.04-.47.09-.68.15v2.03c0,.11-.02.19-.07.24s-.12.08-.23.09ZM146.76,66.7c.07,0,.12-.02.15-.04s.04-.06.04-.11v-1.61c-.35.16-.62.35-.83.58s-.31.46-.31.7c0,.18.09.31.28.39.18.07.41.1.68.09ZM151.08,63.64c-.12-.12-.28-.25-.48-.39s-.41-.27-.63-.4c-.22-.13-.42-.22-.61-.3l.28-.38c.12.05.26.12.42.2.16.08.32.18.48.28.17.1.32.2.47.3.15.1.27.19.37.27-.01.02-.05.05-.09.12s-.09.12-.13.18-.07.1-.08.11Z" fill="#ded9c3"/>
      <path d="M156.81,67.36c-.51,0-.96-.03-1.33-.08-.38-.06-.7-.15-.98-.27s-.52-.29-.74-.49c-.09.06-.2.14-.35.24s-.29.2-.43.3-.26.18-.35.25l-.24-.48c.09-.04.2-.1.35-.18.15-.08.29-.16.44-.25.15-.09.26-.16.35-.23v-2.21h-1.04v-.45h1.5v2.67c.19.19.4.34.65.45s.54.19.89.23c.35.05.78.07,1.29.07.58,0,1.07,0,1.49-.03s.78-.04,1.09-.07c0,.02-.02.07-.04.14s-.04.14-.06.22c-.02.07-.03.12-.03.15-.15,0-.35,0-.61.01-.26,0-.55,0-.86.01s-.64,0-.98,0ZM153.8,62.38c-.08-.12-.19-.26-.32-.41-.13-.15-.27-.29-.41-.43s-.27-.26-.4-.35l.32-.28c.13.1.27.21.41.35.15.14.28.28.42.42.13.14.24.27.33.38-.01.01-.05.04-.1.08s-.11.09-.16.14-.08.08-.1.1ZM154.36,65.43v-.38h1.25v-.74h-1v-.38h1v-.6h.45v.6h1.2v-.6h.44v.6h1.21v.38h-1.21v.74h1.47v.38h-4.82ZM154.97,63.2c-.33,0-.5-.14-.5-.41v-1.02h1.46v-.58h-1.46v-.38h1.88v1.34h-1.45v.46c0,.07.02.12.06.15.04.03.1.04.2.04h.69c.12,0,.2-.02.25-.07.05-.05.09-.17.13-.37.01,0,.05.02.11.05l.18.08c.06.03.1.04.11.05-.06.25-.14.43-.22.52-.09.1-.2.15-.35.15h-1.07ZM154.86,66.66s-.03-.06-.07-.11c-.04-.05-.07-.11-.11-.16s-.06-.09-.08-.1c.14-.04.31-.11.49-.2s.36-.19.52-.31.29-.22.37-.31l.32.29c-.11.12-.25.24-.42.36-.17.11-.34.22-.52.31-.18.09-.35.17-.51.23ZM156.07,65.06h1.2v-.74h-1.2v.74ZM157.37,63.2c-.33,0-.5-.14-.5-.41v-1.02h1.52v-.58h-1.52v-.38h1.94v1.34h-1.48v.46c0,.07.02.12.05.15.04.03.1.04.19.04h.73c.12,0,.2-.02.25-.07s.09-.17.13-.37c.01,0,.05.02.11.05.06.03.12.05.18.08s.1.04.12.05c-.06.25-.13.43-.22.52-.09.1-.21.15-.36.15h-1.14ZM158.46,66.66c-.15-.06-.32-.14-.5-.23-.18-.1-.35-.2-.52-.31-.16-.12-.3-.23-.41-.36l.32-.29c.08.1.2.2.37.31s.34.22.52.31.35.16.49.2c-.02.01-.05.05-.09.1s-.07.11-.11.16c-.04.05-.06.09-.07.11Z" fill="#ded9c3"/>
      <path d="M162.98,67.11c-.56,0-1-.15-1.32-.46s-.48-.75-.48-1.33c0-.37.06-.73.17-1.09.11-.36.26-.71.44-1.05.18-.34.37-.65.58-.95-.28.14-.57.25-.88.32-.31.08-.56.13-.77.15l-.14-.45c.17-.01.37-.04.6-.09.22-.05.45-.11.68-.19.22-.08.43-.17.62-.27s.33-.22.43-.34l.38.32c-.27.32-.52.68-.77,1.08-.25.4-.45.81-.61,1.24-.16.43-.24.86-.24,1.3s.12.74.35.97c.23.22.56.34.97.34.34,0,.63-.09.88-.28.25-.18.45-.44.6-.77.15-.33.26-.71.31-1.15.05-.44.06-.92,0-1.44s-.16-1.06-.33-1.62l.48-.15c.07.31.18.6.33.86.15.27.31.51.49.74.18.22.37.42.56.58.19.17.37.3.53.39-.05.05-.1.12-.15.22-.05.09-.09.17-.12.24-.2-.13-.43-.32-.68-.58-.25-.26-.49-.57-.71-.94.08.59.1,1.15.05,1.68-.05.53-.16,1-.34,1.4-.18.4-.43.72-.75.96-.32.23-.71.35-1.17.35ZM166.47,62.3c-.07-.1-.16-.22-.28-.34-.12-.12-.23-.24-.36-.36-.12-.11-.23-.21-.33-.27l.25-.23c.09.07.19.16.33.28.13.12.26.24.38.37s.22.23.28.32l-.27.23ZM167.06,61.72c-.07-.1-.17-.21-.29-.33s-.24-.23-.37-.35c-.13-.11-.24-.2-.34-.27l.25-.23c.09.06.2.15.33.27.13.12.26.24.39.36.13.12.23.23.29.31l-.27.24Z" fill="#ded9c3"/>
      <path d="M172.19,67.51c-.09-.17-.2-.36-.35-.58s-.31-.45-.48-.69c-.17-.24-.35-.48-.54-.71-.19-.24-.37-.45-.54-.66s-.33-.37-.46-.51c-.17-.17-.26-.32-.26-.44,0-.12.1-.27.29-.44.17-.16.37-.36.59-.59s.44-.47.66-.73c.22-.26.42-.5.6-.74.18-.24.31-.45.41-.63l.45.31c-.11.17-.26.38-.45.61-.18.23-.39.47-.61.72-.22.25-.44.48-.65.71-.21.22-.4.42-.57.58-.09.08-.13.15-.13.22s.04.15.12.23c.14.14.3.32.48.52.17.2.35.42.54.64.18.23.36.46.54.69.17.23.33.45.48.65.14.2.26.38.35.53-.03,0-.08.04-.15.08s-.13.09-.19.14-.1.08-.12.1Z" fill="#ded9c3"/>
      <path d="M176.43,67.21c-.06-.04-.14-.08-.24-.12-.1-.04-.18-.07-.25-.08.13-.2.26-.46.4-.78.14-.31.28-.66.43-1.04.14-.38.28-.77.42-1.18.14-.41.26-.81.37-1.2-.32.04-.62.06-.91.07-.29,0-.54,0-.73,0l-.02-.5c.23.03.5.03.81.03s.64-.03.97-.07c.07-.29.13-.56.18-.81.05-.25.08-.48.1-.67l.52.07c-.03.18-.06.38-.12.61-.05.23-.11.47-.18.73.25-.04.5-.09.73-.14.23-.05.42-.11.58-.17l.11.47c-.16.06-.38.12-.66.18-.27.06-.57.1-.89.15-.11.4-.24.82-.37,1.24s-.28.84-.42,1.24c-.15.4-.29.78-.43,1.11-.14.34-.28.62-.41.85ZM181.68,66.85c-.55.08-1.05.1-1.51.06-.46-.04-.85-.14-1.17-.29s-.56-.35-.72-.6l.32-.32c.23.33.62.55,1.17.66.55.12,1.22.1,1.98-.03-.02.07-.05.15-.06.26-.01.11-.02.19-.01.26ZM181.47,64.07c-.24-.08-.5-.14-.81-.18-.3-.04-.6-.07-.9-.08s-.56,0-.78.01l.06-.5c.17,0,.37-.01.6,0,.23,0,.46.02.71.05.25.02.48.05.71.08.23.03.42.07.58.12l-.17.5ZM181.36,62.55c-.08-.1-.18-.21-.3-.33-.12-.12-.24-.23-.37-.34-.13-.11-.24-.19-.34-.26l.24-.24c.09.06.21.15.34.26.13.12.27.23.4.35.13.12.22.22.29.3l-.25.25ZM181.92,61.94c-.08-.1-.19-.2-.31-.31s-.25-.22-.38-.33c-.13-.1-.25-.19-.35-.25l.23-.25c.1.06.22.14.35.25s.27.22.4.34c.13.12.23.21.3.3l-.25.25Z" fill="#ded9c3"/>
      <path d="M187.82,67.23c-.41.02-.81,0-1.19-.04-.38-.05-.71-.14-1-.27-.29-.13-.52-.3-.69-.52-.17-.22-.25-.48-.25-.79,0-.27.07-.49.23-.68s.36-.33.62-.43c.26-.1.56-.16.89-.18.33-.02.68,0,1.04.07-.21-.23-.4-.48-.57-.76-.17-.27-.32-.56-.44-.86-.49.04-.96.07-1.42.1-.46.03-.86.04-1.2.03l-.08-.5c.31.02.7.02,1.15.01s.92-.04,1.4-.08c-.08-.24-.14-.48-.18-.72-.04-.24-.06-.48-.06-.71h.51c-.02.44.06.91.21,1.38.5-.05.97-.1,1.41-.17.43-.07.77-.14,1.01-.2l.11.48c-.26.06-.59.11-1.01.17-.42.06-.87.11-1.35.16.16.37.37.73.63,1.06s.55.62.88.86l-.3.38c-.32-.13-.65-.22-1-.27-.34-.04-.66-.04-.96,0s-.54.14-.73.28-.28.32-.28.55.08.43.23.58.36.27.63.36c.27.08.57.14.9.16.34.02.68.02,1.04-.01-.04.07-.07.16-.1.27-.03.11-.05.2-.07.27Z" fill="#ded9c3"/>
      <path d="M193.55,66.11c-.12.07-.24.12-.37.14s-.26,0-.38-.07c-.13-.07-.24-.19-.36-.38-.14-.24-.27-.52-.39-.83-.11-.31-.21-.64-.3-.98-.08-.34-.14-.68-.18-1.02s-.06-.66-.05-.96h.49c-.01.37.01.76.08,1.18.06.42.15.83.28,1.22.12.39.27.74.44,1.03.1.16.2.25.3.27.1.02.2,0,.29-.07.13-.09.27-.22.42-.38.15-.16.26-.31.32-.44.04.07.08.14.14.22.06.08.11.15.16.19-.06.1-.14.2-.25.32-.1.12-.21.23-.32.33-.11.1-.22.18-.32.25ZM196.7,64.76c-.05-.13-.12-.3-.22-.51s-.21-.42-.34-.64c-.13-.23-.25-.44-.38-.64s-.25-.36-.35-.49l.41-.25c.11.13.23.3.37.51.13.21.27.43.41.66.14.23.26.45.36.66.1.21.18.38.23.51-.08.01-.17.04-.26.08-.09.04-.17.07-.22.12Z" fill="#ded9c3"/>
    </g>
    <g>
      <g>
        <path d="M42.56,46.96c-.09.35-.14.61-.14.8,0,.29.1.51.3.66.2.15.54.23,1.02.26l-.08.4c-.92-.04-2.08-.06-3.48-.06-1.73,0-3,.02-3.8.06l.08-.4c.48-.03.84-.08,1.08-.16.24-.08.43-.23.57-.46s.28-.59.41-1.1l2.64-9.92c.09-.44.14-.75.14-.92,0-.27-.09-.46-.28-.58-.19-.12-.53-.19-1.04-.22l.1-.4c.77.04,1.99.06,3.66.06.64,0,1.12,0,1.44-.02l1.48-.02c1.76,0,3.06.25,3.91.74s1.27,1.25,1.27,2.28-.35,1.93-1.05,2.74c-.7.81-1.68,1.46-2.94,1.93-1.26.47-2.71.73-4.35.77l-.94,3.56ZM43.62,42.98c.93-.07,1.7-.39,2.3-.97.6-.58,1.03-1.28,1.3-2.11.27-.83.4-1.65.4-2.48,0-.69-.12-1.22-.37-1.57-.25-.35-.64-.53-1.17-.53-.21,0-.36.06-.44.19-.08.13-.17.4-.26.83-.03.09-.05.2-.08.32-.03.12-.06.25-.1.38l-1.58,5.94Z" fill="#131f2b"/>
        <path d="M54.24,47.76c0,.16.04.28.11.35.07.07.16.11.27.11.13,0,.29-.08.47-.25.18-.17.36-.5.55-1.01l.42-1.12h.38l-.5,1.46c-.27.77-.66,1.31-1.18,1.61s-1.07.45-1.66.45c-.67,0-1.19-.17-1.56-.52-.37-.35-.56-.85-.56-1.5,0-.41.08-.89.24-1.42l3.06-10.18c.07-.24.1-.43.1-.56,0-.27-.1-.46-.31-.58s-.56-.18-1.05-.18l.14-.42c1.05-.01,2.01-.09,2.86-.22.85-.13,1.69-.33,2.5-.6l-4.22,14.2c-.04.13-.06.26-.06.38Z" fill="#131f2b"/>
        <path d="M65.43,43.11c-1.25.83-2.73,1.45-4.45,1.85-.04.36-.06.7-.06,1.02,0,.73.14,1.24.42,1.52.28.28.69.42,1.24.42.33,0,.76-.11,1.29-.34s1.03-.58,1.51-1.06l.32.16c-.51.76-1.19,1.4-2.06,1.91-.87.51-1.87.77-3,.77-.99,0-1.81-.25-2.47-.74-.66-.49-.99-1.19-.99-2.08,0-1.31.34-2.59,1.01-3.85.67-1.26,1.59-2.29,2.76-3.08,1.17-.79,2.46-1.19,3.87-1.19.75,0,1.35.15,1.8.45s.68.74.68,1.31c0,1.12-.62,2.1-1.87,2.93ZM63.13,39.66c-.46.57-.88,1.31-1.27,2.22-.39.91-.66,1.81-.82,2.72.71-.41,1.32-.87,1.84-1.36.56-.55,1-1.15,1.33-1.82.33-.67.49-1.37.49-2.12,0-.33-.11-.5-.32-.5-.37,0-.79.29-1.25.86Z" fill="#131f2b"/>
        <path d="M77.58,45.84h.38l-.5,1.46c-.48,1.37-1.43,2.06-2.86,2.06-.81,0-1.39-.23-1.74-.7-.23-.33-.34-.74-.34-1.22,0-.15,0-.26.02-.34-.32.81-.73,1.39-1.24,1.74-.51.35-1.11.52-1.8.52-.83,0-1.45-.21-1.86-.64-.41-.43-.62-1.05-.62-1.86,0-1.25.34-2.54,1.01-3.86.67-1.32,1.51-2.41,2.52-3.28,1.01-.87,1.97-1.3,2.89-1.3.76,0,1.17.38,1.24,1.14l.26-.84c1.29-.01,2.5-.11,3.62-.3l-2.7,8.96c-.05.17-.08.33-.08.48,0,.24.11.36.32.36.39,0,.74-.42,1.06-1.26l.42-1.12ZM72.08,47.36c.28-.43.6-1.19.96-2.3l1.44-4.8c.01-.07.02-.17.02-.3,0-.37-.13-.56-.38-.56-.37,0-.83.39-1.37,1.16-.54.77-1,1.75-1.39,2.92-.39,1.17-.58,2.33-.58,3.46,0,.39.03.66.1.82.07.16.19.24.36.24.28,0,.56-.21.84-.64Z" fill="#131f2b"/>
        <path d="M81.18,48.94c.41,0,.76-.14,1.03-.41.27-.27.41-.64.41-1.11,0-.43-.1-.88-.3-1.35s-.49-1.02-.86-1.63c-.44-.71-.75-1.26-.93-1.66-.18-.4-.27-.85-.27-1.34,0-.89.34-1.62,1.02-2.18s1.67-.84,2.96-.84c.99,0,1.81.18,2.46.53.65.35.98.94.98,1.77,0,.45-.13.86-.38,1.23-.25.37-.6.55-1.04.55-.4,0-.71-.16-.94-.47-.23-.31-.34-.72-.34-1.21,0-.39.06-.75.19-1.09.13-.34.28-.6.45-.79-.11-.05-.27-.08-.5-.08-.47,0-.82.14-1.06.41-.24.27-.36.67-.36,1.19,0,.33.07.66.22.97.15.31.39.75.72,1.31l.24.4c.44.76.75,1.38.93,1.85.18.47.27.93.27,1.37,0,.56-.15,1.07-.46,1.52-.31.45-.76.81-1.36,1.08s-1.33.4-2.18.4c-1.08,0-1.97-.2-2.66-.59-.69-.39-1.04-1.05-1.04-1.97,0-.51.12-.93.37-1.27s.58-.51.99-.51c.39,0,.7.16.94.48.24.32.36.75.36,1.28,0,.37-.05.71-.15,1-.1.29-.24.63-.41,1.02.2.09.43.14.7.14Z" fill="#131f2b"/>
        <path d="M95.91,43.11c-1.25.83-2.73,1.45-4.45,1.85-.04.36-.06.7-.06,1.02,0,.73.14,1.24.42,1.52.28.28.69.42,1.24.42.33,0,.76-.11,1.29-.34s1.03-.58,1.51-1.06l.32.16c-.51.76-1.19,1.4-2.06,1.91-.87.51-1.87.77-3,.77-.99,0-1.81-.25-2.47-.74-.66-.49-.99-1.19-.99-2.08,0-1.31.34-2.59,1.01-3.85.67-1.26,1.59-2.29,2.76-3.08,1.17-.79,2.46-1.19,3.87-1.19.75,0,1.35.15,1.8.45s.68.74.68,1.31c0,1.12-.62,2.1-1.87,2.93ZM93.61,39.66c-.46.57-.88,1.31-1.27,2.22-.39.91-.66,1.81-.82,2.72.71-.41,1.32-.87,1.84-1.36.56-.55,1-1.15,1.33-1.82.33-.67.49-1.37.49-2.12,0-.33-.11-.5-.32-.5-.37,0-.79.29-1.25.86Z" fill="#131f2b"/>
        <path d="M116.86,39.52h-.44c.13-.71.2-1.28.2-1.72,0-.6-.11-1.09-.34-1.46-.25-.43-.55-.72-.9-.89-.35-.17-.78-.25-1.3-.25-1.04,0-2.02.43-2.94,1.3-.92.87-1.65,2.03-2.2,3.48-.55,1.45-.82,3-.82,4.64,0,1.35.23,2.35.69,3,.46.65,1.1.98,1.93.98.45,0,.91-.1,1.38-.31.47-.21.87-.49,1.22-.85.35-.39.65-.81.91-1.27.26-.46.56-1.09.89-1.89h.44c-.63,2.31-1.02,3.91-1.18,4.8h-.44c.04-.28.06-.51.06-.68,0-.35-.09-.52-.26-.52-.11,0-.24.06-.4.18-1.24.87-2.57,1.3-4,1.3-1.99,0-3.46-.44-4.41-1.32s-1.43-2.15-1.43-3.8.44-3.14,1.32-4.62,2.1-2.68,3.65-3.6,3.28-1.38,5.17-1.38c.73,0,1.32.12,1.77.35s.84.55,1.19.95c.11.12.2.18.28.18.27,0,.54-.4.82-1.2h.42c-.44,1.15-.87,2.68-1.28,4.6Z" fill="#131f2b"/>
        <path d="M127.58,45.84h.38l-.5,1.46c-.48,1.37-1.43,2.06-2.86,2.06-.72,0-1.25-.17-1.59-.51-.34-.34-.51-.8-.51-1.39,0-.47.09-.98.28-1.54l1.72-5.18c.11-.31.16-.57.16-.78,0-.2-.07-.3-.2-.3-.44,0-1.04.74-1.79,2.22-.75,1.48-1.45,3.21-2.09,5.2l-.54,1.86-.02.08v-.02l-.02.08h-3.54l3.96-13.34c.07-.24.1-.43.1-.56,0-.27-.1-.46-.31-.58-.21-.12-.56-.18-1.05-.18l.14-.42c1.05-.01,2.01-.09,2.86-.22.85-.13,1.69-.33,2.5-.6l-2.58,8.82c.64-1.37,1.27-2.31,1.89-2.82.62-.51,1.34-.76,2.17-.76,1.31,0,1.96.55,1.96,1.66,0,.36-.09.81-.26,1.36l-1.98,5.94c-.07.23-.1.39-.1.48,0,.24.11.36.34.36.39,0,.74-.42,1.06-1.26l.42-1.12Z" fill="#131f2b"/>
        <path d="M129.68,42.51c.52-1.17,1.3-2.14,2.35-2.92,1.05-.78,2.32-1.17,3.83-1.17,1.16,0,2.04.29,2.65.88.61.59.91,1.43.91,2.52s-.26,2.28-.78,3.45c-.52,1.17-1.3,2.14-2.35,2.92-1.05.78-2.32,1.17-3.83,1.17-1.16,0-2.04-.29-2.65-.88-.61-.59-.91-1.43-.91-2.52s.26-2.28.78-3.45ZM134.34,40.32c-.57,1-1.07,2.21-1.49,3.63-.42,1.42-.63,2.72-.63,3.89,0,.41.03.7.09.87.06.17.16.25.29.25.36,0,.82-.48,1.39-1.45.57-.97,1.06-2.15,1.48-3.55.42-1.4.63-2.73.63-3.98,0-.47-.03-.78-.09-.93s-.14-.23-.25-.23c-.37,0-.85.5-1.42,1.5Z" fill="#131f2b"/>
        <path d="M140.82,42.51c.52-1.17,1.3-2.14,2.35-2.92,1.05-.78,2.32-1.17,3.83-1.17,1.16,0,2.04.29,2.65.88.61.59.91,1.43.91,2.52s-.26,2.28-.78,3.45c-.52,1.17-1.3,2.14-2.35,2.92-1.05.78-2.32,1.17-3.83,1.17-1.16,0-2.04-.29-2.65-.88-.61-.59-.91-1.43-.91-2.52s.26-2.28.78-3.45ZM145.48,40.32c-.57,1-1.07,2.21-1.49,3.63s-.63,2.72-.63,3.89c0,.41.03.7.09.87.06.17.16.25.29.25.36,0,.82-.48,1.39-1.45.57-.97,1.06-2.15,1.48-3.55.42-1.4.63-2.73.63-3.98,0-.47-.03-.78-.09-.93-.06-.15-.14-.23-.25-.23-.37,0-.85.5-1.42,1.5Z" fill="#131f2b"/>
        <path d="M153.44,48.94c.41,0,.76-.14,1.03-.41s.41-.64.41-1.11c0-.43-.1-.88-.3-1.35-.2-.47-.49-1.02-.86-1.63-.44-.71-.75-1.26-.93-1.66-.18-.4-.27-.85-.27-1.34,0-.89.34-1.62,1.02-2.18.68-.56,1.67-.84,2.96-.84.99,0,1.81.18,2.46.53.65.35.98.94.98,1.77,0,.45-.13.86-.38,1.23-.25.37-.6.55-1.04.55-.4,0-.71-.16-.94-.47s-.34-.72-.34-1.21c0-.39.06-.75.19-1.09.13-.34.28-.6.45-.79-.11-.05-.27-.08-.5-.08-.47,0-.82.14-1.06.41-.24.27-.36.67-.36,1.19,0,.33.07.66.22.97.15.31.39.75.72,1.31l.24.4c.44.76.75,1.38.93,1.85.18.47.27.93.27,1.37,0,.56-.15,1.07-.46,1.52-.31.45-.76.81-1.36,1.08s-1.33.4-2.18.4c-1.08,0-1.97-.2-2.66-.59-.69-.39-1.04-1.05-1.04-1.97,0-.51.12-.93.37-1.27.25-.34.58-.51.99-.51.39,0,.7.16.94.48s.36.75.36,1.28c0,.37-.05.71-.15,1-.1.29-.24.63-.41,1.02.2.09.43.14.7.14Z" fill="#131f2b"/>
        <path d="M168.17,43.11c-1.25.83-2.73,1.45-4.45,1.85-.04.36-.06.7-.06,1.02,0,.73.14,1.24.42,1.52.28.28.69.42,1.24.42.33,0,.76-.11,1.29-.34s1.03-.58,1.51-1.06l.32.16c-.51.76-1.19,1.4-2.06,1.91-.87.51-1.87.77-3,.77-.99,0-1.81-.25-2.47-.74s-.99-1.19-.99-2.08c0-1.31.34-2.59,1.01-3.85.67-1.26,1.59-2.29,2.76-3.08,1.17-.79,2.46-1.19,3.87-1.19.75,0,1.35.15,1.8.45s.68.74.68,1.31c0,1.12-.62,2.1-1.87,2.93ZM165.87,39.66c-.46.57-.88,1.31-1.27,2.22-.39.91-.66,1.81-.82,2.72.71-.41,1.32-.87,1.84-1.36.56-.55,1-1.15,1.33-1.82.33-.67.49-1.37.49-2.12,0-.33-.11-.5-.32-.5-.37,0-.79.29-1.25.86Z" fill="#131f2b"/>
        <path d="M185.46,45.84h.38l-.5,1.46c-.48,1.37-1.43,2.06-2.86,2.06-.81,0-1.39-.23-1.74-.7-.23-.33-.34-.74-.34-1.22,0-.15,0-.26.02-.34-.32.81-.73,1.39-1.24,1.74s-1.11.52-1.8.52c-.83,0-1.45-.21-1.86-.64-.41-.43-.62-1.05-.62-1.86,0-1.25.34-2.54,1.01-3.86.67-1.32,1.51-2.41,2.52-3.28s1.97-1.3,2.89-1.3c.76,0,1.17.38,1.24,1.14l.26-.84c1.29-.01,2.5-.11,3.62-.3l-2.7,8.96c-.05.17-.08.33-.08.48,0,.24.11.36.32.36.39,0,.74-.42,1.06-1.26l.42-1.12ZM179.96,47.36c.28-.43.6-1.19.96-2.3l1.44-4.8c.01-.07.02-.17.02-.3,0-.37-.13-.56-.38-.56-.37,0-.83.39-1.37,1.16-.54.77-1,1.75-1.39,2.92-.39,1.17-.58,2.33-.58,3.46,0,.39.03.66.1.82s.19.24.36.24c.28,0,.56-.21.84-.64Z" fill="#131f2b"/>
        <path d="M205.76,46.66h.46l-.08.26c-.27.84-.68,1.46-1.23,1.85-.55.39-1.31.59-2.27.59s-1.68-.18-2.16-.54c-.48-.36-.72-.87-.72-1.54,0-.11.01-.28.04-.52l.38-2.28c.04-.24.06-.46.06-.66,0-.49-.14-.87-.43-1.13-.29-.26-.79-.41-1.51-.45l-1.24,4.72c-.01.07-.05.21-.11.44-.06.23-.09.41-.09.54,0,.24.1.42.3.53.2.11.55.18,1.06.21l-.08.4c-.92-.04-2.11-.06-3.56-.06-1.68,0-2.92.02-3.72.06l.08-.4c.48-.03.84-.08,1.08-.16.24-.08.43-.23.57-.46.14-.23.28-.59.41-1.1l2.62-9.92c.12-.45.18-.77.18-.94,0-.25-.1-.44-.29-.56-.19-.12-.54-.19-1.05-.22l.1-.4c.77.04,1.91.06,3.4.06l1.92-.02c.28-.01.66-.02,1.14-.02,1.84,0,3.18.21,4.03.64.85.43,1.27,1.13,1.27,2.12,0,1.21-.56,2.21-1.69,2.99-1.13.78-2.66,1.26-4.61,1.43,1.33.08,2.36.28,3.09.61.73.33,1.09.89,1.09,1.69,0,.11-.01.27-.04.48l-.34,2.08c-.03.24-.04.39-.04.46,0,.52.21.78.64.78.28,0,.52-.11.71-.32.19-.21.37-.53.53-.96l.1-.28ZM200.25,35.54c-.15.15-.28.42-.39.82l-1.46,5.54c.64-.03,1.26-.21,1.85-.56.59-.35,1.08-.86,1.47-1.55.39-.69.58-1.52.58-2.51,0-1.31-.47-1.96-1.4-1.96-.28,0-.5.07-.65.22Z" fill="#131f2b"/>
        <path d="M207.56,42.51c.52-1.17,1.3-2.14,2.35-2.92,1.05-.78,2.32-1.17,3.83-1.17,1.16,0,2.04.29,2.65.88.61.59.91,1.43.91,2.52s-.26,2.28-.78,3.45c-.52,1.17-1.3,2.14-2.35,2.92-1.05.78-2.32,1.17-3.83,1.17-1.16,0-2.04-.29-2.65-.88-.61-.59-.91-1.43-.91-2.52s.26-2.28.78-3.45ZM212.22,40.32c-.57,1-1.07,2.21-1.49,3.63s-.63,2.72-.63,3.89c0,.41.03.7.09.87.06.17.16.25.29.25.36,0,.82-.48,1.39-1.45.57-.97,1.06-2.15,1.48-3.55.42-1.4.63-2.73.63-3.98,0-.47-.03-.78-.09-.93-.06-.15-.14-.23-.25-.23-.37,0-.85.5-1.42,1.5Z" fill="#131f2b"/>
        <path d="M218.7,42.51c.52-1.17,1.3-2.14,2.35-2.92,1.05-.78,2.32-1.17,3.83-1.17,1.16,0,2.04.29,2.65.88.61.59.91,1.43.91,2.52s-.26,2.28-.78,3.45c-.52,1.17-1.3,2.14-2.35,2.92-1.05.78-2.32,1.17-3.83,1.17-1.16,0-2.04-.29-2.65-.88-.61-.59-.91-1.43-.91-2.52s.26-2.28.78-3.45ZM223.36,40.32c-.57,1-1.07,2.21-1.49,3.63s-.63,2.72-.63,3.89c0,.41.03.7.09.87.06.17.16.25.29.25.36,0,.82-.48,1.39-1.45.57-.97,1.06-2.15,1.48-3.55.42-1.4.63-2.73.63-3.98,0-.47-.03-.78-.09-.93-.06-.15-.14-.23-.25-.23-.37,0-.85.5-1.42,1.5Z" fill="#131f2b"/>
        <path d="M245.46,45.84h.38l-.5,1.46c-.48,1.37-1.43,2.06-2.86,2.06-.89,0-1.51-.28-1.86-.84-.17-.31-.26-.65-.26-1.04,0-.44.1-.96.3-1.56l1.72-5.18c.09-.27.14-.48.14-.64s-.05-.24-.16-.24c-.41,0-.93.5-1.56,1.5-.63,1-1.29,2.63-2,4.88l-.82,2.84h-3.56l2.4-8.34c.03-.08.06-.19.1-.34.04-.15.06-.26.06-.34,0-.13-.07-.2-.2-.2-.48,0-1.02.54-1.61,1.63-.59,1.09-1.21,2.61-1.85,4.57l-.78,3.02h-3.54l2.44-8.68c.05-.2.08-.37.08-.5,0-.12-.02-.21-.07-.26s-.12-.08-.23-.08c-.39,0-.74.42-1.06,1.26l-.46,1.22h-.38l.56-1.56c.25-.71.63-1.23,1.14-1.56.51-.33,1.09-.5,1.74-.5.69,0,1.19.17,1.5.5.31.33.46.77.46,1.32,0,.25-.05.58-.14.98l-.24.9c.57-1.31,1.2-2.25,1.88-2.83.68-.58,1.49-.87,2.44-.87,1.17,0,1.76.53,1.76,1.6,0,.4-.08.87-.24,1.42l-.1.38c.59-1.28,1.21-2.17,1.87-2.66s1.41-.74,2.25-.74c1.2,0,1.8.53,1.8,1.58,0,.4-.09.88-.28,1.44l-1.98,5.94c-.07.23-.1.39-.1.48,0,.24.11.36.34.36.39,0,.74-.42,1.06-1.26l.42-1.12Z" fill="#131f2b"/>
      </g>
      <g>
        <path d="M41.56,45.96c-.09.35-.14.61-.14.8,0,.29.1.51.3.66.2.15.54.23,1.02.26l-.08.4c-.92-.04-2.08-.06-3.48-.06-1.73,0-3,.02-3.8.06l.08-.4c.48-.03.84-.08,1.08-.16.24-.08.43-.23.57-.46s.28-.59.41-1.1l2.64-9.92c.09-.44.14-.75.14-.92,0-.27-.09-.46-.28-.58-.19-.12-.53-.19-1.04-.22l.1-.4c.77.04,1.99.06,3.66.06.64,0,1.12,0,1.44-.02l1.48-.02c1.76,0,3.06.25,3.91.74s1.27,1.25,1.27,2.28-.35,1.93-1.05,2.74c-.7.81-1.68,1.46-2.94,1.93-1.26.47-2.71.73-4.35.77l-.94,3.56ZM42.62,41.98c.93-.07,1.7-.39,2.3-.97.6-.58,1.03-1.28,1.3-2.11.27-.83.4-1.65.4-2.48,0-.69-.12-1.22-.37-1.57-.25-.35-.64-.53-1.17-.53-.21,0-.36.06-.44.19-.08.13-.17.4-.26.83-.03.09-.05.2-.08.32-.03.12-.06.25-.1.38l-1.58,5.94Z" fill="#ded9c3"/>
        <path d="M53.24,46.76c0,.16.04.28.11.35.07.07.16.11.27.11.13,0,.29-.08.47-.25.18-.17.36-.5.55-1.01l.42-1.12h.38l-.5,1.46c-.27.77-.66,1.31-1.18,1.61s-1.07.45-1.66.45c-.67,0-1.19-.17-1.56-.52-.37-.35-.56-.85-.56-1.5,0-.41.08-.89.24-1.42l3.06-10.18c.07-.24.1-.43.1-.56,0-.27-.1-.46-.31-.58s-.56-.18-1.05-.18l.14-.42c1.05-.01,2.01-.09,2.86-.22.85-.13,1.69-.33,2.5-.6l-4.22,14.2c-.04.13-.06.26-.06.38Z" fill="#ded9c3"/>
        <path d="M64.43,42.11c-1.25.83-2.73,1.45-4.45,1.85-.04.36-.06.7-.06,1.02,0,.73.14,1.24.42,1.52.28.28.69.42,1.24.42.33,0,.76-.11,1.29-.34s1.03-.58,1.51-1.06l.32.16c-.51.76-1.19,1.4-2.06,1.91-.87.51-1.87.77-3,.77-.99,0-1.81-.25-2.47-.74-.66-.49-.99-1.19-.99-2.08,0-1.31.34-2.59,1.01-3.85.67-1.26,1.59-2.29,2.76-3.08,1.17-.79,2.46-1.19,3.87-1.19.75,0,1.35.15,1.8.45s.68.74.68,1.31c0,1.12-.62,2.1-1.87,2.93ZM62.13,38.66c-.46.57-.88,1.31-1.27,2.22-.39.91-.66,1.81-.82,2.72.71-.41,1.32-.87,1.84-1.36.56-.55,1-1.15,1.33-1.82.33-.67.49-1.37.49-2.12,0-.33-.11-.5-.32-.5-.37,0-.79.29-1.25.86Z" fill="#ded9c3"/>
        <path d="M76.58,44.84h.38l-.5,1.46c-.48,1.37-1.43,2.06-2.86,2.06-.81,0-1.39-.23-1.74-.7-.23-.33-.34-.74-.34-1.22,0-.15,0-.26.02-.34-.32.81-.73,1.39-1.24,1.74-.51.35-1.11.52-1.8.52-.83,0-1.45-.21-1.86-.64-.41-.43-.62-1.05-.62-1.86,0-1.25.34-2.54,1.01-3.86.67-1.32,1.51-2.41,2.52-3.28,1.01-.87,1.97-1.3,2.89-1.3.76,0,1.17.38,1.24,1.14l.26-.84c1.29-.01,2.5-.11,3.62-.3l-2.7,8.96c-.05.17-.08.33-.08.48,0,.24.11.36.32.36.39,0,.74-.42,1.06-1.26l.42-1.12ZM71.08,46.36c.28-.43.6-1.19.96-2.3l1.44-4.8c.01-.07.02-.17.02-.3,0-.37-.13-.56-.38-.56-.37,0-.83.39-1.37,1.16-.54.77-1,1.75-1.39,2.92-.39,1.17-.58,2.33-.58,3.46,0,.39.03.66.1.82.07.16.19.24.36.24.28,0,.56-.21.84-.64Z" fill="#ded9c3"/>
        <path d="M80.18,47.94c.41,0,.76-.14,1.03-.41.27-.27.41-.64.41-1.11,0-.43-.1-.88-.3-1.35s-.49-1.02-.86-1.63c-.44-.71-.75-1.26-.93-1.66-.18-.4-.27-.85-.27-1.34,0-.89.34-1.62,1.02-2.18s1.67-.84,2.96-.84c.99,0,1.81.18,2.46.53.65.35.98.94.98,1.77,0,.45-.13.86-.38,1.23-.25.37-.6.55-1.04.55-.4,0-.71-.16-.94-.47-.23-.31-.34-.72-.34-1.21,0-.39.06-.75.19-1.09.13-.34.28-.6.45-.79-.11-.05-.27-.08-.5-.08-.47,0-.82.14-1.06.41-.24.27-.36.67-.36,1.19,0,.33.07.66.22.97.15.31.39.75.72,1.31l.24.4c.44.76.75,1.38.93,1.85.18.47.27.93.27,1.37,0,.56-.15,1.07-.46,1.52-.31.45-.76.81-1.36,1.08s-1.33.4-2.18.4c-1.08,0-1.97-.2-2.66-.59-.69-.39-1.04-1.05-1.04-1.97,0-.51.12-.93.37-1.27s.58-.51.99-.51c.39,0,.7.16.94.48.24.32.36.75.36,1.28,0,.37-.05.71-.15,1-.1.29-.24.63-.41,1.02.2.09.43.14.7.14Z" fill="#ded9c3"/>
        <path d="M94.91,42.11c-1.25.83-2.73,1.45-4.45,1.85-.04.36-.06.7-.06,1.02,0,.73.14,1.24.42,1.52.28.28.69.42,1.24.42.33,0,.76-.11,1.29-.34s1.03-.58,1.51-1.06l.32.16c-.51.76-1.19,1.4-2.06,1.91-.87.51-1.87.77-3,.77-.99,0-1.81-.25-2.47-.74-.66-.49-.99-1.19-.99-2.08,0-1.31.34-2.59,1.01-3.85.67-1.26,1.59-2.29,2.76-3.08,1.17-.79,2.46-1.19,3.87-1.19.75,0,1.35.15,1.8.45s.68.74.68,1.31c0,1.12-.62,2.1-1.87,2.93ZM92.61,38.66c-.46.57-.88,1.31-1.27,2.22-.39.91-.66,1.81-.82,2.72.71-.41,1.32-.87,1.84-1.36.56-.55,1-1.15,1.33-1.82.33-.67.49-1.37.49-2.12,0-.33-.11-.5-.32-.5-.37,0-.79.29-1.25.86Z" fill="#ded9c3"/>
        <path d="M115.86,38.52h-.44c.13-.71.2-1.28.2-1.72,0-.6-.11-1.09-.34-1.46-.25-.43-.55-.72-.9-.89-.35-.17-.78-.25-1.3-.25-1.04,0-2.02.43-2.94,1.3-.92.87-1.65,2.03-2.2,3.48-.55,1.45-.82,3-.82,4.64,0,1.35.23,2.35.69,3,.46.65,1.1.98,1.93.98.45,0,.91-.1,1.38-.31.47-.21.87-.49,1.22-.85.35-.39.65-.81.91-1.27.26-.46.56-1.09.89-1.89h.44c-.63,2.31-1.02,3.91-1.18,4.8h-.44c.04-.28.06-.51.06-.68,0-.35-.09-.52-.26-.52-.11,0-.24.06-.4.18-1.24.87-2.57,1.3-4,1.3-1.99,0-3.46-.44-4.41-1.32s-1.43-2.15-1.43-3.8.44-3.14,1.32-4.62,2.1-2.68,3.65-3.6,3.28-1.38,5.17-1.38c.73,0,1.32.12,1.77.35s.84.55,1.19.95c.11.12.2.18.28.18.27,0,.54-.4.82-1.2h.42c-.44,1.15-.87,2.68-1.28,4.6Z" fill="#ded9c3"/>
        <path d="M126.58,44.84h.38l-.5,1.46c-.48,1.37-1.43,2.06-2.86,2.06-.72,0-1.25-.17-1.59-.51-.34-.34-.51-.8-.51-1.39,0-.47.09-.98.28-1.54l1.72-5.18c.11-.31.16-.57.16-.78,0-.2-.07-.3-.2-.3-.44,0-1.04.74-1.79,2.22-.75,1.48-1.45,3.21-2.09,5.2l-.54,1.86-.02.08v-.02l-.02.08h-3.54l3.96-13.34c.07-.24.1-.43.1-.56,0-.27-.1-.46-.31-.58-.21-.12-.56-.18-1.05-.18l.14-.42c1.05-.01,2.01-.09,2.86-.22.85-.13,1.69-.33,2.5-.6l-2.58,8.82c.64-1.37,1.27-2.31,1.89-2.82.62-.51,1.34-.76,2.17-.76,1.31,0,1.96.55,1.96,1.66,0,.36-.09.81-.26,1.36l-1.98,5.94c-.07.23-.1.39-.1.48,0,.24.11.36.34.36.39,0,.74-.42,1.06-1.26l.42-1.12Z" fill="#ded9c3"/>
        <path d="M128.68,41.51c.52-1.17,1.3-2.14,2.35-2.92,1.05-.78,2.32-1.17,3.83-1.17,1.16,0,2.04.29,2.65.88.61.59.91,1.43.91,2.52s-.26,2.28-.78,3.45c-.52,1.17-1.3,2.14-2.35,2.92-1.05.78-2.32,1.17-3.83,1.17-1.16,0-2.04-.29-2.65-.88-.61-.59-.91-1.43-.91-2.52s.26-2.28.78-3.45ZM133.34,39.32c-.57,1-1.07,2.21-1.49,3.63-.42,1.42-.63,2.72-.63,3.89,0,.41.03.7.09.87.06.17.16.25.29.25.36,0,.82-.48,1.39-1.45.57-.97,1.06-2.15,1.48-3.55.42-1.4.63-2.73.63-3.98,0-.47-.03-.78-.09-.93s-.14-.23-.25-.23c-.37,0-.85.5-1.42,1.5Z" fill="#ded9c3"/>
        <path d="M139.82,41.51c.52-1.17,1.3-2.14,2.35-2.92,1.05-.78,2.32-1.17,3.83-1.17,1.16,0,2.04.29,2.65.88.61.59.91,1.43.91,2.52s-.26,2.28-.78,3.45c-.52,1.17-1.3,2.14-2.35,2.92-1.05.78-2.32,1.17-3.83,1.17-1.16,0-2.04-.29-2.65-.88-.61-.59-.91-1.43-.91-2.52s.26-2.28.78-3.45ZM144.48,39.32c-.57,1-1.07,2.21-1.49,3.63s-.63,2.72-.63,3.89c0,.41.03.7.09.87.06.17.16.25.29.25.36,0,.82-.48,1.39-1.45.57-.97,1.06-2.15,1.48-3.55.42-1.4.63-2.73.63-3.98,0-.47-.03-.78-.09-.93-.06-.15-.14-.23-.25-.23-.37,0-.85.5-1.42,1.5Z" fill="#ded9c3"/>
        <path d="M152.44,47.94c.41,0,.76-.14,1.03-.41s.41-.64.41-1.11c0-.43-.1-.88-.3-1.35-.2-.47-.49-1.02-.86-1.63-.44-.71-.75-1.26-.93-1.66-.18-.4-.27-.85-.27-1.34,0-.89.34-1.62,1.02-2.18.68-.56,1.67-.84,2.96-.84.99,0,1.81.18,2.46.53.65.35.98.94.98,1.77,0,.45-.13.86-.38,1.23-.25.37-.6.55-1.04.55-.4,0-.71-.16-.94-.47s-.34-.72-.34-1.21c0-.39.06-.75.19-1.09.13-.34.28-.6.45-.79-.11-.05-.27-.08-.5-.08-.47,0-.82.14-1.06.41-.24.27-.36.67-.36,1.19,0,.33.07.66.22.97.15.31.39.75.72,1.31l.24.4c.44.76.75,1.38.93,1.85.18.47.27.93.27,1.37,0,.56-.15,1.07-.46,1.52-.31.45-.76.81-1.36,1.08s-1.33.4-2.18.4c-1.08,0-1.97-.2-2.66-.59-.69-.39-1.04-1.05-1.04-1.97,0-.51.12-.93.37-1.27.25-.34.58-.51.99-.51.39,0,.7.16.94.48s.36.75.36,1.28c0,.37-.05.71-.15,1-.1.29-.24.63-.41,1.02.2.09.43.14.7.14Z" fill="#ded9c3"/>
        <path d="M167.17,42.11c-1.25.83-2.73,1.45-4.45,1.85-.04.36-.06.7-.06,1.02,0,.73.14,1.24.42,1.52.28.28.69.42,1.24.42.33,0,.76-.11,1.29-.34s1.03-.58,1.51-1.06l.32.16c-.51.76-1.19,1.4-2.06,1.91-.87.51-1.87.77-3,.77-.99,0-1.81-.25-2.47-.74s-.99-1.19-.99-2.08c0-1.31.34-2.59,1.01-3.85.67-1.26,1.59-2.29,2.76-3.08,1.17-.79,2.46-1.19,3.87-1.19.75,0,1.35.15,1.8.45s.68.74.68,1.31c0,1.12-.62,2.1-1.87,2.93ZM164.87,38.66c-.46.57-.88,1.31-1.27,2.22-.39.91-.66,1.81-.82,2.72.71-.41,1.32-.87,1.84-1.36.56-.55,1-1.15,1.33-1.82.33-.67.49-1.37.49-2.12,0-.33-.11-.5-.32-.5-.37,0-.79.29-1.25.86Z" fill="#ded9c3"/>
        <path d="M184.46,44.84h.38l-.5,1.46c-.48,1.37-1.43,2.06-2.86,2.06-.81,0-1.39-.23-1.74-.7-.23-.33-.34-.74-.34-1.22,0-.15,0-.26.02-.34-.32.81-.73,1.39-1.24,1.74s-1.11.52-1.8.52c-.83,0-1.45-.21-1.86-.64-.41-.43-.62-1.05-.62-1.86,0-1.25.34-2.54,1.01-3.86.67-1.32,1.51-2.41,2.52-3.28s1.97-1.3,2.89-1.3c.76,0,1.17.38,1.24,1.14l.26-.84c1.29-.01,2.5-.11,3.62-.3l-2.7,8.96c-.05.17-.08.33-.08.48,0,.24.11.36.32.36.39,0,.74-.42,1.06-1.26l.42-1.12ZM178.96,46.36c.28-.43.6-1.19.96-2.3l1.44-4.8c.01-.07.02-.17.02-.3,0-.37-.13-.56-.38-.56-.37,0-.83.39-1.37,1.16-.54.77-1,1.75-1.39,2.92-.39,1.17-.58,2.33-.58,3.46,0,.39.03.66.1.82s.19.24.36.24c.28,0,.56-.21.84-.64Z" fill="#ded9c3"/>
        <path d="M204.76,45.66h.46l-.08.26c-.27.84-.68,1.46-1.23,1.85-.55.39-1.31.59-2.27.59s-1.68-.18-2.16-.54c-.48-.36-.72-.87-.72-1.54,0-.11.01-.28.04-.52l.38-2.28c.04-.24.06-.46.06-.66,0-.49-.14-.87-.43-1.13-.29-.26-.79-.41-1.51-.45l-1.24,4.72c-.01.07-.05.21-.11.44-.06.23-.09.41-.09.54,0,.24.1.42.3.53.2.11.55.18,1.06.21l-.08.4c-.92-.04-2.11-.06-3.56-.06-1.68,0-2.92.02-3.72.06l.08-.4c.48-.03.84-.08,1.08-.16.24-.08.43-.23.57-.46.14-.23.28-.59.41-1.1l2.62-9.92c.12-.45.18-.77.18-.94,0-.25-.1-.44-.29-.56-.19-.12-.54-.19-1.05-.22l.1-.4c.77.04,1.91.06,3.4.06l1.92-.02c.28-.01.66-.02,1.14-.02,1.84,0,3.18.21,4.03.64.85.43,1.27,1.13,1.27,2.12,0,1.21-.56,2.21-1.69,2.99-1.13.78-2.66,1.26-4.61,1.43,1.33.08,2.36.28,3.09.61.73.33,1.09.89,1.09,1.69,0,.11-.01.27-.04.48l-.34,2.08c-.03.24-.04.39-.04.46,0,.52.21.78.64.78.28,0,.52-.11.71-.32.19-.21.37-.53.53-.96l.1-.28ZM199.25,34.54c-.15.15-.28.42-.39.82l-1.46,5.54c.64-.03,1.26-.21,1.85-.56.59-.35,1.08-.86,1.47-1.55.39-.69.58-1.52.58-2.51,0-1.31-.47-1.96-1.4-1.96-.28,0-.5.07-.65.22Z" fill="#ded9c3"/>
        <path d="M206.56,41.51c.52-1.17,1.3-2.14,2.35-2.92,1.05-.78,2.32-1.17,3.83-1.17,1.16,0,2.04.29,2.65.88.61.59.91,1.43.91,2.52s-.26,2.28-.78,3.45c-.52,1.17-1.3,2.14-2.35,2.92-1.05.78-2.32,1.17-3.83,1.17-1.16,0-2.04-.29-2.65-.88-.61-.59-.91-1.43-.91-2.52s.26-2.28.78-3.45ZM211.22,39.32c-.57,1-1.07,2.21-1.49,3.63s-.63,2.72-.63,3.89c0,.41.03.7.09.87.06.17.16.25.29.25.36,0,.82-.48,1.39-1.45.57-.97,1.06-2.15,1.48-3.55.42-1.4.63-2.73.63-3.98,0-.47-.03-.78-.09-.93-.06-.15-.14-.23-.25-.23-.37,0-.85.5-1.42,1.5Z" fill="#ded9c3"/>
        <path d="M217.7,41.51c.52-1.17,1.3-2.14,2.35-2.92,1.05-.78,2.32-1.17,3.83-1.17,1.16,0,2.04.29,2.65.88.61.59.91,1.43.91,2.52s-.26,2.28-.78,3.45c-.52,1.17-1.3,2.14-2.35,2.92-1.05.78-2.32,1.17-3.83,1.17-1.16,0-2.04-.29-2.65-.88-.61-.59-.91-1.43-.91-2.52s.26-2.28.78-3.45ZM222.36,39.32c-.57,1-1.07,2.21-1.49,3.63s-.63,2.72-.63,3.89c0,.41.03.7.09.87.06.17.16.25.29.25.36,0,.82-.48,1.39-1.45.57-.97,1.06-2.15,1.48-3.55.42-1.4.63-2.73.63-3.98,0-.47-.03-.78-.09-.93-.06-.15-.14-.23-.25-.23-.37,0-.85.5-1.42,1.5Z" fill="#ded9c3"/>
        <path d="M244.46,44.84h.38l-.5,1.46c-.48,1.37-1.43,2.06-2.86,2.06-.89,0-1.51-.28-1.86-.84-.17-.31-.26-.65-.26-1.04,0-.44.1-.96.3-1.56l1.72-5.18c.09-.27.14-.48.14-.64s-.05-.24-.16-.24c-.41,0-.93.5-1.56,1.5-.63,1-1.29,2.63-2,4.88l-.82,2.84h-3.56l2.4-8.34c.03-.08.06-.19.1-.34.04-.15.06-.26.06-.34,0-.13-.07-.2-.2-.2-.48,0-1.02.54-1.61,1.63-.59,1.09-1.21,2.61-1.85,4.57l-.78,3.02h-3.54l2.44-8.68c.05-.2.08-.37.08-.5,0-.12-.02-.21-.07-.26s-.12-.08-.23-.08c-.39,0-.74.42-1.06,1.26l-.46,1.22h-.38l.56-1.56c.25-.71.63-1.23,1.14-1.56.51-.33,1.09-.5,1.74-.5.69,0,1.19.17,1.5.5.31.33.46.77.46,1.32,0,.25-.05.58-.14.98l-.24.9c.57-1.31,1.2-2.25,1.88-2.83.68-.58,1.49-.87,2.44-.87,1.17,0,1.76.53,1.76,1.6,0,.4-.08.87-.24,1.42l-.1.38c.59-1.28,1.21-2.17,1.87-2.66s1.41-.74,2.25-.74c1.2,0,1.8.53,1.8,1.58,0,.4-.09.88-.28,1.44l-1.98,5.94c-.07.23-.1.39-.1.48,0,.24.11.36.34.36.39,0,.74-.42,1.06-1.26l.42-1.12Z" fill="#ded9c3"/>
      </g>
    </g>
  </g>
</svg>