<?xml version="1.0" encoding="UTF-8"?>
<svg id="_レイヤー_2" xmlns="http://www.w3.org/2000/svg" width="257.59" height="64.56" version="1.1" viewBox="0 0 257.59 64.56">
  <!-- Generator: Adobe Illustrator 29.4.0, SVG Export Plug-In . SVG Version: 2.1.0 Build 152)  -->
  <g>
    <rect x=".96" y=".97" width="255.67" height="62.63" rx="4.1" ry="4.1" fill="#212a37"/>
    <path d="M252.53,64.1H5.06c-2.54,0-4.6-2.06-4.6-4.6V5.07c0-2.54,2.06-4.6,4.6-4.6h247.47c2.54,0,4.6,2.06,4.6,4.6v54.43c0,2.54-2.06,4.6-4.6,4.6ZM5.06,1.47c-1.99,0-3.6,1.62-3.6,3.6v54.43c0,1.98,1.61,3.6,3.6,3.6h247.47c1.99,0,3.6-1.62,3.6-3.6V5.07c0-1.98-1.62-3.6-3.6-3.6,0,0-247.47,0-247.47,0Z" fill="#414e5b"/>
  </g>
  <g>
    <path d="M240.01,9.24c-.04-.14-.17-.21-.31-.21H60.94v.02H17.68c-.14,0-.26.09-.31.21-1.21,3.87-4.26,6.92-8.13,8.13-.14.04-.21.17-.21.31v29.22c0,.14.09.26.21.31,3.87,1.21,6.92,4.26,8.13,8.13.04.14.17.21.31.21h178.76v-.02h43.26c.14,0,.26-.09.31-.21,1.21-3.87,4.26-6.92,8.13-8.13.14-.04.21-.17.21-.31v-29.22c0-.14-.09-.26-.21-.31-3.87-1.21-6.92-4.26-8.13-8.13h0ZM247.74,46.67c-3.89,1.28-6.97,4.35-8.25,8.23H60.95v.02H17.92c-1.28-3.89-4.36-6.96-8.25-8.25v-28.78c3.89-1.28,6.97-4.35,8.25-8.23h178.53v-.02h43.04c1.28,3.89,4.36,6.96,8.25,8.25v28.78h0Z" fill="#c0b68a"/>
    <path d="M252.09,14.19c-.08-.08-.19-.12-.31-.12-2.34,0-4.45-.94-6-2.49s-2.49-3.64-2.49-6c0-.11-.04-.23-.12-.31s-.19-.12-.31-.12H14.51c-.11,0-.23.04-.31.12s-.12.19-.12.31c0,2.34-.94,4.45-2.49,6s-3.64,2.49-6,2.49c-.11,0-.23.04-.31.12s-.12.19-.12.31v35.58c0,.11.04.23.12.31s.19.12.31.12c2.34,0,4.45.94,6,2.49s2.49,3.64,2.49,6c0,.11.04.23.12.31s.19.12.31.12h228.37c.11,0,.23-.04.31-.12s.12-.19.12-.31c0-2.34.94-4.45,2.49-6s3.64-2.49,6-2.49c.11,0,.23-.04.31-.12s.12-.19.12-.31V14.49c0-.11-.04-.23-.12-.31h-.02,0ZM251.36,49.65c-2.41.11-4.58,1.13-6.16,2.73-1.6,1.59-2.63,3.76-2.73,6.16H14.93c-.11-2.41-1.13-4.58-2.73-6.16-1.59-1.59-3.76-2.61-6.16-2.73V14.92c2.41-.11,4.58-1.13,6.16-2.73,1.6-1.59,2.63-3.76,2.73-6.16h227.55c.11,2.41,1.13,4.58,2.73,6.16,1.59,1.59,3.76,2.61,6.16,2.73v34.72h-.01Z" fill="#c0b68a"/>
  </g>
  <g>
    <g>
      <circle cx="7.75" cy="8.15" r="1.98" fill="#c0b68a"/>
      <circle cx="7.75" cy="56.43" r="1.98" fill="#c0b68a"/>
    </g>
    <g>
      <circle cx="249.85" cy="8.15" r="1.98" fill="#c0b68a"/>
      <circle cx="249.85" cy="56.43" r="1.98" fill="#c0b68a"/>
    </g>
  </g>
  <g>
    <path d="M83.82,38.97c0,.08-.01.11-.04.11-.43,0-.78,0-1.03-.02l-1.41-.02-1.43.02c-.24.01-.57.02-.99.02-.04,0-.06-.04-.06-.11s.02-.12.06-.12c.54,0,.9-.06,1.09-.19.19-.13.29-.39.29-.8l-.02-.33-.4-7.82-3.94,9.23c-.03.05-.08.08-.15.08s-.13-.03-.15-.08l-4.84-9.19-.15,6.9c-.01.69.12,1.23.41,1.61s.69.58,1.21.58c.04,0,.06.04.06.12s-.02.11-.06.11c-.34,0-.61,0-.8-.02l-1.05-.02-1.2.02c-.2.01-.48.02-.82.02-.04,0-.06-.04-.06-.11s.02-.12.06-.12c.52,0,.94-.2,1.24-.59.31-.39.46-.93.48-1.6l.17-7.91-.02-.02c-.26-.47-.52-.82-.79-1.03s-.59-.32-.95-.32c-.04,0-.06-.04-.06-.12s.02-.12.06-.12l.9.02c.18.01.41.02.69.02l1.01-.02c.11-.01.26-.02.44-.02.17,0,.29.06.38.17.09.11.25.39.5.82l4.17,7.82,3.63-8.33c.08-.18.16-.3.24-.37.08-.07.19-.11.33-.11.11,0,.25,0,.39.02.15.01.32.02.51.02l1.13-.02c.18-.01.43-.02.76-.02.04,0,.06.04.06.12s-.02.12-.06.12c-.6,0-1.03.12-1.3.36s-.39.62-.36,1.13l.46,8.68c.03.39.07.68.14.86.07.18.2.3.38.36.18.06.47.1.87.1.03,0,.04.04.04.12Z" fill="#131f2b"/>
    <path d="M86.7,38.79c-.59-.36-1.05-.85-1.37-1.47-.32-.62-.48-1.29-.48-2.02,0-.83.21-1.53.63-2.11.42-.58.96-1.01,1.61-1.3s1.32-.43,2.01-.43c.79,0,1.48.18,2.06.55.59.37,1.03.86,1.35,1.46.31.61.47,1.25.47,1.94,0,.76-.19,1.44-.57,2.04-.38.59-.9,1.05-1.54,1.39-.64.33-1.34.5-2.09.5-.79,0-1.48-.18-2.07-.54ZM90.48,38.19c.26-.49.39-1.19.39-2.11s-.11-1.66-.34-2.29c-.23-.64-.53-1.12-.9-1.44-.37-.33-.76-.49-1.19-.49-1.02,0-1.53.91-1.53,2.73,0,.85.11,1.61.32,2.26.22.66.51,1.17.88,1.53s.78.54,1.22.54c.5,0,.88-.25,1.14-.74Z" fill="#131f2b"/>
    <path d="M103.13,37.84s.07.03.1.1.03.1,0,.11l-2.64,1.28s-.06.02-.1.02c-.13,0-.24-.14-.33-.41-.1-.27-.15-.65-.16-1.12-.84.99-1.75,1.49-2.73,1.49-.7,0-1.25-.22-1.65-.66s-.6-1.02-.6-1.73v-2.81c0-.83-.2-1.24-.59-1.24-.14,0-.3.04-.48.13h-.02c-.05,0-.09-.03-.11-.1-.03-.07-.02-.11.02-.12l2.56-1.22.1-.02c.06,0,.13.03.2.09.07.06.1.11.1.16v4.22c0,1.38.53,2.06,1.59,2.06.28,0,.56-.06.85-.18s.54-.29.77-.51v-3.27c0-.83-.2-1.24-.59-1.24-.14,0-.31.04-.5.13h-.02s-.07-.03-.1-.1c-.03-.07-.02-.11.02-.12l2.56-1.22s.06-.02.1-.02c.06,0,.13.03.2.09.07.06.1.11.1.16v5.08c0,.43.04.74.12.92.08.18.22.27.41.27.18,0,.44-.07.78-.21h.04Z" fill="#131f2b"/>
    <path d="M113.03,38.97c0,.08-.02.11-.06.11-.33,0-.59,0-.78-.02l-1.15-.02-1.11.02c-.2.01-.47.02-.8.02-.04,0-.06-.04-.06-.11s.02-.12.06-.12c.4,0,.66-.09.8-.28.14-.18.21-.53.21-1.04v-2.75c0-.69-.12-1.2-.37-1.53-.25-.33-.64-.5-1.18-.5-.31,0-.62.06-.95.19-.33.13-.61.3-.85.52v4.07c0,.51.07.86.22,1.04.15.19.42.28.81.28.04,0,.06.04.06.12s-.02.11-.06.11c-.33,0-.59,0-.78-.02l-1.15-.02-1.13.02c-.19.01-.45.02-.78.02-.04,0-.06-.04-.06-.11s.02-.12.06-.12c.4,0,.66-.09.8-.28.14-.18.21-.53.21-1.04v-3.59c0-.39-.05-.69-.14-.87-.1-.18-.25-.28-.45-.28-.22,0-.52.09-.92.27h-.04s-.07-.03-.09-.1c-.02-.06-.02-.1,0-.12l2.66-1.3c.08-.03.12-.04.13-.04.14,0,.27.14.4.41s.2.65.23,1.12c.88-1.04,1.85-1.57,2.9-1.57.69,0,1.23.22,1.63.66s.6,1.02.6,1.73v3.67c0,.51.07.86.22,1.04.15.19.42.28.81.28.04,0,.06.04.06.12Z" fill="#131f2b"/>
    <path d="M119.48,37.74c.05,0,.09.03.12.08.03.05.03.09,0,.12-.47.47-.93.82-1.38,1.04-.45.22-.92.33-1.41.33-.56,0-1.04-.13-1.43-.4s-.59-.72-.59-1.36v-4.24c0-.39-.07-.67-.21-.82-.14-.15-.4-.23-.76-.23-.01,0-.03-.02-.05-.06s-.03-.08-.03-.11c0-.05,0-.09.02-.12.01-.03.03-.05.06-.05.65-.03,1.18-.17,1.58-.42.4-.25.71-.64.93-1.17.03-.05.08-.08.16-.08s.12.03.12.08v1.53c.74-.01,1.57-.07,2.48-.17.03,0,.05.05.09.14.03.1.05.2.05.32,0,.13-.02.25-.07.37-.04.12-.09.17-.14.16-.83-.18-1.63-.27-2.41-.29v4.53c0,.48.12.84.37,1.07.25.23.58.34.98.34.51,0,1.01-.19,1.49-.57l.04-.02Z" fill="#131f2b"/>
    <path d="M127.72,38.05c.05,0,.09.03.1.09.02.06,0,.1-.05.12l-1.97.94c-.05.03-.11.04-.19.04-.2,0-.4-.11-.58-.33-.19-.22-.32-.51-.39-.88l-.82.57c-.29.22-.57.37-.82.47s-.54.14-.86.14c-.55,0-.96-.12-1.24-.36-.28-.24-.42-.58-.42-1.01,0-.34.08-.62.25-.83.17-.21.37-.38.62-.5.25-.12.6-.26,1.04-.41l.48-.17,1.72-.63v-1.09c0-.82-.07-1.41-.2-1.78s-.36-.55-.68-.55c-.68,0-1.06.52-1.15,1.57-.04.38-.15.66-.33.82-.19.17-.44.25-.77.25s-.55-.07-.7-.2c-.15-.13-.22-.31-.22-.53,0-.38.22-.75.67-1.1.45-.35.98-.63,1.61-.85.63-.22,1.19-.33,1.67-.33.56,0,1.02.18,1.37.53.35.35.53.88.53,1.6v3.38c0,.37.07.66.2.86.13.2.32.31.56.31.18,0,.36-.04.55-.13h.02ZM124.61,37.71c-.01-.05-.02-.13-.02-.25v-1.83l-.82.38s-.17.06-.38.14c-.22.08-.4.22-.56.41-.16.19-.24.41-.24.67,0,.31.1.54.3.72.2.17.42.26.68.26.2,0,.41-.07.63-.21l.42-.29Z" fill="#131f2b"/>
    <path d="M128.45,38.97c0-.08.02-.12.06-.12.4,0,.66-.09.8-.28.14-.18.21-.53.21-1.04v-3.42c0-.43-.04-.75-.13-.94-.09-.19-.24-.29-.44-.29-.17,0-.4.07-.71.21h-.02c-.05,0-.09-.03-.11-.1-.03-.07-.02-.11.02-.12l2.89-1.34.06-.02c.06,0,.13.03.19.1.06.06.09.12.09.17v.42c-.03.51-.04,1.13-.04,1.87v3.46c0,.51.07.86.22,1.04.15.19.42.28.81.28.04,0,.06.04.06.12s-.02.11-.06.11c-.33,0-.59,0-.78-.02l-1.15-.02-1.13.02c-.19.01-.45.02-.78.02-.04,0-.06-.04-.06-.11ZM129.48,29.32c-.2-.2-.31-.49-.31-.86,0-.33.11-.59.32-.79.21-.2.49-.3.85-.3s.63.1.82.29c.19.19.29.46.29.8,0,.37-.1.66-.29.86-.19.2-.47.31-.82.31s-.66-.1-.86-.31Z" fill="#131f2b"/>
    <path d="M142.57,38.97c0,.08-.02.11-.06.11-.33,0-.59,0-.78-.02l-1.15-.02-1.11.02c-.2.01-.47.02-.8.02-.04,0-.06-.04-.06-.11s.02-.12.06-.12c.4,0,.66-.09.8-.28.14-.18.21-.53.21-1.04v-2.75c0-.69-.12-1.2-.37-1.53s-.64-.5-1.18-.5c-.31,0-.62.06-.95.19-.33.13-.61.3-.85.52v4.07c0,.51.07.86.22,1.04.15.19.42.28.81.28.04,0,.06.04.06.12s-.02.11-.06.11c-.33,0-.59,0-.78-.02l-1.15-.02-1.13.02c-.19.01-.45.02-.78.02-.04,0-.06-.04-.06-.11s.02-.12.06-.12c.39,0,.66-.09.8-.28.14-.18.21-.53.21-1.04v-3.59c0-.39-.05-.69-.14-.87-.09-.18-.25-.28-.45-.28-.22,0-.52.09-.92.27h-.04s-.07-.03-.09-.1c-.02-.06-.02-.1,0-.12l2.66-1.3c.08-.03.12-.04.13-.04.14,0,.27.14.4.41.13.27.2.65.23,1.12.88-1.04,1.85-1.57,2.9-1.57.69,0,1.23.22,1.63.66s.6,1.02.6,1.73v3.67c0,.51.07.86.22,1.04.15.19.42.28.81.28.04,0,.06.04.06.12Z" fill="#131f2b"/>
    <path d="M160.08,27.25c0,.08-.02.12-.06.12-.46,0-.9.2-1.32.61-.42.41-.76.96-1.01,1.64l-3.54,9.44c-.01.05-.08.08-.21.08s-.2-.03-.21-.08l-4.87-10.34c-.23-.46-.46-.8-.69-1.02-.23-.22-.48-.33-.76-.33-.04,0-.06-.04-.06-.12s.02-.12.06-.12c.19,0,.32,0,.4.02.25.03.59.04.99.04,1.1,0,2.03-.01,2.79-.04.2-.01.46-.02.76-.02.04,0,.06.04.06.12s-.02.12-.06.12c-.38,0-.68.08-.89.24-.21.16-.32.39-.32.68,0,.22.07.48.21.78l3.31,7.05,2.48-6.56c.13-.36.19-.66.19-.92,0-.39-.12-.71-.35-.94-.24-.23-.58-.34-1.02-.34-.04,0-.06-.04-.06-.12s.02-.12.06-.12l.94.02c.54.03,1.01.04,1.43.04.24,0,.54-.01.9-.04l.78-.02s.06.04.06.12Z" fill="#131f2b"/>
    <path d="M160.06,38.97c0-.08.02-.12.06-.12.4,0,.66-.09.8-.28.14-.18.21-.53.21-1.04v-3.42c0-.43-.04-.75-.13-.94-.09-.19-.24-.29-.44-.29-.17,0-.4.07-.71.21h-.02c-.05,0-.09-.03-.11-.1-.03-.07-.02-.11.02-.12l2.89-1.34.06-.02c.06,0,.13.03.19.1.06.06.09.12.09.17v.42c-.03.51-.04,1.13-.04,1.87v3.46c0,.51.07.86.22,1.04.15.19.42.28.81.28.04,0,.06.04.06.12s-.02.11-.06.11c-.33,0-.59,0-.78-.02l-1.15-.02-1.13.02c-.19.01-.45.02-.78.02-.04,0-.06-.04-.06-.11ZM161.09,29.32c-.2-.2-.31-.49-.31-.86,0-.33.11-.59.32-.79.21-.2.49-.3.85-.3s.63.1.82.29c.19.19.29.46.29.8,0,.37-.1.66-.29.86-.19.2-.47.31-.82.31s-.66-.1-.86-.31Z" fill="#131f2b"/>
    <path d="M171.81,37.82s.05.03.09.08c.03.05.04.09,0,.11-.47.46-.95.79-1.43.99-.48.2-1.01.31-1.59.31-.8,0-1.5-.17-2.08-.51-.59-.34-1.03-.79-1.34-1.36-.31-.57-.46-1.18-.46-1.84,0-.74.18-1.42.55-2.04.37-.62.88-1.12,1.54-1.48s1.4-.54,2.23-.54,1.4.18,1.83.54c.43.36.65.91.65,1.66,0,.4-.07.59-.21.59l-4.64.02c-.01.09-.02.24-.02.44,0,1.12.26,2,.77,2.64.52.64,1.26.96,2.23.96.34,0,.64-.04.88-.12.24-.08.56-.22.96-.42l.04-.02ZM167.55,32.46c-.28.36-.47.86-.55,1.5l2.77-.04c-.01-.65-.11-1.15-.29-1.49-.18-.34-.47-.52-.88-.52s-.77.18-1.05.54Z" fill="#131f2b"/>
    <path d="M185.8,31.82c0,.08-.02.11-.06.11-.36,0-.68.14-.97.41-.29.27-.56.71-.81,1.31l-2.35,5.41c0,.05-.06.08-.19.08-.14,0-.22-.03-.23-.08l-2.31-4.55-1.97,4.55c0,.05-.06.08-.19.08-.12,0-.19-.03-.23-.08l-2.92-5.77c-.28-.55-.52-.91-.72-1.09-.2-.18-.44-.27-.74-.27-.04,0-.06-.04-.06-.11s.02-.12.06-.12c.23,0,.42,0,.57.02l1.28.02,1.36-.02c.19-.01.45-.02.78-.02.04,0,.06.04.06.12s-.02.11-.06.11c-.65,0-.97.14-.97.42,0,.08.04.18.12.32l2.22,3.99,1.13-2.73-.33-.65c-.29-.56-.52-.93-.67-1.1-.15-.17-.34-.26-.57-.26-.03,0-.04-.04-.04-.11s.01-.12.04-.12c.2,0,.37,0,.5.02l1.15.02,1.36-.02c.19-.01.45-.02.78-.02.03,0,.04.04.04.12s-.01.11-.04.11c-.25,0-.46.04-.62.12-.16.08-.24.19-.24.33,0,.1.03.2.08.29l2.14,4.01,1.26-3.06c.1-.27.15-.5.15-.69,0-.32-.11-.57-.33-.75-.22-.18-.52-.27-.89-.27-.04,0-.06-.04-.06-.11s.02-.12.06-.12c.34,0,.6,0,.76.02l1.15.02.78-.02c.14-.01.37-.02.69-.02.04,0,.06.04.06.12Z" fill="#131f2b"/>
    <path d="M188.12,33.58c.26.27.64.55,1.14.84.48.28.84.5,1.08.66.24.16.45.38.64.67s.29.63.29,1.04c0,.43-.11.84-.33,1.22s-.54.69-.97.93c-.43.24-.95.35-1.55.35-.7,0-1.36-.17-1.99-.52-.08-.08-.12-.15-.12-.23l-.04-1.89s.04-.06.11-.07c.07,0,.11,0,.12.03.2.64.54,1.18,1.01,1.62s.95.67,1.43.67c.27,0,.48-.08.64-.25.16-.17.24-.41.24-.73,0-.47-.13-.84-.4-1.12-.27-.27-.66-.56-1.18-.85-.45-.24-.78-.44-1.01-.59-.23-.15-.43-.37-.61-.65s-.27-.62-.27-1.03c0-.75.27-1.3.8-1.65.54-.35,1.19-.53,1.97-.53.29,0,.56.02.79.06.24.04.5.11.79.23.12.04.17.11.17.21,0,.32,0,.57-.02.75l-.02.96s-.04.06-.11.06-.12-.02-.12-.06c0-.24-.1-.51-.31-.79-.2-.29-.47-.53-.79-.74s-.66-.31-1-.31c-.52,0-.78.25-.78.75,0,.37.13.69.39.96Z" fill="#131f2b"/>
  </g>
  <g>
    <path d="M82.82,37.97c0,.08-.01.11-.04.11-.43,0-.78,0-1.03-.02l-1.41-.02-1.43.02c-.24.01-.57.02-.99.02-.04,0-.06-.04-.06-.11s.02-.12.06-.12c.54,0,.9-.06,1.09-.19.19-.13.29-.39.29-.8l-.02-.33-.4-7.82-3.94,9.23c-.03.05-.08.08-.15.08s-.13-.03-.15-.08l-4.84-9.19-.15,6.9c-.01.69.12,1.23.41,1.61s.69.58,1.21.58c.04,0,.06.04.06.12s-.02.11-.06.11c-.34,0-.61,0-.8-.02l-1.05-.02-1.2.02c-.2.01-.48.02-.82.02-.04,0-.06-.04-.06-.11s.02-.12.06-.12c.52,0,.94-.2,1.24-.59.31-.39.46-.93.48-1.6l.17-7.91-.02-.02c-.26-.47-.52-.82-.79-1.03s-.59-.32-.95-.32c-.04,0-.06-.04-.06-.12s.02-.12.06-.12l.9.02c.18.01.41.02.69.02l1.01-.02c.11-.01.26-.02.44-.02.17,0,.29.06.38.17.09.11.25.39.5.82l4.17,7.82,3.63-8.33c.08-.18.16-.3.24-.37.08-.07.19-.11.33-.11.11,0,.25,0,.39.02.15.01.32.02.51.02l1.13-.02c.18-.01.43-.02.76-.02.04,0,.06.04.06.12s-.02.12-.06.12c-.6,0-1.03.12-1.3.36s-.39.62-.36,1.13l.46,8.68c.03.39.07.68.14.86.07.18.2.3.38.36.18.06.47.1.87.1.03,0,.04.04.04.12Z" fill="#c0b68a"/>
    <path d="M85.7,37.79c-.59-.36-1.05-.85-1.37-1.47-.32-.62-.48-1.29-.48-2.02,0-.83.21-1.53.63-2.11.42-.58.96-1.01,1.61-1.3s1.32-.43,2.01-.43c.79,0,1.48.18,2.06.55.59.37,1.03.86,1.35,1.46.31.61.47,1.25.47,1.94,0,.76-.19,1.44-.57,2.04-.38.59-.9,1.05-1.54,1.39-.64.33-1.34.5-2.09.5-.79,0-1.48-.18-2.07-.54ZM89.48,37.19c.26-.49.39-1.19.39-2.11s-.11-1.66-.34-2.29c-.23-.64-.53-1.12-.9-1.44-.37-.33-.76-.49-1.19-.49-1.02,0-1.53.91-1.53,2.73,0,.85.11,1.61.32,2.26.22.66.51,1.17.88,1.53s.78.54,1.22.54c.5,0,.88-.25,1.14-.74Z" fill="#c0b68a"/>
    <path d="M102.13,36.84s.07.03.1.1.03.1,0,.11l-2.64,1.28s-.06.02-.1.02c-.13,0-.24-.14-.33-.41-.1-.27-.15-.65-.16-1.12-.84.99-1.75,1.49-2.73,1.49-.7,0-1.25-.22-1.65-.66s-.6-1.02-.6-1.73v-2.81c0-.83-.2-1.24-.59-1.24-.14,0-.3.04-.48.13h-.02c-.05,0-.09-.03-.11-.1-.03-.07-.02-.11.02-.12l2.56-1.22.1-.02c.06,0,.13.03.2.09.07.06.1.11.1.16v4.22c0,1.38.53,2.06,1.59,2.06.28,0,.56-.06.85-.18s.54-.29.77-.51v-3.27c0-.83-.2-1.24-.59-1.24-.14,0-.31.04-.5.13h-.02s-.07-.03-.1-.1c-.03-.07-.02-.11.02-.12l2.56-1.22s.06-.02.1-.02c.06,0,.13.03.2.09.07.06.1.11.1.16v5.08c0,.43.04.74.12.92.08.18.22.27.41.27.18,0,.44-.07.78-.21h.04Z" fill="#c0b68a"/>
    <path d="M112.03,37.97c0,.08-.02.11-.06.11-.33,0-.59,0-.78-.02l-1.15-.02-1.11.02c-.2.01-.47.02-.8.02-.04,0-.06-.04-.06-.11s.02-.12.06-.12c.4,0,.66-.09.8-.28.14-.18.21-.53.21-1.04v-2.75c0-.69-.12-1.2-.37-1.53-.25-.33-.64-.5-1.18-.5-.31,0-.62.06-.95.19-.33.13-.61.3-.85.52v4.07c0,.51.07.86.22,1.04.15.19.42.28.81.28.04,0,.06.04.06.12s-.02.11-.06.11c-.33,0-.59,0-.78-.02l-1.15-.02-1.13.02c-.19.01-.45.02-.78.02-.04,0-.06-.04-.06-.11s.02-.12.06-.12c.4,0,.66-.09.8-.28.14-.18.21-.53.21-1.04v-3.59c0-.39-.05-.69-.14-.87-.1-.18-.25-.28-.45-.28-.22,0-.52.09-.92.27h-.04s-.07-.03-.09-.1c-.02-.06-.02-.1,0-.12l2.66-1.3c.08-.03.12-.04.13-.04.14,0,.27.14.4.41s.2.65.23,1.12c.88-1.04,1.85-1.57,2.9-1.57.69,0,1.23.22,1.63.66s.6,1.02.6,1.73v3.67c0,.51.07.86.22,1.04.15.19.42.28.81.28.04,0,.06.04.06.12Z" fill="#c0b68a"/>
    <path d="M118.48,36.74c.05,0,.09.03.12.08.03.05.03.09,0,.12-.47.47-.93.82-1.38,1.04-.45.22-.92.33-1.41.33-.56,0-1.04-.13-1.43-.4s-.59-.72-.59-1.36v-4.24c0-.39-.07-.67-.21-.82-.14-.15-.4-.23-.76-.23-.01,0-.03-.02-.05-.06s-.03-.08-.03-.11c0-.05,0-.09.02-.12.01-.03.03-.05.06-.05.65-.03,1.18-.17,1.58-.42.4-.25.71-.64.93-1.17.03-.05.08-.08.16-.08s.12.03.12.08v1.53c.74-.01,1.57-.07,2.48-.17.03,0,.05.05.09.14.03.1.05.2.05.32,0,.13-.02.25-.07.37-.04.12-.09.17-.14.16-.83-.18-1.63-.27-2.41-.29v4.53c0,.48.12.84.37,1.07.25.23.58.34.98.34.51,0,1.01-.19,1.49-.57l.04-.02Z" fill="#c0b68a"/>
    <path d="M126.72,37.05c.05,0,.09.03.1.09.02.06,0,.1-.05.12l-1.97.94c-.05.03-.11.04-.19.04-.2,0-.4-.11-.58-.33-.19-.22-.32-.51-.39-.88l-.82.57c-.29.22-.57.37-.82.47s-.54.14-.86.14c-.55,0-.96-.12-1.24-.36-.28-.24-.42-.58-.42-1.01,0-.34.08-.62.25-.83.17-.21.37-.38.62-.5.25-.12.6-.26,1.04-.41l.48-.17,1.72-.63v-1.09c0-.82-.07-1.41-.2-1.78s-.36-.55-.68-.55c-.68,0-1.06.52-1.15,1.57-.04.38-.15.66-.33.82-.19.17-.44.25-.77.25s-.55-.07-.7-.2c-.15-.13-.22-.31-.22-.53,0-.38.22-.75.67-1.1.45-.35.98-.63,1.61-.85.63-.22,1.19-.33,1.67-.33.56,0,1.02.18,1.37.53.35.35.53.88.53,1.6v3.38c0,.37.07.66.2.86.13.2.32.31.56.31.18,0,.36-.04.55-.13h.02ZM123.61,36.71c-.01-.05-.02-.13-.02-.25v-1.83l-.82.38s-.17.06-.38.14c-.22.08-.4.22-.56.41-.16.19-.24.41-.24.67,0,.31.1.54.3.72.2.17.42.26.68.26.2,0,.41-.07.63-.21l.42-.29Z" fill="#c0b68a"/>
    <path d="M127.45,37.97c0-.08.02-.12.06-.12.4,0,.66-.09.8-.28.14-.18.21-.53.21-1.04v-3.42c0-.43-.04-.75-.13-.94-.09-.19-.24-.29-.44-.29-.17,0-.4.07-.71.21h-.02c-.05,0-.09-.03-.11-.1-.03-.07-.02-.11.02-.12l2.89-1.34.06-.02c.06,0,.13.03.19.1.06.06.09.12.09.17v.42c-.03.51-.04,1.13-.04,1.87v3.46c0,.51.07.86.22,1.04.15.19.42.28.81.28.04,0,.06.04.06.12s-.02.11-.06.11c-.33,0-.59,0-.78-.02l-1.15-.02-1.13.02c-.19.01-.45.02-.78.02-.04,0-.06-.04-.06-.11ZM128.48,28.32c-.2-.2-.31-.49-.31-.86,0-.33.11-.59.32-.79.21-.2.49-.3.85-.3s.63.1.82.29c.19.19.29.46.29.8,0,.37-.1.66-.29.86-.19.2-.47.31-.82.31s-.66-.1-.86-.31Z" fill="#c0b68a"/>
    <path d="M141.57,37.97c0,.08-.02.11-.06.11-.33,0-.59,0-.78-.02l-1.15-.02-1.11.02c-.2.01-.47.02-.8.02-.04,0-.06-.04-.06-.11s.02-.12.06-.12c.4,0,.66-.09.8-.28.14-.18.21-.53.21-1.04v-2.75c0-.69-.12-1.2-.37-1.53s-.64-.5-1.18-.5c-.31,0-.62.06-.95.19-.33.13-.61.3-.85.52v4.07c0,.51.07.86.22,1.04.15.19.42.28.81.28.04,0,.06.04.06.12s-.02.11-.06.11c-.33,0-.59,0-.78-.02l-1.15-.02-1.13.02c-.19.01-.45.02-.78.02-.04,0-.06-.04-.06-.11s.02-.12.06-.12c.39,0,.66-.09.8-.28.14-.18.21-.53.21-1.04v-3.59c0-.39-.05-.69-.14-.87-.09-.18-.25-.28-.45-.28-.22,0-.52.09-.92.27h-.04s-.07-.03-.09-.1c-.02-.06-.02-.1,0-.12l2.66-1.3c.08-.03.12-.04.13-.04.14,0,.27.14.4.41.13.27.2.65.23,1.12.88-1.04,1.85-1.57,2.9-1.57.69,0,1.23.22,1.63.66s.6,1.02.6,1.73v3.67c0,.51.07.86.22,1.04.15.19.42.28.81.28.04,0,.06.04.06.12Z" fill="#c0b68a"/>
    <path d="M159.08,26.25c0,.08-.02.12-.06.12-.46,0-.9.2-1.32.61-.42.41-.76.96-1.01,1.64l-3.54,9.44c-.01.05-.08.08-.21.08s-.2-.03-.21-.08l-4.87-10.34c-.23-.46-.46-.8-.69-1.02-.23-.22-.48-.33-.76-.33-.04,0-.06-.04-.06-.12s.02-.12.06-.12c.19,0,.32,0,.4.02.25.03.59.04.99.04,1.1,0,2.03-.01,2.79-.04.2-.01.46-.02.76-.02.04,0,.06.04.06.12s-.02.12-.06.12c-.38,0-.68.08-.89.24-.21.16-.32.39-.32.68,0,.22.07.48.21.78l3.31,7.05,2.48-6.56c.13-.36.19-.66.19-.92,0-.39-.12-.71-.35-.94-.24-.23-.58-.34-1.02-.34-.04,0-.06-.04-.06-.12s.02-.12.06-.12l.94.02c.54.03,1.01.04,1.43.04.24,0,.54-.01.9-.04l.78-.02s.06.04.06.12Z" fill="#c0b68a"/>
    <path d="M159.06,37.97c0-.08.02-.12.06-.12.4,0,.66-.09.8-.28.14-.18.21-.53.21-1.04v-3.42c0-.43-.04-.75-.13-.94-.09-.19-.24-.29-.44-.29-.17,0-.4.07-.71.21h-.02c-.05,0-.09-.03-.11-.1-.03-.07-.02-.11.02-.12l2.89-1.34.06-.02c.06,0,.13.03.19.1.06.06.09.12.09.17v.42c-.03.51-.04,1.13-.04,1.87v3.46c0,.51.07.86.22,1.04.15.19.42.28.81.28.04,0,.06.04.06.12s-.02.11-.06.11c-.33,0-.59,0-.78-.02l-1.15-.02-1.13.02c-.19.01-.45.02-.78.02-.04,0-.06-.04-.06-.11ZM160.09,28.32c-.2-.2-.31-.49-.31-.86,0-.33.11-.59.32-.79.21-.2.49-.3.85-.3s.63.1.82.29c.19.19.29.46.29.8,0,.37-.1.66-.29.86-.19.2-.47.31-.82.31s-.66-.1-.86-.31Z" fill="#c0b68a"/>
    <path d="M170.81,36.82s.05.03.09.08c.03.05.04.09,0,.11-.47.46-.95.79-1.43.99-.48.2-1.01.31-1.59.31-.8,0-1.5-.17-2.08-.51-.59-.34-1.03-.79-1.34-1.36-.31-.57-.46-1.18-.46-1.84,0-.74.18-1.42.55-2.04.37-.62.88-1.12,1.54-1.48s1.4-.54,2.23-.54,1.4.18,1.83.54c.43.36.65.91.65,1.66,0,.4-.07.59-.21.59l-4.64.02c-.01.09-.02.24-.02.44,0,1.12.26,2,.77,2.64.52.64,1.26.96,2.23.96.34,0,.64-.04.88-.12.24-.08.56-.22.96-.42l.04-.02ZM166.55,31.46c-.28.36-.47.86-.55,1.5l2.77-.04c-.01-.65-.11-1.15-.29-1.49-.18-.34-.47-.52-.88-.52s-.77.18-1.05.54Z" fill="#c0b68a"/>
    <path d="M184.8,30.82c0,.08-.02.11-.06.11-.36,0-.68.14-.97.41-.29.27-.56.71-.81,1.31l-2.35,5.41c0,.05-.06.08-.19.08-.14,0-.22-.03-.23-.08l-2.31-4.55-1.97,4.55c0,.05-.06.08-.19.08-.12,0-.19-.03-.23-.08l-2.92-5.77c-.28-.55-.52-.91-.72-1.09-.2-.18-.44-.27-.74-.27-.04,0-.06-.04-.06-.11s.02-.12.06-.12c.23,0,.42,0,.57.02l1.28.02,1.36-.02c.19-.01.45-.02.78-.02.04,0,.06.04.06.12s-.02.11-.06.11c-.65,0-.97.14-.97.42,0,.08.04.18.12.32l2.22,3.99,1.13-2.73-.33-.65c-.29-.56-.52-.93-.67-1.1-.15-.17-.34-.26-.57-.26-.03,0-.04-.04-.04-.11s.01-.12.04-.12c.2,0,.37,0,.5.02l1.15.02,1.36-.02c.19-.01.45-.02.78-.02.03,0,.04.04.04.12s-.01.11-.04.11c-.25,0-.46.04-.62.12-.16.08-.24.19-.24.33,0,.1.03.2.08.29l2.14,4.01,1.26-3.06c.1-.27.15-.5.15-.69,0-.32-.11-.57-.33-.75-.22-.18-.52-.27-.89-.27-.04,0-.06-.04-.06-.11s.02-.12.06-.12c.34,0,.6,0,.76.02l1.15.02.78-.02c.14-.01.37-.02.69-.02.04,0,.06.04.06.12Z" fill="#c0b68a"/>
    <path d="M187.12,32.58c.26.27.64.55,1.14.84.48.28.84.5,1.08.66.24.16.45.38.64.67s.29.63.29,1.04c0,.43-.11.84-.33,1.22s-.54.69-.97.93c-.43.24-.95.35-1.55.35-.7,0-1.36-.17-1.99-.52-.08-.08-.12-.15-.12-.23l-.04-1.89s.04-.06.11-.07c.07,0,.11,0,.12.03.2.64.54,1.18,1.01,1.62s.95.67,1.43.67c.27,0,.48-.08.64-.25.16-.17.24-.41.24-.73,0-.47-.13-.84-.4-1.12-.27-.27-.66-.56-1.18-.85-.45-.24-.78-.44-1.01-.59-.23-.15-.43-.37-.61-.65s-.27-.62-.27-1.03c0-.75.27-1.3.8-1.65.54-.35,1.19-.53,1.97-.53.29,0,.56.02.79.06.24.04.5.11.79.23.12.04.17.11.17.21,0,.32,0,.57-.02.75l-.02.96s-.04.06-.11.06-.12-.02-.12-.06c0-.24-.1-.51-.31-.79-.2-.29-.47-.53-.79-.74s-.66-.31-1-.31c-.52,0-.78.25-.78.75,0,.37.13.69.39.96Z" fill="#c0b68a"/>
  </g>
</svg>