<?xml version="1.0" encoding="UTF-8"?>
<svg id="_レイヤー_2" xmlns="http://www.w3.org/2000/svg" width="90.87mm" height="22.78mm" version="1.1" viewBox="0 0 257.59 64.56">
  <!-- Generator: Adobe Illustrator 29.4.0, SVG Export Plug-In . SVG Version: 2.1.0 Build 152)  -->
  <g>
    <rect x=".96" y=".97" width="255.67" height="62.63" rx="4.1" ry="4.1" fill="#212a37"/>
    <path d="M252.53,64.1H5.06c-2.54,0-4.6-2.06-4.6-4.6V5.07C.46,2.53,2.52.47,5.06.47h247.47c2.54,0,4.6,2.06,4.6,4.6v54.43c0,2.54-2.06,4.6-4.6,4.6ZM5.06,1.47c-1.99,0-3.6,1.62-3.6,3.6v54.43c0,1.98,1.61,3.6,3.6,3.6h247.47c1.99,0,3.6-1.62,3.6-3.6V5.07c0-1.98-1.62-3.6-3.6-3.6,0,0-247.47,0-247.47,0Z" fill="#414e5b"/>
  </g>
  <g>
    <path d="M240.01,9.24c-.04-.14-.17-.21-.31-.21H60.94v.02H17.68c-.14,0-.26.09-.31.21-1.21,3.87-4.26,6.92-8.13,8.13-.14.04-.21.17-.21.31v29.22c0,.14.09.26.21.31,3.87,1.21,6.92,4.26,8.13,8.13.04.14.17.21.31.21h178.76v-.02h43.26c.14,0,.26-.09.31-.21,1.21-3.87,4.26-6.92,8.13-8.13.14-.04.21-.17.21-.31v-29.22c0-.14-.09-.26-.21-.31-3.87-1.21-6.92-4.26-8.13-8.13h0ZM247.74,46.67c-3.89,1.28-6.97,4.35-8.25,8.23H60.95v.02H17.92c-1.28-3.89-4.36-6.96-8.25-8.25v-28.78c3.89-1.28,6.97-4.35,8.25-8.23h178.53v-.02h43.04c1.28,3.89,4.36,6.96,8.25,8.25v28.78h0Z" fill="#c0b68a"/>
    <path d="M252.09,14.19c-.08-.08-.19-.12-.31-.12-2.34,0-4.45-.94-6-2.49s-2.49-3.64-2.49-6c0-.11-.04-.23-.12-.31s-.19-.12-.31-.12H14.51c-.11,0-.23.04-.31.12s-.12.19-.12.31c0,2.34-.94,4.45-2.49,6s-3.64,2.49-6,2.49c-.11,0-.23.04-.31.12s-.12.19-.12.31v35.58c0,.11.04.23.12.31s.19.12.31.12c2.34,0,4.45.94,6,2.49s2.49,3.64,2.49,6c0,.11.04.23.12.31s.19.12.31.12h228.37c.11,0,.23-.04.31-.12s.12-.19.12-.31c0-2.34.94-4.45,2.49-6s3.64-2.49,6-2.49c.11,0,.23-.04.31-.12s.12-.19.12-.31V14.49c0-.11-.04-.23-.12-.31h-.02,0ZM251.36,49.65c-2.41.11-4.58,1.13-6.16,2.73-1.6,1.59-2.63,3.76-2.73,6.16H14.93c-.11-2.41-1.13-4.58-2.73-6.16-1.59-1.59-3.76-2.61-6.16-2.73V14.92c2.41-.11,4.58-1.13,6.16-2.73,1.6-1.59,2.63-3.76,2.73-6.16h227.55c.11,2.41,1.13,4.58,2.73,6.16,1.59,1.59,3.76,2.61,6.16,2.73v34.72h-.01Z" fill="#c0b68a"/>
  </g>
  <g>
    <g>
      <circle cx="7.75" cy="8.15" r="1.98" fill="#c0b68a"/>
      <circle cx="7.75" cy="56.43" r="1.98" fill="#c0b68a"/>
    </g>
    <g>
      <circle cx="249.85" cy="8.15" r="1.98" fill="#c0b68a"/>
      <circle cx="249.85" cy="56.43" r="1.98" fill="#c0b68a"/>
    </g>
  </g>
  <g>
    <g>
      <path d="M42.25,38.29l-3.9-4.47-3.89,4.47v-11.03l3.89,4.47,3.9-4.47v11.03Z" fill="#131f2b"/>
      <path d="M53.19,34.23c.15.36.23.74.23,1.15s-.08.79-.23,1.15c-.15.36-.36.66-.63.93-.27.26-.6.47-.97.62-.38.15-.78.22-1.23.22s-.86-.07-1.24-.22c-.37-.15-.69-.36-.96-.62-.27-.26-.48-.57-.63-.93-.15-.35-.23-.74-.23-1.15s.08-.79.23-1.15c.15-.35.36-.66.63-.93.22-.21.47-.39.76-.53-.29-.14-.54-.31-.76-.53-.27-.26-.48-.57-.63-.93-.15-.35-.23-.74-.23-1.15s.08-.79.23-1.15c.15-.35.36-.66.63-.93.27-.26.59-.47.96-.62s.79-.22,1.24-.22.86.07,1.23.22c.38.15.7.36.97.62.27.26.48.57.63.93.15.35.23.74.23,1.15s-.08.79-.23,1.15c-.15.36-.36.66-.63.93-.22.21-.48.39-.76.53.29.14.54.31.76.53.27.26.48.57.63.93ZM51.91,35.38c0-.22-.04-.42-.13-.61-.08-.19-.2-.35-.34-.48-.14-.14-.31-.24-.5-.32-.19-.08-.39-.11-.6-.11s-.41.04-.6.11c-.19.07-.35.18-.49.32-.14.14-.25.3-.34.48-.08.18-.13.39-.13.61s.04.42.13.61.19.35.34.48c.14.14.31.24.49.32.19.08.39.11.6.11s.41-.04.6-.11c.19-.07.35-.18.5-.32.14-.14.26-.3.34-.48.08-.18.13-.39.13-.61Z" fill="#131f2b"/>
      <path d="M66.25,38.29l-3.9-4.47-3.89,4.47v-11.03l3.89,4.47,3.9-4.47v11.03Z" fill="#131f2b"/>
      <path d="M71.21,27.27h6.28v2.51h-6.28v-2.51ZM71.21,35.79h6.28v2.51h-6.28v-2.51ZM72.69,34.36c-.2-.2-.36-.43-.48-.7-.12-.27-.17-.56-.17-.87s.06-.6.17-.87c.11-.27.27-.5.48-.7.2-.2.45-.35.73-.47.28-.11.6-.17.93-.17s.65.06.93.17c.28.11.53.27.73.47.21.2.36.43.48.7.12.27.17.56.17.87s-.06.6-.17.87c-.11.27-.27.5-.48.7-.2.2-.45.36-.73.47-.28.11-.59.17-.93.17s-.65-.06-.93-.17-.53-.27-.73-.47Z" fill="#131f2b"/>
      <path d="M81.81,27.26h2.51v11.03h-2.51v-11.03ZM90.9,27.26v11.03l-5.64-11.03h5.64Z" fill="#131f2b"/>
      <path d="M101.98,36v2.29h-6.28v-11.03h6.28v2.29h-2.14v6.45h2.14Z" fill="#131f2b"/>
      <path d="M108.44,33.36c.31-.14.64-.21.99-.21h1.98v5.14h-1.98c-.35,0-.68-.07-.99-.21-.31-.14-.58-.33-.81-.56-.23-.23-.41-.51-.54-.82-.13-.31-.2-.64-.2-.98s.06-.66.19-.97c.13-.31.31-.59.54-.82.23-.24.5-.43.81-.57h0ZM109.87,32.19c-.31.14-.64.21-.99.21h-1.98v-5.14h1.98c.35,0,.68.07.98.21.31.14.58.33.81.56.23.24.41.51.54.82.13.31.2.64.2.98s-.06.66-.19.97c-.13.31-.31.59-.54.82s-.5.43-.81.57h0Z" fill="#131f2b"/>
      <path d="M125.54,27.27h5.66v5.12h-5.66v-5.12ZM130.95,34.6c.14.32.21.67.21,1.05s-.07.72-.21,1.05-.33.61-.58.85-.54.43-.88.57c-.34.14-.71.2-1.12.2s-.79-.07-1.12-.2c-.34-.14-.63-.33-.88-.57-.25-.24-.44-.52-.58-.85-.14-.32-.21-.67-.21-1.05s.07-.72.21-1.05.33-.61.58-.85c.24-.24.54-.43.88-.56.34-.14.72-.2,1.12-.2s.78.07,1.12.2c.34.14.64.32.88.56.25.24.44.52.58.85Z" fill="#131f2b"/>
      <path d="M135.82,27.26h2.51v11.03h-2.51v-11.03ZM144.92,27.26v11.03l-5.64-11.03h5.64Z" fill="#131f2b"/>
      <path d="M163.47,38.29l-3.9-4.47-3.89,4.47v-11.03l3.89,4.47,3.9-4.47v11.03Z" fill="#131f2b"/>
      <path d="M174.41,34.23c.15.36.23.74.23,1.15s-.08.79-.23,1.15c-.15.36-.36.66-.63.93-.27.26-.6.47-.97.62-.38.15-.78.22-1.23.22s-.86-.07-1.24-.22c-.37-.15-.69-.36-.96-.62-.27-.26-.48-.57-.63-.93-.15-.35-.23-.74-.23-1.15s.08-.79.23-1.15c.15-.35.36-.66.63-.93.22-.21.47-.39.76-.53-.29-.14-.54-.31-.76-.53-.27-.26-.48-.57-.63-.93-.15-.35-.23-.74-.23-1.15s.08-.79.23-1.15c.15-.35.36-.66.63-.93.27-.26.59-.47.96-.62s.79-.22,1.24-.22.86.07,1.23.22.7.36.97.62c.27.26.48.57.63.93.15.35.23.74.23,1.15s-.08.79-.23,1.15c-.15.36-.36.66-.63.93-.22.21-.48.39-.76.53.29.14.54.31.76.53.27.26.48.57.63.93ZM173.14,35.38c0-.22-.04-.42-.12-.61-.08-.19-.2-.35-.34-.48-.14-.14-.31-.24-.5-.32-.19-.08-.39-.11-.6-.11s-.41.04-.6.11c-.19.07-.35.18-.49.32-.14.14-.25.3-.34.48-.08.18-.12.39-.12.61s.04.42.12.61c.08.19.2.35.34.48.14.14.31.24.49.32.19.08.39.11.6.11s.41-.04.6-.11c.19-.07.35-.18.5-.32.14-.14.26-.3.34-.48.08-.18.12-.39.12-.61Z" fill="#131f2b"/>
      <path d="M186.72,36v2.29h-6.28v-11.03h6.28v2.29h-2.14v6.45h2.14Z" fill="#131f2b"/>
      <path d="M192.75,27.27h5.66v5.12h-5.66v-5.12ZM198.16,34.6c.14.32.21.67.21,1.05s-.07.72-.21,1.05-.33.61-.58.85-.54.43-.88.57c-.34.14-.71.2-1.12.2s-.79-.07-1.12-.2c-.34-.14-.63-.33-.88-.57-.25-.24-.44-.52-.58-.85-.14-.32-.21-.67-.21-1.05s.07-.72.21-1.05.33-.61.58-.85c.24-.24.54-.43.88-.56.34-.14.72-.2,1.12-.2s.78.07,1.12.2c.34.14.64.32.88.56.25.24.44.52.58.85Z" fill="#131f2b"/>
      <path d="M210.41,34.23c.15.36.23.74.23,1.15s-.08.79-.23,1.15c-.15.36-.36.66-.63.93-.27.26-.6.47-.97.62-.38.15-.78.22-1.23.22s-.86-.07-1.24-.22c-.37-.15-.69-.36-.96-.62-.27-.26-.48-.57-.63-.93-.15-.35-.23-.74-.23-1.15s.08-.79.23-1.15c.15-.35.36-.66.63-.93.22-.21.47-.39.76-.53-.29-.14-.54-.31-.76-.53-.27-.26-.48-.57-.63-.93-.15-.35-.23-.74-.23-1.15s.08-.79.23-1.15c.15-.35.36-.66.63-.93.27-.26.59-.47.96-.62s.79-.22,1.24-.22.86.07,1.23.22.7.36.97.62c.27.26.48.57.63.93.15.35.23.74.23,1.15s-.08.79-.23,1.15c-.15.36-.36.66-.63.93-.22.21-.48.39-.76.53.29.14.54.31.76.53.27.26.48.57.63.93ZM209.14,35.38c0-.22-.04-.42-.12-.61-.08-.19-.2-.35-.34-.48-.14-.14-.31-.24-.5-.32-.19-.08-.39-.11-.6-.11s-.41.04-.6.11c-.19.07-.35.18-.49.32-.14.14-.25.3-.34.48-.08.18-.12.39-.12.61s.04.42.12.61c.08.19.2.35.34.48.14.14.31.24.49.32.19.08.39.11.6.11s.41-.04.6-.11c.19-.07.35-.18.5-.32.14-.14.26-.3.34-.48.08-.18.12-.39.12-.61Z" fill="#131f2b"/>
      <path d="M215.03,27.26h2.51v11.03h-2.51v-11.03ZM224.13,27.26v11.03l-5.64-11.03h5.64Z" fill="#131f2b"/>
    </g>
    <g>
      <path d="M41.25,37.29l-3.9-4.47-3.89,4.47v-11.03l3.89,4.47,3.9-4.47v11.03Z" fill="#c0b68a"/>
      <path d="M52.19,33.23c.15.36.23.74.23,1.15s-.08.79-.23,1.15c-.15.36-.36.66-.63.93-.27.26-.6.47-.97.62-.38.15-.78.22-1.23.22s-.86-.07-1.24-.22c-.37-.15-.69-.36-.96-.62-.27-.26-.48-.57-.63-.93-.15-.35-.23-.74-.23-1.15s.08-.79.23-1.15c.15-.35.36-.66.63-.93.22-.21.47-.39.76-.53-.29-.14-.54-.31-.76-.53-.27-.26-.48-.57-.63-.93-.15-.35-.23-.74-.23-1.15s.08-.79.23-1.15c.15-.35.36-.66.63-.93.27-.26.59-.47.96-.62s.79-.22,1.24-.22.86.07,1.23.22c.38.15.7.36.97.62.27.26.48.57.63.93.15.35.23.74.23,1.15s-.08.79-.23,1.15c-.15.36-.36.66-.63.93-.22.21-.48.39-.76.53.29.14.54.31.76.53.27.26.48.57.63.93ZM50.91,34.38c0-.22-.04-.42-.13-.61-.08-.19-.2-.35-.34-.48-.14-.14-.31-.24-.5-.32-.19-.08-.39-.11-.6-.11s-.41.04-.6.11c-.19.07-.35.18-.49.32-.14.14-.25.3-.34.48-.08.18-.13.39-.13.61s.04.42.13.61.19.35.34.48c.14.14.31.24.49.32.19.08.39.11.6.11s.41-.04.6-.11c.19-.07.35-.18.5-.32.14-.14.26-.3.34-.48.08-.18.13-.39.13-.61Z" fill="#c0b68a"/>
      <path d="M65.25,37.29l-3.9-4.47-3.89,4.47v-11.03l3.89,4.47,3.9-4.47v11.03Z" fill="#c0b68a"/>
      <path d="M70.21,26.27h6.28v2.51h-6.28v-2.51ZM70.21,34.79h6.28v2.51h-6.28v-2.51ZM71.69,33.36c-.2-.2-.36-.43-.48-.7-.12-.27-.17-.56-.17-.87s.06-.6.17-.87c.11-.27.27-.5.48-.7.2-.2.45-.35.73-.47.28-.11.6-.17.93-.17s.65.06.93.17c.28.11.53.27.73.47.21.2.36.43.48.7.12.27.17.56.17.87s-.06.6-.17.87c-.11.27-.27.5-.48.7-.2.2-.45.36-.73.47-.28.11-.59.17-.93.17s-.65-.06-.93-.17-.53-.27-.73-.47Z" fill="#c0b68a"/>
      <path d="M80.81,26.26h2.51v11.03h-2.51v-11.03ZM89.9,26.26v11.03l-5.64-11.03h5.64Z" fill="#c0b68a"/>
      <path d="M100.98,35v2.29h-6.28v-11.03h6.28v2.29h-2.14v6.45h2.14Z" fill="#c0b68a"/>
      <path d="M107.44,32.36c.31-.14.64-.21.99-.21h1.98v5.14h-1.98c-.35,0-.68-.07-.99-.21-.31-.14-.58-.33-.81-.56-.23-.23-.41-.51-.54-.82-.13-.31-.2-.64-.2-.98s.06-.66.19-.97c.13-.31.31-.59.54-.82.23-.24.5-.43.81-.57h0ZM108.87,31.19c-.31.14-.64.21-.99.21h-1.98v-5.14h1.98c.35,0,.68.07.98.21.31.14.58.33.81.56.23.24.41.51.54.82.13.31.2.64.2.98s-.06.66-.19.97c-.13.31-.31.59-.54.82s-.5.43-.81.57h0Z" fill="#c0b68a"/>
      <path d="M124.54,26.27h5.66v5.12h-5.66v-5.12ZM129.95,33.6c.14.32.21.67.21,1.05s-.07.72-.21,1.05-.33.61-.58.85-.54.43-.88.57c-.34.14-.71.2-1.12.2s-.79-.07-1.12-.2c-.34-.14-.63-.33-.88-.57-.25-.24-.44-.52-.58-.85-.14-.32-.21-.67-.21-1.05s.07-.72.21-1.05.33-.61.58-.85c.24-.24.54-.43.88-.56.34-.14.72-.2,1.12-.2s.78.07,1.12.2c.34.14.64.32.88.56.25.24.44.52.58.85Z" fill="#c0b68a"/>
      <path d="M134.82,26.26h2.51v11.03h-2.51v-11.03ZM143.92,26.26v11.03l-5.64-11.03h5.64Z" fill="#c0b68a"/>
      <path d="M162.47,37.29l-3.9-4.47-3.89,4.47v-11.03l3.89,4.47,3.9-4.47v11.03Z" fill="#c0b68a"/>
      <path d="M173.41,33.23c.15.36.23.74.23,1.15s-.08.79-.23,1.15c-.15.36-.36.66-.63.93-.27.26-.6.47-.97.62-.38.15-.78.22-1.23.22s-.86-.07-1.24-.22c-.37-.15-.69-.36-.96-.62-.27-.26-.48-.57-.63-.93-.15-.35-.23-.74-.23-1.15s.08-.79.23-1.15c.15-.35.36-.66.63-.93.22-.21.47-.39.76-.53-.29-.14-.54-.31-.76-.53-.27-.26-.48-.57-.63-.93-.15-.35-.23-.74-.23-1.15s.08-.79.23-1.15c.15-.35.36-.66.63-.93.27-.26.59-.47.96-.62s.79-.22,1.24-.22.86.07,1.23.22.7.36.97.62c.27.26.48.57.63.93.15.35.23.74.23,1.15s-.08.79-.23,1.15c-.15.36-.36.66-.63.93-.22.21-.48.39-.76.53.29.14.54.31.76.53.27.26.48.57.63.93ZM172.14,34.38c0-.22-.04-.42-.12-.61-.08-.19-.2-.35-.34-.48-.14-.14-.31-.24-.5-.32-.19-.08-.39-.11-.6-.11s-.41.04-.6.11c-.19.07-.35.18-.49.32-.14.14-.25.3-.34.48-.08.18-.12.39-.12.61s.04.42.12.61c.08.19.2.35.34.48.14.14.31.24.49.32.19.08.39.11.6.11s.41-.04.6-.11c.19-.07.35-.18.5-.32.14-.14.26-.3.34-.48.08-.18.12-.39.12-.61Z" fill="#c0b68a"/>
      <path d="M185.72,35v2.29h-6.28v-11.03h6.28v2.29h-2.14v6.45h2.14Z" fill="#c0b68a"/>
      <path d="M191.75,26.27h5.66v5.12h-5.66v-5.12ZM197.16,33.6c.14.32.21.67.21,1.05s-.07.72-.21,1.05-.33.61-.58.85-.54.43-.88.57c-.34.14-.71.2-1.12.2s-.79-.07-1.12-.2c-.34-.14-.63-.33-.88-.57-.25-.24-.44-.52-.58-.85-.14-.32-.21-.67-.21-1.05s.07-.72.21-1.05.33-.61.58-.85c.24-.24.54-.43.88-.56.34-.14.72-.2,1.12-.2s.78.07,1.12.2c.34.14.64.32.88.56.25.24.44.52.58.85Z" fill="#c0b68a"/>
      <path d="M209.41,33.23c.15.36.23.74.23,1.15s-.08.79-.23,1.15c-.15.36-.36.66-.63.93-.27.26-.6.47-.97.62-.38.15-.78.22-1.23.22s-.86-.07-1.24-.22c-.37-.15-.69-.36-.96-.62-.27-.26-.48-.57-.63-.93-.15-.35-.23-.74-.23-1.15s.08-.79.23-1.15c.15-.35.36-.66.63-.93.22-.21.47-.39.76-.53-.29-.14-.54-.31-.76-.53-.27-.26-.48-.57-.63-.93-.15-.35-.23-.74-.23-1.15s.08-.79.23-1.15c.15-.35.36-.66.63-.93.27-.26.59-.47.96-.62s.79-.22,1.24-.22.86.07,1.23.22.7.36.97.62c.27.26.48.57.63.93.15.35.23.74.23,1.15s-.08.79-.23,1.15c-.15.36-.36.66-.63.93-.22.21-.48.39-.76.53.29.14.54.31.76.53.27.26.48.57.63.93ZM208.14,34.38c0-.22-.04-.42-.12-.61-.08-.19-.2-.35-.34-.48-.14-.14-.31-.24-.5-.32-.19-.08-.39-.11-.6-.11s-.41.04-.6.11c-.19.07-.35.18-.49.32-.14.14-.25.3-.34.48-.08.18-.12.39-.12.61s.04.42.12.61c.08.19.2.35.34.48.14.14.31.24.49.32.19.08.39.11.6.11s.41-.04.6-.11c.19-.07.35-.18.5-.32.14-.14.26-.3.34-.48.08-.18.12-.39.12-.61Z" fill="#c0b68a"/>
      <path d="M214.03,26.26h2.51v11.03h-2.51v-11.03ZM223.13,26.26v11.03l-5.64-11.03h5.64Z" fill="#c0b68a"/>
    </g>
  </g>
</svg>