<?xml version="1.0" encoding="UTF-8"?>
<svg id="_レイヤー_2" xmlns="http://www.w3.org/2000/svg" width="90.87mm" height="22.78mm" version="1.1" viewBox="0 0 257.59 64.56">
  <!-- Generator: Adobe Illustrator 29.4.0, SVG Export Plug-In . SVG Version: 2.1.0 Build 152)  -->
  <g>
    <rect x=".96" y=".97" width="255.67" height="62.63" rx="4.1" ry="4.1" fill="#212a37"/>
    <path d="M252.53,64.1H5.06c-2.54,0-4.6-2.06-4.6-4.6V5.07c0-2.54,2.06-4.6,4.6-4.6h247.47c2.54,0,4.6,2.06,4.6,4.6v54.43c0,2.54-2.06,4.6-4.6,4.6ZM5.06,1.47c-1.99,0-3.6,1.62-3.6,3.6v54.43c0,1.98,1.61,3.6,3.6,3.6h247.47c1.99,0,3.6-1.62,3.6-3.6V5.07c0-1.98-1.62-3.6-3.6-3.6,0,0-247.47,0-247.47,0Z" fill="#414e5b"/>
  </g>
  <g>
    <path d="M240.01,9.24c-.04-.14-.17-.21-.31-.21H60.94v.02H17.68c-.14,0-.26.09-.31.21-1.21,3.87-4.26,6.92-8.13,8.13-.14.04-.21.17-.21.31v29.22c0,.14.09.26.21.31,3.87,1.21,6.92,4.26,8.13,8.13.04.14.17.21.31.21h178.76v-.02h43.26c.14,0,.26-.09.31-.21,1.21-3.87,4.26-6.92,8.13-8.13.14-.04.21-.17.21-.31v-29.22c0-.14-.09-.26-.21-.31-3.87-1.21-6.92-4.26-8.13-8.13h0ZM247.74,46.67c-3.89,1.28-6.97,4.35-8.25,8.23H60.95v.02H17.92c-1.28-3.89-4.36-6.96-8.25-8.25v-28.78c3.89-1.28,6.97-4.35,8.25-8.23h178.53v-.02h43.04c1.28,3.89,4.36,6.96,8.25,8.25v28.78h0Z" fill="#c0b68a"/>
    <path d="M252.09,14.19c-.08-.08-.19-.12-.31-.12-2.34,0-4.45-.94-6-2.49s-2.49-3.64-2.49-6c0-.11-.04-.23-.12-.31s-.19-.12-.31-.12H14.51c-.11,0-.23.04-.31.12s-.12.19-.12.31c0,2.34-.94,4.45-2.49,6s-3.64,2.49-6,2.49c-.11,0-.23.04-.31.12s-.12.19-.12.31v35.58c0,.11.04.23.12.31s.19.12.31.12c2.34,0,4.45.94,6,2.49s2.49,3.64,2.49,6c0,.11.04.23.12.31s.19.12.31.12h228.37c.11,0,.23-.04.31-.12s.12-.19.12-.31c0-2.34.94-4.45,2.49-6s3.64-2.49,6-2.49c.11,0,.23-.04.31-.12s.12-.19.12-.31V14.49c0-.11-.04-.23-.12-.31h-.02,0ZM251.36,49.65c-2.41.11-4.58,1.13-6.16,2.73-1.6,1.59-2.63,3.76-2.73,6.16H14.93c-.11-2.41-1.13-4.58-2.73-6.16-1.59-1.59-3.76-2.61-6.16-2.73V14.92c2.41-.11,4.58-1.13,6.16-2.73,1.6-1.59,2.63-3.76,2.73-6.16h227.55c.11,2.41,1.13,4.58,2.73,6.16,1.59,1.59,3.76,2.61,6.16,2.73v34.72h-.01Z" fill="#c0b68a"/>
  </g>
  <g>
    <g>
      <circle cx="7.75" cy="8.15" r="1.98" fill="#c0b68a"/>
      <circle cx="7.75" cy="56.43" r="1.98" fill="#c0b68a"/>
    </g>
    <g>
      <circle cx="249.85" cy="8.15" r="1.98" fill="#c0b68a"/>
      <circle cx="249.85" cy="56.43" r="1.98" fill="#c0b68a"/>
    </g>
  </g>
  <g>
    <g>
      <path d="M67.86,38.3h-10.17l5.08-11.03,5.08,11.03Z" fill="#131f2b"/>
      <path d="M77.6,35.34h-3.97v2.96h-2.51v-11.03h2.51v2.96h3.97v5.12Z" fill="#131f2b"/>
      <path d="M87.93,34.23c.15.36.23.74.23,1.15s-.08.79-.23,1.15c-.15.36-.36.66-.63.93-.27.26-.6.47-.97.62-.38.15-.78.22-1.23.22s-.86-.07-1.24-.22c-.37-.15-.69-.36-.96-.62-.27-.26-.48-.57-.63-.93-.15-.35-.23-.74-.23-1.15s.08-.79.23-1.15c.15-.35.36-.66.63-.93.22-.21.47-.39.76-.53-.29-.14-.54-.31-.76-.53-.27-.26-.48-.57-.63-.93-.15-.35-.23-.74-.23-1.15s.08-.79.23-1.15c.15-.35.36-.66.63-.93.27-.26.59-.47.96-.62s.79-.22,1.24-.22.86.07,1.23.22c.38.15.7.36.97.62.27.26.48.57.63.93.15.35.23.74.23,1.15s-.08.79-.23,1.15c-.15.36-.36.66-.63.93-.22.21-.48.39-.76.53.29.14.54.31.76.53.27.26.48.57.63.93ZM86.65,35.38c0-.22-.04-.42-.13-.61-.08-.19-.2-.35-.34-.48-.14-.14-.31-.24-.5-.32-.19-.08-.39-.11-.6-.11s-.41.04-.6.11c-.19.07-.35.18-.49.32-.14.14-.25.3-.34.48-.08.18-.13.39-.13.61s.04.42.13.61.19.35.34.48c.14.14.31.24.49.32.19.08.39.11.6.11s.41-.04.6-.11c.19-.07.35-.18.5-.32.14-.14.26-.3.34-.48.08-.18.13-.39.13-.61Z" fill="#131f2b"/>
      <path d="M92.55,27.26h2.51v11.03h-2.51v-11.03ZM101.65,27.26v11.03l-5.64-11.03h5.64Z" fill="#131f2b"/>
      <path d="M109.84,35.75c.4.16.81.24,1.26.24h0v2.31h0c-.85,0-1.63-.14-2.34-.42-.71-.28-1.31-.67-1.82-1.17-.51-.5-.91-1.08-1.19-1.75-.29-.67-.43-1.39-.43-2.17s.14-1.5.43-2.17c.29-.67.68-1.25,1.19-1.75.51-.5,1.12-.89,1.82-1.17.71-.28,1.49-.42,2.34-.42h0v2.31h0c-.44,0-.86.08-1.26.24-.39.16-.74.38-1.04.67s-.53.63-.71,1.02c-.18.39-.26.82-.26,1.28s.09.89.26,1.28c.17.39.41.73.71,1.02s.64.51,1.04.67h0ZM112.87,31.53v2.51h-3.27v-2.51h3.27Z" fill="#131f2b"/>
      <path d="M131.45,36v2.29h-6.28v-11.03h6.28v2.29h-2.14v6.45h2.14Z" fill="#131f2b"/>
      <path d="M140.91,31.89h-3.05v6.42h-2.51v-11.03h5.56v4.62ZM145.26,27.27v11.03h-5.55v-4.62h3.05v-6.41h2.51Z" fill="#131f2b"/>
      <path d="M149.17,27.27h6.28v2.51h-6.28v-2.51ZM149.17,35.79h6.28v2.51h-6.28v-2.51ZM150.64,34.36c-.2-.2-.36-.43-.48-.7-.12-.27-.17-.56-.17-.87s.06-.6.17-.87c.12-.27.27-.5.48-.7.2-.2.45-.35.73-.47.28-.11.6-.17.93-.17s.65.06.93.17c.28.11.53.27.73.47.21.2.36.43.48.7.11.27.17.56.17.87s-.06.6-.17.87c-.11.27-.27.5-.48.7-.2.2-.45.36-.73.47s-.59.17-.93.17-.65-.06-.93-.17c-.28-.11-.53-.27-.73-.47Z" fill="#131f2b"/>
      <path d="M176.95,38.29l-5.22-10.21v10.21l-5.64-11.03h10.86v11.03Z" fill="#131f2b"/>
      <path d="M189.08,38.3h-10.17l5.08-11.03,5.08,11.03Z" fill="#131f2b"/>
      <path d="M200.9,31.24v7.05h-8.84v-7.05l4.42,3.73,4.42-3.73ZM193.9,30.97c-.14-.32-.21-.67-.21-1.05s.07-.72.21-1.05.33-.61.58-.85c.24-.24.54-.43.88-.57s.72-.2,1.12-.2.78.07,1.12.2c.34.14.64.33.89.57.25.24.44.52.58.85.14.32.21.67.21,1.05s-.07.72-.21,1.05-.33.61-.58.85c-.25.24-.54.43-.89.57-.34.14-.71.2-1.12.2s-.79-.07-1.12-.2c-.34-.14-.63-.32-.88-.57-.25-.24-.44-.52-.58-.85Z" fill="#131f2b"/>
    </g>
    <g>
      <path d="M66.86,37.3h-10.17l5.08-11.03,5.08,11.03Z" fill="#c0b68a"/>
      <path d="M76.6,34.34h-3.97v2.96h-2.51v-11.03h2.51v2.96h3.97v5.12Z" fill="#c0b68a"/>
      <path d="M86.93,33.23c.15.36.23.74.23,1.15s-.08.79-.23,1.15c-.15.36-.36.66-.63.93-.27.26-.6.47-.97.62-.38.15-.78.22-1.23.22s-.86-.07-1.24-.22c-.37-.15-.69-.36-.96-.62-.27-.26-.48-.57-.63-.93-.15-.35-.23-.74-.23-1.15s.08-.79.23-1.15c.15-.35.36-.66.63-.93.22-.21.47-.39.76-.53-.29-.14-.54-.31-.76-.53-.27-.26-.48-.57-.63-.93-.15-.35-.23-.74-.23-1.15s.08-.79.23-1.15c.15-.35.36-.66.63-.93.27-.26.59-.47.96-.62s.79-.22,1.24-.22.86.07,1.23.22c.38.15.7.36.97.62.27.26.48.57.63.93.15.35.23.74.23,1.15s-.08.79-.23,1.15c-.15.36-.36.66-.63.93-.22.21-.48.39-.76.53.29.14.54.31.76.53.27.26.48.57.63.93ZM85.65,34.38c0-.22-.04-.42-.13-.61-.08-.19-.2-.35-.34-.48-.14-.14-.31-.24-.5-.32-.19-.08-.39-.11-.6-.11s-.41.04-.6.11c-.19.07-.35.18-.49.32-.14.14-.25.3-.34.48-.08.18-.13.39-.13.61s.04.42.13.61.19.35.34.48c.14.14.31.24.49.32.19.08.39.11.6.11s.41-.04.6-.11c.19-.07.35-.18.5-.32.14-.14.26-.3.34-.48.08-.18.13-.39.13-.61Z" fill="#c0b68a"/>
      <path d="M91.55,26.26h2.51v11.03h-2.51v-11.03ZM100.65,26.26v11.03l-5.64-11.03h5.64Z" fill="#c0b68a"/>
      <path d="M108.84,34.75c.4.16.81.24,1.26.24h0v2.31h0c-.85,0-1.63-.14-2.34-.42-.71-.28-1.31-.67-1.82-1.17-.51-.5-.91-1.08-1.19-1.75-.29-.67-.43-1.39-.43-2.17s.14-1.5.43-2.17c.29-.67.68-1.25,1.19-1.75.51-.5,1.12-.89,1.82-1.17.71-.28,1.49-.42,2.34-.42h0v2.31h0c-.44,0-.86.08-1.26.24-.39.16-.74.38-1.04.67s-.53.63-.71,1.02c-.18.39-.26.82-.26,1.28s.09.89.26,1.28c.17.39.41.73.71,1.02s.64.51,1.04.67h0ZM111.87,30.53v2.51h-3.27v-2.51h3.27Z" fill="#c0b68a"/>
      <path d="M130.45,35v2.29h-6.28v-11.03h6.28v2.29h-2.14v6.45h2.14Z" fill="#c0b68a"/>
      <path d="M139.91,30.89h-3.05v6.42h-2.51v-11.03h5.56v4.62ZM144.26,26.27v11.03h-5.55v-4.62h3.05v-6.41h2.51Z" fill="#c0b68a"/>
      <path d="M148.17,26.27h6.28v2.51h-6.28v-2.51ZM148.17,34.79h6.28v2.51h-6.28v-2.51ZM149.64,33.36c-.2-.2-.36-.43-.48-.7-.12-.27-.17-.56-.17-.87s.06-.6.17-.87c.12-.27.27-.5.48-.7.2-.2.45-.35.73-.47.28-.11.6-.17.93-.17s.65.06.93.17c.28.11.53.27.73.47.21.2.36.43.48.7.11.27.17.56.17.87s-.06.6-.17.87c-.11.27-.27.5-.48.7-.2.2-.45.36-.73.47s-.59.17-.93.17-.65-.06-.93-.17c-.28-.11-.53-.27-.73-.47Z" fill="#c0b68a"/>
      <path d="M175.95,37.29l-5.22-10.21v10.21l-5.64-11.03h10.86v11.03Z" fill="#c0b68a"/>
      <path d="M188.08,37.3h-10.17l5.08-11.03,5.08,11.03Z" fill="#c0b68a"/>
      <path d="M199.9,30.24v7.05h-8.84v-7.05l4.42,3.73,4.42-3.73ZM192.9,29.97c-.14-.32-.21-.67-.21-1.05s.07-.72.21-1.05.33-.61.58-.85c.24-.24.54-.43.88-.57s.72-.2,1.12-.2.78.07,1.12.2c.34.14.64.33.89.57.25.24.44.52.58.85.14.32.21.67.21,1.05s-.07.72-.21,1.05-.33.61-.58.85c-.25.24-.54.43-.89.57-.34.14-.71.2-1.12.2s-.79-.07-1.12-.2c-.34-.14-.63-.32-.88-.57-.25-.24-.44-.52-.58-.85Z" fill="#c0b68a"/>
    </g>
  </g>
</svg>