<?xml version="1.0" encoding="UTF-8"?>
<svg id="_レイヤー_2" xmlns="http://www.w3.org/2000/svg" width="90.87mm" height="22.78mm" version="1.1" viewBox="0 0 257.58 64.57">
  <!-- Generator: Adobe Illustrator 29.4.0, SVG Export Plug-In . SVG Version: 2.1.0 Build 152)  -->
  <g>
    <rect x=".96" y=".98" width="255.66" height="62.63" rx="4.1" ry="4.1" fill="#212a37"/>
    <path d="M252.52,64.11H5.06c-2.54,0-4.6-2.06-4.6-4.6V5.08c0-2.54,2.06-4.6,4.6-4.6h247.46c2.54,0,4.6,2.06,4.6,4.6v54.43c0,2.54-2.06,4.6-4.6,4.6ZM5.06,1.48c-1.99,0-3.6,1.62-3.6,3.6v54.43c0,1.98,1.61,3.6,3.6,3.6h247.46c1.99,0,3.6-1.62,3.6-3.6V5.08c0-1.98-1.62-3.6-3.6-3.6,0,0-247.46,0-247.46,0Z" fill="#414e5b"/>
  </g>
  <g>
    <path d="M240,9.25c-.04-.14-.17-.21-.31-.21H60.94v.02H17.68c-.14,0-.26.09-.31.21-1.21,3.87-4.26,6.92-8.13,8.13-.14.04-.21.17-.21.31v29.22c0,.14.09.26.21.31,3.87,1.21,6.92,4.26,8.13,8.13.04.14.17.21.31.21h178.76v-.02h43.26c.14,0,.26-.09.31-.21,1.21-3.87,4.26-6.92,8.13-8.13.14-.04.21-.17.21-.31v-29.22c0-.14-.09-.26-.21-.31-3.87-1.21-6.92-4.26-8.13-8.13h0ZM247.73,46.68c-3.89,1.28-6.97,4.35-8.25,8.23H60.95v.02H17.92c-1.28-3.89-4.36-6.96-8.25-8.25v-28.78c3.89-1.28,6.97-4.35,8.25-8.23h178.53v-.02h43.04c1.28,3.89,4.36,6.96,8.25,8.25v28.78h0Z" fill="#c0b68a"/>
    <path d="M252.08,14.2c-.08-.08-.19-.12-.31-.12-2.34,0-4.45-.94-6-2.49s-2.49-3.64-2.49-6c0-.11-.04-.23-.12-.31s-.19-.12-.31-.12H14.51c-.11,0-.23.04-.31.12s-.12.19-.12.31c0,2.34-.94,4.45-2.49,6s-3.64,2.49-6,2.49c-.11,0-.23.04-.31.12s-.12.19-.12.31v35.58c0,.11.04.23.12.31s.19.12.31.12c2.34,0,4.45.94,6,2.49s2.49,3.64,2.49,6c0,.11.04.23.12.31s.19.12.31.12h228.36c.11,0,.23-.04.31-.12s.12-.19.12-.31c0-2.34.94-4.45,2.49-6s3.64-2.49,6-2.49c.11,0,.23-.04.31-.12s.12-.19.12-.31V14.5c0-.11-.04-.23-.12-.31h-.02,0ZM251.35,49.66c-2.41.11-4.58,1.13-6.16,2.73-1.6,1.59-2.63,3.76-2.73,6.16H14.93c-.11-2.41-1.13-4.58-2.73-6.16-1.59-1.59-3.76-2.61-6.16-2.73V14.93c2.41-.11,4.58-1.13,6.16-2.73,1.6-1.59,2.63-3.76,2.73-6.16h227.54c.11,2.41,1.13,4.58,2.73,6.16,1.59,1.59,3.76,2.61,6.16,2.73v34.72h-.01Z" fill="#c0b68a"/>
  </g>
  <g>
    <g>
      <circle cx="7.75" cy="8.16" r="1.98" fill="#c0b68a"/>
      <circle cx="7.75" cy="56.44" r="1.98" fill="#c0b68a"/>
    </g>
    <g>
      <circle cx="249.84" cy="8.16" r="1.98" fill="#c0b68a"/>
      <circle cx="249.84" cy="56.44" r="1.98" fill="#c0b68a"/>
    </g>
  </g>
  <g>
    <g>
      <path d="M54.9,38.31h-10.17l5.08-11.03,5.08,11.03Z" fill="#131f2b"/>
      <path d="M66.2,38.3l-3.9-4.47-3.89,4.47v-11.03l3.89,4.47,3.9-4.47v11.03Z" fill="#131f2b"/>
      <path d="M76.41,34.24c.15.36.23.74.23,1.15s-.08.79-.23,1.15c-.15.36-.36.66-.63.93-.27.26-.6.47-.97.62-.38.15-.78.22-1.23.22s-.86-.08-1.24-.22c-.37-.15-.69-.36-.96-.62-.27-.26-.48-.57-.63-.93-.15-.36-.23-.74-.23-1.15s.08-.79.23-1.15c.15-.35.36-.66.63-.93.22-.21.47-.39.76-.53-.29-.14-.54-.31-.76-.53-.27-.26-.48-.57-.63-.93-.15-.35-.23-.74-.23-1.15s.08-.79.23-1.15c.15-.35.36-.66.63-.93.27-.26.59-.47.96-.62s.79-.22,1.24-.22.86.07,1.23.22c.38.15.7.36.97.62.27.26.48.57.63.93.15.35.23.74.23,1.15s-.08.79-.23,1.15c-.15.36-.36.66-.63.93-.22.21-.48.39-.76.53.29.14.54.31.76.53.27.26.48.57.63.93ZM75.14,35.38c0-.22-.04-.42-.13-.61s-.2-.35-.34-.48c-.14-.13-.31-.24-.5-.32-.19-.08-.39-.11-.6-.11s-.41.04-.6.11c-.19.08-.35.18-.49.32-.14.14-.25.3-.34.48-.08.18-.13.39-.13.61s.04.42.13.61c.08.19.19.35.34.48.14.13.31.24.49.32.19.08.39.11.6.11s.41-.04.6-.11c.19-.08.35-.18.5-.32.14-.14.26-.3.34-.48.08-.18.13-.39.13-.61Z" fill="#131f2b"/>
      <path d="M80.79,27.27h2.51v11.03h-2.51v-11.03ZM89.89,27.27v11.03l-5.64-11.03h5.64Z" fill="#131f2b"/>
      <path d="M98.33,35.76c.4.16.81.24,1.26.24h0v2.31h0c-.85,0-1.63-.14-2.34-.42-.71-.28-1.31-.67-1.82-1.17-.51-.5-.91-1.08-1.19-1.75-.29-.67-.43-1.39-.43-2.17s.14-1.5.43-2.17c.29-.67.68-1.25,1.19-1.75.51-.5,1.12-.89,1.82-1.17.71-.28,1.49-.42,2.34-.42h0v2.31h0c-.44,0-.86.08-1.26.24-.39.16-.74.38-1.04.67s-.53.63-.71,1.02c-.18.39-.26.82-.26,1.28s.09.89.26,1.28c.17.39.41.73.71,1.02.3.29.64.51,1.04.67h0ZM101.36,31.54v2.51h-3.27v-2.51h3.27Z" fill="#131f2b"/>
      <path d="M120.69,38.3l-3.9-4.47-3.89,4.47v-11.03l3.89,4.47,3.9-4.47v11.03Z" fill="#131f2b"/>
      <path d="M130.67,34.24c.15.36.23.74.23,1.15s-.08.79-.23,1.15c-.15.36-.36.66-.63.93-.27.26-.6.47-.97.62-.38.15-.78.22-1.23.22s-.86-.08-1.24-.22c-.37-.15-.69-.36-.96-.62-.27-.26-.48-.57-.63-.93-.15-.36-.23-.74-.23-1.15s.08-.79.23-1.15.36-.66.63-.93c.22-.21.47-.39.76-.53-.29-.14-.54-.31-.76-.53-.27-.26-.48-.57-.63-.93-.15-.35-.23-.74-.23-1.15s.08-.79.23-1.15c.15-.35.36-.66.63-.93.27-.26.59-.47.96-.62.37-.15.79-.22,1.24-.22s.86.07,1.23.22.7.36.97.62c.27.26.48.57.63.93.15.35.23.74.23,1.15s-.08.79-.23,1.15c-.15.36-.36.66-.63.93-.22.21-.48.39-.76.53.29.14.54.31.76.53.27.26.48.57.63.93ZM129.39,35.38c0-.22-.04-.42-.12-.61-.08-.19-.2-.35-.34-.48-.14-.13-.31-.24-.5-.32-.19-.08-.39-.11-.6-.11s-.41.04-.6.11c-.19.08-.35.18-.49.32-.14.14-.25.3-.34.48-.08.18-.12.39-.12.61s.04.42.12.61c.08.19.2.35.34.48.14.13.31.24.49.32.19.08.39.11.6.11s.41-.04.6-.11c.19-.08.35-.18.5-.32.14-.14.26-.3.34-.48.08-.18.12-.39.12-.61Z" fill="#131f2b"/>
      <path d="M142.4,27.27h1.87v6.22c0,1.67-.38,2.89-1.15,3.66-.76.77-1.94,1.15-3.52,1.15s-2.76-.38-3.53-1.15-1.15-1.99-1.15-3.66v-6.22h7.49,0Z" fill="#131f2b"/>
      <path d="M148,27.27h2.51v11.03h-2.51v-11.03ZM157.1,27.27v11.03l-5.64-11.03h5.64Z" fill="#131f2b"/>
      <path d="M167.69,36.01v2.29h-6.28v-11.03h6.28v2.29h-2.14v6.45h2.14Z" fill="#131f2b"/>
      <path d="M181.39,38.31h-10.17l5.08-11.03,5.08,11.03Z" fill="#131f2b"/>
      <path d="M184.76,27.27h5.66v5.12h-5.66v-5.12ZM190.18,34.6c.14.32.21.67.21,1.05s-.07.72-.21,1.05-.33.61-.58.85-.54.43-.88.57c-.34.13-.71.2-1.12.2s-.79-.07-1.12-.2c-.34-.14-.63-.33-.88-.57-.25-.24-.44-.52-.58-.85-.14-.32-.21-.67-.21-1.05s.07-.72.21-1.05.33-.61.58-.85c.24-.24.54-.43.88-.57.34-.14.72-.2,1.12-.2s.78.07,1.12.2c.34.14.64.33.88.57.25.24.44.52.58.85Z" fill="#131f2b"/>
      <path d="M195.04,27.27h2.51v11.03h-2.51v-11.03ZM204.14,27.27v11.03l-5.64-11.03h5.64Z" fill="#131f2b"/>
      <path d="M210.87,33.37c.31-.14.64-.21.99-.21h1.98v5.14h-1.98c-.35,0-.68-.07-.98-.21-.31-.14-.58-.33-.81-.56-.23-.24-.41-.51-.54-.82s-.2-.64-.2-.98.06-.66.19-.97c.13-.31.31-.59.54-.82.23-.24.5-.43.81-.57h0ZM212.31,32.2c-.31.14-.64.21-.99.21h-1.98v-5.14h1.98c.35,0,.68.07.99.21.31.14.58.33.8.56.23.24.41.51.54.82.13.31.2.64.2.98s-.06.66-.2.97c-.13.31-.31.59-.54.82-.23.24-.5.43-.8.57h0Z" fill="#131f2b"/>
    </g>
    <g>
      <path d="M53.9,37.31h-10.17l5.08-11.03,5.08,11.03Z" fill="#c0b68a"/>
      <path d="M65.2,37.3l-3.9-4.47-3.89,4.47v-11.03l3.89,4.47,3.9-4.47v11.03Z" fill="#c0b68a"/>
      <path d="M75.41,33.24c.15.36.23.74.23,1.15s-.08.79-.23,1.15c-.15.36-.36.66-.63.93-.27.26-.6.47-.97.62-.38.15-.78.22-1.23.22s-.86-.08-1.24-.22c-.37-.15-.69-.36-.96-.62-.27-.26-.48-.57-.63-.93-.15-.36-.23-.74-.23-1.15s.08-.79.23-1.15c.15-.35.36-.66.63-.93.22-.21.47-.39.76-.53-.29-.14-.54-.31-.76-.53-.27-.26-.48-.57-.63-.93-.15-.35-.23-.74-.23-1.15s.08-.79.23-1.15c.15-.35.36-.66.63-.93.27-.26.59-.47.96-.62s.79-.22,1.24-.22.86.07,1.23.22c.38.15.7.36.97.62.27.26.48.57.63.93.15.35.23.74.23,1.15s-.08.79-.23,1.15c-.15.36-.36.66-.63.93-.22.21-.48.39-.76.53.29.14.54.31.76.53.27.26.48.57.63.93ZM74.14,34.38c0-.22-.04-.42-.13-.61s-.2-.35-.34-.48c-.14-.13-.31-.24-.5-.32-.19-.08-.39-.11-.6-.11s-.41.04-.6.11c-.19.08-.35.18-.49.32-.14.14-.25.3-.34.48-.08.18-.13.39-.13.61s.04.42.13.61c.08.19.19.35.34.48.14.13.31.24.49.32.19.08.39.11.6.11s.41-.04.6-.11c.19-.08.35-.18.5-.32.14-.14.26-.3.34-.48.08-.18.13-.39.13-.61Z" fill="#c0b68a"/>
      <path d="M79.79,26.27h2.51v11.03h-2.51v-11.03ZM88.89,26.27v11.03l-5.64-11.03h5.64Z" fill="#c0b68a"/>
      <path d="M97.33,34.76c.4.16.81.24,1.26.24h0v2.31h0c-.85,0-1.63-.14-2.34-.42-.71-.28-1.31-.67-1.82-1.17-.51-.5-.91-1.08-1.19-1.75-.29-.67-.43-1.39-.43-2.17s.14-1.5.43-2.17c.29-.67.68-1.25,1.19-1.75.51-.5,1.12-.89,1.82-1.17.71-.28,1.49-.42,2.34-.42h0v2.31h0c-.44,0-.86.08-1.26.24-.39.16-.74.38-1.04.67s-.53.63-.71,1.02c-.18.39-.26.82-.26,1.28s.09.89.26,1.28c.17.39.41.73.71,1.02.3.29.64.51,1.04.67h0ZM100.36,30.54v2.51h-3.27v-2.51h3.27Z" fill="#c0b68a"/>
      <path d="M119.69,37.3l-3.9-4.47-3.89,4.47v-11.03l3.89,4.47,3.9-4.47v11.03Z" fill="#c0b68a"/>
      <path d="M129.67,33.24c.15.36.23.74.23,1.15s-.08.79-.23,1.15c-.15.36-.36.66-.63.93-.27.26-.6.47-.97.62-.38.15-.78.22-1.23.22s-.86-.08-1.24-.22c-.37-.15-.69-.36-.96-.62-.27-.26-.48-.57-.63-.93-.15-.36-.23-.74-.23-1.15s.08-.79.23-1.15.36-.66.63-.93c.22-.21.47-.39.76-.53-.29-.14-.54-.31-.76-.53-.27-.26-.48-.57-.63-.93-.15-.35-.23-.74-.23-1.15s.08-.79.23-1.15c.15-.35.36-.66.63-.93.27-.26.59-.47.96-.62.37-.15.79-.22,1.24-.22s.86.07,1.23.22.7.36.97.62c.27.26.48.57.63.93.15.35.23.74.23,1.15s-.08.79-.23,1.15c-.15.36-.36.66-.63.93-.22.21-.48.39-.76.53.29.14.54.31.76.53.27.26.48.57.63.93ZM128.39,34.38c0-.22-.04-.42-.12-.61-.08-.19-.2-.35-.34-.48-.14-.13-.31-.24-.5-.32-.19-.08-.39-.11-.6-.11s-.41.04-.6.11c-.19.08-.35.18-.49.32-.14.14-.25.3-.34.48-.08.18-.12.39-.12.61s.04.42.12.61c.08.19.2.35.34.48.14.13.31.24.49.32.19.08.39.11.6.11s.41-.04.6-.11c.19-.08.35-.18.5-.32.14-.14.26-.3.34-.48.08-.18.12-.39.12-.61Z" fill="#c0b68a"/>
      <path d="M141.4,26.27h1.87v6.22c0,1.67-.38,2.89-1.15,3.66-.76.77-1.94,1.15-3.52,1.15s-2.76-.38-3.53-1.15-1.15-1.99-1.15-3.66v-6.22h7.49,0Z" fill="#c0b68a"/>
      <path d="M147,26.27h2.51v11.03h-2.51v-11.03ZM156.1,26.27v11.03l-5.64-11.03h5.64Z" fill="#c0b68a"/>
      <path d="M166.69,35.01v2.29h-6.28v-11.03h6.28v2.29h-2.14v6.45h2.14Z" fill="#c0b68a"/>
      <path d="M180.39,37.31h-10.17l5.08-11.03,5.08,11.03Z" fill="#c0b68a"/>
      <path d="M183.76,26.27h5.66v5.12h-5.66v-5.12ZM189.18,33.6c.14.32.21.67.21,1.05s-.07.72-.21,1.05-.33.61-.58.85-.54.43-.88.57c-.34.13-.71.2-1.12.2s-.79-.07-1.12-.2c-.34-.14-.63-.33-.88-.57-.25-.24-.44-.52-.58-.85-.14-.32-.21-.67-.21-1.05s.07-.72.21-1.05.33-.61.58-.85c.24-.24.54-.43.88-.57.34-.14.72-.2,1.12-.2s.78.07,1.12.2c.34.14.64.33.88.57.25.24.44.52.58.85Z" fill="#c0b68a"/>
      <path d="M194.04,26.27h2.51v11.03h-2.51v-11.03ZM203.14,26.27v11.03l-5.64-11.03h5.64Z" fill="#c0b68a"/>
      <path d="M209.87,32.37c.31-.14.64-.21.99-.21h1.98v5.14h-1.98c-.35,0-.68-.07-.98-.21-.31-.14-.58-.33-.81-.56-.23-.24-.41-.51-.54-.82s-.2-.64-.2-.98.06-.66.19-.97c.13-.31.31-.59.54-.82.23-.24.5-.43.81-.57h0ZM211.31,31.2c-.31.14-.64.21-.99.21h-1.98v-5.14h1.98c.35,0,.68.07.99.21.31.14.58.33.8.56.23.24.41.51.54.82.13.31.2.64.2.98s-.06.66-.2.97c-.13.31-.31.59-.54.82-.23.24-.5.43-.8.57h0Z" fill="#c0b68a"/>
    </g>
  </g>
</svg>