<?xml version="1.0" encoding="UTF-8"?>
<svg id="_レイヤー_2" xmlns="http://www.w3.org/2000/svg" width="257.59" height="64.56" version="1.1" viewBox="0 0 257.59 64.56">
  <!-- Generator: Adobe Illustrator 29.4.0, SVG Export Plug-In . SVG Version: 2.1.0 Build 152)  -->
  <g>
    <rect x=".96" y=".97" width="255.67" height="62.63" rx="4.1" ry="4.1" fill="#212a37"/>
    <path d="M252.53,64.1H5.06c-2.54,0-4.6-2.06-4.6-4.6V5.07c0-2.54,2.06-4.6,4.6-4.6h247.47c2.54,0,4.6,2.06,4.6,4.6v54.43c0,2.54-2.06,4.6-4.6,4.6ZM5.06,1.47c-1.99,0-3.6,1.62-3.6,3.6v54.43c0,1.98,1.61,3.6,3.6,3.6h247.47c1.99,0,3.6-1.62,3.6-3.6V5.07c0-1.98-1.62-3.6-3.6-3.6,0,0-247.47,0-247.47,0Z" fill="#414e5b"/>
  </g>
  <g>
    <path d="M240.01,9.24c-.04-.14-.17-.21-.31-.21H60.94v.02H17.68c-.14,0-.26.09-.31.21-1.21,3.87-4.26,6.92-8.13,8.13-.14.04-.21.17-.21.31v29.22c0,.14.09.26.21.31,3.87,1.21,6.92,4.26,8.13,8.13.04.14.17.21.31.21h178.76v-.02h43.26c.14,0,.26-.09.31-.21,1.21-3.87,4.26-6.92,8.13-8.13.14-.04.21-.17.21-.31v-29.22c0-.14-.09-.26-.21-.31-3.87-1.21-6.92-4.26-8.13-8.13h0ZM247.74,46.67c-3.89,1.28-6.97,4.35-8.25,8.23H60.95v.02H17.92c-1.28-3.89-4.36-6.96-8.25-8.25v-28.78c3.89-1.28,6.97-4.35,8.25-8.23h178.53v-.02h43.04c1.28,3.89,4.36,6.96,8.25,8.25v28.78h0Z" fill="#c0b68a"/>
    <path d="M252.09,14.19c-.08-.08-.19-.12-.31-.12-2.34,0-4.45-.94-6-2.49s-2.49-3.64-2.49-6c0-.11-.04-.23-.12-.31s-.19-.12-.31-.12H14.51c-.11,0-.23.04-.31.12s-.12.19-.12.31c0,2.34-.94,4.45-2.49,6s-3.64,2.49-6,2.49c-.11,0-.23.04-.31.12s-.12.19-.12.31v35.58c0,.11.04.23.12.31s.19.12.31.12c2.34,0,4.45.94,6,2.49s2.49,3.64,2.49,6c0,.11.04.23.12.31s.19.12.31.12h228.37c.11,0,.23-.04.31-.12s.12-.19.12-.31c0-2.34.94-4.45,2.49-6s3.64-2.49,6-2.49c.11,0,.23-.04.31-.12s.12-.19.12-.31V14.49c0-.11-.04-.23-.12-.31h-.02,0ZM251.36,49.65c-2.41.11-4.58,1.13-6.16,2.73-1.6,1.59-2.63,3.76-2.73,6.16H14.93c-.11-2.41-1.13-4.58-2.73-6.16-1.59-1.59-3.76-2.61-6.16-2.73V14.92c2.41-.11,4.58-1.13,6.16-2.73,1.6-1.59,2.63-3.76,2.73-6.16h227.55c.11,2.41,1.13,4.58,2.73,6.16,1.59,1.59,3.76,2.61,6.16,2.73v34.72h-.01Z" fill="#c0b68a"/>
  </g>
  <g>
    <g>
      <circle cx="7.75" cy="8.15" r="1.98" fill="#c0b68a"/>
      <circle cx="7.75" cy="56.43" r="1.98" fill="#c0b68a"/>
    </g>
    <g>
      <circle cx="249.85" cy="8.15" r="1.98" fill="#c0b68a"/>
      <circle cx="249.85" cy="56.43" r="1.98" fill="#c0b68a"/>
    </g>
  </g>
  <g>
    <path d="M85.56,38.09c-.2-.01-.46-.03-.75-.04-.3-.01-.63-.02-1-.02l-1.41.02c-.25.01-.6.02-1.03.02-.03,0-.04-.04-.04-.12s.01-.12.04-.12c.41,0,.71-.03.9-.1.19-.06.32-.19.39-.37.07-.19.1-.47.1-.85v-8.85c0-.38-.04-.66-.1-.84-.07-.18-.2-.3-.38-.37-.18-.07-.47-.1-.87-.1-.04,0-.06-.04-.06-.11s.02-.12.06-.12l1.01.02c.59.03,1.05.04,1.4.04.52,0,1.06-.02,1.61-.06.66-.03,1.11-.04,1.34-.04,1.29,0,2.43.25,3.43.76,1,.51,1.77,1.2,2.32,2.08s.82,1.87.82,2.96c0,1.24-.28,2.33-.85,3.28s-1.33,1.68-2.29,2.2c-.96.52-2.02.77-3.16.77-.41,0-.89-.02-1.45-.06ZM88.98,37.09c.62-.41,1.11-1.03,1.46-1.84.35-.82.53-1.79.53-2.92s-.17-2.07-.5-2.95c-.33-.89-.8-1.58-1.41-2.09-.61-.51-1.32-.76-2.12-.76s-1.33.08-1.62.23c-.29.15-.44.48-.44.97v8.6c0,.51.13.87.4,1.08.27.21.78.32,1.55.32.82,0,1.54-.21,2.16-.62Z" fill="#131f2b"/>
    <path d="M100.82,30.82c.27.21.41.46.41.76,0,.27-.08.49-.25.66-.17.17-.38.26-.65.26-.19,0-.35-.04-.47-.11-.12-.08-.25-.19-.37-.34-.11-.13-.21-.22-.3-.28-.08-.06-.18-.09-.3-.09-.13,0-.26.05-.41.14-.15.1-.37.3-.68.6v4.11c0,.51.12.86.36,1.04.24.19.69.28,1.34.28.05,0,.08.04.08.12s-.03.12-.08.12c-.45,0-.8,0-1.05-.02l-1.55-.02-1.13.02c-.19.01-.45.02-.78.02-.04,0-.06-.04-.06-.12s.02-.12.06-.12c.4,0,.66-.09.8-.28.14-.18.21-.53.21-1.04v-3.59c0-.39-.05-.68-.14-.87-.1-.18-.25-.28-.45-.28-.22,0-.52.09-.92.27h-.04s-.07-.03-.09-.1c-.02-.06-.02-.1,0-.11l2.66-1.3c.08-.03.12-.04.13-.04.14,0,.27.13.39.39s.19.61.22,1.06c.52-.54.95-.91,1.29-1.13.34-.22.63-.32.89-.32.29,0,.58.11.85.31Z" fill="#131f2b"/>
    <path d="M108.69,36.81s.05.03.09.08c.03.05.03.09,0,.12-.47.46-.95.79-1.43.99-.48.2-1.01.3-1.59.3-.8,0-1.5-.17-2.08-.51-.59-.34-1.03-.79-1.34-1.36s-.46-1.18-.46-1.84c0-.74.18-1.42.55-2.04.37-.62.88-1.12,1.54-1.48s1.4-.54,2.23-.54,1.4.18,1.83.54c.43.36.65.91.65,1.66,0,.39-.07.59-.21.59l-4.64.02c-.01.09-.02.24-.02.44,0,1.12.26,2,.77,2.64.52.64,1.26.96,2.23.96.34,0,.64-.04.88-.12.24-.08.56-.22.96-.42l.04-.02ZM104.42,31.45c-.28.36-.47.86-.55,1.5l2.77-.04c-.01-.65-.11-1.15-.29-1.49-.18-.34-.47-.52-.88-.52s-.77.18-1.05.54Z" fill="#131f2b"/>
    <path d="M117.23,37.04c.05,0,.09.03.1.09.02.06,0,.1-.05.12l-1.97.94c-.05.03-.11.04-.19.04-.2,0-.4-.11-.58-.32-.19-.22-.32-.51-.39-.88l-.82.57c-.29.22-.57.37-.82.47s-.54.14-.86.14c-.55,0-.96-.12-1.24-.36-.28-.24-.42-.58-.42-1.01,0-.34.08-.62.25-.83s.37-.38.62-.5c.25-.12.6-.26,1.04-.41l.48-.17,1.72-.63v-1.09c0-.82-.07-1.41-.2-1.78-.13-.37-.36-.55-.68-.55-.68,0-1.06.52-1.15,1.57-.04.38-.15.66-.33.82-.19.17-.44.25-.77.25s-.55-.07-.7-.2-.22-.31-.22-.53c0-.38.22-.75.67-1.1.45-.35.98-.63,1.61-.85.63-.22,1.19-.32,1.67-.32.56,0,1.02.17,1.37.53.35.35.53.88.53,1.6v3.38c0,.37.07.66.2.86.13.21.32.31.56.31.18,0,.36-.04.55-.13h.02ZM114.11,36.7c-.01-.05-.02-.13-.02-.25v-1.83l-.82.38s-.17.06-.38.14c-.22.08-.4.22-.56.41s-.24.41-.24.67c0,.3.1.54.3.72.2.17.42.26.68.26.2,0,.41-.07.63-.21l.42-.29Z" fill="#131f2b"/>
    <path d="M131.85,37.96c0,.08-.03.12-.08.12-.33,0-.59,0-.78-.02l-1.15-.02-1.11.02c-.2.01-.47.02-.8.02-.04,0-.06-.04-.06-.12s.02-.12.06-.12c.4,0,.67-.09.81-.28.15-.18.22-.53.22-1.04v-2.75c0-.69-.12-1.2-.35-1.53-.24-.33-.6-.5-1.08-.5-.33,0-.66.07-.97.21-.32.14-.59.33-.82.57v3.99c0,.51.07.86.22,1.04.15.19.42.28.81.28.05,0,.08.04.08.12s-.03.12-.08.12c-.33,0-.59,0-.78-.02l-1.15-.02-1.11.02c-.2.01-.47.02-.8.02-.04,0-.06-.04-.06-.12s.02-.12.06-.12c.39,0,.67-.09.81-.28.15-.18.22-.53.22-1.04v-2.75c0-.69-.12-1.2-.35-1.53-.24-.33-.6-.5-1.08-.5-.31,0-.61.06-.91.18s-.56.29-.79.51v4.09c0,.51.07.86.22,1.04.15.19.42.28.81.28.04,0,.06.04.06.12s-.02.12-.06.12c-.33,0-.59,0-.78-.02l-1.15-.02-1.13.02c-.19.01-.45.02-.78.02-.04,0-.06-.04-.06-.12s.02-.12.06-.12c.4,0,.66-.09.8-.28.14-.18.21-.53.21-1.04v-3.59c0-.39-.05-.68-.14-.87-.1-.18-.25-.28-.45-.28-.22,0-.52.09-.92.27h-.04s-.07-.03-.09-.1c-.02-.06-.02-.1,0-.11l2.66-1.3c.08-.03.12-.04.13-.04.14,0,.27.14.4.41.13.27.2.64.23,1.1.87-1.03,1.8-1.55,2.79-1.55.6,0,1.08.15,1.43.44.36.29.57.71.65,1.26.88-1.13,1.85-1.7,2.92-1.7.69,0,1.21.2,1.58.59.36.39.54.99.54,1.8v3.67c0,.51.07.86.22,1.04.15.19.42.28.81.28.05,0,.08.04.08.12Z" fill="#131f2b"/>
    <path d="M134.76,32.57c.26.27.64.55,1.14.84.48.28.84.5,1.08.66.24.16.45.38.64.67.19.29.29.63.29,1.04,0,.43-.11.84-.33,1.22-.22.38-.54.69-.97.93-.43.24-.95.35-1.55.35-.7,0-1.36-.17-1.99-.52-.08-.08-.12-.15-.12-.23l-.04-1.89s.04-.06.11-.07c.07,0,.11,0,.12.03.2.64.54,1.18,1.01,1.62.47.45.95.67,1.43.67.27,0,.48-.08.64-.25.16-.16.24-.41.24-.72,0-.47-.13-.84-.4-1.12-.27-.27-.66-.56-1.18-.85-.45-.24-.78-.44-1.01-.59-.23-.15-.43-.37-.61-.65-.18-.28-.27-.62-.27-1.03,0-.75.27-1.3.8-1.65s1.19-.53,1.97-.53c.29,0,.56.02.79.06.24.04.5.12.79.23.12.04.17.11.17.21,0,.32,0,.57-.02.75l-.02.96s-.04.06-.11.06-.11-.02-.11-.06c0-.24-.1-.51-.31-.79-.2-.29-.47-.53-.79-.74-.32-.2-.66-.3-1-.3-.52,0-.78.25-.78.75,0,.37.13.69.39.96Z" fill="#131f2b"/>
    <path d="M140.9,37.76c-.58-.36-1.01-.83-1.3-1.41-.29-.58-.43-1.19-.43-1.82,0-.8.22-1.51.67-2.11.45-.6,1.02-1.07,1.71-1.4.69-.32,1.41-.49,2.13-.49.61,0,1.16.13,1.65.38.49.26.74.61.74,1.05,0,.24-.09.45-.28.62s-.44.26-.77.26c-.31,0-.55-.08-.73-.24-.18-.16-.33-.4-.44-.74-.12-.36-.23-.6-.33-.74s-.3-.2-.58-.2c-.55,0-.98.27-1.31.81-.33.54-.49,1.26-.49,2.15,0,1.06.24,1.9.71,2.53.47.63,1.22.95,2.25.95.34,0,.64-.04.89-.12.25-.08.56-.2.95-.38h.02s.07.02.11.06c.03.04.04.07,0,.1-.47.43-.94.75-1.41.96-.47.21-1.01.31-1.62.31-.84,0-1.55-.18-2.13-.54Z" fill="#131f2b"/>
    <path d="M154.65,37.04c.05,0,.09.03.1.09.02.06,0,.1-.05.12l-1.97.94c-.05.03-.12.04-.19.04-.2,0-.4-.11-.58-.32s-.32-.51-.39-.88l-.82.57c-.29.22-.57.37-.82.47s-.54.14-.86.14c-.55,0-.96-.12-1.24-.36s-.42-.58-.42-1.01c0-.34.08-.62.25-.83.17-.21.37-.38.62-.5s.6-.26,1.04-.41l.48-.17,1.72-.63v-1.09c0-.82-.07-1.41-.2-1.78-.13-.37-.36-.55-.68-.55-.68,0-1.06.52-1.15,1.57-.04.38-.15.66-.33.82s-.44.25-.77.25-.55-.07-.7-.2-.22-.31-.22-.53c0-.38.22-.75.67-1.1.45-.35.98-.63,1.62-.85s1.19-.32,1.67-.32c.56,0,1.02.17,1.37.53.35.35.53.88.53,1.6v3.38c0,.37.07.66.2.86.13.21.32.31.56.31.18,0,.36-.04.55-.13h.02ZM151.53,36.7c-.01-.05-.02-.13-.02-.25v-1.83l-.82.38s-.17.06-.38.14c-.22.08-.4.22-.56.41s-.24.41-.24.67c0,.3.1.54.3.72.2.17.42.26.68.26.2,0,.41-.07.63-.21l.42-.29Z" fill="#131f2b"/>
    <path d="M158.03,38.11v3.67c0,.38.04.66.12.84.08.18.24.3.48.37.24.07.6.11,1.1.11.04,0,.06.04.06.12s-.02.12-.06.12c-.47,0-.84,0-1.11-.02l-1.51-.02-1.13.02c-.19.01-.46.02-.8.02-.04,0-.06-.04-.06-.12s.02-.12.06-.12c.31,0,.53-.04.68-.11s.25-.19.31-.37c.06-.18.09-.46.09-.84v-8.85c0-.41-.04-.7-.13-.88-.09-.18-.25-.27-.48-.27-.2,0-.5.09-.88.27h-.04s-.07-.03-.11-.1c-.03-.06-.04-.1,0-.11l2.71-1.32s.06-.02.1-.02c.13,0,.25.11.35.32s.18.51.22.88c.93-.84,1.89-1.26,2.87-1.26.54,0,1.04.14,1.5.42.46.28.84.69,1.12,1.22s.42,1.16.42,1.87c0,1.02-.21,1.86-.63,2.51-.42.66-.95,1.13-1.6,1.41-.64.29-1.31.43-2,.43-.62,0-1.17-.07-1.64-.21ZM158.03,32.13v4.76c.28.32.57.56.88.72.31.16.68.24,1.13.24,1.29,0,1.93-1.1,1.93-3.29,0-.97-.23-1.72-.68-2.25s-1.02-.79-1.69-.79c-.57,0-1.1.2-1.57.61Z" fill="#131f2b"/>
    <path d="M171.91,36.81s.05.03.09.08c.03.05.04.09,0,.12-.47.46-.95.79-1.43.99-.48.2-1.01.3-1.59.3-.8,0-1.5-.17-2.08-.51-.59-.34-1.03-.79-1.34-1.36s-.46-1.18-.46-1.84c0-.74.18-1.42.55-2.04.37-.62.88-1.12,1.54-1.48s1.4-.54,2.23-.54,1.4.18,1.83.54c.43.36.65.91.65,1.66,0,.39-.07.59-.21.59l-4.64.02c-.01.09-.02.24-.02.44,0,1.12.26,2,.77,2.64.52.64,1.26.96,2.23.96.34,0,.64-.04.88-.12s.56-.22.96-.42l.04-.02ZM167.64,31.45c-.28.36-.47.86-.55,1.5l2.77-.04c-.01-.65-.11-1.15-.29-1.49-.18-.34-.47-.52-.88-.52s-.77.18-1.05.54Z" fill="#131f2b"/>
    <path d="M175.13,32.57c.26.27.64.55,1.14.84.48.28.84.5,1.08.66.24.16.45.38.64.67.19.29.29.63.29,1.04,0,.43-.11.84-.33,1.22-.22.38-.54.69-.97.93-.43.24-.95.35-1.55.35-.7,0-1.36-.17-1.99-.52-.08-.08-.12-.15-.12-.23l-.04-1.89s.04-.06.11-.07c.07,0,.11,0,.12.03.2.64.54,1.18,1.01,1.62.47.45.95.67,1.43.67.27,0,.48-.08.64-.25.16-.16.24-.41.24-.72,0-.47-.13-.84-.4-1.12-.27-.27-.66-.56-1.18-.85-.45-.24-.78-.44-1.01-.59-.23-.15-.43-.37-.61-.65-.18-.28-.27-.62-.27-1.03,0-.75.27-1.3.8-1.65s1.19-.53,1.97-.53c.29,0,.56.02.79.06.24.04.5.12.79.23.12.04.17.11.17.21,0,.32,0,.57-.02.75l-.02.96s-.04.06-.11.06-.11-.02-.11-.06c0-.24-.1-.51-.31-.79-.2-.29-.47-.53-.79-.74-.32-.2-.66-.3-1-.3-.52,0-.78.25-.78.75,0,.37.13.69.39.96Z" fill="#131f2b"/>
  </g>
  <g>
    <path d="M84.56,37.09c-.2-.01-.46-.03-.75-.04-.3-.01-.63-.02-1-.02l-1.41.02c-.25.01-.6.02-1.03.02-.03,0-.04-.04-.04-.12s.01-.12.04-.12c.41,0,.71-.03.9-.1.19-.06.32-.19.39-.37.07-.19.1-.47.1-.85v-8.85c0-.38-.04-.66-.1-.84-.07-.18-.2-.3-.38-.37-.18-.07-.47-.1-.87-.1-.04,0-.06-.04-.06-.11s.02-.12.06-.12l1.01.02c.59.03,1.05.04,1.4.04.52,0,1.06-.02,1.61-.06.66-.03,1.11-.04,1.34-.04,1.29,0,2.43.25,3.43.76,1,.51,1.77,1.2,2.32,2.08s.82,1.87.82,2.96c0,1.24-.28,2.33-.85,3.28s-1.33,1.68-2.29,2.2c-.96.52-2.02.77-3.16.77-.41,0-.89-.02-1.45-.06ZM87.98,36.09c.62-.41,1.11-1.03,1.46-1.84.35-.82.53-1.79.53-2.92s-.17-2.07-.5-2.95c-.33-.89-.8-1.58-1.41-2.09-.61-.51-1.32-.76-2.12-.76s-1.33.08-1.62.23c-.29.15-.44.48-.44.97v8.6c0,.51.13.87.4,1.08.27.21.78.32,1.55.32.82,0,1.54-.21,2.16-.62Z" fill="#c0b68a"/>
    <path d="M99.82,29.82c.27.21.41.46.41.76,0,.27-.08.49-.25.66-.17.17-.38.26-.65.26-.19,0-.35-.04-.47-.11-.12-.08-.25-.19-.37-.34-.11-.13-.21-.22-.3-.28-.08-.06-.18-.09-.3-.09-.13,0-.26.05-.41.14-.15.1-.37.3-.68.6v4.11c0,.51.12.86.36,1.04.24.19.69.28,1.34.28.05,0,.08.04.08.12s-.03.12-.08.12c-.45,0-.8,0-1.05-.02l-1.55-.02-1.13.02c-.19.01-.45.02-.78.02-.04,0-.06-.04-.06-.12s.02-.12.06-.12c.4,0,.66-.09.8-.28.14-.18.21-.53.21-1.04v-3.59c0-.39-.05-.68-.14-.87-.1-.18-.25-.28-.45-.28-.22,0-.52.09-.92.27h-.04s-.07-.03-.09-.1c-.02-.06-.02-.1,0-.11l2.66-1.3c.08-.03.12-.04.13-.04.14,0,.27.13.39.39s.19.61.22,1.06c.52-.54.95-.91,1.29-1.13.34-.22.63-.32.89-.32.29,0,.58.11.85.31Z" fill="#c0b68a"/>
    <path d="M107.69,35.81s.05.03.09.08c.03.05.03.09,0,.12-.47.46-.95.79-1.43.99-.48.2-1.01.3-1.59.3-.8,0-1.5-.17-2.08-.51-.59-.34-1.03-.79-1.34-1.36s-.46-1.18-.46-1.84c0-.74.18-1.42.55-2.04.37-.62.88-1.12,1.54-1.48s1.4-.54,2.23-.54,1.4.18,1.83.54c.43.36.65.91.65,1.66,0,.39-.07.59-.21.59l-4.64.02c-.01.09-.02.24-.02.44,0,1.12.26,2,.77,2.64.52.64,1.26.96,2.23.96.34,0,.64-.04.88-.12.24-.08.56-.22.96-.42l.04-.02ZM103.42,30.45c-.28.36-.47.86-.55,1.5l2.77-.04c-.01-.65-.11-1.15-.29-1.49-.18-.34-.47-.52-.88-.52s-.77.18-1.05.54Z" fill="#c0b68a"/>
    <path d="M116.23,36.04c.05,0,.09.03.1.09.02.06,0,.1-.05.12l-1.97.94c-.05.03-.11.04-.19.04-.2,0-.4-.11-.58-.32-.19-.22-.32-.51-.39-.88l-.82.57c-.29.22-.57.37-.82.47s-.54.14-.86.14c-.55,0-.96-.12-1.24-.36-.28-.24-.42-.58-.42-1.01,0-.34.08-.62.25-.83s.37-.38.62-.5c.25-.12.6-.26,1.04-.41l.48-.17,1.72-.63v-1.09c0-.82-.07-1.41-.2-1.78-.13-.37-.36-.55-.68-.55-.68,0-1.06.52-1.15,1.57-.04.38-.15.66-.33.82-.19.17-.44.25-.77.25s-.55-.07-.7-.2-.22-.31-.22-.53c0-.38.22-.75.67-1.1.45-.35.98-.63,1.61-.85.63-.22,1.19-.32,1.67-.32.56,0,1.02.17,1.37.53.35.35.53.88.53,1.6v3.38c0,.37.07.66.2.86.13.21.32.31.56.31.18,0,.36-.04.55-.13h.02ZM113.11,35.7c-.01-.05-.02-.13-.02-.25v-1.83l-.82.38s-.17.06-.38.14c-.22.08-.4.22-.56.41s-.24.41-.24.67c0,.3.1.54.3.72.2.17.42.26.68.26.2,0,.41-.07.63-.21l.42-.29Z" fill="#c0b68a"/>
    <path d="M130.85,36.96c0,.08-.03.12-.08.12-.33,0-.59,0-.78-.02l-1.15-.02-1.11.02c-.2.01-.47.02-.8.02-.04,0-.06-.04-.06-.12s.02-.12.06-.12c.4,0,.67-.09.81-.28.15-.18.22-.53.22-1.04v-2.75c0-.69-.12-1.2-.35-1.53-.24-.33-.6-.5-1.08-.5-.33,0-.66.07-.97.21-.32.14-.59.33-.82.57v3.99c0,.51.07.86.22,1.04.15.19.42.28.81.28.05,0,.08.04.08.12s-.03.12-.08.12c-.33,0-.59,0-.78-.02l-1.15-.02-1.11.02c-.2.01-.47.02-.8.02-.04,0-.06-.04-.06-.12s.02-.12.06-.12c.39,0,.67-.09.81-.28.15-.18.22-.53.22-1.04v-2.75c0-.69-.12-1.2-.35-1.53-.24-.33-.6-.5-1.08-.5-.31,0-.61.06-.91.18s-.56.29-.79.51v4.09c0,.51.07.86.22,1.04.15.19.42.28.81.28.04,0,.06.04.06.12s-.02.12-.06.12c-.33,0-.59,0-.78-.02l-1.15-.02-1.13.02c-.19.01-.45.02-.78.02-.04,0-.06-.04-.06-.12s.02-.12.06-.12c.4,0,.66-.09.8-.28.14-.18.21-.53.21-1.04v-3.59c0-.39-.05-.68-.14-.87-.1-.18-.25-.28-.45-.28-.22,0-.52.09-.92.27h-.04s-.07-.03-.09-.1c-.02-.06-.02-.1,0-.11l2.66-1.3c.08-.03.12-.04.13-.04.14,0,.27.14.4.41.13.27.2.64.23,1.1.87-1.03,1.8-1.55,2.79-1.55.6,0,1.08.15,1.43.44.36.29.57.71.65,1.26.88-1.13,1.85-1.7,2.92-1.7.69,0,1.21.2,1.58.59.36.39.54.99.54,1.8v3.67c0,.51.07.86.22,1.04.15.19.42.28.81.28.05,0,.08.04.08.12Z" fill="#c0b68a"/>
    <path d="M133.76,31.57c.26.27.64.55,1.14.84.48.28.84.5,1.08.66.24.16.45.38.64.67.19.29.29.63.29,1.04,0,.43-.11.84-.33,1.22-.22.38-.54.69-.97.93-.43.24-.95.35-1.55.35-.7,0-1.36-.17-1.99-.52-.08-.08-.12-.15-.12-.23l-.04-1.89s.04-.06.11-.07c.07,0,.11,0,.12.03.2.64.54,1.18,1.01,1.62.47.45.95.67,1.43.67.27,0,.48-.08.64-.25.16-.16.24-.41.24-.72,0-.47-.13-.84-.4-1.12-.27-.27-.66-.56-1.18-.85-.45-.24-.78-.44-1.01-.59-.23-.15-.43-.37-.61-.65-.18-.28-.27-.62-.27-1.03,0-.75.27-1.3.8-1.65s1.19-.53,1.97-.53c.29,0,.56.02.79.06.24.04.5.12.79.23.12.04.17.11.17.21,0,.32,0,.57-.02.75l-.02.96s-.04.06-.11.06-.11-.02-.11-.06c0-.24-.1-.51-.31-.79-.2-.29-.47-.53-.79-.74-.32-.2-.66-.3-1-.3-.52,0-.78.25-.78.75,0,.37.13.69.39.96Z" fill="#c0b68a"/>
    <path d="M139.9,36.76c-.58-.36-1.01-.83-1.3-1.41-.29-.58-.43-1.19-.43-1.82,0-.8.22-1.51.67-2.11.45-.6,1.02-1.07,1.71-1.4.69-.32,1.41-.49,2.13-.49.61,0,1.16.13,1.65.38.49.26.74.61.74,1.05,0,.24-.09.45-.28.62s-.44.26-.77.26c-.31,0-.55-.08-.73-.24-.18-.16-.33-.4-.44-.74-.12-.36-.23-.6-.33-.74s-.3-.2-.58-.2c-.55,0-.98.27-1.31.81-.33.54-.49,1.26-.49,2.15,0,1.06.24,1.9.71,2.53.47.63,1.22.95,2.25.95.34,0,.64-.04.89-.12.25-.08.56-.2.95-.38h.02s.07.02.11.06c.03.04.04.07,0,.1-.47.43-.94.75-1.41.96-.47.21-1.01.31-1.62.31-.84,0-1.55-.18-2.13-.54Z" fill="#c0b68a"/>
    <path d="M153.65,36.04c.05,0,.09.03.1.09.02.06,0,.1-.05.12l-1.97.94c-.05.03-.12.04-.19.04-.2,0-.4-.11-.58-.32s-.32-.51-.39-.88l-.82.57c-.29.22-.57.37-.82.47s-.54.14-.86.14c-.55,0-.96-.12-1.24-.36s-.42-.58-.42-1.01c0-.34.08-.62.25-.83.17-.21.37-.38.62-.5s.6-.26,1.04-.41l.48-.17,1.72-.63v-1.09c0-.82-.07-1.41-.2-1.78-.13-.37-.36-.55-.68-.55-.68,0-1.06.52-1.15,1.57-.04.38-.15.66-.33.82s-.44.25-.77.25-.55-.07-.7-.2-.22-.31-.22-.53c0-.38.22-.75.67-1.1.45-.35.98-.63,1.62-.85s1.19-.32,1.67-.32c.56,0,1.02.17,1.37.53.35.35.53.88.53,1.6v3.38c0,.37.07.66.2.86.13.21.32.31.56.31.18,0,.36-.04.55-.13h.02ZM150.53,35.7c-.01-.05-.02-.13-.02-.25v-1.83l-.82.38s-.17.06-.38.14c-.22.08-.4.22-.56.41s-.24.41-.24.67c0,.3.1.54.3.72.2.17.42.26.68.26.2,0,.41-.07.63-.21l.42-.29Z" fill="#c0b68a"/>
    <path d="M157.03,37.11v3.67c0,.38.04.66.12.84.08.18.24.3.48.37.24.07.6.11,1.1.11.04,0,.06.04.06.12s-.02.12-.06.12c-.47,0-.84,0-1.11-.02l-1.51-.02-1.13.02c-.19.01-.46.02-.8.02-.04,0-.06-.04-.06-.12s.02-.12.06-.12c.31,0,.53-.04.68-.11s.25-.19.31-.37c.06-.18.09-.46.09-.84v-8.85c0-.41-.04-.7-.13-.88-.09-.18-.25-.27-.48-.27-.2,0-.5.09-.88.27h-.04s-.07-.03-.11-.1c-.03-.06-.04-.1,0-.11l2.71-1.32s.06-.02.1-.02c.13,0,.25.11.35.32s.18.51.22.88c.93-.84,1.89-1.26,2.87-1.26.54,0,1.04.14,1.5.42.46.28.84.69,1.12,1.22s.42,1.16.42,1.87c0,1.02-.21,1.86-.63,2.51-.42.66-.95,1.13-1.6,1.41-.64.29-1.31.43-2,.43-.62,0-1.17-.07-1.64-.21ZM157.03,31.13v4.76c.28.32.57.56.88.72.31.16.68.24,1.13.24,1.29,0,1.93-1.1,1.93-3.29,0-.97-.23-1.72-.68-2.25s-1.02-.79-1.69-.79c-.57,0-1.1.2-1.57.61Z" fill="#c0b68a"/>
    <path d="M170.91,35.81s.05.03.09.08c.03.05.04.09,0,.12-.47.46-.95.79-1.43.99-.48.2-1.01.3-1.59.3-.8,0-1.5-.17-2.08-.51-.59-.34-1.03-.79-1.34-1.36s-.46-1.18-.46-1.84c0-.74.18-1.42.55-2.04.37-.62.88-1.12,1.54-1.48s1.4-.54,2.23-.54,1.4.18,1.83.54c.43.36.65.91.65,1.66,0,.39-.07.59-.21.59l-4.64.02c-.01.09-.02.24-.02.44,0,1.12.26,2,.77,2.64.52.64,1.26.96,2.23.96.34,0,.64-.04.88-.12s.56-.22.96-.42l.04-.02ZM166.64,30.45c-.28.36-.47.86-.55,1.5l2.77-.04c-.01-.65-.11-1.15-.29-1.49-.18-.34-.47-.52-.88-.52s-.77.18-1.05.54Z" fill="#c0b68a"/>
    <path d="M174.13,31.57c.26.27.64.55,1.14.84.48.28.84.5,1.08.66.24.16.45.38.64.67.19.29.29.63.29,1.04,0,.43-.11.84-.33,1.22-.22.38-.54.69-.97.93-.43.24-.95.35-1.55.35-.7,0-1.36-.17-1.99-.52-.08-.08-.12-.15-.12-.23l-.04-1.89s.04-.06.11-.07c.07,0,.11,0,.12.03.2.64.54,1.18,1.01,1.62.47.45.95.67,1.43.67.27,0,.48-.08.64-.25.16-.16.24-.41.24-.72,0-.47-.13-.84-.4-1.12-.27-.27-.66-.56-1.18-.85-.45-.24-.78-.44-1.01-.59-.23-.15-.43-.37-.61-.65-.18-.28-.27-.62-.27-1.03,0-.75.27-1.3.8-1.65s1.19-.53,1.97-.53c.29,0,.56.02.79.06.24.04.5.12.79.23.12.04.17.11.17.21,0,.32,0,.57-.02.75l-.02.96s-.04.06-.11.06-.11-.02-.11-.06c0-.24-.1-.51-.31-.79-.2-.29-.47-.53-.79-.74-.32-.2-.66-.3-1-.3-.52,0-.78.25-.78.75,0,.37.13.69.39.96Z" fill="#c0b68a"/>
  </g>
</svg>