<?xml version="1.0" encoding="UTF-8"?>
<svg id="_レイヤー_2" xmlns="http://www.w3.org/2000/svg" width="257.59" height="64.56" version="1.1" viewBox="0 0 257.59 64.56">
  <!-- Generator: Adobe Illustrator 29.4.0, SVG Export Plug-In . SVG Version: 2.1.0 Build 152)  -->
  <g>
    <rect x=".96" y=".97" width="255.67" height="62.63" rx="4.1" ry="4.1" fill="#212a37"/>
    <path d="M252.53,64.1H5.06c-2.54,0-4.6-2.06-4.6-4.6V5.07c0-2.54,2.06-4.6,4.6-4.6h247.47c2.54,0,4.6,2.06,4.6,4.6v54.43c0,2.54-2.06,4.6-4.6,4.6ZM5.06,1.47c-1.99,0-3.6,1.62-3.6,3.6v54.43c0,1.98,1.61,3.6,3.6,3.6h247.47c1.99,0,3.6-1.62,3.6-3.6V5.07c0-1.98-1.62-3.6-3.6-3.6,0,0-247.47,0-247.47,0Z" fill="#414e5b"/>
  </g>
  <g>
    <path d="M240.01,9.24c-.04-.14-.17-.21-.31-.21H60.94v.02H17.68c-.14,0-.26.09-.31.21-1.21,3.87-4.26,6.92-8.13,8.13-.14.04-.21.17-.21.31v29.22c0,.14.09.26.21.31,3.87,1.21,6.92,4.26,8.13,8.13.04.14.17.21.31.21h178.76v-.02h43.26c.14,0,.26-.09.31-.21,1.21-3.87,4.26-6.92,8.13-8.13.14-.04.21-.17.21-.31v-29.22c0-.14-.09-.26-.21-.31-3.87-1.21-6.92-4.26-8.13-8.13h0ZM247.74,46.67c-3.89,1.28-6.97,4.35-8.25,8.23H60.95v.02H17.92c-1.28-3.89-4.36-6.96-8.25-8.25v-28.78c3.89-1.28,6.97-4.35,8.25-8.23h178.53v-.02h43.04c1.28,3.89,4.36,6.96,8.25,8.25v28.78h0Z" fill="#c0b68a"/>
    <path d="M252.09,14.19c-.08-.08-.19-.12-.31-.12-2.34,0-4.45-.94-6-2.49s-2.49-3.64-2.49-6c0-.11-.04-.23-.12-.31s-.19-.12-.31-.12H14.51c-.11,0-.23.04-.31.12s-.12.19-.12.31c0,2.34-.94,4.45-2.49,6s-3.64,2.49-6,2.49c-.11,0-.23.04-.31.12s-.12.19-.12.31v35.58c0,.11.04.23.12.31s.19.12.31.12c2.34,0,4.45.94,6,2.49s2.49,3.64,2.49,6c0,.11.04.23.12.31s.19.12.31.12h228.37c.11,0,.23-.04.31-.12s.12-.19.12-.31c0-2.34.94-4.45,2.49-6s3.64-2.49,6-2.49c.11,0,.23-.04.31-.12s.12-.19.12-.31V14.49c0-.11-.04-.23-.12-.31h-.02,0ZM251.36,49.65c-2.41.11-4.58,1.13-6.16,2.73-1.6,1.59-2.63,3.76-2.73,6.16H14.93c-.11-2.41-1.13-4.58-2.73-6.16-1.59-1.59-3.76-2.61-6.16-2.73V14.92c2.41-.11,4.58-1.13,6.16-2.73,1.6-1.59,2.63-3.76,2.73-6.16h227.55c.11,2.41,1.13,4.58,2.73,6.16,1.59,1.59,3.76,2.61,6.16,2.73v34.72h-.01Z" fill="#c0b68a"/>
  </g>
  <g>
    <g>
      <circle cx="7.75" cy="8.15" r="1.98" fill="#c0b68a"/>
      <circle cx="7.75" cy="56.43" r="1.98" fill="#c0b68a"/>
    </g>
    <g>
      <circle cx="249.85" cy="8.15" r="1.98" fill="#c0b68a"/>
      <circle cx="249.85" cy="56.43" r="1.98" fill="#c0b68a"/>
    </g>
  </g>
  <g>
    <path d="M69.62,38.04c0,.08-.01.11-.04.11-.43,0-.78,0-1.03-.02l-1.41-.02-1.43.02c-.24.01-.57.02-.99.02-.04,0-.06-.04-.06-.11s.02-.12.06-.12c.54,0,.9-.06,1.09-.19.19-.13.29-.39.29-.8l-.02-.33-.4-7.82-3.94,9.23c-.03.05-.08.08-.15.08s-.13-.03-.15-.08l-4.84-9.19-.15,6.9c-.01.69.12,1.23.41,1.61s.69.58,1.21.58c.04,0,.06.04.06.12s-.02.11-.06.11c-.34,0-.61,0-.8-.02l-1.05-.02-1.2.02c-.2.01-.48.02-.82.02-.04,0-.06-.04-.06-.11s.02-.12.06-.12c.52,0,.94-.2,1.24-.59.31-.39.46-.93.48-1.6l.17-7.91-.02-.02c-.26-.47-.52-.82-.79-1.03-.27-.22-.59-.32-.95-.32-.04,0-.06-.04-.06-.11s.02-.11.06-.11l.9.02c.18.01.41.02.69.02l1.01-.02c.11-.01.26-.02.44-.02.17,0,.29.06.38.17.09.11.25.39.5.82l4.17,7.82,3.63-8.33c.08-.18.16-.3.24-.37.08-.07.19-.11.33-.11.11,0,.25,0,.39.02.15.01.32.02.51.02l1.13-.02c.18-.01.43-.02.76-.02.04,0,.06.04.06.11s-.02.11-.06.11c-.6,0-1.03.12-1.3.36s-.39.62-.36,1.13l.46,8.68c.03.39.07.68.14.86.07.18.2.3.38.36.18.06.47.1.87.1.03,0,.04.04.04.12Z" fill="#131f2b"/>
    <path d="M72.5,37.86c-.59-.36-1.05-.85-1.37-1.47-.32-.62-.48-1.29-.48-2.02,0-.83.21-1.53.63-2.11.42-.58.96-1.01,1.61-1.3.65-.29,1.32-.43,2.01-.43.79,0,1.48.19,2.06.55.59.37,1.03.86,1.35,1.46.31.61.47,1.25.47,1.94,0,.76-.19,1.44-.57,2.04-.38.59-.9,1.05-1.54,1.39-.64.33-1.34.5-2.09.5-.79,0-1.48-.18-2.07-.54ZM76.28,37.27c.26-.49.39-1.19.39-2.11s-.11-1.66-.34-2.29-.53-1.12-.9-1.44c-.37-.32-.76-.49-1.19-.49-1.02,0-1.53.91-1.53,2.73,0,.85.11,1.61.32,2.26.22.66.51,1.17.88,1.53s.78.54,1.22.54c.5,0,.88-.25,1.14-.74Z" fill="#131f2b"/>
    <path d="M93.97,38.04c0,.08-.03.11-.08.11-.33,0-.59,0-.78-.02l-1.15-.02-1.11.02c-.2.01-.47.02-.8.02-.04,0-.06-.04-.06-.11s.02-.12.06-.12c.4,0,.67-.09.81-.28.15-.18.22-.53.22-1.04v-2.75c0-.69-.12-1.2-.35-1.53-.24-.33-.6-.5-1.08-.5-.33,0-.66.07-.97.21-.32.14-.59.33-.82.57v4c0,.51.07.86.22,1.04.15.19.42.28.81.28.05,0,.08.04.08.12s-.03.11-.08.11c-.33,0-.59,0-.78-.02l-1.15-.02-1.11.02c-.2.01-.47.02-.8.02-.04,0-.06-.04-.06-.11s.02-.12.06-.12c.39,0,.67-.09.81-.28.15-.18.22-.53.22-1.04v-2.75c0-.69-.12-1.2-.35-1.53s-.6-.5-1.08-.5c-.31,0-.61.06-.91.18s-.56.29-.79.51v4.09c0,.51.07.86.22,1.04.15.19.42.28.81.28.04,0,.06.04.06.12s-.02.11-.06.11c-.33,0-.59,0-.78-.02l-1.15-.02-1.13.02c-.19.01-.45.02-.78.02-.04,0-.06-.04-.06-.11s.02-.12.06-.12c.4,0,.66-.09.8-.28.14-.18.21-.53.21-1.04v-3.59c0-.39-.05-.68-.14-.87-.1-.18-.25-.28-.45-.28-.22,0-.52.09-.92.27h-.04s-.07-.03-.09-.1c-.02-.06-.02-.1,0-.11l2.66-1.3c.08-.03.12-.04.13-.04.14,0,.27.14.4.41.13.27.2.64.23,1.1.87-1.03,1.8-1.55,2.79-1.55.6,0,1.08.15,1.43.44.36.29.57.71.65,1.26.88-1.13,1.85-1.7,2.92-1.7.69,0,1.21.2,1.58.59.36.39.54.99.54,1.8v3.67c0,.51.07.86.22,1.04.15.19.42.28.81.28.05,0,.08.04.08.12Z" fill="#131f2b"/>
    <path d="M101.65,36.9s.05.03.09.08c.03.05.03.09,0,.11-.47.46-.95.79-1.43.99-.48.2-1.01.31-1.59.31-.8,0-1.5-.17-2.08-.51-.59-.34-1.03-.79-1.34-1.36-.31-.57-.46-1.18-.46-1.84,0-.74.18-1.42.55-2.04.37-.62.88-1.12,1.54-1.48s1.4-.54,2.23-.54,1.4.18,1.83.54c.43.36.65.91.65,1.66,0,.4-.07.59-.21.59l-4.64.02c-.01.09-.02.24-.02.44,0,1.12.26,2,.77,2.64.52.64,1.26.96,2.23.96.34,0,.64-.04.88-.12.24-.08.56-.22.96-.42l.04-.02ZM97.39,31.54c-.28.36-.47.86-.55,1.5l2.77-.04c-.01-.65-.11-1.15-.29-1.49-.18-.34-.47-.52-.88-.52s-.77.18-1.05.54Z" fill="#131f2b"/>
    <path d="M112.01,38.04c0,.08-.02.11-.06.11-.33,0-.59,0-.78-.02l-1.15-.02-1.11.02c-.2.01-.47.02-.8.02-.04,0-.06-.04-.06-.11s.02-.12.06-.12c.4,0,.66-.09.8-.28.14-.18.21-.53.21-1.04v-2.75c0-.69-.12-1.2-.37-1.53-.25-.33-.64-.5-1.18-.5-.31,0-.62.06-.95.19-.33.13-.61.3-.85.52v4.07c0,.51.07.86.22,1.04.15.19.42.28.81.28.04,0,.06.04.06.12s-.02.11-.06.11c-.33,0-.59,0-.78-.02l-1.15-.02-1.13.02c-.19.01-.45.02-.78.02-.04,0-.06-.04-.06-.11s.02-.12.06-.12c.4,0,.66-.09.8-.28.14-.18.21-.53.21-1.04v-3.59c0-.39-.05-.68-.14-.87-.1-.18-.25-.28-.45-.28-.22,0-.52.09-.92.27h-.04s-.07-.03-.09-.1c-.02-.06-.02-.1,0-.11l2.66-1.3c.08-.03.12-.04.13-.04.14,0,.27.14.4.41.13.27.2.65.23,1.12.88-1.04,1.85-1.57,2.9-1.57.69,0,1.23.22,1.63.66s.6,1.02.6,1.73v3.67c0,.51.07.86.22,1.04.15.19.42.28.81.28.04,0,.06.04.06.12Z" fill="#131f2b"/>
    <path d="M118.47,36.82c.05,0,.09.03.12.08.03.05.03.09,0,.12-.47.47-.93.82-1.38,1.04-.45.22-.92.33-1.41.33-.56,0-1.04-.13-1.43-.4s-.59-.72-.59-1.36v-4.24c0-.4-.07-.67-.21-.82s-.4-.23-.76-.23c-.01,0-.03-.02-.05-.06-.02-.04-.03-.08-.03-.12,0-.05,0-.09.02-.12s.03-.05.06-.05c.65-.03,1.18-.17,1.58-.42.4-.25.71-.64.93-1.17.03-.05.08-.08.16-.08s.12.03.12.08v1.53c.74-.01,1.57-.07,2.48-.17.03,0,.05.05.09.14.03.1.05.2.05.32,0,.13-.02.25-.07.37-.04.12-.09.18-.14.16-.83-.18-1.63-.27-2.41-.29v4.53c0,.48.12.84.37,1.07.25.23.58.34.98.34.51,0,1.01-.19,1.49-.57l.04-.02Z" fill="#131f2b"/>
    <path d="M121.35,32.65c.26.27.64.55,1.14.84.48.28.84.5,1.08.66s.45.38.64.67c.19.29.29.63.29,1.04,0,.43-.11.84-.32,1.22-.22.38-.54.69-.97.93s-.95.35-1.55.35c-.7,0-1.36-.17-1.99-.52-.08-.08-.11-.15-.11-.23l-.04-1.89s.03-.06.1-.07c.07,0,.11,0,.12.03.2.64.54,1.18,1.01,1.62.47.45.95.67,1.43.67.27,0,.48-.08.64-.25.16-.17.24-.41.24-.73,0-.47-.13-.84-.4-1.12-.27-.27-.66-.56-1.19-.85-.45-.24-.78-.44-1.01-.59-.23-.15-.43-.37-.61-.65-.18-.28-.27-.62-.27-1.03,0-.75.27-1.3.8-1.65s1.19-.53,1.97-.53c.29,0,.56.02.79.06s.5.11.79.23c.11.04.17.11.17.21,0,.32,0,.57-.02.75l-.02.96s-.04.06-.11.06-.11-.02-.11-.06c0-.24-.1-.51-.31-.79-.2-.29-.47-.53-.79-.74-.32-.2-.66-.31-1-.31-.52,0-.78.25-.78.75,0,.37.13.69.39.96Z" fill="#131f2b"/>
    <path d="M130.3,38.04c0-.08.02-.12.06-.12.4,0,.66-.09.8-.28.14-.18.21-.53.21-1.04v-3.42c0-.43-.04-.75-.13-.94-.09-.19-.24-.29-.44-.29-.17,0-.4.07-.71.21h-.02c-.05,0-.09-.03-.11-.1-.03-.07-.02-.11.02-.12l2.89-1.34.06-.02c.06,0,.13.03.19.1.06.06.1.12.1.17v.42c-.03.51-.04,1.13-.04,1.87v3.46c0,.51.07.86.22,1.04.15.19.42.28.81.28.04,0,.06.04.06.12s-.02.11-.06.11c-.33,0-.59,0-.78-.02l-1.15-.02-1.13.02c-.19.01-.45.02-.78.02-.04,0-.06-.04-.06-.11ZM131.33,28.39c-.2-.2-.31-.49-.31-.86,0-.33.11-.6.32-.79.21-.2.49-.3.85-.3s.63.1.82.29c.19.19.29.46.29.8,0,.37-.1.66-.29.86-.19.2-.47.31-.82.31s-.66-.1-.86-.31Z" fill="#131f2b"/>
    <path d="M144.43,38.04c0,.08-.02.11-.06.11-.33,0-.59,0-.78-.02l-1.15-.02-1.11.02c-.2.01-.47.02-.8.02-.04,0-.06-.04-.06-.11s.02-.12.06-.12c.4,0,.66-.09.8-.28.14-.18.21-.53.21-1.04v-2.75c0-.69-.12-1.2-.37-1.53-.25-.33-.64-.5-1.18-.5-.31,0-.62.06-.95.19-.33.13-.61.3-.85.52v4.07c0,.51.07.86.22,1.04.15.19.42.28.81.28.04,0,.06.04.06.12s-.02.11-.06.11c-.33,0-.59,0-.78-.02l-1.15-.02-1.13.02c-.19.01-.45.02-.78.02-.04,0-.06-.04-.06-.11s.02-.12.06-.12c.4,0,.66-.09.8-.28.14-.18.21-.53.21-1.04v-3.59c0-.39-.05-.68-.14-.87-.1-.18-.25-.28-.45-.28-.22,0-.52.09-.92.27h-.04s-.07-.03-.09-.1c-.02-.06-.02-.1,0-.11l2.66-1.3c.08-.03.12-.04.13-.04.14,0,.27.14.4.41.13.27.2.65.23,1.12.88-1.04,1.85-1.57,2.9-1.57.69,0,1.23.22,1.63.66s.6,1.02.6,1.73v3.67c0,.51.07.86.22,1.04.15.19.42.28.81.28.04,0,.06.04.06.12Z" fill="#131f2b"/>
    <path d="M165.12,38.04c0,.08-.01.11-.04.11-.43,0-.78,0-1.03-.02l-1.41-.02-1.43.02c-.24.01-.57.02-.99.02-.04,0-.06-.04-.06-.11s.02-.12.06-.12c.54,0,.9-.06,1.09-.19.19-.13.29-.39.29-.8l-.02-.33-.4-7.82-3.94,9.23c-.03.05-.08.08-.15.08s-.13-.03-.15-.08l-4.84-9.19-.15,6.9c-.01.69.12,1.23.41,1.61s.69.58,1.21.58c.04,0,.06.04.06.12s-.02.11-.06.11c-.34,0-.61,0-.8-.02l-1.05-.02-1.2.02c-.2.01-.48.02-.82.02-.04,0-.06-.04-.06-.11s.02-.12.06-.12c.52,0,.94-.2,1.24-.59.31-.39.46-.93.48-1.6l.17-7.91-.02-.02c-.26-.47-.52-.82-.79-1.03-.27-.22-.59-.32-.95-.32-.04,0-.06-.04-.06-.11s.02-.11.06-.11l.9.02c.18.01.41.02.69.02l1.01-.02c.11-.01.26-.02.44-.02.17,0,.29.06.38.17.09.11.25.39.5.82l4.17,7.82,3.63-8.33c.08-.18.16-.3.24-.37s.19-.11.33-.11c.11,0,.25,0,.39.02.15.01.32.02.51.02l1.13-.02c.18-.01.43-.02.76-.02.04,0,.06.04.06.11s-.02.11-.06.11c-.6,0-1.03.12-1.3.36s-.39.62-.36,1.13l.46,8.68c.03.39.07.68.14.86.07.18.2.3.38.36.18.06.47.1.87.1.03,0,.04.04.04.12Z" fill="#131f2b"/>
    <path d="M168,37.86c-.59-.36-1.05-.85-1.37-1.47s-.48-1.29-.48-2.02c0-.83.21-1.53.63-2.11.42-.58.96-1.01,1.61-1.3.65-.29,1.32-.43,2.01-.43.79,0,1.48.19,2.06.55s1.04.86,1.35,1.46.47,1.25.47,1.94c0,.76-.19,1.44-.57,2.04-.38.59-.89,1.05-1.54,1.39-.64.33-1.34.5-2.09.5-.79,0-1.48-.18-2.07-.54ZM171.78,37.27c.26-.49.39-1.19.39-2.11s-.12-1.66-.34-2.29c-.23-.64-.53-1.12-.9-1.44-.37-.32-.76-.49-1.19-.49-1.02,0-1.53.91-1.53,2.73,0,.85.11,1.61.33,2.26.22.66.51,1.17.88,1.53.37.36.78.54,1.22.54.5,0,.88-.25,1.14-.74Z" fill="#131f2b"/>
    <path d="M181.08,36.82c.05,0,.09.03.12.08.03.05.03.09,0,.12-.47.47-.93.82-1.38,1.04s-.92.33-1.41.33c-.56,0-1.04-.13-1.43-.4s-.59-.72-.59-1.36v-4.24c0-.4-.07-.67-.21-.82s-.39-.23-.76-.23c-.01,0-.03-.02-.05-.06-.02-.04-.03-.08-.03-.12,0-.05,0-.09.02-.12s.03-.05.06-.05c.65-.03,1.18-.17,1.58-.42.4-.25.71-.64.93-1.17.03-.05.08-.08.16-.08s.12.03.12.08v1.53c.74-.01,1.57-.07,2.48-.17.03,0,.05.05.09.14.03.1.05.2.05.32,0,.13-.02.25-.07.37-.04.12-.09.18-.14.16-.83-.18-1.63-.27-2.41-.29v4.53c0,.48.12.84.37,1.07.25.23.58.34.98.34.51,0,1.01-.19,1.49-.57l.04-.02Z" fill="#131f2b"/>
    <path d="M182,38.04c0-.08.02-.12.06-.12.39,0,.66-.09.8-.28.14-.18.21-.53.21-1.04v-3.42c0-.43-.04-.75-.13-.94-.09-.19-.24-.29-.44-.29-.17,0-.4.07-.71.21h-.02c-.05,0-.09-.03-.12-.1s-.02-.11.02-.12l2.89-1.34.06-.02c.06,0,.13.03.19.1s.1.12.1.17v.42c-.03.51-.04,1.13-.04,1.87v3.46c0,.51.07.86.22,1.04.15.19.42.28.81.28.04,0,.06.04.06.12s-.02.11-.06.11c-.33,0-.59,0-.78-.02l-1.15-.02-1.13.02c-.19.01-.45.02-.78.02-.04,0-.06-.04-.06-.11ZM183.03,28.39c-.2-.2-.31-.49-.31-.86,0-.33.11-.6.32-.79s.49-.3.85-.3.63.1.82.29c.19.19.29.46.29.8,0,.37-.1.66-.29.86-.19.2-.46.31-.82.31s-.66-.1-.86-.31Z" fill="#131f2b"/>
    <path d="M188.79,37.86c-.59-.36-1.05-.85-1.37-1.47s-.48-1.29-.48-2.02c0-.83.21-1.53.63-2.11.42-.58.96-1.01,1.61-1.3.65-.29,1.32-.43,2.01-.43.79,0,1.48.19,2.06.55s1.04.86,1.35,1.46.47,1.25.47,1.94c0,.76-.19,1.44-.57,2.04-.38.59-.89,1.05-1.54,1.39-.64.33-1.34.5-2.09.5-.79,0-1.48-.18-2.07-.54ZM192.58,37.27c.26-.49.39-1.19.39-2.11s-.12-1.66-.34-2.29c-.23-.64-.53-1.12-.9-1.44-.37-.32-.76-.49-1.19-.49-1.02,0-1.53.91-1.53,2.73,0,.85.11,1.61.33,2.26.22.66.51,1.17.88,1.53.37.36.78.54,1.22.54.5,0,.88-.25,1.14-.74Z" fill="#131f2b"/>
    <path d="M205.47,38.04c0,.08-.02.11-.06.11-.33,0-.59,0-.78-.02l-1.15-.02-1.11.02c-.2.01-.47.02-.8.02-.04,0-.06-.04-.06-.11s.02-.12.06-.12c.39,0,.66-.09.8-.28.14-.18.21-.53.21-1.04v-2.75c0-.69-.12-1.2-.37-1.53-.25-.33-.64-.5-1.17-.5-.31,0-.62.06-.95.19-.33.13-.61.3-.85.52v4.07c0,.51.07.86.22,1.04.15.19.42.28.81.28.04,0,.06.04.06.12s-.02.11-.06.11c-.33,0-.59,0-.78-.02l-1.15-.02-1.13.02c-.19.01-.45.02-.78.02-.04,0-.06-.04-.06-.11s.02-.12.06-.12c.39,0,.66-.09.8-.28.14-.18.21-.53.21-1.04v-3.59c0-.39-.05-.68-.14-.87s-.25-.28-.45-.28c-.22,0-.52.09-.92.27h-.04s-.07-.03-.09-.1c-.02-.06-.02-.1,0-.11l2.66-1.3c.08-.03.12-.04.13-.04.14,0,.27.14.4.41.13.27.2.65.23,1.12.88-1.04,1.85-1.57,2.91-1.57.69,0,1.23.22,1.63.66s.6,1.02.6,1.73v3.67c0,.51.07.86.22,1.04.15.19.42.28.81.28.04,0,.06.04.06.12Z" fill="#131f2b"/>
  </g>
  <g>
    <path d="M68.62,37.04c0,.08-.01.11-.04.11-.43,0-.78,0-1.03-.02l-1.41-.02-1.43.02c-.24.01-.57.02-.99.02-.04,0-.06-.04-.06-.11s.02-.12.06-.12c.54,0,.9-.06,1.09-.19.19-.13.29-.39.29-.8l-.02-.33-.4-7.82-3.94,9.23c-.03.05-.08.08-.15.08s-.13-.03-.15-.08l-4.84-9.19-.15,6.9c-.01.69.12,1.23.41,1.61s.69.58,1.21.58c.04,0,.06.04.06.12s-.02.11-.06.11c-.34,0-.61,0-.8-.02l-1.05-.02-1.2.02c-.2.01-.48.02-.82.02-.04,0-.06-.04-.06-.11s.02-.12.06-.12c.52,0,.94-.2,1.24-.59.31-.39.46-.93.48-1.6l.17-7.91-.02-.02c-.26-.47-.52-.82-.79-1.03-.27-.22-.59-.32-.95-.32-.04,0-.06-.04-.06-.11s.02-.11.06-.11l.9.02c.18.01.41.02.69.02l1.01-.02c.11-.01.26-.02.44-.02.17,0,.29.06.38.17.09.11.25.39.5.82l4.17,7.82,3.63-8.33c.08-.18.16-.3.24-.37.08-.07.19-.11.33-.11.11,0,.25,0,.39.02.15.01.32.02.51.02l1.13-.02c.18-.01.43-.02.76-.02.04,0,.06.04.06.11s-.02.11-.06.11c-.6,0-1.03.12-1.3.36s-.39.62-.36,1.13l.46,8.68c.03.39.07.68.14.86.07.18.2.3.38.36.18.06.47.1.87.1.03,0,.04.04.04.12Z" fill="#c0b68a"/>
    <path d="M71.5,36.86c-.59-.36-1.05-.85-1.37-1.47-.32-.62-.48-1.29-.48-2.02,0-.83.21-1.53.63-2.11.42-.58.96-1.01,1.61-1.3.65-.29,1.32-.43,2.01-.43.79,0,1.48.19,2.06.55.59.37,1.03.86,1.35,1.46.31.61.47,1.25.47,1.94,0,.76-.19,1.44-.57,2.04-.38.59-.9,1.05-1.54,1.39-.64.33-1.34.5-2.09.5-.79,0-1.48-.18-2.07-.54ZM75.28,36.27c.26-.49.39-1.19.39-2.11s-.11-1.66-.34-2.29-.53-1.12-.9-1.44c-.37-.32-.76-.49-1.19-.49-1.02,0-1.53.91-1.53,2.73,0,.85.11,1.61.32,2.26.22.66.51,1.17.88,1.53s.78.54,1.22.54c.5,0,.88-.25,1.14-.74Z" fill="#c0b68a"/>
    <path d="M92.97,37.04c0,.08-.03.11-.08.11-.33,0-.59,0-.78-.02l-1.15-.02-1.11.02c-.2.01-.47.02-.8.02-.04,0-.06-.04-.06-.11s.02-.12.06-.12c.4,0,.67-.09.81-.28.15-.18.22-.53.22-1.04v-2.75c0-.69-.12-1.2-.35-1.53-.24-.33-.6-.5-1.08-.5-.33,0-.66.07-.97.21-.32.14-.59.33-.82.57v4c0,.51.07.86.22,1.04.15.19.42.28.81.28.05,0,.08.04.08.12s-.03.11-.08.11c-.33,0-.59,0-.78-.02l-1.15-.02-1.11.02c-.2.01-.47.02-.8.02-.04,0-.06-.04-.06-.11s.02-.12.06-.12c.39,0,.67-.09.81-.28.15-.18.22-.53.22-1.04v-2.75c0-.69-.12-1.2-.35-1.53s-.6-.5-1.08-.5c-.31,0-.61.06-.91.18s-.56.29-.79.51v4.09c0,.51.07.86.22,1.04.15.19.42.28.81.28.04,0,.06.04.06.12s-.02.11-.06.11c-.33,0-.59,0-.78-.02l-1.15-.02-1.13.02c-.19.01-.45.02-.78.02-.04,0-.06-.04-.06-.11s.02-.12.06-.12c.4,0,.66-.09.8-.28.14-.18.21-.53.21-1.04v-3.59c0-.39-.05-.68-.14-.87-.1-.18-.25-.28-.45-.28-.22,0-.52.09-.92.27h-.04s-.07-.03-.09-.1c-.02-.06-.02-.1,0-.11l2.66-1.3c.08-.03.12-.04.13-.04.14,0,.27.14.4.41.13.27.2.64.23,1.1.87-1.03,1.8-1.55,2.79-1.55.6,0,1.08.15,1.43.44.36.29.57.71.65,1.26.88-1.13,1.85-1.7,2.92-1.7.69,0,1.21.2,1.58.59.36.39.54.99.54,1.8v3.67c0,.51.07.86.22,1.04.15.19.42.28.81.28.05,0,.08.04.08.12Z" fill="#c0b68a"/>
    <path d="M100.65,35.9s.05.03.09.08c.03.05.03.09,0,.11-.47.46-.95.79-1.43.99-.48.2-1.01.31-1.59.31-.8,0-1.5-.17-2.08-.51-.59-.34-1.03-.79-1.34-1.36-.31-.57-.46-1.18-.46-1.84,0-.74.18-1.42.55-2.04.37-.62.88-1.12,1.54-1.48s1.4-.54,2.23-.54,1.4.18,1.83.54c.43.36.65.91.65,1.66,0,.4-.07.59-.21.59l-4.64.02c-.01.09-.02.24-.02.44,0,1.12.26,2,.77,2.64.52.64,1.26.96,2.23.96.34,0,.64-.04.88-.12.24-.08.56-.22.96-.42l.04-.02ZM96.39,30.54c-.28.36-.47.86-.55,1.5l2.77-.04c-.01-.65-.11-1.15-.29-1.49-.18-.34-.47-.52-.88-.52s-.77.18-1.05.54Z" fill="#c0b68a"/>
    <path d="M111.01,37.04c0,.08-.02.11-.06.11-.33,0-.59,0-.78-.02l-1.15-.02-1.11.02c-.2.01-.47.02-.8.02-.04,0-.06-.04-.06-.11s.02-.12.06-.12c.4,0,.66-.09.8-.28.14-.18.21-.53.21-1.04v-2.75c0-.69-.12-1.2-.37-1.53-.25-.33-.64-.5-1.18-.5-.31,0-.62.06-.95.19-.33.13-.61.3-.85.52v4.07c0,.51.07.86.22,1.04.15.19.42.28.81.28.04,0,.06.04.06.12s-.02.11-.06.11c-.33,0-.59,0-.78-.02l-1.15-.02-1.13.02c-.19.01-.45.02-.78.02-.04,0-.06-.04-.06-.11s.02-.12.06-.12c.4,0,.66-.09.8-.28.14-.18.21-.53.21-1.04v-3.59c0-.39-.05-.68-.14-.87-.1-.18-.25-.28-.45-.28-.22,0-.52.09-.92.27h-.04s-.07-.03-.09-.1c-.02-.06-.02-.1,0-.11l2.66-1.3c.08-.03.12-.04.13-.04.14,0,.27.14.4.41.13.27.2.65.23,1.12.88-1.04,1.85-1.57,2.9-1.57.69,0,1.23.22,1.63.66s.6,1.02.6,1.73v3.67c0,.51.07.86.22,1.04.15.19.42.28.81.28.04,0,.06.04.06.12Z" fill="#c0b68a"/>
    <path d="M117.47,35.82c.05,0,.09.03.12.08.03.05.03.09,0,.12-.47.47-.93.82-1.38,1.04-.45.22-.92.33-1.41.33-.56,0-1.04-.13-1.43-.4s-.59-.72-.59-1.36v-4.24c0-.4-.07-.67-.21-.82s-.4-.23-.76-.23c-.01,0-.03-.02-.05-.06-.02-.04-.03-.08-.03-.12,0-.05,0-.09.02-.12s.03-.05.06-.05c.65-.03,1.18-.17,1.58-.42.4-.25.71-.64.93-1.17.03-.05.08-.08.16-.08s.12.03.12.08v1.53c.74-.01,1.57-.07,2.48-.17.03,0,.05.05.09.14.03.1.05.2.05.32,0,.13-.02.25-.07.37-.04.12-.09.18-.14.16-.83-.18-1.63-.27-2.41-.29v4.53c0,.48.12.84.37,1.07.25.23.58.34.98.34.51,0,1.01-.19,1.49-.57l.04-.02Z" fill="#c0b68a"/>
    <path d="M120.35,31.65c.26.27.64.55,1.14.84.48.28.84.5,1.08.66s.45.38.64.67c.19.29.29.63.29,1.04,0,.43-.11.84-.32,1.22-.22.38-.54.69-.97.93s-.95.35-1.55.35c-.7,0-1.36-.17-1.99-.52-.08-.08-.11-.15-.11-.23l-.04-1.89s.03-.06.1-.07c.07,0,.11,0,.12.03.2.64.54,1.18,1.01,1.62.47.45.95.67,1.43.67.27,0,.48-.08.64-.25.16-.17.24-.41.24-.73,0-.47-.13-.84-.4-1.12-.27-.27-.66-.56-1.19-.85-.45-.24-.78-.44-1.01-.59-.23-.15-.43-.37-.61-.65-.18-.28-.27-.62-.27-1.03,0-.75.27-1.3.8-1.65s1.19-.53,1.97-.53c.29,0,.56.02.79.06s.5.11.79.23c.11.04.17.11.17.21,0,.32,0,.57-.02.75l-.02.96s-.04.06-.11.06-.11-.02-.11-.06c0-.24-.1-.51-.31-.79-.2-.29-.47-.53-.79-.74-.32-.2-.66-.31-1-.31-.52,0-.78.25-.78.75,0,.37.13.69.39.96Z" fill="#c0b68a"/>
    <path d="M129.3,37.04c0-.08.02-.12.06-.12.4,0,.66-.09.8-.28.14-.18.21-.53.21-1.04v-3.42c0-.43-.04-.75-.13-.94-.09-.19-.24-.29-.44-.29-.17,0-.4.07-.71.21h-.02c-.05,0-.09-.03-.11-.1-.03-.07-.02-.11.02-.12l2.89-1.34.06-.02c.06,0,.13.03.19.1.06.06.1.12.1.17v.42c-.03.51-.04,1.13-.04,1.87v3.46c0,.51.07.86.22,1.04.15.19.42.28.81.28.04,0,.06.04.06.12s-.02.11-.06.11c-.33,0-.59,0-.78-.02l-1.15-.02-1.13.02c-.19.01-.45.02-.78.02-.04,0-.06-.04-.06-.11ZM130.33,27.39c-.2-.2-.31-.49-.31-.86,0-.33.11-.6.32-.79.21-.2.49-.3.85-.3s.63.1.82.29c.19.19.29.46.29.8,0,.37-.1.66-.29.86-.19.2-.47.31-.82.31s-.66-.1-.86-.31Z" fill="#c0b68a"/>
    <path d="M143.43,37.04c0,.08-.02.11-.06.11-.33,0-.59,0-.78-.02l-1.15-.02-1.11.02c-.2.01-.47.02-.8.02-.04,0-.06-.04-.06-.11s.02-.12.06-.12c.4,0,.66-.09.8-.28.14-.18.21-.53.21-1.04v-2.75c0-.69-.12-1.2-.37-1.53-.25-.33-.64-.5-1.18-.5-.31,0-.62.06-.95.19-.33.13-.61.3-.85.52v4.07c0,.51.07.86.22,1.04.15.19.42.28.81.28.04,0,.06.04.06.12s-.02.11-.06.11c-.33,0-.59,0-.78-.02l-1.15-.02-1.13.02c-.19.01-.45.02-.78.02-.04,0-.06-.04-.06-.11s.02-.12.06-.12c.4,0,.66-.09.8-.28.14-.18.21-.53.21-1.04v-3.59c0-.39-.05-.68-.14-.87-.1-.18-.25-.28-.45-.28-.22,0-.52.09-.92.27h-.04s-.07-.03-.09-.1c-.02-.06-.02-.1,0-.11l2.66-1.3c.08-.03.12-.04.13-.04.14,0,.27.14.4.41.13.27.2.65.23,1.12.88-1.04,1.85-1.57,2.9-1.57.69,0,1.23.22,1.63.66s.6,1.02.6,1.73v3.67c0,.51.07.86.22,1.04.15.19.42.28.81.28.04,0,.06.04.06.12Z" fill="#c0b68a"/>
    <path d="M164.12,37.04c0,.08-.01.11-.04.11-.43,0-.78,0-1.03-.02l-1.41-.02-1.43.02c-.24.01-.57.02-.99.02-.04,0-.06-.04-.06-.11s.02-.12.06-.12c.54,0,.9-.06,1.09-.19.19-.13.29-.39.29-.8l-.02-.33-.4-7.82-3.94,9.23c-.03.05-.08.08-.15.08s-.13-.03-.15-.08l-4.84-9.19-.15,6.9c-.01.69.12,1.23.41,1.61s.69.58,1.21.58c.04,0,.06.04.06.12s-.02.11-.06.11c-.34,0-.61,0-.8-.02l-1.05-.02-1.2.02c-.2.01-.48.02-.82.02-.04,0-.06-.04-.06-.11s.02-.12.06-.12c.52,0,.94-.2,1.24-.59.31-.39.46-.93.48-1.6l.17-7.91-.02-.02c-.26-.47-.52-.82-.79-1.03-.27-.22-.59-.32-.95-.32-.04,0-.06-.04-.06-.11s.02-.11.06-.11l.9.02c.18.01.41.02.69.02l1.01-.02c.11-.01.26-.02.44-.02.17,0,.29.06.38.17.09.11.25.39.5.82l4.17,7.82,3.63-8.33c.08-.18.16-.3.24-.37s.19-.11.33-.11c.11,0,.25,0,.39.02.15.01.32.02.51.02l1.13-.02c.18-.01.43-.02.76-.02.04,0,.06.04.06.11s-.02.11-.06.11c-.6,0-1.03.12-1.3.36s-.39.62-.36,1.13l.46,8.68c.03.39.07.68.14.86.07.18.2.3.38.36.18.06.47.1.87.1.03,0,.04.04.04.12Z" fill="#c0b68a"/>
    <path d="M167,36.86c-.59-.36-1.05-.85-1.37-1.47s-.48-1.29-.48-2.02c0-.83.21-1.53.63-2.11.42-.58.96-1.01,1.61-1.3.65-.29,1.32-.43,2.01-.43.79,0,1.48.19,2.06.55s1.04.86,1.35,1.46.47,1.25.47,1.94c0,.76-.19,1.44-.57,2.04-.38.59-.89,1.05-1.54,1.39-.64.33-1.34.5-2.09.5-.79,0-1.48-.18-2.07-.54ZM170.78,36.27c.26-.49.39-1.19.39-2.11s-.12-1.66-.34-2.29c-.23-.64-.53-1.12-.9-1.44-.37-.32-.76-.49-1.19-.49-1.02,0-1.53.91-1.53,2.73,0,.85.11,1.61.33,2.26.22.66.51,1.17.88,1.53.37.36.78.54,1.22.54.5,0,.88-.25,1.14-.74Z" fill="#c0b68a"/>
    <path d="M180.08,35.82c.05,0,.09.03.12.08.03.05.03.09,0,.12-.47.47-.93.82-1.38,1.04s-.92.33-1.41.33c-.56,0-1.04-.13-1.43-.4s-.59-.72-.59-1.36v-4.24c0-.4-.07-.67-.21-.82s-.39-.23-.76-.23c-.01,0-.03-.02-.05-.06-.02-.04-.03-.08-.03-.12,0-.05,0-.09.02-.12s.03-.05.06-.05c.65-.03,1.18-.17,1.58-.42.4-.25.71-.64.93-1.17.03-.05.08-.08.16-.08s.12.03.12.08v1.53c.74-.01,1.57-.07,2.48-.17.03,0,.05.05.09.14.03.1.05.2.05.32,0,.13-.02.25-.07.37-.04.12-.09.18-.14.16-.83-.18-1.63-.27-2.41-.29v4.53c0,.48.12.84.37,1.07.25.23.58.34.98.34.51,0,1.01-.19,1.49-.57l.04-.02Z" fill="#c0b68a"/>
    <path d="M181,37.04c0-.08.02-.12.06-.12.39,0,.66-.09.8-.28.14-.18.21-.53.21-1.04v-3.42c0-.43-.04-.75-.13-.94-.09-.19-.24-.29-.44-.29-.17,0-.4.07-.71.21h-.02c-.05,0-.09-.03-.12-.1s-.02-.11.02-.12l2.89-1.34.06-.02c.06,0,.13.03.19.1s.1.12.1.17v.42c-.03.51-.04,1.13-.04,1.87v3.46c0,.51.07.86.22,1.04.15.19.42.28.81.28.04,0,.06.04.06.12s-.02.11-.06.11c-.33,0-.59,0-.78-.02l-1.15-.02-1.13.02c-.19.01-.45.02-.78.02-.04,0-.06-.04-.06-.11ZM182.03,27.39c-.2-.2-.31-.49-.31-.86,0-.33.11-.6.32-.79s.49-.3.85-.3.63.1.82.29c.19.19.29.46.29.8,0,.37-.1.66-.29.86-.19.2-.46.31-.82.31s-.66-.1-.86-.31Z" fill="#c0b68a"/>
    <path d="M187.79,36.86c-.59-.36-1.05-.85-1.37-1.47s-.48-1.29-.48-2.02c0-.83.21-1.53.63-2.11.42-.58.96-1.01,1.61-1.3.65-.29,1.32-.43,2.01-.43.79,0,1.48.19,2.06.55s1.04.86,1.35,1.46.47,1.25.47,1.94c0,.76-.19,1.44-.57,2.04-.38.59-.89,1.05-1.54,1.39-.64.33-1.34.5-2.09.5-.79,0-1.48-.18-2.07-.54ZM191.58,36.27c.26-.49.39-1.19.39-2.11s-.12-1.66-.34-2.29c-.23-.64-.53-1.12-.9-1.44-.37-.32-.76-.49-1.19-.49-1.02,0-1.53.91-1.53,2.73,0,.85.11,1.61.33,2.26.22.66.51,1.17.88,1.53.37.36.78.54,1.22.54.5,0,.88-.25,1.14-.74Z" fill="#c0b68a"/>
    <path d="M204.47,37.04c0,.08-.02.11-.06.11-.33,0-.59,0-.78-.02l-1.15-.02-1.11.02c-.2.01-.47.02-.8.02-.04,0-.06-.04-.06-.11s.02-.12.06-.12c.39,0,.66-.09.8-.28.14-.18.21-.53.21-1.04v-2.75c0-.69-.12-1.2-.37-1.53-.25-.33-.64-.5-1.17-.5-.31,0-.62.06-.95.19-.33.13-.61.3-.85.52v4.07c0,.51.07.86.22,1.04.15.19.42.28.81.28.04,0,.06.04.06.12s-.02.11-.06.11c-.33,0-.59,0-.78-.02l-1.15-.02-1.13.02c-.19.01-.45.02-.78.02-.04,0-.06-.04-.06-.11s.02-.12.06-.12c.39,0,.66-.09.8-.28.14-.18.21-.53.21-1.04v-3.59c0-.39-.05-.68-.14-.87s-.25-.28-.45-.28c-.22,0-.52.09-.92.27h-.04s-.07-.03-.09-.1c-.02-.06-.02-.1,0-.11l2.66-1.3c.08-.03.12-.04.13-.04.14,0,.27.14.4.41.13.27.2.65.23,1.12.88-1.04,1.85-1.57,2.91-1.57.69,0,1.23.22,1.63.66s.6,1.02.6,1.73v3.67c0,.51.07.86.22,1.04.15.19.42.28.81.28.04,0,.06.04.06.12Z" fill="#c0b68a"/>
  </g>
</svg>