<?xml version="1.0" encoding="UTF-8"?>
<svg id="_レイヤー_2" xmlns="http://www.w3.org/2000/svg" width="90.87mm" height="22.78mm" version="1.1" viewBox="0 0 257.59 64.56">
  <!-- Generator: Adobe Illustrator 29.4.0, SVG Export Plug-In . SVG Version: 2.1.0 Build 152)  -->
  <g>
    <rect x=".96" y=".97" width="255.67" height="62.63" rx="4.1" ry="4.1" fill="#212a37"/>
    <path d="M252.53,64.1H5.06c-2.54,0-4.6-2.06-4.6-4.6V5.07C.46,2.53,2.52.47,5.06.47h247.47c2.54,0,4.6,2.06,4.6,4.6v54.43c0,2.54-2.06,4.6-4.6,4.6ZM5.06,1.47c-1.99,0-3.6,1.62-3.6,3.6v54.43c0,1.98,1.61,3.6,3.6,3.6h247.47c1.99,0,3.6-1.62,3.6-3.6V5.07c0-1.98-1.62-3.6-3.6-3.6,0,0-247.47,0-247.47,0Z" fill="#414e5b"/>
  </g>
  <g>
    <path d="M240.01,9.24c-.04-.14-.17-.21-.31-.21H60.94v.02H17.68c-.14,0-.26.09-.31.21-1.21,3.87-4.26,6.92-8.13,8.13-.14.04-.21.17-.21.31v29.22c0,.14.09.26.21.31,3.87,1.21,6.92,4.26,8.13,8.13.04.14.17.21.31.21h178.76v-.02h43.26c.14,0,.26-.09.31-.21,1.21-3.87,4.26-6.92,8.13-8.13.14-.04.21-.17.21-.31v-29.22c0-.14-.09-.26-.21-.31-3.87-1.21-6.92-4.26-8.13-8.13h0ZM247.74,46.67c-3.89,1.28-6.97,4.35-8.25,8.23H60.95v.02H17.92c-1.28-3.89-4.36-6.96-8.25-8.25v-28.78c3.89-1.28,6.97-4.35,8.25-8.23h178.53v-.02h43.04c1.28,3.89,4.36,6.96,8.25,8.25v28.78h0Z" fill="#c0b68a"/>
    <path d="M252.09,14.19c-.08-.08-.19-.12-.31-.12-2.34,0-4.45-.94-6-2.49s-2.49-3.64-2.49-6c0-.11-.04-.23-.12-.31s-.19-.12-.31-.12H14.51c-.11,0-.23.04-.31.12s-.12.19-.12.31c0,2.34-.94,4.45-2.49,6s-3.64,2.49-6,2.49c-.11,0-.23.04-.31.12s-.12.19-.12.31v35.58c0,.11.04.23.12.31s.19.12.31.12c2.34,0,4.45.94,6,2.49s2.49,3.64,2.49,6c0,.11.04.23.12.31s.19.12.31.12h228.37c.11,0,.23-.04.31-.12s.12-.19.12-.31c0-2.34.94-4.45,2.49-6s3.64-2.49,6-2.49c.11,0,.23-.04.31-.12s.12-.19.12-.31V14.49c0-.11-.04-.23-.12-.31h-.02,0ZM251.36,49.65c-2.41.11-4.58,1.13-6.16,2.73-1.6,1.59-2.63,3.76-2.73,6.16H14.93c-.11-2.41-1.13-4.58-2.73-6.16-1.59-1.59-3.76-2.61-6.16-2.73V14.92c2.41-.11,4.58-1.13,6.16-2.73,1.6-1.59,2.63-3.76,2.73-6.16h227.55c.11,2.41,1.13,4.58,2.73,6.16,1.59,1.59,3.76,2.61,6.16,2.73v34.72h-.01Z" fill="#c0b68a"/>
  </g>
  <g>
    <g>
      <circle cx="7.75" cy="8.15" r="1.98" fill="#c0b68a"/>
      <circle cx="7.75" cy="56.43" r="1.98" fill="#c0b68a"/>
    </g>
    <g>
      <circle cx="249.85" cy="8.15" r="1.98" fill="#c0b68a"/>
      <circle cx="249.85" cy="56.43" r="1.98" fill="#c0b68a"/>
    </g>
  </g>
  <g>
    <path d="M71.85,39.28c0,.08-.03.12-.1.12-.26,0-.66-.01-1.2-.04-.57-.03-.98-.04-1.22-.04-.32,0-.72.01-1.18.04-.44.03-.79.04-1.05.04-.05,0-.08-.04-.08-.12s.03-.12.08-.12c.34,0,.58-.04.73-.11s.22-.2.22-.38c0-.22-.13-.59-.39-1.11l-1.32-2.62h-4.78l-.76,1.69c-.17.38-.25.73-.25,1.05,0,.47.17.83.5,1.09s.77.39,1.33.39c.06,0,.1.04.1.12s-.03.12-.1.12c-.23,0-.57-.01-1.01-.04-.49-.03-.92-.04-1.28-.04s-.77.01-1.26.04c-.44.03-.8.04-1.07.04-.05,0-.08-.04-.08-.12s.03-.12.08-.12c.36,0,.67-.07.91-.22s.49-.41.74-.8c.25-.38.54-.95.87-1.7l4.22-9.27s.08-.06.18-.06c.1,0,.16.02.18.06l4.86,9.56c.45.92.83,1.55,1.13,1.9.3.35.61.52.93.52.06,0,.1.04.1.12ZM61.8,34.4h4.23l-2.23-4.43-2,4.43Z" fill="#131f2b"/>
    <path d="M86.55,39.28c0,.08-.03.12-.08.12-.34,0-.6,0-.8-.02l-1.17-.02-1.13.02c-.21.01-.48.02-.82.02-.04,0-.06-.04-.06-.12s.02-.12.06-.12c.4,0,.68-.09.83-.28.15-.19.22-.54.22-1.06v-2.8c0-.7-.12-1.22-.36-1.55-.24-.34-.61-.51-1.1-.51-.34,0-.67.07-.99.21-.32.14-.6.34-.84.58v4.06c0,.52.07.87.22,1.06.15.19.42.28.83.28.05,0,.08.04.08.12s-.03.12-.08.12c-.34,0-.6,0-.8-.02l-1.17-.02-1.13.02c-.21.01-.48.02-.82.02-.04,0-.06-.04-.06-.12s.02-.12.06-.12c.4,0,.68-.09.83-.28.15-.19.22-.54.22-1.06v-2.8c0-.7-.12-1.22-.36-1.55-.24-.34-.61-.51-1.1-.51-.31,0-.62.06-.92.18-.3.12-.57.3-.81.52v4.16c0,.52.07.87.22,1.06.15.19.42.28.83.28.04,0,.06.04.06.12s-.02.12-.06.12c-.34,0-.6,0-.8-.02l-1.17-.02-1.15.02c-.19.01-.46.02-.8.02-.04,0-.06-.04-.06-.12s.02-.12.06-.12c.4,0,.67-.09.82-.28.14-.19.21-.54.21-1.06v-3.65c0-.4-.05-.7-.15-.88-.1-.19-.25-.28-.46-.28-.22,0-.53.09-.93.27h-.04s-.07-.03-.09-.1-.02-.1,0-.12l2.7-1.32c.08-.03.12-.04.14-.04.14,0,.28.14.41.42.13.28.21.65.23,1.12.88-1.05,1.83-1.57,2.84-1.57.61,0,1.09.15,1.46.45.36.3.58.73.66,1.28.89-1.15,1.88-1.73,2.97-1.73.7,0,1.23.2,1.6.6.37.4.55,1.01.55,1.83v3.73c0,.52.07.87.22,1.06.15.19.42.28.83.28.05,0,.08.04.08.12Z" fill="#131f2b"/>
    <path d="M89.32,39.1c-.6-.37-1.07-.87-1.39-1.5-.32-.63-.49-1.31-.49-2.05,0-.84.21-1.56.64-2.15.43-.59.97-1.03,1.63-1.32.66-.29,1.34-.44,2.04-.44.8,0,1.5.19,2.1.56.6.38,1.05.87,1.37,1.49.32.62.48,1.27.48,1.97,0,.78-.19,1.47-.58,2.07s-.91,1.07-1.56,1.41c-.65.34-1.36.5-2.13.5-.8,0-1.51-.18-2.11-.55ZM93.17,38.49c.27-.5.4-1.21.4-2.15s-.12-1.68-.35-2.33c-.23-.65-.54-1.14-.91-1.47-.38-.33-.78-.5-1.2-.5-1.04,0-1.55.93-1.55,2.78,0,.87.11,1.64.33,2.3.22.67.52,1.18.89,1.55.38.37.79.55,1.24.55.51,0,.89-.25,1.16-.75Z" fill="#131f2b"/>
    <path d="M106.27,39.28c0,.08-.02.12-.06.12-.34,0-.6,0-.8-.02l-1.17-.02-1.13.02c-.21.01-.48.02-.82.02-.04,0-.06-.04-.06-.12s.02-.12.06-.12c.4,0,.67-.09.82-.28.14-.19.21-.54.21-1.06v-2.8c0-.7-.13-1.22-.38-1.55-.25-.34-.65-.51-1.19-.51-.31,0-.63.06-.96.19-.33.13-.62.3-.86.52v4.14c0,.52.07.87.22,1.06.15.19.42.28.83.28.04,0,.06.04.06.12s-.02.12-.06.12c-.34,0-.6,0-.8-.02l-1.17-.02-1.15.02c-.19.01-.46.02-.8.02-.04,0-.06-.04-.06-.12s.02-.12.06-.12c.4,0,.67-.09.82-.28.14-.19.21-.54.21-1.06v-3.65c0-.4-.05-.7-.15-.88-.1-.19-.25-.28-.46-.28-.22,0-.53.09-.93.27h-.04s-.07-.03-.09-.1-.02-.1,0-.12l2.7-1.32c.08-.03.12-.04.14-.04.14,0,.28.14.41.42.13.28.21.66.23,1.14.89-1.06,1.88-1.59,2.95-1.59.7,0,1.25.22,1.66.67.41.45.61,1.03.61,1.76v3.73c0,.52.07.87.22,1.06.15.19.42.28.83.28.04,0,.06.04.06.12Z" fill="#131f2b"/>
    <path d="M113.27,38.74c.49.08.89.27,1.22.57.33.3.5.77.5,1.39,0,.73-.22,1.41-.67,2.05-.45.64-1.05,1.16-1.81,1.54-.76.39-1.57.58-2.44.58s-1.63-.2-2.2-.61-.85-.94-.85-1.6c0-.91.65-1.79,1.96-2.64-.93-.18-1.4-.65-1.4-1.4,0-.8.45-1.51,1.36-2.12-.49-.23-.88-.56-1.16-.98-.28-.42-.42-.86-.42-1.33,0-.52.17-.96.51-1.32.34-.36.77-.64,1.29-.83s1.06-.28,1.6-.28c.82,0,1.52.21,2.1.62.67-.45,1.37-.68,2.1-.68.1,0,.16.18.16.54,0,.19-.03.4-.08.61s-.1.3-.16.26c-.53-.22-1.01-.33-1.44-.33h-.16c.35.41.52.88.52,1.4s-.17.98-.51,1.38c-.34.4-.77.71-1.29.92-.52.21-1.07.32-1.62.32-.4,0-.77-.06-1.11-.17-.21.22-.31.5-.31.83s.09.6.28.76c.19.16.44.25.75.29.31.04.77.07,1.38.08.76.01,1.39.06,1.87.14ZM112.82,43.63c.39-.41.58-.98.58-1.69,0-.56-.12-.96-.36-1.21s-.55-.41-.93-.47c-.38-.06-.94-.09-1.66-.11-.12,0-.28,0-.49-.02-.21-.01-.38-.03-.52-.04-.44.32-.66.84-.66,1.55,0,.83.24,1.47.73,1.92s1.07.68,1.74.68,1.19-.21,1.57-.62ZM109.26,33.61c0,.54.08,1.03.23,1.47.16.43.36.77.61,1.02.25.25.52.37.81.37s.52-.14.72-.43c.19-.28.29-.72.29-1.3s-.09-1.03-.27-1.43c-.18-.4-.41-.69-.69-.88-.28-.19-.55-.29-.83-.29-.58,0-.87.49-.87,1.48Z" fill="#131f2b"/>
    <path d="M136.07,39.28c0,.08-.01.12-.04.12-.44,0-.79,0-1.05-.02l-1.44-.02-1.46.02c-.25.01-.58.02-1.01.02-.04,0-.06-.04-.06-.12s.02-.12.06-.12c.54,0,.91-.06,1.11-.19.19-.13.29-.4.29-.82l-.02-.33-.41-7.95-4,9.38c-.03.05-.08.08-.16.08s-.13-.03-.16-.08l-4.91-9.34-.16,7.01c-.01.7.13,1.25.42,1.64.29.39.7.59,1.23.59.04,0,.06.04.06.12s-.02.12-.06.12c-.35,0-.62,0-.82-.02l-1.07-.02-1.22.02c-.21.01-.49.02-.84.02-.04,0-.06-.04-.06-.12s.02-.12.06-.12c.53,0,.95-.2,1.26-.6.31-.4.47-.94.49-1.63l.18-8.04-.02-.02c-.26-.48-.53-.83-.81-1.05s-.6-.33-.96-.33c-.04,0-.06-.04-.06-.12s.02-.12.06-.12l.91.02c.18.01.41.02.7.02l1.03-.02c.12-.01.27-.02.45-.02.17,0,.3.06.39.18.09.12.26.4.51.84l4.24,7.95,3.69-8.47c.08-.18.16-.31.24-.38.08-.07.2-.11.34-.11.12,0,.25,0,.4.02.15.01.32.02.51.02l1.15-.02c.18-.01.44-.02.78-.02.04,0,.06.04.06.12s-.02.12-.06.12c-.61,0-1.05.12-1.32.37-.27.25-.4.63-.37,1.15l.47,8.82c.03.4.07.69.15.87.07.18.2.3.39.37s.48.1.88.1c.03,0,.04.04.04.12Z" fill="#131f2b"/>
    <path d="M138.99,39.1c-.6-.37-1.07-.87-1.39-1.5-.32-.63-.49-1.31-.49-2.05,0-.84.21-1.56.64-2.15.43-.59.97-1.03,1.63-1.32.66-.29,1.34-.44,2.04-.44.8,0,1.5.19,2.1.56s1.05.87,1.37,1.49c.32.62.48,1.27.48,1.97,0,.78-.19,1.47-.58,2.07-.39.6-.91,1.07-1.56,1.41-.65.34-1.36.5-2.13.5-.8,0-1.51-.18-2.11-.55ZM142.84,38.49c.27-.5.4-1.21.4-2.15s-.12-1.68-.35-2.33c-.23-.65-.54-1.14-.91-1.47-.38-.33-.78-.5-1.2-.5-1.04,0-1.55.93-1.55,2.78,0,.87.11,1.64.33,2.3.22.67.52,1.18.89,1.55.38.37.79.55,1.24.55.51,0,.89-.25,1.16-.75Z" fill="#131f2b"/>
    <path d="M155.69,38.14s.07.03.11.1c.03.07.03.1,0,.12l-2.68,1.3s-.06.02-.1.02c-.13,0-.24-.14-.34-.42-.1-.28-.15-.66-.17-1.14-.86,1.01-1.78,1.52-2.78,1.52-.71,0-1.27-.22-1.68-.67s-.61-1.03-.61-1.76v-2.86c0-.84-.2-1.26-.6-1.26-.14,0-.3.05-.49.14h-.02c-.05,0-.09-.04-.12-.11-.03-.07-.02-.11.02-.13l2.6-1.24.1-.02c.06,0,.13.03.2.09s.11.11.11.17v4.29c0,1.4.54,2.1,1.61,2.1.28,0,.57-.06.86-.18s.55-.29.79-.52v-3.32c0-.84-.2-1.26-.6-1.26-.14,0-.31.05-.51.14h-.02s-.07-.04-.1-.11c-.03-.07-.02-.11.02-.13l2.6-1.24s.06-.02.1-.02c.06,0,.13.03.2.09.07.06.11.11.11.17v5.17c0,.44.04.75.13.93.08.18.22.27.42.27.18,0,.45-.07.8-.21h.04Z" fill="#131f2b"/>
    <path d="M165.75,39.28c0,.08-.02.12-.06.12-.34,0-.6,0-.8-.02l-1.16-.02-1.13.02c-.21.01-.48.02-.82.02-.04,0-.06-.04-.06-.12s.02-.12.06-.12c.4,0,.67-.09.82-.28.14-.19.21-.54.21-1.06v-2.8c0-.7-.13-1.22-.38-1.55-.25-.34-.65-.51-1.2-.51-.31,0-.63.06-.96.19-.33.13-.62.3-.86.52v4.14c0,.52.07.87.22,1.06.15.19.42.28.83.28.04,0,.06.04.06.12s-.02.12-.06.12c-.34,0-.6,0-.8-.02l-1.17-.02-1.15.02c-.19.01-.46.02-.8.02-.04,0-.06-.04-.06-.12s.02-.12.06-.12c.4,0,.67-.09.82-.28.14-.19.21-.54.21-1.06v-3.65c0-.4-.05-.7-.15-.88-.1-.19-.25-.28-.46-.28-.22,0-.53.09-.93.27h-.04s-.07-.03-.09-.1c-.02-.06-.02-.1,0-.12l2.7-1.32c.08-.03.12-.04.14-.04.14,0,.28.14.41.42.13.28.21.66.23,1.14.89-1.06,1.88-1.59,2.95-1.59.7,0,1.25.22,1.66.67s.61,1.03.61,1.76v3.73c0,.52.07.87.22,1.06.15.19.42.28.83.28.04,0,.06.04.06.12Z" fill="#131f2b"/>
    <path d="M172.32,38.04c.05,0,.09.03.13.08.03.05.03.09-.01.12-.48.48-.94.83-1.4,1.06-.45.23-.93.34-1.44.34-.57,0-1.06-.14-1.46-.41-.4-.27-.6-.73-.6-1.38v-4.31c0-.4-.07-.68-.21-.84-.14-.16-.4-.23-.78-.23-.01,0-.03-.02-.05-.06-.02-.04-.03-.08-.03-.12,0-.05,0-.09.02-.13.01-.03.03-.05.06-.05.66-.03,1.19-.17,1.6-.43.41-.26.72-.65.94-1.19.03-.05.08-.08.17-.08s.13.03.13.08v1.55c.75-.01,1.59-.07,2.53-.18.03,0,.06.05.09.15.03.1.05.2.05.32,0,.13-.02.26-.07.38-.05.12-.09.18-.15.17-.84-.18-1.66-.28-2.45-.29v4.6c0,.49.13.85.38,1.09.25.23.59.35,1,.35.52,0,1.02-.19,1.52-.58l.04-.02Z" fill="#131f2b"/>
    <path d="M180.69,38.35c.05,0,.09.03.11.09.02.06,0,.1-.05.13l-2,.95c-.05.03-.12.04-.19.04-.21,0-.41-.11-.59-.33-.19-.22-.32-.52-.4-.89l-.84.58c-.3.22-.58.38-.83.48-.26.1-.55.15-.87.15-.56,0-.98-.12-1.26-.37-.29-.25-.43-.59-.43-1.03,0-.35.08-.63.25-.85.17-.21.38-.38.63-.51.25-.12.61-.26,1.06-.42l.49-.17,1.75-.64v-1.11c0-.83-.07-1.43-.2-1.81-.14-.38-.37-.56-.69-.56-.69,0-1.07.53-1.16,1.59-.04.39-.15.67-.34.84-.19.17-.45.25-.79.25s-.56-.07-.71-.2c-.15-.14-.22-.31-.22-.53,0-.39.23-.76.68-1.12s1-.64,1.64-.86c.64-.22,1.21-.33,1.7-.33.57,0,1.03.18,1.39.53s.53.9.53,1.62v3.44c0,.38.07.67.2.87.14.21.33.31.57.31.18,0,.37-.04.56-.14h.02ZM177.53,38c-.01-.05-.02-.14-.02-.25v-1.86l-.83.39s-.17.06-.39.15c-.22.08-.41.22-.57.42-.16.19-.24.42-.24.68,0,.31.1.55.3.73.2.18.43.26.69.26.21,0,.42-.07.64-.21l.43-.29Z" fill="#131f2b"/>
    <path d="M181.43,39.28c0-.08.02-.12.06-.12.4,0,.67-.09.82-.28.14-.19.21-.54.21-1.06v-3.48c0-.44-.05-.76-.14-.95-.09-.19-.24-.29-.45-.29-.17,0-.41.07-.72.21h-.02c-.05,0-.09-.04-.12-.11-.03-.07-.02-.11.02-.13l2.93-1.36.06-.02c.06,0,.13.03.19.1.06.06.1.12.1.17v.43c-.03.52-.04,1.15-.04,1.9v3.52c0,.52.07.87.22,1.06.15.19.42.28.83.28.04,0,.06.04.06.12s-.02.12-.06.12c-.34,0-.6,0-.8-.02l-1.17-.02-1.15.02c-.19.01-.46.02-.8.02-.04,0-.06-.04-.06-.12ZM182.48,29.47c-.21-.21-.31-.5-.31-.87,0-.34.11-.61.32-.81.21-.2.5-.3.87-.3s.64.1.83.29c.19.19.29.47.29.82,0,.38-.1.67-.29.87-.19.21-.47.31-.83.31s-.67-.1-.87-.31Z" fill="#131f2b"/>
    <path d="M195.79,39.28c0,.08-.02.12-.06.12-.34,0-.6,0-.8-.02l-1.17-.02-1.13.02c-.21.01-.48.02-.82.02-.04,0-.06-.04-.06-.12s.02-.12.06-.12c.4,0,.67-.09.82-.28.14-.19.21-.54.21-1.06v-2.8c0-.7-.13-1.22-.38-1.55-.25-.34-.65-.51-1.2-.51-.31,0-.63.06-.96.19-.33.13-.62.3-.87.52v4.14c0,.52.07.87.22,1.06.15.19.42.28.83.28.04,0,.06.04.06.12s-.02.12-.06.12c-.34,0-.6,0-.8-.02l-1.17-.02-1.15.02c-.19.01-.46.02-.8.02-.04,0-.06-.04-.06-.12s.02-.12.06-.12c.4,0,.67-.09.82-.28.14-.19.21-.54.21-1.06v-3.65c0-.4-.05-.7-.15-.88-.1-.19-.25-.28-.46-.28-.22,0-.53.09-.93.27h-.04s-.07-.03-.09-.1c-.02-.06-.02-.1,0-.12l2.7-1.32c.08-.03.12-.04.14-.04.14,0,.28.14.41.42.13.28.21.66.23,1.14.89-1.06,1.88-1.59,2.95-1.59.7,0,1.25.22,1.66.67s.61,1.03.61,1.76v3.73c0,.52.07.87.22,1.06.15.19.42.28.83.28.04,0,.06.04.06.12Z" fill="#131f2b"/>
    <path d="M198.75,33.8c.27.27.65.56,1.16.85.49.29.86.51,1.1.67.24.16.46.39.65.68s.29.65.29,1.06c0,.44-.11.86-.33,1.24-.22.39-.55.7-.99.94-.44.24-.96.36-1.57.36-.71,0-1.39-.17-2.02-.52-.08-.08-.12-.16-.12-.23l-.04-1.92s.04-.06.11-.07c.07,0,.11,0,.13.03.21.65.55,1.2,1.03,1.65s.96.68,1.46.68c.27,0,.49-.08.65-.25.16-.17.24-.41.24-.74,0-.48-.14-.86-.41-1.14-.27-.28-.67-.57-1.2-.86-.45-.25-.8-.45-1.03-.6s-.44-.38-.62-.66c-.18-.28-.27-.63-.27-1.05,0-.76.27-1.32.82-1.68.54-.36,1.21-.53,2-.53.3,0,.57.02.81.06.24.04.51.12.81.23.12.04.17.11.17.21,0,.32,0,.58-.02.76l-.02.97s-.04.06-.12.06-.12-.02-.12-.06c0-.25-.1-.51-.31-.81-.21-.29-.48-.54-.81-.75-.33-.21-.67-.31-1.02-.31-.53,0-.8.25-.8.76,0,.38.13.7.4.97Z" fill="#131f2b"/>
  </g>
  <g>
    <path d="M70.85,38.28c0,.08-.03.12-.1.12-.26,0-.66-.01-1.2-.04-.57-.03-.98-.04-1.22-.04-.32,0-.72.01-1.18.04-.44.03-.79.04-1.05.04-.05,0-.08-.04-.08-.12s.03-.12.08-.12c.34,0,.58-.04.73-.11s.22-.2.22-.38c0-.22-.13-.59-.39-1.11l-1.32-2.62h-4.78l-.76,1.69c-.17.38-.25.73-.25,1.05,0,.47.17.83.5,1.09s.77.39,1.33.39c.06,0,.1.04.1.12s-.03.12-.1.12c-.23,0-.57-.01-1.01-.04-.49-.03-.92-.04-1.28-.04s-.77.01-1.26.04c-.44.03-.8.04-1.07.04-.05,0-.08-.04-.08-.12s.03-.12.08-.12c.36,0,.67-.07.91-.22s.49-.41.74-.8c.25-.38.54-.95.87-1.7l4.22-9.27s.08-.06.18-.06c.1,0,.16.02.18.06l4.86,9.56c.45.92.83,1.55,1.13,1.9.3.35.61.52.93.52.06,0,.1.04.1.12ZM60.8,33.4h4.23l-2.23-4.43-2,4.43Z" fill="#c0b68a"/>
    <path d="M85.55,38.28c0,.08-.03.12-.08.12-.34,0-.6,0-.8-.02l-1.17-.02-1.13.02c-.21.01-.48.02-.82.02-.04,0-.06-.04-.06-.12s.02-.12.06-.12c.4,0,.68-.09.83-.28.15-.19.22-.54.22-1.06v-2.8c0-.7-.12-1.22-.36-1.55-.24-.34-.61-.51-1.1-.51-.34,0-.67.07-.99.21-.32.14-.6.34-.84.58v4.06c0,.52.07.87.22,1.06.15.19.42.28.83.28.05,0,.08.04.08.12s-.03.12-.08.12c-.34,0-.6,0-.8-.02l-1.17-.02-1.13.02c-.21.01-.48.02-.82.02-.04,0-.06-.04-.06-.12s.02-.12.06-.12c.4,0,.68-.09.83-.28.15-.19.22-.54.22-1.06v-2.8c0-.7-.12-1.22-.36-1.55-.24-.34-.61-.51-1.1-.51-.31,0-.62.06-.92.18-.3.12-.57.3-.81.52v4.16c0,.52.07.87.22,1.06.15.19.42.28.83.28.04,0,.06.04.06.12s-.02.12-.06.12c-.34,0-.6,0-.8-.02l-1.17-.02-1.15.02c-.19.01-.46.02-.8.02-.04,0-.06-.04-.06-.12s.02-.12.06-.12c.4,0,.67-.09.82-.28.14-.19.21-.54.21-1.06v-3.65c0-.4-.05-.7-.15-.88-.1-.19-.25-.28-.46-.28-.22,0-.53.09-.93.27h-.04s-.07-.03-.09-.1-.02-.1,0-.12l2.7-1.32c.08-.03.12-.04.14-.04.14,0,.28.14.41.42.13.28.21.65.23,1.12.88-1.05,1.83-1.57,2.84-1.57.61,0,1.09.15,1.46.45.36.3.58.73.66,1.28.89-1.15,1.88-1.73,2.97-1.73.7,0,1.23.2,1.6.6.37.4.55,1.01.55,1.83v3.73c0,.52.07.87.22,1.06.15.19.42.28.83.28.05,0,.08.04.08.12Z" fill="#c0b68a"/>
    <path d="M88.32,38.1c-.6-.37-1.07-.87-1.39-1.5-.32-.63-.49-1.31-.49-2.05,0-.84.21-1.56.64-2.15.43-.59.97-1.03,1.63-1.32.66-.29,1.34-.44,2.04-.44.8,0,1.5.19,2.1.56.6.38,1.05.87,1.37,1.49.32.62.48,1.27.48,1.97,0,.78-.19,1.47-.58,2.07s-.91,1.07-1.56,1.41c-.65.34-1.36.5-2.13.5-.8,0-1.51-.18-2.11-.55ZM92.17,37.49c.27-.5.4-1.21.4-2.15s-.12-1.68-.35-2.33c-.23-.65-.54-1.14-.91-1.47-.38-.33-.78-.5-1.2-.5-1.04,0-1.55.93-1.55,2.78,0,.87.11,1.64.33,2.3.22.67.52,1.18.89,1.55.38.37.79.55,1.24.55.51,0,.89-.25,1.16-.75Z" fill="#c0b68a"/>
    <path d="M105.27,38.28c0,.08-.02.12-.06.12-.34,0-.6,0-.8-.02l-1.17-.02-1.13.02c-.21.01-.48.02-.82.02-.04,0-.06-.04-.06-.12s.02-.12.06-.12c.4,0,.67-.09.82-.28.14-.19.21-.54.21-1.06v-2.8c0-.7-.13-1.22-.38-1.55-.25-.34-.65-.51-1.19-.51-.31,0-.63.06-.96.19-.33.13-.62.3-.86.52v4.14c0,.52.07.87.22,1.06.15.19.42.28.83.28.04,0,.06.04.06.12s-.02.12-.06.12c-.34,0-.6,0-.8-.02l-1.17-.02-1.15.02c-.19.01-.46.02-.8.02-.04,0-.06-.04-.06-.12s.02-.12.06-.12c.4,0,.67-.09.82-.28.14-.19.21-.54.21-1.06v-3.65c0-.4-.05-.7-.15-.88-.1-.19-.25-.28-.46-.28-.22,0-.53.09-.93.27h-.04s-.07-.03-.09-.1-.02-.1,0-.12l2.7-1.32c.08-.03.12-.04.14-.04.14,0,.28.14.41.42.13.28.21.66.23,1.14.89-1.06,1.88-1.59,2.95-1.59.7,0,1.25.22,1.66.67.41.45.61,1.03.61,1.76v3.73c0,.52.07.87.22,1.06.15.19.42.28.83.28.04,0,.06.04.06.12Z" fill="#c0b68a"/>
    <path d="M112.27,37.74c.49.08.89.27,1.22.57.33.3.5.77.5,1.39,0,.73-.22,1.41-.67,2.05-.45.64-1.05,1.16-1.81,1.54-.76.39-1.57.58-2.44.58s-1.63-.2-2.2-.61-.85-.94-.85-1.6c0-.91.65-1.79,1.96-2.64-.93-.18-1.4-.65-1.4-1.4,0-.8.45-1.51,1.36-2.12-.49-.23-.88-.56-1.16-.98-.28-.42-.42-.86-.42-1.33,0-.52.17-.96.51-1.32.34-.36.77-.64,1.29-.83s1.06-.28,1.6-.28c.82,0,1.52.21,2.1.62.67-.45,1.37-.68,2.1-.68.1,0,.16.18.16.54,0,.19-.03.4-.08.61s-.1.3-.16.26c-.53-.22-1.01-.33-1.44-.33h-.16c.35.41.52.88.52,1.4s-.17.98-.51,1.38c-.34.4-.77.71-1.29.92-.52.21-1.07.32-1.62.32-.4,0-.77-.06-1.11-.17-.21.22-.31.5-.31.83s.09.6.28.76c.19.16.44.25.75.29.31.04.77.07,1.38.08.76.01,1.39.06,1.87.14ZM111.82,42.63c.39-.41.58-.98.58-1.69,0-.56-.12-.96-.36-1.21s-.55-.41-.93-.47c-.38-.06-.94-.09-1.66-.11-.12,0-.28,0-.49-.02-.21-.01-.38-.03-.52-.04-.44.32-.66.84-.66,1.55,0,.83.24,1.47.73,1.92s1.07.68,1.74.68,1.19-.21,1.57-.62ZM108.26,32.61c0,.54.08,1.03.23,1.47.16.43.36.77.61,1.02.25.25.52.37.81.37s.52-.14.72-.43c.19-.28.29-.72.29-1.3s-.09-1.03-.27-1.43c-.18-.4-.41-.69-.69-.88-.28-.19-.55-.29-.83-.29-.58,0-.87.49-.87,1.48Z" fill="#c0b68a"/>
    <path d="M135.07,38.28c0,.08-.01.12-.04.12-.44,0-.79,0-1.05-.02l-1.44-.02-1.46.02c-.25.01-.58.02-1.01.02-.04,0-.06-.04-.06-.12s.02-.12.06-.12c.54,0,.91-.06,1.11-.19.19-.13.29-.4.29-.82l-.02-.33-.41-7.95-4,9.38c-.03.05-.08.08-.16.08s-.13-.03-.16-.08l-4.91-9.34-.16,7.01c-.01.7.13,1.25.42,1.64.29.39.7.59,1.23.59.04,0,.06.04.06.12s-.02.12-.06.12c-.35,0-.62,0-.82-.02l-1.07-.02-1.22.02c-.21.01-.49.02-.84.02-.04,0-.06-.04-.06-.12s.02-.12.06-.12c.53,0,.95-.2,1.26-.6.31-.4.47-.94.49-1.63l.18-8.04-.02-.02c-.26-.48-.53-.83-.81-1.05s-.6-.33-.96-.33c-.04,0-.06-.04-.06-.12s.02-.12.06-.12l.91.02c.18.01.41.02.7.02l1.03-.02c.12-.01.27-.02.45-.02.17,0,.3.06.39.18.09.12.26.4.51.84l4.24,7.95,3.69-8.47c.08-.18.16-.31.24-.38.08-.07.2-.11.34-.11.12,0,.25,0,.4.02.15.01.32.02.51.02l1.15-.02c.18-.01.44-.02.78-.02.04,0,.06.04.06.12s-.02.12-.06.12c-.61,0-1.05.12-1.32.37-.27.25-.4.63-.37,1.15l.47,8.82c.03.4.07.69.15.87.07.18.2.3.39.37s.48.1.88.1c.03,0,.04.04.04.12Z" fill="#c0b68a"/>
    <path d="M137.99,38.1c-.6-.37-1.07-.87-1.39-1.5-.32-.63-.49-1.31-.49-2.05,0-.84.21-1.56.64-2.15.43-.59.97-1.03,1.63-1.32.66-.29,1.34-.44,2.04-.44.8,0,1.5.19,2.1.56s1.05.87,1.37,1.49c.32.62.48,1.27.48,1.97,0,.78-.19,1.47-.58,2.07-.39.6-.91,1.07-1.56,1.41-.65.34-1.36.5-2.13.5-.8,0-1.51-.18-2.11-.55ZM141.84,37.49c.27-.5.4-1.21.4-2.15s-.12-1.68-.35-2.33c-.23-.65-.54-1.14-.91-1.47-.38-.33-.78-.5-1.2-.5-1.04,0-1.55.93-1.55,2.78,0,.87.11,1.64.33,2.3.22.67.52,1.18.89,1.55.38.37.79.55,1.24.55.51,0,.89-.25,1.16-.75Z" fill="#c0b68a"/>
    <path d="M154.69,37.14s.07.03.11.1c.03.07.03.1,0,.12l-2.68,1.3s-.06.02-.1.02c-.13,0-.24-.14-.34-.42-.1-.28-.15-.66-.17-1.14-.86,1.01-1.78,1.52-2.78,1.52-.71,0-1.27-.22-1.68-.67s-.61-1.03-.61-1.76v-2.86c0-.84-.2-1.26-.6-1.26-.14,0-.3.05-.49.14h-.02c-.05,0-.09-.04-.12-.11-.03-.07-.02-.11.02-.13l2.6-1.24.1-.02c.06,0,.13.03.2.09s.11.11.11.17v4.29c0,1.4.54,2.1,1.61,2.1.28,0,.57-.06.86-.18s.55-.29.79-.52v-3.32c0-.84-.2-1.26-.6-1.26-.14,0-.31.05-.51.14h-.02s-.07-.04-.1-.11c-.03-.07-.02-.11.02-.13l2.6-1.24s.06-.02.1-.02c.06,0,.13.03.2.09.07.06.11.11.11.17v5.17c0,.44.04.75.13.93.08.18.22.27.42.27.18,0,.45-.07.8-.21h.04Z" fill="#c0b68a"/>
    <path d="M164.75,38.28c0,.08-.02.12-.06.12-.34,0-.6,0-.8-.02l-1.16-.02-1.13.02c-.21.01-.48.02-.82.02-.04,0-.06-.04-.06-.12s.02-.12.06-.12c.4,0,.67-.09.82-.28.14-.19.21-.54.21-1.06v-2.8c0-.7-.13-1.22-.38-1.55-.25-.34-.65-.51-1.2-.51-.31,0-.63.06-.96.19-.33.13-.62.3-.86.52v4.14c0,.52.07.87.22,1.06.15.19.42.28.83.28.04,0,.06.04.06.12s-.02.12-.06.12c-.34,0-.6,0-.8-.02l-1.17-.02-1.15.02c-.19.01-.46.02-.8.02-.04,0-.06-.04-.06-.12s.02-.12.06-.12c.4,0,.67-.09.82-.28.14-.19.21-.54.21-1.06v-3.65c0-.4-.05-.7-.15-.88-.1-.19-.25-.28-.46-.28-.22,0-.53.09-.93.27h-.04s-.07-.03-.09-.1c-.02-.06-.02-.1,0-.12l2.7-1.32c.08-.03.12-.04.14-.04.14,0,.28.14.41.42.13.28.21.66.23,1.14.89-1.06,1.88-1.59,2.95-1.59.7,0,1.25.22,1.66.67s.61,1.03.61,1.76v3.73c0,.52.07.87.22,1.06.15.19.42.28.83.28.04,0,.06.04.06.12Z" fill="#c0b68a"/>
    <path d="M171.32,37.04c.05,0,.09.03.13.08.03.05.03.09-.01.12-.48.48-.94.83-1.4,1.06-.45.23-.93.34-1.44.34-.57,0-1.06-.14-1.46-.41-.4-.27-.6-.73-.6-1.38v-4.31c0-.4-.07-.68-.21-.84-.14-.16-.4-.23-.78-.23-.01,0-.03-.02-.05-.06-.02-.04-.03-.08-.03-.12,0-.05,0-.09.02-.13.01-.03.03-.05.06-.05.66-.03,1.19-.17,1.6-.43.41-.26.72-.65.94-1.19.03-.05.08-.08.17-.08s.13.03.13.08v1.55c.75-.01,1.59-.07,2.53-.18.03,0,.06.05.09.15.03.1.05.2.05.32,0,.13-.02.26-.07.38-.05.12-.09.18-.15.17-.84-.18-1.66-.28-2.45-.29v4.6c0,.49.13.85.38,1.09.25.23.59.35,1,.35.52,0,1.02-.19,1.52-.58l.04-.02Z" fill="#c0b68a"/>
    <path d="M179.69,37.35c.05,0,.09.03.11.09.02.06,0,.1-.05.13l-2,.95c-.05.03-.12.04-.19.04-.21,0-.41-.11-.59-.33-.19-.22-.32-.52-.4-.89l-.84.58c-.3.22-.58.38-.83.48-.26.1-.55.15-.87.15-.56,0-.98-.12-1.26-.37-.29-.25-.43-.59-.43-1.03,0-.35.08-.63.25-.85.17-.21.38-.38.63-.51.25-.12.61-.26,1.06-.42l.49-.17,1.75-.64v-1.11c0-.83-.07-1.43-.2-1.81-.14-.38-.37-.56-.69-.56-.69,0-1.07.53-1.16,1.59-.04.39-.15.67-.34.84-.19.17-.45.25-.79.25s-.56-.07-.71-.2c-.15-.14-.22-.31-.22-.53,0-.39.23-.76.68-1.12s1-.64,1.64-.86c.64-.22,1.21-.33,1.7-.33.57,0,1.03.18,1.39.53s.53.9.53,1.62v3.44c0,.38.07.67.2.87.14.21.33.31.57.31.18,0,.37-.04.56-.14h.02ZM176.53,37c-.01-.05-.02-.14-.02-.25v-1.86l-.83.39s-.17.06-.39.15c-.22.08-.41.22-.57.42-.16.19-.24.42-.24.68,0,.31.1.55.3.73.2.18.43.26.69.26.21,0,.42-.07.64-.21l.43-.29Z" fill="#c0b68a"/>
    <path d="M180.43,38.28c0-.08.02-.12.06-.12.4,0,.67-.09.82-.28.14-.19.21-.54.21-1.06v-3.48c0-.44-.05-.76-.14-.95-.09-.19-.24-.29-.45-.29-.17,0-.41.07-.72.21h-.02c-.05,0-.09-.04-.12-.11-.03-.07-.02-.11.02-.13l2.93-1.36.06-.02c.06,0,.13.03.19.1.06.06.1.12.1.17v.43c-.03.52-.04,1.15-.04,1.9v3.52c0,.52.07.87.22,1.06.15.19.42.28.83.28.04,0,.06.04.06.12s-.02.12-.06.12c-.34,0-.6,0-.8-.02l-1.17-.02-1.15.02c-.19.01-.46.02-.8.02-.04,0-.06-.04-.06-.12ZM181.48,28.47c-.21-.21-.31-.5-.31-.87,0-.34.11-.61.32-.81.21-.2.5-.3.87-.3s.64.1.83.29c.19.19.29.47.29.82,0,.38-.1.67-.29.87-.19.21-.47.31-.83.31s-.67-.1-.87-.31Z" fill="#c0b68a"/>
    <path d="M194.79,38.28c0,.08-.02.12-.06.12-.34,0-.6,0-.8-.02l-1.17-.02-1.13.02c-.21.01-.48.02-.82.02-.04,0-.06-.04-.06-.12s.02-.12.06-.12c.4,0,.67-.09.82-.28.14-.19.21-.54.21-1.06v-2.8c0-.7-.13-1.22-.38-1.55-.25-.34-.65-.51-1.2-.51-.31,0-.63.06-.96.19-.33.13-.62.3-.87.52v4.14c0,.52.07.87.22,1.06.15.19.42.28.83.28.04,0,.06.04.06.12s-.02.12-.06.12c-.34,0-.6,0-.8-.02l-1.17-.02-1.15.02c-.19.01-.46.02-.8.02-.04,0-.06-.04-.06-.12s.02-.12.06-.12c.4,0,.67-.09.82-.28.14-.19.21-.54.21-1.06v-3.65c0-.4-.05-.7-.15-.88-.1-.19-.25-.28-.46-.28-.22,0-.53.09-.93.27h-.04s-.07-.03-.09-.1c-.02-.06-.02-.1,0-.12l2.7-1.32c.08-.03.12-.04.14-.04.14,0,.28.14.41.42.13.28.21.66.23,1.14.89-1.06,1.88-1.59,2.95-1.59.7,0,1.25.22,1.66.67s.61,1.03.61,1.76v3.73c0,.52.07.87.22,1.06.15.19.42.28.83.28.04,0,.06.04.06.12Z" fill="#c0b68a"/>
    <path d="M197.75,32.8c.27.27.65.56,1.16.85.49.29.86.51,1.1.67.24.16.46.39.65.68s.29.65.29,1.06c0,.44-.11.86-.33,1.24-.22.39-.55.7-.99.94-.44.24-.96.36-1.57.36-.71,0-1.39-.17-2.02-.52-.08-.08-.12-.16-.12-.23l-.04-1.92s.04-.06.11-.07c.07,0,.11,0,.13.03.21.65.55,1.2,1.03,1.65s.96.68,1.46.68c.27,0,.49-.08.65-.25.16-.17.24-.41.24-.74,0-.48-.14-.86-.41-1.14-.27-.28-.67-.57-1.2-.86-.45-.25-.8-.45-1.03-.6s-.44-.38-.62-.66c-.18-.28-.27-.63-.27-1.05,0-.76.27-1.32.82-1.68.54-.36,1.21-.53,2-.53.3,0,.57.02.81.06.24.04.51.12.81.23.12.04.17.11.17.21,0,.32,0,.58-.02.76l-.02.97s-.04.06-.12.06-.12-.02-.12-.06c0-.25-.1-.51-.31-.81-.21-.29-.48-.54-.81-.75-.33-.21-.67-.31-1.02-.31-.53,0-.8.25-.8.76,0,.38.13.7.4.97Z" fill="#c0b68a"/>
  </g>
</svg>