<?xml version="1.0" encoding="UTF-8"?>
<svg id="_レイヤー_2" xmlns="http://www.w3.org/2000/svg" width="90.87mm" height="22.78mm" version="1.1" viewBox="0 0 257.59 64.56">
  <!-- Generator: Adobe Illustrator 29.4.0, SVG Export Plug-In . SVG Version: 2.1.0 Build 152)  -->
  <g>
    <rect x=".96" y=".97" width="255.67" height="62.63" rx="4.1" ry="4.1" fill="#212a37"/>
    <path d="M252.53,64.1H5.06c-2.54,0-4.6-2.06-4.6-4.6V5.07C.46,2.53,2.52.47,5.06.47h247.47c2.54,0,4.6,2.06,4.6,4.6v54.43c0,2.54-2.06,4.6-4.6,4.6ZM5.06,1.47c-1.99,0-3.6,1.62-3.6,3.6v54.43c0,1.98,1.61,3.6,3.6,3.6h247.47c1.99,0,3.6-1.62,3.6-3.6V5.07c0-1.98-1.62-3.6-3.6-3.6,0,0-247.47,0-247.47,0Z" fill="#414e5b"/>
  </g>
  <g>
    <path d="M240.01,9.24c-.04-.14-.17-.21-.31-.21H60.94v.02H17.68c-.14,0-.26.09-.31.21-1.21,3.87-4.26,6.92-8.13,8.13-.14.04-.21.17-.21.31v29.22c0,.14.09.26.21.31,3.87,1.21,6.92,4.26,8.13,8.13.04.14.17.21.31.21h178.76v-.02h43.26c.14,0,.26-.09.31-.21,1.21-3.87,4.26-6.92,8.13-8.13.14-.04.21-.17.21-.31v-29.22c0-.14-.09-.26-.21-.31-3.87-1.21-6.92-4.26-8.13-8.13h0ZM247.74,46.67c-3.89,1.28-6.97,4.35-8.25,8.23H60.95v.02H17.92c-1.28-3.89-4.36-6.96-8.25-8.25v-28.78c3.89-1.28,6.97-4.35,8.25-8.23h178.53v-.02h43.04c1.28,3.89,4.36,6.96,8.25,8.25v28.78h0Z" fill="#c0b68a"/>
    <path d="M252.09,14.19c-.08-.08-.19-.12-.31-.12-2.34,0-4.45-.94-6-2.49s-2.49-3.64-2.49-6c0-.11-.04-.23-.12-.31s-.19-.12-.31-.12H14.51c-.11,0-.23.04-.31.12s-.12.19-.12.31c0,2.34-.94,4.45-2.49,6s-3.64,2.49-6,2.49c-.11,0-.23.04-.31.12s-.12.19-.12.31v35.58c0,.11.04.23.12.31s.19.12.31.12c2.34,0,4.45.94,6,2.49s2.49,3.64,2.49,6c0,.11.04.23.12.31s.19.12.31.12h228.37c.11,0,.23-.04.31-.12s.12-.19.12-.31c0-2.34.94-4.45,2.49-6s3.64-2.49,6-2.49c.11,0,.23-.04.31-.12s.12-.19.12-.31V14.49c0-.11-.04-.23-.12-.31h-.02,0ZM251.36,49.65c-2.41.11-4.58,1.13-6.16,2.73-1.6,1.59-2.63,3.76-2.73,6.16H14.93c-.11-2.41-1.13-4.58-2.73-6.16-1.59-1.59-3.76-2.61-6.16-2.73V14.92c2.41-.11,4.58-1.13,6.16-2.73,1.6-1.59,2.63-3.76,2.73-6.16h227.55c.11,2.41,1.13,4.58,2.73,6.16,1.59,1.59,3.76,2.61,6.16,2.73v34.72h-.01Z" fill="#c0b68a"/>
  </g>
  <g>
    <g>
      <circle cx="7.75" cy="8.15" r="1.98" fill="#c0b68a"/>
      <circle cx="7.75" cy="56.43" r="1.98" fill="#c0b68a"/>
    </g>
    <g>
      <circle cx="249.85" cy="8.15" r="1.98" fill="#c0b68a"/>
      <circle cx="249.85" cy="56.43" r="1.98" fill="#c0b68a"/>
    </g>
  </g>
  <g>
    <g>
      <path d="M64.38,27.08h2.51v11.03h-2.51v-11.03ZM68.07,27.08c.75,0,1.46.15,2.11.45s1.23.71,1.73,1.21c.49.5.88,1.09,1.16,1.76s.42,1.37.42,2.1-.14,1.42-.42,2.08c-.28.67-.66,1.26-1.16,1.76-.49.51-1.07.91-1.73,1.22-.66.3-1.37.45-2.13.45h-.19v-11.03h.19Z" fill="#131f2b"/>
      <path d="M77.69,27.07h2.51v11.03h-2.51v-11.03ZM83.36,32.59l2.27,5.51h-4.3v-11.03h4.3l-2.27,5.52Z" fill="#131f2b"/>
      <path d="M90.52,27.08h6.28v2.51h-6.28v-2.51ZM90.52,35.61h6.28v2.51h-6.28v-2.51ZM91.99,34.17c-.2-.2-.36-.43-.48-.7-.12-.27-.17-.56-.17-.87s.06-.6.17-.87c.11-.27.27-.5.48-.7.2-.2.45-.35.73-.47.28-.11.6-.17.93-.17s.65.06.93.17c.28.11.53.27.73.47.21.2.36.43.48.7.12.27.17.56.17.87s-.06.6-.17.87c-.11.27-.27.5-.48.7-.2.2-.45.36-.73.47-.28.11-.59.17-.93.17s-.65-.06-.93-.17-.53-.27-.73-.47Z" fill="#131f2b"/>
      <path d="M111.46,38.12h-10.17l5.08-11.03,5.08,11.03Z" fill="#131f2b"/>
      <path d="M123.47,38.11l-3.9-4.47-3.89,4.47v-11.03l3.89,4.47,3.9-4.47v11.03Z" fill="#131f2b"/>
      <path d="M130.62,33.18c.31-.14.64-.21.99-.21h1.98v5.14h-1.98c-.35,0-.68-.07-.98-.21-.31-.14-.58-.33-.81-.56-.23-.23-.41-.51-.54-.82-.13-.31-.2-.64-.2-.98s.06-.66.19-.97c.13-.31.31-.59.54-.82.23-.24.5-.43.81-.57h0ZM132.06,32c-.31.14-.64.21-.99.21h-1.98v-5.14h1.98c.35,0,.68.07.98.21.31.14.58.33.81.56.23.24.41.51.54.82.13.31.2.64.2.98s-.06.66-.19.97c-.13.31-.31.59-.54.82-.23.24-.5.43-.81.57h0Z" fill="#131f2b"/>
      <path d="M143.83,35.56c.4.16.81.24,1.25.24h0v2.31h0c-.85,0-1.63-.14-2.33-.42-.71-.28-1.32-.67-1.82-1.17-.51-.5-.91-1.08-1.19-1.75-.29-.67-.43-1.39-.43-2.17s.14-1.5.43-2.17c.29-.67.68-1.25,1.19-1.75s1.12-.89,1.82-1.17c.71-.28,1.49-.42,2.33-.42h0v2.31h0c-.44,0-.86.08-1.25.24-.39.16-.74.38-1.04.67s-.54.63-.71,1.02c-.18.39-.26.82-.26,1.28s.09.89.26,1.28c.17.39.41.73.71,1.02s.64.51,1.04.67h0ZM147.19,31.7c.12.27.18.57.18.89s-.06.62-.18.89c-.12.27-.29.51-.5.71-.21.2-.46.36-.73.47-.28.11-.57.17-.88.17s-.6-.05-.88-.17c-.28-.11-.52-.27-.73-.47-.21-.2-.37-.44-.49-.71s-.18-.57-.18-.89.06-.62.18-.89.29-.51.49-.71c.21-.2.45-.36.73-.47.28-.11.57-.17.88-.17s.6.05.88.17c.28.11.52.27.73.47.21.2.38.44.5.71Z" fill="#131f2b"/>
      <path d="M160.66,38.12h-10.17l5.08-11.03,5.08,11.03Z" fill="#131f2b"/>
      <path d="M164.9,27.07h2.51v11.03h-2.51v-11.03ZM172.74,31.61c.13.31.2.64.2.98s-.06.66-.19.97c-.13.31-.31.59-.54.82-.23.24-.5.43-.8.57-.31.14-.64.21-.99.21h-1.98v-5.14h1.98c.35,0,.68.07.99.21.31.14.58.33.81.56.23.24.41.51.54.82h0Z" fill="#131f2b"/>
      <path d="M176.92,27.08h6.28v2.51h-6.28v-2.51ZM176.92,35.61h6.28v2.51h-6.28v-2.51ZM178.39,34.17c-.2-.2-.36-.43-.48-.7-.12-.27-.17-.56-.17-.87s.06-.6.17-.87c.12-.27.27-.5.48-.7.2-.2.45-.35.73-.47.28-.11.6-.17.93-.17s.65.06.93.17c.28.11.53.27.73.47.21.2.36.43.48.7.11.27.17.56.17.87s-.06.6-.17.87c-.11.27-.27.5-.48.7-.2.2-.45.36-.73.47s-.59.17-.93.17-.65-.06-.93-.17c-.28-.11-.53-.27-.73-.47Z" fill="#131f2b"/>
      <path d="M190.86,33.18c.31-.14.64-.21.99-.21h1.98v5.14h-1.98c-.35,0-.68-.07-.98-.21-.31-.14-.58-.33-.81-.56-.23-.23-.41-.51-.54-.82s-.2-.64-.2-.98.06-.66.2-.97c.13-.31.31-.59.54-.82s.5-.43.81-.57h0ZM192.3,32c-.31.14-.64.21-.99.21h-1.98v-5.14h1.98c.35,0,.68.07.99.21.31.14.58.33.8.56.23.24.41.51.54.82.13.31.2.64.2.98s-.06.66-.2.97c-.13.31-.31.59-.54.82-.23.24-.5.43-.8.57h0Z" fill="#131f2b"/>
    </g>
    <g>
      <path d="M63.76,26.45h2.51v11.03h-2.51v-11.03ZM67.44,26.45c.75,0,1.46.15,2.11.45s1.23.71,1.73,1.21c.49.5.88,1.09,1.16,1.76s.42,1.37.42,2.1-.14,1.42-.42,2.08c-.28.67-.66,1.26-1.16,1.76-.49.51-1.07.91-1.73,1.22-.66.3-1.37.45-2.13.45h-.19v-11.03h.19Z" fill="#c0b68a"/>
      <path d="M77.06,26.44h2.51v11.03h-2.51v-11.03ZM82.73,31.96l2.27,5.51h-4.3v-11.03h4.3l-2.27,5.52Z" fill="#c0b68a"/>
      <path d="M89.89,26.45h6.28v2.51h-6.28v-2.51ZM89.89,34.98h6.28v2.51h-6.28v-2.51ZM91.37,33.54c-.2-.2-.36-.43-.48-.7-.12-.27-.17-.56-.17-.87s.06-.6.17-.87c.11-.27.27-.5.48-.7.2-.2.45-.35.73-.47.28-.11.6-.17.93-.17s.65.06.93.17c.28.11.53.27.73.47.21.2.36.43.48.7.12.27.17.56.17.87s-.06.6-.17.87c-.11.27-.27.5-.48.7-.2.2-.45.36-.73.47-.28.11-.59.17-.93.17s-.65-.06-.93-.17-.53-.27-.73-.47Z" fill="#c0b68a"/>
      <path d="M110.84,37.49h-10.17l5.08-11.03,5.08,11.03Z" fill="#c0b68a"/>
      <path d="M122.85,37.48l-3.9-4.47-3.89,4.47v-11.03l3.89,4.47,3.9-4.47v11.03Z" fill="#c0b68a"/>
      <path d="M130,32.55c.31-.14.64-.21.99-.21h1.98v5.14h-1.98c-.35,0-.68-.07-.98-.21-.31-.14-.58-.33-.81-.56-.23-.23-.41-.51-.54-.82-.13-.31-.2-.64-.2-.98s.06-.66.19-.97c.13-.31.31-.59.54-.82.23-.24.5-.43.81-.57h0ZM131.43,31.38c-.31.14-.64.21-.99.21h-1.98v-5.14h1.98c.35,0,.68.07.98.21.31.14.58.33.81.56.23.24.41.51.54.82.13.31.2.64.2.98s-.06.66-.19.97c-.13.31-.31.59-.54.82-.23.24-.5.43-.81.57h0Z" fill="#c0b68a"/>
      <path d="M143.2,34.93c.4.16.81.24,1.25.24h0v2.31h0c-.85,0-1.63-.14-2.33-.42-.71-.28-1.32-.67-1.82-1.17-.51-.5-.91-1.08-1.19-1.75-.29-.67-.43-1.39-.43-2.17s.14-1.5.43-2.17c.29-.67.68-1.25,1.19-1.75s1.12-.89,1.82-1.17c.71-.28,1.49-.42,2.33-.42h0v2.31h0c-.44,0-.86.08-1.25.24-.39.16-.74.38-1.04.67s-.54.63-.71,1.02c-.18.39-.26.82-.26,1.28s.09.89.26,1.28c.17.39.41.73.71,1.02s.64.51,1.04.67h0ZM146.57,31.08c.12.27.18.57.18.89s-.06.62-.18.89c-.12.27-.29.51-.5.71-.21.2-.46.36-.73.47-.28.11-.57.17-.88.17s-.6-.05-.88-.17c-.28-.11-.52-.27-.73-.47-.21-.2-.37-.44-.49-.71s-.18-.57-.18-.89.06-.62.18-.89.29-.51.49-.71c.21-.2.45-.36.73-.47.28-.11.57-.17.88-.17s.6.05.88.17c.28.11.52.27.73.47.21.2.38.44.5.71Z" fill="#c0b68a"/>
      <path d="M160.04,37.49h-10.17l5.08-11.03,5.08,11.03Z" fill="#c0b68a"/>
      <path d="M164.28,26.44h2.51v11.03h-2.51v-11.03ZM172.12,30.98c.13.31.2.64.2.98s-.06.66-.19.97c-.13.31-.31.59-.54.82-.23.24-.5.43-.8.57-.31.14-.64.21-.99.21h-1.98v-5.14h1.98c.35,0,.68.07.99.21.31.14.58.33.81.56.23.24.41.51.54.82h0Z" fill="#c0b68a"/>
      <path d="M176.29,26.45h6.28v2.51h-6.28v-2.51ZM176.29,34.98h6.28v2.51h-6.28v-2.51ZM177.77,33.54c-.2-.2-.36-.43-.48-.7-.12-.27-.17-.56-.17-.87s.06-.6.17-.87c.12-.27.27-.5.48-.7.2-.2.45-.35.73-.47.28-.11.6-.17.93-.17s.65.06.93.17c.28.11.53.27.73.47.21.2.36.43.48.7.11.27.17.56.17.87s-.06.6-.17.87c-.11.27-.27.5-.48.7-.2.2-.45.36-.73.47s-.59.17-.93.17-.65-.06-.93-.17c-.28-.11-.53-.27-.73-.47Z" fill="#c0b68a"/>
      <path d="M190.24,32.55c.31-.14.64-.21.99-.21h1.98v5.14h-1.98c-.35,0-.68-.07-.98-.21-.31-.14-.58-.33-.81-.56-.23-.23-.41-.51-.54-.82s-.2-.64-.2-.98.06-.66.2-.97c.13-.31.31-.59.54-.82s.5-.43.81-.57h0ZM191.67,31.38c-.31.14-.64.21-.99.21h-1.98v-5.14h1.98c.35,0,.68.07.99.21.31.14.58.33.8.56.23.24.41.51.54.82.13.31.2.64.2.98s-.06.66-.2.97c-.13.31-.31.59-.54.82-.23.24-.5.43-.8.57h0Z" fill="#c0b68a"/>
    </g>
  </g>
</svg>