<?xml version="1.0" encoding="UTF-8"?>
<svg id="_レイヤー_1" xmlns="http://www.w3.org/2000/svg" width="25.96" height="25.96" version="1.1" viewBox="0 0 25.96 25.96">
  <!-- Generator: Adobe Illustrator 29.4.0, SVG Export Plug-In . SVG Version: 2.1.0 Build 152)  -->
  <g id="_レイヤー_2">
    <circle cx="12.98" cy="12.98" r="8.53" fill="#dcd7c2"/>
    <path d="M12.98,4.16c4.87,0,8.83,3.96,8.83,8.83s-3.96,8.83-8.83,8.83-8.82-3.96-8.82-8.83,3.96-8.82,8.82-8.82M12.98,3.88C7.96,3.88,3.88,7.96,3.88,12.98s4.08,9.11,9.11,9.11,9.11-4.08,9.11-9.11S18.01,3.88,12.98,3.88h0Z" fill="#dcd7c2"/>
  </g>
  <g id="_レイヤー_3">
    <path d="M14.57,18.12c-.62,0-1.14-.44-1.35-.66-.46.45-.93.65-1.41.59-.71-.08-1.21-.69-1.42-.99-.68.7-1.5.7-2.03.38-.5-.3-.7-.87-.49-1.4.33-.82,1.62-4.37,1.63-4.41v-.04c.49-1.5,2.01-2.55,3.72-2.55s3.19,1.02,3.68,2.49h.01l.04.18c.03.1.05.2.07.31.13.57.41,1.72.74,2.87.13.45.25.84.36,1.15h0c.16.48.05,1.01-.3,1.38-.34.36-.81.5-1.28.38-.34-.09-.62-.24-.77-.34-.34.42-.74.64-1.17.65h-.03,0ZM13.22,17.04l.1.12s.56.67,1.24.67h.03c.37-.01.71-.22,1.02-.64l.08-.11.11.08s.36.25.8.37c.36.09.74-.01,1-.3.27-.3.37-.71.24-1.09h0c-.11-.31-.23-.71-.36-1.17-.33-1.16-.61-2.31-.74-2.89-.02-.1-.04-.2-.07-.3l-.02-.06c-.43-1.41-1.84-2.39-3.44-2.39s-3.02.98-3.44,2.39l-.04.1c-.21.57-1.31,3.57-1.6,4.32-.16.41-.02.82.37,1.05.46.28,1.2.24,1.8-.46l.13-.15.1.18s.54.92,1.31,1.01c.42.05.85-.16,1.27-.61l.11-.12h0Z" fill="#5f8390"/>
    <g>
      <circle cx="10.46" cy="9.2" r="1.22" fill="#dcd7c2"/>
      <path d="M10.46,10.56c-.75,0-1.36-.61-1.36-1.36s.61-1.36,1.36-1.36,1.36.61,1.36,1.36-.61,1.36-1.36,1.36ZM10.46,8.13c-.59,0-1.07.48-1.07,1.07s.48,1.07,1.07,1.07,1.07-.48,1.07-1.07-.48-1.07-1.07-1.07Z" fill="#5f8390"/>
    </g>
    <g>
      <circle cx="15.94" cy="9.2" r="1.22" fill="#dcd7c2"/>
      <path d="M15.94,10.56c-.75,0-1.36-.61-1.36-1.36s.61-1.36,1.36-1.36,1.36.61,1.36,1.36-.61,1.36-1.36,1.36ZM15.94,8.13c-.59,0-1.07.48-1.07,1.07s.48,1.07,1.07,1.07,1.07-.48,1.07-1.07-.48-1.07-1.07-1.07Z" fill="#5f8390"/>
    </g>
    <path d="M13.21,15.48c-1.68,0-2.94-1.02-2.94-2.37s1.32-2.54,2.94-2.54,2.94,1.14,2.94,2.54-1.26,2.37-2.94,2.37ZM13.21,10.85c-1.47,0-2.66,1.01-2.66,2.26s1.14,2.09,2.66,2.09,2.66-.9,2.66-2.09-1.19-2.26-2.66-2.26Z" fill="#5f8390"/>
    <circle cx="11.82" cy="13.19" r=".43" fill="#5f8390"/>
    <ellipse cx="14.55" cy="13.19" rx=".42" ry=".43" fill="#5f8390"/>
    <path d="M13.21,14.55c-.31,0-.57-.1-.73-.28-.05-.06-.05-.15.01-.21.06-.05.15-.05.21.01.1.12.3.18.52.18s.43-.07.51-.17c.05-.06.15-.07.21-.02.06.05.07.15.02.21-.14.17-.42.28-.73.28,0,0-.03,0-.03,0Z" fill="#5f8390"/>
  </g>
</svg>