<?xml version="1.0" encoding="UTF-8"?>
<svg id="_レイヤー_1" xmlns="http://www.w3.org/2000/svg" width="108.75" height="108.75" version="1.1" viewBox="0 0 108.75 108.75">
  <!-- Generator: Adobe Illustrator 29.4.0, SVG Export Plug-In . SVG Version: 2.1.0 Build 152)  -->
  <g id="_レイヤー_2">
    <circle cx="54.33" cy="54.35" r="46.82" transform="translate(-1.61 107.05) rotate(-88.3)" fill="#dcd7c2"/>
    <path d="M54.33,5.95c26.73,0,48.46,21.73,48.46,48.46s-21.73,48.46-48.46,48.46S5.92,81.14,5.92,54.41,27.66,6,54.33,6M54.33,4.41C26.78,4.41,4.39,26.8,4.39,54.35s22.39,50,50,50,50-22.39,50-50S81.94,4.41,54.33,4.41h0Z" fill="#dcd7c2"/>
  </g>
  <g id="_レイヤー_3">
    <path d="M63.06,82.56c-3.4,0-6.26-2.41-7.41-3.62-2.52,2.47-5.1,3.57-7.74,3.24-3.9-.44-6.64-3.79-7.79-5.43-3.73,3.84-8.23,3.84-11.14,2.09-2.74-1.65-3.84-4.77-2.69-7.68,1.81-4.5,8.89-23.98,8.95-24.2v-.22c2.69-8.23,11.03-14,20.42-14s17.51,5.6,20.2,13.67h.05l.22.99c.16.55.27,1.1.38,1.7.71,3.13,2.25,9.44,4.06,15.75.71,2.47,1.37,4.61,1.98,6.31h0c.88,2.63.27,5.54-1.65,7.57-1.87,1.98-4.45,2.74-7.03,2.09-1.87-.49-3.4-1.32-4.23-1.87-1.87,2.31-4.06,3.51-6.42,3.57h-.16v.05ZM55.65,76.64l.55.66s3.07,3.68,6.81,3.68h.16c2.03-.05,3.9-1.21,5.6-3.51l.44-.6.6.44s1.98,1.37,4.39,2.03c1.98.49,4.06-.05,5.49-1.65,1.48-1.65,2.03-3.9,1.32-5.98h0c-.6-1.7-1.26-3.9-1.98-6.42-1.81-6.37-3.35-12.68-4.06-15.86-.11-.55-.22-1.1-.38-1.65l-.11-.33c-2.36-7.74-10.1-13.12-18.88-13.12s-16.58,5.38-18.88,13.12l-.22.55c-1.15,3.13-7.19,19.59-8.78,23.71-.88,2.25-.11,4.5,2.03,5.76,2.52,1.54,6.59,1.32,9.88-2.52l.71-.82.55.99s2.96,5.05,7.19,5.54c2.31.27,4.67-.88,6.97-3.35l.6-.66h0Z" fill="#5f8390"/>
    <g>
      <circle cx="40.5" cy="33.61" r="6.7" fill="#dcd7c2"/>
      <path d="M40.5,41.07c-4.12,0-7.46-3.35-7.46-7.46s3.35-7.46,7.46-7.46,7.46,3.35,7.46,7.46-3.35,7.46-7.46,7.46ZM40.5,27.73c-3.24,0-5.87,2.63-5.87,5.87s2.63,5.87,5.87,5.87,5.87-2.63,5.87-5.87-2.63-5.87-5.87-5.87Z" fill="#5f8390"/>
    </g>
    <g>
      <circle cx="70.58" cy="33.61" r="6.7" fill="#dcd7c2"/>
      <path d="M70.58,41.07c-4.12,0-7.46-3.35-7.46-7.46s3.35-7.46,7.46-7.46,7.46,3.35,7.46,7.46-3.35,7.46-7.46,7.46ZM70.58,27.73c-3.24,0-5.87,2.63-5.87,5.87s2.63,5.87,5.87,5.87,5.87-2.63,5.87-5.87-2.63-5.87-5.87-5.87Z" fill="#5f8390"/>
    </g>
    <path d="M55.59,68.08c-9.22,0-16.14-5.6-16.14-13.01s7.24-13.94,16.14-13.94,16.14,6.26,16.14,13.94-6.92,13.01-16.14,13.01ZM55.59,42.66c-8.07,0-14.6,5.54-14.6,12.4s6.26,11.47,14.6,11.47,14.6-4.94,14.6-11.47-6.53-12.4-14.6-12.4Z" fill="#5f8390"/>
    <circle cx="47.96" cy="55.51" r="2.36" fill="#5f8390"/>
    <ellipse cx="62.95" cy="55.51" rx="2.31" ry="2.36" fill="#5f8390"/>
    <path d="M55.59,62.97c-1.7,0-3.13-.55-4.01-1.54-.27-.33-.27-.82.05-1.15.33-.27.82-.27,1.15.05.55.66,1.65.99,2.85.99s2.36-.38,2.8-.93c.27-.33.82-.38,1.15-.11.33.27.38.82.11,1.15-.77.93-2.31,1.54-4.01,1.54h-.16.05Z" fill="#5f8390"/>
  </g>
</svg>