<svg xmlns="http://www.w3.org/2000/svg" viewBox="0 0 51.02 51.02"><g fill="#dcd7c2"><circle cx="25.51" cy="25.51" r="22.82"/><path d="M25.51 1.92c13.01 0 23.6 10.58 23.6 23.6s-10.58 23.6-23.6 23.6S1.92 38.52 1.92 25.51 12.5 1.92 25.51 1.92m0-.75c-13.44 0-24.34 10.9-24.34 24.34s10.9 24.35 24.35 24.35 24.35-10.9 24.35-24.35S38.96 1.17 25.51 1.17Z"/></g><path fill="#5f8390" d="M29.74 39.26c-1.67 0-3.04-1.18-3.61-1.76-1.22 1.2-2.48 1.74-3.77 1.59-1.89-.22-3.24-1.85-3.8-2.64-1.83 1.86-4.02 1.87-5.44 1.02-1.35-.81-1.87-2.32-1.3-3.75.87-2.19 4.34-11.69 4.37-11.78l.04-.1c1.28-4.02 5.34-6.81 9.9-6.81s8.52 2.73 9.85 6.66h.03l.11.47c.07.26.14.54.19.83.35 1.53 1.09 4.59 1.97 7.68.35 1.21.67 2.25.95 3.08a3.66 3.66 0 0 1-.8 3.68c-.9.96-2.17 1.34-3.42 1.01a8 8 0 0 1-2.07-.9c-.92 1.12-1.97 1.7-3.12 1.73h-.09Zm-3.59-2.89.28.33s1.51 1.79 3.31 1.79h.07c.99-.03 1.91-.6 2.74-1.7l.22-.3.3.22s.96.68 2.13.98c.97.25 1.97-.04 2.67-.8.73-.79.98-1.91.64-2.92-.29-.84-.61-1.89-.96-3.12-.89-3.11-1.63-6.18-1.99-7.74-.05-.28-.11-.54-.18-.79l-.05-.16c-1.14-3.76-4.93-6.39-9.21-6.39s-8.07 2.63-9.21 6.39l-.1.27c-.56 1.53-3.49 9.55-4.29 11.55-.43 1.09-.05 2.19.99 2.81 1.24.74 3.2.65 4.81-1.23l.35-.41.27.47s1.44 2.46 3.51 2.7c1.12.13 2.27-.42 3.4-1.64l.3-.32Z"/><circle cx="18.76" cy="15.4" r="3.25" fill="#dcd7c2"/><path fill="#5f8390" d="M18.76 19.03c-2 0-3.63-1.63-3.63-3.63s1.63-3.63 3.63-3.63 3.63 1.63 3.63 3.63-1.63 3.63-3.63 3.63Zm0-6.5c-1.58 0-2.87 1.29-2.87 2.87s1.29 2.87 2.87 2.87 2.87-1.29 2.87-2.87-1.29-2.87-2.87-2.87Z"/><circle cx="33.42" cy="15.4" r="3.25" fill="#dcd7c2"/><path fill="#5f8390" d="M33.42 19.03c-2 0-3.63-1.63-3.63-3.63s1.63-3.63 3.63-3.63 3.63 1.63 3.63 3.63-1.63 3.63-3.63 3.63Zm0-6.5c-1.58 0-2.87 1.29-2.87 2.87s1.29 2.87 2.87 2.87 2.87-1.29 2.87-2.87-1.29-2.87-2.87-2.87ZM26.1 32.2c-4.49 0-7.87-2.73-7.87-6.35s3.53-6.8 7.87-6.8 7.87 3.05 7.87 6.8-3.38 6.35-7.87 6.35Zm0-12.39c-3.92 0-7.11 2.71-7.11 6.04s3.06 5.59 7.11 5.59 7.11-2.4 7.11-5.59-3.19-6.04-7.11-6.04Z"/><circle cx="22.4" cy="26.07" r="1.16" fill="#5f8390"/><ellipse cx="29.7" cy="26.07" fill="#5f8390" rx="1.11" ry="1.16"/><path fill="#5f8390" d="M26.1 29.71c-.82 0-1.53-.27-1.95-.74a.397.397 0 0 1 .6-.52c.27.31.79.47 1.4.47s1.15-.2 1.36-.46c.14-.17.39-.19.56-.06.17.14.19.39.06.56-.37.45-1.12.74-1.96.75h-.07Z"/></svg>