<?xml version="1.0" encoding="UTF-8"?>
<svg id="_レイヤー_1" data-name="レイヤー_1" xmlns="http://www.w3.org/2000/svg" width="50" height="50" version="1.1" viewBox="0 0 50 50">
  <!-- Generator: Adobe Illustrator 29.4.0, SVG Export Plug-In . SVG Version: 2.1.0 Build 152)  -->
  <path d="M29.98,27.73c3.45-2.24,9.45-2.47,20.02-2.73-10.57-.25-16.57-.49-20.02-2.73,1.25-3,4.49-6.48,9.72-11.98-5.5,5.24-8.98,8.48-11.98,9.72-2.24-3.45-2.47-9.45-2.73-20.02-.25,10.57-.49,16.57-2.73,20.02-3-1.25-6.48-4.49-11.98-9.72,5.24,5.5,8.48,8.98,9.72,11.98-3.45,2.24-9.45,2.47-20.02,2.73,10.57.25,16.57.49,20.02,2.73-1.25,3-4.49,6.48-9.72,11.98,5.5-5.24,8.98-8.48,11.98-9.72,2.24,3.45,2.47,9.45,2.73,20.02.25-10.57.49-16.57,2.73-20.02,3,1.25,6.48,4.49,11.98,9.72-5.24-5.5-8.48-8.98-9.72-11.98Z" fill="#f2e0af"/>
</svg>