<?xml version="1.0" encoding="UTF-8"?>
<svg id="_レイヤー_2" xmlns="http://www.w3.org/2000/svg" width="257.59" height="64.56" version="1.1" viewBox="0 0 257.59 64.56">
  <!-- Generator: Adobe Illustrator 29.4.0, SVG Export Plug-In . SVG Version: 2.1.0 Build 152)  -->
  <g>
    <rect x=".96" y=".97" width="255.67" height="62.63" rx="4.1" ry="4.1" fill="#212a37"/>
    <path d="M252.53,64.1H5.06c-2.54,0-4.6-2.06-4.6-4.6V5.07C.46,2.53,2.52.47,5.06.47h247.47c2.54,0,4.6,2.06,4.6,4.6v54.43c0,2.54-2.06,4.6-4.6,4.6ZM5.06,1.47c-1.99,0-3.6,1.62-3.6,3.6v54.43c0,1.98,1.61,3.6,3.6,3.6h247.47c1.99,0,3.6-1.62,3.6-3.6V5.07c0-1.98-1.62-3.6-3.6-3.6,0,0-247.47,0-247.47,0Z" fill="#414e5b"/>
  </g>
  <g>
    <path d="M240.01,9.24c-.04-.14-.17-.21-.31-.21H60.94v.02H17.68c-.14,0-.26.09-.31.21-1.21,3.87-4.26,6.92-8.13,8.13-.14.04-.21.17-.21.31v29.22c0,.14.09.26.21.31,3.87,1.21,6.92,4.26,8.13,8.13.04.14.17.21.31.21h178.76v-.02h43.26c.14,0,.26-.09.31-.21,1.21-3.87,4.26-6.92,8.13-8.13.14-.04.21-.17.21-.31v-29.22c0-.14-.09-.26-.21-.31-3.87-1.21-6.92-4.26-8.13-8.13h0ZM247.74,46.67c-3.89,1.28-6.97,4.35-8.25,8.23H60.95v.02H17.92c-1.28-3.89-4.36-6.96-8.25-8.25v-28.78c3.89-1.28,6.97-4.35,8.25-8.23h178.53v-.02h43.04c1.28,3.89,4.36,6.96,8.25,8.25v28.78h0Z" fill="#c0b68a"/>
    <path d="M252.09,14.19c-.08-.08-.19-.12-.31-.12-2.34,0-4.45-.94-6-2.49s-2.49-3.64-2.49-6c0-.11-.04-.23-.12-.31s-.19-.12-.31-.12H14.51c-.11,0-.23.04-.31.12s-.12.19-.12.31c0,2.34-.94,4.45-2.49,6s-3.64,2.49-6,2.49c-.11,0-.23.04-.31.12s-.12.19-.12.31v35.58c0,.11.04.23.12.31s.19.12.31.12c2.34,0,4.45.94,6,2.49s2.49,3.64,2.49,6c0,.11.04.23.12.31s.19.12.31.12h228.37c.11,0,.23-.04.31-.12s.12-.19.12-.31c0-2.34.94-4.45,2.49-6s3.64-2.49,6-2.49c.11,0,.23-.04.31-.12s.12-.19.12-.31V14.49c0-.11-.04-.23-.12-.31h-.02,0ZM251.36,49.65c-2.41.11-4.58,1.13-6.16,2.73-1.6,1.59-2.63,3.76-2.73,6.16H14.93c-.11-2.41-1.13-4.58-2.73-6.16-1.59-1.59-3.76-2.61-6.16-2.73V14.92c2.41-.11,4.58-1.13,6.16-2.73,1.6-1.59,2.63-3.76,2.73-6.16h227.55c.11,2.41,1.13,4.58,2.73,6.16,1.59,1.59,3.76,2.61,6.16,2.73v34.72h-.01Z" fill="#c0b68a"/>
  </g>
  <g>
    <g>
      <circle cx="7.75" cy="8.15" r="1.98" fill="#c0b68a"/>
      <circle cx="7.75" cy="56.43" r="1.98" fill="#c0b68a"/>
    </g>
    <g>
      <circle cx="249.85" cy="8.15" r="1.98" fill="#c0b68a"/>
      <circle cx="249.85" cy="56.43" r="1.98" fill="#c0b68a"/>
    </g>
  </g>
  <g>
    <path d="M26.51,37.35c.09.18.26.31.51.39.25.08.65.11,1.19.11.04,0,.06.04.06.12s-.02.11-.06.11c-.52,0-.93,0-1.22-.02l-1.66-.02-1.4.02c-.25,0-.6.02-1.03.02-.04,0-.06-.04-.06-.11s.02-.12.06-.12c.41,0,.7-.03.89-.1.18-.06.31-.19.37-.37.06-.18.1-.47.1-.85v-8.85c0-.38-.03-.66-.1-.84-.06-.18-.19-.3-.38-.37-.19-.07-.48-.1-.88-.1-.04,0-.06-.04-.06-.11s.02-.11.06-.11l1.01.02c.59.03,1.05.04,1.4.04.31,0,.67-.02,1.09-.06.17-.01.38-.03.63-.04s.55-.02.88-.02c1.3,0,2.32.27,3.08.81.75.54,1.13,1.38,1.13,2.51,0,.79-.2,1.46-.61,2.01s-.93.96-1.58,1.24c-.64.28-1.3.42-1.98.42-.34,0-.64-.03-.9-.1-.03,0-.04-.03-.04-.1,0-.04,0-.08.03-.11.02-.04.04-.05.07-.04.19.05.41.08.65.08.59,0,1.07-.27,1.46-.82s.58-1.32.58-2.33-.21-1.78-.64-2.33-1.05-.82-1.86-.82c-.36,0-.6.08-.73.25s-.19.49-.19.97v8.73c0,.41.04.7.13.89Z" fill="#131f2b"/>
    <path d="M34.83,37.79c-.59-.36-1.05-.85-1.37-1.47-.32-.62-.48-1.29-.48-2.02,0-.83.21-1.53.63-2.11.42-.58.96-1.01,1.61-1.3s1.32-.43,2.01-.43c.79,0,1.48.19,2.06.55.59.37,1.03.86,1.35,1.46.31.61.47,1.25.47,1.94,0,.76-.19,1.44-.57,2.04-.38.59-.9,1.05-1.54,1.39-.64.33-1.34.5-2.09.5-.79,0-1.48-.18-2.07-.54h-.01ZM38.62,37.2c.26-.49.39-1.19.39-2.11s-.11-1.66-.34-2.29c-.23-.64-.53-1.12-.9-1.44-.37-.32-.76-.49-1.19-.49-1.02,0-1.53.91-1.53,2.73,0,.85.11,1.61.32,2.26.22.66.51,1.17.88,1.53s.78.54,1.22.54c.5,0,.88-.25,1.14-.74h0Z" fill="#131f2b"/>
    <path d="M48.29,30.83c.27.21.41.46.41.75,0,.27-.08.49-.25.66s-.38.26-.65.26c-.19,0-.35-.04-.47-.11-.12-.08-.25-.19-.37-.34-.11-.13-.21-.22-.3-.28-.08-.06-.18-.09-.3-.09-.13,0-.26.05-.41.14-.15.1-.37.3-.68.6v4.11c0,.51.12.86.36,1.04.24.19.69.28,1.34.28.05,0,.08.04.08.12s-.03.11-.08.11c-.45,0-.8,0-1.05-.02l-1.55-.02-1.13.02c-.19,0-.45.02-.78.02-.04,0-.06-.04-.06-.11s.02-.12.06-.12c.4,0,.66-.09.8-.28.14-.18.21-.53.21-1.04v-3.59c0-.39-.05-.68-.14-.87-.1-.18-.25-.28-.45-.28-.22,0-.52.09-.92.27h-.04s-.07-.03-.09-.1c-.02-.06-.02-.1,0-.11l2.66-1.3c.08-.03.12-.04.13-.04.14,0,.27.13.39.39s.19.61.22,1.06c.52-.54.95-.91,1.29-1.13s.63-.33.89-.33c.29,0,.58.11.85.32h.03Z" fill="#131f2b"/>
    <path d="M55.16,36.75s.09.03.12.08c.03.05.03.09,0,.12-.47.47-.93.82-1.38,1.04s-.92.33-1.41.33c-.56,0-1.04-.13-1.43-.4s-.59-.72-.59-1.36v-4.24c0-.4-.07-.67-.21-.82s-.4-.23-.76-.23c0,0-.03-.02-.05-.06s-.03-.08-.03-.11c0-.05,0-.09.02-.12,0-.03.03-.05.06-.05.65-.03,1.18-.17,1.58-.42s.71-.64.93-1.17c.03-.05.08-.08.16-.08s.12.03.12.08v1.53c.74,0,1.57-.07,2.48-.17.03,0,.05.05.09.14.03.1.05.2.05.32,0,.13-.02.25-.07.37-.04.12-.09.18-.14.16-.83-.18-1.63-.27-2.41-.29v4.53c0,.48.12.84.37,1.07s.58.34.98.34c.51,0,1.01-.19,1.49-.57l.04-.02h-.01Z" fill="#131f2b"/>
    <path d="M61.95,30.83c.27.21.41.46.41.75,0,.27-.08.49-.25.66s-.38.26-.65.26c-.19,0-.35-.04-.47-.11-.12-.08-.25-.19-.37-.34-.11-.13-.21-.22-.3-.28-.08-.06-.18-.09-.3-.09-.13,0-.26.05-.41.14-.15.1-.37.3-.68.6v4.11c0,.51.12.86.36,1.04.24.19.69.28,1.34.28.05,0,.08.04.08.12s-.03.11-.08.11c-.45,0-.8,0-1.05-.02l-1.55-.02-1.13.02c-.19,0-.45.02-.78.02-.04,0-.06-.04-.06-.11s.02-.12.06-.12c.4,0,.66-.09.8-.28.14-.18.21-.53.21-1.04v-3.59c0-.39-.05-.68-.14-.87-.1-.18-.25-.28-.45-.28-.22,0-.52.09-.92.27h-.04s-.07-.03-.09-.1c-.02-.06-.02-.1,0-.11l2.66-1.3c.08-.03.12-.04.13-.04.14,0,.27.13.39.39s.19.61.22,1.06c.52-.54.95-.91,1.29-1.13s.63-.33.89-.33c.29,0,.58.11.85.32h.03Z" fill="#131f2b"/>
    <path d="M70.41,37.05c.05,0,.09.03.1.09.02.06,0,.1-.05.12l-1.97.94c-.05.03-.11.04-.19.04-.2,0-.4-.11-.58-.33-.19-.22-.32-.51-.39-.88l-.82.57c-.29.22-.57.37-.82.47s-.54.14-.86.14c-.55,0-.96-.12-1.24-.36-.28-.24-.42-.58-.42-1.01,0-.34.08-.62.25-.83.17-.21.37-.38.62-.5s.6-.26,1.04-.41l.48-.17,1.72-.63v-1.09c0-.81-.07-1.41-.2-1.78s-.36-.55-.68-.55c-.68,0-1.06.52-1.15,1.57-.04.38-.15.66-.33.82-.19.17-.44.25-.77.25s-.55-.07-.7-.2-.22-.31-.22-.53c0-.38.22-.75.67-1.1.45-.35.98-.63,1.61-.85.63-.22,1.19-.33,1.67-.33.56,0,1.02.18,1.37.53.35.35.53.88.53,1.6v3.38c0,.37.07.66.2.86s.32.31.56.31c.18,0,.36-.04.55-.13h.02ZM67.29,36.71s-.02-.13-.02-.25v-1.83l-.82.38s-.17.06-.38.14c-.22.08-.4.22-.56.41-.16.19-.24.41-.24.67,0,.31.1.54.3.72.2.17.42.26.68.26.2,0,.41-.07.63-.21l.42-.29h-.01Z" fill="#131f2b"/>
    <path d="M71.13,37.97c0-.08.02-.12.06-.12.4,0,.66-.09.8-.28.14-.18.21-.53.21-1.04v-3.42c0-.43-.04-.75-.13-.94s-.24-.29-.44-.29c-.17,0-.4.07-.71.21h-.02c-.05,0-.09-.03-.11-.1-.03-.07-.02-.11.02-.12l2.89-1.34.06-.02c.06,0,.13.03.19.1.06.06.1.12.1.17v.42c-.03.51-.04,1.13-.04,1.87v3.46c0,.51.07.86.22,1.04.15.19.42.28.81.28.04,0,.06.04.06.12s-.02.11-.06.11c-.33,0-.59,0-.78-.02l-1.15-.02-1.13.02c-.19,0-.45.02-.78.02-.04,0-.06-.04-.06-.11h-.01ZM72.17,28.32c-.2-.2-.31-.49-.31-.86,0-.33.11-.6.32-.79.21-.2.49-.3.85-.3s.63.1.82.29.29.46.29.8c0,.37-.1.66-.29.86s-.47.31-.82.31-.66-.1-.86-.31Z" fill="#131f2b"/>
    <path d="M81.66,36.75c.05,0,.09.03.12.08.03.05.03.09,0,.12-.47.47-.93.82-1.38,1.04s-.92.33-1.41.33c-.56,0-1.04-.13-1.43-.4s-.59-.72-.59-1.36v-4.24c0-.4-.07-.67-.21-.82s-.4-.23-.76-.23c-.01,0-.03-.02-.05-.06-.02-.04-.03-.08-.03-.11,0-.05,0-.09.02-.12.01-.03.03-.05.06-.05.65-.03,1.18-.17,1.58-.42s.71-.64.93-1.17c.03-.05.08-.08.16-.08s.12.03.12.08v1.53c.74,0,1.57-.07,2.48-.17.03,0,.05.05.09.14.03.1.05.2.05.32,0,.13-.02.25-.07.37-.04.12-.09.18-.14.16-.83-.18-1.63-.27-2.41-.29v4.53c0,.48.12.84.37,1.07s.58.34.98.34c.51,0,1.01-.19,1.49-.57l.04-.02h-.01Z" fill="#131f2b"/>
    <path d="M84.54,32.58c.26.27.64.55,1.14.84.48.28.84.5,1.08.66s.45.38.64.67c.19.29.29.63.29,1.04s-.11.84-.32,1.22c-.22.38-.54.69-.97.93s-.95.35-1.55.35c-.7,0-1.36-.17-1.99-.52-.08-.08-.11-.15-.11-.23l-.04-1.89s.03-.06.1-.07c.07,0,.11,0,.12.03.2.64.54,1.18,1.01,1.62.47.45.95.67,1.43.67.27,0,.48-.08.64-.25.16-.17.24-.41.24-.73,0-.47-.13-.84-.4-1.12-.27-.27-.66-.56-1.19-.85-.45-.24-.78-.44-1.01-.59s-.43-.37-.61-.65c-.18-.28-.27-.62-.27-1.03,0-.75.27-1.3.8-1.65s1.19-.53,1.97-.53c.29,0,.56.02.79.06s.5.11.79.23c.11.04.17.11.17.21,0,.32,0,.57-.02.75l-.02.96s-.04.06-.11.06-.11-.02-.11-.06c0-.24-.1-.51-.31-.79-.2-.29-.47-.53-.79-.74-.32-.2-.66-.31-1-.31-.52,0-.78.25-.78.75,0,.37.13.69.39.96Z" fill="#131f2b"/>
    <path d="M95.26,37.79c-.59-.36-1.05-.85-1.37-1.47-.32-.62-.48-1.29-.48-2.02,0-.83.21-1.53.63-2.11s.96-1.01,1.61-1.3,1.32-.43,2.01-.43c.79,0,1.48.19,2.06.55.59.37,1.03.86,1.35,1.46.31.61.47,1.25.47,1.94,0,.76-.19,1.44-.57,2.04-.38.59-.9,1.05-1.54,1.39-.64.33-1.34.5-2.09.5-.79,0-1.48-.18-2.07-.54h0ZM99.05,37.2c.26-.49.39-1.19.39-2.11s-.11-1.66-.34-2.29c-.23-.64-.53-1.12-.9-1.44s-.76-.49-1.19-.49c-1.02,0-1.53.91-1.53,2.73,0,.85.11,1.61.32,2.26.22.66.51,1.17.88,1.53s.78.54,1.22.54c.5,0,.88-.25,1.14-.74h.01Z" fill="#131f2b"/>
    <path d="M109.91,24.51c.39.2.59.47.59.83,0,.29-.1.52-.3.69-.2.17-.42.25-.68.25-.31,0-.53-.07-.67-.21s-.27-.34-.38-.61-.24-.47-.36-.6c-.13-.13-.33-.2-.61-.2-.59,0-1.05.41-1.39,1.22-.34.82-.51,2.09-.51,3.82v1.17c.4,0,1.1-.07,2.1-.17.04,0,.07.05.1.14.02.1.04.2.04.32,0,.13-.02.25-.07.37-.04.12-.09.18-.12.16-.61-.15-1.29-.25-2.04-.29v5.14c0,.39.04.68.11.86.08.18.23.3.47.36s.61.1,1.12.1c.05,0,.08.04.08.12s-.03.11-.08.11l-1.32-.02c-.29,0-.73-.02-1.3-.02l-1.17.02c-.2,0-.49.02-.86.02-.05,0-.08-.04-.08-.11s.03-.12.08-.12c.33,0,.58-.03.74-.1.16-.06.27-.19.32-.37s.09-.47.09-.85v-4.3c0-.39-.08-.65-.25-.77s-.49-.18-.97-.18c-.04,0-.06-.06-.06-.17s.02-.17.06-.17c.45,0,.75-.06.92-.18s.25-.34.27-.66c.06-2.08.46-3.58,1.19-4.5s1.82-1.39,3.29-1.39c.71,0,1.27.1,1.66.3h0Z" fill="#131f2b"/>
    <path d="M118.64,36.75c.05,0,.09.03.12.08.03.05.03.09,0,.12-.47.47-.93.82-1.38,1.04s-.92.33-1.41.33c-.56,0-1.04-.13-1.43-.4s-.59-.72-.59-1.36v-4.24c0-.4-.07-.67-.21-.82s-.4-.23-.76-.23c-.01,0-.03-.02-.05-.06-.02-.04-.03-.08-.03-.11,0-.05,0-.09.02-.12.01-.03.03-.05.06-.05.65-.03,1.18-.17,1.58-.42s.71-.64.93-1.17c.03-.05.08-.08.16-.08s.12.03.12.08v1.53c.74,0,1.57-.07,2.48-.17.03,0,.05.05.09.14.03.1.05.2.05.32,0,.13-.02.25-.07.37-.04.12-.09.18-.14.16-.83-.18-1.63-.27-2.41-.29v4.53c0,.48.12.84.37,1.07s.58.34.98.34c.51,0,1.01-.19,1.49-.57l.04-.02h-.01Z" fill="#131f2b"/>
    <path d="M128.33,37.97c0,.08-.03.11-.08.11-.33,0-.6,0-.8-.02l-1.11-.02-1.15.02c-.19,0-.45.02-.78.02-.03,0-.04-.04-.04-.11s.01-.12.04-.12c.39,0,.67-.09.81-.28.15-.18.22-.53.22-1.04v-2.75c0-.69-.13-1.2-.38-1.53-.25-.33-.65-.5-1.18-.5-.31,0-.62.06-.95.19-.32.13-.61.3-.85.52v4.07c0,.51.07.86.22,1.04.15.19.42.28.81.28.05,0,.08.04.08.12s-.03.11-.08.11c-.33,0-.6,0-.8-.02l-1.11-.02-1.15.02c-.19,0-.45.02-.78.02-.03,0-.04-.04-.04-.11s.01-.12.04-.12c.39,0,.67-.09.81-.28.15-.18.22-.53.22-1.04v-9.71c0-.45-.04-.76-.12-.96-.08-.19-.23-.29-.43-.29-.18,0-.42.07-.73.21h-.02s-.07-.04-.1-.1c-.03-.07-.04-.11,0-.12l2.79-1.32.1-.02c.06,0,.13.03.2.09s.11.11.11.16v7.57c.9-1.04,1.87-1.57,2.9-1.57.69,0,1.23.22,1.63.66.4.44.6,1.02.6,1.73v3.67c0,.51.07.86.22,1.04.15.19.42.28.81.28.05,0,.08.04.08.12h0Z" fill="#131f2b"/>
    <path d="M136.02,36.82s.05.03.09.08c.03.05.04.09,0,.11-.47.46-.95.79-1.43.99s-1.01.31-1.59.31c-.8,0-1.5-.17-2.08-.51-.59-.34-1.03-.79-1.34-1.36s-.46-1.18-.46-1.84c0-.74.18-1.42.55-2.04.37-.62.88-1.12,1.54-1.48.66-.36,1.4-.54,2.23-.54s1.4.18,1.83.54c.43.36.65.91.65,1.66,0,.4-.07.59-.21.59l-4.64.02c0,.09-.02.24-.02.44,0,1.12.26,2,.77,2.64.52.64,1.26.96,2.23.96.34,0,.64-.04.88-.12.24-.08.56-.22.96-.42l.04-.02h0ZM131.75,31.46c-.28.36-.46.86-.55,1.5l2.77-.04c0-.65-.11-1.15-.29-1.49s-.47-.52-.88-.52-.77.18-1.05.54h0Z" fill="#131f2b"/>
    <path d="M145.84,38.1c-.2,0-.46-.03-.75-.04-.3,0-.63-.02-1-.02l-1.41.02c-.25,0-.6.02-1.03.02-.03,0-.04-.04-.04-.11s0-.12.04-.12c.41,0,.71-.03.9-.1.19-.06.32-.19.39-.37s.11-.47.11-.85v-8.85c0-.38-.04-.66-.11-.84s-.2-.3-.38-.37c-.19-.07-.48-.1-.87-.1-.04,0-.06-.04-.06-.11s.02-.11.06-.11l1.01.02c.59.03,1.05.04,1.4.04.52,0,1.06-.02,1.61-.06.66-.03,1.11-.04,1.34-.04,1.29,0,2.43.25,3.43.76s1.77,1.2,2.32,2.08.82,1.87.82,2.96c0,1.24-.28,2.33-.85,3.28s-1.33,1.68-2.29,2.2c-.96.52-2.02.77-3.16.77-.41,0-.89-.02-1.45-.06h-.03ZM149.26,37.1c.62-.41,1.11-1.03,1.46-1.84.35-.82.53-1.79.53-2.92s-.17-2.07-.5-2.95-.8-1.58-1.41-2.09-1.32-.76-2.12-.76-1.33.08-1.62.23-.44.48-.44.97v8.6c0,.51.13.87.4,1.08.27.21.78.32,1.55.32.82,0,1.54-.21,2.16-.62v-.02Z" fill="#131f2b"/>
    <path d="M155.22,37.97c0-.08.02-.12.06-.12.39,0,.66-.09.8-.28.14-.18.21-.53.21-1.04v-3.42c0-.43-.04-.75-.13-.94-.09-.19-.24-.29-.44-.29-.17,0-.4.07-.71.21h-.02c-.05,0-.09-.03-.12-.1s-.02-.11.02-.12l2.89-1.34.06-.02c.06,0,.13.03.19.1.06.06.1.12.1.17v.42c-.03.51-.04,1.13-.04,1.87v3.46c0,.51.07.86.22,1.04.15.19.42.28.81.28.04,0,.06.04.06.12s-.02.11-.06.11c-.33,0-.59,0-.78-.02l-1.15-.02-1.13.02c-.19,0-.45.02-.78.02-.04,0-.06-.04-.06-.11h0ZM156.25,28.32c-.2-.2-.31-.49-.31-.86,0-.33.11-.6.32-.79s.49-.3.85-.3.63.1.82.29.29.46.29.8c0,.37-.1.66-.29.86-.19.2-.46.31-.82.31s-.66-.1-.86-.31h0Z" fill="#131f2b"/>
    <path d="M162.21,32.58c.26.27.64.55,1.14.84.48.28.84.5,1.08.66s.45.38.64.67.29.63.29,1.04-.11.84-.33,1.22-.54.69-.97.93c-.43.24-.95.35-1.55.35-.7,0-1.36-.17-1.99-.52-.08-.08-.12-.15-.12-.23l-.04-1.89s.04-.06.11-.07c.07,0,.11,0,.12.03.2.64.54,1.18,1.01,1.62s.95.67,1.43.67c.27,0,.48-.08.64-.25s.24-.41.24-.73c0-.47-.13-.84-.4-1.12-.27-.27-.66-.56-1.18-.85-.45-.24-.78-.44-1.01-.59s-.43-.37-.61-.65-.27-.62-.27-1.03c0-.75.27-1.3.8-1.65s1.19-.53,1.97-.53c.29,0,.56.02.79.06.24.04.5.11.79.23.12.04.17.11.17.21,0,.32,0,.57-.02.75l-.02.96s-.04.06-.11.06-.12-.02-.12-.06c0-.24-.1-.51-.31-.79s-.47-.53-.79-.74c-.33-.2-.66-.31-1-.31-.52,0-.78.25-.78.75,0,.37.13.69.39.96h.01Z" fill="#131f2b"/>
    <path d="M172.19,36.75c.05,0,.09.03.12.08.03.05.03.09,0,.12-.47.47-.93.82-1.38,1.04s-.92.33-1.41.33c-.56,0-1.04-.13-1.43-.4s-.59-.72-.59-1.36v-4.24c0-.4-.07-.67-.21-.82s-.39-.23-.76-.23c0,0-.03-.02-.05-.06s-.03-.08-.03-.11c0-.05,0-.09.02-.12,0-.03.03-.05.06-.05.65-.03,1.18-.17,1.58-.42.4-.25.71-.64.93-1.17.03-.05.08-.08.16-.08s.12.03.12.08v1.53c.74,0,1.57-.07,2.48-.17.03,0,.05.05.09.14.03.1.05.2.05.32,0,.13-.02.25-.07.37-.04.12-.09.18-.14.16-.83-.18-1.63-.27-2.41-.29v4.53c0,.48.12.84.37,1.07s.58.34.98.34c.51,0,1.01-.19,1.49-.57l.04-.02h0Z" fill="#131f2b"/>
    <path d="M180.43,37.05c.05,0,.09.03.11.09s0,.1-.05.12l-1.97.94c-.05.03-.12.04-.19.04-.2,0-.4-.11-.58-.33s-.32-.51-.39-.88l-.82.57c-.29.22-.57.37-.82.47s-.54.14-.86.14c-.55,0-.96-.12-1.24-.36s-.42-.58-.42-1.01c0-.34.08-.62.25-.83.17-.21.37-.38.62-.5s.6-.26,1.04-.41l.48-.17,1.72-.63v-1.09c0-.81-.07-1.41-.2-1.78-.13-.37-.36-.55-.68-.55-.68,0-1.06.52-1.15,1.57-.04.38-.15.66-.33.82s-.44.25-.77.25-.55-.07-.7-.2-.22-.31-.22-.53c0-.38.22-.75.67-1.1s.98-.63,1.62-.85,1.19-.33,1.67-.33c.56,0,1.02.18,1.37.53.35.35.53.88.53,1.6v3.38c0,.37.07.66.2.86.13.2.32.31.56.31.18,0,.36-.04.55-.13h.02-.02ZM177.31,36.71s-.02-.13-.02-.25v-1.83l-.82.38s-.17.06-.38.14-.4.22-.56.41-.24.41-.24.67c0,.31.1.54.3.72.2.17.42.26.68.26.2,0,.41-.07.63-.21l.42-.29h0Z" fill="#131f2b"/>
    <path d="M190.25,37.97c0,.08-.02.11-.06.11-.33,0-.59,0-.78-.02l-1.15-.02-1.11.02c-.2,0-.47.02-.8.02-.04,0-.06-.04-.06-.11s.02-.12.06-.12c.39,0,.66-.09.8-.28.14-.18.21-.53.21-1.04v-2.75c0-.69-.12-1.2-.37-1.53-.25-.33-.64-.5-1.17-.5-.31,0-.62.06-.95.19s-.61.3-.85.52v4.07c0,.51.07.86.22,1.04.15.19.42.28.81.28.04,0,.06.04.06.12s-.02.11-.06.11c-.33,0-.59,0-.78-.02l-1.15-.02-1.13.02c-.19,0-.45.02-.78.02-.04,0-.06-.04-.06-.11s.02-.12.06-.12c.39,0,.66-.09.8-.28.14-.18.21-.53.21-1.04v-3.59c0-.39-.05-.68-.14-.87-.1-.18-.25-.28-.45-.28-.22,0-.52.09-.92.27h-.04s-.07-.03-.09-.1c-.02-.06-.02-.1,0-.11l2.66-1.3c.08-.03.12-.04.13-.04.14,0,.27.14.4.41s.2.65.23,1.12c.88-1.04,1.85-1.57,2.91-1.57.69,0,1.23.22,1.63.66.4.44.6,1.02.6,1.73v3.67c0,.51.07.86.22,1.04.15.19.42.28.81.28.04,0,.06.04.06.12h.02Z" fill="#131f2b"/>
    <path d="M196.71,36.75c.05,0,.09.03.12.08.03.05.03.09,0,.12-.47.47-.93.82-1.38,1.04s-.92.33-1.41.33c-.56,0-1.04-.13-1.43-.4s-.59-.72-.59-1.36v-4.24c0-.4-.07-.67-.21-.82s-.39-.23-.76-.23c0,0-.03-.02-.05-.06s-.03-.08-.03-.11c0-.05,0-.09.02-.12,0-.03.03-.05.06-.05.65-.03,1.18-.17,1.58-.42.4-.25.71-.64.93-1.17.03-.05.08-.08.16-.08s.12.03.12.08v1.53c.74,0,1.57-.07,2.48-.17.03,0,.05.05.09.14.03.1.05.2.05.32,0,.13-.02.25-.07.37-.04.12-.09.18-.14.16-.83-.18-1.63-.27-2.41-.29v4.53c0,.48.12.84.37,1.07s.58.34.98.34c.51,0,1.01-.19,1.49-.57l.04-.02h0Z" fill="#131f2b"/>
    <path d="M205.09,29.29c.24.36.53.67.87.94.34.27.81.59,1.39.98.64.41,1.15.76,1.53,1.07s.71.68.97,1.12c.27.44.4.95.4,1.52,0,.66-.18,1.25-.54,1.77s-.85.92-1.48,1.2c-.63.29-1.33.43-2.11.43-.57,0-1.17-.08-1.8-.24s-1.04-.33-1.26-.53c-.06-.05-.11-.1-.14-.14s-.05-.12-.05-.22l-.06-3.04v-.02s.03-.08.1-.09.1.02.11.07c.38.78.72,1.41,1,1.89.29.48.65.91,1.09,1.28s.94.55,1.5.55c.51,0,.93-.14,1.26-.41s.5-.74.5-1.41c0-.56-.12-1.05-.37-1.47-.25-.42-.55-.78-.91-1.07s-.85-.64-1.47-1.05c-.61-.39-1.09-.73-1.42-1.01s-.63-.62-.87-1.01c-.24-.4-.36-.86-.36-1.4,0-.67.19-1.25.58-1.71.39-.46.89-.81,1.5-1.03.61-.22,1.25-.33,1.93-.33.45,0,.9.04,1.36.12s.83.18,1.11.3c.11.05.19.1.23.16s.06.13.06.22v2.81s-.03.07-.1.09c-.06.02-.1,0-.12-.03l-.15-.36c-.32-.8-.69-1.48-1.12-2.04-.43-.56-1.02-.84-1.79-.84-.51,0-.93.15-1.25.44s-.49.72-.49,1.28c0,.46.12.87.35,1.22h.02Z" fill="#131f2b"/>
    <path d="M220.79,36.84s.07.03.11.1.03.1,0,.11l-2.64,1.28s-.06.02-.1.02c-.13,0-.24-.14-.33-.41-.1-.27-.15-.65-.16-1.12-.84.99-1.75,1.49-2.73,1.49-.7,0-1.25-.22-1.65-.66s-.6-1.02-.6-1.73v-2.81c0-.83-.2-1.24-.59-1.24-.14,0-.3.04-.48.13h-.02c-.05,0-.09-.03-.12-.1s-.02-.11.02-.12l2.56-1.22.1-.02c.06,0,.13.03.2.09.07.06.1.11.1.16v4.22c0,1.38.53,2.06,1.59,2.06.28,0,.56-.06.85-.18.29-.12.54-.29.77-.51v-3.27c0-.83-.2-1.24-.59-1.24-.14,0-.31.04-.5.13h-.02s-.07-.03-.1-.1-.02-.11.02-.12l2.56-1.22s.06-.02.1-.02c.06,0,.13.03.2.09.07.06.11.11.11.16v5.08c0,.43.04.74.12.92.08.18.22.27.41.27.18,0,.44-.07.78-.21h.04-.01Z" fill="#131f2b"/>
    <path d="M230.69,37.97c0,.08-.02.11-.06.11-.33,0-.59,0-.78-.02l-1.15-.02-1.11.02c-.2,0-.47.02-.8.02-.04,0-.06-.04-.06-.11s.02-.12.06-.12c.39,0,.66-.09.8-.28.14-.18.21-.53.21-1.04v-2.75c0-.69-.12-1.2-.37-1.53-.25-.33-.64-.5-1.17-.5-.31,0-.62.06-.95.19s-.61.3-.85.52v4.07c0,.51.07.86.22,1.04.15.19.42.28.81.28.04,0,.06.04.06.12s-.02.11-.06.11c-.33,0-.59,0-.78-.02l-1.15-.02-1.13.02c-.19,0-.45.02-.78.02-.04,0-.06-.04-.06-.11s.02-.12.06-.12c.39,0,.66-.09.8-.28.14-.18.21-.53.21-1.04v-3.59c0-.39-.05-.68-.14-.87-.1-.18-.25-.28-.45-.28-.22,0-.52.09-.92.27h-.04s-.07-.03-.09-.1c-.02-.06-.02-.1,0-.11l2.66-1.3c.08-.03.12-.04.13-.04.14,0,.27.14.4.41s.2.65.23,1.12c.88-1.04,1.85-1.57,2.91-1.57.69,0,1.23.22,1.63.66.4.44.6,1.02.6,1.73v3.67c0,.51.07.86.22,1.04.15.19.42.28.81.28.04,0,.06.04.06.12h.02Z" fill="#131f2b"/>
    <path d="M233.61,32.58c.26.27.64.55,1.14.84.48.28.84.5,1.08.66s.45.38.64.67.29.63.29,1.04-.11.84-.33,1.22-.54.69-.97.93c-.43.24-.95.35-1.55.35-.7,0-1.36-.17-1.99-.52-.08-.08-.12-.15-.12-.23l-.04-1.89s.04-.06.11-.07c.07,0,.11,0,.12.03.2.64.54,1.18,1.01,1.62s.95.67,1.43.67c.27,0,.48-.08.64-.25s.24-.41.24-.73c0-.47-.13-.84-.4-1.12-.27-.27-.66-.56-1.18-.85-.45-.24-.78-.44-1.01-.59s-.43-.37-.61-.65-.27-.62-.27-1.03c0-.75.27-1.3.8-1.65s1.19-.53,1.97-.53c.29,0,.56.02.79.06.24.04.5.11.79.23.12.04.17.11.17.21,0,.32,0,.57-.02.75l-.02.96s-.04.06-.11.06-.12-.02-.12-.06c0-.24-.1-.51-.31-.79s-.47-.53-.79-.74c-.33-.2-.66-.31-1-.31-.52,0-.78.25-.78.75,0,.37.13.69.39.96h.01Z" fill="#131f2b"/>
  </g>
  <g>
    <path d="M25.51,36.35c.09.18.26.31.51.39.25.08.65.11,1.19.11.04,0,.06.04.06.12s-.02.11-.06.11c-.52,0-.93,0-1.22-.02l-1.66-.02-1.4.02c-.25,0-.6.02-1.03.02-.04,0-.06-.04-.06-.11s.02-.12.06-.12c.41,0,.7-.03.89-.1.18-.06.31-.19.37-.37.06-.18.1-.47.1-.85v-8.85c0-.38-.03-.66-.1-.84-.06-.18-.19-.3-.38-.37-.19-.07-.48-.1-.88-.1-.04,0-.06-.04-.06-.11s.02-.11.06-.11l1.01.02c.59.03,1.05.04,1.4.04.31,0,.67-.02,1.09-.06.17-.01.38-.03.63-.04s.55-.02.88-.02c1.3,0,2.32.27,3.08.81.75.54,1.13,1.38,1.13,2.51,0,.79-.2,1.46-.61,2.01s-.93.96-1.58,1.24c-.64.28-1.3.42-1.98.42-.34,0-.64-.03-.9-.1-.03,0-.04-.03-.04-.1,0-.04,0-.08.03-.11.02-.04.04-.05.07-.04.19.05.41.08.65.08.59,0,1.07-.27,1.46-.82.39-.55.58-1.32.58-2.33s-.21-1.78-.64-2.33-1.05-.82-1.86-.82c-.36,0-.6.08-.73.25s-.19.49-.19.97v8.73c0,.41.04.7.13.89Z" fill="#c0b68a"/>
    <path d="M33.83,36.79c-.59-.36-1.05-.85-1.37-1.47-.32-.62-.48-1.29-.48-2.02,0-.83.21-1.53.63-2.11.42-.58.96-1.01,1.61-1.3s1.32-.43,2.01-.43c.79,0,1.48.19,2.06.55.59.37,1.03.86,1.35,1.46.31.61.47,1.25.47,1.94,0,.76-.19,1.44-.57,2.04-.38.59-.9,1.05-1.54,1.39-.64.33-1.34.5-2.09.5-.79,0-1.48-.18-2.07-.54h-.01ZM37.62,36.2c.26-.49.39-1.19.39-2.11s-.11-1.66-.34-2.29c-.23-.64-.53-1.12-.9-1.44-.37-.32-.76-.49-1.19-.49-1.02,0-1.53.91-1.53,2.73,0,.85.11,1.61.32,2.26.22.66.51,1.17.88,1.53s.78.54,1.22.54c.5,0,.88-.25,1.14-.74h0Z" fill="#c0b68a"/>
    <path d="M47.29,29.83c.27.21.41.46.41.75,0,.27-.08.49-.25.66s-.38.26-.65.26c-.19,0-.35-.04-.47-.11-.12-.08-.25-.19-.37-.34-.11-.13-.21-.22-.3-.28-.08-.06-.18-.09-.3-.09-.13,0-.26.05-.41.14-.15.1-.37.3-.68.6v4.11c0,.51.12.86.36,1.04.24.19.69.28,1.34.28.05,0,.08.04.08.12s-.03.11-.08.11c-.45,0-.8,0-1.05-.02l-1.55-.02-1.13.02c-.19,0-.45.02-.78.02-.04,0-.06-.04-.06-.11s.02-.12.06-.12c.4,0,.66-.09.8-.28.14-.18.21-.53.21-1.04v-3.59c0-.39-.05-.68-.14-.87-.1-.18-.25-.28-.45-.28-.22,0-.52.09-.92.27h-.04s-.07-.03-.09-.1c-.02-.06-.02-.1,0-.11l2.66-1.3c.08-.03.12-.04.13-.04.14,0,.27.13.39.39.12.26.19.61.22,1.06.52-.54.95-.91,1.29-1.13s.63-.33.89-.33c.29,0,.58.11.85.32h.03Z" fill="#c0b68a"/>
    <path d="M54.16,35.75s.09.03.12.08c.03.05.03.09,0,.12-.47.47-.93.82-1.38,1.04s-.92.33-1.41.33c-.56,0-1.04-.13-1.43-.4s-.59-.72-.59-1.36v-4.24c0-.4-.07-.67-.21-.82s-.4-.23-.76-.23c0,0-.03-.02-.05-.06s-.03-.08-.03-.11c0-.05,0-.09.02-.12,0-.03.03-.05.06-.05.65-.03,1.18-.17,1.58-.42s.71-.64.93-1.17c.03-.05.08-.08.16-.08s.12.03.12.08v1.53c.74-.01,1.57-.07,2.48-.17.03,0,.05.05.09.14.03.1.05.2.05.32,0,.13-.02.25-.07.37-.04.12-.09.18-.14.16-.83-.18-1.63-.27-2.41-.29v4.53c0,.48.12.84.37,1.07s.58.34.98.34c.51,0,1.01-.19,1.49-.57l.04-.02h-.01Z" fill="#c0b68a"/>
    <path d="M60.95,29.83c.27.21.41.46.41.75,0,.27-.08.49-.25.66s-.38.26-.65.26c-.19,0-.35-.04-.47-.11-.12-.08-.25-.19-.37-.34-.11-.13-.21-.22-.3-.28-.08-.06-.18-.09-.3-.09-.13,0-.26.05-.41.14-.15.1-.37.3-.68.6v4.11c0,.51.12.86.36,1.04.24.19.69.28,1.34.28.05,0,.08.04.08.12s-.03.11-.08.11c-.45,0-.8,0-1.05-.02l-1.55-.02-1.13.02c-.19,0-.45.02-.78.02-.04,0-.06-.04-.06-.11s.02-.12.06-.12c.4,0,.66-.09.8-.28.14-.18.21-.53.21-1.04v-3.59c0-.39-.05-.68-.14-.87-.1-.18-.25-.28-.45-.28-.22,0-.52.09-.92.27h-.04s-.07-.03-.09-.1c-.02-.06-.02-.1,0-.11l2.66-1.3c.08-.03.12-.04.13-.04.14,0,.27.13.39.39.12.26.19.61.22,1.06.52-.54.95-.91,1.29-1.13s.63-.33.89-.33c.29,0,.58.11.85.32h.03Z" fill="#c0b68a"/>
    <path d="M69.41,36.05c.05,0,.09.03.1.09.02.06,0,.1-.05.12l-1.97.94c-.05.03-.11.04-.19.04-.2,0-.4-.11-.58-.33-.19-.22-.32-.51-.39-.88l-.82.57c-.29.22-.57.37-.82.47s-.54.14-.86.14c-.55,0-.96-.12-1.24-.36-.28-.24-.42-.58-.42-1.01,0-.34.08-.62.25-.83.17-.21.37-.38.62-.5s.6-.26,1.04-.41l.48-.17,1.72-.63v-1.09c0-.81-.07-1.41-.2-1.78s-.36-.55-.68-.55c-.68,0-1.06.52-1.15,1.57-.04.38-.15.66-.33.82-.19.17-.44.25-.77.25s-.55-.07-.7-.2-.22-.31-.22-.53c0-.38.22-.75.67-1.1.45-.35.98-.63,1.61-.85.63-.22,1.19-.33,1.67-.33.56,0,1.02.18,1.37.53.35.35.53.88.53,1.6v3.38c0,.37.07.66.2.86s.32.31.56.31c.18,0,.36-.04.55-.13h.02ZM66.29,35.71s-.02-.13-.02-.25v-1.83l-.82.38s-.17.06-.38.14c-.22.08-.4.22-.56.41-.16.19-.24.41-.24.67,0,.31.1.54.3.72.2.17.42.26.68.26.2,0,.41-.07.63-.21l.42-.29h-.01Z" fill="#c0b68a"/>
    <path d="M70.13,36.97c0-.08.02-.12.06-.12.4,0,.66-.09.8-.28.14-.18.21-.53.21-1.04v-3.42c0-.43-.04-.75-.13-.94s-.24-.29-.44-.29c-.17,0-.4.07-.71.21h-.02c-.05,0-.09-.03-.11-.1-.03-.07-.02-.11.02-.12l2.89-1.34.06-.02c.06,0,.13.03.19.1.06.06.1.12.1.17v.42c-.03.51-.04,1.13-.04,1.87v3.46c0,.51.07.86.22,1.04.15.19.42.28.81.28.04,0,.06.04.06.12s-.02.11-.06.11c-.33,0-.59,0-.78-.02l-1.15-.02-1.13.02c-.19,0-.45.02-.78.02-.04,0-.06-.04-.06-.11h-.01ZM71.17,27.32c-.2-.2-.31-.49-.31-.86,0-.33.11-.6.32-.79.21-.2.49-.3.85-.3s.63.1.82.29.29.46.29.8c0,.37-.1.66-.29.86s-.47.31-.82.31-.66-.1-.86-.31Z" fill="#c0b68a"/>
    <path d="M80.66,35.75c.05,0,.09.03.12.08.03.05.03.09,0,.12-.47.47-.93.82-1.38,1.04s-.92.33-1.41.33c-.56,0-1.04-.13-1.43-.4s-.59-.72-.59-1.36v-4.24c0-.4-.07-.67-.21-.82s-.4-.23-.76-.23c-.01,0-.03-.02-.05-.06-.02-.04-.03-.08-.03-.11,0-.05,0-.09.02-.12.01-.03.03-.05.06-.05.65-.03,1.18-.17,1.58-.42s.71-.64.93-1.17c.03-.05.08-.08.16-.08s.12.03.12.08v1.53c.74-.01,1.57-.07,2.48-.17.03,0,.05.05.09.14.03.1.05.2.05.32,0,.13-.02.25-.07.37-.04.12-.09.18-.14.16-.83-.18-1.63-.27-2.41-.29v4.53c0,.48.12.84.37,1.07s.58.34.98.34c.51,0,1.01-.19,1.49-.57l.04-.02h-.01Z" fill="#c0b68a"/>
    <path d="M83.54,31.58c.26.27.64.55,1.14.84.48.28.84.5,1.08.66s.45.38.64.67c.19.29.29.63.29,1.04s-.11.84-.32,1.22c-.22.38-.54.69-.97.93s-.95.35-1.55.35c-.7,0-1.36-.17-1.99-.52-.08-.08-.11-.15-.11-.23l-.04-1.89s.03-.06.1-.07c.07,0,.11,0,.12.03.2.64.54,1.18,1.01,1.62.47.45.95.67,1.43.67.27,0,.48-.08.64-.25.16-.17.24-.41.24-.73,0-.47-.13-.84-.4-1.12-.27-.27-.66-.56-1.19-.85-.45-.24-.78-.44-1.01-.59s-.43-.37-.61-.65c-.18-.28-.27-.62-.27-1.03,0-.75.27-1.3.8-1.65s1.19-.53,1.97-.53c.29,0,.56.02.79.06s.5.11.79.23c.11.04.17.11.17.21,0,.32,0,.57-.02.75l-.02.96s-.04.06-.11.06-.11-.02-.11-.06c0-.24-.1-.51-.31-.79-.2-.29-.47-.53-.79-.74-.32-.2-.66-.31-1-.31-.52,0-.78.25-.78.75,0,.37.13.69.39.96Z" fill="#c0b68a"/>
    <path d="M94.26,36.79c-.59-.36-1.05-.85-1.37-1.47-.32-.62-.48-1.29-.48-2.02,0-.83.21-1.53.63-2.11s.96-1.01,1.61-1.3,1.32-.43,2.01-.43c.79,0,1.48.19,2.06.55.59.37,1.03.86,1.35,1.46.31.61.47,1.25.47,1.94,0,.76-.19,1.44-.57,2.04-.38.59-.9,1.05-1.54,1.39-.64.33-1.34.5-2.09.5-.79,0-1.48-.18-2.07-.54h0ZM98.05,36.2c.26-.49.39-1.19.39-2.11s-.11-1.66-.34-2.29c-.23-.64-.53-1.12-.9-1.44s-.76-.49-1.19-.49c-1.02,0-1.53.91-1.53,2.73,0,.85.11,1.61.32,2.26.22.66.51,1.17.88,1.53s.78.54,1.22.54c.5,0,.88-.25,1.14-.74h.01Z" fill="#c0b68a"/>
    <path d="M108.91,23.51c.39.2.59.47.59.83,0,.29-.1.52-.3.69-.2.17-.42.25-.68.25-.31,0-.53-.07-.67-.21s-.27-.34-.38-.61-.24-.47-.36-.6c-.13-.13-.33-.2-.61-.2-.59,0-1.05.41-1.39,1.22-.34.82-.51,2.09-.51,3.82v1.17c.4-.01,1.1-.07,2.1-.17.04,0,.07.05.1.14.02.1.04.2.04.32,0,.13-.02.25-.07.37-.04.12-.09.18-.12.16-.61-.15-1.29-.25-2.04-.29v5.14c0,.39.04.68.11.86.08.18.23.3.47.36s.61.1,1.12.1c.05,0,.08.04.08.12s-.03.11-.08.11l-1.32-.02c-.29,0-.73-.02-1.3-.02l-1.17.02c-.2,0-.49.02-.86.02-.05,0-.08-.04-.08-.11s.03-.12.08-.12c.33,0,.58-.03.74-.1.16-.06.27-.19.32-.37s.09-.47.09-.85v-4.3c0-.39-.08-.65-.25-.77s-.49-.18-.97-.18c-.04,0-.06-.06-.06-.17s.02-.17.06-.17c.45,0,.75-.06.92-.18s.25-.34.27-.66c.06-2.08.46-3.58,1.19-4.5s1.82-1.39,3.29-1.39c.71,0,1.27.1,1.66.3h0Z" fill="#c0b68a"/>
    <path d="M117.64,35.75c.05,0,.09.03.12.08.03.05.03.09,0,.12-.47.47-.93.82-1.38,1.04s-.92.33-1.41.33c-.56,0-1.04-.13-1.43-.4s-.59-.72-.59-1.36v-4.24c0-.4-.07-.67-.21-.82s-.4-.23-.76-.23c-.01,0-.03-.02-.05-.06-.02-.04-.03-.08-.03-.11,0-.05,0-.09.02-.12.01-.03.03-.05.06-.05.65-.03,1.18-.17,1.58-.42s.71-.64.93-1.17c.03-.05.08-.08.16-.08s.12.03.12.08v1.53c.74-.01,1.57-.07,2.48-.17.03,0,.05.05.09.14.03.1.05.2.05.32,0,.13-.02.25-.07.37-.04.12-.09.18-.14.16-.83-.18-1.63-.27-2.41-.29v4.53c0,.48.12.84.37,1.07s.58.34.98.34c.51,0,1.01-.19,1.49-.57l.04-.02h-.01Z" fill="#c0b68a"/>
    <path d="M127.33,36.97c0,.08-.03.11-.08.11-.33,0-.6,0-.8-.02l-1.11-.02-1.15.02c-.19,0-.45.02-.78.02-.03,0-.04-.04-.04-.11s.01-.12.04-.12c.39,0,.67-.09.81-.28.15-.18.22-.53.22-1.04v-2.75c0-.69-.13-1.2-.38-1.53-.25-.33-.65-.5-1.18-.5-.31,0-.62.06-.95.19-.32.13-.61.3-.85.52v4.07c0,.51.07.86.22,1.04.15.19.42.28.81.28.05,0,.08.04.08.12s-.03.11-.08.11c-.33,0-.6,0-.8-.02l-1.11-.02-1.15.02c-.19,0-.45.02-.78.02-.03,0-.04-.04-.04-.11s.01-.12.04-.12c.39,0,.67-.09.81-.28.15-.18.22-.53.22-1.04v-9.71c0-.45-.04-.76-.12-.96-.08-.19-.23-.29-.43-.29-.18,0-.42.07-.73.21h-.02s-.07-.04-.1-.1c-.03-.07-.04-.11,0-.12l2.79-1.32.1-.02c.06,0,.13.03.2.09s.11.11.11.16v7.57c.9-1.04,1.87-1.57,2.9-1.57.69,0,1.23.22,1.63.66.4.44.6,1.02.6,1.73v3.67c0,.51.07.86.22,1.04.15.19.42.28.81.28.05,0,.08.04.08.12h0Z" fill="#c0b68a"/>
    <path d="M135.02,35.82s.05.03.09.08c.03.05.04.09,0,.11-.47.46-.95.79-1.43.99s-1.01.31-1.59.31c-.8,0-1.5-.17-2.08-.51-.59-.34-1.03-.79-1.34-1.36s-.46-1.18-.46-1.84c0-.74.18-1.42.55-2.04.37-.62.88-1.12,1.54-1.48.66-.36,1.4-.54,2.23-.54s1.4.18,1.83.54c.43.36.65.91.65,1.66,0,.4-.07.59-.21.59l-4.64.02c0,.09-.02.24-.02.44,0,1.12.26,2,.77,2.64.52.64,1.26.96,2.23.96.34,0,.64-.04.88-.12.24-.08.56-.22.96-.42l.04-.02h0ZM130.75,30.46c-.28.36-.46.86-.55,1.5l2.77-.04c0-.65-.11-1.15-.29-1.49s-.47-.52-.88-.52-.77.18-1.05.54h0Z" fill="#c0b68a"/>
    <path d="M144.84,37.1c-.2,0-.46-.03-.75-.04-.3,0-.63-.02-1-.02l-1.41.02c-.25,0-.6.02-1.03.02-.03,0-.04-.04-.04-.11s0-.12.04-.12c.41,0,.71-.03.9-.1.19-.06.32-.19.39-.37s.11-.47.11-.85v-8.85c0-.38-.04-.66-.11-.84s-.2-.3-.38-.37c-.19-.07-.48-.1-.87-.1-.04,0-.06-.04-.06-.11s.02-.11.06-.11l1.01.02c.59.03,1.05.04,1.4.04.52,0,1.06-.02,1.61-.06.66-.03,1.11-.04,1.34-.04,1.29,0,2.43.25,3.43.76s1.77,1.2,2.32,2.08.82,1.87.82,2.96c0,1.24-.28,2.33-.85,3.28s-1.33,1.68-2.29,2.2c-.96.52-2.02.77-3.16.77-.41,0-.89-.02-1.45-.06h-.03ZM148.26,36.1c.62-.41,1.11-1.03,1.46-1.84.35-.82.53-1.79.53-2.92s-.17-2.07-.5-2.95-.8-1.58-1.41-2.09-1.32-.76-2.12-.76-1.33.08-1.62.23-.44.48-.44.97v8.6c0,.51.13.87.4,1.08.27.21.78.32,1.55.32.82,0,1.54-.21,2.16-.62v-.02Z" fill="#c0b68a"/>
    <path d="M154.22,36.97c0-.08.02-.12.06-.12.39,0,.66-.09.8-.28.14-.18.21-.53.21-1.04v-3.42c0-.43-.04-.75-.13-.94-.09-.19-.24-.29-.44-.29-.17,0-.4.07-.71.21h-.02c-.05,0-.09-.03-.12-.1s-.02-.11.02-.12l2.89-1.34.06-.02c.06,0,.13.03.19.1.06.06.1.12.1.17v.42c-.03.51-.04,1.13-.04,1.87v3.46c0,.51.07.86.22,1.04.15.19.42.28.81.28.04,0,.06.04.06.12s-.02.11-.06.11c-.33,0-.59,0-.78-.02l-1.15-.02-1.13.02c-.19,0-.45.02-.78.02-.04,0-.06-.04-.06-.11h0ZM155.25,27.32c-.2-.2-.31-.49-.31-.86,0-.33.11-.6.32-.79s.49-.3.85-.3.63.1.82.29.29.46.29.8c0,.37-.1.66-.29.86-.19.2-.46.31-.82.31s-.66-.1-.86-.31h0Z" fill="#c0b68a"/>
    <path d="M161.21,31.58c.26.27.64.55,1.14.84.48.28.84.5,1.08.66s.45.38.64.67.29.63.29,1.04-.11.84-.33,1.22-.54.69-.97.93c-.43.24-.95.35-1.55.35-.7,0-1.36-.17-1.99-.52-.08-.08-.12-.15-.12-.23l-.04-1.89s.04-.06.11-.07c.07,0,.11,0,.12.03.2.64.54,1.18,1.01,1.62s.95.67,1.43.67c.27,0,.48-.08.64-.25s.24-.41.24-.73c0-.47-.13-.84-.4-1.12-.27-.27-.66-.56-1.18-.85-.45-.24-.78-.44-1.01-.59s-.43-.37-.61-.65-.27-.62-.27-1.03c0-.75.27-1.3.8-1.65s1.19-.53,1.97-.53c.29,0,.56.02.79.06.24.04.5.11.79.23.12.04.17.11.17.21,0,.32,0,.57-.02.75l-.02.96s-.04.06-.11.06-.12-.02-.12-.06c0-.24-.1-.51-.31-.79s-.47-.53-.79-.74c-.33-.2-.66-.31-1-.31-.52,0-.78.25-.78.75,0,.37.13.69.39.96h.01Z" fill="#c0b68a"/>
    <path d="M171.19,35.75c.05,0,.09.03.12.08.03.05.03.09,0,.12-.47.47-.93.82-1.38,1.04s-.92.33-1.41.33c-.56,0-1.04-.13-1.43-.4s-.59-.72-.59-1.36v-4.24c0-.4-.07-.67-.21-.82s-.39-.23-.76-.23c0,0-.03-.02-.05-.06s-.03-.08-.03-.11c0-.05,0-.09.02-.12,0-.03.03-.05.06-.05.65-.03,1.18-.17,1.58-.42.4-.25.71-.64.93-1.17.03-.05.08-.08.16-.08s.12.03.12.08v1.53c.74-.01,1.57-.07,2.48-.17.03,0,.05.05.09.14.03.1.05.2.05.32,0,.13-.02.25-.07.37-.04.12-.09.18-.14.16-.83-.18-1.63-.27-2.41-.29v4.53c0,.48.12.84.37,1.07s.58.34.98.34c.51,0,1.01-.19,1.49-.57l.04-.02h0Z" fill="#c0b68a"/>
    <path d="M179.43,36.05c.05,0,.09.03.11.09s0,.1-.05.12l-1.97.94c-.05.03-.12.04-.19.04-.2,0-.4-.11-.58-.33s-.32-.51-.39-.88l-.82.57c-.29.22-.57.37-.82.47s-.54.14-.86.14c-.55,0-.96-.12-1.24-.36s-.42-.58-.42-1.01c0-.34.08-.62.25-.83.17-.21.37-.38.62-.5s.6-.26,1.04-.41l.48-.17,1.72-.63v-1.09c0-.81-.07-1.41-.2-1.78-.13-.37-.36-.55-.68-.55-.68,0-1.06.52-1.15,1.57-.04.38-.15.66-.33.82s-.44.25-.77.25-.55-.07-.7-.2-.22-.31-.22-.53c0-.38.22-.75.67-1.1s.98-.63,1.62-.85,1.19-.33,1.67-.33c.56,0,1.02.18,1.37.53.35.35.53.88.53,1.6v3.38c0,.37.07.66.2.86.13.2.32.31.56.31.18,0,.36-.04.55-.13h.02-.02ZM176.31,35.71s-.02-.13-.02-.25v-1.83l-.82.38s-.17.06-.38.14-.4.22-.56.41-.24.41-.24.67c0,.31.1.54.3.72.2.17.42.26.68.26.2,0,.41-.07.63-.21l.42-.29h0Z" fill="#c0b68a"/>
    <path d="M189.25,36.97c0,.08-.02.11-.06.11-.33,0-.59,0-.78-.02l-1.15-.02-1.11.02c-.2,0-.47.02-.8.02-.04,0-.06-.04-.06-.11s.02-.12.06-.12c.39,0,.66-.09.8-.28.14-.18.21-.53.21-1.04v-2.75c0-.69-.12-1.2-.37-1.53-.25-.33-.64-.5-1.17-.5-.31,0-.62.06-.95.19s-.61.3-.85.52v4.07c0,.51.07.86.22,1.04.15.19.42.28.81.28.04,0,.06.04.06.12s-.02.11-.06.11c-.33,0-.59,0-.78-.02l-1.15-.02-1.13.02c-.19,0-.45.02-.78.02-.04,0-.06-.04-.06-.11s.02-.12.06-.12c.39,0,.66-.09.8-.28.14-.18.21-.53.21-1.04v-3.59c0-.39-.05-.68-.14-.87-.1-.18-.25-.28-.45-.28-.22,0-.52.09-.92.27h-.04s-.07-.03-.09-.1c-.02-.06-.02-.1,0-.11l2.66-1.3c.08-.03.12-.04.13-.04.14,0,.27.14.4.41s.2.65.23,1.12c.88-1.04,1.85-1.57,2.91-1.57.69,0,1.23.22,1.63.66.4.44.6,1.02.6,1.73v3.67c0,.51.07.86.22,1.04.15.19.42.28.81.28.04,0,.06.04.06.12h.02Z" fill="#c0b68a"/>
    <path d="M195.71,35.75c.05,0,.09.03.12.08.03.05.03.09,0,.12-.47.47-.93.82-1.38,1.04s-.92.33-1.41.33c-.56,0-1.04-.13-1.43-.4s-.59-.72-.59-1.36v-4.24c0-.4-.07-.67-.21-.82s-.39-.23-.76-.23c0,0-.03-.02-.05-.06s-.03-.08-.03-.11c0-.05,0-.09.02-.12,0-.03.03-.05.06-.05.65-.03,1.18-.17,1.58-.42.4-.25.71-.64.93-1.17.03-.05.08-.08.16-.08s.12.03.12.08v1.53c.74-.01,1.57-.07,2.48-.17.03,0,.05.05.09.14.03.1.05.2.05.32,0,.13-.02.25-.07.37-.04.12-.09.18-.14.16-.83-.18-1.63-.27-2.41-.29v4.53c0,.48.12.84.37,1.07s.58.34.98.34c.51,0,1.01-.19,1.49-.57l.04-.02h0Z" fill="#c0b68a"/>
    <path d="M204.09,28.29c.24.36.53.67.87.94s.81.59,1.39.98c.64.41,1.15.76,1.53,1.07s.71.68.97,1.12c.27.44.4.95.4,1.52,0,.66-.18,1.25-.54,1.77s-.85.92-1.48,1.2c-.63.29-1.33.43-2.11.43-.57,0-1.17-.08-1.8-.24s-1.04-.33-1.26-.53c-.06-.05-.11-.1-.14-.14s-.05-.12-.05-.22l-.06-3.04v-.02s.03-.08.1-.09.1.02.11.07c.38.78.72,1.41,1,1.89.29.48.65.91,1.09,1.28s.94.55,1.5.55c.51,0,.93-.14,1.26-.41s.5-.74.5-1.41c0-.56-.12-1.05-.37-1.47-.25-.42-.55-.78-.91-1.07s-.85-.64-1.47-1.05c-.61-.39-1.09-.73-1.42-1.01s-.63-.62-.87-1.01c-.24-.4-.36-.86-.36-1.4,0-.67.19-1.25.58-1.71s.89-.81,1.5-1.03c.61-.22,1.25-.33,1.93-.33.45,0,.9.04,1.36.12s.83.18,1.11.3c.11.05.19.1.23.16s.06.13.06.22v2.81s-.03.07-.1.09c-.06.02-.1,0-.12-.03l-.15-.36c-.32-.8-.69-1.48-1.12-2.04-.43-.56-1.02-.84-1.79-.84-.51,0-.93.15-1.25.44s-.49.72-.49,1.28c0,.46.12.87.35,1.22h.02Z" fill="#c0b68a"/>
    <path d="M219.79,35.84s.07.03.11.1.03.1,0,.11l-2.64,1.28s-.06.02-.1.02c-.13,0-.24-.14-.33-.41-.1-.27-.15-.65-.16-1.12-.84.99-1.75,1.49-2.73,1.49-.7,0-1.25-.22-1.65-.66s-.6-1.02-.6-1.73v-2.81c0-.83-.2-1.24-.59-1.24-.14,0-.3.04-.48.13h-.02c-.05,0-.09-.03-.12-.1s-.02-.11.02-.12l2.56-1.22.1-.02c.06,0,.13.03.2.09.07.06.1.11.1.16v4.22c0,1.38.53,2.06,1.59,2.06.28,0,.56-.06.85-.18.29-.12.54-.29.77-.51v-3.27c0-.83-.2-1.24-.59-1.24-.14,0-.31.04-.5.13h-.02s-.07-.03-.1-.1-.02-.11.02-.12l2.56-1.22s.06-.02.1-.02c.06,0,.13.03.2.09.07.06.11.11.11.16v5.08c0,.43.04.74.12.92.08.18.22.27.41.27.18,0,.44-.07.78-.21h.04-.01Z" fill="#c0b68a"/>
    <path d="M229.69,36.97c0,.08-.02.11-.06.11-.33,0-.59,0-.78-.02l-1.15-.02-1.11.02c-.2,0-.47.02-.8.02-.04,0-.06-.04-.06-.11s.02-.12.06-.12c.39,0,.66-.09.8-.28.14-.18.21-.53.21-1.04v-2.75c0-.69-.12-1.2-.37-1.53-.25-.33-.64-.5-1.17-.5-.31,0-.62.06-.95.19s-.61.3-.85.52v4.07c0,.51.07.86.22,1.04.15.19.42.28.81.28.04,0,.06.04.06.12s-.02.11-.06.11c-.33,0-.59,0-.78-.02l-1.15-.02-1.13.02c-.19,0-.45.02-.78.02-.04,0-.06-.04-.06-.11s.02-.12.06-.12c.39,0,.66-.09.8-.28.14-.18.21-.53.21-1.04v-3.59c0-.39-.05-.68-.14-.87-.1-.18-.25-.28-.45-.28-.22,0-.52.09-.92.27h-.04s-.07-.03-.09-.1c-.02-.06-.02-.1,0-.11l2.66-1.3c.08-.03.12-.04.13-.04.14,0,.27.14.4.41s.2.65.23,1.12c.88-1.04,1.85-1.57,2.91-1.57.69,0,1.23.22,1.63.66.4.44.6,1.02.6,1.73v3.67c0,.51.07.86.22,1.04.15.19.42.28.81.28.04,0,.06.04.06.12h.02Z" fill="#c0b68a"/>
    <path d="M232.61,31.58c.26.27.64.55,1.14.84.48.28.84.5,1.08.66s.45.38.64.67.29.63.29,1.04-.11.84-.33,1.22-.54.69-.97.93c-.43.24-.95.35-1.55.35-.7,0-1.36-.17-1.99-.52-.08-.08-.12-.15-.12-.23l-.04-1.89s.04-.06.11-.07c.07,0,.11,0,.12.03.2.64.54,1.18,1.01,1.62s.95.67,1.43.67c.27,0,.48-.08.64-.25s.24-.41.24-.73c0-.47-.13-.84-.4-1.12-.27-.27-.66-.56-1.18-.85-.45-.24-.78-.44-1.01-.59s-.43-.37-.61-.65-.27-.62-.27-1.03c0-.75.27-1.3.8-1.65s1.19-.53,1.97-.53c.29,0,.56.02.79.06.24.04.5.11.79.23.12.04.17.11.17.21,0,.32,0,.57-.02.75l-.02.96s-.04.06-.11.06-.12-.02-.12-.06c0-.24-.1-.51-.31-.79s-.47-.53-.79-.74c-.33-.2-.66-.31-1-.31-.52,0-.78.25-.78.75,0,.37.13.69.39.96h.01Z" fill="#c0b68a"/>
  </g>
</svg>