<?xml version="1.0" encoding="UTF-8"?>
<svg id="_レイヤー_1" xmlns="http://www.w3.org/2000/svg" width="163.2" height="106.58" version="1.1" viewBox="0 0 163.2 106.58">
  <!-- Generator: Adobe Illustrator 29.4.0, SVG Export Plug-In . SVG Version: 2.1.0 Build 152)  -->
  <path d="M162.56,29.35c-.09-.09-.21-.14-.35-.14-2.65,0-5.05-1.07-6.8-2.82s-2.82-4.13-2.82-6.8c0-.12-.05-.26-.14-.35s-.21-.14-.35-.14H11.1c-.12,0-.26.05-.35.14s-.14.22-.14.35c0,2.65-1.07,5.05-2.82,6.8s-4.13,2.82-6.8,2.82c-.12,0-.26.05-.35.14s-.14.22-.14.35v65.35c0,.12.05.26.14.35s.21.14.35.14c2.65,0,5.05,1.07,6.8,2.82s2.82,4.13,2.82,6.8c0,.12.05.26.14.35s.21.14.35.14h141.01c.12,0,.26-.05.35-.14.09-.09.14-.22.14-.35,0-2.65,1.07-5.05,2.82-6.8s4.13-2.82,6.8-2.82c.12,0,.26-.05.35-.14.09-.09.14-.22.14-.35V29.69c0-.12-.05-.26-.14-.35h-.01Z" fill="#2b3948"/>
  <g>
    <g>
      <path d="M45.81,7.18h-.23c-1.56,0-2.83-1.27-2.83-2.83v-1.52c0-1.56,1.27-2.83,2.83-2.83h.23c1.56,0,2.83,1.27,2.83,2.83v1.52c0,1.56-1.27,2.83-2.83,2.83ZM45.58,1.41c-.78,0-1.42.64-1.42,1.42v1.52c0,.78.64,1.42,1.42,1.42h.23c.78,0,1.42-.64,1.42-1.42v-1.52c0-.78-.64-1.42-1.42-1.42h-.23Z" fill="#ded9c3"/>
      <path d="M45.81,19.55h-.23c-1.56,0-2.83-1.27-2.83-2.83v-1.52c0-1.56,1.27-2.83,2.83-2.83h.23c1.56,0,2.83,1.27,2.83,2.83v1.52c0,1.56-1.27,2.83-2.83,2.83ZM45.58,13.78c-.78,0-1.42.64-1.42,1.42v1.52c0,.78.64,1.42,1.42,1.42h.23c.78,0,1.42-.64,1.42-1.42v-1.52c0-.78-.64-1.42-1.42-1.42,0,0-.23,0-.23,0Z" fill="#ded9c3"/>
      <rect x="44.99" y="6.47" width="1.42" height="6.6" fill="#ded9c3"/>
    </g>
    <g>
      <path d="M117.64,7.18h-.23c-1.56,0-2.83-1.27-2.83-2.83v-1.52c0-1.56,1.27-2.83,2.83-2.83h.23c1.56,0,2.83,1.27,2.83,2.83v1.52c0,1.56-1.27,2.83-2.83,2.83ZM117.41,1.41c-.78,0-1.42.64-1.42,1.42v1.52c0,.78.63,1.42,1.42,1.42h.23c.78,0,1.42-.64,1.42-1.42v-1.52c0-.78-.63-1.42-1.42-1.42h-.23Z" fill="#ded9c3"/>
      <path d="M117.64,19.55h-.23c-1.56,0-2.83-1.27-2.83-2.83v-1.52c0-1.56,1.27-2.83,2.83-2.83h.23c1.56,0,2.83,1.27,2.83,2.83v1.52c0,1.56-1.27,2.83-2.83,2.83ZM117.41,13.78c-.78,0-1.42.64-1.42,1.42v1.52c0,.78.63,1.42,1.42,1.42h.23c.78,0,1.42-.64,1.42-1.42v-1.52c0-.78-.63-1.42-1.42-1.42,0,0-.23,0-.23,0Z" fill="#ded9c3"/>
      <rect x="116.81" y="6.47" width="1.42" height="6.6" fill="#ded9c3"/>
    </g>
  </g>
  <g>
    <path d="M148.86,23.73c-.05-.16-.19-.24-.35-.24H63.76v.02H14.69c-.16,0-.29.1-.35.24-1.37,4.39-4.83,7.85-9.22,9.22-.16.05-.24.19-.24.35v58.14c0,.16.1.29.24.35,4.39,1.37,7.85,4.83,9.22,9.22.05.16.19.24.35.24h84.75v-.02h49.07c.16,0,.29-.1.35-.24,1.37-4.39,4.83-7.85,9.22-9.22.16-.05.24-.19.24-.35v-58.14c0-.16-.1-.29-.24-.35-4.39-1.37-7.85-4.83-9.22-9.22h0ZM157.62,91.19c-4.41,1.45-7.91,4.93-9.36,9.34H63.77v.02H14.96c-1.45-4.41-4.95-7.89-9.36-9.36v-57.64c4.41-1.45,7.91-4.93,9.36-9.34h84.49v-.02h48.81c1.45,4.41,4.95,7.89,9.36,9.36v57.64Z" fill="#ded9c3"/>
    <path d="M162.56,29.35c-.09-.09-.21-.14-.35-.14-2.65,0-5.05-1.07-6.8-2.82s-2.82-4.13-2.82-6.8c0-.12-.05-.26-.14-.35s-.21-.14-.35-.14H11.1c-.12,0-.26.05-.35.14s-.14.22-.14.35c0,2.65-1.07,5.05-2.82,6.8s-4.13,2.82-6.8,2.82c-.12,0-.26.05-.35.14s-.14.22-.14.35v65.35c0,.12.05.26.14.35s.21.14.35.14c2.65,0,5.05,1.07,6.8,2.82s2.82,4.13,2.82,6.8c0,.12.05.26.14.35s.21.14.35.14h141.01c.12,0,.26-.05.35-.14.09-.09.14-.22.14-.35,0-2.65,1.07-5.05,2.82-6.8s4.13-2.82,6.8-2.82c.12,0,.26-.05.35-.14.09-.09.14-.22.14-.35V29.69c0-.12-.05-.26-.14-.35h-.01ZM161.73,94.56c-2.73.12-5.19,1.28-6.99,3.1-1.82,1.8-2.98,4.27-3.1,6.99H11.57c-.12-2.73-1.28-5.19-3.1-6.99-1.8-1.8-4.27-2.96-6.99-3.1V30.18c2.73-.12,5.19-1.28,6.99-3.1,1.82-1.8,2.98-4.27,3.1-6.99h140.08c.12,2.73,1.28,5.19,3.1,6.99,1.8,1.8,4.27,2.96,6.99,3.1v64.38h-.01Z" fill="#ded9c3"/>
  </g>
  <g>
    <path d="M35.93,86.46c0,.11.04.23.04.33,0,.27-.21.27-.23.27-.05,0-.07,0-.35-.13-.13-.06-.36-.16-.54-.21-.04-.01-.07-.03-.08-.05-.22.17-.35.27-.49.27-.11,0-.17-.08-.17-.16,0-.06.04-.13.1-.16.08-.04.3-.14,1.35-.95-.05-.5-.07-.92-.07-1.31v-.16c-.12.05-.41.1-.52.1-.05,0-.49,0-.49-.24,0-.08.06-.15.16-.15.04,0,.08,0,.12.02.07.03.16.05.25.05.1,0,.24-.02.49-.11,0-.28.04-.55.08-.84.02-.13.1-.18.19-.18s.17.07.17.17v.06c-.05.22-.1.43-.13.66.19-.08.37-.17.46-.25.04-.04.09-.05.13-.05.08,0,.16.06.16.14,0,.19-.38.34-.78.5v.34c0,.31.02.66.05,1.03.57-.42,1.02-.66,1.59-.66.61,0,.9.34.9.75,0,.63-.7,1.27-1.32,1.27-.32,0-.54-.17-.54-.5,0-.03.02-.52.27-.52.08,0,.16.06.16.15,0,.03,0,.07-.03.1-.05.09-.07.17-.07.24,0,.13.08.22.24.22.41,0,.95-.49.95-.94,0-.25-.17-.47-.62-.47-.48,0-.9.25-1.5.7.02.21.05.43.07.67h0ZM34.97,86.51c.12.03.37.11.52.16.04.01.07.02.09.02.04,0,.06-.03.06-.11v-.15c-.02-.15-.04-.29-.05-.43-.16.12-.37.29-.63.51h.02-.01ZM38.64,84.08c-.11-.13-.32-.27-.56-.27-.19,0-.4.08-.59.31-.04.04-.08.06-.13.06-.08,0-.16-.05-.16-.13,0-.13.34-.53.92-.53.49,0,.81.29.81.45,0,.09-.07.17-.16.17-.04,0-.09-.02-.13-.07h0Z" fill="#ded9c3"/>
    <path d="M40.35,85.75c-.03.08-.1.13-.17.13-.08,0-.15-.05-.15-.13v-.07c.22-.6.38-1.28.49-1.95h-.55c-.09.01-.13-.06-.13-.12,0-.07.05-.14.13-.14h.6c.06-.4.11-.79.13-1.14,0-.1.08-.14.15-.14.08,0,.17.05.17.14,0,.02-.05.51-.15,1.13h.47c.33,0,.5.19.5.47,0,.51-.13,1.18-.39,1.77.08.04.65.32.65.54,0,.1-.07.18-.16.18-.04,0-.08-.01-.12-.05-.15-.15-.32-.28-.51-.39-.49.91-1.22,1.27-1.34,1.27-.1,0-.17-.09-.17-.17,0-.05.02-.1.08-.12.55-.24.92-.65,1.17-1.1-.21-.09-.44-.16-.69-.2l-.04.12.02-.03h0ZM41.55,83.97c0-.15-.08-.25-.26-.25h-.44c-.1.56-.23,1.13-.39,1.66.25.03.5.1.74.19.28-.63.34-1.27.34-1.61h0ZM43.98,84.94c.02.15.03.3.03.46,0,.3-.04.61-.1.94-.1.48-.42.89-1.04.89-.15,0-.32-.02-.51-.08-.09-.02-.13-.1-.13-.17,0-.08.05-.16.14-.16h.05c.17.06.33.08.46.08.42,0,.64-.27.72-.65.07-.31.1-.61.1-.9,0-.15,0-.29-.02-.42h-1.56c-.1,0-.14-.07-.14-.14s.05-.15.14-.15h1.51c-.1-.39-.29-.72-.6-.89-.04-.02-.06-.05-.06-.09,0-.07.07-.15.16-.15.1,0,.21.09.27.14.05-.04.7-.6.7-.75,0-.09-.13-.09-.34-.09-.33,0-.91,0-1.38.02h0c-.09,0-.14-.07-.14-.14s.05-.14.14-.14c.31-.01.61-.01.9-.01h.78c.28,0,.4.14.4.31,0,.1,0,.29-.87,1,.16.21.28.48.35.79h.98c.1,0,.14.07.14.13,0,.07-.04.15-.14.15h-.94s0,.02,0,.02Z" fill="#ded9c3"/>
    <path d="M48,87.14c-.11,0-.18-.08-.18-.16,0-.07.05-.13.15-.16.69-.19,1.19-.61,1.48-1.16-.54-.24-1.13-.41-1.68-.47-.58.74-.86.89-1.21.89s-.61-.21-.61-.49c0-.31.33-.7,1.45-.7h.24c.56-.74,1.01-1.58,1.01-1.71,0-.02-.02-.04-.04-.04s-.04,0-.07.01c-.25.07-.46.11-.64.11-.28,0-.4-.07-.4-.2,0-.08.05-.16.14-.16h.04c.08.02.18.03.27.03.1,0,.21-.01.31-.03.17-.04.48-.09.54-.09.17,0,.27.1.27.24,0,.07-.02.14-.06.22-.21.39-.61,1.05-1.02,1.62.54.07,1.1.24,1.61.45.08-.22.13-.46.15-.71,0-.1.08-.14.16-.14s.18.06.18.17c0,.07-.08.49-.21.81.43.21.82.45,1.13.71.05.05.08.1.08.16,0,.1-.08.19-.18.19-.04,0-.09-.02-.13-.06-.28-.27-.63-.51-1.02-.71-.55,1.08-1.69,1.35-1.74,1.35,0,0-.02.03-.02.03ZM47.33,85.16c-.75,0-1.08.2-1.08.4,0,.09.07.21.3.21.3,0,.52-.19.87-.61,0,0-.09,0-.09,0Z" fill="#ded9c3"/>
    <path d="M54.33,86.95c-.13,0-.2-.08-.2-.17,0-.08.06-.15.19-.17,1.36-.21,1.92-1.07,1.92-1.8s-.58-1.37-1.54-1.37c-.09,0-.19,0-.28.02-.68.07-1.71.87-1.71,1.82,0,.3.11.69.38.69.07,0,.14-.04.22-.1.17-.15,1.05-1.15,1.05-2.09v-.06h0c0-.14.08-.2.16-.2.2,0,.21.16.21.26,0,.77-.75,1.88-1.23,2.34-.14.14-.28.2-.42.2-.37,0-.69-.46-.69-1.02,0-1.03,1.01-2.15,2.34-2.15,1.17,0,1.89.8,1.89,1.68,0,1.53-1.84,2.12-2.28,2.12,0,0,0,0-.01,0Z" fill="#ded9c3"/>
    <path d="M59.13,84.09c-.11,0-.2-.1-.2-.2,0-.08.06-.16.21-.16.18,0,.4-.04.57-.07.22-.04.98-.24,1.46-.29h.1c.28,0,.41.15.41.31,0,.25-.75,1.24-.9,1.42,1.02.48,1.81,1.12,1.81,1.37,0,.11-.08.21-.19.21-.05,0-.11-.03-.16-.09-.36-.47-1.11-.99-1.68-1.25-1.03,1.12-2.16,1.48-2.25,1.48-.12,0-.21-.08-.21-.17,0-.07.05-.14.17-.18,2.02-.69,2.97-2.61,2.97-2.71,0-.04-.03-.07-.1-.07h-.03c-.37.04-1.06.22-1.39.29-.46.1-.52.1-.59.1h0Z" fill="#ded9c3"/>
    <path d="M64.44,87.14c-.11,0-.18-.07-.18-.16,0-.07.05-.14.16-.18.84-.26,1.6-.81,2.21-1.53-.23-.12-.48-.22-.69-.28-.07-.02-.1-.07-.1-.12,0-.08.07-.16.18-.16.08,0,.43.11.82.3.53-.71.8-1.36.8-1.42,0-.07-.06-.09-.11-.09-.27,0-.9.15-1.2.16h-.05c-.84,1.2-1.39,1.58-1.54,1.58-.1,0-.17-.07-.17-.16,0-.07.04-.14.13-.19.61-.39,1.07-1.04,1.36-1.49.11-.17.19-.41.23-.57.02-.09.1-.14.17-.14.09,0,.18.07.18.2,0,.12-.07.29-.15.46.37-.04.8-.14,1.17-.16h.04c.25,0,.38.14.38.31,0,.27-.73,1.39-.93,1.66.22.12.67.4.67.6,0,.1-.08.18-.18.18-.05,0-.1-.02-.14-.07-.13-.14-.34-.29-.56-.43-1.12,1.36-2.42,1.71-2.48,1.71h-.02Z" fill="#ded9c3"/>
    <path d="M73.05,86.99c0,.15-.1.23-.19.23-.08,0-.17-.07-.17-.22h0c0-.54.04-1.25.04-1.81,0-.34-.01-.59-.04-.73-.7.77-1.8,1.6-2.07,1.6-.11,0-.19-.08-.19-.17,0-.07.04-.13.12-.17,1.4-.69,2.63-2.19,2.86-2.92.02-.08.1-.12.17-.12.1,0,.19.06.19.18,0,.1-.13.49-.83,1.3.1.1.11.34.11.46v.2c-.01.32-.02.86-.02,1.38v.78h.02Z" fill="#ded9c3"/>
    <path d="M76.33,86.82c-.11,0-.2-.08-.2-.17,0-.06.04-.12.12-.17,1.33-.72,1.53-1.88,1.53-2.25,0-.07,0-.13-.01-.2v-.02c0-.12.1-.19.19-.19.16,0,.2.1.2.36,0,.23-.14,1.62-1.67,2.59-.05.04-.11.05-.16.05ZM79.05,85.87c0,.07,0,.11.04.11.02,0,.95-.34,1.78-1.74.05-.08.11-.11.16-.11.1,0,.19.09.19.21,0,.04-.01.08-.04.13-.71,1.16-1.93,1.98-2.3,1.98-.14,0-.22-.1-.22-.24v-.07c.07-.39.14-1.31.14-1.83,0-.22-.01-.44-.04-.57v-.04c0-.11.1-.18.19-.18.19,0,.21.17.21.54v.27c-.01.27-.11,1.35-.11,1.55h0Z" fill="#ded9c3"/>
    <path d="M84.19,83.55c-.14.02-.27.04-.37.04-.33,0-.56-.11-.56-.27,0-.07.06-.14.15-.14.04,0,.09.02.14.05.07.05.17.07.3.07.07,0,.22,0,.56-.08.08-.21.1-.33.14-.57.02-.1.08-.14.16-.14.09,0,.18.06.18.16,0,.14-.08.38-.11.44.14-.05.28-.1.37-.16.03-.02.06-.02.09-.02.08,0,.15.06.15.14,0,.18-.37.28-.75.38-.11.24-.29.52-.49.83.07-.01.13-.02.19-.02.33,0,.6.22.73.67,1.05-.47,1.46-.54,1.52-.54.12,0,.18.08.18.16,0,.06-.04.13-.11.15-.23.07-.4.12-.67.21-.3.09-.6.21-.86.33.01.12.02.25.02.38,0,.31-.01.57-.21.57-.08,0-.14-.06-.14-.18v-.04c.02-.16.03-.31.03-.44v-.14c-.46.24-.93.55-.93.96,0,.27.22.54.84.54.29,0,.58-.06.74-.11.04-.01.08-.02.11-.02.13,0,.21.08.21.17,0,.27-.74.28-.95.28-.96,0-1.28-.46-1.28-.84,0-.23.13-.78,1.21-1.3-.08-.36-.25-.57-.49-.57-.13,0-.27.05-.43.16-.22.24-.31.34-.43.34-.08,0-.16-.06-.16-.14,0-.04.02-.1.08-.14.29-.25.63-.55.94-1.19h-.08s-.02.02-.02.02Z" fill="#ded9c3"/>
    <path d="M88.23,84.9c-.09,0-.13-.07-.13-.14s.05-.15.14-.15h.34c.33,0,.7,0,.7.49,0,.36-.02.75-.02,1.19.53.69,1.28.72,2.04.72.64,0,1.33-.06,1.81-.1h.02c.11,0,.17.08.17.16s-.06.16-.18.17c-.39.04-1.01.08-1.61.08-1.39,0-1.87-.17-2.4-.79-.32.37-.82.76-.93.76-.09,0-.17-.08-.17-.17,0-.05.02-.1.08-.13.32-.19.63-.41.87-.71,0-.31.01-.6.01-.85v-.26c0-.17-.07-.25-.27-.26h-.47ZM89.08,83.38c-.17-.26-.52-.53-.69-.63-.05-.02-.07-.06-.07-.1,0-.07.08-.14.17-.14.14,0,.89.54.89.76,0,.1-.08.19-.17.19-.04,0-.08-.02-.12-.07h0ZM91.31,85.62h-1.68c-.08,0-.13-.05-.13-.12,0-.06.05-.12.13-.12h.98v-.55h-.74c-.08,0-.13-.06-.13-.12s.04-.12.13-.12h.74v-.28c0-.08.07-.13.14-.13s.15.04.15.13v.28h.81v-.28c0-.08.07-.13.14-.13s.14.04.14.13v.28h.78c.08,0,.12.06.12.12s-.04.12-.12.12h-.78v.56h1.05c.08,0,.12.05.12.12s-.04.13-.12.13h-1.74v-.02h0ZM90.64,83.08c.14,0,.18-.03.18-.11,0-.27,0-.29-.18-.29h-.9c-.08,0-.11-.06-.11-.13,0-.06.04-.13.11-.13h.95c.37,0,.4.13.4.45,0,.36-.07.45-.4.45h-.4c-.3,0-.36,0-.37.14v.21c0,.13.05.19.48.19.54,0,.58-.12.59-.34,0-.08.06-.12.13-.12s.15.05.15.13c0,.51-.33.58-.87.58-.63,0-.75-.11-.75-.48,0-.34,0-.54.41-.54h.58ZM89.78,86.55c-.09,0-.14-.07-.14-.14,0-.06.04-.12.11-.13.37-.04.85-.22,1.11-.4.02-.02.05-.02.07-.02.07,0,.13.07.13.14,0,.24-1.15.55-1.28.55ZM91.7,84.82h-.81v.57h.81v-.57ZM92.4,83.08c.16,0,.19-.04.19-.11,0-.27,0-.29-.19-.29h-.91c-.08,0-.11-.07-.11-.13,0-.07.04-.13.11-.13h.96c.38,0,.42.14.42.45,0,.34-.03.45-.41.45h-.38c-.38,0-.39,0-.39.35,0,.16.09.19.5.19.59,0,.62-.14.63-.34,0-.08.07-.12.13-.12.07,0,.15.05.15.13,0,.44-.25.58-.91.58-.71,0-.77-.14-.77-.48s0-.54.42-.54h.56ZM92.91,86.54c-.11,0-.86-.16-1.31-.44-.04-.02-.05-.06-.05-.1,0-.07.05-.14.13-.14.02,0,.04,0,.07.02.33.18.81.33,1.21.37.09.01.13.07.13.14s-.05.15-.16.15c0,0-.02,0-.02,0Z" fill="#ded9c3"/>
    <path d="M95.54,85.31s.02,0,.04-.02c.15-.14.44-.27.69-.27s.46.13.46.54c0,.1,0,.17-.11.57-.02.06-.02.11-.02.16,0,.21.16.31.42.31.93,0,1.58-1.01,1.71-1.58.03-.12.11-.17.19-.17.1,0,.19.08.19.19,0,.22-.68,1.89-2.11,1.89-.71,0-.74-.42-.74-.54,0-.08.01-.17.04-.28.1-.33.12-.46.12-.55,0-.19-.08-.28-.22-.28-.24,0-.93.33-1.24,1.23-.12.37-.23.43-.33.43-.17,0-.19-.13-.19-.17,0-.11.22-.57,1.04-1.93.33-.54.62-1.05.9-1.53.1-.17.26-.4.32-.52.04-.07.1-.1.16-.1.1,0,.2.08.2.19,0,.07-.02.12-.31.51-.28.39-1.15,1.8-1.2,1.89-.01.01-.02.03-.02.04h0Z" fill="#ded9c3"/>
    <path d="M104,87h-.04c-1.39-.1-2.09-1.01-2.09-1.88,0-.71.52-1.23.61-1.3.03-.02.05-.05.05-.06s0-.01-.02-.01c-.01,0-.04,0-.07.02-.04.02-1.27.59-1.53.59-.14,0-.21-.08-.21-.17,0-.08.06-.16.17-.19.63-.16,1.72-.58,2.06-.71.52-.21,1.07-.37,1.58-.37.18,0,.26.1.26.19,0,.13-.11.19-.27.19h-.23c-.95,0-2.11.77-2.11,1.79,0,.81.74,1.52,1.8,1.52.19,0,.28.1.28.2s-.1.21-.27.21l.03-.02h0ZM104.62,84.82c-.1-.12-.46-.38-.6-.45-.07-.03-.09-.07-.09-.11,0-.07.07-.13.16-.13.11,0,.78.36.78.56,0,.09-.08.17-.16.17-.03,0-.07-.02-.09-.05h0ZM105.19,84.35c-.1-.12-.48-.37-.63-.43-.07-.03-.1-.07-.1-.11,0-.07.07-.13.16-.13.1,0,.8.33.8.55,0,.1-.07.17-.15.17-.03,0-.06-.01-.08-.04h0Z" fill="#ded9c3"/>
    <path d="M109.25,87.17c-.31-.77-.81-1.36-1.28-1.96-.17-.22-.26-.39-.26-.57,0-.15.07-.3.22-.49.39-.5.86-1.05,1.18-1.63.04-.07.09-.1.15-.1.1,0,.21.1.21.21,0,.03,0,.06-.02.09-.33.54-.84,1.11-1.24,1.59-.1.13-.15.22-.15.31,0,.12.07.23.19.38.51.66,1.06,1.26,1.36,1.97,0,.04.02.07.02.1,0,.12-.1.21-.21.21-.07,0-.13-.04-.16-.12h-.01Z" fill="#ded9c3"/>
    <path d="M114.41,83.68c-.56,1.57-1.01,2.36-1.41,3.21-.04.07-.11.11-.18.11-.1,0-.19-.05-.19-.15,0-.03,0-.07.03-.1.34-.62.87-1.56,1.4-2.99v-.02c-.14.05-.54.15-.76.15-.04,0-.42,0-.42-.21,0-.08.05-.17.16-.17.03,0,.07.01.11.03.06.03.13.04.2.04.05,0,.33,0,.84-.2.05-.19.07-.36.07-.6,0-.11.09-.16.18-.16.16,0,.17.11.17.24,0,.11-.02.23-.05.36.07-.04.13-.08.17-.11s.08-.04.12-.04c.09,0,.16.07.16.15,0,.06-.04.18-.57.4l-.03.08v-.02h0ZM116.68,86.86c0,.17-.19.17-.28.17-1.03,0-1.55-.57-1.55-.75,0-.1.08-.18.17-.18.05,0,.11.03.14.1.26.45.86.47,1.33.49.13,0,.19.09.19.17ZM116.87,84.76s-.05,0-.07-.01c-.3-.11-.76-.28-1.14-.28-.08,0-.16.01-.24.03h-.04c-.07,0-.13-.07-.13-.14,0-.05.02-.19.42-.19.33,0,.78.1,1.24.28.08.03.12.1.12.15,0,.09-.07.17-.17.17h.01,0ZM116.72,83.49c-.1-.12-.45-.37-.6-.44-.07-.03-.09-.07-.09-.11,0-.07.07-.13.16-.13.1,0,.77.36.77.56,0,.09-.07.16-.15.16-.03,0-.07-.01-.09-.04h0ZM117.25,83c-.1-.11-.47-.36-.61-.42-.07-.03-.09-.07-.09-.11,0-.07.07-.14.16-.14.16,0,.67.37.73.42.04.04.05.08.05.13,0,.08-.07.16-.15.16-.03,0-.06-.01-.08-.04h-.01Z" fill="#ded9c3"/>
    <path d="M121.57,84.17c.13.23.26.46.37.68s.21.42.27.6.09.31.09.4c0,.17-.08.22-.15.22-.06,0-.14-.03-.23-.11-.29-.23-1.05-.37-1.5-.37-.63,0-.87.34-.87.55,0,.34.57.58,1.21.58.1,0,.21,0,.31-.01h.04c.14,0,.21.08.21.17,0,.1-.08.2-.23.2h-.05c-1.16,0-1.8-.43-1.8-.92,0-.3.28-.84,1.23-.84.46,0,.95.11,1.33.18h.05s.03,0,.03-.03c0-.05-.1-.45-.66-1.37-.04-.06-.07-.12-.1-.17-.02,0-.49.11-.73.11-.63,0-1.13-.56-1.13-.71,0-.08.08-.15.17-.15.05,0,.11.02.16.08.33.4.65.48.87.48.05,0,.2,0,.52-.08-.3-.54-.36-.72-.36-.78,0-.1.07-.15.16-.15.08,0,.17.05.2.17.05.18.16.42.3.68.16-.05.31-.1.45-.15.04-.01.07-.02.1-.02.11,0,.17.08.17.16,0,.12-.07.16-.58.28.05.1.11.2.17.3l-.02.02h0Z" fill="#ded9c3"/>
    <path d="M126.24,86.47c-.17,0-.37-.07-.59-.24-.55-.42-.75-1.29-.85-1.77,0-.07-.12-.59-.12-.64,0-.1.08-.17.17-.17.08,0,.15.05.17.16.04.19.06.43.1.63.26,1.48.94,1.62,1.04,1.62s.16-.06.21-.17c.08-.19.12-.43.19-.65.03-.08.08-.12.14-.12.09,0,.18.07.18.17v.03c-.05.26-.14.54-.19.79-.04.21-.21.34-.45.34v.02ZM128.78,85.26c-.06-.48-.45-.97-.88-1.31-.04-.03-.05-.07-.05-.1,0-.08.07-.15.16-.15.04,0,.1.02.15.06.36.3.99.9.99,1.44,0,.15-.1.23-.2.23-.08,0-.15-.05-.17-.17Z" fill="#ded9c3"/>
  </g>
  <polygon points="148.73 79.77 151.21 78.11 148.73 76.45 146.62 77.86 16.6 77.86 14.49 76.45 12.01 78.11 14.49 79.77 16.6 78.36 146.62 78.36 148.73 79.77" fill="#ded9c3"/>
  <g>
    <path d="M43.52,39.09c-.31.83-.55,1.57-.71,2.22-.08.28-.16.67-.25,1.17h-.42c0-1.08-.17-1.84-.54-2.28-.38-.45-.95-.67-1.73-.67h-.06c-.44,0-.77.04-.99.1s-.39.21-.51.42-.25.56-.38,1.04l-1.19,4.44h.34c.59,0,1.13-.21,1.62-.62.49-.42.85-.91,1.08-1.48h.42c-.2.62-.37,1.21-.5,1.79l-.13.5c-.09.34-.17.68-.25,1.02s-.16.76-.25,1.27h-.42c0-.54-.14-1.03-.43-1.46-.29-.43-.75-.65-1.39-.65h-.17l-1.21,4.52c-.11.48-.17.78-.17.92,0,.27.1.44.28.51.18.09.5.12.97.12h.25c.9,0,1.66-.25,2.28-.74s1.23-1.36,1.84-2.59h.42c-.1.28-.23.72-.4,1.35-.21.74-.38,1.54-.49,2.41-.86-.04-2.27-.06-4.25-.06-2.91,0-5.09.02-6.55.06l.08-.38c.45-.03.79-.08,1.02-.15s.41-.22.53-.43.26-.56.39-1.04l2.48-9.33c.1-.43.15-.72.15-.9,0-.28-.1-.46-.28-.54s-.51-.14-.99-.17l.1-.38c1.45.04,3.62.06,6.53.06,1.81,0,3.1-.02,3.89-.06h0Z" fill="#131f2b"/>
    <path d="M53.02,49.35h.36l-.47,1.37c-.45,1.29-1.35,1.94-2.69,1.94-.8,0-1.37-.23-1.69-.68-.21-.29-.32-.64-.32-1.06s.1-.9.3-1.5l1.62-4.87c.1-.29.15-.53.15-.73s-.07-.29-.19-.29c-.32,0-.74.44-1.26,1.31-.51.88-1.04,2-1.57,3.37-.53,1.37-.98,2.74-1.34,4.12v-.04l-.02.1h-3.33l2.29-8.16c.08-.25.11-.43.11-.54,0-.16-.1-.25-.29-.25-.2,0-.38.09-.54.27-.16.17-.32.49-.49.92l-.43,1.15h-.36l.52-1.47c.24-.67.56-1.15.98-1.47s.95-.47,1.6-.47c.7,0,1.21.16,1.51.49s.46.75.46,1.27c0,.29-.04.58-.11.87l-.5,1.96c.49-1.23.95-2.17,1.4-2.84.45-.66.9-1.11,1.36-1.37.47-.26.99-.39,1.58-.39,1.23,0,1.85.52,1.85,1.56,0,.34-.09.76-.25,1.27l-1.86,5.58c-.07.21-.1.36-.1.45,0,.23.1.34.32.34.36,0,.69-.4,1-1.19l.4-1.06h0Z" fill="#131f2b"/>
    <path d="M57.78,50.81c-.04.12-.06.25-.06.36,0,.29.13.44.4.44s.5-.13.75-.41c.25-.27.45-.61.6-1.03l.3-.81h.36l-.36,1.04c-.25.72-.64,1.28-1.15,1.68s-1.13.59-1.85.59-1.23-.18-1.57-.54-.51-.86-.51-1.48c0-.32.07-.72.19-1.21l1.85-6.41h-1.71l.1-.38h1.73l.79-2.77c1.31,0,2.45-.1,3.42-.27l-.88,3.03h1.88l-.06.38h-1.94l-2.27,7.79h0Z" fill="#131f2b"/>
    <path d="M68.72,46.79c-1.17.78-2.57,1.36-4.19,1.74-.04.34-.06.66-.06.96,0,.69.13,1.17.4,1.43s.66.4,1.17.4c.31,0,.71-.1,1.21-.32.49-.21.97-.54,1.42-1l.3.15c-.48.71-1.12,1.31-1.94,1.8s-1.76.72-2.83.72c-.93,0-1.7-.23-2.32-.69-.62-.47-.93-1.11-.93-1.96,0-1.23.31-2.44.95-3.62s1.5-2.15,2.6-2.89c1.09-.74,2.31-1.12,3.64-1.12.7,0,1.27.14,1.69.42.43.29.64.69.64,1.24,0,1.06-.59,1.97-1.76,2.76h0ZM66.55,43.55c-.43.54-.83,1.24-1.2,2.08-.36.86-.62,1.7-.77,2.56.67-.39,1.24-.82,1.73-1.27.52-.51.94-1.08,1.25-1.71s.46-1.29.46-2c0-.31-.1-.47-.3-.47-.35,0-.74.27-1.18.81,0,0,.02,0,.02,0Z" fill="#131f2b"/>
    <path d="M79.78,42.89c.32.34.49.78.49,1.3,0,.64-.2,1.19-.6,1.66s-.91.69-1.52.69c-.47,0-.82-.12-1.06-.36s-.36-.59-.36-1.06c0-.55.2-1.06.6-1.5s.88-.72,1.45-.83c-.15-.04-.24-.06-.27-.06-.4,0-.76.09-1.09.25-.32.16-.68.56-1.08,1.21-.4.64-.81,1.62-1.25,2.93l-1.37,5.27h-3.33l2.29-8.16c.05-.19.08-.35.08-.49,0-.2-.09-.3-.25-.3-.2,0-.38.09-.54.27-.16.17-.32.49-.49.92l-.43,1.15h-.36l.52-1.47c.47-1.29,1.4-1.94,2.81-1.94.6,0,1.04.16,1.31.49s.42.74.42,1.26c0,.17,0,.3-.02.4.36-.79.75-1.34,1.18-1.66.42-.32.93-.48,1.53-.48.56,0,1.01.17,1.33.51h0Z" fill="#131f2b"/>
    <path d="M100.02,39.4c.41.38.61.87.61,1.44s-.2,1.07-.6,1.43-.9.54-1.5.54c-.51,0-.92-.12-1.23-.37s-.45-.59-.45-1.03c0-.55.18-1.02.55-1.4s.84-.63,1.4-.72c-.1-.1-.26-.15-.47-.15s-.4.04-.58.1c-.19.07-.4.18-.62.35-.32.24-.71.68-1.17,1.34-.45.66-.9,1.5-1.36,2.52s-.86,2.15-1.2,3.4l-.9,3.56c-.07.21-.1.44-.1.68,0,.36.12.61.37.72.25.12.65.19,1.22.22l-.1.38c-.79-.04-2.07-.06-3.83-.06-1.53,0-2.66.02-3.41.06l.1-.38c.45-.03.79-.08,1.02-.15s.41-.22.54-.44.27-.56.38-1.03l.98-3.85c-.19-1.66-.47-3.09-.84-4.3s-.81-1.82-1.3-1.82c-.36,0-.65.29-.85.88l-.32.96h-.42l.4-1.21c.27-.8.68-1.38,1.25-1.73s1.21-.52,1.94-.52c.93,0,1.65.25,2.15.73s.88,1.19,1.11,2.08c.23.9.44,2.18.63,3.82.39-1.18.82-2.24,1.29-3.18s.97-1.72,1.48-2.33c.66-.75,1.4-1.13,2.24-1.13.66,0,1.18.19,1.59.57v.02h0Z" fill="#131f2b"/>
    <path d="M100.01,46.22c.49-1.09,1.23-2.02,2.21-2.75s2.19-1.1,3.61-1.1c1.09,0,1.92.28,2.49.83.57.55.86,1.34.86,2.37s-.25,2.15-.73,3.24c-.49,1.09-1.23,2.02-2.21,2.75s-2.19,1.1-3.61,1.1c-1.09,0-1.92-.28-2.49-.83-.57-.55-.86-1.34-.86-2.37s.25-2.15.73-3.24h0ZM104.39,44.17c-.54.94-1.01,2.07-1.4,3.42-.4,1.33-.59,2.56-.59,3.66,0,.39.03.67.09.82.06.16.14.24.28.24.34,0,.77-.46,1.3-1.36.53-.91,1-2.03,1.39-3.34.4-1.31.59-2.57.59-3.74,0-.44-.03-.73-.09-.88-.06-.14-.13-.22-.24-.22-.35,0-.8.47-1.33,1.41h0Z" fill="#131f2b"/>
    <path d="M120.19,49.27h.36l-.52,1.47c-.24.67-.6,1.15-1.08,1.47s-1.02.47-1.62.47c-.83,0-1.39-.25-1.67-.73-.15-.27-.23-.56-.23-.9,0-.3.05-.64.15-1l.43-1.64c-.48,1.15-.94,2.04-1.38,2.65-.45.62-.89,1.04-1.35,1.27-.46.23-.98.35-1.57.35s-1-.13-1.3-.4-.46-.66-.46-1.17c0-.38.09-.8.25-1.27l1.83-5.58c.07-.21.1-.36.1-.45,0-.23-.1-.34-.32-.34-.36,0-.69.4-1,1.19l-.4,1.06h-.36l.47-1.37c.45-1.29,1.35-1.94,2.69-1.94.64,0,1.13.15,1.47.44.34.29.51.73.51,1.32,0,.42-.1.9-.29,1.47l-1.62,4.87c-.1.29-.15.53-.15.73s.07.29.19.29c.3,0,.68-.38,1.16-1.14.47-.76.95-1.75,1.46-2.97s.95-2.48,1.33-3.79l.25-.96c1.37-.03,2.5-.11,3.41-.27l-2.37,8.43c-.08.24-.11.42-.11.54,0,.16.1.25.29.25.2,0,.38-.09.54-.27.16-.17.32-.49.49-.92l.44-1.15s0,.02,0,.02Z" fill="#131f2b"/>
    <path d="M130.69,42.89c.32.34.49.78.49,1.3,0,.64-.2,1.19-.6,1.66s-.91.69-1.52.69c-.47,0-.82-.12-1.06-.36s-.36-.59-.36-1.06c0-.55.2-1.06.6-1.5s.88-.72,1.45-.83c-.15-.04-.24-.06-.27-.06-.4,0-.76.09-1.09.25-.32.16-.68.56-1.08,1.21-.4.64-.81,1.62-1.25,2.93l-1.37,5.27h-3.33l2.29-8.16c.05-.19.08-.35.08-.49,0-.2-.09-.3-.25-.3-.2,0-.38.09-.54.27-.16.17-.32.49-.49.92l-.43,1.15h-.36l.52-1.47c.47-1.29,1.4-1.94,2.81-1.94.6,0,1.04.16,1.31.49s.42.74.42,1.26c0,.17,0,.3-.02.4.36-.79.75-1.34,1.18-1.66.42-.32.93-.48,1.53-.48.56,0,1.01.17,1.33.51h0Z" fill="#131f2b"/>
    <path d="M35.02,55.26c-.28.7-.51,1.45-.71,2.22-.2.74-.34,1.31-.43,1.73h-.42c0-.16.02-.38.02-.66,0-1.03-.2-1.76-.6-2.2-.4-.44-.97-.66-1.69-.66h-.06c-.39,0-.68.04-.88.1s-.36.21-.47.42-.23.56-.34,1.04l-1.19,4.44h.52c.56,0,1.08-.19,1.55-.56s.85-.89,1.14-1.54h.41c-.23.7-.44,1.47-.64,2.29-.16.68-.36,1.63-.58,2.86h-.41c0-.87-.15-1.52-.45-1.99s-.72-.68-1.27-.68h-.36l-1.21,4.52c-.09.31-.13.59-.13.83,0,.3.11.5.34.6s.66.16,1.27.19l-.08.38c-.84-.04-2.08-.06-3.74-.06s-2.75.02-3.5.06l.08-.38c.45-.03.79-.08,1.02-.15s.41-.22.53-.44c.13-.21.26-.56.39-1.04l2.48-9.33c.1-.43.15-.72.15-.9,0-.28-.1-.46-.28-.54s-.51-.14-.99-.17l.1-.38c1.45.04,3.62.06,6.53.06,1.81,0,3.1-.02,3.89-.06Z" fill="#131f2b"/>
    <path d="M43.17,65.52h.36l-.47,1.37c-.45,1.29-1.35,1.94-2.69,1.94-.76,0-1.31-.22-1.64-.66-.21-.31-.32-.69-.32-1.15,0-.14,0-.25.02-.32-.3.76-.69,1.31-1.17,1.64s-1.04.49-1.69.49c-.78,0-1.36-.2-1.75-.6s-.58-.99-.58-1.75c0-1.18.31-2.39.95-3.63s1.43-2.27,2.37-3.08c.95-.82,1.86-1.23,2.72-1.23.71,0,1.1.36,1.17,1.08l.25-.79c1.22,0,2.35-.1,3.41-.29l-2.54,8.43c-.05.16-.08.31-.08.45,0,.23.1.34.3.34.36,0,.69-.4,1-1.19l.4-1.06s-.02.02-.02.02ZM37.99,66.96c.27-.4.56-1.12.9-2.16l1.35-4.52c0-.07.02-.15.02-.29,0-.35-.12-.52-.36-.52-.35,0-.78.36-1.28,1.09-.5.72-.94,1.65-1.3,2.75-.36,1.1-.54,2.19-.54,3.25,0,.36.03.62.1.77.07.15.17.23.34.23.27,0,.52-.2.79-.6h0Z" fill="#131f2b"/>
    <path d="M51.46,61.8c-.4-.52-.6-1.08-.6-1.7,0-.48.12-.86.39-1.13.26-.28.62-.42,1.08-.42.95,0,1.43.62,1.43,1.85s-.23,2.54-.69,3.84c-.47,1.31-1.17,2.41-2.1,3.28-.94.88-2.08,1.31-3.42,1.31-1.07,0-1.83-.22-2.29-.67s-.69-1-.69-1.66c0-1.13.48-2.27,1.44-3.44s2.31-2.4,4.05-3.71c-.39,0-.71.1-.98.29s-.54.42-.85.73c-.25.25-.47.44-.64.55s-.37.18-.58.18c-.14,0-.32-.05-.54-.15-.18-.09-.32-.13-.45-.13-.15,0-.28.06-.37.17s-.18.29-.26.54l-.13.4h-.36l.42-1.37c.38-1.35.96-2.04,1.77-2.04.14,0,.28.02.42.07s.27.1.4.16c.2.1.4.18.58.24.19.06.41.09.68.09.44,0,.85-.1,1.23-.29l.19-.36.4.19c-.82,1.31-1.49,2.74-2.03,4.26-.53,1.52-.8,2.75-.8,3.68,0,.44.07.76.2.97.13.21.35.31.67.31.91,0,1.73-.47,2.45-1.41.72-.94,1.25-2.08,1.59-3.42-.64-.29-1.16-.69-1.56-1.22h-.03,0Z" fill="#131f2b"/>
    <path d="M54.92,62.39c.49-1.09,1.23-2.02,2.21-2.75s2.19-1.1,3.61-1.1c1.09,0,1.92.28,2.49.83.57.55.86,1.34.86,2.37s-.25,2.15-.73,3.24-1.23,2.02-2.21,2.75-2.19,1.1-3.61,1.1c-1.09,0-1.92-.28-2.49-.83s-.86-1.34-.86-2.37.25-2.15.73-3.24ZM59.3,60.34c-.54.94-1.01,2.07-1.4,3.42-.4,1.33-.59,2.56-.59,3.66,0,.39.03.67.09.82.06.16.14.24.28.24.34,0,.77-.46,1.3-1.36.53-.91,1-2.03,1.39-3.34s.59-2.57.59-3.74c0-.44-.03-.73-.09-.88s-.13-.22-.24-.22c-.35,0-.8.47-1.33,1.41h0Z" fill="#131f2b"/>
    <path d="M73.99,59.06c.32.34.49.78.49,1.3,0,.64-.2,1.19-.6,1.66s-.91.69-1.52.69c-.47,0-.82-.11-1.06-.36-.24-.24-.36-.59-.36-1.06,0-.55.2-1.06.6-1.5s.88-.72,1.45-.83c-.15-.04-.24-.06-.27-.06-.4,0-.76.09-1.09.25-.32.16-.68.56-1.08,1.21-.4.64-.81,1.62-1.25,2.93l-1.37,5.27h-3.33l2.29-8.16c.05-.19.08-.35.08-.49,0-.2-.09-.3-.25-.3-.2,0-.38.09-.54.27-.16.17-.32.49-.49.92l-.43,1.15h-.36l.52-1.47c.47-1.29,1.4-1.94,2.81-1.94.6,0,1.04.16,1.31.49s.42.74.42,1.27c0,.17,0,.3-.02.39.36-.79.75-1.34,1.18-1.66.42-.32.93-.48,1.53-.48.56,0,1.01.17,1.33.51h0Z" fill="#131f2b"/>
    <path d="M76.42,59.94c0-.21-.09-.32-.27-.32-.2,0-.38.09-.54.27-.16.17-.32.49-.49.92l-.43,1.15h-.36l.52-1.47c.47-1.29,1.4-1.94,2.81-1.94.68,0,1.17.16,1.48.49.31.32.47.74.47,1.24,0,.28-.05.58-.15.9l-1.96,5.79c-.07.21-.1.36-.1.45,0,.23.1.34.32.34.36,0,.69-.4,1-1.19l.4-1.06h.36l-.47,1.37c-.45,1.29-1.35,1.94-2.69,1.94-.64,0-1.13-.15-1.48-.45-.35-.3-.52-.74-.52-1.33,0-.4.1-.88.29-1.45l1.73-5.19c.07-.16.1-.32.1-.47h-.02ZM77.75,54.37c.42-.34.97-.5,1.66-.5.55,0,.97.1,1.25.32.29.21.42.53.42.96,0,.58-.22,1.05-.66,1.41s-.99.54-1.66.54c-.54,0-.95-.1-1.24-.32-.29-.21-.42-.52-.42-.92,0-.66.21-1.15.63-1.48,0,0,0,0,0,0Z" fill="#131f2b"/>
    <path d="M83.88,66.98c-.04.12-.06.25-.06.36,0,.29.13.43.4.43s.5-.13.75-.4.45-.61.6-1.03l.3-.81h.36l-.36,1.04c-.25.72-.64,1.28-1.15,1.68s-1.13.59-1.85.59-1.23-.18-1.57-.54-.51-.86-.51-1.48c0-.32.07-.72.19-1.21l1.85-6.41h-1.71l.1-.38h1.73l.79-2.77c1.31,0,2.45-.1,3.42-.27l-.88,3.03h1.88l-.06.38h-1.94l-2.27,7.79h0Z" fill="#131f2b"/>
    <path d="M94.83,62.97c-1.17.78-2.57,1.36-4.19,1.74-.04.34-.06.66-.06.96,0,.68.13,1.17.4,1.43.27.27.66.4,1.17.4.31,0,.71-.1,1.21-.32.49-.21.97-.54,1.42-1l.3.15c-.48.71-1.12,1.31-1.94,1.8s-1.76.72-2.83.72c-.93,0-1.7-.23-2.32-.69-.62-.47-.93-1.11-.93-1.96,0-1.23.31-2.44.95-3.62s1.5-2.15,2.6-2.89,2.31-1.12,3.64-1.12c.7,0,1.27.14,1.69.42.43.29.64.69.64,1.24,0,1.06-.59,1.97-1.76,2.76h0ZM92.67,59.72c-.43.54-.83,1.24-1.2,2.08-.36.86-.62,1.7-.77,2.56.67-.39,1.24-.82,1.73-1.27.52-.51.94-1.08,1.25-1.71s.46-1.29.46-2c0-.31-.1-.47-.3-.47-.35,0-.74.27-1.18.81,0,0,.02,0,.02,0Z" fill="#131f2b"/>
    <path d="M112.39,58.96h-.38c.08-.36.11-.7.11-1.04,0-.76-.24-1.36-.71-1.79s-1.14-.64-2-.64c-.59,0-1.08.15-1.46.44-.38.29-.57.75-.57,1.38,0,.55.16,1.08.48,1.59.32.5.81,1.15,1.47,1.93.49.56.88,1.05,1.18,1.44.29.4.54.83.75,1.29s.31.95.31,1.46c0,.86-.29,1.56-.88,2.13s-1.29.99-2.14,1.26-1.66.4-2.45.4c-.91,0-1.61-.07-2.07-.19s-.99-.35-1.57-.68c-.32-.19-.54-.29-.64-.29-.16,0-.29.07-.4.2s-.24.4-.41.82h-.38c.2-.48.4-1.05.59-1.72s.42-1.6.68-2.8h.38c-.11.31-.17.74-.17,1.29,0,.96.27,1.69.8,2.18s1.28.73,2.26.73c.82,0,1.39-.15,1.71-.46s.49-.73.49-1.27c0-.71-.16-1.37-.48-1.96-.32-.59-.8-1.27-1.44-2.06-.62-.76-1.08-1.43-1.39-2-.31-.56-.47-1.18-.47-1.85,0-.83.26-1.53.76-2.1.5-.58,1.14-1.01,1.9-1.28.76-.28,1.52-.42,2.28-.42.54,0,1.02.05,1.45.15s.73.19.93.28c.19.09.51.23.95.44.07.03.16.08.31.15.14.08.25.11.31.11.1,0,.2-.08.29-.24.1-.15.2-.41.33-.76h.38c-.48,1.21-.85,2.48-1.11,3.83l-.03.03h0Z" fill="#131f2b"/>
    <path d="M116.37,66.98c-.04.12-.06.25-.06.36,0,.29.13.43.4.43s.5-.13.75-.4.45-.61.6-1.03l.3-.81h.36l-.36,1.04c-.25.72-.64,1.28-1.15,1.68s-1.13.59-1.85.59-1.23-.18-1.57-.54-.51-.86-.51-1.48c0-.32.07-.72.19-1.21l1.85-6.41h-1.71l.1-.38h1.73l.79-2.77c1.31,0,2.45-.1,3.42-.27l-.88,3.03h1.88l-.06.38h-1.94l-2.27,7.79s0,0,0,0Z" fill="#131f2b"/>
    <path d="M128.54,60.38c0,1.09-.36,2.42-1.08,3.96-.72,1.55-1.6,2.94-2.63,4.17-.79.94-1.62,1.7-2.47,2.28s-1.71.97-2.57,1.18c-.43.1-.8.15-1.11.15-.5,0-.88-.11-1.16-.33-.27-.22-.41-.52-.41-.91s.14-.7.42-.97.64-.4,1.09-.4c.9,0,1.67.55,2.31,1.66.82-.36,1.54-.84,2.18-1.41l-1.52-9.31c-.07-.32-.11-.54-.16-.65s-.12-.16-.24-.16c-.12,0-.24.08-.33.23s-.24.47-.42.96l-.4,1.06h-.36l.47-1.37c.25-.71.57-1.22.97-1.5s.88-.43,1.46-.43c.63,0,1.12.16,1.48.49s.61.91.73,1.74l.81,6.02c.83-1.21,1.48-2.49,1.98-3.87-.59-.32-1.07-.74-1.42-1.24-.36-.5-.53-1.04-.53-1.6,0-.48.13-.86.39-1.13s.62-.42,1.08-.42c.95,0,1.43.61,1.43,1.83l.02-.02h0Z" fill="#131f2b"/>
    <path d="M131.82,67.33c0,.15.04.26.1.33.07.07.15.1.26.1.12,0,.28-.08.44-.24.17-.15.34-.48.51-.95l.4-1.06h.36l-.47,1.37c-.25.72-.62,1.23-1.11,1.51s-1.01.42-1.56.42c-.63,0-1.11-.16-1.47-.49s-.52-.8-.52-1.41c0-.39.08-.84.23-1.33l2.88-9.57c.07-.23.1-.4.1-.52,0-.25-.1-.43-.29-.54-.19-.11-.52-.17-.99-.17l.13-.4c.99,0,1.88-.09,2.69-.21.8-.12,1.59-.31,2.35-.56l-3.97,13.36c-.04.12-.06.25-.06.36h-.02Z" fill="#131f2b"/>
    <path d="M142.34,62.97c-1.17.78-2.57,1.36-4.19,1.74-.04.34-.06.66-.06.96,0,.68.13,1.17.4,1.43.27.27.66.4,1.17.4.31,0,.71-.1,1.21-.32.49-.21.97-.54,1.42-1l.3.15c-.48.71-1.12,1.31-1.94,1.8s-1.76.72-2.83.72c-.93,0-1.7-.23-2.32-.69-.62-.47-.93-1.11-.93-1.96,0-1.23.31-2.44.95-3.62s1.5-2.15,2.6-2.89,2.31-1.12,3.64-1.12c.7,0,1.27.14,1.69.42.43.29.64.69.64,1.24,0,1.06-.59,1.97-1.76,2.76h0ZM140.18,59.72c-.43.54-.83,1.24-1.2,2.08-.36.86-.62,1.7-.77,2.56.67-.39,1.24-.82,1.73-1.27.52-.51.94-1.08,1.25-1.71.3-.63.46-1.29.46-2,0-.31-.1-.47-.3-.47-.35,0-.74.27-1.18.81,0,0,.02,0,.02,0Z" fill="#131f2b"/>
  </g>
  <g>
    <path d="M42.52,38.09c-.31.83-.55,1.57-.71,2.22-.08.28-.16.67-.25,1.17h-.42c0-1.08-.17-1.84-.54-2.28-.38-.45-.95-.67-1.73-.67h-.06c-.44,0-.77.04-.99.1s-.39.21-.51.42-.25.56-.38,1.04l-1.19,4.44h.34c.59,0,1.13-.21,1.62-.62.49-.42.85-.91,1.08-1.48h.42c-.2.62-.37,1.21-.5,1.79l-.13.5c-.09.34-.17.68-.25,1.02s-.16.76-.25,1.27h-.42c0-.54-.14-1.03-.43-1.46-.29-.43-.75-.65-1.39-.65h-.17l-1.21,4.52c-.11.48-.17.78-.17.92,0,.27.1.44.28.51.18.09.5.12.97.12h.25c.9,0,1.66-.25,2.28-.74s1.23-1.36,1.84-2.59h.42c-.1.28-.23.72-.4,1.35-.21.74-.38,1.54-.49,2.41-.86-.04-2.27-.06-4.25-.06-2.91,0-5.09.02-6.55.06l.08-.38c.45-.03.79-.08,1.02-.15s.41-.22.53-.43.26-.56.39-1.04l2.48-9.33c.1-.43.15-.72.15-.9,0-.28-.1-.46-.28-.54s-.51-.14-.99-.17l.1-.38c1.45.04,3.62.06,6.53.06,1.81,0,3.1-.02,3.89-.06h0Z" fill="#ded9c3"/>
    <path d="M52.02,48.35h.36l-.47,1.37c-.45,1.29-1.35,1.94-2.69,1.94-.8,0-1.37-.23-1.69-.68-.21-.29-.32-.64-.32-1.06s.1-.9.3-1.5l1.62-4.87c.1-.29.15-.53.15-.73s-.07-.29-.19-.29c-.32,0-.74.44-1.26,1.31-.51.88-1.04,2-1.57,3.37-.53,1.37-.98,2.74-1.34,4.12v-.04l-.02.1h-3.33l2.29-8.16c.08-.25.11-.43.11-.54,0-.16-.1-.25-.29-.25-.2,0-.38.09-.54.27-.16.17-.32.49-.49.92l-.43,1.15h-.36l.52-1.47c.24-.67.56-1.15.98-1.47s.95-.47,1.6-.47c.7,0,1.21.16,1.51.49s.46.75.46,1.27c0,.29-.04.58-.11.87l-.5,1.96c.49-1.23.95-2.17,1.4-2.84.45-.66.9-1.11,1.36-1.37.47-.26.99-.39,1.58-.39,1.23,0,1.85.52,1.85,1.56,0,.34-.09.76-.25,1.27l-1.86,5.58c-.07.21-.1.36-.1.45,0,.23.1.34.32.34.36,0,.69-.4,1-1.19l.4-1.06h0Z" fill="#ded9c3"/>
    <path d="M56.78,49.81c-.04.12-.06.25-.06.36,0,.29.13.44.4.44s.5-.13.75-.41c.25-.27.45-.61.6-1.03l.3-.81h.36l-.36,1.04c-.25.72-.64,1.28-1.15,1.68s-1.13.59-1.85.59-1.23-.18-1.57-.54-.51-.86-.51-1.48c0-.32.07-.72.19-1.21l1.85-6.41h-1.71l.1-.38h1.73l.79-2.77c1.31,0,2.45-.1,3.42-.27l-.88,3.03h1.88l-.06.38h-1.94l-2.27,7.79h0Z" fill="#ded9c3"/>
    <path d="M67.72,45.79c-1.17.78-2.57,1.36-4.19,1.74-.04.34-.06.66-.06.96,0,.69.13,1.17.4,1.43s.66.4,1.17.4c.31,0,.71-.1,1.21-.32.49-.21.97-.54,1.42-1l.3.15c-.48.71-1.12,1.31-1.94,1.8s-1.76.72-2.83.72c-.93,0-1.7-.23-2.32-.69-.62-.47-.93-1.11-.93-1.96,0-1.23.31-2.44.95-3.62s1.5-2.15,2.6-2.89c1.09-.74,2.31-1.12,3.64-1.12.7,0,1.27.14,1.69.42.43.29.64.69.64,1.24,0,1.06-.59,1.97-1.76,2.76h0ZM65.55,42.55c-.43.54-.83,1.24-1.2,2.08-.36.86-.62,1.7-.77,2.56.67-.39,1.24-.82,1.73-1.27.52-.51.94-1.08,1.25-1.71s.46-1.29.46-2c0-.31-.1-.47-.3-.47-.35,0-.74.27-1.18.81,0,0,.02,0,.02,0Z" fill="#ded9c3"/>
    <path d="M78.78,41.89c.32.34.49.78.49,1.3,0,.64-.2,1.19-.6,1.66s-.91.69-1.52.69c-.47,0-.82-.12-1.06-.36s-.36-.59-.36-1.06c0-.55.2-1.06.6-1.5s.88-.72,1.45-.83c-.15-.04-.24-.06-.27-.06-.4,0-.76.09-1.09.25-.32.16-.68.56-1.08,1.21-.4.64-.81,1.62-1.25,2.93l-1.37,5.27h-3.33l2.29-8.16c.05-.19.08-.35.08-.49,0-.2-.09-.3-.25-.3-.2,0-.38.09-.54.27-.16.17-.32.49-.49.92l-.43,1.15h-.36l.52-1.47c.47-1.29,1.4-1.94,2.81-1.94.6,0,1.04.16,1.31.49s.42.74.42,1.26c0,.17,0,.3-.02.4.36-.79.75-1.34,1.18-1.66.42-.32.93-.48,1.53-.48.56,0,1.01.17,1.33.51h0Z" fill="#ded9c3"/>
    <path d="M99.02,38.4c.41.38.61.87.61,1.44s-.2,1.07-.6,1.43-.9.54-1.5.54c-.51,0-.92-.12-1.23-.37s-.45-.59-.45-1.03c0-.55.18-1.02.55-1.4s.84-.63,1.4-.72c-.1-.1-.26-.15-.47-.15s-.4.04-.58.1c-.19.07-.4.18-.62.35-.32.24-.71.68-1.17,1.34-.45.66-.9,1.5-1.36,2.52s-.86,2.15-1.2,3.4l-.9,3.56c-.07.21-.1.44-.1.68,0,.36.12.61.37.72.25.12.65.19,1.22.22l-.1.38c-.79-.04-2.07-.06-3.83-.06-1.53,0-2.66.02-3.41.06l.1-.38c.45-.03.79-.08,1.02-.15s.41-.22.54-.44.27-.56.38-1.03l.98-3.85c-.19-1.66-.47-3.09-.84-4.3s-.81-1.82-1.3-1.82c-.36,0-.65.29-.85.88l-.32.96h-.42l.4-1.21c.27-.8.68-1.38,1.25-1.73s1.21-.52,1.94-.52c.93,0,1.65.25,2.15.73s.88,1.19,1.11,2.08c.23.9.44,2.18.63,3.82.39-1.18.82-2.24,1.29-3.18s.97-1.72,1.48-2.33c.66-.75,1.4-1.13,2.24-1.13.66,0,1.18.19,1.59.57v.02h0Z" fill="#ded9c3"/>
    <path d="M99.01,45.22c.49-1.09,1.23-2.02,2.21-2.75s2.19-1.1,3.61-1.1c1.09,0,1.92.28,2.49.83.57.55.86,1.34.86,2.37s-.25,2.15-.73,3.24c-.49,1.09-1.23,2.02-2.21,2.75s-2.19,1.1-3.61,1.1c-1.09,0-1.92-.28-2.49-.83-.57-.55-.86-1.34-.86-2.37s.25-2.15.73-3.24h0ZM103.39,43.17c-.54.94-1.01,2.07-1.4,3.42-.4,1.33-.59,2.56-.59,3.66,0,.39.03.67.09.82.06.16.14.24.28.24.34,0,.77-.46,1.3-1.36.53-.91,1-2.03,1.39-3.34.4-1.31.59-2.57.59-3.74,0-.44-.03-.73-.09-.88-.06-.14-.13-.22-.24-.22-.35,0-.8.47-1.33,1.41h0Z" fill="#ded9c3"/>
    <path d="M119.19,48.27h.36l-.52,1.47c-.24.67-.6,1.15-1.08,1.47s-1.02.47-1.62.47c-.83,0-1.39-.25-1.67-.73-.15-.27-.23-.56-.23-.9,0-.3.05-.64.15-1l.43-1.64c-.48,1.15-.94,2.04-1.38,2.65-.45.62-.89,1.04-1.35,1.27-.46.23-.98.35-1.57.35s-1-.13-1.3-.4-.46-.66-.46-1.17c0-.38.09-.8.25-1.27l1.83-5.58c.07-.21.1-.36.1-.45,0-.23-.1-.34-.32-.34-.36,0-.69.4-1,1.19l-.4,1.06h-.36l.47-1.37c.45-1.29,1.35-1.94,2.69-1.94.64,0,1.13.15,1.47.44.34.29.51.73.51,1.32,0,.42-.1.9-.29,1.47l-1.62,4.87c-.1.29-.15.53-.15.73s.07.29.19.29c.3,0,.68-.38,1.16-1.14.47-.76.95-1.75,1.46-2.97s.95-2.48,1.33-3.79l.25-.96c1.37-.03,2.5-.11,3.41-.27l-2.37,8.43c-.08.24-.11.42-.11.54,0,.16.1.25.29.25.2,0,.38-.09.54-.27.16-.17.32-.49.49-.92l.44-1.15s0,.02,0,.02Z" fill="#ded9c3"/>
    <path d="M129.69,41.89c.32.34.49.78.49,1.3,0,.64-.2,1.19-.6,1.66s-.91.69-1.52.69c-.47,0-.82-.12-1.06-.36s-.36-.59-.36-1.06c0-.55.2-1.06.6-1.5s.88-.72,1.45-.83c-.15-.04-.24-.06-.27-.06-.4,0-.76.09-1.09.25-.32.16-.68.56-1.08,1.21-.4.64-.81,1.62-1.25,2.93l-1.37,5.27h-3.33l2.29-8.16c.05-.19.08-.35.08-.49,0-.2-.09-.3-.25-.3-.2,0-.38.09-.54.27-.16.17-.32.49-.49.92l-.43,1.15h-.36l.52-1.47c.47-1.29,1.4-1.94,2.81-1.94.6,0,1.04.16,1.31.49s.42.74.42,1.26c0,.17,0,.3-.02.4.36-.79.75-1.34,1.18-1.66.42-.32.93-.48,1.53-.48.56,0,1.01.17,1.33.51h0Z" fill="#ded9c3"/>
    <path d="M34.02,54.26c-.28.7-.51,1.45-.71,2.22-.2.74-.34,1.31-.43,1.73h-.42c0-.16.02-.38.02-.66,0-1.03-.2-1.76-.6-2.2-.4-.44-.97-.66-1.69-.66h-.06c-.39,0-.68.04-.88.1s-.36.21-.47.42-.23.56-.34,1.04l-1.19,4.44h.52c.56,0,1.08-.19,1.55-.56s.85-.89,1.14-1.54h.41c-.23.7-.44,1.47-.64,2.29-.16.68-.36,1.63-.58,2.86h-.41c0-.87-.15-1.52-.45-1.99s-.72-.68-1.27-.68h-.36l-1.21,4.52c-.09.31-.13.59-.13.83,0,.3.11.5.34.6s.66.16,1.27.19l-.08.38c-.84-.04-2.08-.06-3.74-.06s-2.75.02-3.5.06l.08-.38c.45-.03.79-.08,1.02-.15s.41-.22.53-.44c.13-.21.26-.56.39-1.04l2.48-9.33c.1-.43.15-.72.15-.9,0-.28-.1-.46-.28-.54s-.51-.14-.99-.17l.1-.38c1.45.04,3.62.06,6.53.06,1.81,0,3.1-.02,3.89-.06Z" fill="#ded9c3"/>
    <path d="M42.17,64.52h.36l-.47,1.37c-.45,1.29-1.35,1.94-2.69,1.94-.76,0-1.31-.22-1.64-.66-.21-.31-.32-.69-.32-1.15,0-.14,0-.25.02-.32-.3.76-.69,1.31-1.17,1.64s-1.04.49-1.69.49c-.78,0-1.36-.2-1.75-.6s-.58-.99-.58-1.75c0-1.18.31-2.39.95-3.63s1.43-2.27,2.37-3.08c.95-.82,1.86-1.23,2.72-1.23.71,0,1.1.36,1.17,1.08l.25-.79c1.22,0,2.35-.1,3.41-.29l-2.54,8.43c-.05.16-.08.31-.08.45,0,.23.1.34.3.34.36,0,.69-.4,1-1.19l.4-1.06s-.02.02-.02.02ZM36.99,65.96c.27-.4.56-1.12.9-2.16l1.35-4.52c0-.07.02-.15.02-.29,0-.35-.12-.52-.36-.52-.35,0-.78.36-1.28,1.09-.5.72-.94,1.65-1.3,2.75-.36,1.1-.54,2.19-.54,3.25,0,.36.03.62.1.77.07.15.17.23.34.23.27,0,.52-.2.79-.6h0Z" fill="#ded9c3"/>
    <path d="M50.46,60.8c-.4-.52-.6-1.08-.6-1.7,0-.48.12-.86.39-1.13.26-.28.62-.42,1.08-.42.95,0,1.43.62,1.43,1.85s-.23,2.54-.69,3.84c-.47,1.31-1.17,2.41-2.1,3.28-.94.88-2.08,1.31-3.42,1.31-1.07,0-1.83-.22-2.29-.67s-.69-1-.69-1.66c0-1.13.48-2.27,1.44-3.44s2.31-2.4,4.05-3.71c-.39,0-.71.1-.98.29s-.54.42-.85.73c-.25.25-.47.44-.64.55s-.37.18-.58.18c-.14,0-.32-.05-.54-.15-.18-.09-.32-.13-.45-.13-.15,0-.28.06-.37.17s-.18.29-.26.54l-.13.4h-.36l.42-1.37c.38-1.35.96-2.04,1.77-2.04.14,0,.28.02.42.07s.27.1.4.16c.2.1.4.18.58.24.19.06.41.09.68.09.44,0,.85-.1,1.23-.29l.19-.36.4.19c-.82,1.31-1.49,2.74-2.03,4.26-.53,1.52-.8,2.75-.8,3.68,0,.44.07.76.2.97.13.21.35.31.67.31.91,0,1.73-.47,2.45-1.41.72-.94,1.25-2.08,1.59-3.42-.64-.29-1.16-.69-1.56-1.22h-.03,0Z" fill="#ded9c3"/>
    <path d="M53.92,61.39c.49-1.09,1.23-2.02,2.21-2.75s2.19-1.1,3.61-1.1c1.09,0,1.92.28,2.49.83.57.55.86,1.34.86,2.37s-.25,2.15-.73,3.24-1.23,2.02-2.21,2.75-2.19,1.1-3.61,1.1c-1.09,0-1.92-.28-2.49-.83s-.86-1.34-.86-2.37.25-2.15.73-3.24ZM58.3,59.34c-.54.94-1.01,2.07-1.4,3.42-.4,1.33-.59,2.56-.59,3.66,0,.39.03.67.09.82.06.16.14.24.28.24.34,0,.77-.46,1.3-1.36.53-.91,1-2.03,1.39-3.34s.59-2.57.59-3.74c0-.44-.03-.73-.09-.88s-.13-.22-.24-.22c-.35,0-.8.47-1.33,1.41h0Z" fill="#ded9c3"/>
    <path d="M72.99,58.06c.32.34.49.78.49,1.3,0,.64-.2,1.19-.6,1.66s-.91.69-1.52.69c-.47,0-.82-.11-1.06-.36-.24-.24-.36-.59-.36-1.06,0-.55.2-1.06.6-1.5s.88-.72,1.45-.83c-.15-.04-.24-.06-.27-.06-.4,0-.76.09-1.09.25-.32.16-.68.56-1.08,1.21-.4.64-.81,1.62-1.25,2.93l-1.37,5.27h-3.33l2.29-8.16c.05-.19.08-.35.08-.49,0-.2-.09-.3-.25-.3-.2,0-.38.09-.54.27-.16.17-.32.49-.49.92l-.43,1.15h-.36l.52-1.47c.47-1.29,1.4-1.94,2.81-1.94.6,0,1.04.16,1.31.49s.42.74.42,1.27c0,.17,0,.3-.02.39.36-.79.75-1.34,1.18-1.66.42-.32.93-.48,1.53-.48.56,0,1.01.17,1.33.51h0Z" fill="#ded9c3"/>
    <path d="M75.42,58.94c0-.21-.09-.32-.27-.32-.2,0-.38.09-.54.27-.16.17-.32.49-.49.92l-.43,1.15h-.36l.52-1.47c.47-1.29,1.4-1.94,2.81-1.94.68,0,1.17.16,1.48.49.31.32.47.74.47,1.24,0,.28-.05.58-.15.9l-1.96,5.79c-.07.21-.1.36-.1.45,0,.23.1.34.32.34.36,0,.69-.4,1-1.19l.4-1.06h.36l-.47,1.37c-.45,1.29-1.35,1.94-2.69,1.94-.64,0-1.13-.15-1.48-.45-.35-.3-.52-.74-.52-1.33,0-.4.1-.88.29-1.45l1.73-5.19c.07-.16.1-.32.1-.47h-.02ZM76.75,53.37c.42-.34.97-.5,1.66-.5.55,0,.97.1,1.25.32.29.21.42.53.42.96,0,.58-.22,1.05-.66,1.41s-.99.54-1.66.54c-.54,0-.95-.1-1.24-.32-.29-.21-.42-.52-.42-.92,0-.66.21-1.15.63-1.48,0,0,0,0,0,0Z" fill="#ded9c3"/>
    <path d="M82.88,65.98c-.04.12-.06.25-.06.36,0,.29.13.43.4.43s.5-.13.75-.4.45-.61.6-1.03l.3-.81h.36l-.36,1.04c-.25.72-.64,1.28-1.15,1.68s-1.13.59-1.85.59-1.23-.18-1.57-.54-.51-.86-.51-1.48c0-.32.07-.72.19-1.21l1.85-6.41h-1.71l.1-.38h1.73l.79-2.77c1.31,0,2.45-.1,3.42-.27l-.88,3.03h1.88l-.06.38h-1.94l-2.27,7.79h0Z" fill="#ded9c3"/>
    <path d="M93.83,61.97c-1.17.78-2.57,1.36-4.19,1.74-.04.34-.06.66-.06.96,0,.68.13,1.17.4,1.43.27.27.66.4,1.17.4.31,0,.71-.1,1.21-.32.49-.21.97-.54,1.42-1l.3.15c-.48.71-1.12,1.31-1.94,1.8s-1.76.72-2.83.72c-.93,0-1.7-.23-2.32-.69-.62-.47-.93-1.11-.93-1.96,0-1.23.31-2.44.95-3.62s1.5-2.15,2.6-2.89,2.31-1.12,3.64-1.12c.7,0,1.27.14,1.69.42.43.29.64.69.64,1.24,0,1.06-.59,1.97-1.76,2.76h0ZM91.67,58.72c-.43.54-.83,1.24-1.2,2.08-.36.86-.62,1.7-.77,2.56.67-.39,1.24-.82,1.73-1.27.52-.51.94-1.08,1.25-1.71s.46-1.29.46-2c0-.31-.1-.47-.3-.47-.35,0-.74.27-1.18.81,0,0,.02,0,.02,0Z" fill="#ded9c3"/>
    <path d="M111.39,57.96h-.38c.08-.36.11-.7.11-1.04,0-.76-.24-1.36-.71-1.79s-1.14-.64-2-.64c-.59,0-1.08.15-1.46.44-.38.29-.57.75-.57,1.38,0,.55.16,1.08.48,1.59.32.5.81,1.15,1.47,1.93.49.56.88,1.05,1.18,1.44.29.4.54.83.75,1.29s.31.95.31,1.46c0,.86-.29,1.56-.88,2.13s-1.29.99-2.14,1.26-1.66.4-2.45.4c-.91,0-1.61-.07-2.07-.19s-.99-.35-1.57-.68c-.32-.19-.54-.29-.64-.29-.16,0-.29.07-.4.2s-.24.4-.41.82h-.38c.2-.48.4-1.05.59-1.72s.42-1.6.68-2.8h.38c-.11.31-.17.74-.17,1.29,0,.96.27,1.69.8,2.18s1.28.73,2.26.73c.82,0,1.39-.15,1.71-.46s.49-.73.49-1.27c0-.71-.16-1.37-.48-1.96-.32-.59-.8-1.27-1.44-2.06-.62-.76-1.08-1.43-1.39-2-.31-.56-.47-1.18-.47-1.85,0-.83.26-1.53.76-2.1.5-.58,1.14-1.01,1.9-1.28.76-.28,1.52-.42,2.28-.42.54,0,1.02.05,1.45.15s.73.19.93.28c.19.09.51.23.95.44.07.03.16.08.31.15.14.08.25.11.31.11.1,0,.2-.08.29-.24.1-.15.2-.41.33-.76h.38c-.48,1.21-.85,2.48-1.11,3.83l-.03.03h0Z" fill="#ded9c3"/>
    <path d="M115.37,65.98c-.04.12-.06.25-.06.36,0,.29.13.43.4.43s.5-.13.75-.4.45-.61.6-1.03l.3-.81h.36l-.36,1.04c-.25.72-.64,1.28-1.15,1.68s-1.13.59-1.85.59-1.23-.18-1.57-.54-.51-.86-.51-1.48c0-.32.07-.72.19-1.21l1.85-6.41h-1.71l.1-.38h1.73l.79-2.77c1.31,0,2.45-.1,3.42-.27l-.88,3.03h1.88l-.06.38h-1.94l-2.27,7.79s0,0,0,0Z" fill="#ded9c3"/>
    <path d="M127.54,59.38c0,1.09-.36,2.42-1.08,3.96-.72,1.55-1.6,2.94-2.63,4.17-.79.94-1.62,1.7-2.47,2.28s-1.71.97-2.57,1.18c-.43.1-.8.15-1.11.15-.5,0-.88-.11-1.16-.33-.27-.22-.41-.52-.41-.91s.14-.7.42-.97.64-.4,1.09-.4c.9,0,1.67.55,2.31,1.66.82-.36,1.54-.84,2.18-1.41l-1.52-9.31c-.07-.32-.11-.54-.16-.65s-.12-.16-.24-.16c-.12,0-.24.08-.33.23s-.24.47-.42.96l-.4,1.06h-.36l.47-1.37c.25-.71.57-1.22.97-1.5s.88-.43,1.46-.43c.63,0,1.12.16,1.48.49s.61.91.73,1.74l.81,6.02c.83-1.21,1.48-2.49,1.98-3.87-.59-.32-1.07-.74-1.42-1.24-.36-.5-.53-1.04-.53-1.6,0-.48.13-.86.39-1.13s.62-.42,1.08-.42c.95,0,1.43.61,1.43,1.83l.02-.02h0Z" fill="#ded9c3"/>
    <path d="M130.82,66.33c0,.15.04.26.1.33.07.07.15.1.26.1.12,0,.28-.08.44-.24.17-.15.34-.48.51-.95l.4-1.06h.36l-.47,1.37c-.25.72-.62,1.23-1.11,1.51s-1.01.42-1.56.42c-.63,0-1.11-.16-1.47-.49s-.52-.8-.52-1.41c0-.39.08-.84.23-1.33l2.88-9.57c.07-.23.1-.4.1-.52,0-.25-.1-.43-.29-.54-.19-.11-.52-.17-.99-.17l.13-.4c.99,0,1.88-.09,2.69-.21.8-.12,1.59-.31,2.35-.56l-3.97,13.36c-.04.12-.06.25-.06.36h-.02Z" fill="#ded9c3"/>
    <path d="M141.34,61.97c-1.17.78-2.57,1.36-4.19,1.74-.04.34-.06.66-.06.96,0,.68.13,1.17.4,1.43.27.27.66.4,1.17.4.31,0,.71-.1,1.21-.32.49-.21.97-.54,1.42-1l.3.15c-.48.71-1.12,1.31-1.94,1.8s-1.76.72-2.83.72c-.93,0-1.7-.23-2.32-.69-.62-.47-.93-1.11-.93-1.96,0-1.23.31-2.44.95-3.62s1.5-2.15,2.6-2.89,2.31-1.12,3.64-1.12c.7,0,1.27.14,1.69.42.43.29.64.69.64,1.24,0,1.06-.59,1.97-1.76,2.76h0ZM139.18,58.72c-.43.54-.83,1.24-1.2,2.08-.36.86-.62,1.7-.77,2.56.67-.39,1.24-.82,1.73-1.27.52-.51.94-1.08,1.25-1.71.3-.63.46-1.29.46-2,0-.31-.1-.47-.3-.47-.35,0-.74.27-1.18.81,0,0,.02,0,.02,0Z" fill="#ded9c3"/>
  </g>
</svg>