<?xml version="1.0" encoding="UTF-8"?>
<svg id="_レイヤー_1" xmlns="http://www.w3.org/2000/svg" width="80.05" height="51.26" version="1.1" viewBox="0 0 80.05 51.26">
  <!-- Generator: Adobe Illustrator 29.4.0, SVG Export Plug-In . SVG Version: 2.1.0 Build 152)  -->
  <path d="M78.78,14.05s-.1-.07-.17-.07c-1.27,0-2.42-.51-3.26-1.35s-1.35-1.98-1.35-3.26c0-.06-.02-.12-.07-.17s-.1-.07-.17-.07H6.27c-.06,0-.12.02-.17.07s-.07.11-.07.17c0,1.27-.51,2.42-1.35,3.26s-1.98,1.35-3.26,1.35c-.06,0-.12.02-.17.07s-.07.11-.07.17v31.28c0,.06.02.12.07.17s.1.07.17.07c1.27,0,2.42.51,3.26,1.35s1.35,1.98,1.35,3.26c0,.06.02.12.07.17s.1.07.17.07h67.5c.06,0,.12-.02.17-.07.04-.04.07-.11.07-.17,0-1.27.51-2.42,1.35-3.26s1.98-1.35,3.26-1.35c.06,0,.12-.02.17-.07.04-.04.07-.11.07-.17V14.21c0-.06-.02-.12-.07-.17h0Z" fill="#2b3948"/>
  <g>
    <path d="M72.22,11.36c-.02-.08-.09-.11-.17-.11H31.48s-23.49,0-23.49,0c-.08,0-.14.05-.17.11-.66,2.1-2.31,3.76-4.41,4.41-.08.02-.11.09-.11.17v27.83c0,.08.05.14.11.17,2.1.66,3.76,2.31,4.41,4.41.02.08.09.11.17.11h40.57s23.49,0,23.49,0c.08,0,.14-.05.17-.11.66-2.1,2.31-3.76,4.41-4.41.08-.02.11-.09.11-.17V15.94c0-.08-.05-.14-.11-.17-2.1-.66-3.76-2.31-4.41-4.41h0ZM76.41,43.65c-2.11.69-3.79,2.36-4.48,4.47H31.49s-23.37,0-23.37,0c-.69-2.11-2.37-3.78-4.48-4.48v-27.59c2.11-.69,3.79-2.36,4.48-4.47h40.45s23.37,0,23.37,0c.69,2.11,2.37,3.78,4.48,4.48v27.59Z" fill="#ded9c3"/>
    <path d="M78.78,14.05s-.1-.07-.17-.07c-1.27,0-2.42-.51-3.26-1.35s-1.35-1.98-1.35-3.26c0-.06-.02-.12-.07-.17s-.1-.07-.17-.07H6.27c-.06,0-.12.02-.17.07s-.07.11-.07.17c0,1.27-.51,2.42-1.35,3.26s-1.98,1.35-3.26,1.35c-.06,0-.12.02-.17.07s-.07.11-.07.17v31.28c0,.06.02.12.07.17s.1.07.17.07c1.27,0,2.42.51,3.26,1.35s1.35,1.98,1.35,3.26c0,.06.02.12.07.17s.1.07.17.07h67.5c.06,0,.12-.02.17-.07.04-.04.07-.11.07-.17,0-1.27.51-2.42,1.35-3.26s1.98-1.35,3.26-1.35c.06,0,.12-.02.17-.07.04-.04.07-.11.07-.17V14.21c0-.06-.02-.12-.07-.17h0ZM78.38,45.27c-1.31.06-2.48.61-3.35,1.48-.87.86-1.43,2.04-1.48,3.35H6.5c-.06-1.31-.61-2.48-1.48-3.35-.86-.86-2.04-1.42-3.35-1.48V14.45c1.31-.06,2.48-.61,3.35-1.48.87-.86,1.43-2.04,1.48-3.35h67.06c.06,1.31.61,2.48,1.48,3.35.86.86,2.04,1.42,3.35,1.48v30.82h0Z" fill="#ded9c3"/>
  </g>
  <g>
    <path d="M18.16,41.39c0,.05.02.11.02.16,0,.13-.1.13-.11.13-.02,0-.03,0-.17-.06-.06-.03-.17-.08-.26-.1-.02,0-.03-.01-.04-.02-.11.08-.17.13-.23.13-.05,0-.08-.04-.08-.08,0-.03.02-.06.05-.08.04-.02.14-.07.65-.45-.02-.24-.03-.44-.03-.63v-.08c-.06.02-.2.05-.25.05-.02,0-.23,0-.23-.11,0-.04.03-.07.08-.07.02,0,.04,0,.06,0,.03.01.08.02.12.02.05,0,.11,0,.23-.05,0-.13.02-.26.04-.4,0-.06.05-.09.09-.09s.08.03.08.08v.03c-.02.11-.05.21-.06.32.09-.04.18-.08.22-.12.02-.02.04-.02.06-.02.04,0,.08.03.08.07,0,.09-.18.16-.37.24v.16c0,.15,0,.32.02.49.27-.2.49-.32.76-.32.29,0,.43.16.43.36,0,.3-.34.61-.63.61-.15,0-.26-.08-.26-.24,0-.01,0-.25.13-.25.04,0,.08.03.08.07,0,.01,0,.03-.01.05-.02.04-.03.08-.03.11,0,.06.04.11.11.11.2,0,.45-.23.45-.45,0-.12-.08-.22-.3-.22-.23,0-.43.12-.72.34,0,.1.02.21.03.32h0ZM17.7,41.41c.06.01.18.05.25.08.02,0,.03,0,.04,0,.02,0,.03-.01.03-.05v-.07c0-.07-.02-.14-.02-.21-.08.06-.18.14-.3.24h0,0ZM19.46,40.25c-.05-.06-.15-.13-.27-.13-.09,0-.19.04-.28.15-.02.02-.04.03-.06.03-.04,0-.08-.02-.08-.06,0-.06.16-.25.44-.25.23,0,.39.14.39.22,0,.04-.03.08-.08.08-.02,0-.04,0-.06-.03h0Z" fill="#ded9c3"/>
    <path d="M20.28,41.05s-.05.06-.08.06c-.04,0-.07-.02-.07-.06v-.03c.11-.29.18-.61.23-.93h-.26s-.06-.03-.06-.06c0-.03.02-.07.06-.07h.29c.03-.19.05-.38.06-.55,0-.05.04-.07.07-.07.04,0,.08.02.08.07,0,0-.02.24-.07.54h.22c.16,0,.24.09.24.22,0,.24-.06.56-.19.85.04.02.31.15.31.26,0,.05-.03.09-.08.09-.02,0-.04,0-.06-.02-.07-.07-.15-.13-.24-.19-.23.44-.58.61-.64.61-.05,0-.08-.04-.08-.08,0-.02,0-.05.04-.06.26-.11.44-.31.56-.53-.1-.04-.21-.08-.33-.1l-.02.06h0s0-.01,0-.01ZM20.85,40.2c0-.07-.04-.12-.12-.12h-.21c-.05.27-.11.54-.19.79.12.01.24.05.35.09.13-.3.16-.61.16-.77h0ZM22.01,40.66c0,.07.01.14.01.22,0,.14-.02.29-.05.45-.05.23-.2.43-.5.43-.07,0-.15,0-.24-.04-.04,0-.06-.05-.06-.08,0-.04.02-.08.07-.08h.02c.08.03.16.04.22.04.2,0,.31-.13.34-.31.03-.15.05-.29.05-.43,0-.07,0-.14,0-.2h-.75s-.07-.03-.07-.07.02-.07.07-.07h.72c-.05-.19-.14-.34-.29-.43-.02,0-.03-.02-.03-.04,0-.03.03-.07.08-.07.05,0,.1.04.13.07.02-.02.34-.29.34-.36,0-.04-.06-.04-.16-.04-.16,0-.44,0-.66,0h0s-.07-.03-.07-.07.02-.07.07-.07c.15,0,.29,0,.43,0h.37c.13,0,.19.07.19.15,0,.05,0,.14-.42.48.08.1.13.23.17.38h.47s.07.03.07.06c0,.03-.02.07-.07.07h-.45s0,0,0,0Z" fill="#ded9c3"/>
    <path d="M23.94,41.71c-.05,0-.09-.04-.09-.08,0-.03.02-.06.07-.08.33-.09.57-.29.71-.56-.26-.11-.54-.2-.8-.22-.28.35-.41.43-.58.43s-.29-.1-.29-.23c0-.15.16-.34.69-.34h.11c.27-.35.48-.76.48-.82,0,0,0-.02-.02-.02s-.02,0-.03,0c-.12.03-.22.05-.31.05-.13,0-.19-.03-.19-.1,0-.04.02-.08.07-.08h.02s.09.01.13.01c.05,0,.1,0,.15-.01.08-.02.23-.04.26-.04.08,0,.13.05.13.11,0,.03,0,.07-.03.11-.1.19-.29.5-.49.78.26.03.53.11.77.22.04-.11.06-.22.07-.34,0-.05.04-.07.08-.07s.09.03.09.08c0,.03-.04.23-.1.39.21.1.39.22.54.34.02.02.04.05.04.08,0,.05-.04.09-.09.09-.02,0-.04,0-.06-.03-.13-.13-.3-.24-.49-.34-.26.52-.81.65-.83.65,0,0,0,.01,0,.01ZM23.62,40.77c-.36,0-.52.1-.52.19,0,.04.03.1.14.1.14,0,.25-.09.42-.29,0,0-.04,0-.04,0Z" fill="#ded9c3"/>
    <path d="M26.97,41.62c-.06,0-.1-.04-.1-.08,0-.04.03-.07.09-.08.65-.1.92-.51.92-.86s-.28-.66-.74-.66c-.04,0-.09,0-.13,0-.33.03-.82.42-.82.87,0,.14.05.33.18.33.03,0,.07-.02.11-.05.08-.07.5-.55.5-1v-.03h0c0-.07.04-.1.08-.1.1,0,.1.08.1.12,0,.37-.36.9-.59,1.12-.07.07-.13.1-.2.1-.18,0-.33-.22-.33-.49,0-.49.48-1.03,1.12-1.03.56,0,.9.38.9.8,0,.73-.88,1.01-1.09,1.01,0,0,0,0,0,0Z" fill="#ded9c3"/>
    <path d="M29.27,40.25c-.05,0-.1-.05-.1-.1,0-.04.03-.08.1-.08.09,0,.19-.02.27-.03.11-.02.47-.11.7-.14h.05c.13,0,.2.07.2.15,0,.12-.36.59-.43.68.49.23.87.54.87.66,0,.05-.04.1-.09.1-.02,0-.05-.01-.08-.04-.17-.22-.53-.47-.8-.6-.49.54-1.03.71-1.08.71-.06,0-.1-.04-.1-.08,0-.03.02-.07.08-.09.97-.33,1.42-1.25,1.42-1.3,0-.02-.01-.03-.05-.03h-.01c-.18.02-.51.11-.67.14-.22.05-.25.05-.28.05h0Z" fill="#ded9c3"/>
    <path d="M31.81,41.71c-.05,0-.09-.03-.09-.08,0-.03.02-.07.08-.09.4-.12.77-.39,1.06-.73-.11-.06-.23-.11-.33-.13-.03,0-.05-.03-.05-.06,0-.04.03-.08.09-.08.04,0,.21.05.39.14.25-.34.38-.65.38-.68,0-.03-.03-.04-.05-.04-.13,0-.43.07-.57.08h-.02c-.4.57-.67.76-.74.76-.05,0-.08-.03-.08-.08,0-.03.02-.07.06-.09.29-.19.51-.5.65-.71.05-.08.09-.2.11-.27,0-.04.05-.07.08-.07.04,0,.09.03.09.1,0,.06-.03.14-.07.22.18-.02.38-.07.56-.08h.02c.12,0,.18.07.18.15,0,.13-.35.67-.45.79.11.06.32.19.32.29,0,.05-.04.09-.09.09-.02,0-.05,0-.07-.03-.06-.07-.16-.14-.27-.21-.54.65-1.16.82-1.19.82h0Z" fill="#ded9c3"/>
    <path d="M35.93,41.64c0,.07-.05.11-.09.11-.04,0-.08-.03-.08-.11h0c0-.26.02-.6.02-.87,0-.16,0-.28-.02-.35-.34.37-.86.77-.99.77-.05,0-.09-.04-.09-.08,0-.03.02-.06.06-.08.67-.33,1.26-1.05,1.37-1.4,0-.04.05-.06.08-.06.05,0,.09.03.09.09,0,.05-.06.23-.4.62.05.05.05.16.05.22v.1c0,.15,0,.41,0,.66v.37h0Z" fill="#ded9c3"/>
    <path d="M37.5,41.56c-.05,0-.1-.04-.1-.08,0-.03.02-.06.06-.08.64-.34.73-.9.73-1.08,0-.03,0-.06,0-.1h0c0-.07.05-.1.09-.1.08,0,.1.05.1.17,0,.11-.07.78-.8,1.24-.02.02-.05.02-.08.02ZM38.8,41.11s0,.05.02.05c0,0,.45-.16.85-.83.02-.04.05-.05.08-.05.05,0,.09.04.09.1,0,.02,0,.04-.02.06-.34.56-.92.95-1.1.95-.07,0-.11-.05-.11-.11v-.03c.03-.19.07-.63.07-.88,0-.11,0-.21-.02-.27v-.02c0-.05.05-.09.09-.09.09,0,.1.08.1.26v.13c0,.13-.05.65-.05.74h0Z" fill="#ded9c3"/>
    <path d="M41.26,40c-.07,0-.13.02-.18.02-.16,0-.27-.05-.27-.13,0-.03.03-.07.07-.07.02,0,.04,0,.07.02.03.02.08.03.14.03.03,0,.11,0,.27-.04.04-.1.05-.16.07-.27,0-.05.04-.07.08-.07.04,0,.09.03.09.08,0,.07-.04.18-.05.21.07-.02.13-.05.18-.08.01,0,.03,0,.04,0,.04,0,.07.03.07.07,0,.09-.18.13-.36.18-.05.11-.14.25-.23.4.03,0,.06,0,.09,0,.16,0,.29.11.35.32.5-.22.7-.26.73-.26.06,0,.09.04.09.08,0,.03-.02.06-.05.07-.11.03-.19.06-.32.1-.14.04-.29.1-.41.16,0,.06,0,.12,0,.18,0,.15,0,.27-.1.27-.04,0-.07-.03-.07-.09v-.02c0-.08.01-.15.01-.21v-.07c-.22.11-.45.26-.45.46,0,.13.11.26.4.26.14,0,.28-.03.35-.05.02,0,.04,0,.05,0,.06,0,.1.04.1.08,0,.13-.35.13-.45.13-.46,0-.61-.22-.61-.4,0-.11.06-.37.58-.62-.04-.17-.12-.27-.23-.27-.06,0-.13.02-.21.08-.11.11-.15.16-.21.16-.04,0-.08-.03-.08-.07,0-.02,0-.05.04-.07.14-.12.3-.26.45-.57h-.04s0,0,0,0Z" fill="#ded9c3"/>
    <path d="M43.2,40.64s-.06-.03-.06-.07.02-.07.07-.07h.16c.16,0,.34,0,.34.23,0,.17,0,.36,0,.57.25.33.61.34.98.34.31,0,.64-.03.87-.05h0c.05,0,.08.04.08.08s-.03.08-.09.08c-.19.02-.48.04-.77.04-.67,0-.9-.08-1.15-.38-.15.18-.39.36-.45.36-.04,0-.08-.04-.08-.08,0-.02,0-.05.04-.06.15-.09.3-.2.42-.34,0-.15,0-.29,0-.41v-.12c0-.08-.03-.12-.13-.12h-.22ZM43.6,39.91c-.08-.12-.25-.25-.33-.3-.02,0-.03-.03-.03-.05,0-.03.04-.07.08-.07.07,0,.43.26.43.36,0,.05-.04.09-.08.09-.02,0-.04,0-.06-.03h0ZM44.67,40.99h-.8s-.06-.02-.06-.06c0-.03.02-.06.06-.06h.47v-.26h-.35s-.06-.03-.06-.06.02-.06.06-.06h.35v-.13s.03-.06.07-.06.07.02.07.06v.13h.39v-.13s.03-.06.07-.06.07.02.07.06v.13h.37s.06.03.06.06-.02.06-.06.06h-.37v.27h.5s.06.02.06.06-.02.06-.06.06h-.83s0,0,0,0ZM44.35,39.77c.07,0,.09-.01.09-.05,0-.13,0-.14-.09-.14h-.43s-.05-.03-.05-.06c0-.03.02-.06.05-.06h.45c.18,0,.19.06.19.22,0,.17-.03.22-.19.22h-.19c-.14,0-.17,0-.18.07v.1c0,.06.02.09.23.09.26,0,.28-.06.28-.16,0-.04.03-.06.06-.06s.07.02.07.06c0,.24-.16.28-.42.28-.3,0-.36-.05-.36-.23,0-.16,0-.26.2-.26h.28ZM43.94,41.43s-.07-.03-.07-.07c0-.03.02-.06.05-.06.18-.02.41-.11.53-.19,0,0,.02,0,.03,0,.03,0,.06.03.06.07,0,.11-.55.26-.61.26ZM44.86,40.6h-.39v.27h.39v-.27ZM45.19,39.77c.08,0,.09-.02.09-.05,0-.13,0-.14-.09-.14h-.44s-.05-.03-.05-.06c0-.03.02-.06.05-.06h.46c.18,0,.2.07.2.22,0,.16-.01.22-.2.22h-.18c-.18,0-.19,0-.19.17,0,.08.04.09.24.09.28,0,.3-.07.3-.16,0-.04.03-.06.06-.06.03,0,.07.02.07.06,0,.21-.12.28-.44.28-.34,0-.37-.07-.37-.23s0-.26.2-.26h.27ZM45.44,41.43c-.05,0-.41-.08-.63-.21-.02,0-.02-.03-.02-.05,0-.03.02-.07.06-.07,0,0,.02,0,.03,0,.16.09.39.16.58.18.04,0,.06.03.06.07s-.02.07-.08.07c0,0,0,0,0,0Z" fill="#ded9c3"/>
    <path d="M46.7,40.84s0,0,.02,0c.07-.07.21-.13.33-.13s.22.06.22.26c0,.05,0,.08-.05.27,0,.03,0,.05,0,.08,0,.1.08.15.2.15.45,0,.76-.48.82-.76.01-.06.05-.08.09-.08.05,0,.09.04.09.09,0,.11-.33.9-1.01.9-.34,0-.35-.2-.35-.26,0-.04,0-.08.02-.13.05-.16.06-.22.06-.26,0-.09-.04-.13-.11-.13-.11,0-.45.16-.59.59-.06.18-.11.21-.16.21-.08,0-.09-.06-.09-.08,0-.05.11-.27.5-.92.16-.26.3-.5.43-.73.05-.08.12-.19.15-.25.02-.03.05-.05.08-.05.05,0,.1.04.1.09,0,.03,0,.06-.15.24-.13.19-.55.86-.57.9,0,0,0,.01,0,.02h0Z" fill="#ded9c3"/>
    <path d="M50.75,41.65h-.02c-.67-.05-1-.48-1-.9,0-.34.25-.59.29-.62.01,0,.02-.02.02-.03s0,0,0,0c0,0-.02,0-.03,0-.02,0-.61.28-.73.28-.07,0-.1-.04-.1-.08,0-.04.03-.08.08-.09.3-.08.82-.28.99-.34.25-.1.51-.18.76-.18.09,0,.12.05.12.09,0,.06-.05.09-.13.09h-.11c-.45,0-1.01.37-1.01.86,0,.39.35.73.86.73.09,0,.13.05.13.1s-.05.1-.13.1h.01s0,0,0,0ZM51.04,40.6c-.05-.06-.22-.18-.29-.22-.03-.01-.04-.03-.04-.05,0-.03.03-.06.08-.06.05,0,.37.17.37.27,0,.04-.04.08-.08.08-.01,0-.03,0-.04-.02h0ZM51.32,40.38c-.05-.06-.23-.18-.3-.21-.03-.01-.05-.03-.05-.05,0-.03.03-.06.08-.06.05,0,.38.16.38.26,0,.05-.03.08-.07.08-.01,0-.03,0-.04-.02h0Z" fill="#ded9c3"/>
    <path d="M53.26,41.73c-.15-.37-.39-.65-.61-.94-.08-.11-.12-.19-.12-.27,0-.07.03-.14.11-.23.19-.24.41-.5.56-.78.02-.03.04-.05.07-.05.05,0,.1.05.1.1,0,.01,0,.03,0,.04-.16.26-.4.53-.59.76-.05.06-.07.11-.07.15,0,.06.03.11.09.18.24.32.51.6.65.94,0,.02,0,.03,0,.05,0,.06-.05.1-.1.1-.03,0-.06-.02-.08-.06h0Z" fill="#ded9c3"/>
    <path d="M55.73,40.06c-.27.75-.48,1.13-.67,1.54-.02.03-.05.05-.09.05-.05,0-.09-.02-.09-.07,0-.01,0-.03.01-.05.16-.3.42-.75.67-1.43h0c-.07.01-.26.06-.36.06-.02,0-.2,0-.2-.1,0-.04.02-.08.08-.08.01,0,.03,0,.05.01.03.01.06.02.1.02.02,0,.16,0,.4-.1.02-.09.03-.17.03-.29,0-.05.04-.08.09-.08.08,0,.08.05.08.11,0,.05,0,.11-.02.17.03-.02.06-.04.08-.05s.04-.02.06-.02c.04,0,.08.03.08.07,0,.03-.02.09-.27.19v.04s-.01,0-.01,0h0ZM56.82,41.58c0,.08-.09.08-.13.08-.49,0-.74-.27-.74-.36,0-.05.04-.09.08-.09.02,0,.05.01.07.05.12.22.41.22.64.23.06,0,.09.04.09.08ZM56.91,40.58s-.02,0-.03,0c-.14-.05-.36-.13-.55-.13-.04,0-.08,0-.11.01h-.02s-.06-.03-.06-.07c0-.02,0-.09.2-.09.16,0,.37.05.59.13.04.01.06.05.06.07,0,.04-.03.08-.08.08h0,0ZM56.84,39.97c-.05-.06-.22-.18-.29-.21-.03-.01-.04-.03-.04-.05,0-.03.03-.06.08-.06.05,0,.37.17.37.27,0,.04-.03.08-.07.08-.01,0-.03,0-.04-.02h0ZM57.09,39.73c-.05-.05-.22-.17-.29-.2-.03-.01-.04-.03-.04-.05,0-.03.03-.07.08-.07.08,0,.32.18.35.2.02.02.02.04.02.06,0,.04-.03.08-.07.08-.01,0-.03,0-.04-.02h0Z" fill="#ded9c3"/>
    <path d="M59.16,40.29c.06.11.12.22.18.33s.1.2.13.29.04.15.04.19c0,.08-.04.11-.07.11-.03,0-.07-.01-.11-.05-.14-.11-.5-.18-.72-.18-.3,0-.42.16-.42.26,0,.16.27.28.58.28.05,0,.1,0,.15,0h.02c.07,0,.1.04.1.08,0,.05-.04.1-.11.1h-.02c-.56,0-.86-.21-.86-.44,0-.14.13-.4.59-.4.22,0,.45.05.64.09h.02s.01,0,.01-.01c0-.02-.05-.22-.32-.66-.02-.03-.03-.06-.05-.08,0,0-.23.05-.35.05-.3,0-.54-.27-.54-.34,0-.04.04-.07.08-.07.02,0,.05,0,.08.04.16.19.31.23.42.23.02,0,.1,0,.25-.04-.14-.26-.17-.34-.17-.37,0-.05.03-.07.08-.07.04,0,.08.02.1.08.02.09.08.2.14.33.08-.02.15-.05.22-.07.02,0,.03,0,.05,0,.05,0,.08.04.08.08,0,.06-.03.08-.28.13.02.05.05.1.08.14h0s0,0,0,0Z" fill="#ded9c3"/>
    <path d="M61.39,41.39c-.08,0-.18-.03-.28-.11-.26-.2-.36-.62-.41-.85,0-.03-.06-.28-.06-.31,0-.05.04-.08.08-.08.04,0,.07.02.08.08.02.09.03.21.05.3.12.71.45.78.5.78s.08-.03.1-.08c.04-.09.06-.21.09-.31.01-.04.04-.06.07-.06.04,0,.09.03.09.08h0c-.02.14-.07.27-.09.39-.02.1-.1.16-.22.16h0ZM62.61,40.81c-.03-.23-.22-.46-.42-.63-.02-.01-.02-.03-.02-.05,0-.04.03-.07.08-.07.02,0,.05,0,.07.03.17.14.47.43.47.69,0,.07-.05.11-.1.11-.04,0-.07-.02-.08-.08Z" fill="#ded9c3"/>
  </g>
  <polygon points="72.16 38.19 73.35 37.39 72.16 36.6 71.15 37.27 8.91 37.27 7.9 36.6 6.71 37.39 7.9 38.19 8.91 37.51 71.15 37.51 72.16 38.19" fill="#ded9c3"/>
  <g>
    <path d="M21.79,18.71c-.15.4-.26.75-.34,1.06-.04.13-.08.32-.12.56h-.2c0-.52-.08-.88-.26-1.09-.18-.22-.45-.32-.83-.32h-.03c-.21,0-.37.02-.47.05s-.19.1-.24.2-.12.27-.18.5l-.57,2.13h.16c.28,0,.54-.1.78-.3.23-.2.41-.44.52-.71h.2c-.1.3-.18.58-.24.86l-.06.24c-.04.16-.08.33-.12.49s-.08.36-.12.61h-.2c0-.26-.07-.49-.21-.7s-.36-.31-.67-.31h-.08l-.58,2.16c-.05.23-.08.37-.08.44,0,.13.05.21.13.24.09.04.24.06.46.06h.12c.43,0,.79-.12,1.09-.35s.59-.65.88-1.24h.2c-.05.13-.11.34-.19.65-.1.35-.18.74-.23,1.15-.41-.02-1.09-.03-2.03-.03-1.39,0-2.44,0-3.14.03l.04-.18c.22-.01.38-.04.49-.07s.2-.11.25-.21.12-.27.19-.5l1.19-4.47c.05-.21.07-.34.07-.43,0-.13-.05-.22-.13-.26s-.24-.07-.47-.08l.05-.18c.69.02,1.73.03,3.13.03.87,0,1.48,0,1.86-.03h0Z" fill="#131f2b"/>
    <path d="M26.34,23.62h.17l-.22.66c-.22.62-.65.93-1.29.93-.38,0-.66-.11-.81-.33-.1-.14-.15-.31-.15-.51s.05-.43.14-.72l.78-2.33c.05-.14.07-.25.07-.35s-.03-.14-.09-.14c-.15,0-.35.21-.6.63-.24.42-.5.96-.75,1.61s-.47,1.31-.64,1.97v-.02.05h-1.6l1.1-3.91c.04-.12.05-.21.05-.26,0-.08-.05-.12-.14-.12-.1,0-.18.04-.26.13-.08.08-.15.23-.23.44l-.21.55h-.17l.25-.7c.11-.32.27-.55.47-.7s.45-.22.77-.22c.34,0,.58.08.72.23s.22.36.22.61c0,.14-.02.28-.05.42l-.24.94c.23-.59.45-1.04.67-1.36.22-.32.43-.53.65-.66.22-.12.47-.19.76-.19.59,0,.89.25.89.75,0,.16-.04.36-.12.61l-.89,2.67c-.03.1-.05.17-.05.22,0,.11.05.16.15.16.17,0,.33-.19.48-.57l.19-.51h0s0,.02,0,.02Z" fill="#131f2b"/>
    <path d="M28.62,24.32c-.02.06-.03.12-.03.17,0,.14.06.21.19.21s.24-.06.36-.2c.12-.13.22-.29.29-.49l.14-.39h.17l-.17.5c-.12.34-.31.61-.55.8s-.54.28-.89.28-.59-.09-.75-.26-.24-.41-.24-.71c0-.15.03-.34.09-.58l.89-3.07h-.82l.05-.18h.83l.38-1.33c.63,0,1.17-.05,1.64-.13l-.42,1.45h.9l-.03.18h-.93l-1.09,3.73h0Z" fill="#131f2b"/>
    <path d="M33.86,22.4c-.56.37-1.23.65-2.01.83-.02.16-.03.32-.03.46,0,.33.06.56.19.68s.32.19.56.19c.15,0,.34-.05.58-.15.23-.1.46-.26.68-.48l.14.07c-.23.34-.54.63-.93.86s-.84.34-1.35.34c-.45,0-.81-.11-1.11-.33-.3-.22-.45-.53-.45-.94,0-.59.15-1.17.45-1.73s.72-1.03,1.24-1.38c.52-.35,1.11-.54,1.74-.54.34,0,.61.07.81.2.21.14.31.33.31.59,0,.51-.28.94-.84,1.32h0s0,0,0,0ZM32.82,20.85c-.21.26-.4.59-.57,1-.17.41-.3.81-.37,1.23.32-.19.59-.39.83-.61.25-.24.45-.52.6-.82s.22-.62.22-.96c0-.15-.05-.22-.14-.22-.17,0-.35.13-.56.39h0,0Z" fill="#131f2b"/>
    <path d="M39.15,20.53c.15.16.23.37.23.62,0,.31-.1.57-.29.79s-.44.33-.73.33c-.22,0-.39-.06-.51-.17s-.17-.28-.17-.51c0-.26.1-.51.29-.72s.42-.34.69-.4c-.07-.02-.11-.03-.13-.03-.19,0-.36.04-.52.12-.15.08-.33.27-.52.58-.19.31-.39.78-.6,1.4l-.66,2.52h-1.59l1.1-3.91c.02-.09.04-.17.04-.23,0-.1-.04-.14-.12-.14-.1,0-.18.04-.26.13-.08.08-.15.23-.23.44l-.21.55h-.17l.25-.7c.22-.62.67-.93,1.35-.93.29,0,.5.08.63.23s.2.35.2.6c0,.08,0,.14,0,.19.17-.38.36-.64.56-.79.2-.15.45-.23.73-.23.27,0,.48.08.64.24,0,0,0,0,0,0Z" fill="#131f2b"/>
    <path d="M48.84,18.86c.2.18.29.42.29.69s-.1.51-.29.68-.43.26-.72.26c-.24,0-.44-.06-.59-.18s-.22-.28-.22-.49c0-.26.09-.49.26-.67s.4-.3.67-.34c-.05-.05-.12-.07-.22-.07s-.19.02-.28.05c-.09.03-.19.09-.3.17-.15.11-.34.33-.56.64-.22.32-.43.72-.65,1.21s-.41,1.03-.57,1.63l-.43,1.7c-.03.1-.05.21-.05.33,0,.17.06.29.18.34.12.06.31.09.58.11l-.05.18c-.38-.02-.99-.03-1.83-.03-.73,0-1.27,0-1.63.03l.05-.18c.22-.01.38-.04.49-.07s.2-.11.26-.21.13-.27.18-.49l.47-1.84c-.09-.79-.22-1.48-.4-2.06s-.39-.87-.62-.87c-.17,0-.31.14-.41.42l-.15.46h-.2l.19-.58c.13-.38.33-.66.6-.83s.58-.25.93-.25c.45,0,.79.12,1.03.35s.42.57.53,1c.11.43.21,1.04.3,1.83.19-.56.39-1.07.62-1.52s.46-.82.71-1.12c.32-.36.67-.54,1.07-.54.32,0,.56.09.76.27h0s0,0,0,0Z" fill="#131f2b"/>
    <path d="M48.84,22.13c.23-.52.59-.97,1.06-1.32s1.05-.53,1.73-.53c.52,0,.92.13,1.19.4.27.26.41.64.41,1.13s-.12,1.03-.35,1.55c-.23.52-.59.97-1.06,1.32s-1.05.53-1.73.53c-.52,0-.92-.13-1.19-.4-.27-.26-.41-.64-.41-1.13s.12-1.03.35-1.55h0ZM50.93,21.14c-.26.45-.48.99-.67,1.64-.19.64-.28,1.23-.28,1.75,0,.19.01.32.04.39.03.08.07.11.13.11.16,0,.37-.22.62-.65.25-.44.48-.97.67-1.6.19-.63.28-1.23.28-1.79,0-.21-.01-.35-.04-.42-.03-.07-.06-.11-.11-.11-.17,0-.38.22-.64.67h0Z" fill="#131f2b"/>
    <path d="M58.5,23.59h.17l-.25.7c-.11.32-.29.55-.52.7s-.49.22-.78.22c-.4,0-.67-.12-.8-.35-.07-.13-.11-.27-.11-.43,0-.14.02-.31.07-.48l.21-.79c-.23.55-.45.98-.66,1.27-.22.3-.43.5-.65.61s-.47.17-.75.17-.48-.06-.62-.19-.22-.32-.22-.56c0-.18.04-.38.12-.61l.88-2.67c.03-.1.05-.17.05-.22,0-.11-.05-.16-.15-.16-.17,0-.33.19-.48.57l-.19.51h-.17l.22-.66c.22-.62.65-.93,1.29-.93.31,0,.54.07.7.21.16.14.24.35.24.63,0,.2-.05.43-.14.7l-.78,2.33c-.05.14-.07.25-.07.35s.03.14.09.14c.14,0,.33-.18.56-.55.22-.36.45-.84.7-1.42s.45-1.19.64-1.81l.12-.46c.66-.01,1.2-.05,1.63-.13l-1.13,4.04c-.04.11-.05.2-.05.26,0,.08.05.12.14.12.1,0,.18-.04.26-.13.08-.08.15-.23.23-.44l.21-.55h0s0,0,0,0h0Z" fill="#131f2b"/>
    <path d="M63.52,20.53c.15.16.23.37.23.62,0,.31-.1.57-.29.79s-.44.33-.73.33c-.22,0-.39-.06-.51-.17s-.17-.28-.17-.51c0-.26.1-.51.29-.72s.42-.34.69-.4c-.07-.02-.11-.03-.13-.03-.19,0-.36.04-.52.12-.15.08-.33.27-.52.58-.19.31-.39.78-.6,1.4l-.66,2.52h-1.59l1.1-3.91c.02-.09.04-.17.04-.23,0-.1-.04-.14-.12-.14-.1,0-.18.04-.26.13-.08.08-.15.23-.23.44l-.21.55h-.17l.25-.7c.22-.62.67-.93,1.35-.93.29,0,.5.08.63.23s.2.35.2.6c0,.08,0,.14,0,.19.17-.38.36-.64.56-.79.2-.15.45-.23.73-.23.27,0,.48.08.64.24h0Z" fill="#131f2b"/>
    <path d="M17.72,26.45c-.13.34-.24.69-.34,1.06-.1.35-.16.63-.21.83h-.2c0-.08,0-.18,0-.32,0-.49-.1-.84-.29-1.05-.19-.21-.46-.32-.81-.32h-.03c-.19,0-.33.02-.42.05s-.17.1-.22.2-.11.27-.16.5l-.57,2.13h.25c.27,0,.52-.09.74-.27s.41-.43.55-.74h.2c-.11.34-.21.7-.31,1.1-.08.33-.17.78-.28,1.37h-.2c0-.42-.07-.73-.22-.95s-.34-.33-.61-.33h-.17l-.58,2.16c-.04.15-.06.28-.06.4,0,.14.05.24.16.29s.32.08.61.09l-.04.18c-.4-.02-1-.03-1.79-.03s-1.32,0-1.68.03l.04-.18c.22-.01.38-.04.49-.07s.2-.11.25-.21c.06-.1.12-.27.19-.5l1.19-4.47c.05-.21.07-.34.07-.43,0-.13-.05-.22-.13-.26s-.24-.07-.47-.08l.05-.18c.69.02,1.73.03,3.13.03.87,0,1.48,0,1.86-.03h0Z" fill="#131f2b"/>
    <path d="M21.63,31.36h.17l-.22.66c-.22.62-.65.93-1.29.93-.36,0-.63-.11-.79-.32-.1-.15-.15-.33-.15-.55,0-.07,0-.12,0-.15-.14.36-.33.63-.56.79s-.5.23-.81.23c-.37,0-.65-.1-.84-.29s-.28-.47-.28-.84c0-.56.15-1.14.45-1.74s.68-1.09,1.13-1.47c.45-.39.89-.59,1.3-.59.34,0,.53.17.56.52l.12-.38c.58,0,1.12-.05,1.63-.14l-1.22,4.04c-.02.08-.04.15-.04.22,0,.11.05.16.14.16.17,0,.33-.19.48-.57l.19-.51h0s0,0,0,0ZM19.15,32.05c.13-.19.27-.54.43-1.03l.65-2.16s0-.07,0-.14c0-.17-.06-.25-.17-.25-.17,0-.37.17-.61.52-.24.34-.45.79-.62,1.32-.17.53-.26,1.05-.26,1.56,0,.17.01.3.05.37.03.07.08.11.16.11.13,0,.25-.1.38-.29h0Z" fill="#131f2b"/>
    <path d="M25.59,29.58c-.19-.25-.29-.52-.29-.81,0-.23.06-.41.19-.54.12-.13.3-.2.52-.2.45,0,.68.3.68.89s-.11,1.22-.33,1.84c-.22.63-.56,1.15-1.01,1.57-.45.42-1,.63-1.64.63-.51,0-.88-.11-1.1-.32s-.33-.48-.33-.79c0-.54.23-1.09.69-1.65s1.11-1.15,1.94-1.78c-.19,0-.34.05-.47.14s-.26.2-.41.35c-.12.12-.22.21-.31.26s-.18.09-.28.09c-.07,0-.15-.02-.26-.07-.09-.04-.15-.06-.22-.06-.07,0-.13.03-.18.08s-.09.14-.12.26l-.06.19h-.17l.2-.66c.18-.65.46-.98.85-.98.07,0,.13,0,.2.03s.13.05.19.08c.1.05.19.09.28.11.09.03.2.04.33.04.21,0,.41-.05.59-.14l.09-.17.19.09c-.39.63-.71,1.31-.97,2.04-.25.73-.38,1.32-.38,1.76,0,.21.03.36.1.46s.17.15.32.15c.44,0,.83-.22,1.17-.67s.6-1,.76-1.64c-.31-.14-.56-.33-.75-.58h-.02Z" fill="#131f2b"/>
    <path d="M27.25,29.87c.23-.52.59-.97,1.06-1.32s1.05-.53,1.73-.53c.52,0,.92.13,1.19.4.27.26.41.64.41,1.13s-.12,1.03-.35,1.55c-.23.52-.59.97-1.06,1.32s-1.05.53-1.73.53c-.52,0-.92-.13-1.19-.4s-.41-.64-.41-1.13.12-1.03.35-1.55ZM29.35,28.89c-.26.45-.48.99-.67,1.64-.19.64-.28,1.23-.28,1.75,0,.19.01.32.04.39.03.08.07.11.13.11.16,0,.37-.22.62-.65.25-.44.48-.97.67-1.6s.28-1.23.28-1.79c0-.21-.01-.35-.04-.42s-.06-.11-.11-.11c-.17,0-.38.22-.64.67h0Z" fill="#131f2b"/>
    <path d="M36.38,28.27c.15.16.23.37.23.62,0,.31-.1.57-.29.79s-.44.33-.73.33c-.22,0-.39-.05-.51-.17-.11-.11-.17-.28-.17-.51,0-.26.1-.51.29-.72s.42-.34.69-.4c-.07-.02-.11-.03-.13-.03-.19,0-.36.04-.52.12-.15.08-.33.27-.52.58-.19.31-.39.78-.6,1.4l-.66,2.52h-1.59l1.1-3.91c.02-.09.04-.17.04-.23,0-.1-.04-.14-.12-.14-.1,0-.18.04-.26.13-.08.08-.15.23-.23.44l-.21.55h-.17l.25-.7c.22-.62.67-.93,1.35-.93.29,0,.5.08.63.23s.2.35.2.61c0,.08,0,.14,0,.19.17-.38.36-.64.56-.79.2-.15.45-.23.73-.23.27,0,.48.08.64.24h0Z" fill="#131f2b"/>
    <path d="M37.54,28.69c0-.1-.04-.15-.13-.15-.1,0-.18.04-.26.13-.08.08-.15.23-.23.44l-.21.55h-.17l.25-.7c.22-.62.67-.93,1.35-.93.33,0,.56.08.71.23.15.15.22.35.22.59,0,.13-.02.28-.07.43l-.94,2.77c-.03.1-.05.17-.05.22,0,.11.05.16.15.16.17,0,.33-.19.48-.57l.19-.51h.17l-.22.66c-.22.62-.65.93-1.29.93-.31,0-.54-.07-.71-.22-.17-.14-.25-.35-.25-.64,0-.19.05-.42.14-.69l.83-2.48c.03-.08.05-.15.05-.22h0ZM38.18,26.03c.2-.16.46-.24.79-.24.26,0,.46.05.6.15.14.1.2.25.2.46,0,.28-.11.5-.32.67s-.47.26-.79.26c-.26,0-.45-.05-.59-.15-.14-.1-.2-.25-.2-.44,0-.32.1-.55.3-.71h0Z" fill="#131f2b"/>
    <path d="M41.11,32.06c-.02.06-.03.12-.03.17,0,.14.06.21.19.21s.24-.06.36-.19.22-.29.29-.49l.14-.39h.17l-.17.5c-.12.34-.31.61-.55.8s-.54.28-.89.28-.59-.09-.75-.26-.24-.41-.24-.71c0-.15.03-.34.09-.58l.89-3.07h-.82l.05-.18h.83l.38-1.33c.63,0,1.17-.05,1.64-.13l-.42,1.45h.9l-.03.18h-.93l-1.09,3.73s0,0,0,0Z" fill="#131f2b"/>
    <path d="M46.36,30.14c-.56.37-1.23.65-2.01.83-.02.16-.03.32-.03.46,0,.33.06.56.19.68.13.13.32.19.56.19.15,0,.34-.05.58-.15.23-.1.46-.26.68-.48l.14.07c-.23.34-.54.63-.93.86s-.84.34-1.35.34c-.45,0-.81-.11-1.11-.33-.3-.22-.45-.53-.45-.94,0-.59.15-1.17.45-1.73s.72-1.03,1.24-1.38,1.11-.54,1.74-.54c.34,0,.61.07.81.2.21.14.31.33.31.59,0,.51-.28.94-.84,1.32h0s0,0,0,0ZM45.32,28.59c-.21.26-.4.59-.57,1-.17.41-.3.81-.37,1.23.32-.19.59-.39.83-.61.25-.24.45-.52.6-.82s.22-.62.22-.96c0-.15-.05-.22-.14-.22-.17,0-.35.13-.56.39h0,0Z" fill="#131f2b"/>
    <path d="M54.76,28.22h-.18c.04-.17.05-.34.05-.5,0-.36-.11-.65-.34-.86s-.55-.31-.96-.31c-.28,0-.52.07-.7.21-.18.14-.27.36-.27.66,0,.26.08.52.23.76.15.24.39.55.7.92.23.27.42.5.56.69.14.19.26.4.36.62s.15.45.15.7c0,.41-.14.75-.42,1.02s-.62.47-1.02.6-.79.19-1.17.19c-.44,0-.77-.03-.99-.09s-.47-.17-.75-.33c-.15-.09-.26-.14-.31-.14-.08,0-.14.03-.19.1s-.11.19-.2.39h-.18c.1-.23.19-.5.28-.82s.2-.77.33-1.34h.18c-.05.15-.08.35-.08.62,0,.46.13.81.38,1.04s.61.35,1.08.35c.39,0,.67-.07.82-.22s.23-.35.23-.61c0-.34-.08-.66-.23-.94s-.38-.61-.69-.99c-.3-.36-.52-.68-.67-.96-.15-.27-.22-.56-.22-.89,0-.4.12-.73.36-1.01.24-.28.55-.48.91-.61.36-.13.73-.2,1.09-.2.26,0,.49.02.69.07s.35.09.45.13c.09.04.24.11.45.21.03.01.08.04.15.07.07.04.12.05.15.05.05,0,.1-.04.14-.11.05-.07.1-.2.16-.36h.18c-.23.58-.41,1.19-.53,1.83h-.01s.02.02.02.02Z" fill="#131f2b"/>
    <path d="M56.67,32.06c-.02.06-.03.12-.03.17,0,.14.06.21.19.21s.24-.06.36-.19.22-.29.29-.49l.14-.39h.17l-.17.5c-.12.34-.31.61-.55.8s-.54.28-.89.28-.59-.09-.75-.26-.24-.41-.24-.71c0-.15.03-.34.09-.58l.89-3.07h-.82l.05-.18h.83l.38-1.33c.63,0,1.17-.05,1.64-.13l-.42,1.45h.9l-.03.18h-.93l-1.09,3.73s0,0,0,0Z" fill="#131f2b"/>
    <path d="M62.49,28.9c0,.52-.17,1.16-.52,1.9-.34.74-.77,1.41-1.26,2-.38.45-.78.81-1.18,1.09s-.82.46-1.23.56c-.21.05-.38.07-.53.07-.24,0-.42-.05-.56-.16-.13-.11-.2-.25-.2-.44s.07-.34.2-.46.31-.19.52-.19c.43,0,.8.26,1.11.79.39-.17.74-.4,1.04-.67l-.73-4.46c-.03-.15-.05-.26-.08-.31s-.06-.08-.11-.08-.11.04-.16.11-.11.22-.2.46l-.19.51h-.17l.22-.66c.12-.34.27-.58.46-.72s.42-.21.7-.21c.3,0,.54.08.71.23s.29.44.35.83l.39,2.88c.4-.58.71-1.19.95-1.85-.28-.15-.51-.35-.68-.59-.17-.24-.25-.5-.25-.77,0-.23.06-.41.19-.54s.3-.2.52-.2c.45,0,.68.29.68.88h0s0-.01,0-.01Z" fill="#131f2b"/>
    <path d="M64.06,32.23c0,.07.02.12.05.16.03.03.07.05.12.05.06,0,.13-.04.21-.11.08-.07.16-.23.24-.45l.19-.51h.17l-.22.66c-.12.34-.3.59-.53.72s-.48.2-.75.2c-.3,0-.53-.08-.7-.23s-.25-.38-.25-.67c0-.19.04-.4.11-.64l1.38-4.58c.03-.11.05-.19.05-.25,0-.12-.05-.21-.14-.26-.09-.05-.25-.08-.47-.08l.06-.19c.47,0,.9-.04,1.29-.1.38-.06.76-.15,1.12-.27l-1.9,6.4c-.02.06-.03.12-.03.17h0,0Z" fill="#131f2b"/>
    <path d="M69.1,30.14c-.56.37-1.23.65-2.01.83-.02.16-.03.32-.03.46,0,.33.06.56.19.68.13.13.32.19.56.19.15,0,.34-.05.58-.15.23-.1.46-.26.68-.48l.14.07c-.23.34-.54.63-.93.86s-.84.34-1.35.34c-.45,0-.81-.11-1.11-.33-.3-.22-.45-.53-.45-.94,0-.59.15-1.17.45-1.73s.72-1.03,1.24-1.38,1.11-.54,1.74-.54c.34,0,.61.07.81.2.21.14.31.33.31.59,0,.51-.28.94-.84,1.32h0s0,0,0,0ZM68.07,28.59c-.21.26-.4.59-.57,1-.17.41-.3.81-.37,1.23.32-.19.59-.39.83-.61.25-.24.45-.52.6-.82.14-.3.22-.62.22-.96,0-.15-.05-.22-.14-.22-.17,0-.35.13-.56.39h0,0Z" fill="#131f2b"/>
  </g>
  <g>
    <path d="M21.32,18.23c-.15.4-.26.75-.34,1.06-.04.13-.08.32-.12.56h-.2c0-.52-.08-.88-.26-1.09-.18-.22-.45-.32-.83-.32h-.03c-.21,0-.37.02-.47.05s-.19.1-.24.2-.12.27-.18.5l-.57,2.13h.16c.28,0,.54-.1.78-.3.23-.2.41-.44.52-.71h.2c-.1.3-.18.58-.24.86l-.06.24c-.04.16-.08.33-.12.49s-.08.36-.12.61h-.2c0-.26-.07-.49-.21-.7s-.36-.31-.67-.31h-.08l-.58,2.16c-.05.23-.08.37-.08.44,0,.13.05.21.13.24.09.04.24.06.46.06h.12c.43,0,.79-.12,1.09-.35s.59-.65.88-1.24h.2c-.05.13-.11.34-.19.65-.1.35-.18.74-.23,1.15-.41-.02-1.09-.03-2.03-.03-1.39,0-2.44,0-3.14.03l.04-.18c.22-.01.38-.04.49-.07s.2-.11.25-.21.12-.27.19-.5l1.19-4.47c.05-.21.07-.34.07-.43,0-.13-.05-.22-.13-.26s-.24-.07-.47-.08l.05-.18c.69.02,1.73.03,3.13.03.87,0,1.48,0,1.86-.03h0Z" fill="#ded9c3"/>
    <path d="M25.86,23.15h.17l-.22.66c-.22.62-.65.93-1.29.93-.38,0-.66-.11-.81-.33-.1-.14-.15-.31-.15-.51s.05-.43.14-.72l.78-2.33c.05-.14.07-.25.07-.35s-.03-.14-.09-.14c-.15,0-.35.21-.6.63-.24.42-.5.96-.75,1.61s-.47,1.31-.64,1.97v-.02.05h-1.6l1.1-3.91c.04-.12.05-.21.05-.26,0-.08-.05-.12-.14-.12-.1,0-.18.04-.26.13-.08.08-.15.23-.23.44l-.21.55h-.17l.25-.7c.11-.32.27-.55.47-.7s.45-.22.77-.22c.34,0,.58.08.72.23s.22.36.22.61c0,.14-.02.28-.05.42l-.24.94c.23-.59.45-1.04.67-1.36.22-.32.43-.53.65-.66.22-.12.47-.19.76-.19.59,0,.89.25.89.75,0,.16-.04.36-.12.61l-.89,2.67c-.03.1-.05.17-.05.22,0,.11.05.16.15.16.17,0,.33-.19.48-.57l.19-.51h0s0,.02,0,.02Z" fill="#ded9c3"/>
    <path d="M28.14,23.84c-.02.06-.03.12-.03.17,0,.14.06.21.19.21s.24-.06.36-.2c.12-.13.22-.29.29-.49l.14-.39h.17l-.17.5c-.12.34-.31.61-.55.8s-.54.28-.89.28-.59-.09-.75-.26-.24-.41-.24-.71c0-.15.03-.34.09-.58l.89-3.07h-.82l.05-.18h.83l.38-1.33c.63,0,1.17-.05,1.64-.13l-.42,1.45h.9l-.03.18h-.93l-1.09,3.73h0Z" fill="#ded9c3"/>
    <path d="M33.38,21.92c-.56.37-1.23.65-2.01.83-.02.16-.03.32-.03.46,0,.33.06.56.19.68.13.12.32.19.56.19.15,0,.34-.05.58-.15.23-.1.46-.26.68-.48l.14.07c-.23.34-.54.63-.93.86s-.84.34-1.35.34c-.45,0-.81-.11-1.11-.33-.3-.22-.45-.53-.45-.94,0-.59.15-1.17.45-1.73s.72-1.03,1.24-1.38c.52-.35,1.11-.54,1.74-.54.34,0,.61.07.81.2.21.14.31.33.31.59,0,.51-.28.94-.84,1.32h0s0,0,0,0ZM32.34,20.37c-.21.26-.4.59-.57,1-.17.41-.3.81-.37,1.23.32-.19.59-.39.83-.61.25-.24.45-.52.6-.82s.22-.62.22-.96c0-.15-.05-.22-.14-.22-.17,0-.35.13-.56.39h0,0Z" fill="#ded9c3"/>
    <path d="M38.67,20.05c.15.16.23.37.23.62,0,.31-.1.57-.29.79s-.44.33-.73.33c-.22,0-.39-.06-.51-.17s-.17-.28-.17-.51c0-.26.1-.51.29-.72s.42-.34.69-.4c-.07-.02-.11-.03-.13-.03-.19,0-.36.04-.52.12-.15.08-.33.27-.52.58-.19.31-.39.78-.6,1.4l-.66,2.52h-1.59l1.1-3.91c.02-.09.04-.17.04-.23,0-.1-.04-.14-.12-.14-.1,0-.18.04-.26.13-.08.08-.15.23-.23.44l-.21.55h-.17l.25-.7c.22-.62.67-.93,1.35-.93.29,0,.5.08.63.23s.2.35.2.6c0,.08,0,.14,0,.19.17-.38.36-.64.56-.79.2-.15.45-.23.73-.23.27,0,.48.08.64.24,0,0,0,0,0,0Z" fill="#ded9c3"/>
    <path d="M48.36,18.38c.2.18.29.42.29.69s-.1.51-.29.68-.43.26-.72.26c-.24,0-.44-.06-.59-.18s-.22-.28-.22-.49c0-.26.09-.49.26-.67s.4-.3.67-.34c-.05-.05-.12-.07-.22-.07s-.19.02-.28.05c-.09.03-.19.09-.3.17-.15.11-.34.33-.56.64-.22.32-.43.72-.65,1.21s-.41,1.03-.57,1.63l-.43,1.7c-.03.1-.05.21-.05.33,0,.17.06.29.18.34.12.06.31.09.58.11l-.05.18c-.38-.02-.99-.03-1.83-.03-.73,0-1.27,0-1.63.03l.05-.18c.22-.01.38-.04.49-.07s.2-.11.26-.21.13-.27.18-.49l.47-1.84c-.09-.79-.22-1.48-.4-2.06s-.39-.87-.62-.87c-.17,0-.31.14-.41.42l-.15.46h-.2l.19-.58c.13-.38.33-.66.6-.83s.58-.25.93-.25c.45,0,.79.12,1.03.35s.42.57.53,1c.11.43.21,1.04.3,1.83.19-.56.39-1.07.62-1.52s.46-.82.71-1.12c.32-.36.67-.54,1.07-.54.32,0,.56.09.76.27h0s0,0,0,0Z" fill="#ded9c3"/>
    <path d="M48.36,21.65c.23-.52.59-.97,1.06-1.32s1.05-.53,1.73-.53c.52,0,.92.13,1.19.4.27.26.41.64.41,1.13s-.12,1.03-.35,1.55c-.23.52-.59.97-1.06,1.32s-1.05.53-1.73.53c-.52,0-.92-.13-1.19-.4-.27-.26-.41-.64-.41-1.13s.12-1.03.35-1.55h0ZM50.45,20.67c-.26.45-.48.99-.67,1.64-.19.64-.28,1.23-.28,1.75,0,.19.01.32.04.39.03.08.07.11.13.11.16,0,.37-.22.62-.65.25-.44.48-.97.67-1.6.19-.63.28-1.23.28-1.79,0-.21-.01-.35-.04-.42-.03-.07-.06-.11-.11-.11-.17,0-.38.22-.64.67h0Z" fill="#ded9c3"/>
    <path d="M58.02,23.11h.17l-.25.7c-.11.32-.29.55-.52.7s-.49.22-.78.22c-.4,0-.67-.12-.8-.35-.07-.13-.11-.27-.11-.43,0-.14.02-.31.07-.48l.21-.79c-.23.55-.45.98-.66,1.27-.22.3-.43.5-.65.61s-.47.17-.75.17-.48-.06-.62-.19-.22-.32-.22-.56c0-.18.04-.38.12-.61l.88-2.67c.03-.1.05-.17.05-.22,0-.11-.05-.16-.15-.16-.17,0-.33.19-.48.57l-.19.51h-.17l.22-.66c.22-.62.65-.93,1.29-.93.31,0,.54.07.7.21.16.14.24.35.24.63,0,.2-.05.43-.14.7l-.78,2.33c-.05.14-.07.25-.07.35s.03.14.09.14c.14,0,.33-.18.56-.55.22-.36.45-.84.7-1.42s.45-1.19.64-1.81l.12-.46c.66-.01,1.2-.05,1.63-.13l-1.13,4.04c-.04.11-.05.2-.05.26,0,.08.05.12.14.12.1,0,.18-.04.26-.13.08-.08.15-.23.23-.44l.21-.55h0s0,0,0,0h0Z" fill="#ded9c3"/>
    <path d="M63.04,20.05c.15.16.23.37.23.62,0,.31-.1.57-.29.79s-.44.33-.73.33c-.22,0-.39-.06-.51-.17s-.17-.28-.17-.51c0-.26.1-.51.29-.72s.42-.34.69-.4c-.07-.02-.11-.03-.13-.03-.19,0-.36.04-.52.12-.15.08-.33.27-.52.58-.19.31-.39.78-.6,1.4l-.66,2.52h-1.59l1.1-3.91c.02-.09.04-.17.04-.23,0-.1-.04-.14-.12-.14-.1,0-.18.04-.26.13-.08.08-.15.23-.23.44l-.21.55h-.17l.25-.7c.22-.62.67-.93,1.35-.93.29,0,.5.08.63.23s.2.35.2.6c0,.08,0,.14,0,.19.17-.38.36-.64.56-.79.2-.15.45-.23.73-.23.27,0,.48.08.64.24h0Z" fill="#ded9c3"/>
    <path d="M17.25,25.97c-.13.34-.24.69-.34,1.06-.1.35-.16.63-.21.83h-.2c0-.08,0-.18,0-.32,0-.49-.1-.84-.29-1.05-.19-.21-.46-.32-.81-.32h-.03c-.19,0-.33.02-.42.05s-.17.1-.22.2-.11.27-.16.5l-.57,2.13h.25c.27,0,.52-.09.74-.27s.41-.43.55-.74h.2c-.11.34-.21.7-.31,1.1-.08.33-.17.78-.28,1.37h-.2c0-.42-.07-.73-.22-.95s-.34-.33-.61-.33h-.17l-.58,2.16c-.04.15-.06.28-.06.4,0,.14.05.24.16.29s.32.08.61.09l-.04.18c-.4-.02-1-.03-1.79-.03s-1.32,0-1.68.03l.04-.18c.22-.01.38-.04.49-.07s.2-.11.25-.21c.06-.1.12-.27.19-.5l1.19-4.47c.05-.21.07-.34.07-.43,0-.13-.05-.22-.13-.26s-.24-.07-.47-.08l.05-.18c.69.02,1.73.03,3.13.03.87,0,1.48,0,1.86-.03h0Z" fill="#ded9c3"/>
    <path d="M21.15,30.89h.17l-.22.66c-.22.62-.65.93-1.29.93-.36,0-.63-.11-.79-.32-.1-.15-.15-.33-.15-.55,0-.07,0-.12,0-.15-.14.36-.33.63-.56.79s-.5.23-.81.23c-.37,0-.65-.1-.84-.29s-.28-.47-.28-.84c0-.56.15-1.14.45-1.74s.68-1.09,1.13-1.47c.45-.39.89-.59,1.3-.59.34,0,.53.17.56.52l.12-.38c.58,0,1.12-.05,1.63-.14l-1.22,4.04c-.02.08-.04.15-.04.22,0,.11.05.16.14.16.17,0,.33-.19.48-.57l.19-.51h0s0,0,0,0ZM18.67,31.58c.13-.19.27-.54.43-1.03l.65-2.16s0-.07,0-.14c0-.17-.06-.25-.17-.25-.17,0-.37.17-.61.52-.24.34-.45.79-.62,1.32s-.26,1.05-.26,1.56c0,.17.01.3.05.37.03.07.08.11.16.11.13,0,.25-.1.38-.29h0Z" fill="#ded9c3"/>
    <path d="M25.12,29.11c-.19-.25-.29-.52-.29-.81,0-.23.06-.41.19-.54.12-.13.3-.2.52-.2.45,0,.68.3.68.89s-.11,1.22-.33,1.84c-.22.63-.56,1.15-1.01,1.57-.45.42-1,.63-1.64.63-.51,0-.88-.11-1.1-.32s-.33-.48-.33-.79c0-.54.23-1.09.69-1.65s1.11-1.15,1.94-1.78c-.19,0-.34.05-.47.14s-.26.2-.41.35c-.12.12-.22.21-.31.26s-.18.09-.28.09c-.07,0-.15-.02-.26-.07-.09-.04-.15-.06-.22-.06-.07,0-.13.03-.18.08s-.09.14-.12.26l-.06.19h-.17l.2-.66c.18-.65.46-.98.85-.98.07,0,.13,0,.2.03s.13.05.19.08c.1.05.19.09.28.11.09.03.2.04.33.04.21,0,.41-.05.59-.14l.09-.17.19.09c-.39.63-.71,1.31-.97,2.04-.25.73-.38,1.32-.38,1.76,0,.21.03.36.1.46s.17.15.32.15c.44,0,.83-.22,1.17-.67s.6-1,.76-1.64c-.31-.14-.56-.33-.75-.58h-.02Z" fill="#ded9c3"/>
    <path d="M26.77,29.39c.23-.52.59-.97,1.06-1.32s1.05-.53,1.73-.53c.52,0,.92.13,1.19.4.27.26.41.64.41,1.13s-.12,1.03-.35,1.55c-.23.52-.59.97-1.06,1.32s-1.05.53-1.73.53c-.52,0-.92-.13-1.19-.4s-.41-.64-.41-1.13.12-1.03.35-1.55ZM28.87,28.41c-.26.45-.48.99-.67,1.64-.19.64-.28,1.23-.28,1.75,0,.19.01.32.04.39.03.08.07.11.13.11.16,0,.37-.22.62-.65.25-.44.48-.97.67-1.6s.28-1.23.28-1.79c0-.21-.01-.35-.04-.42s-.06-.11-.11-.11c-.17,0-.38.22-.64.67h0Z" fill="#ded9c3"/>
    <path d="M35.9,27.79c.15.16.23.37.23.62,0,.31-.1.57-.29.79s-.44.33-.73.33c-.22,0-.39-.05-.51-.17-.11-.11-.17-.28-.17-.51,0-.26.1-.51.29-.72s.42-.34.69-.4c-.07-.02-.11-.03-.13-.03-.19,0-.36.04-.52.12-.15.08-.33.27-.52.58-.19.31-.39.78-.6,1.4l-.66,2.52h-1.59l1.1-3.91c.02-.09.04-.17.04-.23,0-.1-.04-.14-.12-.14-.1,0-.18.04-.26.13-.08.08-.15.23-.23.44l-.21.55h-.17l.25-.7c.22-.62.67-.93,1.35-.93.29,0,.5.08.63.23s.2.35.2.61c0,.08,0,.14,0,.19.17-.38.36-.64.56-.79.2-.15.45-.23.73-.23.27,0,.48.08.64.24h0Z" fill="#ded9c3"/>
    <path d="M37.06,28.22c0-.1-.04-.15-.13-.15-.1,0-.18.04-.26.13-.08.08-.15.23-.23.44l-.21.55h-.17l.25-.7c.22-.62.67-.93,1.35-.93.33,0,.56.08.71.23.15.15.22.35.22.59,0,.13-.02.28-.07.43l-.94,2.77c-.03.1-.05.17-.05.22,0,.11.05.16.15.16.17,0,.33-.19.48-.57l.19-.51h.17l-.22.66c-.22.62-.65.93-1.29.93-.31,0-.54-.07-.71-.22-.17-.14-.25-.35-.25-.64,0-.19.05-.42.14-.69l.83-2.48c.03-.08.05-.15.05-.22h0ZM37.7,25.55c.2-.16.46-.24.79-.24.26,0,.46.05.6.15.14.1.2.25.2.46,0,.28-.11.5-.32.67s-.47.26-.79.26c-.26,0-.45-.05-.59-.15-.14-.1-.2-.25-.2-.44,0-.32.1-.55.3-.71h0Z" fill="#ded9c3"/>
    <path d="M40.64,31.59c-.02.06-.03.12-.03.17,0,.14.06.21.19.21s.24-.06.36-.19.22-.29.29-.49l.14-.39h.17l-.17.5c-.12.34-.31.61-.55.8s-.54.28-.89.28-.59-.09-.75-.26-.24-.41-.24-.71c0-.15.03-.34.09-.58l.89-3.07h-.82l.05-.18h.83l.38-1.33c.63,0,1.17-.05,1.64-.13l-.42,1.45h.9l-.03.18h-.93l-1.09,3.73s0,0,0,0Z" fill="#ded9c3"/>
    <path d="M45.88,29.67c-.56.37-1.23.65-2.01.83-.02.16-.03.32-.03.46,0,.33.06.56.19.68.13.13.32.19.56.19.15,0,.34-.05.58-.15.23-.1.46-.26.68-.48l.14.07c-.23.34-.54.63-.93.86s-.84.34-1.35.34c-.45,0-.81-.11-1.11-.33-.3-.22-.45-.53-.45-.94,0-.59.15-1.17.45-1.73s.72-1.03,1.24-1.38,1.11-.54,1.74-.54c.34,0,.61.07.81.2.21.14.31.33.31.59,0,.51-.28.94-.84,1.32h0s0,0,0,0ZM44.84,28.11c-.21.26-.4.59-.57,1-.17.41-.3.81-.37,1.23.32-.19.59-.39.83-.61.25-.24.45-.52.6-.82s.22-.62.22-.96c0-.15-.05-.22-.14-.22-.17,0-.35.13-.56.39h0s0,0,0,0Z" fill="#ded9c3"/>
    <path d="M54.28,27.75h-.18c.04-.17.05-.34.05-.5,0-.36-.11-.65-.34-.86s-.55-.31-.96-.31c-.28,0-.52.07-.7.21-.18.14-.27.36-.27.66,0,.26.08.52.23.76.15.24.39.55.7.92.23.27.42.5.56.69.14.19.26.4.36.62s.15.45.15.7c0,.41-.14.75-.42,1.02s-.62.47-1.02.6-.79.19-1.17.19c-.44,0-.77-.03-.99-.09s-.47-.17-.75-.33c-.15-.09-.26-.14-.31-.14-.08,0-.14.03-.19.1s-.11.19-.2.39h-.18c.1-.23.19-.5.28-.82s.2-.77.33-1.34h.18c-.05.15-.08.35-.08.62,0,.46.13.81.38,1.04s.61.35,1.08.35c.39,0,.67-.07.82-.22s.23-.35.23-.61c0-.34-.08-.66-.23-.94-.15-.28-.38-.61-.69-.99-.3-.36-.52-.68-.67-.96-.15-.27-.22-.56-.22-.89,0-.4.12-.73.36-1.01.24-.28.55-.48.91-.61.36-.13.73-.2,1.09-.2.26,0,.49.02.69.07s.35.09.45.13c.09.04.24.11.45.21.03.01.08.04.15.07.07.04.12.05.15.05.05,0,.1-.04.14-.11.05-.07.1-.2.16-.36h.18c-.23.58-.41,1.19-.53,1.83h-.01s.02.02.02.02Z" fill="#ded9c3"/>
    <path d="M56.19,31.59c-.02.06-.03.12-.03.17,0,.14.06.21.19.21s.24-.06.36-.19.22-.29.29-.49l.14-.39h.17l-.17.5c-.12.34-.31.61-.55.8s-.54.28-.89.28-.59-.09-.75-.26-.24-.41-.24-.71c0-.15.03-.34.09-.58l.89-3.07h-.82l.05-.18h.83l.38-1.33c.63,0,1.17-.05,1.64-.13l-.42,1.45h.9l-.03.18h-.93l-1.09,3.73s0,0,0,0Z" fill="#ded9c3"/>
    <path d="M62.01,28.43c0,.52-.17,1.16-.52,1.9-.34.74-.77,1.41-1.26,2-.38.45-.78.81-1.18,1.09s-.82.46-1.23.56c-.21.05-.38.07-.53.07-.24,0-.42-.05-.56-.16-.13-.11-.2-.25-.2-.44s.07-.34.2-.46.31-.19.52-.19c.43,0,.8.26,1.11.79.39-.17.74-.4,1.04-.67l-.73-4.46c-.03-.15-.05-.26-.08-.31s-.06-.08-.11-.08-.11.04-.16.11-.11.22-.2.46l-.19.51h-.17l.22-.66c.12-.34.27-.58.46-.72s.42-.21.7-.21c.3,0,.54.08.71.23s.29.44.35.83l.39,2.88c.4-.58.71-1.19.95-1.85-.28-.15-.51-.35-.68-.59-.17-.24-.25-.5-.25-.77,0-.23.06-.41.19-.54s.3-.2.52-.2c.45,0,.68.29.68.88h0s0-.01,0-.01Z" fill="#ded9c3"/>
    <path d="M63.59,31.75c0,.07.02.12.05.16.03.03.07.05.12.05.06,0,.13-.04.21-.11.08-.07.16-.23.24-.45l.19-.51h.17l-.22.66c-.12.34-.3.59-.53.72s-.48.2-.75.2c-.3,0-.53-.08-.7-.23s-.25-.38-.25-.67c0-.19.04-.4.11-.64l1.38-4.58c.03-.11.05-.19.05-.25,0-.12-.05-.21-.14-.26-.09-.05-.25-.08-.47-.08l.06-.19c.47,0,.9-.04,1.29-.1.38-.06.76-.15,1.12-.27l-1.9,6.4c-.02.06-.03.12-.03.17h0,0Z" fill="#ded9c3"/>
    <path d="M68.62,29.67c-.56.37-1.23.65-2.01.83-.02.16-.03.32-.03.46,0,.33.06.56.19.68.13.13.32.19.56.19.15,0,.34-.05.58-.15.23-.1.46-.26.68-.48l.14.07c-.23.34-.54.63-.93.86s-.84.34-1.35.34c-.45,0-.81-.11-1.11-.33-.3-.22-.45-.53-.45-.94,0-.59.15-1.17.45-1.73s.72-1.03,1.24-1.38,1.11-.54,1.74-.54c.34,0,.61.07.81.2.21.14.31.33.31.59,0,.51-.28.94-.84,1.32h0s0,0,0,0ZM67.59,28.11c-.21.26-.4.59-.57,1-.17.41-.3.81-.37,1.23.32-.19.59-.39.83-.61.25-.24.45-.52.6-.82.14-.3.22-.62.22-.96,0-.15-.05-.22-.14-.22-.17,0-.35.13-.56.39h0,0Z" fill="#ded9c3"/>
  </g>
  <g>
    <g>
      <g>
        <path d="M22.46,3.52h-.41c-.63,0-1.13-.51-1.13-1.13v-1.25C20.92.51,21.43,0,22.05,0h.41C23.09,0,23.59.51,23.59,1.13v1.25c0,.63-.51,1.13-1.13,1.13ZM22.05.48c-.36,0-.66.29-.66.66v1.25c0,.36.29.66.66.66h.41c.36,0,.66-.29.66-.66v-1.25c0-.36-.29-.66-.66-.66,0,0-.41,0-.41,0Z" fill="#ded9c3"/>
        <path d="M22.46,9.32h-.41c-.63,0-1.13-.51-1.13-1.13v-1.25c0-.63.51-1.13,1.13-1.13h.41c.63,0,1.13.51,1.13,1.13v1.25c0,.63-.51,1.13-1.13,1.13ZM22.05,6.27c-.36,0-.66.29-.66.66v1.25c0,.36.29.66.66.66h.41c.36,0,.66-.29.66-.66v-1.25c0-.36-.29-.66-.66-.66h-.41Z" fill="#ded9c3"/>
      </g>
      <path d="M22.25,6.7c-.13,0-.24-.11-.24-.24v-3.61c0-.13.11-.24.24-.24s.24.11.24.24v3.61c0,.13-.11.24-.24.24Z" fill="#ded9c3"/>
    </g>
    <g>
      <g>
        <path d="M57.68,3.52h-.41c-.63,0-1.13-.51-1.13-1.13v-1.25C56.14.51,56.65,0,57.28,0h.41C58.31,0,58.82.51,58.82,1.13v1.25c0,.63-.51,1.13-1.13,1.13ZM57.28.48c-.36,0-.66.29-.66.66v1.25c0,.36.29.66.66.66h.41c.36,0,.66-.29.66-.66v-1.25c0-.36-.29-.66-.66-.66,0,0-.41,0-.41,0Z" fill="#ded9c3"/>
        <path d="M57.68,9.32h-.41c-.63,0-1.13-.51-1.13-1.13v-1.25c0-.63.51-1.13,1.13-1.13h.41c.63,0,1.13.51,1.13,1.13v1.25c0,.63-.51,1.13-1.13,1.13ZM57.28,6.27c-.36,0-.66.29-.66.66v1.25c0,.36.29.66.66.66h.41c.36,0,.66-.29.66-.66v-1.25c0-.36-.29-.66-.66-.66h-.41Z" fill="#ded9c3"/>
      </g>
      <path d="M57.48,6.7c-.13,0-.24-.11-.24-.24v-3.61c0-.13.11-.24.24-.24s.24.11.24.24v3.61c0,.13-.11.24-.24.24Z" fill="#ded9c3"/>
    </g>
  </g>
</svg>