<?xml version="1.0" encoding="UTF-8"?>
<svg id="_レイヤー_2" xmlns="http://www.w3.org/2000/svg" width="281.06" height="81.77" version="1.1" viewBox="0 0 281.06 81.77">
  <!-- Generator: Adobe Illustrator 29.4.0, SVG Export Plug-In . SVG Version: 2.1.0 Build 152)  -->
  <path d="M280.49,29.35c-.09-.09-.21-.14-.35-.14-2.65,0-5.05-1.07-6.8-2.82s-2.82-4.13-2.82-6.8c0-.12-.05-.26-.14-.35s-.21-.14-.35-.14H11.03c-.12,0-.26.05-.35.14s-.14.22-.14.35c0,2.65-1.07,5.05-2.82,6.8s-4.13,2.82-6.8,2.82c-.12,0-.26.05-.35.14s-.14.22-.14.35v40.35c0,.12.05.26.14.35s.21.14.35.14c2.65,0,5.05,1.07,6.8,2.82s2.82,4.13,2.82,6.8c0,.12.05.26.14.35s.21.14.35.14h259.01c.12,0,.26-.05.35-.14s.14-.22.14-.35c0-2.65,1.07-5.05,2.82-6.8s4.13-2.82,6.8-2.82c.12,0,.26-.05.35-.14s.14-.22.14-.35V29.69c0-.12-.05-.26-.14-.35h-.01Z" fill="#2b3948"/>
  <g>
    <path d="M266.79,23.73c-.05-.16-.19-.24-.35-.24H63.69v.02H14.62c-.16,0-.29.1-.35.24-1.37,4.39-4.83,7.85-9.22,9.22-.16.05-.24.19-.24.35v33.14c0,.16.1.29.24.35,4.39,1.37,7.85,4.83,9.22,9.22.05.16.19.24.35.24h202.75v-.02h49.07c.16,0,.29-.1.35-.24,1.37-4.39,4.83-7.85,9.22-9.22.16-.05.24-.19.24-.35v-33.14c0-.16-.1-.29-.24-.35-4.39-1.37-7.85-4.83-9.22-9.22ZM275.55,66.19c-4.41,1.45-7.91,4.93-9.36,9.34H63.7v.02H14.89c-1.45-4.41-4.95-7.89-9.36-9.36v-32.64c4.41-1.45,7.91-4.93,9.36-9.34h202.49v-.02h48.81c1.45,4.41,4.95,7.89,9.36,9.36v32.64Z" fill="#ded9c3"/>
    <path d="M280.49,29.35c-.09-.09-.21-.14-.35-.14-2.65,0-5.05-1.07-6.8-2.82s-2.82-4.13-2.82-6.8c0-.12-.05-.26-.14-.35s-.21-.14-.35-.14H11.03c-.12,0-.26.05-.35.14s-.14.22-.14.35c0,2.65-1.07,5.05-2.82,6.8s-4.13,2.82-6.8,2.82c-.12,0-.26.05-.35.14s-.14.22-.14.35v40.35c0,.12.05.26.14.35s.21.14.35.14c2.65,0,5.05,1.07,6.8,2.82s2.82,4.13,2.82,6.8c0,.12.05.26.14.35s.21.14.35.14h259.01c.12,0,.26-.05.35-.14s.14-.22.14-.35c0-2.65,1.07-5.05,2.82-6.8s4.13-2.82,6.8-2.82c.12,0,.26-.05.35-.14s.14-.22.14-.35V29.69c0-.12-.05-.26-.14-.35h-.01ZM279.66,69.56c-2.73.12-5.19,1.28-6.99,3.1-1.82,1.8-2.98,4.27-3.1,6.99H11.5c-.12-2.73-1.28-5.19-3.1-6.99-1.8-1.8-4.27-2.96-6.99-3.1V30.18c2.73-.12,5.19-1.28,6.99-3.1,1.82-1.8,2.98-4.27,3.1-6.99h258.08c.12,2.73,1.28,5.19,3.1,6.99,1.8,1.8,4.27,2.96,6.99,3.1v39.38h0Z" fill="#ded9c3"/>
  </g>
  <g>
    <path d="M36.36,36.36c-.33.87-.58,1.65-.75,2.33-.08.29-.17.7-.26,1.23h-.44c0-1.13-.18-1.93-.57-2.4-.4-.47-1-.7-1.82-.7h-.06c-.46,0-.81.04-1.04.11s-.41.22-.54.44-.26.59-.4,1.09l-1.25,4.67h.36c.62,0,1.19-.22,1.7-.65.51-.44.89-.96,1.13-1.56h.44c-.21.65-.39,1.27-.53,1.88l-.14.53c-.09.36-.18.71-.26,1.07s-.17.8-.26,1.34h-.44c0-.57-.15-1.08-.45-1.53-.3-.45-.79-.68-1.46-.68h-.18l-1.27,4.75c-.12.5-.18.82-.18.97,0,.28.1.46.29.54.19.09.53.13,1.02.13h.26c.95,0,1.75-.26,2.4-.78.65-.52,1.29-1.43,1.93-2.72h.44c-.11.29-.24.76-.42,1.42-.22.78-.4,1.62-.51,2.53-.9-.04-2.39-.06-4.47-.06-3.06,0-5.35.02-6.88.06l.08-.4c.47-.03.83-.08,1.07-.16s.43-.23.56-.45.27-.59.41-1.09l2.61-9.81c.11-.45.16-.76.16-.95,0-.29-.1-.48-.29-.57s-.54-.15-1.04-.18l.1-.4c1.52.04,3.8.06,6.86.06,1.9,0,3.26-.02,4.09-.06h0Z" fill="#131f2b"/>
    <path d="M46.34,47.15h.38l-.49,1.44c-.47,1.36-1.42,2.04-2.83,2.04-.84,0-1.44-.24-1.78-.71-.22-.3-.34-.67-.34-1.11s.11-.95.32-1.58l1.7-5.12c.1-.3.16-.56.16-.77s-.07-.3-.2-.3c-.34,0-.78.46-1.32,1.38-.54.92-1.09,2.1-1.65,3.54-.56,1.44-1.03,2.88-1.41,4.33v-.04l-.02.1h-3.5l2.41-8.58c.08-.26.12-.45.12-.57,0-.17-.1-.26-.3-.26-.21,0-.4.09-.57.28-.17.18-.34.51-.51.97l-.45,1.21h-.38l.55-1.54c.25-.7.59-1.21,1.03-1.54s1-.49,1.68-.49c.74,0,1.27.17,1.59.51s.48.79.48,1.34c0,.3-.04.61-.12.91l-.53,2.06c.51-1.29,1-2.28,1.47-2.98.47-.69.95-1.17,1.43-1.44.49-.27,1.04-.41,1.66-.41,1.29,0,1.94.55,1.94,1.64,0,.36-.09.8-.26,1.34l-1.96,5.87c-.07.22-.1.38-.1.47,0,.24.11.36.34.36.38,0,.73-.42,1.05-1.25l.42-1.11h-.01Z" fill="#131f2b"/>
    <path d="M51.34,48.67c-.04.13-.06.26-.06.38,0,.3.14.46.42.46s.53-.14.79-.43c.26-.28.47-.64.63-1.08l.32-.85h.38l-.38,1.09c-.26.76-.67,1.35-1.21,1.77-.54.42-1.19.62-1.94.62s-1.29-.19-1.65-.57-.54-.9-.54-1.56c0-.34.07-.76.2-1.27l1.94-6.74h-1.8l.1-.4h1.82l.83-2.91c1.38,0,2.58-.11,3.6-.28l-.93,3.18h1.98l-.06.4h-2.04l-2.39,8.19h0Z" fill="#131f2b"/>
    <path d="M62.84,44.45c-1.23.82-2.7,1.43-4.4,1.83-.04.36-.06.69-.06,1.01,0,.73.14,1.23.42,1.5s.69.42,1.23.42c.33,0,.75-.11,1.27-.34.52-.22,1.02-.57,1.49-1.05l.32.16c-.5.75-1.18,1.38-2.04,1.89s-1.85.76-2.97.76c-.98,0-1.79-.24-2.44-.73-.65-.49-.98-1.17-.98-2.06,0-1.29.33-2.56,1-3.81s1.58-2.26,2.73-3.04c1.15-.78,2.43-1.18,3.83-1.18.74,0,1.33.15,1.78.44.45.3.67.73.67,1.3,0,1.11-.62,2.07-1.85,2.9ZM60.57,41.04c-.45.57-.87,1.3-1.26,2.19-.38.9-.65,1.79-.81,2.69.7-.41,1.3-.86,1.82-1.34.55-.54.99-1.14,1.31-1.8s.48-1.36.48-2.1c0-.33-.11-.49-.32-.49-.37,0-.78.28-1.24.85,0,0,.02,0,.02,0Z" fill="#131f2b"/>
    <path d="M74.48,40.36c.34.36.51.82.51,1.37,0,.67-.21,1.25-.63,1.74s-.96.73-1.6.73c-.49,0-.86-.13-1.11-.38s-.38-.62-.38-1.11c0-.58.21-1.11.63-1.58s.93-.76,1.52-.87c-.16-.04-.25-.06-.28-.06-.42,0-.8.09-1.15.26-.34.17-.72.59-1.14,1.27-.42.67-.85,1.7-1.31,3.08l-1.44,5.54h-3.5l2.41-8.58c.05-.2.08-.37.08-.51,0-.21-.09-.32-.26-.32-.21,0-.4.09-.57.28-.17.18-.34.51-.51.97l-.45,1.21h-.38l.55-1.54c.49-1.36,1.47-2.04,2.95-2.04.63,0,1.09.17,1.38.51s.44.78.44,1.32c0,.18,0,.32-.02.42.38-.83.79-1.41,1.24-1.75.44-.34.98-.5,1.61-.5.59,0,1.06.18,1.4.54h0Z" fill="#131f2b"/>
    <path d="M95.74,36.68c.43.4.64.91.64,1.51s-.21,1.12-.63,1.5-.95.57-1.58.57c-.54,0-.97-.13-1.29-.39s-.47-.62-.47-1.08c0-.58.19-1.07.58-1.47s.88-.66,1.47-.76c-.11-.11-.27-.16-.49-.16s-.42.04-.61.11c-.2.07-.42.19-.65.37-.34.25-.75.72-1.23,1.41-.47.69-.95,1.58-1.43,2.65s-.9,2.26-1.26,3.57l-.95,3.74c-.07.22-.1.46-.1.71,0,.38.13.64.39.76.26.13.68.2,1.28.23l-.1.4c-.83-.04-2.18-.06-4.03-.06-1.61,0-2.8.02-3.58.06l.1-.4c.47-.03.83-.08,1.07-.16s.43-.23.57-.46.28-.59.4-1.08l1.03-4.05c-.2-1.74-.49-3.25-.88-4.52s-.85-1.91-1.37-1.91c-.38,0-.68.31-.89.93l-.34,1.01h-.44l.42-1.27c.28-.84.71-1.45,1.31-1.82s1.27-.55,2.04-.55c.98,0,1.73.26,2.26.77s.92,1.25,1.17,2.19c.24.95.46,2.29.66,4.01.41-1.24.86-2.35,1.36-3.34s1.02-1.81,1.56-2.45c.69-.79,1.47-1.19,2.35-1.19.69,0,1.24.2,1.67.6v.02h0Z" fill="#131f2b"/>
    <path d="M95.73,43.86c.51-1.15,1.29-2.12,2.32-2.89s2.3-1.16,3.79-1.16c1.15,0,2.02.29,2.62.87.6.58.9,1.41.9,2.49s-.26,2.26-.77,3.41c-.51,1.15-1.29,2.12-2.32,2.89s-2.3,1.16-3.79,1.16c-1.15,0-2.02-.29-2.62-.87-.6-.58-.9-1.41-.9-2.49s.26-2.26.77-3.41ZM100.34,41.69c-.57.99-1.06,2.18-1.47,3.59-.42,1.4-.62,2.69-.62,3.85,0,.41.03.7.09.86.06.17.15.25.29.25.36,0,.81-.48,1.37-1.43.56-.96,1.05-2.13,1.46-3.51.42-1.38.62-2.7.62-3.93,0-.46-.03-.77-.09-.92s-.14-.23-.25-.23c-.37,0-.84.49-1.4,1.48h0Z" fill="#131f2b"/>
    <path d="M116.94,47.05h.38l-.55,1.54c-.25.7-.63,1.21-1.13,1.54s-1.07.49-1.7.49c-.87,0-1.46-.26-1.76-.77-.16-.28-.24-.59-.24-.95,0-.32.05-.67.16-1.05l.45-1.72c-.5,1.21-.99,2.14-1.45,2.79-.47.65-.94,1.09-1.42,1.33-.48.24-1.03.37-1.65.37s-1.05-.14-1.37-.42-.48-.69-.48-1.23c0-.4.08-.84.26-1.34l1.92-5.87c.07-.22.1-.38.1-.47,0-.24-.11-.36-.34-.36-.38,0-.73.42-1.05,1.25l-.42,1.11h-.38l.49-1.44c.47-1.36,1.42-2.04,2.83-2.04.67,0,1.19.16,1.55.46.36.31.54.77.54,1.39,0,.44-.1.95-.3,1.54l-1.7,5.12c-.11.3-.16.56-.16.77s.07.3.2.3c.32,0,.72-.4,1.22-1.2.49-.8,1-1.84,1.53-3.12s1-2.61,1.4-3.98l.26-1.01c1.44-.03,2.63-.12,3.58-.28l-2.49,8.86c-.08.25-.12.44-.12.57,0,.17.1.26.3.26.21,0,.4-.09.57-.28.17-.18.34-.51.51-.97l.46-1.21s0,.02,0,.02Z" fill="#131f2b"/>
    <path d="M127.98,40.36c.34.36.51.82.51,1.37,0,.67-.21,1.25-.63,1.74s-.96.73-1.6.73c-.49,0-.86-.13-1.11-.38s-.38-.62-.38-1.11c0-.58.21-1.11.63-1.58s.93-.76,1.52-.87c-.16-.04-.25-.06-.28-.06-.42,0-.8.09-1.15.26-.34.17-.72.59-1.14,1.27-.42.67-.85,1.7-1.32,3.08l-1.44,5.54h-3.5l2.41-8.58c.05-.2.08-.37.08-.51,0-.21-.09-.32-.26-.32-.21,0-.4.09-.57.28s-.34.51-.51.97l-.46,1.21h-.38l.55-1.54c.49-1.36,1.47-2.04,2.95-2.04.63,0,1.09.17,1.38.51s.44.78.44,1.32c0,.18,0,.32-.02.42.38-.83.79-1.41,1.24-1.75.44-.34.98-.5,1.61-.5.59,0,1.06.18,1.4.54,0,0,.03,0,.03,0Z" fill="#131f2b"/>
    <path d="M146.66,36.36c-.29.74-.54,1.52-.75,2.33-.21.78-.36,1.38-.46,1.82h-.43c0-.17.02-.4.02-.69,0-1.08-.21-1.85-.63-2.31-.42-.46-1.01-.69-1.78-.69h-.06c-.41,0-.72.04-.93.11-.21.07-.38.22-.5.44-.12.22-.24.59-.36,1.09l-1.25,4.67h.55c.59,0,1.14-.2,1.63-.59.49-.4.89-.94,1.2-1.62h.43c-.24.74-.46,1.54-.67,2.41-.17.71-.38,1.71-.61,3.01h-.43c0-.91-.16-1.6-.47-2.09-.32-.48-.76-.72-1.34-.72h-.38l-1.27,4.75c-.09.33-.14.62-.14.87,0,.32.12.53.36.63.24.11.69.17,1.34.2l-.08.4c-.88-.04-2.2-.06-3.93-.06s-2.89.02-3.68.06l.08-.4c.47-.03.83-.08,1.07-.16s.43-.23.56-.45c.14-.22.27-.59.41-1.09l2.61-9.81c.11-.45.16-.76.16-.95,0-.29-.1-.48-.29-.57-.19-.09-.54-.15-1.04-.18l.1-.4c1.52.04,3.8.06,6.86.06,1.9,0,3.26-.02,4.09-.06h0Z" fill="#131f2b"/>
    <path d="M155.22,47.15h.38l-.49,1.44c-.47,1.36-1.42,2.04-2.83,2.04-.8,0-1.38-.23-1.72-.69-.22-.33-.34-.73-.34-1.21,0-.15,0-.26.02-.34-.32.8-.73,1.38-1.23,1.72s-1.09.51-1.78.51c-.82,0-1.43-.21-1.84-.63s-.61-1.03-.61-1.84c0-1.24.33-2.51,1-3.82.67-1.3,1.5-2.39,2.49-3.24,1-.86,1.95-1.29,2.86-1.29.75,0,1.16.38,1.23,1.13l.26-.83c1.28,0,2.47-.11,3.58-.3l-2.67,8.86c-.05.17-.08.33-.08.47,0,.24.1.36.32.36.38,0,.73-.42,1.05-1.25l.42-1.11-.02.02h0ZM149.79,48.65c.28-.42.59-1.18.95-2.27l1.42-4.75c0-.07.02-.16.02-.3,0-.37-.13-.55-.38-.55-.37,0-.82.38-1.35,1.15-.53.76-.99,1.73-1.37,2.89-.38,1.16-.57,2.3-.57,3.42,0,.38.03.65.1.81s.18.24.36.24c.28,0,.55-.21.83-.63h0Z" fill="#131f2b"/>
    <path d="M163.94,43.23c-.42-.55-.63-1.14-.63-1.79,0-.5.13-.9.41-1.19s.65-.44,1.14-.44c1,0,1.5.65,1.5,1.94s-.24,2.67-.73,4.04c-.49,1.38-1.23,2.53-2.21,3.45-.99.92-2.19,1.38-3.6,1.38-1.12,0-1.92-.23-2.41-.7s-.73-1.05-.73-1.75c0-1.19.5-2.39,1.51-3.62s2.43-2.52,4.26-3.9c-.41,0-.75.11-1.03.3-.28.18-.57.44-.89.77-.26.26-.49.46-.67.58-.18.12-.39.19-.61.19-.14,0-.34-.05-.57-.16-.18-.09-.34-.14-.47-.14-.16,0-.29.06-.39.18s-.19.31-.27.57l-.14.42h-.38l.43-1.44c.4-1.42,1.01-2.14,1.86-2.14.15,0,.29.02.44.07.14.05.28.1.42.17.21.11.42.19.61.25.2.06.43.09.71.09.46,0,.89-.1,1.29-.3l.2-.38.42.2c-.86,1.38-1.57,2.88-2.12,4.48-.56,1.6-.84,2.89-.84,3.87,0,.46.07.8.21,1.02s.37.33.7.33c.96,0,1.82-.49,2.58-1.48.76-.99,1.31-2.19,1.67-3.6-.67-.3-1.22-.73-1.64-1.28h-.03,0Z" fill="#131f2b"/>
    <path d="M167.58,43.86c.51-1.15,1.29-2.12,2.32-2.89,1.04-.77,2.3-1.16,3.79-1.16,1.15,0,2.02.29,2.62.87s.9,1.41.9,2.49-.26,2.26-.77,3.41c-.51,1.15-1.29,2.12-2.32,2.89-1.04.77-2.3,1.16-3.79,1.16-1.15,0-2.02-.29-2.62-.87-.6-.58-.9-1.41-.9-2.49s.26-2.26.77-3.41ZM172.19,41.69c-.57.99-1.06,2.18-1.47,3.59-.42,1.4-.62,2.69-.62,3.85,0,.41.03.7.09.86.06.17.15.25.29.25.36,0,.81-.48,1.37-1.43.56-.96,1.05-2.13,1.46-3.51.42-1.38.62-2.7.62-3.93,0-.46-.03-.77-.09-.92-.06-.15-.14-.23-.25-.23-.37,0-.84.49-1.4,1.48h0Z" fill="#131f2b"/>
    <path d="M187.63,40.36c.34.36.51.82.51,1.37,0,.67-.21,1.25-.63,1.74s-.96.73-1.6.73c-.49,0-.86-.13-1.11-.38s-.38-.62-.38-1.11c0-.58.21-1.11.63-1.58s.93-.76,1.52-.87c-.16-.04-.25-.06-.28-.06-.42,0-.8.09-1.15.26-.34.17-.72.59-1.14,1.27s-.85,1.7-1.31,3.08l-1.44,5.54h-3.5l2.41-8.58c.05-.2.08-.37.08-.51,0-.21-.09-.32-.26-.32-.21,0-.4.09-.57.28-.17.18-.34.51-.51.97l-.45,1.21h-.38l.55-1.54c.49-1.36,1.47-2.04,2.95-2.04.63,0,1.09.17,1.38.51s.43.78.43,1.32c0,.18,0,.32-.02.42.38-.83.79-1.41,1.24-1.75.44-.34.98-.5,1.61-.5.59,0,1.06.18,1.4.54,0,0,.02,0,.02,0Z" fill="#131f2b"/>
    <path d="M190.18,41.28c0-.22-.09-.34-.28-.34-.21,0-.4.09-.57.28s-.34.51-.51.97l-.46,1.21h-.38l.55-1.54c.49-1.36,1.47-2.04,2.95-2.04.71,0,1.23.17,1.56.51s.49.78.49,1.3c0,.29-.05.61-.16.95l-2.06,6.09c-.07.22-.1.38-.1.47,0,.24.11.36.34.36.38,0,.73-.42,1.05-1.25l.42-1.11h.38l-.49,1.44c-.47,1.36-1.42,2.04-2.83,2.04-.67,0-1.19-.16-1.56-.47s-.55-.78-.55-1.4c0-.42.1-.93.3-1.52l1.82-5.46c.07-.17.1-.34.1-.49h0ZM191.57,35.43c.44-.36,1.03-.53,1.75-.53.58,0,1.02.11,1.31.34.3.22.45.56.45,1.01,0,.61-.23,1.1-.69,1.48s-1.04.57-1.74.57c-.57,0-1-.11-1.3-.34-.3-.22-.44-.55-.44-.97,0-.69.22-1.21.66-1.56h0Z" fill="#131f2b"/>
    <path d="M198.03,48.67c-.04.13-.06.26-.06.38,0,.3.14.46.42.46s.53-.14.79-.43c.26-.28.47-.64.63-1.08l.32-.85h.38l-.38,1.09c-.26.76-.67,1.35-1.21,1.77-.54.42-1.19.62-1.94.62s-1.29-.19-1.65-.57-.54-.9-.54-1.56c0-.34.07-.76.2-1.27l1.94-6.74h-1.8l.1-.4h1.82l.83-2.91c1.38,0,2.58-.11,3.6-.28l-.93,3.18h1.98l-.06.4h-2.04l-2.39,8.19h-.01Z" fill="#131f2b"/>
    <path d="M209.53,44.45c-1.23.82-2.7,1.43-4.4,1.83-.04.36-.06.69-.06,1.01,0,.73.14,1.23.42,1.5.28.28.68.42,1.23.42.33,0,.75-.11,1.28-.34s1.02-.57,1.49-1.05l.32.16c-.5.75-1.18,1.38-2.04,1.89s-1.85.76-2.97.76c-.98,0-1.79-.24-2.44-.73-.65-.49-.98-1.17-.98-2.06,0-1.29.33-2.56,1-3.81s1.58-2.26,2.73-3.04c1.15-.78,2.43-1.18,3.83-1.18.74,0,1.33.15,1.78.44.45.3.67.73.67,1.3,0,1.11-.62,2.07-1.85,2.9h-.01ZM207.25,41.04c-.46.57-.87,1.3-1.26,2.19-.38.9-.65,1.79-.81,2.69.7-.41,1.3-.86,1.82-1.34.55-.54.99-1.14,1.31-1.8.32-.66.48-1.36.48-2.1,0-.33-.11-.49-.32-.49-.37,0-.78.28-1.24.85,0,0,.02,0,.02,0Z" fill="#131f2b"/>
    <path d="M227.98,40.25h-.39c.08-.38.12-.74.12-1.09,0-.8-.25-1.43-.75-1.88s-1.2-.67-2.1-.67c-.62,0-1.13.16-1.53.46-.4.31-.6.79-.6,1.45,0,.58.17,1.14.5,1.67.34.53.85,1.21,1.55,2.03.51.59.93,1.1,1.24,1.51s.57.87.79,1.36.33,1.01.33,1.53c0,.9-.31,1.64-.92,2.24-.61.6-1.36,1.04-2.25,1.32s-1.75.43-2.58.43c-.96,0-1.69-.07-2.18-.2s-1.04-.37-1.65-.71c-.34-.2-.57-.3-.67-.3-.17,0-.31.07-.42.21s-.25.43-.44.86h-.4c.21-.5.42-1.1.62-1.81.2-.71.45-1.68.72-2.94h.4c-.12.33-.18.78-.18,1.36,0,1.02.28,1.78.84,2.29.56.51,1.35.77,2.38.77.86,0,1.46-.16,1.8-.48s.51-.77.51-1.33c0-.75-.17-1.44-.5-2.06-.34-.62-.84-1.34-1.51-2.17-.65-.8-1.13-1.5-1.46-2.1-.33-.59-.49-1.24-.49-1.94,0-.87.27-1.61.8-2.21.53-.61,1.2-1.06,2-1.35s1.6-.44,2.4-.44c.57,0,1.07.05,1.52.16s.77.2.98.29c.2.09.54.24,1,.46.07.03.17.08.33.16s.26.12.33.12c.11,0,.21-.08.31-.25.1-.16.21-.43.35-.8h.4c-.5,1.27-.89,2.61-1.17,4.03,0,0-.03.02-.03.02Z" fill="#131f2b"/>
    <path d="M232.17,48.67c-.04.13-.06.26-.06.38,0,.3.14.46.42.46s.53-.14.79-.43c.26-.28.47-.64.63-1.08l.32-.85h.38l-.38,1.09c-.26.76-.67,1.35-1.21,1.77-.54.42-1.19.62-1.94.62s-1.29-.19-1.65-.57-.54-.9-.54-1.56c0-.34.07-.76.2-1.27l1.94-6.74h-1.8l.1-.4h1.82l.83-2.91c1.38,0,2.58-.11,3.6-.28l-.93,3.18h1.98l-.06.4h-2.04l-2.39,8.19h-.01Z" fill="#131f2b"/>
    <path d="M244.97,41.73c0,1.15-.38,2.53-1.14,4.16s-1.68,3.09-2.76,4.38c-.83.99-1.7,1.79-2.6,2.4s-1.8,1.02-2.7,1.24c-.45.11-.84.16-1.17.16-.53,0-.93-.12-1.22-.35-.28-.23-.43-.55-.43-.96s.15-.73.44-1.02c.29-.28.67-.43,1.15-.43.95,0,1.76.58,2.43,1.74.86-.38,1.62-.88,2.29-1.48l-1.6-9.79c-.07-.34-.12-.57-.17-.68s-.13-.17-.25-.17c-.13,0-.25.08-.35.24s-.25.49-.45,1.01l-.42,1.11h-.38l.49-1.44c.26-.75.6-1.28,1.02-1.58.42-.3.93-.45,1.53-.45.66,0,1.18.17,1.56.52.38.35.64.96.77,1.83l.85,6.33c.87-1.27,1.56-2.62,2.08-4.07-.62-.34-1.12-.78-1.49-1.31-.38-.53-.56-1.09-.56-1.68,0-.5.13-.9.41-1.19s.65-.44,1.14-.44c1,0,1.5.64,1.5,1.92,0,0,.03,0,.03,0Z" fill="#131f2b"/>
    <path d="M248.41,49.05c0,.16.04.27.11.35.07.07.16.11.27.11.13,0,.29-.08.46-.25.18-.17.36-.5.54-1l.42-1.11h.38l-.49,1.44c-.26.76-.65,1.29-1.17,1.59-.51.3-1.06.44-1.64.44-.66,0-1.17-.17-1.54-.51s-.55-.84-.55-1.48c0-.41.08-.88.24-1.4l3.02-10.06c.07-.24.1-.42.1-.55,0-.26-.1-.45-.31-.57-.21-.12-.55-.18-1.04-.18l.14-.42c1.04,0,1.98-.09,2.83-.22s1.67-.33,2.47-.59l-4.17,14.04c-.04.13-.06.26-.06.38h-.01Z" fill="#131f2b"/>
    <path d="M259.47,44.45c-1.23.82-2.7,1.43-4.4,1.83-.04.36-.06.69-.06,1.01,0,.73.14,1.23.42,1.5.28.28.68.42,1.23.42.33,0,.75-.11,1.28-.34.52-.22,1.02-.57,1.49-1.05l.32.16c-.5.75-1.18,1.38-2.04,1.89-.86.51-1.85.76-2.97.76-.98,0-1.79-.24-2.44-.73-.65-.49-.98-1.17-.98-2.06,0-1.29.33-2.56,1-3.81s1.57-2.26,2.73-3.04c1.15-.78,2.43-1.18,3.83-1.18.74,0,1.33.15,1.78.44.45.3.67.73.67,1.3,0,1.11-.62,2.07-1.85,2.9h0ZM257.2,41.04c-.46.57-.87,1.3-1.26,2.19-.38.9-.65,1.79-.81,2.69.7-.41,1.3-.86,1.82-1.34.55-.54.99-1.14,1.31-1.8s.48-1.36.48-2.1c0-.33-.11-.49-.32-.49-.37,0-.78.28-1.24.85,0,0,.02,0,.02,0Z" fill="#131f2b"/>
  </g>
  <g>
    <path d="M87.66,65.51c0,.13.05.27.05.38,0,.31-.24.31-.27.31-.06,0-.08,0-.4-.15-.15-.07-.42-.19-.62-.24-.05-.01-.08-.03-.09-.06-.25.2-.4.31-.57.31-.13,0-.2-.09-.2-.19,0-.07.05-.15.12-.19.09-.05.35-.16,1.56-1.1-.06-.58-.08-1.06-.08-1.52v-.19c-.14.06-.47.12-.6.12-.06,0-.57,0-.57-.28,0-.09.07-.17.19-.17.05,0,.09,0,.14.02.08.03.19.06.29.06.12,0,.28-.02.57-.13,0-.32.05-.64.09-.97.02-.15.12-.21.22-.21s.2.08.2.2v.07c-.06.25-.12.5-.15.76.22-.09.43-.2.53-.29.05-.05.1-.06.15-.06.09,0,.19.07.19.16,0,.22-.44.39-.9.58v.39c0,.36.02.76.06,1.19.66-.49,1.18-.76,1.84-.76.71,0,1.04.39,1.04.87,0,.73-.81,1.47-1.53,1.47-.37,0-.62-.2-.62-.58,0-.03.02-.6.31-.6.09,0,.19.07.19.17,0,.03,0,.08-.03.12-.06.1-.08.2-.08.28,0,.15.09.25.28.25.47,0,1.1-.57,1.1-1.09,0-.29-.2-.54-.72-.54-.56,0-1.04.29-1.74.81.02.24.06.5.08.78h0ZM86.55,65.57c.14.03.43.13.6.19.05.01.08.02.1.02.05,0,.07-.03.07-.13v-.17c-.02-.17-.05-.34-.06-.5-.19.14-.43.34-.73.59h.02-.01ZM90.79,62.75c-.13-.15-.37-.31-.65-.31-.22,0-.46.09-.68.36-.05.05-.09.07-.15.07-.09,0-.19-.06-.19-.15,0-.15.39-.61,1.06-.61.57,0,.94.34.94.52,0,.1-.08.2-.19.2-.05,0-.1-.02-.15-.08h0Z" fill="#ded9c3"/>
    <path d="M92.77,64.69c-.03.09-.12.15-.2.15-.09,0-.17-.06-.17-.15v-.08c.25-.69.44-1.48.57-2.26h-.64c-.1,0-.15-.07-.15-.14,0-.08.06-.16.15-.16h.69c.07-.46.13-.91.15-1.32,0-.12.09-.16.17-.16.09,0,.2.06.2.16,0,.02-.06.59-.17,1.31h.54c.38,0,.58.22.58.54,0,.59-.15,1.37-.45,2.05.09.05.75.37.75.62,0,.12-.08.21-.19.21-.05,0-.09-.01-.14-.06-.17-.17-.37-.32-.59-.45-.57,1.05-1.41,1.47-1.55,1.47-.12,0-.2-.1-.2-.2,0-.06.02-.12.09-.14.64-.28,1.06-.75,1.35-1.27-.24-.1-.51-.19-.8-.23l-.05.14.02-.03h.01ZM94.16,62.63c0-.17-.09-.29-.3-.29h-.51c-.12.65-.27,1.31-.45,1.92.29.03.58.12.86.22.32-.73.39-1.47.39-1.86h.01ZM96.97,63.75c.02.17.03.35.03.53,0,.35-.05.71-.12,1.09-.12.56-.49,1.03-1.2,1.03-.17,0-.37-.02-.59-.09-.1-.02-.15-.12-.15-.2,0-.09.06-.19.16-.19h.06c.2.07.38.09.53.09.49,0,.74-.31.83-.75.08-.36.12-.71.12-1.04,0-.17,0-.34-.02-.49h-1.8c-.12,0-.16-.08-.16-.16s.06-.17.16-.17h1.75c-.12-.45-.34-.83-.69-1.03-.05-.02-.07-.06-.07-.1,0-.08.08-.17.19-.17.12,0,.24.1.31.16.06-.05.81-.69.81-.87,0-.1-.15-.1-.39-.1-.38,0-1.05,0-1.6.02h0c-.1,0-.16-.08-.16-.16s.06-.16.16-.16h1.94c.32,0,.46.16.46.36,0,.12,0,.34-1.01,1.16.19.24.32.56.4.91h1.13c.12,0,.16.08.16.15,0,.08-.05.17-.16.17h-1.09v.02h0Z" fill="#ded9c3"/>
    <path d="M101.62,66.29c-.13,0-.21-.09-.21-.19,0-.08.06-.15.17-.19.8-.22,1.38-.71,1.71-1.34-.62-.28-1.31-.47-1.94-.54-.67.86-.99,1.03-1.4,1.03s-.71-.24-.71-.57c0-.36.38-.81,1.68-.81h.28c.65-.86,1.17-1.83,1.17-1.98,0-.02-.02-.05-.05-.05h-.08c-.29.08-.53.13-.74.13-.32,0-.46-.08-.46-.23,0-.09.06-.19.16-.19h.05c.09.02.21.03.31.03.12,0,.24,0,.36-.03.2-.05.56-.1.62-.1.2,0,.31.12.31.28,0,.08-.02.16-.07.25-.24.45-.71,1.21-1.18,1.87.62.08,1.27.28,1.86.52.09-.25.15-.53.17-.82,0-.12.09-.16.19-.16s.21.07.21.2c0,.08-.09.57-.24.94.5.24.95.52,1.31.82.06.06.09.12.09.19,0,.12-.09.22-.21.22-.05,0-.1-.02-.15-.07-.32-.31-.73-.59-1.18-.82-.64,1.25-1.96,1.56-2.01,1.56l-.02.03h0ZM100.85,64c-.87,0-1.25.23-1.25.46,0,.1.08.24.35.24.35,0,.6-.22,1.01-.71,0,0-.1,0-.1,0Z" fill="#ded9c3"/>
    <path d="M108.95,66.07c-.15,0-.23-.09-.23-.2,0-.09.07-.17.22-.2,1.57-.24,2.22-1.24,2.22-2.08s-.67-1.59-1.78-1.59c-.1,0-.22,0-.32.02-.79.08-1.98,1.01-1.98,2.11,0,.35.13.8.44.8.08,0,.16-.05.25-.12.2-.17,1.21-1.33,1.21-2.42v-.07h0c0-.16.09-.23.19-.23.23,0,.24.19.24.3,0,.89-.87,2.18-1.42,2.71-.16.16-.32.23-.49.23-.43,0-.8-.53-.8-1.18,0-1.19,1.17-2.49,2.71-2.49,1.35,0,2.19.93,2.19,1.94,0,1.77-2.13,2.45-2.64,2.45,0,0-.01,0-.01,0Z" fill="#ded9c3"/>
    <path d="M114.5,62.77c-.13,0-.23-.12-.23-.23,0-.09.07-.19.24-.19.21,0,.46-.05.66-.08.25-.05,1.13-.28,1.69-.34h.12c.32,0,.47.17.47.36,0,.29-.87,1.43-1.04,1.64,1.18.56,2.09,1.3,2.09,1.59,0,.13-.09.24-.22.24-.06,0-.13-.03-.19-.1-.42-.54-1.28-1.15-1.94-1.45-1.19,1.3-2.5,1.71-2.6,1.71-.14,0-.24-.09-.24-.2,0-.08.06-.16.2-.21,2.34-.8,3.44-3.02,3.44-3.14,0-.05-.03-.08-.12-.08h-.03c-.43.05-1.23.25-1.61.34-.53.12-.6.12-.68.12h0Z" fill="#ded9c3"/>
    <path d="M120.64,66.29c-.13,0-.21-.08-.21-.19,0-.08.06-.16.19-.21.97-.3,1.85-.94,2.56-1.77-.27-.14-.56-.25-.8-.32-.08-.02-.12-.08-.12-.14,0-.09.08-.19.21-.19.09,0,.5.13.95.35.61-.82.93-1.57.93-1.64,0-.08-.07-.1-.13-.1-.31,0-1.04.17-1.39.19h-.06c-.97,1.39-1.61,1.83-1.78,1.83-.12,0-.2-.08-.2-.19,0-.08.05-.16.15-.22.71-.45,1.24-1.2,1.57-1.72.13-.2.22-.47.27-.66.02-.1.12-.16.2-.16.1,0,.21.08.21.23,0,.14-.08.34-.17.53.43-.05.93-.16,1.35-.19h.05c.29,0,.44.16.44.36,0,.31-.84,1.61-1.08,1.92.25.14.78.46.78.69,0,.12-.09.21-.21.21-.06,0-.12-.02-.16-.08-.15-.16-.39-.34-.65-.5-1.3,1.57-2.8,1.98-2.87,1.98h-.02Z" fill="#ded9c3"/>
    <path d="M130.6,66.12c0,.17-.12.27-.22.27-.09,0-.2-.08-.2-.25h0c0-.62.05-1.45.05-2.09,0-.39,0-.68-.05-.84-.81.89-2.08,1.85-2.39,1.85-.13,0-.22-.09-.22-.2,0-.08.05-.15.14-.2,1.62-.8,3.04-2.53,3.31-3.38.02-.09.12-.14.2-.14.12,0,.22.07.22.21,0,.12-.15.57-.96,1.5.12.12.13.39.13.53v.23c0,.37-.02.99-.02,1.6v.9h.02Z" fill="#ded9c3"/>
    <path d="M134.4,65.92c-.13,0-.23-.09-.23-.2,0-.07.05-.14.14-.2,1.54-.83,1.77-2.18,1.77-2.6v-.25c0-.14.12-.22.22-.22.19,0,.23.12.23.42,0,.27-.16,1.87-1.93,3-.06.05-.13.06-.19.06h-.01ZM137.55,64.83c0,.08,0,.13.05.13.02,0,1.1-.39,2.06-2.01.06-.09.13-.13.19-.13.12,0,.22.1.22.24,0,.05,0,.09-.05.15-.82,1.34-2.23,2.29-2.66,2.29-.16,0-.25-.12-.25-.28v-.08c.08-.45.16-1.52.16-2.12,0-.25,0-.51-.05-.66v-.05c0-.13.12-.21.22-.21.22,0,.24.2.24.62v.31c0,.31-.13,1.56-.13,1.79h0Z" fill="#ded9c3"/>
    <path d="M143.49,62.14c-.16.02-.31.05-.43.05-.38,0-.65-.13-.65-.31,0-.08.07-.16.17-.16.05,0,.1.02.16.06.08.06.2.08.35.08.08,0,.25,0,.65-.09.09-.24.12-.38.16-.66.02-.12.09-.16.19-.16.1,0,.21.07.21.19,0,.16-.09.44-.13.51.16-.06.32-.12.43-.19.03-.02.07-.02.1-.02.09,0,.17.07.17.16,0,.21-.43.32-.87.44-.13.28-.34.6-.57.96.08,0,.15-.02.22-.02.38,0,.69.25.84.78,1.21-.54,1.69-.62,1.76-.62.14,0,.21.09.21.19,0,.07-.05.15-.13.17-.27.08-.46.14-.78.24-.35.1-.69.24-.99.38,0,.14.02.29.02.44,0,.36,0,.66-.24.66-.09,0-.16-.07-.16-.21v-.05c.02-.19.03-.36.03-.51v-.16c-.53.28-1.08.64-1.08,1.11,0,.31.25.62.97.62.34,0,.67-.07.86-.13.05-.01.09-.02.13-.02.15,0,.24.09.24.2,0,.31-.86.32-1.1.32-1.11,0-1.48-.53-1.48-.97,0-.27.15-.9,1.4-1.5-.09-.42-.29-.66-.57-.66-.15,0-.31.06-.5.19-.25.28-.36.39-.5.39-.09,0-.19-.07-.19-.16,0-.05.02-.12.09-.16.34-.29.73-.64,1.09-1.38h-.09s-.02.02-.02.02Z" fill="#ded9c3"/>
    <path d="M148.17,63.7c-.1,0-.15-.08-.15-.16s.06-.17.16-.17h.39c.38,0,.81,0,.81.57,0,.42-.02.87-.02,1.38.61.8,1.48.83,2.36.83.74,0,1.54-.07,2.09-.12h.02c.13,0,.2.09.2.19s-.07.19-.21.2c-.45.05-1.17.09-1.86.09-1.61,0-2.16-.2-2.78-.91-.37.43-.95.88-1.08.88-.1,0-.2-.09-.2-.2,0-.06.02-.12.09-.15.37-.22.73-.47,1.01-.82v-1.28c0-.2-.08-.29-.31-.3h-.54.01ZM149.15,61.94c-.2-.3-.6-.61-.8-.73-.06-.02-.08-.07-.08-.12,0-.08.09-.16.2-.16.16,0,1.03.62,1.03.88,0,.12-.09.22-.2.22-.05,0-.09-.02-.14-.08h-.01ZM151.73,64.54h-1.94c-.09,0-.15-.06-.15-.14,0-.07.06-.14.15-.14h1.13v-.64h-.86c-.09,0-.15-.07-.15-.14s.05-.14.15-.14h.86v-.32c0-.09.08-.15.16-.15s.17.05.17.15v.32h.94v-.32c0-.09.08-.15.16-.15s.16.05.16.15v.32h.9c.09,0,.14.07.14.14s-.05.14-.14.14h-.9v.65h1.21c.09,0,.14.06.14.14s-.05.15-.14.15h-2.01v-.02h.01ZM150.95,61.6c.16,0,.21-.03.21-.13,0-.31,0-.34-.21-.34h-1.04c-.09,0-.13-.07-.13-.15,0-.07.05-.15.13-.15h1.1c.43,0,.46.15.46.52,0,.42-.08.52-.46.52h-.46c-.35,0-.42,0-.43.16v.24c0,.15.06.22.56.22.62,0,.67-.14.68-.39,0-.09.07-.14.15-.14s.17.06.17.15c0,.59-.38.67-1.01.67-.73,0-.87-.13-.87-.56,0-.39,0-.62.47-.62h.67,0ZM149.96,65.61c-.1,0-.16-.08-.16-.16,0-.07.05-.14.13-.15.43-.05.98-.25,1.28-.46.02-.02.06-.02.08-.02.08,0,.15.08.15.16,0,.28-1.33.64-1.48.64h0ZM152.18,63.61h-.94v.66h.94v-.66ZM152.99,61.6c.19,0,.22-.05.22-.13,0-.31,0-.34-.22-.34h-1.05c-.09,0-.13-.08-.13-.15,0-.08.05-.15.13-.15h1.11c.44,0,.49.16.49.52,0,.39-.03.52-.47.52h-.44c-.44,0-.45,0-.45.4,0,.19.1.22.58.22.68,0,.72-.16.73-.39,0-.09.08-.14.15-.14.08,0,.17.06.17.15,0,.51-.29.67-1.05.67-.82,0-.89-.16-.89-.56s0-.62.49-.62h.65ZM153.58,65.6c-.13,0-.99-.19-1.52-.51-.05-.02-.06-.07-.06-.12,0-.08.06-.16.15-.16.02,0,.05,0,.08.02.38.21.94.38,1.4.43.1.01.15.08.15.16s-.06.17-.19.17h-.02Z" fill="#ded9c3"/>
    <path d="M156.62,64.18s.02,0,.05-.02c.17-.16.51-.31.8-.31s.53.15.53.62c0,.12,0,.2-.13.66-.02.07-.02.13-.02.19,0,.24.19.36.49.36,1.08,0,1.83-1.17,1.98-1.83.03-.14.13-.2.22-.2.12,0,.22.09.22.22,0,.25-.79,2.19-2.44,2.19-.82,0-.86-.49-.86-.62,0-.09,0-.2.05-.32.12-.38.14-.53.14-.64,0-.22-.09-.32-.25-.32-.28,0-1.08.38-1.43,1.42-.14.43-.27.5-.38.5-.2,0-.22-.15-.22-.2,0-.13.25-.66,1.2-2.23.38-.62.72-1.21,1.04-1.77.12-.2.3-.46.37-.6.05-.08.12-.12.19-.12.12,0,.23.09.23.22,0,.08-.02.14-.36.59-.32.45-1.33,2.08-1.39,2.19,0,.01-.02.03-.02.05h.01Z" fill="#ded9c3"/>
    <path d="M166.41,66.13h-.05c-1.61-.12-2.42-1.17-2.42-2.18,0-.82.6-1.42.71-1.5.03-.02.06-.06.06-.07s0,0-.02,0c0,0-.05,0-.08.02-.05.02-1.47.68-1.77.68-.16,0-.24-.09-.24-.2,0-.09.07-.19.2-.22.73-.19,1.99-.67,2.38-.82.6-.24,1.24-.43,1.83-.43.21,0,.3.12.3.22,0,.15-.13.22-.31.22h-.27c-1.1,0-2.44.89-2.44,2.07,0,.94.86,1.76,2.08,1.76.22,0,.32.12.32.23s-.12.24-.31.24l.03-.02h0ZM167.13,63.61c-.12-.14-.53-.44-.69-.52-.08-.03-.1-.08-.1-.13,0-.08.08-.15.19-.15.13,0,.9.42.9.65,0,.1-.09.2-.19.2-.03,0-.08-.02-.1-.06h0ZM167.79,63.07c-.12-.14-.56-.43-.73-.5-.08-.03-.12-.08-.12-.13,0-.08.08-.15.19-.15.12,0,.93.38.93.64,0,.12-.08.2-.17.2-.03,0-.07,0-.09-.05h0Z" fill="#ded9c3"/>
    <path d="M172.49,66.33c-.36-.89-.94-1.57-1.48-2.27-.2-.25-.3-.45-.3-.66,0-.17.08-.35.25-.57.45-.58.99-1.21,1.37-1.89.05-.08.1-.12.17-.12.12,0,.24.12.24.24,0,.03,0,.07-.02.1-.38.62-.97,1.28-1.43,1.84-.12.15-.17.25-.17.36,0,.14.08.27.22.44.59.76,1.23,1.46,1.57,2.28,0,.05.02.08.02.12,0,.14-.12.24-.24.24-.08,0-.15-.05-.19-.14h-.01Z" fill="#ded9c3"/>
    <path d="M178.45,62.29c-.65,1.82-1.17,2.73-1.63,3.71-.05.08-.13.13-.21.13-.12,0-.22-.06-.22-.17,0-.03,0-.08.03-.12.39-.72,1.01-1.8,1.62-3.46v-.02c-.16.06-.62.17-.88.17-.05,0-.49,0-.49-.24,0-.09.06-.2.19-.2.03,0,.08,0,.13.03.07.03.15.05.23.05.06,0,.38,0,.97-.23.06-.22.08-.42.08-.69,0-.13.1-.19.21-.19.19,0,.2.13.2.28,0,.13-.02.27-.06.42.08-.05.15-.09.2-.13s.09-.05.14-.05c.1,0,.19.08.19.17,0,.07-.05.21-.66.46l-.03.09v-.02h0ZM181.08,65.97c0,.2-.22.2-.32.2-1.19,0-1.79-.66-1.79-.87,0-.12.09-.21.2-.21.06,0,.13.03.16.12.3.52.99.54,1.54.57.15,0,.22.1.22.2ZM181.3,63.54h-.08c-.35-.13-.88-.32-1.32-.32-.09,0-.19,0-.28.03h-.05c-.08,0-.15-.08-.15-.16,0-.06.02-.22.49-.22.38,0,.9.12,1.43.32.09.03.14.12.14.17,0,.1-.08.2-.2.2h.01v-.02ZM181.13,62.07c-.12-.14-.52-.43-.69-.51-.08-.03-.1-.08-.1-.13,0-.08.08-.15.19-.15.12,0,.89.42.89.65,0,.1-.08.19-.17.19-.03,0-.08,0-.1-.05h0ZM181.74,61.5c-.12-.13-.54-.42-.71-.49-.08-.03-.1-.08-.1-.13,0-.08.08-.16.19-.16.19,0,.78.43.84.49.05.05.06.09.06.15,0,.09-.08.19-.17.19-.03,0-.07,0-.09-.05h-.01Z" fill="#ded9c3"/>
    <path d="M186.74,62.86c.15.27.3.53.43.79s.24.49.31.69.1.36.1.46c0,.2-.09.25-.17.25-.07,0-.16-.03-.27-.13-.34-.27-1.21-.43-1.74-.43-.73,0-1.01.39-1.01.64,0,.39.66.67,1.4.67.12,0,.24,0,.36-.01h.05c.16,0,.24.09.24.2,0,.12-.09.23-.27.23h-.06c-1.34,0-2.08-.5-2.08-1.06,0-.35.32-.97,1.42-.97.53,0,1.1.13,1.54.21h.06s.03,0,.03-.03c0-.06-.12-.52-.76-1.59-.05-.07-.08-.14-.12-.2-.02,0-.57.13-.84.13-.73,0-1.31-.65-1.31-.82,0-.09.09-.17.2-.17.06,0,.13.02.19.09.38.46.75.56,1.01.56.06,0,.23,0,.6-.09-.35-.62-.42-.83-.42-.9,0-.12.08-.17.19-.17.09,0,.2.06.23.2.06.21.19.49.35.79.19-.06.36-.12.52-.17.05,0,.08-.02.12-.02.13,0,.2.09.2.19,0,.14-.08.19-.67.32.06.12.13.23.2.35,0,0-.02.02-.02.02Z" fill="#ded9c3"/>
    <path d="M192.14,65.52c-.2,0-.43-.08-.68-.28-.64-.49-.87-1.49-.98-2.05,0-.08-.14-.68-.14-.74,0-.12.09-.2.2-.2.09,0,.17.06.2.19.05.22.07.5.12.73.3,1.71,1.09,1.87,1.2,1.87s.19-.07.24-.2c.09-.22.14-.5.22-.75.03-.09.09-.14.16-.14.1,0,.21.08.21.2v.03c-.06.3-.16.62-.22.91-.05.24-.24.39-.52.39v.02ZM195.08,64.12c-.07-.56-.52-1.12-1.02-1.52-.05-.03-.06-.08-.06-.12,0-.09.08-.17.19-.17.05,0,.12.02.17.07.42.35,1.15,1.04,1.15,1.67,0,.17-.12.27-.23.27-.09,0-.17-.06-.2-.2Z" fill="#ded9c3"/>
  </g>
  <polygon points="263.15 57.55 265.63 56.39 263.15 55.22 261.04 56.21 20.02 56.21 17.91 55.22 15.43 56.39 17.91 57.55 20.02 56.56 261.04 56.56 263.15 57.55" fill="#ded9c3"/>
  <g>
    <path d="M35.36,35.36c-.33.87-.58,1.65-.75,2.33-.08.29-.17.7-.26,1.23h-.44c0-1.13-.18-1.93-.57-2.4-.4-.47-1-.7-1.82-.7h-.06c-.46,0-.81.04-1.04.11s-.41.22-.54.44-.26.59-.4,1.09l-1.25,4.67h.36c.62,0,1.19-.22,1.7-.65.51-.44.89-.96,1.13-1.56h.44c-.21.65-.39,1.27-.53,1.88l-.14.53c-.09.36-.18.71-.26,1.07s-.17.8-.26,1.34h-.44c0-.57-.15-1.08-.45-1.53-.3-.45-.79-.68-1.46-.68h-.18l-1.27,4.75c-.12.5-.18.82-.18.97,0,.28.1.46.29.54.19.09.53.13,1.02.13h.26c.95,0,1.75-.26,2.4-.78s1.29-1.43,1.93-2.72h.44c-.11.29-.24.76-.42,1.42-.22.78-.4,1.62-.51,2.53-.9-.04-2.39-.06-4.47-.06-3.06,0-5.35.02-6.88.06l.08-.4c.47-.03.83-.08,1.07-.16s.43-.23.56-.45.27-.59.41-1.09l2.61-9.81c.11-.45.16-.76.16-.95,0-.29-.1-.48-.29-.57s-.54-.15-1.04-.18l.1-.4c1.52.04,3.8.06,6.86.06,1.9,0,3.26-.02,4.09-.06h0Z" fill="#ded9c3"/>
    <path d="M45.34,46.15h.38l-.49,1.44c-.47,1.36-1.42,2.04-2.83,2.04-.84,0-1.44-.24-1.78-.71-.22-.3-.34-.67-.34-1.11s.11-.95.32-1.58l1.7-5.12c.1-.3.16-.56.16-.77s-.07-.3-.2-.3c-.34,0-.78.46-1.32,1.38-.54.92-1.09,2.1-1.65,3.54-.56,1.44-1.03,2.88-1.41,4.33v-.04l-.02.1h-3.5l2.41-8.58c.08-.26.12-.45.12-.57,0-.17-.1-.26-.3-.26-.21,0-.4.09-.57.28-.17.18-.34.51-.51.97l-.45,1.21h-.38l.55-1.54c.25-.7.59-1.21,1.03-1.54s1-.49,1.68-.49c.74,0,1.27.17,1.59.51s.48.79.48,1.34c0,.3-.04.61-.12.91l-.53,2.06c.51-1.29,1-2.28,1.47-2.98.47-.69.95-1.17,1.43-1.44.49-.27,1.04-.41,1.66-.41,1.29,0,1.94.55,1.94,1.64,0,.36-.09.8-.26,1.34l-1.96,5.87c-.07.22-.1.38-.1.47,0,.24.11.36.34.36.38,0,.73-.42,1.05-1.25l.42-1.11h-.01Z" fill="#ded9c3"/>
    <path d="M50.34,47.67c-.04.13-.06.26-.06.38,0,.3.14.46.42.46s.53-.14.79-.43c.26-.28.47-.64.63-1.08l.32-.85h.38l-.38,1.09c-.26.76-.67,1.35-1.21,1.77-.54.42-1.19.62-1.94.62s-1.29-.19-1.65-.57-.54-.9-.54-1.56c0-.34.07-.76.2-1.27l1.94-6.74h-1.8l.1-.4h1.82l.83-2.91c1.38,0,2.58-.11,3.6-.28l-.93,3.18h1.98l-.06.4h-2.04l-2.39,8.19h0Z" fill="#ded9c3"/>
    <path d="M61.84,43.45c-1.23.82-2.7,1.43-4.4,1.83-.04.36-.06.69-.06,1.01,0,.73.14,1.23.42,1.5s.69.42,1.23.42c.33,0,.75-.11,1.27-.34.52-.22,1.02-.57,1.49-1.05l.32.16c-.5.75-1.18,1.38-2.04,1.89s-1.85.76-2.97.76c-.98,0-1.79-.24-2.44-.73-.65-.49-.98-1.17-.98-2.06,0-1.29.33-2.56,1-3.81s1.58-2.26,2.73-3.04c1.15-.78,2.43-1.18,3.83-1.18.74,0,1.33.15,1.78.44.45.3.67.73.67,1.3,0,1.11-.62,2.07-1.85,2.9ZM59.57,40.04c-.45.57-.87,1.3-1.26,2.19-.38.9-.65,1.79-.81,2.69.7-.41,1.3-.86,1.82-1.34.55-.54.99-1.14,1.31-1.8s.48-1.36.48-2.1c0-.33-.11-.49-.32-.49-.37,0-.78.28-1.24.85,0,0,.02,0,.02,0Z" fill="#ded9c3"/>
    <path d="M73.48,39.36c.34.36.51.82.51,1.37,0,.67-.21,1.25-.63,1.74s-.96.73-1.6.73c-.49,0-.86-.13-1.11-.38s-.38-.62-.38-1.11c0-.58.21-1.11.63-1.58s.93-.76,1.52-.87c-.16-.04-.25-.06-.28-.06-.42,0-.8.09-1.15.26-.34.17-.72.59-1.14,1.27-.42.67-.85,1.7-1.31,3.08l-1.44,5.54h-3.5l2.41-8.58c.05-.2.08-.37.08-.51,0-.21-.09-.32-.26-.32-.21,0-.4.09-.57.28-.17.18-.34.51-.51.97l-.45,1.21h-.38l.55-1.54c.49-1.36,1.47-2.04,2.95-2.04.63,0,1.09.17,1.38.51s.44.78.44,1.32c0,.18,0,.32-.02.42.38-.83.79-1.41,1.24-1.75.44-.34.98-.5,1.61-.5.59,0,1.06.18,1.4.54h0Z" fill="#ded9c3"/>
    <path d="M94.74,35.68c.43.4.64.91.64,1.51s-.21,1.12-.63,1.5-.95.57-1.58.57c-.54,0-.97-.13-1.29-.39s-.47-.62-.47-1.08c0-.58.19-1.07.58-1.47s.88-.66,1.47-.76c-.11-.11-.27-.16-.49-.16s-.42.04-.61.11c-.2.07-.42.19-.65.37-.34.25-.75.72-1.23,1.41-.47.69-.95,1.58-1.43,2.65s-.9,2.26-1.26,3.57l-.95,3.74c-.07.22-.1.46-.1.71,0,.38.13.64.39.76.26.13.68.2,1.28.23l-.1.4c-.83-.04-2.18-.06-4.03-.06-1.61,0-2.8.02-3.58.06l.1-.4c.47-.03.83-.08,1.07-.16s.43-.23.57-.46.28-.59.4-1.08l1.03-4.05c-.2-1.74-.49-3.25-.88-4.52s-.85-1.91-1.37-1.91c-.38,0-.68.31-.89.93l-.34,1.01h-.44l.42-1.27c.28-.84.71-1.45,1.31-1.82s1.27-.55,2.04-.55c.98,0,1.73.26,2.26.77s.92,1.25,1.17,2.19c.24.95.46,2.29.66,4.01.41-1.24.86-2.35,1.36-3.34s1.02-1.81,1.56-2.45c.69-.79,1.47-1.19,2.35-1.19.69,0,1.24.2,1.67.6v.02h0Z" fill="#ded9c3"/>
    <path d="M94.73,42.86c.51-1.15,1.29-2.12,2.32-2.89s2.3-1.16,3.79-1.16c1.15,0,2.02.29,2.62.87.6.58.9,1.41.9,2.49s-.26,2.26-.77,3.41c-.51,1.15-1.29,2.12-2.32,2.89s-2.3,1.16-3.79,1.16c-1.15,0-2.02-.29-2.62-.87-.6-.58-.9-1.41-.9-2.49s.26-2.26.77-3.41ZM99.34,40.69c-.57.99-1.06,2.18-1.47,3.59-.42,1.4-.62,2.69-.62,3.85,0,.41.03.7.09.86.06.17.15.25.29.25.36,0,.81-.48,1.37-1.43.56-.96,1.05-2.13,1.46-3.51.42-1.38.62-2.7.62-3.93,0-.46-.03-.77-.09-.92s-.14-.23-.25-.23c-.37,0-.84.49-1.4,1.48h0Z" fill="#ded9c3"/>
    <path d="M115.94,46.05h.38l-.55,1.54c-.25.7-.63,1.21-1.13,1.54s-1.07.49-1.7.49c-.87,0-1.46-.26-1.76-.77-.16-.28-.24-.59-.24-.95,0-.32.05-.67.16-1.05l.45-1.72c-.5,1.21-.99,2.14-1.45,2.79-.47.65-.94,1.09-1.42,1.33-.48.24-1.03.37-1.65.37s-1.05-.14-1.37-.42-.48-.69-.48-1.23c0-.4.08-.84.26-1.34l1.92-5.87c.07-.22.1-.38.1-.47,0-.24-.11-.36-.34-.36-.38,0-.73.42-1.05,1.25l-.42,1.11h-.38l.49-1.44c.47-1.36,1.42-2.04,2.83-2.04.67,0,1.19.16,1.55.46.36.31.54.77.54,1.39,0,.44-.1.95-.3,1.54l-1.7,5.12c-.11.3-.16.56-.16.77s.07.3.2.3c.32,0,.72-.4,1.22-1.2.49-.8,1-1.84,1.53-3.12s1-2.61,1.4-3.98l.26-1.01c1.44-.03,2.63-.12,3.58-.28l-2.49,8.86c-.08.25-.12.44-.12.57,0,.17.1.26.3.26.21,0,.4-.09.57-.28.17-.18.34-.51.51-.97l.46-1.21s0,.02,0,.02Z" fill="#ded9c3"/>
    <path d="M126.98,39.36c.34.36.51.82.51,1.37,0,.67-.21,1.25-.63,1.74s-.96.73-1.6.73c-.49,0-.86-.13-1.11-.38s-.38-.62-.38-1.11c0-.58.21-1.11.63-1.58s.93-.76,1.52-.87c-.16-.04-.25-.06-.28-.06-.42,0-.8.09-1.15.26-.34.17-.72.59-1.14,1.27-.42.67-.85,1.7-1.32,3.08l-1.44,5.54h-3.5l2.41-8.58c.05-.2.08-.37.08-.51,0-.21-.09-.32-.26-.32-.21,0-.4.09-.57.28s-.34.51-.51.97l-.46,1.21h-.38l.55-1.54c.49-1.36,1.47-2.04,2.95-2.04.63,0,1.09.17,1.38.51s.44.78.44,1.32c0,.18,0,.32-.02.42.38-.83.79-1.41,1.24-1.75.44-.34.98-.5,1.61-.5.59,0,1.06.18,1.4.54,0,0,.03,0,.03,0Z" fill="#ded9c3"/>
    <path d="M145.66,35.36c-.29.74-.54,1.52-.75,2.33-.21.78-.36,1.38-.46,1.82h-.43c0-.17.02-.4.02-.69,0-1.08-.21-1.85-.63-2.31-.42-.46-1.01-.69-1.78-.69h-.06c-.41,0-.72.04-.93.11-.21.07-.38.22-.5.44-.12.22-.24.59-.36,1.09l-1.25,4.67h.55c.59,0,1.14-.2,1.63-.59.49-.4.89-.94,1.2-1.62h.43c-.24.74-.46,1.54-.67,2.41-.17.71-.38,1.71-.61,3.01h-.43c0-.91-.16-1.6-.47-2.09-.32-.48-.76-.72-1.34-.72h-.38l-1.27,4.75c-.09.33-.14.62-.14.87,0,.32.12.53.36.63.24.11.69.17,1.34.2l-.08.4c-.88-.04-2.2-.06-3.93-.06s-2.89.02-3.68.06l.08-.4c.47-.03.83-.08,1.07-.16s.43-.23.56-.45c.14-.22.27-.59.41-1.09l2.61-9.81c.11-.45.16-.76.16-.95,0-.29-.1-.48-.29-.57-.19-.09-.54-.15-1.04-.18l.1-.4c1.52.04,3.8.06,6.86.06,1.9,0,3.26-.02,4.09-.06h0Z" fill="#ded9c3"/>
    <path d="M154.22,46.15h.38l-.49,1.44c-.47,1.36-1.42,2.04-2.83,2.04-.8,0-1.38-.23-1.72-.69-.22-.33-.34-.73-.34-1.21,0-.15,0-.26.02-.34-.32.8-.73,1.38-1.23,1.72s-1.09.51-1.78.51c-.82,0-1.43-.21-1.84-.63s-.61-1.03-.61-1.84c0-1.24.33-2.51,1-3.82.67-1.3,1.5-2.39,2.49-3.24,1-.86,1.95-1.29,2.86-1.29.75,0,1.16.38,1.23,1.13l.26-.83c1.28,0,2.47-.11,3.58-.3l-2.67,8.86c-.05.17-.08.33-.08.47,0,.24.1.36.32.36.38,0,.73-.42,1.05-1.25l.42-1.11-.02.02h0ZM148.79,47.65c.28-.42.59-1.18.95-2.27l1.42-4.75c0-.07.02-.16.02-.3,0-.37-.13-.55-.38-.55-.37,0-.82.38-1.35,1.15-.53.76-.99,1.73-1.37,2.89-.38,1.16-.57,2.3-.57,3.42,0,.38.03.65.1.81s.18.24.36.24c.28,0,.55-.21.83-.63h0Z" fill="#ded9c3"/>
    <path d="M162.94,42.23c-.42-.55-.63-1.14-.63-1.79,0-.5.13-.9.41-1.19s.65-.44,1.14-.44c1,0,1.5.65,1.5,1.94s-.24,2.67-.73,4.04c-.49,1.38-1.23,2.53-2.21,3.45-.99.92-2.19,1.38-3.6,1.38-1.12,0-1.92-.23-2.41-.7s-.73-1.05-.73-1.75c0-1.19.5-2.39,1.51-3.62s2.43-2.52,4.26-3.9c-.41,0-.75.11-1.03.3-.28.18-.57.44-.89.77-.26.26-.49.46-.67.58-.18.12-.39.19-.61.19-.14,0-.34-.05-.57-.16-.18-.09-.34-.14-.47-.14-.16,0-.29.06-.39.18s-.19.31-.27.57l-.14.42h-.38l.43-1.44c.4-1.42,1.01-2.14,1.86-2.14.15,0,.29.02.44.07.14.05.28.1.42.17.21.11.42.19.61.25.2.06.43.09.71.09.46,0,.89-.1,1.29-.3l.2-.38.42.2c-.86,1.38-1.57,2.88-2.12,4.48-.56,1.6-.84,2.89-.84,3.87,0,.46.07.8.21,1.02s.37.33.7.33c.96,0,1.82-.49,2.58-1.48.76-.99,1.31-2.19,1.67-3.6-.67-.3-1.22-.73-1.64-1.28h-.03,0Z" fill="#ded9c3"/>
    <path d="M166.58,42.86c.51-1.15,1.29-2.12,2.32-2.89,1.04-.77,2.3-1.16,3.79-1.16,1.15,0,2.02.29,2.62.87s.9,1.41.9,2.49-.26,2.26-.77,3.41c-.51,1.15-1.29,2.12-2.32,2.89-1.04.77-2.3,1.16-3.79,1.16-1.15,0-2.02-.29-2.62-.87-.6-.58-.9-1.41-.9-2.49s.26-2.26.77-3.41ZM171.19,40.69c-.57.99-1.06,2.18-1.47,3.59-.42,1.4-.62,2.69-.62,3.85,0,.41.03.7.09.86.06.17.15.25.29.25.36,0,.81-.48,1.37-1.43.56-.96,1.05-2.13,1.46-3.51.42-1.38.62-2.7.62-3.93,0-.46-.03-.77-.09-.92-.06-.15-.14-.23-.25-.23-.37,0-.84.49-1.4,1.48h0Z" fill="#ded9c3"/>
    <path d="M186.63,39.36c.34.36.51.82.51,1.37,0,.67-.21,1.25-.63,1.74s-.96.73-1.6.73c-.49,0-.86-.13-1.11-.38s-.38-.62-.38-1.11c0-.58.21-1.11.63-1.58s.93-.76,1.52-.87c-.16-.04-.25-.06-.28-.06-.42,0-.8.09-1.15.26-.34.17-.72.59-1.14,1.27s-.85,1.7-1.31,3.08l-1.44,5.54h-3.5l2.41-8.58c.05-.2.08-.37.08-.51,0-.21-.09-.32-.26-.32-.21,0-.4.09-.57.28-.17.18-.34.51-.51.97l-.45,1.21h-.38l.55-1.54c.49-1.36,1.47-2.04,2.95-2.04.63,0,1.09.17,1.38.51s.43.78.43,1.32c0,.18,0,.32-.02.42.38-.83.79-1.41,1.24-1.75.44-.34.98-.5,1.61-.5.59,0,1.06.18,1.4.54,0,0,.02,0,.02,0Z" fill="#ded9c3"/>
    <path d="M189.18,40.28c0-.22-.09-.34-.28-.34-.21,0-.4.09-.57.28s-.34.51-.51.97l-.46,1.21h-.38l.55-1.54c.49-1.36,1.47-2.04,2.95-2.04.71,0,1.23.17,1.56.51s.49.78.49,1.3c0,.29-.05.61-.16.95l-2.06,6.09c-.07.22-.1.38-.1.47,0,.24.11.36.34.36.38,0,.73-.42,1.05-1.25l.42-1.11h.38l-.49,1.44c-.47,1.36-1.42,2.04-2.83,2.04-.67,0-1.19-.16-1.56-.47s-.55-.78-.55-1.4c0-.42.1-.93.3-1.52l1.82-5.46c.07-.17.1-.34.1-.49h0ZM190.57,34.43c.44-.36,1.03-.53,1.75-.53.58,0,1.02.11,1.31.34.3.22.45.56.45,1.01,0,.61-.23,1.1-.69,1.48s-1.04.57-1.74.57c-.57,0-1-.11-1.3-.34-.3-.22-.44-.55-.44-.97,0-.69.22-1.21.66-1.56h0Z" fill="#ded9c3"/>
    <path d="M197.03,47.67c-.04.13-.06.26-.06.38,0,.3.14.46.42.46s.53-.14.79-.43c.26-.28.47-.64.63-1.08l.32-.85h.38l-.38,1.09c-.26.76-.67,1.35-1.21,1.77-.54.42-1.19.62-1.94.62s-1.29-.19-1.65-.57-.54-.9-.54-1.56c0-.34.07-.76.2-1.27l1.94-6.74h-1.8l.1-.4h1.82l.83-2.91c1.38,0,2.58-.11,3.6-.28l-.93,3.18h1.98l-.06.4h-2.04l-2.39,8.19h-.01Z" fill="#ded9c3"/>
    <path d="M208.53,43.45c-1.23.82-2.7,1.43-4.4,1.83-.04.36-.06.69-.06,1.01,0,.73.14,1.23.42,1.5.28.28.68.42,1.23.42.33,0,.75-.11,1.28-.34s1.02-.57,1.49-1.05l.32.16c-.5.75-1.18,1.38-2.04,1.89s-1.85.76-2.97.76c-.98,0-1.79-.24-2.44-.73-.65-.49-.98-1.17-.98-2.06,0-1.29.33-2.56,1-3.81s1.58-2.26,2.73-3.04c1.15-.78,2.43-1.18,3.83-1.18.74,0,1.33.15,1.78.44.45.3.67.73.67,1.3,0,1.11-.62,2.07-1.85,2.9h-.01ZM206.25,40.04c-.46.57-.87,1.3-1.26,2.19-.38.9-.65,1.79-.81,2.69.7-.41,1.3-.86,1.82-1.34.55-.54.99-1.14,1.31-1.8.32-.66.48-1.36.48-2.1,0-.33-.11-.49-.32-.49-.37,0-.78.28-1.24.85,0,0,.02,0,.02,0Z" fill="#ded9c3"/>
    <path d="M226.98,39.25h-.39c.08-.38.12-.74.12-1.09,0-.8-.25-1.43-.75-1.88s-1.2-.67-2.1-.67c-.62,0-1.13.16-1.53.46-.4.31-.6.79-.6,1.45,0,.58.17,1.14.5,1.67.34.53.85,1.21,1.55,2.03.51.59.93,1.1,1.24,1.51s.57.87.79,1.36.33,1.01.33,1.53c0,.9-.31,1.64-.92,2.24-.61.6-1.36,1.04-2.25,1.32s-1.75.43-2.58.43c-.96,0-1.69-.07-2.18-.2s-1.04-.37-1.65-.71c-.34-.2-.57-.3-.67-.3-.17,0-.31.07-.42.21s-.25.43-.44.86h-.4c.21-.5.42-1.1.62-1.81.2-.71.45-1.68.72-2.94h.4c-.12.33-.18.78-.18,1.36,0,1.02.28,1.78.84,2.29.56.51,1.35.77,2.38.77.86,0,1.46-.16,1.8-.48s.51-.77.51-1.33c0-.75-.17-1.44-.5-2.06-.34-.62-.84-1.34-1.51-2.17-.65-.8-1.13-1.5-1.46-2.1-.33-.59-.49-1.24-.49-1.94,0-.87.27-1.61.8-2.21.53-.61,1.2-1.06,2-1.35s1.6-.44,2.4-.44c.57,0,1.07.05,1.52.16s.77.2.98.29c.2.09.54.24,1,.46.07.03.17.08.33.16s.26.12.33.12c.11,0,.21-.08.31-.25.1-.16.21-.43.35-.8h.4c-.5,1.27-.89,2.61-1.17,4.03,0,0-.03.02-.03.02Z" fill="#ded9c3"/>
    <path d="M231.17,47.67c-.04.13-.06.26-.06.38,0,.3.14.46.42.46s.53-.14.79-.43c.26-.28.47-.64.63-1.08l.32-.85h.38l-.38,1.09c-.26.76-.67,1.35-1.21,1.77-.54.42-1.19.62-1.94.62s-1.29-.19-1.65-.57-.54-.9-.54-1.56c0-.34.07-.76.2-1.27l1.94-6.74h-1.8l.1-.4h1.82l.83-2.91c1.38,0,2.58-.11,3.6-.28l-.93,3.18h1.98l-.06.4h-2.04l-2.39,8.19h-.01Z" fill="#ded9c3"/>
    <path d="M243.97,40.73c0,1.15-.38,2.53-1.14,4.16s-1.68,3.09-2.76,4.38c-.83.99-1.7,1.79-2.6,2.4s-1.8,1.02-2.7,1.24c-.45.11-.84.16-1.17.16-.53,0-.93-.12-1.22-.35-.28-.23-.43-.55-.43-.96s.15-.73.44-1.02c.29-.28.67-.43,1.15-.43.95,0,1.76.58,2.43,1.74.86-.38,1.62-.88,2.29-1.48l-1.6-9.79c-.07-.34-.12-.57-.17-.68s-.13-.17-.25-.17c-.13,0-.25.08-.35.24s-.25.49-.45,1.01l-.42,1.11h-.38l.49-1.44c.26-.75.6-1.28,1.02-1.58.42-.3.93-.45,1.53-.45.66,0,1.18.17,1.56.52.38.35.64.96.77,1.83l.85,6.33c.87-1.27,1.56-2.62,2.08-4.07-.62-.34-1.12-.78-1.49-1.31-.38-.53-.56-1.09-.56-1.68,0-.5.13-.9.41-1.19s.65-.44,1.14-.44c1,0,1.5.64,1.5,1.92,0,0,.03,0,.03,0Z" fill="#ded9c3"/>
    <path d="M247.41,48.05c0,.16.04.27.11.35.07.07.16.11.27.11.13,0,.29-.08.46-.25.18-.17.36-.5.54-1l.42-1.11h.38l-.49,1.44c-.26.76-.65,1.29-1.17,1.59-.51.3-1.06.44-1.64.44-.66,0-1.17-.17-1.54-.51s-.55-.84-.55-1.48c0-.41.08-.88.24-1.4l3.02-10.06c.07-.24.1-.42.1-.55,0-.26-.1-.45-.31-.57-.21-.12-.55-.18-1.04-.18l.14-.42c1.04,0,1.98-.09,2.83-.22s1.67-.33,2.47-.59l-4.17,14.04c-.04.13-.06.26-.06.38h-.01Z" fill="#ded9c3"/>
    <path d="M258.47,43.45c-1.23.82-2.7,1.43-4.4,1.83-.04.36-.06.69-.06,1.01,0,.73.14,1.23.42,1.5.28.28.68.42,1.23.42.33,0,.75-.11,1.28-.34.52-.22,1.02-.57,1.49-1.05l.32.16c-.5.75-1.18,1.38-2.04,1.89-.86.51-1.85.76-2.97.76-.98,0-1.79-.24-2.44-.73-.65-.49-.98-1.17-.98-2.06,0-1.29.33-2.56,1-3.81s1.57-2.26,2.73-3.04c1.15-.78,2.43-1.18,3.83-1.18.74,0,1.33.15,1.78.44.45.3.67.73.67,1.3,0,1.11-.62,2.07-1.85,2.9h0ZM256.2,40.04c-.46.57-.87,1.3-1.26,2.19-.38.9-.65,1.79-.81,2.69.7-.41,1.3-.86,1.82-1.34.55-.54.99-1.14,1.31-1.8s.48-1.36.48-2.1c0-.33-.11-.49-.32-.49-.37,0-.78.28-1.24.85h.02,0Z" fill="#ded9c3"/>
  </g>
  <g>
    <g>
      <g>
        <path d="M46.39,5.8c-1.29,0-2.33-1.05-2.33-2.33v-1.14c0-1.29,1.05-2.33,2.33-2.33s2.33,1.05,2.33,2.33v1.14c0,1.29-1.05,2.33-2.33,2.33ZM46.39,1c-.73,0-1.33.6-1.33,1.33v1.14c0,.73.6,1.33,1.33,1.33s1.33-.6,1.33-1.33v-1.14c0-.73-.6-1.33-1.33-1.33Z" fill="#ded9c3"/>
        <path d="M46.39,12.87c-1.29,0-2.33-1.05-2.33-2.33v-1.14c0-1.29,1.05-2.33,2.33-2.33s2.33,1.05,2.33,2.33v1.14c0,1.29-1.05,2.33-2.33,2.33ZM46.39,8.06c-.73,0-1.33.6-1.33,1.33v1.14c0,.73.6,1.33,1.33,1.33s1.33-.6,1.33-1.33v-1.14c0-.73-.6-1.33-1.33-1.33Z" fill="#ded9c3"/>
      </g>
      <path d="M46.39,8.53c-.28,0-.5-.22-.5-.5v-3.19c0-.28.22-.5.5-.5s.5.22.5.5v3.19c0,.28-.22.5-.5.5Z" fill="#ded9c3"/>
      <path d="M46.39,19.98c-1.29,0-2.33-1.05-2.33-2.33v-1.14c0-1.29,1.05-2.33,2.33-2.33s2.33,1.05,2.33,2.33v1.14c0,1.29-1.05,2.33-2.33,2.33ZM46.39,15.18c-.73,0-1.33.6-1.33,1.33v1.14c0,.73.6,1.33,1.33,1.33s1.33-.6,1.33-1.33v-1.14c0-.73-.6-1.33-1.33-1.33Z" fill="#ded9c3"/>
      <path d="M46.39,15.65c-.28,0-.5-.22-.5-.5v-3.19c0-.28.22-.5.5-.5s.5.22.5.5v3.19c0,.28-.22.5-.5.5Z" fill="#ded9c3"/>
    </g>
    <g>
      <g>
        <path d="M234.67,5.8c-1.29,0-2.33-1.05-2.33-2.33v-1.14c0-1.29,1.05-2.33,2.33-2.33s2.33,1.05,2.33,2.33v1.14c0,1.29-1.05,2.33-2.33,2.33ZM234.67,1c-.73,0-1.33.6-1.33,1.33v1.14c0,.73.6,1.33,1.33,1.33s1.33-.6,1.33-1.33v-1.14c0-.73-.6-1.33-1.33-1.33Z" fill="#ded9c3"/>
        <path d="M234.67,12.87c-1.29,0-2.33-1.05-2.33-2.33v-1.14c0-1.29,1.05-2.33,2.33-2.33s2.33,1.05,2.33,2.33v1.14c0,1.29-1.05,2.33-2.33,2.33ZM234.67,8.06c-.73,0-1.33.6-1.33,1.33v1.14c0,.73.6,1.33,1.33,1.33s1.33-.6,1.33-1.33v-1.14c0-.73-.6-1.33-1.33-1.33Z" fill="#ded9c3"/>
      </g>
      <path d="M234.67,8.53c-.28,0-.5-.22-.5-.5v-3.19c0-.28.22-.5.5-.5s.5.22.5.5v3.19c0,.28-.22.5-.5.5Z" fill="#ded9c3"/>
      <path d="M234.67,19.98c-1.29,0-2.33-1.05-2.33-2.33v-1.14c0-1.29,1.05-2.33,2.33-2.33s2.33,1.05,2.33,2.33v1.14c0,1.29-1.05,2.33-2.33,2.33ZM234.67,15.18c-.73,0-1.33.6-1.33,1.33v1.14c0,.73.6,1.33,1.33,1.33s1.33-.6,1.33-1.33v-1.14c0-.73-.6-1.33-1.33-1.33Z" fill="#ded9c3"/>
      <path d="M234.67,15.65c-.28,0-.5-.22-.5-.5v-3.19c0-.28.22-.5.5-.5s.5.22.5.5v3.19c0,.28-.22.5-.5.5Z" fill="#ded9c3"/>
    </g>
  </g>
</svg>