<?xml version="1.0" encoding="UTF-8"?>
<svg id="_レイヤー_2" data-name="レイヤー_2" xmlns="http://www.w3.org/2000/svg" width="281.06" height="81.77" version="1.1" viewBox="0 0 281.06 81.77">
  <!-- Generator: Adobe Illustrator 29.4.0, SVG Export Plug-In . SVG Version: 2.1.0 Build 152)  -->
  <path d="M280.49,29.35c-.09-.09-.21-.14-.35-.14-2.65,0-5.05-1.07-6.8-2.82s-2.82-4.13-2.82-6.8c0-.12-.05-.26-.14-.35s-.21-.14-.35-.14H11.03c-.12,0-.26.05-.35.14s-.14.22-.14.35c0,2.65-1.07,5.05-2.82,6.8s-4.13,2.82-6.8,2.82c-.12,0-.26.05-.35.14s-.14.22-.14.35v40.35c0,.12.05.26.14.35s.21.14.35.14c2.65,0,5.05,1.07,6.8,2.82s2.82,4.13,2.82,6.8c0,.12.05.26.14.35s.21.14.35.14h259.01c.12,0,.26-.05.35-.14.09-.09.14-.22.14-.35,0-2.65,1.07-5.05,2.82-6.8s4.13-2.82,6.8-2.82c.12,0,.26-.05.35-.14.09-.09.14-.22.14-.35V29.69c0-.12-.05-.26-.14-.35h-.01Z" fill="#576d6d"/>
  <path d="M275.54,66.19c-4.41,1.45-7.91,4.93-9.36,9.34H63.69v.02H14.88c-1.45-4.41-4.95-7.89-9.36-9.36v-32.64c4.41-1.45,7.91-4.93,9.36-9.34h202.49v-.02h48.81c1.45,4.41,4.95,7.89,9.36,9.36v32.64Z" fill="#2b3948"/>
  <g>
    <path d="M268.37,21.68c-.02-.12-.14-.22-.26-.22H12.97c-.12,0-.24.09-.26.22-.86,4.93-4.77,8.82-9.69,9.69-.12.02-.22.14-.22.26v36.48c0,.12.09.24.22.26,4.93.86,8.82,4.77,9.69,9.69.02.12.14.22.26.22h255.14c.12,0,.24-.09.26-.22.86-4.93,4.77-8.82,9.69-9.69.12-.02.22-.14.22-.26V31.63c0-.12-.09-.24-.22-.26-4.93-.86-8.82-4.77-9.69-9.69ZM277.74,67.89c-4.96.97-8.89,4.9-9.86,9.86H63.7v.02H13.2c-.97-4.96-4.9-8.89-9.86-9.86V31.86c4.96-.97,8.89-4.9,9.86-9.86h204.18v-.02h50.5c.97,4.96,4.9,8.89,9.86,9.86v36.05Z" fill="#ded9c3"/>
    <path d="M266.79,23.73c-.05-.16-.19-.24-.35-.24H63.69v.02H14.62c-.16,0-.29.1-.35.24-1.37,4.39-4.83,7.85-9.22,9.22-.16.05-.24.19-.24.35v33.14c0,.16.1.29.24.35,4.39,1.37,7.85,4.83,9.22,9.22.05.16.19.24.35.24h202.75v-.02h49.07c.16,0,.29-.1.35-.24,1.37-4.39,4.83-7.85,9.22-9.22.16-.05.24-.19.24-.35v-33.14c0-.16-.1-.29-.24-.35-4.39-1.37-7.85-4.83-9.22-9.22ZM275.55,66.19c-4.41,1.45-7.91,4.93-9.36,9.34H63.7v.02H14.89c-1.45-4.41-4.95-7.89-9.36-9.36v-32.64c4.41-1.45,7.91-4.93,9.36-9.34h202.49v-.02h48.81c1.45,4.41,4.95,7.89,9.36,9.36v32.64Z" fill="#ded9c3"/>
    <path d="M280.49,29.35c-.09-.09-.21-.14-.35-.14-2.65,0-5.05-1.07-6.8-2.82s-2.82-4.13-2.82-6.8c0-.12-.05-.26-.14-.35s-.21-.14-.35-.14H11.03c-.12,0-.26.05-.35.14s-.14.22-.14.35c0,2.65-1.07,5.05-2.82,6.8s-4.13,2.82-6.8,2.82c-.12,0-.26.05-.35.14s-.14.22-.14.35v40.35c0,.12.05.26.14.35s.21.14.35.14c2.65,0,5.05,1.07,6.8,2.82s2.82,4.13,2.82,6.8c0,.12.05.26.14.35s.21.14.35.14h259.01c.12,0,.26-.05.35-.14.09-.09.14-.22.14-.35,0-2.65,1.07-5.05,2.82-6.8s4.13-2.82,6.8-2.82c.12,0,.26-.05.35-.14.09-.09.14-.22.14-.35V29.69c0-.12-.05-.26-.14-.35h-.01ZM279.66,69.56c-2.73.12-5.19,1.28-6.99,3.1-1.82,1.8-2.98,4.27-3.1,6.99H11.5c-.12-2.73-1.28-5.19-3.1-6.99-1.8-1.8-4.27-2.96-6.99-3.1V30.18c2.73-.12,5.19-1.28,6.99-3.1,1.82-1.8,2.98-4.27,3.1-6.99h258.08c.12,2.73,1.28,5.19,3.1,6.99,1.8,1.8,4.27,2.96,6.99,3.1v39.38h0Z" fill="#ded9c3"/>
  </g>
  <g>
    <g>
      <path d="M104.73,7.18h-.23c-1.56,0-2.83-1.27-2.83-2.83v-1.52c0-1.56,1.27-2.83,2.83-2.83h.23c1.56,0,2.83,1.27,2.83,2.83v1.52c0,1.56-1.27,2.83-2.83,2.83ZM104.5,1.41c-.78,0-1.42.64-1.42,1.42v1.52c0,.78.64,1.42,1.42,1.42h.23c.78,0,1.42-.64,1.42-1.42v-1.52c0-.78-.64-1.42-1.42-1.42h-.23Z" fill="#ded9c3"/>
      <path d="M104.73,19.55h-.23c-1.56,0-2.83-1.27-2.83-2.83v-1.52c0-1.56,1.27-2.83,2.83-2.83h.23c1.56,0,2.83,1.27,2.83,2.83v1.52c0,1.56-1.27,2.83-2.83,2.83ZM104.5,13.78c-.78,0-1.42.64-1.42,1.42v1.52c0,.78.64,1.42,1.42,1.42h.23c.78,0,1.42-.64,1.42-1.42v-1.52c0-.78-.64-1.42-1.42-1.42h-.23Z" fill="#ded9c3"/>
      <rect x="103.91" y="6.47" width="1.42" height="6.6" fill="#ded9c3"/>
    </g>
    <g>
      <path d="M176.56,7.18h-.23c-1.56,0-2.83-1.27-2.83-2.83v-1.52c0-1.56,1.27-2.83,2.83-2.83h.23c1.56,0,2.83,1.27,2.83,2.83v1.52c0,1.56-1.27,2.83-2.83,2.83ZM176.33,1.41c-.78,0-1.42.64-1.42,1.42v1.52c0,.78.63,1.42,1.42,1.42h.23c.78,0,1.42-.64,1.42-1.42v-1.52c0-.78-.63-1.42-1.42-1.42h-.23Z" fill="#ded9c3"/>
      <path d="M176.56,19.55h-.23c-1.56,0-2.83-1.27-2.83-2.83v-1.52c0-1.56,1.27-2.83,2.83-2.83h.23c1.56,0,2.83,1.27,2.83,2.83v1.52c0,1.56-1.27,2.83-2.83,2.83ZM176.33,13.78c-.78,0-1.42.64-1.42,1.42v1.52c0,.78.63,1.42,1.42,1.42h.23c.78,0,1.42-.64,1.42-1.42v-1.52c0-.78-.63-1.42-1.42-1.42h-.23Z" fill="#ded9c3"/>
      <rect x="175.73" y="6.47" width="1.42" height="6.6" fill="#ded9c3"/>
    </g>
  </g>
  <g>
    <g>
      <path d="M35.36,35.36c-.33.87-.58,1.65-.75,2.33-.08.29-.17.7-.26,1.23h-.44c.01-1.13-.18-1.93-.57-2.4-.4-.47-1-.7-1.82-.7h-.06c-.46,0-.81.04-1.04.11-.23.07-.41.22-.54.44s-.26.59-.4,1.09l-1.25,4.67h.36c.62,0,1.19-.22,1.7-.65.51-.44.89-.96,1.13-1.56h.44c-.21.65-.39,1.27-.53,1.88l-.14.53c-.09.36-.18.71-.26,1.07s-.17.8-.26,1.34h-.44c0-.57-.15-1.08-.45-1.53-.3-.45-.79-.68-1.46-.68h-.18l-1.27,4.75c-.12.5-.18.82-.18.97,0,.28.1.46.29.54.19.09.53.13,1.02.13h.26c.95,0,1.75-.26,2.4-.78.65-.52,1.29-1.43,1.93-2.72h.44c-.11.29-.24.76-.42,1.42-.22.78-.4,1.62-.51,2.53-.9-.04-2.39-.06-4.47-.06-3.06,0-5.35.02-6.88.06l.08-.4c.47-.03.83-.08,1.07-.16s.43-.23.56-.45.27-.59.41-1.09l2.61-9.81c.11-.45.16-.76.16-.95,0-.29-.1-.48-.29-.57-.19-.09-.54-.15-1.04-.18l.1-.4c1.52.04,3.8.06,6.86.06,1.9,0,3.26-.02,4.09-.06Z" fill="#d7ba93"/>
      <path d="M45.34,46.15h.38l-.49,1.44c-.47,1.36-1.42,2.04-2.83,2.04-.84,0-1.44-.24-1.78-.71-.22-.3-.34-.67-.34-1.11s.11-.95.32-1.58l1.7-5.12c.1-.3.16-.56.16-.77,0-.2-.07-.3-.2-.3-.34,0-.78.46-1.32,1.38-.54.92-1.09,2.1-1.65,3.54-.56,1.44-1.03,2.88-1.41,4.33v-.04l-.02.1h-3.5l2.41-8.58c.08-.26.12-.45.12-.57,0-.17-.1-.26-.3-.26-.21,0-.4.09-.57.28-.17.18-.34.51-.51.97l-.45,1.21h-.38l.55-1.54c.25-.7.59-1.21,1.03-1.54.44-.33,1-.49,1.68-.49.74,0,1.27.17,1.59.51.32.34.48.79.48,1.34,0,.3-.04.61-.12.91l-.53,2.06c.51-1.29,1-2.28,1.47-2.98.47-.69.95-1.17,1.43-1.44.49-.27,1.04-.41,1.66-.41,1.29,0,1.94.55,1.94,1.64,0,.36-.09.8-.26,1.34l-1.96,5.87c-.07.22-.1.38-.1.47,0,.24.11.36.34.36.38,0,.73-.42,1.05-1.25l.42-1.11Z" fill="#d7ba93"/>
      <path d="M50.34,47.67c-.04.13-.06.26-.06.38,0,.3.14.46.42.46s.53-.14.79-.43c.26-.28.47-.64.63-1.08l.32-.85h.38l-.38,1.09c-.26.76-.67,1.35-1.21,1.77-.54.42-1.19.62-1.94.62s-1.29-.19-1.65-.57c-.36-.38-.54-.9-.54-1.56,0-.34.07-.76.2-1.27l1.94-6.74h-1.8l.1-.4h1.82l.83-2.91c1.38-.01,2.58-.11,3.6-.28l-.93,3.18h1.98l-.06.4h-2.04l-2.39,8.19Z" fill="#d7ba93"/>
      <path d="M61.84,43.45c-1.23.82-2.7,1.43-4.4,1.83-.04.36-.06.69-.06,1.01,0,.73.14,1.23.42,1.5s.69.42,1.23.42c.33,0,.75-.11,1.27-.34.52-.22,1.02-.57,1.49-1.05l.32.16c-.5.75-1.18,1.38-2.04,1.89-.86.51-1.85.76-2.97.76-.98,0-1.79-.24-2.44-.73-.65-.49-.98-1.17-.98-2.06,0-1.29.33-2.56,1-3.81s1.58-2.26,2.73-3.04c1.15-.78,2.43-1.18,3.83-1.18.74,0,1.33.15,1.78.44.45.3.67.73.67,1.3,0,1.11-.62,2.07-1.85,2.9ZM59.57,40.04c-.45.57-.87,1.3-1.26,2.19-.38.9-.65,1.79-.81,2.69.7-.41,1.3-.86,1.82-1.34.55-.54.99-1.14,1.31-1.8.32-.66.48-1.36.48-2.1,0-.33-.11-.49-.32-.49-.37,0-.78.28-1.24.85Z" fill="#d7ba93"/>
      <path d="M73.48,39.36c.34.36.51.82.51,1.37,0,.67-.21,1.25-.63,1.74-.42.49-.96.73-1.6.73-.49,0-.86-.13-1.11-.38-.25-.25-.38-.62-.38-1.11,0-.58.21-1.11.63-1.58s.93-.76,1.52-.87c-.16-.04-.25-.06-.28-.06-.42,0-.8.09-1.15.26-.34.17-.72.59-1.14,1.27-.42.67-.85,1.7-1.31,3.08l-1.44,5.54h-3.5l2.41-8.58c.05-.2.08-.37.08-.51,0-.21-.09-.32-.26-.32-.21,0-.4.09-.57.28-.17.18-.34.51-.51.97l-.45,1.21h-.38l.55-1.54c.49-1.36,1.47-2.04,2.95-2.04.63,0,1.09.17,1.38.51s.44.78.44,1.32c0,.18,0,.32-.02.42.38-.83.79-1.41,1.24-1.75.44-.34.98-.5,1.61-.5.59,0,1.06.18,1.4.54Z" fill="#d7ba93"/>
      <path d="M94.74,35.68c.43.4.64.91.64,1.51s-.21,1.12-.63,1.5c-.42.38-.95.57-1.58.57-.54,0-.97-.13-1.29-.39-.32-.26-.47-.62-.47-1.08,0-.58.19-1.07.58-1.47.39-.4.88-.66,1.47-.76-.11-.11-.27-.16-.49-.16-.21,0-.42.04-.61.11-.2.07-.42.19-.65.37-.34.25-.75.72-1.23,1.41-.47.69-.95,1.58-1.43,2.65-.48,1.07-.9,2.26-1.26,3.57l-.95,3.74c-.07.22-.1.46-.1.71,0,.38.13.64.39.76.26.13.68.2,1.28.23l-.1.4c-.83-.04-2.18-.06-4.03-.06-1.61,0-2.8.02-3.58.06l.1-.4c.47-.03.83-.08,1.07-.16s.43-.23.57-.46.28-.59.4-1.08l1.03-4.05c-.2-1.74-.49-3.25-.88-4.52-.39-1.27-.85-1.91-1.37-1.91-.38,0-.68.31-.89.93l-.34,1.01h-.44l.42-1.27c.28-.84.71-1.45,1.31-1.82s1.27-.55,2.04-.55c.98,0,1.73.26,2.26.77s.92,1.25,1.17,2.19c.24.95.46,2.29.66,4.01.41-1.24.86-2.35,1.36-3.34.5-.99,1.02-1.81,1.56-2.45.69-.79,1.47-1.19,2.35-1.19.69,0,1.24.2,1.67.6Z" fill="#d7ba93"/>
      <path d="M94.73,42.86c.51-1.15,1.29-2.12,2.32-2.89s2.3-1.16,3.79-1.16c1.15,0,2.02.29,2.62.87.6.58.9,1.41.9,2.49s-.26,2.26-.77,3.41c-.51,1.15-1.29,2.12-2.32,2.89-1.03.77-2.3,1.16-3.79,1.16-1.15,0-2.02-.29-2.62-.87-.6-.58-.9-1.41-.9-2.49s.26-2.26.77-3.41ZM99.34,40.69c-.57.99-1.06,2.18-1.47,3.59-.42,1.4-.62,2.69-.62,3.85,0,.41.03.7.09.86.06.17.15.25.29.25.36,0,.81-.48,1.37-1.43.56-.96,1.05-2.13,1.46-3.51.42-1.38.62-2.7.62-3.93,0-.46-.03-.77-.09-.92s-.14-.23-.25-.23c-.37,0-.84.49-1.4,1.48Z" fill="#d7ba93"/>
      <path d="M115.94,46.05h.38l-.55,1.54c-.25.7-.63,1.21-1.13,1.54-.5.33-1.07.49-1.7.49-.87,0-1.46-.26-1.76-.77-.16-.28-.24-.59-.24-.95,0-.32.05-.67.16-1.05l.45-1.72c-.5,1.21-.99,2.14-1.45,2.79-.47.65-.94,1.09-1.42,1.33-.48.24-1.03.37-1.65.37s-1.05-.14-1.37-.42c-.32-.28-.48-.69-.48-1.23,0-.4.08-.84.26-1.34l1.92-5.87c.07-.22.1-.38.1-.47,0-.24-.11-.36-.34-.36-.38,0-.73.42-1.05,1.25l-.42,1.11h-.38l.49-1.44c.47-1.36,1.42-2.04,2.83-2.04.67,0,1.19.16,1.55.46.36.31.54.77.54,1.39,0,.44-.1.95-.3,1.54l-1.7,5.12c-.11.3-.16.56-.16.77,0,.2.07.3.2.3.32,0,.72-.4,1.22-1.2.49-.8,1-1.84,1.53-3.12s1-2.61,1.4-3.98l.26-1.01c1.44-.03,2.63-.12,3.58-.28l-2.49,8.86c-.08.25-.12.44-.12.57,0,.17.1.26.3.26.21,0,.4-.09.57-.28.17-.18.34-.51.51-.97l.46-1.21Z" fill="#d7ba93"/>
      <path d="M126.98,39.36c.34.36.51.82.51,1.37,0,.67-.21,1.25-.63,1.74-.42.49-.96.73-1.6.73-.49,0-.86-.13-1.11-.38-.25-.25-.38-.62-.38-1.11,0-.58.21-1.11.63-1.58s.93-.76,1.52-.87c-.16-.04-.25-.06-.28-.06-.42,0-.8.09-1.15.26-.34.17-.72.59-1.14,1.27-.42.67-.85,1.7-1.32,3.08l-1.44,5.54h-3.5l2.41-8.58c.05-.2.08-.37.08-.51,0-.21-.09-.32-.26-.32-.21,0-.4.09-.57.28s-.34.51-.51.97l-.46,1.21h-.38l.55-1.54c.49-1.36,1.47-2.04,2.95-2.04.63,0,1.09.17,1.38.51s.44.78.44,1.32c0,.18,0,.32-.02.42.38-.83.79-1.41,1.24-1.75.44-.34.98-.5,1.61-.5.59,0,1.06.18,1.4.54Z" fill="#d7ba93"/>
      <path d="M145.66,35.36c-.29.74-.54,1.52-.75,2.33-.21.78-.36,1.38-.46,1.82h-.43c.01-.17.02-.4.02-.69,0-1.08-.21-1.85-.63-2.31-.42-.46-1.01-.69-1.78-.69h-.06c-.41,0-.72.04-.93.11-.21.07-.38.22-.5.44-.12.22-.24.59-.36,1.09l-1.25,4.67h.55c.59,0,1.14-.2,1.63-.59.49-.4.89-.94,1.2-1.62h.43c-.24.74-.46,1.54-.67,2.41-.17.71-.38,1.71-.61,3.01h-.43c0-.91-.16-1.6-.47-2.09-.32-.48-.76-.72-1.34-.72h-.38l-1.27,4.75c-.09.33-.14.62-.14.87,0,.32.12.53.36.63.24.11.69.17,1.34.2l-.08.4c-.88-.04-2.2-.06-3.93-.06s-2.89.02-3.68.06l.08-.4c.47-.03.83-.08,1.07-.16s.43-.23.56-.45c.14-.22.27-.59.41-1.09l2.61-9.81c.11-.45.16-.76.16-.95,0-.29-.1-.48-.29-.57-.19-.09-.54-.15-1.04-.18l.1-.4c1.52.04,3.8.06,6.86.06,1.9,0,3.26-.02,4.09-.06Z" fill="#d7ba93"/>
      <path d="M154.22,46.15h.38l-.49,1.44c-.47,1.36-1.42,2.04-2.83,2.04-.8,0-1.38-.23-1.72-.69-.22-.33-.34-.73-.34-1.21,0-.15,0-.26.02-.34-.32.8-.73,1.38-1.23,1.72s-1.09.51-1.78.51c-.82,0-1.43-.21-1.84-.63s-.61-1.03-.61-1.84c0-1.24.33-2.51,1-3.82.67-1.3,1.5-2.39,2.49-3.24,1-.86,1.95-1.29,2.86-1.29.75,0,1.16.38,1.23,1.13l.26-.83c1.28-.01,2.47-.11,3.58-.3l-2.67,8.86c-.05.17-.08.33-.08.47,0,.24.1.36.32.36.38,0,.73-.42,1.05-1.25l.42-1.11ZM148.79,47.65c.28-.42.59-1.18.95-2.27l1.42-4.75c.01-.07.02-.16.02-.3,0-.37-.13-.55-.38-.55-.37,0-.82.38-1.35,1.15-.53.76-.99,1.73-1.37,2.89-.38,1.16-.57,2.3-.57,3.42,0,.38.03.65.1.81.07.16.18.24.36.24.28,0,.55-.21.83-.63Z" fill="#d7ba93"/>
      <path d="M162.94,42.23c-.42-.55-.63-1.14-.63-1.79,0-.5.13-.9.41-1.19s.65-.44,1.14-.44c1,0,1.5.65,1.5,1.94s-.24,2.67-.73,4.04c-.49,1.38-1.23,2.53-2.21,3.45-.99.92-2.19,1.38-3.6,1.38-1.12,0-1.92-.23-2.41-.7-.49-.47-.73-1.05-.73-1.75,0-1.19.5-2.39,1.51-3.62,1.01-1.23,2.43-2.52,4.26-3.9-.41.01-.75.11-1.03.3-.28.18-.57.44-.89.77-.26.26-.49.46-.67.58-.18.12-.39.19-.61.19-.14,0-.34-.05-.57-.16-.18-.09-.34-.14-.47-.14-.16,0-.29.06-.39.18-.1.12-.19.31-.27.57l-.14.42h-.38l.43-1.44c.4-1.42,1.01-2.14,1.86-2.14.15,0,.29.02.44.07.14.05.28.1.42.17.21.11.42.19.61.25.2.06.43.09.71.09.46,0,.89-.1,1.29-.3l.2-.38.42.2c-.86,1.38-1.57,2.88-2.12,4.48-.56,1.6-.84,2.89-.84,3.87,0,.46.07.8.21,1.02.14.22.37.33.7.33.96,0,1.82-.49,2.58-1.48.76-.99,1.31-2.19,1.67-3.6-.67-.3-1.22-.73-1.64-1.28Z" fill="#d7ba93"/>
      <path d="M166.58,42.86c.51-1.15,1.29-2.12,2.32-2.89,1.04-.77,2.3-1.16,3.79-1.16,1.15,0,2.02.29,2.62.87s.9,1.41.9,2.49-.26,2.26-.77,3.41c-.51,1.15-1.29,2.12-2.32,2.89-1.04.77-2.3,1.16-3.79,1.16-1.15,0-2.02-.29-2.62-.87-.6-.58-.9-1.41-.9-2.49s.26-2.26.77-3.41ZM171.19,40.69c-.57.99-1.06,2.18-1.47,3.59-.42,1.4-.62,2.69-.62,3.85,0,.41.03.7.09.86.06.17.15.25.29.25.36,0,.81-.48,1.37-1.43.56-.96,1.05-2.13,1.46-3.51.42-1.38.62-2.7.62-3.93,0-.46-.03-.77-.09-.92-.06-.15-.14-.23-.25-.23-.37,0-.84.49-1.4,1.48Z" fill="#d7ba93"/>
      <path d="M186.63,39.36c.34.36.51.82.51,1.37,0,.67-.21,1.25-.63,1.74-.42.49-.96.73-1.6.73-.49,0-.86-.13-1.11-.38-.25-.25-.38-.62-.38-1.11,0-.58.21-1.11.63-1.58s.93-.76,1.52-.87c-.16-.04-.25-.06-.28-.06-.42,0-.8.09-1.15.26-.34.17-.72.59-1.14,1.27s-.85,1.7-1.31,3.08l-1.44,5.54h-3.5l2.41-8.58c.05-.2.08-.37.08-.51,0-.21-.09-.32-.26-.32-.21,0-.4.09-.57.28-.17.18-.34.51-.51.97l-.45,1.21h-.38l.55-1.54c.49-1.36,1.47-2.04,2.95-2.04.63,0,1.09.17,1.38.51s.43.78.43,1.32c0,.18,0,.32-.02.42.38-.83.79-1.41,1.24-1.75.44-.34.98-.5,1.61-.5.59,0,1.06.18,1.4.54Z" fill="#d7ba93"/>
      <path d="M189.18,40.28c0-.22-.09-.34-.28-.34-.21,0-.4.09-.57.28s-.34.51-.51.97l-.46,1.21h-.38l.55-1.54c.49-1.36,1.47-2.04,2.95-2.04.71,0,1.23.17,1.56.51.33.34.49.78.49,1.3,0,.29-.05.61-.16.95l-2.06,6.09c-.07.22-.1.38-.1.47,0,.24.11.36.34.36.38,0,.73-.42,1.05-1.25l.42-1.11h.38l-.49,1.44c-.47,1.36-1.42,2.04-2.83,2.04-.67,0-1.19-.16-1.56-.47s-.55-.78-.55-1.4c0-.42.1-.93.3-1.52l1.82-5.46c.07-.17.1-.34.1-.49ZM190.57,34.43c.44-.36,1.03-.53,1.75-.53.58,0,1.02.11,1.31.34.3.22.45.56.45,1.01,0,.61-.23,1.1-.69,1.48-.46.38-1.04.57-1.74.57-.57,0-1-.11-1.3-.34-.3-.22-.44-.55-.44-.97,0-.69.22-1.21.66-1.56Z" fill="#d7ba93"/>
      <path d="M197.03,47.67c-.04.13-.06.26-.06.38,0,.3.14.46.42.46s.53-.14.79-.43c.26-.28.47-.64.63-1.08l.32-.85h.38l-.38,1.09c-.26.76-.67,1.35-1.21,1.77-.54.42-1.19.62-1.94.62s-1.29-.19-1.65-.57c-.36-.38-.54-.9-.54-1.56,0-.34.07-.76.2-1.27l1.94-6.74h-1.8l.1-.4h1.82l.83-2.91c1.38-.01,2.58-.11,3.6-.28l-.93,3.18h1.98l-.06.4h-2.04l-2.39,8.19Z" fill="#d7ba93"/>
      <path d="M208.53,43.45c-1.23.82-2.7,1.43-4.4,1.83-.04.36-.06.69-.06,1.01,0,.73.14,1.23.42,1.5.28.28.68.42,1.23.42.33,0,.75-.11,1.28-.34s1.02-.57,1.49-1.05l.32.16c-.5.75-1.18,1.38-2.04,1.89s-1.85.76-2.97.76c-.98,0-1.79-.24-2.44-.73-.65-.49-.98-1.17-.98-2.06,0-1.29.33-2.56,1-3.81.67-1.25,1.58-2.26,2.73-3.04,1.15-.78,2.43-1.18,3.83-1.18.74,0,1.33.15,1.78.44.45.3.67.73.67,1.3,0,1.11-.62,2.07-1.85,2.9ZM206.25,40.04c-.46.57-.87,1.3-1.26,2.19-.38.9-.65,1.79-.81,2.69.7-.41,1.3-.86,1.82-1.34.55-.54.99-1.14,1.31-1.8.32-.66.48-1.36.48-2.1,0-.33-.11-.49-.32-.49-.37,0-.78.28-1.24.85Z" fill="#d7ba93"/>
      <path d="M226.98,39.25h-.39c.08-.38.12-.74.12-1.09,0-.8-.25-1.43-.75-1.88-.5-.45-1.2-.67-2.1-.67-.62,0-1.13.16-1.53.46-.4.31-.6.79-.6,1.45,0,.58.17,1.14.5,1.67.34.53.85,1.21,1.55,2.03.51.59.93,1.1,1.24,1.51s.57.87.79,1.36.33,1.01.33,1.53c0,.9-.31,1.64-.92,2.24-.61.6-1.36,1.04-2.25,1.32s-1.75.43-2.58.43c-.96,0-1.69-.07-2.18-.2s-1.04-.37-1.65-.71c-.34-.2-.57-.3-.67-.3-.17,0-.31.07-.42.21s-.25.43-.44.86h-.4c.21-.5.42-1.1.62-1.81.2-.71.45-1.68.72-2.94h.4c-.12.33-.18.78-.18,1.36,0,1.02.28,1.78.84,2.29.56.51,1.35.77,2.38.77.86,0,1.46-.16,1.8-.48.34-.32.51-.77.51-1.33,0-.75-.17-1.44-.5-2.06-.34-.62-.84-1.34-1.51-2.17-.65-.8-1.13-1.5-1.46-2.1-.33-.59-.49-1.24-.49-1.94,0-.87.27-1.61.8-2.21.53-.61,1.2-1.06,2-1.35s1.6-.44,2.4-.44c.57,0,1.07.05,1.52.16s.77.2.98.29c.2.09.54.24,1,.46.07.03.17.08.33.16s.26.12.33.12c.11,0,.21-.08.31-.25.1-.16.21-.43.35-.8h.4c-.5,1.27-.89,2.61-1.17,4.03Z" fill="#d7ba93"/>
      <path d="M231.17,47.67c-.04.13-.06.26-.06.38,0,.3.14.46.42.46s.53-.14.79-.43c.26-.28.47-.64.63-1.08l.32-.85h.38l-.38,1.09c-.26.76-.67,1.35-1.21,1.77-.54.42-1.19.62-1.94.62s-1.29-.19-1.65-.57c-.36-.38-.54-.9-.54-1.56,0-.34.07-.76.2-1.27l1.94-6.74h-1.8l.1-.4h1.82l.83-2.91c1.38-.01,2.58-.11,3.6-.28l-.93,3.18h1.98l-.06.4h-2.04l-2.39,8.19Z" fill="#d7ba93"/>
      <path d="M243.97,40.73c0,1.15-.38,2.53-1.14,4.16s-1.68,3.09-2.76,4.38c-.83.99-1.7,1.79-2.6,2.4s-1.8,1.02-2.7,1.24c-.45.11-.84.16-1.17.16-.53,0-.93-.12-1.22-.35-.28-.23-.43-.55-.43-.96s.15-.73.44-1.02c.29-.28.67-.43,1.15-.43.95,0,1.76.58,2.43,1.74.86-.38,1.62-.88,2.29-1.48l-1.6-9.79c-.07-.34-.12-.57-.17-.68-.05-.11-.13-.17-.25-.17-.13,0-.25.08-.35.24-.1.16-.25.49-.45,1.01l-.42,1.11h-.38l.49-1.44c.26-.75.6-1.28,1.02-1.58.42-.3.93-.45,1.53-.45.66,0,1.18.17,1.56.52.38.35.64.96.77,1.83l.85,6.33c.87-1.27,1.56-2.62,2.08-4.07-.62-.34-1.12-.78-1.49-1.31-.38-.53-.56-1.09-.56-1.68,0-.5.13-.9.41-1.19s.65-.44,1.14-.44c1,0,1.5.64,1.5,1.92Z" fill="#d7ba93"/>
      <path d="M247.41,48.05c0,.16.04.27.11.35.07.07.16.11.27.11.13,0,.29-.08.46-.25.18-.17.36-.5.54-1l.42-1.11h.38l-.49,1.44c-.26.76-.65,1.29-1.17,1.59-.51.3-1.06.44-1.64.44-.66,0-1.17-.17-1.54-.51-.37-.34-.55-.84-.55-1.48,0-.41.08-.88.24-1.4l3.02-10.06c.07-.24.1-.42.1-.55,0-.26-.1-.45-.31-.57-.21-.12-.55-.18-1.04-.18l.14-.42c1.04-.01,1.98-.09,2.83-.22s1.67-.33,2.47-.59l-4.17,14.04c-.04.13-.06.26-.06.38Z" fill="#d7ba93"/>
      <path d="M258.47,43.45c-1.23.82-2.7,1.43-4.4,1.83-.04.36-.06.69-.06,1.01,0,.73.14,1.23.42,1.5.28.28.68.42,1.23.42.33,0,.75-.11,1.28-.34.52-.22,1.02-.57,1.49-1.05l.32.16c-.5.75-1.18,1.38-2.04,1.89-.86.51-1.85.76-2.97.76-.98,0-1.79-.24-2.44-.73-.65-.49-.98-1.17-.98-2.06,0-1.29.33-2.56,1-3.81.67-1.25,1.57-2.26,2.73-3.04,1.15-.78,2.43-1.18,3.83-1.18.74,0,1.33.15,1.78.44.45.3.67.73.67,1.3,0,1.11-.62,2.07-1.85,2.9ZM256.2,40.04c-.46.57-.87,1.3-1.26,2.19-.38.9-.65,1.79-.81,2.69.7-.41,1.3-.86,1.82-1.34.55-.54.99-1.14,1.31-1.8.32-.66.48-1.36.48-2.1,0-.33-.11-.49-.32-.49-.37,0-.78.28-1.24.85Z" fill="#d7ba93"/>
    </g>
    <g>
      <g>
        <path d="M94.83,65.24c0,.11.04.23.04.33,0,.27-.21.27-.23.27-.05,0-.07,0-.35-.13-.13-.06-.36-.16-.54-.21-.04-.01-.07-.03-.08-.05-.22.17-.35.27-.49.27-.11,0-.17-.08-.17-.16,0-.06.04-.13.1-.16.08-.04.3-.14,1.35-.95-.05-.5-.07-.92-.07-1.31v-.16c-.12.05-.41.1-.52.1-.05,0-.49,0-.49-.24,0-.08.06-.15.16-.15.04,0,.08,0,.12.02.07.03.16.05.25.05.1,0,.24-.02.49-.11,0-.28.04-.55.08-.84.02-.13.1-.18.19-.18s.17.07.17.17v.06c-.05.22-.1.43-.13.66.19-.08.37-.17.46-.25.04-.04.09-.05.13-.05.08,0,.16.06.16.14,0,.19-.38.34-.78.5,0,.12,0,.23,0,.34,0,.31.02.66.05,1.03.57-.42,1.02-.66,1.59-.66.61,0,.9.34.9.75,0,.63-.7,1.27-1.32,1.27-.32,0-.54-.17-.54-.5,0-.03.02-.52.27-.52.08,0,.16.06.16.15,0,.03,0,.07-.03.1-.05.09-.07.17-.07.24,0,.13.08.22.24.22.41,0,.95-.49.95-.94,0-.25-.17-.47-.62-.47-.48,0-.9.25-1.5.7.02.21.05.43.07.67h0ZM93.87,65.29c.12.03.37.11.52.16.04.01.07.02.09.02.04,0,.06-.03.06-.11,0-.04,0-.08,0-.15-.02-.15-.04-.29-.05-.43-.16.12-.37.29-.63.51,0,0,.02,0,.02,0ZM97.54,62.86c-.11-.13-.32-.27-.56-.27-.19,0-.4.08-.59.31-.04.04-.08.06-.13.06-.08,0-.16-.05-.16-.13,0-.13.34-.53.92-.53.49,0,.81.29.81.45,0,.09-.07.17-.16.17-.04,0-.09-.02-.13-.07h0Z" fill="#ded9c3"/>
        <path d="M99.25,64.53c-.03.08-.1.13-.17.13-.08,0-.15-.05-.15-.13,0-.02,0-.05,0-.07.22-.6.38-1.28.49-1.95h-.55c-.09.01-.13-.06-.13-.12,0-.07.05-.14.13-.14h.6c.06-.4.11-.79.13-1.14,0-.1.08-.14.15-.14.08,0,.17.05.17.14,0,.02-.05.51-.15,1.13h.47c.33,0,.5.19.5.47,0,.51-.13,1.18-.39,1.77.08.04.65.32.65.54,0,.1-.07.18-.16.18-.04,0-.08-.01-.12-.05-.15-.15-.32-.28-.51-.39-.49.91-1.22,1.27-1.34,1.27-.1,0-.17-.09-.17-.17,0-.05.02-.1.08-.12.55-.24.92-.65,1.17-1.1-.21-.09-.44-.16-.69-.2l-.04.12.02-.03ZM100.45,62.75c0-.15-.08-.25-.26-.25h-.44c-.1.56-.23,1.13-.39,1.66.25.03.5.1.74.19.28-.63.34-1.27.34-1.61h0ZM102.88,63.72c.02.15.03.3.03.46,0,.3-.04.61-.1.94-.1.48-.42.89-1.04.89-.15,0-.32-.02-.51-.08-.09-.02-.13-.1-.13-.17,0-.08.05-.16.14-.16h.05c.17.06.33.08.46.08.42,0,.64-.27.72-.65.07-.31.1-.61.1-.9,0-.15,0-.29-.02-.42h-1.56c-.1,0-.14-.07-.14-.14s.05-.15.14-.15h1.51c-.1-.39-.29-.72-.6-.89-.04-.02-.06-.05-.06-.09,0-.07.07-.15.16-.15.1,0,.21.09.27.14.05-.04.7-.6.7-.75,0-.09-.13-.09-.34-.09-.33,0-.91,0-1.38.02h0c-.09,0-.14-.07-.14-.14s.05-.14.14-.14c.31-.01.61-.01.9-.01h.78c.28,0,.4.14.4.31,0,.1,0,.29-.87,1,.16.21.28.48.35.79h.98c.1,0,.14.07.14.13,0,.07-.04.15-.14.15h-.94v.02Z" fill="#ded9c3"/>
        <path d="M106.9,65.92c-.11,0-.18-.08-.18-.16,0-.07.05-.13.15-.16.69-.19,1.19-.61,1.48-1.16-.54-.24-1.13-.41-1.68-.47-.58.74-.86.89-1.21.89s-.61-.21-.61-.49c0-.31.33-.7,1.45-.7h.24c.56-.74,1.01-1.58,1.01-1.71,0-.02-.02-.04-.04-.04s-.04,0-.07.01c-.25.07-.46.11-.64.11-.28,0-.4-.07-.4-.2,0-.08.05-.16.14-.16h.04c.08.02.18.03.27.03.1,0,.21-.01.31-.03.17-.04.48-.09.54-.09.17,0,.27.1.27.24,0,.07-.02.14-.06.22-.21.39-.61,1.05-1.02,1.62.54.07,1.1.24,1.61.45.08-.22.13-.46.15-.71,0-.1.08-.14.16-.14s.18.06.18.17c0,.07-.08.49-.21.81.43.21.82.45,1.13.71.05.05.08.1.08.16,0,.1-.08.19-.18.19-.04,0-.09-.02-.13-.06-.28-.27-.63-.51-1.02-.71-.55,1.08-1.69,1.35-1.74,1.35l-.02.03ZM106.23,63.94c-.75,0-1.08.2-1.08.4,0,.09.07.21.3.21.3,0,.52-.19.87-.61h-.09Z" fill="#ded9c3"/>
        <path d="M113.23,65.73c-.13,0-.2-.08-.2-.17,0-.08.06-.15.19-.17,1.36-.21,1.92-1.07,1.92-1.8s-.58-1.37-1.54-1.37c-.09,0-.19,0-.28.02-.68.07-1.71.87-1.71,1.82,0,.3.11.69.38.69.07,0,.14-.04.22-.1.17-.15,1.05-1.15,1.05-2.09v-.06h0c0-.14.08-.2.16-.2.2,0,.21.16.21.26,0,.77-.75,1.88-1.23,2.34-.14.14-.28.2-.42.2-.37,0-.69-.46-.69-1.02,0-1.03,1.01-2.15,2.34-2.15,1.17,0,1.89.8,1.89,1.68,0,1.53-1.84,2.12-2.28,2.12h-.01Z" fill="#ded9c3"/>
        <path d="M118.03,62.87c-.11,0-.2-.1-.2-.2,0-.08.06-.16.21-.16.18,0,.4-.04.57-.07.22-.04.98-.24,1.46-.29h.1c.28,0,.41.15.41.31,0,.25-.75,1.24-.9,1.42,1.02.48,1.81,1.12,1.81,1.37,0,.11-.08.21-.19.21-.05,0-.11-.03-.16-.09-.36-.47-1.11-.99-1.68-1.25-1.03,1.12-2.16,1.48-2.25,1.48-.12,0-.21-.08-.21-.17,0-.07.05-.14.17-.18,2.02-.69,2.97-2.61,2.97-2.71,0-.04-.03-.07-.1-.07h-.03c-.37.04-1.06.22-1.39.29-.46.1-.52.1-.59.1h0Z" fill="#ded9c3"/>
        <path d="M123.34,65.92c-.11,0-.18-.07-.18-.16,0-.07.05-.14.16-.18.84-.26,1.6-.81,2.21-1.53-.23-.12-.48-.22-.69-.28-.07-.02-.1-.07-.1-.12,0-.08.07-.16.18-.16.08,0,.43.11.82.3.53-.71.8-1.36.8-1.42,0-.07-.06-.09-.11-.09-.27,0-.9.15-1.2.16h-.05c-.84,1.2-1.39,1.58-1.54,1.58-.1,0-.17-.07-.17-.16,0-.07.04-.14.13-.19.61-.39,1.07-1.04,1.36-1.49.11-.17.19-.41.23-.57.02-.09.1-.14.17-.14.09,0,.18.07.18.2,0,.12-.07.29-.15.46.37-.04.8-.14,1.17-.16h.04c.25,0,.38.14.38.31,0,.27-.73,1.39-.93,1.66.22.12.67.4.67.6,0,.1-.08.18-.18.18-.05,0-.1-.02-.14-.07-.13-.14-.34-.29-.56-.43-1.12,1.36-2.42,1.71-2.48,1.71h-.02Z" fill="#ded9c3"/>
        <path d="M131.95,65.77c0,.15-.1.23-.19.23-.08,0-.17-.07-.17-.22h0c0-.54.04-1.25.04-1.81,0-.34-.01-.59-.04-.73-.7.77-1.8,1.6-2.07,1.6-.11,0-.19-.08-.19-.17,0-.07.04-.13.12-.17,1.4-.69,2.63-2.19,2.86-2.92.02-.08.1-.12.17-.12.1,0,.19.06.19.18,0,.1-.13.49-.83,1.3.1.1.11.34.11.46v.2c-.01.32-.02.86-.02,1.38v.78h.02Z" fill="#ded9c3"/>
        <path d="M135.23,65.6c-.11,0-.2-.08-.2-.17,0-.06.04-.12.12-.17,1.33-.72,1.53-1.88,1.53-2.25,0-.07,0-.13-.01-.2v-.02c0-.12.1-.19.19-.19.16,0,.2.1.2.36,0,.23-.14,1.62-1.67,2.59-.05.04-.11.05-.16.05ZM137.95,64.65c0,.07,0,.11.04.11.02,0,.95-.34,1.78-1.74.05-.08.11-.11.16-.11.1,0,.19.09.19.21,0,.04-.01.08-.04.13-.71,1.16-1.93,1.98-2.3,1.98-.14,0-.22-.1-.22-.24v-.07c.07-.39.14-1.31.14-1.83,0-.22-.01-.44-.04-.57v-.04c0-.11.1-.18.19-.18.19,0,.21.17.21.54v.27c-.01.27-.11,1.35-.11,1.55h0Z" fill="#ded9c3"/>
        <path d="M143.09,62.33c-.14.02-.27.04-.37.04-.33,0-.56-.11-.56-.27,0-.07.06-.14.15-.14.04,0,.09.02.14.05.07.05.17.07.3.07.07,0,.22,0,.56-.08.08-.21.1-.33.14-.57.02-.1.08-.14.16-.14.09,0,.18.06.18.16,0,.14-.08.38-.11.44.14-.05.28-.1.37-.16.03-.02.06-.02.09-.02.08,0,.15.06.15.14,0,.18-.37.28-.75.38-.11.24-.29.52-.49.83.07-.01.13-.02.19-.02.33,0,.6.22.73.67,1.05-.47,1.46-.54,1.52-.54.12,0,.18.08.18.16,0,.06-.04.13-.11.15-.23.07-.4.12-.67.21-.3.09-.6.21-.86.33.01.12.02.25.02.38,0,.31-.01.57-.21.57-.08,0-.14-.06-.14-.18v-.04c.02-.16.03-.31.03-.44v-.14c-.46.24-.93.55-.93.96,0,.27.22.54.84.54.29,0,.58-.06.74-.11.04-.01.08-.02.11-.02.13,0,.21.08.21.17,0,.27-.74.28-.95.28-.96,0-1.28-.46-1.28-.84,0-.23.13-.78,1.21-1.3-.08-.36-.25-.57-.49-.57-.13,0-.27.05-.43.16-.22.24-.31.34-.43.34-.08,0-.16-.06-.16-.14,0-.04.02-.1.08-.14.29-.25.63-.55.94-1.19h-.08l-.02.02Z" fill="#ded9c3"/>
        <path d="M147.13,63.68c-.09,0-.13-.07-.13-.14s.05-.15.14-.15h.34c.33,0,.7,0,.7.49,0,.36-.02.75-.02,1.19.53.69,1.28.72,2.04.72.64,0,1.33-.06,1.81-.1h.02c.11,0,.17.08.17.16s-.06.16-.18.17c-.39.04-1.01.08-1.61.08-1.39,0-1.87-.17-2.4-.79-.32.37-.82.76-.93.76-.09,0-.17-.08-.17-.17,0-.05.02-.1.08-.13.32-.19.63-.41.87-.71,0-.31.01-.6.01-.85v-.26c0-.17-.07-.25-.27-.26h-.47ZM147.98,62.16c-.17-.26-.52-.53-.69-.63-.05-.02-.07-.06-.07-.1,0-.07.08-.14.17-.14.14,0,.89.54.89.76,0,.1-.08.19-.17.19-.04,0-.08-.02-.12-.07h0ZM150.21,64.4h-1.68c-.08,0-.13-.05-.13-.12,0-.06.05-.12.13-.12h.98v-.55h-.74c-.08,0-.13-.06-.13-.12s.04-.12.13-.12h.74v-.28c0-.08.07-.13.14-.13s.15.04.15.13v.28h.81v-.28c0-.08.07-.13.14-.13s.14.04.14.13v.28h.78c.08,0,.12.06.12.12s-.04.12-.12.12h-.78v.56h1.05c.08,0,.12.05.12.12s-.04.13-.12.13h-1.74v-.02ZM149.54,61.86c.14,0,.18-.03.18-.11,0-.27,0-.29-.18-.29h-.9c-.08,0-.11-.06-.11-.13,0-.06.04-.13.11-.13h.95c.37,0,.4.13.4.45,0,.36-.07.45-.4.45h-.4c-.3,0-.36,0-.37.14v.21c0,.13.05.19.48.19.54,0,.58-.12.59-.34,0-.08.06-.12.13-.12s.15.05.15.13c0,.51-.33.58-.87.58-.63,0-.75-.11-.75-.48,0-.34,0-.54.41-.54h.58ZM148.68,65.33c-.09,0-.14-.07-.14-.14,0-.06.04-.12.11-.13.37-.04.85-.22,1.11-.4.02-.02.05-.02.07-.02.07,0,.13.07.13.14,0,.24-1.15.55-1.28.55ZM150.6,63.6h-.81v.57h.81v-.57ZM151.3,61.86c.16,0,.19-.04.19-.11,0-.27,0-.29-.19-.29h-.91c-.08,0-.11-.07-.11-.13,0-.07.04-.13.11-.13h.96c.38,0,.42.14.42.45,0,.34-.03.45-.41.45h-.38c-.38,0-.39,0-.39.35,0,.16.09.19.5.19.59,0,.62-.14.63-.34,0-.08.07-.12.13-.12.07,0,.15.05.15.13,0,.44-.25.58-.91.58-.71,0-.77-.14-.77-.48s0-.54.42-.54h.56ZM151.81,65.32c-.11,0-.86-.16-1.31-.44-.04-.02-.05-.06-.05-.1,0-.07.05-.14.13-.14.02,0,.04,0,.07.02.33.18.81.33,1.21.37.09.01.13.07.13.14s-.05.15-.16.15h-.02Z" fill="#ded9c3"/>
        <path d="M154.44,64.09s.02,0,.04-.02c.15-.14.44-.27.69-.27s.46.13.46.54c0,.1,0,.17-.11.57-.02.06-.02.11-.02.16,0,.21.16.31.42.31.93,0,1.58-1.01,1.71-1.58.03-.12.11-.17.19-.17.1,0,.19.08.19.19,0,.22-.68,1.89-2.11,1.89-.71,0-.74-.42-.74-.54,0-.08.01-.17.04-.28.1-.33.12-.46.12-.55,0-.19-.08-.28-.22-.28-.24,0-.93.33-1.24,1.23-.12.37-.23.43-.33.43-.17,0-.19-.13-.19-.17,0-.11.22-.57,1.04-1.93.33-.54.62-1.05.9-1.53.1-.17.26-.4.32-.52.04-.07.1-.1.16-.1.1,0,.2.08.2.19,0,.07-.02.12-.31.51-.28.39-1.15,1.8-1.2,1.89-.01.01-.02.03-.02.04h0Z" fill="#ded9c3"/>
        <path d="M162.9,65.78h-.04c-1.39-.1-2.09-1.01-2.09-1.88,0-.71.52-1.23.61-1.3.03-.02.05-.05.05-.06s0-.01-.02-.01c-.01,0-.04,0-.07.02-.04.02-1.27.59-1.53.59-.14,0-.21-.08-.21-.17,0-.08.06-.16.17-.19.63-.16,1.72-.58,2.06-.71.52-.21,1.07-.37,1.58-.37.18,0,.26.1.26.19,0,.13-.11.19-.27.19h-.23c-.95,0-2.11.77-2.11,1.79,0,.81.74,1.52,1.8,1.52.19,0,.28.1.28.2s-.1.21-.27.21l.03-.02ZM163.52,63.6c-.1-.12-.46-.38-.6-.45-.07-.03-.09-.07-.09-.11,0-.07.07-.13.16-.13.11,0,.78.36.78.56,0,.09-.08.17-.16.17-.03,0-.07-.02-.09-.05h0ZM164.09,63.13c-.1-.12-.48-.37-.63-.43-.07-.03-.1-.07-.1-.11,0-.07.07-.13.16-.13.1,0,.8.33.8.55,0,.1-.07.17-.15.17-.03,0-.06-.01-.08-.04h0Z" fill="#ded9c3"/>
        <path d="M168.15,65.95c-.31-.77-.81-1.36-1.28-1.96-.17-.22-.26-.39-.26-.57,0-.15.07-.3.22-.49.39-.5.86-1.05,1.18-1.63.04-.07.09-.1.15-.1.1,0,.21.1.21.21,0,.03,0,.06-.02.09-.33.54-.84,1.11-1.24,1.59-.1.13-.15.22-.15.31,0,.12.07.23.19.38.51.66,1.06,1.26,1.36,1.97,0,.04.02.07.02.1,0,.12-.1.21-.21.21-.07,0-.13-.04-.16-.12h0Z" fill="#ded9c3"/>
        <path d="M173.31,62.46c-.56,1.57-1.01,2.36-1.41,3.21-.04.07-.11.11-.18.11-.1,0-.19-.05-.19-.15,0-.03,0-.07.03-.1.34-.62.87-1.56,1.4-2.99v-.02c-.14.05-.54.15-.76.15-.04,0-.42,0-.42-.21,0-.08.05-.17.16-.17.03,0,.07.01.11.03.06.03.13.04.2.04.05,0,.33,0,.84-.2.05-.19.07-.36.07-.6,0-.11.09-.16.18-.16.16,0,.17.11.17.24,0,.11-.02.23-.05.36.07-.04.13-.08.17-.11s.08-.04.12-.04c.09,0,.16.07.16.15,0,.06-.04.18-.57.4l-.03.08v-.02ZM175.58,65.64c0,.17-.19.17-.28.17-1.03,0-1.55-.57-1.55-.75,0-.1.08-.18.17-.18.05,0,.11.03.14.1.26.45.86.47,1.33.49.13,0,.19.09.19.17ZM175.77,63.54s-.05,0-.07-.01c-.3-.11-.76-.28-1.14-.28-.08,0-.16.01-.24.03h-.04c-.07,0-.13-.07-.13-.14,0-.05.02-.19.42-.19.33,0,.78.1,1.24.28.08.03.12.1.12.15,0,.09-.07.17-.17.17h.01ZM175.62,62.27c-.1-.12-.45-.37-.6-.44-.07-.03-.09-.07-.09-.11,0-.07.07-.13.16-.13.1,0,.77.36.77.56,0,.09-.07.16-.15.16-.03,0-.07-.01-.09-.04h0ZM176.15,61.78c-.1-.11-.47-.36-.61-.42-.07-.03-.09-.07-.09-.11,0-.07.07-.14.16-.14.16,0,.67.37.73.42.04.04.05.08.05.13,0,.08-.07.16-.15.16-.03,0-.06-.01-.08-.04h-.01Z" fill="#ded9c3"/>
        <path d="M180.47,62.95c.13.23.26.46.37.68s.21.42.27.6.09.31.09.4c0,.17-.08.22-.15.22-.06,0-.14-.03-.23-.11-.29-.23-1.05-.37-1.5-.37-.63,0-.87.34-.87.55,0,.34.57.58,1.21.58.1,0,.21,0,.31-.01h.04c.14,0,.21.08.21.17,0,.1-.08.2-.23.2h-.05c-1.16,0-1.8-.43-1.8-.92,0-.3.28-.84,1.23-.84.46,0,.95.11,1.33.18h.05s.03,0,.03-.03c0-.05-.1-.45-.66-1.37-.04-.06-.07-.12-.1-.17-.02,0-.49.11-.73.11-.63,0-1.13-.56-1.13-.71,0-.08.08-.15.17-.15.05,0,.11.02.16.08.33.4.65.48.87.48.05,0,.2,0,.52-.08-.3-.54-.36-.72-.36-.78,0-.1.07-.15.16-.15.08,0,.17.05.2.17.05.18.16.42.3.68.16-.05.31-.1.45-.15.04-.01.07-.02.1-.02.11,0,.17.08.17.16,0,.12-.07.16-.58.28.05.1.11.2.17.3l-.02.02Z" fill="#ded9c3"/>
        <path d="M185.14,65.25c-.17,0-.37-.07-.59-.24-.55-.42-.75-1.29-.85-1.77,0-.07-.12-.59-.12-.64,0-.1.08-.17.17-.17.08,0,.15.05.17.16.04.19.06.43.1.63.26,1.48.94,1.62,1.04,1.62s.16-.06.21-.17c.08-.19.12-.43.19-.65.03-.08.08-.12.14-.12.09,0,.18.07.18.17v.03c-.05.26-.14.54-.19.79-.04.21-.21.34-.45.34v.02ZM187.68,64.04c-.06-.48-.45-.97-.88-1.31-.04-.03-.05-.07-.05-.1,0-.08.07-.15.16-.15.04,0,.1.02.15.06.36.3.99.9.99,1.44,0,.15-.1.23-.2.23-.08,0-.15-.05-.17-.17Z" fill="#ded9c3"/>
      </g>
      <polygon points="263.15 57.55 265.63 56.39 263.15 55.22 261.04 56.21 20.02 56.21 17.91 55.22 15.43 56.39 17.91 57.55 20.02 56.56 261.04 56.56 263.15 57.55" fill="#ded9c3"/>
    </g>
  </g>
</svg>