<?xml version="1.0" encoding="UTF-8"?>
<svg id="_レイヤー_2" xmlns="http://www.w3.org/2000/svg" width="281.06" height="81.77" version="1.1" viewBox="0 0 281.06 81.77">
  <!-- Generator: Adobe Illustrator 29.4.0, SVG Export Plug-In . SVG Version: 2.1.0 Build 152)  -->
  <path d="M280.49,29.35c-.09-.09-.21-.14-.35-.14-2.65,0-5.05-1.07-6.8-2.82s-2.82-4.13-2.82-6.8c0-.12-.05-.26-.14-.35s-.21-.14-.35-.14H11.03c-.12,0-.26.05-.35.14s-.14.22-.14.35c0,2.65-1.07,5.05-2.82,6.8s-4.13,2.82-6.8,2.82c-.12,0-.26.05-.35.14s-.14.22-.14.35v40.35c0,.12.05.26.14.35s.21.14.35.14c2.65,0,5.05,1.07,6.8,2.82s2.82,4.13,2.82,6.8c0,.12.05.26.14.35s.21.14.35.14h259.01c.12,0,.26-.05.35-.14s.14-.22.14-.35c0-2.65,1.07-5.05,2.82-6.8s4.13-2.82,6.8-2.82c.12,0,.26-.05.35-.14s.14-.22.14-.35V29.69c0-.12-.05-.26-.14-.35h-.01Z" fill="#2b3948"/>
  <g>
    <path d="M266.79,23.73c-.05-.16-.19-.24-.35-.24H63.69v.02H14.62c-.16,0-.29.1-.35.24-1.37,4.39-4.83,7.85-9.22,9.22-.16.05-.24.19-.24.35v33.14c0,.16.1.29.24.35,4.39,1.37,7.85,4.83,9.22,9.22.05.16.19.24.35.24h202.75v-.02h49.07c.16,0,.29-.1.35-.24,1.37-4.39,4.83-7.85,9.22-9.22.16-.05.24-.19.24-.35v-33.14c0-.16-.1-.29-.24-.35-4.39-1.37-7.85-4.83-9.22-9.22ZM275.55,66.19c-4.41,1.45-7.91,4.93-9.36,9.34H63.7v.02H14.89c-1.45-4.41-4.95-7.89-9.36-9.36v-32.64c4.41-1.45,7.91-4.93,9.36-9.34h202.49v-.02h48.81c1.45,4.41,4.95,7.89,9.36,9.36v32.64Z" fill="#ded9c3"/>
    <path d="M280.49,29.35c-.09-.09-.21-.14-.35-.14-2.65,0-5.05-1.07-6.8-2.82s-2.82-4.13-2.82-6.8c0-.12-.05-.26-.14-.35s-.21-.14-.35-.14H11.03c-.12,0-.26.05-.35.14s-.14.22-.14.35c0,2.65-1.07,5.05-2.82,6.8s-4.13,2.82-6.8,2.82c-.12,0-.26.05-.35.14s-.14.22-.14.35v40.35c0,.12.05.26.14.35s.21.14.35.14c2.65,0,5.05,1.07,6.8,2.82s2.82,4.13,2.82,6.8c0,.12.05.26.14.35s.21.14.35.14h259.01c.12,0,.26-.05.35-.14s.14-.22.14-.35c0-2.65,1.07-5.05,2.82-6.8s4.13-2.82,6.8-2.82c.12,0,.26-.05.35-.14s.14-.22.14-.35V29.69c0-.12-.05-.26-.14-.35h-.01ZM279.66,69.56c-2.73.12-5.19,1.28-6.99,3.1-1.82,1.8-2.98,4.27-3.1,6.99H11.5c-.12-2.73-1.28-5.19-3.1-6.99-1.8-1.8-4.27-2.96-6.99-3.1V30.18c2.73-.12,5.19-1.28,6.99-3.1,1.82-1.8,2.98-4.27,3.1-6.99h258.08c.12,2.73,1.28,5.19,3.1,6.99,1.8,1.8,4.27,2.96,6.99,3.1v39.38h0Z" fill="#ded9c3"/>
  </g>
  <g>
    <g>
      <path d="M36.36,35.24c-.33.87-.58,1.65-.75,2.33-.08.29-.17.7-.26,1.23h-.44c0-1.13-.18-1.93-.57-2.4-.4-.47-1-.7-1.82-.7h-.06c-.46,0-.81.04-1.04.11s-.41.22-.54.44-.26.59-.4,1.09l-1.25,4.67h.36c.62,0,1.19-.22,1.7-.65.51-.44.89-.96,1.13-1.56h.44c-.21.65-.39,1.27-.53,1.88l-.14.53c-.09.36-.18.71-.26,1.07s-.17.8-.26,1.34h-.44c0-.57-.15-1.08-.45-1.53-.3-.45-.79-.68-1.46-.68h-.18l-1.27,4.75c-.12.5-.18.82-.18.97,0,.28.1.46.29.54.19.09.53.13,1.02.13h.26c.95,0,1.75-.26,2.4-.78.65-.52,1.29-1.43,1.93-2.72h.44c-.11.29-.24.76-.42,1.42-.22.78-.4,1.62-.51,2.53-.9-.04-2.39-.06-4.47-.06-3.06,0-5.35.02-6.88.06l.08-.4c.47-.03.83-.08,1.07-.16s.43-.23.56-.45.27-.59.41-1.09l2.61-9.81c.11-.45.16-.76.16-.95,0-.29-.1-.48-.29-.57s-.54-.15-1.04-.18l.1-.4c1.52.04,3.8.06,6.86.06,1.9,0,3.26-.02,4.09-.06h0Z" fill="#131f2b"/>
      <path d="M46.34,46.03h.38l-.49,1.44c-.47,1.36-1.42,2.04-2.83,2.04-.84,0-1.44-.24-1.78-.71-.22-.3-.34-.67-.34-1.11s.11-.95.32-1.58l1.7-5.12c.1-.3.16-.56.16-.77s-.07-.3-.2-.3c-.34,0-.78.46-1.32,1.38-.54.92-1.09,2.1-1.65,3.54-.56,1.44-1.03,2.88-1.41,4.33v-.04l-.02.1h-3.5l2.41-8.58c.08-.26.12-.45.12-.57,0-.17-.1-.26-.3-.26-.21,0-.4.09-.57.28-.17.18-.34.51-.51.97l-.45,1.21h-.38l.55-1.54c.25-.7.59-1.21,1.03-1.54s1-.49,1.68-.49c.74,0,1.27.17,1.59.51s.48.79.48,1.34c0,.3-.04.61-.12.91l-.53,2.06c.51-1.29,1-2.28,1.47-2.98.47-.69.95-1.17,1.43-1.44.49-.27,1.04-.41,1.66-.41,1.29,0,1.94.55,1.94,1.64,0,.36-.09.8-.26,1.34l-1.96,5.87c-.07.22-.1.38-.1.47,0,.24.11.36.34.36.38,0,.73-.42,1.05-1.25l.42-1.11h-.01Z" fill="#131f2b"/>
      <path d="M51.34,47.55c-.04.13-.06.26-.06.38,0,.3.14.46.42.46s.53-.14.79-.43c.26-.28.47-.64.63-1.08l.32-.85h.38l-.38,1.09c-.26.76-.67,1.35-1.21,1.77-.54.42-1.19.62-1.94.62s-1.29-.19-1.65-.57-.54-.9-.54-1.56c0-.34.07-.76.2-1.27l1.94-6.74h-1.8l.1-.4h1.82l.83-2.91c1.38,0,2.58-.11,3.6-.28l-.93,3.18h1.98l-.06.4h-2.04l-2.39,8.19h0Z" fill="#131f2b"/>
      <path d="M62.84,43.33c-1.23.82-2.7,1.43-4.4,1.83-.04.36-.06.69-.06,1.01,0,.73.14,1.23.42,1.5s.69.42,1.23.42c.33,0,.75-.11,1.27-.34.52-.22,1.02-.57,1.49-1.05l.32.16c-.5.75-1.18,1.38-2.04,1.89s-1.85.76-2.97.76c-.98,0-1.79-.24-2.44-.73-.65-.49-.98-1.17-.98-2.06,0-1.29.33-2.56,1-3.81s1.58-2.26,2.73-3.04c1.15-.78,2.43-1.18,3.83-1.18.74,0,1.33.15,1.78.44.45.3.67.73.67,1.3,0,1.11-.62,2.07-1.85,2.9ZM60.57,39.92c-.45.57-.87,1.3-1.26,2.19-.38.9-.65,1.79-.81,2.69.7-.41,1.3-.86,1.82-1.34.55-.54.99-1.14,1.31-1.8s.48-1.36.48-2.1c0-.33-.11-.49-.32-.49-.37,0-.78.28-1.24.85,0,0,.02,0,.02,0Z" fill="#131f2b"/>
      <path d="M74.48,39.24c.34.36.51.82.51,1.37,0,.67-.21,1.25-.63,1.74s-.96.73-1.6.73c-.49,0-.86-.13-1.11-.38s-.38-.62-.38-1.11c0-.58.21-1.11.63-1.58s.93-.76,1.52-.87c-.16-.04-.25-.06-.28-.06-.42,0-.8.09-1.15.26-.34.17-.72.59-1.14,1.27-.42.67-.85,1.7-1.31,3.08l-1.44,5.54h-3.5l2.41-8.58c.05-.2.08-.37.08-.51,0-.21-.09-.32-.26-.32-.21,0-.4.09-.57.28-.17.18-.34.51-.51.97l-.45,1.21h-.38l.55-1.54c.49-1.36,1.47-2.04,2.95-2.04.63,0,1.09.17,1.38.51s.44.78.44,1.32c0,.18,0,.32-.02.42.38-.83.79-1.41,1.24-1.75.44-.34.98-.5,1.61-.5.59,0,1.06.18,1.4.54h0Z" fill="#131f2b"/>
      <path d="M95.74,35.56c.43.4.64.91.64,1.51s-.21,1.12-.63,1.5-.95.57-1.58.57c-.54,0-.97-.13-1.29-.39s-.47-.62-.47-1.08c0-.58.19-1.07.58-1.47s.88-.66,1.47-.76c-.11-.11-.27-.16-.49-.16s-.42.04-.61.11c-.2.07-.42.19-.65.37-.34.25-.75.72-1.23,1.41-.47.69-.95,1.58-1.43,2.65s-.9,2.26-1.26,3.57l-.95,3.74c-.07.22-.1.46-.1.71,0,.38.13.64.39.76.26.13.68.2,1.28.23l-.1.4c-.83-.04-2.18-.06-4.03-.06-1.61,0-2.8.02-3.58.06l.1-.4c.47-.03.83-.08,1.07-.16s.43-.23.57-.46.28-.59.4-1.08l1.03-4.05c-.2-1.74-.49-3.25-.88-4.52s-.85-1.91-1.37-1.91c-.38,0-.68.31-.89.93l-.34,1.01h-.44l.42-1.27c.28-.84.71-1.45,1.31-1.82s1.27-.55,2.04-.55c.98,0,1.73.26,2.26.77s.92,1.25,1.17,2.19c.24.95.46,2.29.66,4.01.41-1.24.86-2.35,1.36-3.34s1.02-1.81,1.56-2.45c.69-.79,1.47-1.19,2.35-1.19.69,0,1.24.2,1.67.6v.02h0Z" fill="#131f2b"/>
      <path d="M95.73,42.74c.51-1.15,1.29-2.12,2.32-2.89s2.3-1.16,3.79-1.16c1.15,0,2.02.29,2.62.87.6.58.9,1.41.9,2.49s-.26,2.26-.77,3.41c-.51,1.15-1.29,2.12-2.32,2.89s-2.3,1.16-3.79,1.16c-1.15,0-2.02-.29-2.62-.87-.6-.58-.9-1.41-.9-2.49s.26-2.26.77-3.41ZM100.34,40.57c-.57.99-1.06,2.18-1.47,3.59-.42,1.4-.62,2.69-.62,3.85,0,.41.03.7.09.86.06.17.15.25.29.25.36,0,.81-.48,1.37-1.43.56-.96,1.05-2.13,1.46-3.51.42-1.38.62-2.7.62-3.93,0-.46-.03-.77-.09-.92s-.14-.23-.25-.23c-.37,0-.84.49-1.4,1.48h0Z" fill="#131f2b"/>
      <path d="M116.94,45.93h.38l-.55,1.54c-.25.7-.63,1.21-1.13,1.54s-1.07.49-1.7.49c-.87,0-1.46-.26-1.76-.77-.16-.28-.24-.59-.24-.95,0-.32.05-.67.16-1.05l.45-1.72c-.5,1.21-.99,2.14-1.45,2.79-.47.65-.94,1.09-1.42,1.33-.48.24-1.03.37-1.65.37s-1.05-.14-1.37-.42-.48-.69-.48-1.23c0-.4.08-.84.26-1.34l1.92-5.87c.07-.22.1-.38.1-.47,0-.24-.11-.36-.34-.36-.38,0-.73.42-1.05,1.25l-.42,1.11h-.38l.49-1.44c.47-1.36,1.42-2.04,2.83-2.04.67,0,1.19.16,1.55.46.36.31.54.77.54,1.39,0,.44-.1.95-.3,1.54l-1.7,5.12c-.11.3-.16.56-.16.77s.07.3.2.3c.32,0,.72-.4,1.22-1.2.49-.8,1-1.84,1.53-3.12s1-2.61,1.4-3.98l.26-1.01c1.44-.03,2.63-.12,3.58-.28l-2.49,8.86c-.08.25-.12.44-.12.57,0,.17.1.26.3.26.21,0,.4-.09.57-.28.17-.18.34-.51.51-.97l.46-1.21s0,.02,0,.02Z" fill="#131f2b"/>
      <path d="M127.98,39.24c.34.36.51.82.51,1.37,0,.67-.21,1.25-.63,1.74s-.96.73-1.6.73c-.49,0-.86-.13-1.11-.38s-.38-.62-.38-1.11c0-.58.21-1.11.63-1.58s.93-.76,1.52-.87c-.16-.04-.25-.06-.28-.06-.42,0-.8.09-1.15.26-.34.17-.72.59-1.14,1.27-.42.67-.85,1.7-1.32,3.08l-1.44,5.54h-3.5l2.41-8.58c.05-.2.08-.37.08-.51,0-.21-.09-.32-.26-.32-.21,0-.4.09-.57.28s-.34.51-.51.97l-.46,1.21h-.38l.55-1.54c.49-1.36,1.47-2.04,2.95-2.04.63,0,1.09.17,1.38.51s.44.78.44,1.32c0,.18,0,.32-.02.42.38-.83.79-1.41,1.24-1.75.44-.34.98-.5,1.61-.5.59,0,1.06.18,1.4.54,0,0,.03,0,.03,0Z" fill="#131f2b"/>
      <path d="M146.66,35.24c-.29.74-.54,1.52-.75,2.33-.21.78-.36,1.38-.46,1.82h-.43c0-.17.02-.4.02-.69,0-1.08-.21-1.85-.63-2.31-.42-.46-1.01-.69-1.78-.69h-.06c-.41,0-.72.04-.93.11-.21.07-.38.22-.5.44-.12.22-.24.59-.36,1.09l-1.25,4.67h.55c.59,0,1.14-.2,1.63-.59.49-.4.89-.94,1.2-1.62h.43c-.24.74-.46,1.54-.67,2.41-.17.71-.38,1.71-.61,3.01h-.43c0-.91-.16-1.6-.47-2.09-.32-.48-.76-.72-1.34-.72h-.38l-1.27,4.75c-.09.33-.14.62-.14.87,0,.32.12.53.36.63.24.11.69.17,1.34.2l-.08.4c-.88-.04-2.2-.06-3.93-.06s-2.89.02-3.68.06l.08-.4c.47-.03.83-.08,1.07-.16s.43-.23.56-.45c.14-.22.27-.59.41-1.09l2.61-9.81c.11-.45.16-.76.16-.95,0-.29-.1-.48-.29-.57-.19-.09-.54-.15-1.04-.18l.1-.4c1.52.04,3.8.06,6.86.06,1.9,0,3.26-.02,4.09-.06h0Z" fill="#131f2b"/>
      <path d="M155.22,46.03h.38l-.49,1.44c-.47,1.36-1.42,2.04-2.83,2.04-.8,0-1.38-.23-1.72-.69-.22-.33-.34-.73-.34-1.21,0-.15,0-.26.02-.34-.32.8-.73,1.38-1.23,1.72s-1.09.51-1.78.51c-.82,0-1.43-.21-1.84-.63s-.61-1.03-.61-1.84c0-1.24.33-2.51,1-3.82.67-1.3,1.5-2.39,2.49-3.24,1-.86,1.95-1.29,2.86-1.29.75,0,1.16.38,1.23,1.13l.26-.83c1.28,0,2.47-.11,3.58-.3l-2.67,8.86c-.05.17-.08.33-.08.47,0,.24.1.36.32.36.38,0,.73-.42,1.05-1.25l.42-1.11-.02.02h0ZM149.79,47.53c.28-.42.59-1.18.95-2.27l1.42-4.75c0-.07.02-.16.02-.3,0-.37-.13-.55-.38-.55-.37,0-.82.38-1.35,1.15-.53.76-.99,1.73-1.37,2.89-.38,1.16-.57,2.3-.57,3.42,0,.38.03.65.1.81s.18.24.36.24c.28,0,.55-.21.83-.63h0Z" fill="#131f2b"/>
      <path d="M163.94,42.11c-.42-.55-.63-1.14-.63-1.79,0-.5.13-.9.41-1.19s.65-.44,1.14-.44c1,0,1.5.65,1.5,1.94s-.24,2.67-.73,4.04c-.49,1.38-1.23,2.53-2.21,3.45-.99.92-2.19,1.38-3.6,1.38-1.12,0-1.92-.23-2.41-.7s-.73-1.05-.73-1.75c0-1.19.5-2.39,1.51-3.62s2.43-2.52,4.26-3.9c-.41,0-.75.11-1.03.3-.28.18-.57.44-.89.77-.26.26-.49.46-.67.58-.18.12-.39.19-.61.19-.14,0-.34-.05-.57-.16-.18-.09-.34-.14-.47-.14-.16,0-.29.06-.39.18s-.19.31-.27.57l-.14.42h-.38l.43-1.44c.4-1.42,1.01-2.14,1.86-2.14.15,0,.29.02.44.07.14.05.28.1.42.17.21.11.42.19.61.25.2.06.43.09.71.09.46,0,.89-.1,1.29-.3l.2-.38.42.2c-.86,1.38-1.57,2.88-2.12,4.48-.56,1.6-.84,2.89-.84,3.87,0,.46.07.8.21,1.02s.37.33.7.33c.96,0,1.82-.49,2.58-1.48.76-.99,1.31-2.19,1.67-3.6-.67-.3-1.22-.73-1.64-1.28h-.03,0Z" fill="#131f2b"/>
      <path d="M167.58,42.74c.51-1.15,1.29-2.12,2.32-2.89,1.04-.77,2.3-1.16,3.79-1.16,1.15,0,2.02.29,2.62.87s.9,1.41.9,2.49-.26,2.26-.77,3.41c-.51,1.15-1.29,2.12-2.32,2.89-1.04.77-2.3,1.16-3.79,1.16-1.15,0-2.02-.29-2.62-.87-.6-.58-.9-1.41-.9-2.49s.26-2.26.77-3.41ZM172.19,40.57c-.57.99-1.06,2.18-1.47,3.59-.42,1.4-.62,2.69-.62,3.85,0,.41.03.7.09.86.06.17.15.25.29.25.36,0,.81-.48,1.37-1.43.56-.96,1.05-2.13,1.46-3.51.42-1.38.62-2.7.62-3.93,0-.46-.03-.77-.09-.92-.06-.15-.14-.23-.25-.23-.37,0-.84.49-1.4,1.48h0Z" fill="#131f2b"/>
      <path d="M187.63,39.24c.34.36.51.82.51,1.37,0,.67-.21,1.25-.63,1.74s-.96.73-1.6.73c-.49,0-.86-.13-1.11-.38s-.38-.62-.38-1.11c0-.58.21-1.11.63-1.58s.93-.76,1.52-.87c-.16-.04-.25-.06-.28-.06-.42,0-.8.09-1.15.26-.34.17-.72.59-1.14,1.27s-.85,1.7-1.31,3.08l-1.44,5.54h-3.5l2.41-8.58c.05-.2.08-.37.08-.51,0-.21-.09-.32-.26-.32-.21,0-.4.09-.57.28-.17.18-.34.51-.51.97l-.45,1.21h-.38l.55-1.54c.49-1.36,1.47-2.04,2.95-2.04.63,0,1.09.17,1.38.51s.43.78.43,1.32c0,.18,0,.32-.02.42.38-.83.79-1.41,1.24-1.75.44-.34.98-.5,1.61-.5.59,0,1.06.18,1.4.54,0,0,.02,0,.02,0Z" fill="#131f2b"/>
      <path d="M190.18,40.16c0-.22-.09-.34-.28-.34-.21,0-.4.09-.57.28s-.34.51-.51.97l-.46,1.21h-.38l.55-1.54c.49-1.36,1.47-2.04,2.95-2.04.71,0,1.23.17,1.56.51s.49.78.49,1.3c0,.29-.05.61-.16.95l-2.06,6.09c-.07.22-.1.38-.1.47,0,.24.11.36.34.36.38,0,.73-.42,1.05-1.25l.42-1.11h.38l-.49,1.44c-.47,1.36-1.42,2.04-2.83,2.04-.67,0-1.19-.16-1.56-.47s-.55-.78-.55-1.4c0-.42.1-.93.3-1.52l1.82-5.46c.07-.17.1-.34.1-.49h0ZM191.57,34.31c.44-.36,1.03-.53,1.75-.53.58,0,1.02.11,1.31.34.3.22.45.56.45,1.01,0,.61-.23,1.1-.69,1.48s-1.04.57-1.74.57c-.57,0-1-.11-1.3-.34-.3-.22-.44-.55-.44-.97,0-.69.22-1.21.66-1.56h0Z" fill="#131f2b"/>
      <path d="M198.03,47.55c-.04.13-.06.26-.06.38,0,.3.14.46.42.46s.53-.14.79-.43c.26-.28.47-.64.63-1.08l.32-.85h.38l-.38,1.09c-.26.76-.67,1.35-1.21,1.77-.54.42-1.19.62-1.94.62s-1.29-.19-1.65-.57-.54-.9-.54-1.56c0-.34.07-.76.2-1.27l1.94-6.74h-1.8l.1-.4h1.82l.83-2.91c1.38,0,2.58-.11,3.6-.28l-.93,3.18h1.98l-.06.4h-2.04l-2.39,8.19h-.01Z" fill="#131f2b"/>
      <path d="M209.53,43.33c-1.23.82-2.7,1.43-4.4,1.83-.04.36-.06.69-.06,1.01,0,.73.14,1.23.42,1.5.28.28.68.42,1.23.42.33,0,.75-.11,1.28-.34s1.02-.57,1.49-1.05l.32.16c-.5.75-1.18,1.38-2.04,1.89s-1.85.76-2.97.76c-.98,0-1.79-.24-2.44-.73-.65-.49-.98-1.17-.98-2.06,0-1.29.33-2.56,1-3.81s1.58-2.26,2.73-3.04c1.15-.78,2.43-1.18,3.83-1.18.74,0,1.33.15,1.78.44.45.3.67.73.67,1.3,0,1.11-.62,2.07-1.85,2.9h-.01ZM207.25,39.92c-.46.57-.87,1.3-1.26,2.19-.38.9-.65,1.79-.81,2.69.7-.41,1.3-.86,1.82-1.34.55-.54.99-1.14,1.31-1.8.32-.66.48-1.36.48-2.1,0-.33-.11-.49-.32-.49-.37,0-.78.28-1.24.85,0,0,.02,0,.02,0Z" fill="#131f2b"/>
      <path d="M227.98,39.13h-.39c.08-.38.12-.74.12-1.09,0-.8-.25-1.43-.75-1.88s-1.2-.67-2.1-.67c-.62,0-1.13.16-1.53.46-.4.31-.6.79-.6,1.45,0,.58.17,1.14.5,1.67.34.53.85,1.21,1.55,2.03.51.59.93,1.1,1.24,1.51s.57.87.79,1.36.33,1.01.33,1.53c0,.9-.31,1.64-.92,2.24-.61.6-1.36,1.04-2.25,1.32s-1.75.43-2.58.43c-.96,0-1.69-.07-2.18-.2s-1.04-.37-1.65-.71c-.34-.2-.57-.3-.67-.3-.17,0-.31.07-.42.21s-.25.43-.44.86h-.4c.21-.5.42-1.1.62-1.81.2-.71.45-1.68.72-2.94h.4c-.12.33-.18.78-.18,1.36,0,1.02.28,1.78.84,2.29.56.51,1.35.77,2.38.77.86,0,1.46-.16,1.8-.48s.51-.77.51-1.33c0-.75-.17-1.44-.5-2.06-.34-.62-.84-1.34-1.51-2.17-.65-.8-1.13-1.5-1.46-2.1-.33-.59-.49-1.24-.49-1.94,0-.87.27-1.61.8-2.21.53-.61,1.2-1.06,2-1.35s1.6-.44,2.4-.44c.57,0,1.07.05,1.52.16s.77.2.98.29c.2.09.54.24,1,.46.07.03.17.08.33.16s.26.12.33.12c.11,0,.21-.08.31-.25.1-.16.21-.43.35-.8h.4c-.5,1.27-.89,2.61-1.17,4.03,0,0-.03.02-.03.02Z" fill="#131f2b"/>
      <path d="M232.17,47.55c-.04.13-.06.26-.06.38,0,.3.14.46.42.46s.53-.14.79-.43c.26-.28.47-.64.63-1.08l.32-.85h.38l-.38,1.09c-.26.76-.67,1.35-1.21,1.77-.54.42-1.19.62-1.94.62s-1.29-.19-1.65-.57-.54-.9-.54-1.56c0-.34.07-.76.2-1.27l1.94-6.74h-1.8l.1-.4h1.82l.83-2.91c1.38,0,2.58-.11,3.6-.28l-.93,3.18h1.98l-.06.4h-2.04l-2.39,8.19h-.01Z" fill="#131f2b"/>
      <path d="M244.97,40.61c0,1.15-.38,2.53-1.14,4.16s-1.68,3.09-2.76,4.38c-.83.99-1.7,1.79-2.6,2.4s-1.8,1.02-2.7,1.24c-.45.11-.84.16-1.17.16-.53,0-.93-.12-1.22-.35-.28-.23-.43-.55-.43-.96s.15-.73.44-1.02c.29-.28.67-.43,1.15-.43.95,0,1.76.58,2.43,1.74.86-.38,1.62-.88,2.29-1.48l-1.6-9.79c-.07-.34-.12-.57-.17-.68s-.13-.17-.25-.17c-.13,0-.25.08-.35.24s-.25.49-.45,1.01l-.42,1.11h-.38l.49-1.44c.26-.75.6-1.28,1.02-1.58.42-.3.93-.45,1.53-.45.66,0,1.18.17,1.56.52.38.35.64.96.77,1.83l.85,6.33c.87-1.27,1.56-2.62,2.08-4.07-.62-.34-1.12-.78-1.49-1.31-.38-.53-.56-1.09-.56-1.68,0-.5.13-.9.41-1.19s.65-.44,1.14-.44c1,0,1.5.64,1.5,1.92,0,0,.03,0,.03,0Z" fill="#131f2b"/>
      <path d="M248.41,47.93c0,.16.04.27.11.35.07.07.16.11.27.11.13,0,.29-.08.46-.25.18-.17.36-.5.54-1l.42-1.11h.38l-.49,1.44c-.26.76-.65,1.29-1.17,1.59-.51.3-1.06.44-1.64.44-.66,0-1.17-.17-1.54-.51s-.55-.84-.55-1.48c0-.41.08-.88.24-1.4l3.02-10.06c.07-.24.1-.42.1-.55,0-.26-.1-.45-.31-.57-.21-.12-.55-.18-1.04-.18l.14-.42c1.04,0,1.98-.09,2.83-.22s1.67-.33,2.47-.59l-4.17,14.04c-.04.13-.06.26-.06.38h-.01Z" fill="#131f2b"/>
      <path d="M259.47,43.33c-1.23.82-2.7,1.43-4.4,1.83-.04.36-.06.69-.06,1.01,0,.73.14,1.23.42,1.5.28.28.68.42,1.23.42.33,0,.75-.11,1.28-.34.52-.22,1.02-.57,1.49-1.05l.32.16c-.5.75-1.18,1.38-2.04,1.89-.86.51-1.85.76-2.97.76-.98,0-1.79-.24-2.44-.73-.65-.49-.98-1.17-.98-2.06,0-1.29.33-2.56,1-3.81s1.57-2.26,2.73-3.04c1.15-.78,2.43-1.18,3.83-1.18.74,0,1.33.15,1.78.44.45.3.67.73.67,1.3,0,1.11-.62,2.07-1.85,2.9h0ZM257.2,39.92c-.46.57-.87,1.3-1.26,2.19-.38.9-.65,1.79-.81,2.69.7-.41,1.3-.86,1.82-1.34.55-.54.99-1.14,1.31-1.8s.48-1.36.48-2.1c0-.33-.11-.49-.32-.49-.37,0-.78.28-1.24.85,0,0,.02,0,.02,0Z" fill="#131f2b"/>
    </g>
    <g>
      <path d="M72.84,65.95c0,.17.06.35.06.49,0,.4-.31.4-.35.4-.08,0-.1,0-.51-.19-.19-.09-.54-.24-.79-.31-.06-.01-.1-.04-.12-.08-.32.26-.51.4-.73.4-.17,0-.26-.12-.26-.24,0-.09.06-.19.15-.24.12-.06.45-.2,2-1.41-.08-.74-.1-1.36-.1-1.95v-.24c-.18.08-.6.15-.77.15-.08,0-.73,0-.73-.36,0-.12.09-.22.24-.22.06,0,.12,0,.18.03.1.04.24.08.37.08.15,0,.36-.03.73-.17,0-.41.06-.82.12-1.24.03-.19.15-.27.28-.27s.26.1.26.26v.09c-.08.32-.15.64-.19.97.28-.12.55-.26.68-.37.06-.06.13-.08.19-.08.12,0,.24.09.24.2,0,.28-.56.5-1.15.74v.5c0,.46.03.97.08,1.52.84-.63,1.51-.97,2.36-.97.91,0,1.33.5,1.33,1.11,0,.93-1.04,1.88-1.96,1.88-.47,0-.79-.26-.79-.74,0-.04.03-.77.4-.77.12,0,.24.09.24.22,0,.04,0,.1-.04.15-.08.13-.1.26-.1.36,0,.19.12.32.36.32.6,0,1.41-.73,1.41-1.4,0-.37-.26-.69-.92-.69-.72,0-1.33.37-2.23,1.04.03.31.08.64.1,1h0l-.04.03ZM71.42,66.02c.18.04.55.17.77.24.06.01.1.03.13.03.06,0,.09-.04.09-.17v-.22c-.03-.22-.06-.44-.08-.64-.24.18-.55.44-.93.76h.03-.01.01ZM76.85,62.41c-.17-.19-.47-.4-.83-.4-.28,0-.59.12-.87.46-.06.06-.12.09-.19.09-.12,0-.24-.08-.24-.19,0-.19.5-.78,1.36-.78.73,0,1.2.44,1.2.67,0,.13-.1.26-.24.26-.06,0-.13-.03-.19-.1h.01Z" fill="#ded9c3"/>
      <path d="M79.39,64.9c-.04.12-.15.19-.26.19-.12,0-.22-.08-.22-.19v-.1c.32-.88.56-1.89.73-2.89h-.82c-.13,0-.19-.09-.19-.18,0-.1.08-.2.19-.2h.88c.09-.59.17-1.16.19-1.69,0-.15.12-.2.22-.2.12,0,.26.08.26.2,0,.03-.08.76-.22,1.68h.69c.49,0,.74.28.74.69,0,.76-.19,1.75-.58,2.62.12.06.96.47.96.79,0,.15-.1.27-.24.27-.06,0-.12-.01-.18-.08-.22-.22-.47-.41-.76-.58-.73,1.34-1.81,1.88-1.98,1.88-.15,0-.26-.13-.26-.26,0-.08.03-.15.12-.18.82-.36,1.36-.96,1.73-1.63-.31-.13-.65-.24-1.02-.29l-.06.18.03-.04h.05ZM81.17,62.26c0-.22-.12-.37-.38-.37h-.65c-.15.83-.35,1.68-.58,2.46.37.04.74.15,1.1.28.41-.93.5-1.88.5-2.38h.01ZM84.76,63.69c.03.22.04.45.04.68,0,.45-.06.91-.15,1.4-.15.72-.63,1.32-1.54,1.32-.22,0-.47-.03-.76-.12-.13-.03-.19-.15-.19-.26,0-.12.08-.24.2-.24h.08c.26.09.49.12.68.12.63,0,.95-.4,1.06-.96.1-.46.15-.91.15-1.33,0-.22,0-.44-.03-.63h-2.3c-.15,0-.2-.1-.2-.2s.08-.22.2-.22h2.24c-.15-.58-.44-1.06-.88-1.32-.06-.03-.09-.08-.09-.13,0-.1.1-.22.24-.22.15,0,.31.13.4.2.08-.06,1.04-.88,1.04-1.11,0-.13-.19-.13-.5-.13-.49,0-1.34,0-2.05.03h0c-.13,0-.2-.1-.2-.2s.08-.2.2-.2h2.48c.41,0,.59.2.59.46,0,.15,0,.44-1.29,1.49.24.31.41.72.51,1.16h1.45c.15,0,.2.1.2.19,0,.1-.06.22-.2.22h-1.4v.03h.01Z" fill="#ded9c3"/>
      <path d="M90.72,66.94c-.17,0-.27-.12-.27-.24,0-.1.08-.19.22-.24,1.02-.28,1.77-.91,2.19-1.72-.79-.36-1.68-.6-2.48-.69-.86,1.1-1.27,1.32-1.79,1.32s-.91-.31-.91-.73c0-.46.49-1.04,2.15-1.04h.36c.83-1.1,1.5-2.34,1.5-2.53,0-.03-.03-.06-.06-.06h-.1c-.37.1-.68.17-.95.17-.41,0-.59-.1-.59-.29,0-.12.08-.24.2-.24h.06c.12.03.27.04.4.04.15,0,.31,0,.46-.04.26-.06.72-.13.79-.13.26,0,.4.15.4.36,0,.1-.03.2-.09.32-.31.58-.91,1.55-1.51,2.39.79.1,1.63.36,2.38.67.12-.32.19-.68.22-1.05,0-.15.12-.2.24-.2s.27.09.27.26c0,.1-.12.73-.31,1.2.64.31,1.22.67,1.68,1.05.08.08.12.15.12.24,0,.15-.12.28-.27.28-.06,0-.13-.03-.19-.09-.41-.4-.93-.76-1.51-1.05-.82,1.6-2.51,2-2.57,2l-.03.04h0v.03ZM89.73,64.01c-1.11,0-1.6.29-1.6.59,0,.13.1.31.45.31.45,0,.77-.28,1.29-.91h-.14Z" fill="#ded9c3"/>
      <path d="M100.1,66.66c-.19,0-.29-.12-.29-.26,0-.12.09-.22.28-.26,2.01-.31,2.84-1.59,2.84-2.66s-.86-2.04-2.28-2.04c-.13,0-.28,0-.41.03-1.01.1-2.53,1.29-2.53,2.7,0,.45.17,1.02.56,1.02.1,0,.2-.06.32-.15.26-.22,1.55-1.7,1.55-3.1v-.09h0c0-.2.12-.29.24-.29.29,0,.31.24.31.38,0,1.14-1.11,2.79-1.82,3.47-.2.2-.41.29-.63.29-.55,0-1.02-.68-1.02-1.51,0-1.52,1.5-3.19,3.47-3.19,1.73,0,2.8,1.19,2.8,2.48,0,2.27-2.73,3.14-3.38,3.14h-.01v.03Z" fill="#ded9c3"/>
      <path d="M107.21,62.44c-.17,0-.29-.15-.29-.29,0-.12.09-.24.31-.24.27,0,.59-.06.84-.1.32-.06,1.45-.36,2.16-.44h.15c.41,0,.6.22.6.46,0,.37-1.11,1.83-1.33,2.1,1.51.72,2.68,1.66,2.68,2.04,0,.17-.12.31-.28.31-.08,0-.17-.04-.24-.13-.54-.69-1.64-1.47-2.48-1.86-1.52,1.66-3.2,2.19-3.33,2.19-.18,0-.31-.12-.31-.26,0-.1.08-.2.26-.27,3-1.02,4.4-3.87,4.4-4.02,0-.06-.04-.1-.15-.1h-.04c-.55.06-1.57.32-2.06.44-.68.15-.77.15-.87.15h0v.03Z" fill="#ded9c3"/>
      <path d="M115.07,66.94c-.17,0-.27-.1-.27-.24,0-.1.08-.2.24-.27,1.24-.38,2.37-1.2,3.28-2.27-.35-.18-.72-.32-1.02-.41-.1-.03-.15-.1-.15-.18,0-.12.1-.24.27-.24.12,0,.64.17,1.22.45.78-1.05,1.19-2.01,1.19-2.1,0-.1-.09-.13-.17-.13-.4,0-1.33.22-1.78.24h-.08c-1.24,1.78-2.06,2.34-2.28,2.34-.15,0-.26-.1-.26-.24,0-.1.06-.2.19-.28.91-.58,1.59-1.54,2.01-2.2.17-.26.28-.6.35-.84.03-.13.15-.2.26-.2.13,0,.27.1.27.29,0,.18-.1.44-.22.68.55-.06,1.19-.2,1.73-.24h.06c.37,0,.56.2.56.46,0,.4-1.08,2.06-1.38,2.46.32.18,1,.59,1,.88,0,.15-.12.27-.27.27-.08,0-.15-.03-.2-.1-.19-.2-.5-.44-.83-.64-1.66,2.01-3.58,2.53-3.67,2.53h-.04Z" fill="#ded9c3"/>
      <path d="M127.82,66.73c0,.22-.15.35-.28.35-.12,0-.26-.1-.26-.32h0c0-.79.06-1.86.06-2.68,0-.5,0-.87-.06-1.08-1.04,1.14-2.66,2.37-3.06,2.37-.17,0-.28-.12-.28-.26,0-.1.06-.19.18-.26,2.07-1.02,3.89-3.24,4.24-4.33.03-.12.15-.18.26-.18.15,0,.28.09.28.27,0,.15-.19.73-1.23,1.92.15.15.17.5.17.68v.29c0,.47-.03,1.27-.03,2.05v1.15h.03-.01Z" fill="#ded9c3"/>
      <path d="M132.68,66.47c-.17,0-.29-.12-.29-.26,0-.09.06-.18.18-.26,1.97-1.06,2.27-2.79,2.27-3.33v-.32c0-.18.15-.28.28-.28.24,0,.29.15.29.54,0,.35-.2,2.39-2.47,3.84-.08.06-.17.08-.24.08h-.01ZM136.71,65.08c0,.1,0,.17.06.17.03,0,1.41-.5,2.64-2.57.08-.12.17-.17.24-.17.15,0,.28.13.28.31,0,.06,0,.12-.06.19-1.05,1.72-2.85,2.93-3.41,2.93-.2,0-.32-.15-.32-.36v-.1c.1-.58.2-1.95.2-2.71,0-.32,0-.65-.06-.84v-.06c0-.17.15-.27.28-.27.28,0,.31.26.31.79v.4c0,.4-.17,2-.17,2.29h0Z" fill="#ded9c3"/>
      <path d="M144.32,61.63c-.2.03-.4.06-.55.06-.49,0-.83-.17-.83-.4,0-.1.09-.2.22-.2.06,0,.13.03.2.08.1.08.26.1.45.1.1,0,.32,0,.83-.12.12-.31.15-.49.2-.84.03-.15.12-.2.24-.2s.27.09.27.24c0,.2-.12.56-.17.65.2-.08.41-.15.55-.24.04-.03.09-.03.13-.03.12,0,.22.09.22.2,0,.27-.55.41-1.11.56-.17.36-.44.77-.73,1.23.1,0,.19-.03.28-.03.49,0,.88.32,1.08,1,1.55-.69,2.16-.79,2.25-.79.18,0,.27.12.27.24,0,.09-.06.19-.17.22-.35.1-.59.18-1,.31-.45.13-.88.31-1.27.49,0,.18.03.37.03.56,0,.46,0,.84-.31.84-.12,0-.2-.09-.2-.27v-.06c.03-.24.04-.46.04-.65v-.2c-.68.36-1.38.82-1.38,1.42,0,.4.32.79,1.24.79.44,0,.86-.09,1.1-.17.06-.01.12-.03.17-.03.19,0,.31.12.31.26,0,.4-1.1.41-1.41.41-1.42,0-1.89-.68-1.89-1.24,0-.35.19-1.15,1.79-1.92-.12-.54-.37-.84-.73-.84-.19,0-.4.08-.64.24-.32.36-.46.5-.64.5-.12,0-.24-.09-.24-.2,0-.06.03-.15.12-.2.44-.37.93-.82,1.4-1.77h-.12l-.03.03.04-.03Z" fill="#ded9c3"/>
      <path d="M150.31,63.63c-.13,0-.19-.1-.19-.2s.08-.22.2-.22h.5c.49,0,1.04,0,1.04.73,0,.54-.03,1.11-.03,1.77.78,1.02,1.89,1.06,3.02,1.06.95,0,1.97-.09,2.68-.15h.03c.17,0,.26.12.26.24s-.09.24-.27.26c-.58.06-1.5.12-2.38.12-2.06,0-2.77-.26-3.56-1.16-.47.55-1.22,1.13-1.38,1.13-.13,0-.26-.12-.26-.26,0-.08.03-.15.12-.19.47-.28.93-.6,1.29-1.05v-1.64c0-.26-.1-.37-.4-.38h-.69.01v-.04ZM151.56,61.38c-.26-.38-.77-.78-1.02-.93-.08-.03-.1-.09-.1-.15,0-.1.12-.2.26-.2.2,0,1.32.79,1.32,1.13,0,.15-.12.28-.26.28-.06,0-.12-.03-.18-.1h-.01ZM154.87,64.7h-2.48c-.12,0-.19-.08-.19-.18,0-.09.08-.18.19-.18h1.45v-.82h-1.1c-.12,0-.19-.09-.19-.18s.06-.18.19-.18h1.1v-.41c0-.12.1-.19.2-.19s.22.06.22.19v.41h1.2v-.41c0-.12.1-.19.2-.19s.2.06.2.19v.41h1.15c.12,0,.18.09.18.18s-.06.18-.18.18h-1.15v.83h1.55c.12,0,.18.08.18.18s-.06.19-.18.19h-2.57v-.03h.03ZM153.87,60.94c.2,0,.27-.04.27-.17,0-.4,0-.44-.27-.44h-1.33c-.12,0-.17-.09-.17-.19,0-.09.06-.19.17-.19h1.41c.55,0,.59.19.59.67,0,.54-.1.67-.59.67h-.59c-.45,0-.54,0-.55.2v.31c0,.19.08.28.72.28.79,0,.86-.18.87-.5,0-.12.09-.18.19-.18s.22.08.22.19c0,.76-.49.86-1.29.86-.93,0-1.11-.17-1.11-.72,0-.5,0-.79.6-.79h.87ZM152.6,66.07c-.13,0-.2-.1-.2-.2,0-.09.06-.18.17-.19.55-.06,1.25-.32,1.64-.59.03-.03.08-.03.1-.03.1,0,.19.1.19.2,0,.36-1.7.82-1.89.82h0ZM155.44,63.51h-1.2v.84h1.2v-.84ZM156.48,60.94c.24,0,.28-.06.28-.17,0-.4,0-.44-.28-.44h-1.34c-.12,0-.17-.1-.17-.19,0-.1.06-.19.17-.19h1.42c.56,0,.63.2.63.67,0,.5-.04.67-.6.67h-.56c-.56,0-.58,0-.58.51,0,.24.13.28.74.28.87,0,.92-.2.93-.5,0-.12.1-.18.19-.18.1,0,.22.08.22.19,0,.65-.37.86-1.34.86-1.05,0-1.14-.2-1.14-.72s0-.79.63-.79h.83-.03ZM157.24,66.06c-.17,0-1.27-.24-1.95-.65-.06-.03-.08-.09-.08-.15,0-.1.08-.2.19-.2.03,0,.06,0,.1.03.49.27,1.2.49,1.79.55.13.01.19.1.19.2s-.08.22-.24.22h-.03.01Z" fill="#ded9c3"/>
      <path d="M161.13,64.24s.03,0,.06-.03c.22-.2.65-.4,1.02-.4s.68.19.68.79c0,.15,0,.26-.17.84-.03.09-.03.17-.03.24,0,.31.24.46.63.46,1.38,0,2.34-1.5,2.53-2.34.04-.18.17-.26.28-.26.15,0,.28.12.28.28,0,.32-1.01,2.8-3.12,2.8-1.05,0-1.1-.63-1.1-.79,0-.12,0-.26.06-.41.15-.49.18-.68.18-.82,0-.28-.12-.41-.32-.41-.36,0-1.38.49-1.83,1.82-.18.55-.35.64-.49.64-.26,0-.28-.19-.28-.26,0-.17.32-.84,1.54-2.85.49-.79.92-1.55,1.33-2.27.15-.26.38-.59.47-.77.06-.1.15-.15.24-.15.15,0,.29.12.29.28,0,.1-.03.18-.46.76-.41.58-1.7,2.66-1.78,2.8,0,.01-.03.04-.03.06h.01l-.03-.04Z" fill="#ded9c3"/>
      <path d="M173.66,66.74h-.06c-2.06-.15-3.1-1.5-3.1-2.79,0-1.05.77-1.82.91-1.92.04-.03.08-.08.08-.09s0,0-.03,0c0,0-.06,0-.1.03-.06.03-1.88.87-2.27.87-.2,0-.31-.12-.31-.26,0-.12.09-.24.26-.28.93-.24,2.55-.86,3.05-1.05.77-.31,1.59-.55,2.34-.55.27,0,.38.15.38.28,0,.19-.17.28-.4.28h-.35c-1.41,0-3.12,1.14-3.12,2.65,0,1.2,1.1,2.25,2.66,2.25.28,0,.41.15.41.29s-.15.31-.4.31l.04-.03h0ZM174.58,63.51c-.15-.18-.68-.56-.88-.67-.1-.04-.13-.1-.13-.17,0-.1.1-.19.24-.19.17,0,1.15.54,1.15.83,0,.13-.12.26-.24.26-.04,0-.1-.03-.13-.08h-.01ZM175.43,62.82c-.15-.18-.72-.55-.93-.64-.1-.04-.15-.1-.15-.17,0-.1.1-.19.24-.19.15,0,1.19.49,1.19.82,0,.15-.1.26-.22.26-.04,0-.09,0-.12-.06h-.01Z" fill="#ded9c3"/>
      <path d="M181.44,67c-.46-1.14-1.2-2.01-1.89-2.91-.26-.32-.38-.58-.38-.84,0-.22.1-.45.32-.73.58-.74,1.27-1.55,1.75-2.42.06-.1.13-.15.22-.15.15,0,.31.15.31.31,0,.04,0,.09-.03.13-.49.79-1.24,1.64-1.83,2.36-.15.19-.22.32-.22.46,0,.18.1.35.28.56.76.97,1.57,1.87,2.01,2.92,0,.06.03.1.03.15,0,.18-.15.31-.31.31-.1,0-.19-.06-.24-.18h-.01v.04Z" fill="#ded9c3"/>
      <path d="M189.07,61.82c-.83,2.33-1.5,3.49-2.09,4.75-.06.1-.17.17-.27.17-.15,0-.28-.08-.28-.22,0-.04,0-.1.04-.15.5-.92,1.29-2.3,2.07-4.43v-.03c-.2.08-.79.22-1.13.22-.06,0-.63,0-.63-.31,0-.12.08-.26.24-.26.04,0,.1,0,.17.04.09.04.19.06.29.06.08,0,.49,0,1.24-.29.08-.28.1-.54.1-.88,0-.17.13-.24.27-.24.24,0,.26.17.26.36,0,.17-.03.35-.08.54.1-.06.19-.12.26-.17s.12-.06.18-.06c.13,0,.24.1.24.22,0,.09-.06.27-.84.59l-.04.12v-.03h-.01ZM192.44,66.53c0,.26-.28.26-.41.26-1.52,0-2.29-.84-2.29-1.11,0-.15.12-.27.26-.27.08,0,.17.04.2.15.38.67,1.27.69,1.97.73.19,0,.28.13.28.26h-.01ZM192.72,63.42h-.1c-.45-.17-1.13-.41-1.69-.41-.12,0-.24,0-.36.04h-.06c-.1,0-.19-.1-.19-.2,0-.08.03-.28.63-.28.49,0,1.15.15,1.83.41.12.04.18.15.18.22,0,.13-.1.26-.26.26h.01v-.03h.01ZM192.5,61.54c-.15-.18-.67-.55-.88-.65-.1-.04-.13-.1-.13-.17,0-.1.1-.19.24-.19.15,0,1.14.54,1.14.83,0,.13-.1.24-.22.24-.04,0-.1,0-.13-.06h-.03ZM193.29,60.81c-.15-.17-.69-.54-.91-.63-.1-.04-.13-.1-.13-.17,0-.1.1-.2.24-.2.24,0,1,.55,1.08.63.06.06.08.12.08.19,0,.12-.1.24-.22.24-.04,0-.09,0-.12-.06h-.03Z" fill="#ded9c3"/>
      <path d="M199.69,62.55c.19.35.38.68.55,1.01s.31.63.4.88.13.46.13.59c0,.26-.12.32-.22.32-.09,0-.2-.04-.35-.17-.44-.35-1.55-.55-2.23-.55-.93,0-1.29.5-1.29.82,0,.5.84.86,1.79.86.15,0,.31,0,.46-.01h.06c.2,0,.31.12.31.26,0,.15-.12.29-.35.29h-.08c-1.72,0-2.66-.64-2.66-1.36,0-.45.41-1.24,1.82-1.24.68,0,1.41.17,1.97.27h.08s.04,0,.04-.04c0-.08-.15-.67-.97-2.04-.06-.09-.1-.18-.15-.26-.03,0-.73.17-1.08.17-.93,0-1.68-.83-1.68-1.05,0-.12.12-.22.26-.22.08,0,.17.03.24.12.49.59.96.72,1.29.72.08,0,.29,0,.77-.12-.45-.79-.54-1.06-.54-1.15,0-.15.1-.22.24-.22.12,0,.26.08.29.26.08.27.24.63.45,1.01.24-.08.46-.15.67-.22.06,0,.1-.03.15-.03.17,0,.26.12.26.24,0,.18-.1.24-.86.41.08.15.17.29.26.45l-.03.03v-.04Z" fill="#ded9c3"/>
      <path d="M206.6,65.96c-.26,0-.55-.1-.87-.36-.82-.63-1.11-1.91-1.25-2.62,0-.1-.18-.87-.18-.95,0-.15.12-.26.26-.26.12,0,.22.08.26.24.06.28.09.64.15.93.38,2.19,1.4,2.39,1.54,2.39s.24-.09.31-.26c.12-.28.18-.64.28-.96.04-.12.12-.18.2-.18.13,0,.27.1.27.26v.04c-.08.38-.2.79-.28,1.16-.06.31-.31.5-.67.5v.05ZM210.36,64.17c-.09-.72-.67-1.43-1.31-1.95-.06-.04-.08-.1-.08-.15,0-.12.1-.22.24-.22.06,0,.15.03.22.09.54.45,1.47,1.33,1.47,2.14,0,.22-.15.35-.29.35-.12,0-.22-.08-.26-.26Z" fill="#ded9c3"/>
    </g>
    <polygon points="263.15 56.43 265.63 55.27 263.15 54.1 261.04 55.09 20.02 55.09 17.91 54.1 15.43 55.27 17.91 56.43 20.02 55.44 261.04 55.44 263.15 56.43" fill="#ded9c3"/>
    <g>
      <path d="M35.36,34.24c-.33.87-.58,1.65-.75,2.33-.08.29-.17.7-.26,1.23h-.44c0-1.13-.18-1.93-.57-2.4-.4-.47-1-.7-1.82-.7h-.06c-.46,0-.81.04-1.04.11s-.41.22-.54.44-.26.59-.4,1.09l-1.25,4.67h.36c.62,0,1.19-.22,1.7-.65.51-.44.89-.96,1.13-1.56h.44c-.21.65-.39,1.27-.53,1.88l-.14.53c-.09.36-.18.71-.26,1.07s-.17.8-.26,1.34h-.44c0-.57-.15-1.08-.45-1.53-.3-.45-.79-.68-1.46-.68h-.18l-1.27,4.75c-.12.5-.18.82-.18.97,0,.28.1.46.29.54.19.09.53.13,1.02.13h.26c.95,0,1.75-.26,2.4-.78s1.29-1.43,1.93-2.72h.44c-.11.29-.24.76-.42,1.42-.22.78-.4,1.62-.51,2.53-.9-.04-2.39-.06-4.47-.06-3.06,0-5.35.02-6.88.06l.08-.4c.47-.03.83-.08,1.07-.16s.43-.23.56-.45.27-.59.41-1.09l2.61-9.81c.11-.45.16-.76.16-.95,0-.29-.1-.48-.29-.57s-.54-.15-1.04-.18l.1-.4c1.52.04,3.8.06,6.86.06,1.9,0,3.26-.02,4.09-.06h0Z" fill="#ded9c3"/>
      <path d="M45.34,45.03h.38l-.49,1.44c-.47,1.36-1.42,2.04-2.83,2.04-.84,0-1.44-.24-1.78-.71-.22-.3-.34-.67-.34-1.11s.11-.95.32-1.58l1.7-5.12c.1-.3.16-.56.16-.77s-.07-.3-.2-.3c-.34,0-.78.46-1.32,1.38-.54.92-1.09,2.1-1.65,3.54-.56,1.44-1.03,2.88-1.41,4.33v-.04l-.02.1h-3.5l2.41-8.58c.08-.26.12-.45.12-.57,0-.17-.1-.26-.3-.26-.21,0-.4.09-.57.28-.17.18-.34.51-.51.97l-.45,1.21h-.38l.55-1.54c.25-.7.59-1.21,1.03-1.54s1-.49,1.68-.49c.74,0,1.27.17,1.59.51s.48.79.48,1.34c0,.3-.04.61-.12.91l-.53,2.06c.51-1.29,1-2.28,1.47-2.98.47-.69.95-1.17,1.43-1.44.49-.27,1.04-.41,1.66-.41,1.29,0,1.94.55,1.94,1.64,0,.36-.09.8-.26,1.34l-1.96,5.87c-.07.22-.1.38-.1.47,0,.24.11.36.34.36.38,0,.73-.42,1.05-1.25l.42-1.11h-.01Z" fill="#ded9c3"/>
      <path d="M50.34,46.55c-.04.13-.06.26-.06.38,0,.3.14.46.42.46s.53-.14.79-.43c.26-.28.47-.64.63-1.08l.32-.85h.38l-.38,1.09c-.26.76-.67,1.35-1.21,1.77-.54.42-1.19.62-1.94.62s-1.29-.19-1.65-.57-.54-.9-.54-1.56c0-.34.07-.76.2-1.27l1.94-6.74h-1.8l.1-.4h1.82l.83-2.91c1.38,0,2.58-.11,3.6-.28l-.93,3.18h1.98l-.06.4h-2.04l-2.39,8.19h0Z" fill="#ded9c3"/>
      <path d="M61.84,42.33c-1.23.82-2.7,1.43-4.4,1.83-.04.36-.06.69-.06,1.01,0,.73.14,1.23.42,1.5s.69.42,1.23.42c.33,0,.75-.11,1.27-.34.52-.22,1.02-.57,1.49-1.05l.32.16c-.5.75-1.18,1.38-2.04,1.89s-1.85.76-2.97.76c-.98,0-1.79-.24-2.44-.73-.65-.49-.98-1.17-.98-2.06,0-1.29.33-2.56,1-3.81s1.58-2.26,2.73-3.04c1.15-.78,2.43-1.18,3.83-1.18.74,0,1.33.15,1.78.44.45.3.67.73.67,1.3,0,1.11-.62,2.07-1.85,2.9ZM59.57,38.92c-.45.57-.87,1.3-1.26,2.19-.38.9-.65,1.79-.81,2.69.7-.41,1.3-.86,1.82-1.34.55-.54.99-1.14,1.31-1.8s.48-1.36.48-2.1c0-.33-.11-.49-.32-.49-.37,0-.78.28-1.24.85,0,0,.02,0,.02,0Z" fill="#ded9c3"/>
      <path d="M73.48,38.24c.34.36.51.82.51,1.37,0,.67-.21,1.25-.63,1.74s-.96.73-1.6.73c-.49,0-.86-.13-1.11-.38s-.38-.62-.38-1.11c0-.58.21-1.11.63-1.58s.93-.76,1.52-.87c-.16-.04-.25-.06-.28-.06-.42,0-.8.09-1.15.26-.34.17-.72.59-1.14,1.27-.42.67-.85,1.7-1.31,3.08l-1.44,5.54h-3.5l2.41-8.58c.05-.2.08-.37.08-.51,0-.21-.09-.32-.26-.32-.21,0-.4.09-.57.28-.17.18-.34.51-.51.97l-.45,1.21h-.38l.55-1.54c.49-1.36,1.47-2.04,2.95-2.04.63,0,1.09.17,1.38.51s.44.78.44,1.32c0,.18,0,.32-.02.42.38-.83.79-1.41,1.24-1.75.44-.34.98-.5,1.61-.5.59,0,1.06.18,1.4.54h0Z" fill="#ded9c3"/>
      <path d="M94.74,34.56c.43.4.64.91.64,1.51s-.21,1.12-.63,1.5-.95.57-1.58.57c-.54,0-.97-.13-1.29-.39s-.47-.62-.47-1.08c0-.58.19-1.07.58-1.47s.88-.66,1.47-.76c-.11-.11-.27-.16-.49-.16s-.42.04-.61.11c-.2.07-.42.19-.65.37-.34.25-.75.72-1.23,1.41-.47.69-.95,1.58-1.43,2.65s-.9,2.26-1.26,3.57l-.95,3.74c-.07.22-.1.46-.1.71,0,.38.13.64.39.76.26.13.68.2,1.28.23l-.1.4c-.83-.04-2.18-.06-4.03-.06-1.61,0-2.8.02-3.58.06l.1-.4c.47-.03.83-.08,1.07-.16s.43-.23.57-.46.28-.59.4-1.08l1.03-4.05c-.2-1.74-.49-3.25-.88-4.52s-.85-1.91-1.37-1.91c-.38,0-.68.31-.89.93l-.34,1.01h-.44l.42-1.27c.28-.84.71-1.45,1.31-1.82s1.27-.55,2.04-.55c.98,0,1.73.26,2.26.77s.92,1.25,1.17,2.19c.24.95.46,2.29.66,4.01.41-1.24.86-2.35,1.36-3.34s1.02-1.81,1.56-2.45c.69-.79,1.47-1.19,2.35-1.19.69,0,1.24.2,1.67.6v.02h0Z" fill="#ded9c3"/>
      <path d="M94.73,41.74c.51-1.15,1.29-2.12,2.32-2.89s2.3-1.16,3.79-1.16c1.15,0,2.02.29,2.62.87.6.58.9,1.41.9,2.49s-.26,2.26-.77,3.41c-.51,1.15-1.29,2.12-2.32,2.89s-2.3,1.16-3.79,1.16c-1.15,0-2.02-.29-2.62-.87-.6-.58-.9-1.41-.9-2.49s.26-2.26.77-3.41ZM99.34,39.57c-.57.99-1.06,2.18-1.47,3.59-.42,1.4-.62,2.69-.62,3.85,0,.41.03.7.09.86.06.17.15.25.29.25.36,0,.81-.48,1.37-1.43.56-.96,1.05-2.13,1.46-3.51.42-1.38.62-2.7.62-3.93,0-.46-.03-.77-.09-.92s-.14-.23-.25-.23c-.37,0-.84.49-1.4,1.48h0Z" fill="#ded9c3"/>
      <path d="M115.94,44.93h.38l-.55,1.54c-.25.7-.63,1.21-1.13,1.54s-1.07.49-1.7.49c-.87,0-1.46-.26-1.76-.77-.16-.28-.24-.59-.24-.95,0-.32.05-.67.16-1.05l.45-1.72c-.5,1.21-.99,2.14-1.45,2.79-.47.65-.94,1.09-1.42,1.33-.48.24-1.03.37-1.65.37s-1.05-.14-1.37-.42-.48-.69-.48-1.23c0-.4.08-.84.26-1.34l1.92-5.87c.07-.22.1-.38.1-.47,0-.24-.11-.36-.34-.36-.38,0-.73.42-1.05,1.25l-.42,1.11h-.38l.49-1.44c.47-1.36,1.42-2.04,2.83-2.04.67,0,1.19.16,1.55.46.36.31.54.77.54,1.39,0,.44-.1.95-.3,1.54l-1.7,5.12c-.11.3-.16.56-.16.77s.07.3.2.3c.32,0,.72-.4,1.22-1.2.49-.8,1-1.84,1.53-3.12s1-2.61,1.4-3.98l.26-1.01c1.44-.03,2.63-.12,3.58-.28l-2.49,8.86c-.08.25-.12.44-.12.57,0,.17.1.26.3.26.21,0,.4-.09.57-.28.17-.18.34-.51.51-.97l.46-1.21s0,.02,0,.02Z" fill="#ded9c3"/>
      <path d="M126.98,38.24c.34.36.51.82.51,1.37,0,.67-.21,1.25-.63,1.74s-.96.73-1.6.73c-.49,0-.86-.13-1.11-.38s-.38-.62-.38-1.11c0-.58.21-1.11.63-1.58s.93-.76,1.52-.87c-.16-.04-.25-.06-.28-.06-.42,0-.8.09-1.15.26-.34.17-.72.59-1.14,1.27-.42.67-.85,1.7-1.32,3.08l-1.44,5.54h-3.5l2.41-8.58c.05-.2.08-.37.08-.51,0-.21-.09-.32-.26-.32-.21,0-.4.09-.57.28s-.34.51-.51.97l-.46,1.21h-.38l.55-1.54c.49-1.36,1.47-2.04,2.95-2.04.63,0,1.09.17,1.38.51s.44.78.44,1.32c0,.18,0,.32-.02.42.38-.83.79-1.41,1.24-1.75.44-.34.98-.5,1.61-.5.59,0,1.06.18,1.4.54,0,0,.03,0,.03,0Z" fill="#ded9c3"/>
      <path d="M145.66,34.24c-.29.74-.54,1.52-.75,2.33-.21.78-.36,1.38-.46,1.82h-.43c0-.17.02-.4.02-.69,0-1.08-.21-1.85-.63-2.31-.42-.46-1.01-.69-1.78-.69h-.06c-.41,0-.72.04-.93.11-.21.07-.38.22-.5.44-.12.22-.24.59-.36,1.09l-1.25,4.67h.55c.59,0,1.14-.2,1.63-.59.49-.4.89-.94,1.2-1.62h.43c-.24.74-.46,1.54-.67,2.41-.17.71-.38,1.71-.61,3.01h-.43c0-.91-.16-1.6-.47-2.09-.32-.48-.76-.72-1.34-.72h-.38l-1.27,4.75c-.09.33-.14.62-.14.87,0,.32.12.53.36.63.24.11.69.17,1.34.2l-.08.4c-.88-.04-2.2-.06-3.93-.06s-2.89.02-3.68.06l.08-.4c.47-.03.83-.08,1.07-.16s.43-.23.56-.45c.14-.22.27-.59.41-1.09l2.61-9.81c.11-.45.16-.76.16-.95,0-.29-.1-.48-.29-.57-.19-.09-.54-.15-1.04-.18l.1-.4c1.52.04,3.8.06,6.86.06,1.9,0,3.26-.02,4.09-.06h0Z" fill="#ded9c3"/>
      <path d="M154.22,45.03h.38l-.49,1.44c-.47,1.36-1.42,2.04-2.83,2.04-.8,0-1.38-.23-1.72-.69-.22-.33-.34-.73-.34-1.21,0-.15,0-.26.02-.34-.32.8-.73,1.38-1.23,1.72s-1.09.51-1.78.51c-.82,0-1.43-.21-1.84-.63s-.61-1.03-.61-1.84c0-1.24.33-2.51,1-3.82.67-1.3,1.5-2.39,2.49-3.24,1-.86,1.95-1.29,2.86-1.29.75,0,1.16.38,1.23,1.13l.26-.83c1.28,0,2.47-.11,3.58-.3l-2.67,8.86c-.05.17-.08.33-.08.47,0,.24.1.36.32.36.38,0,.73-.42,1.05-1.25l.42-1.11-.02.02h0ZM148.79,46.53c.28-.42.59-1.18.95-2.27l1.42-4.75c0-.07.02-.16.02-.3,0-.37-.13-.55-.38-.55-.37,0-.82.38-1.35,1.15-.53.76-.99,1.73-1.37,2.89-.38,1.16-.57,2.3-.57,3.42,0,.38.03.65.1.81s.18.24.36.24c.28,0,.55-.21.83-.63h0Z" fill="#ded9c3"/>
      <path d="M162.94,41.11c-.42-.55-.63-1.14-.63-1.79,0-.5.13-.9.41-1.19s.65-.44,1.14-.44c1,0,1.5.65,1.5,1.94s-.24,2.67-.73,4.04c-.49,1.38-1.23,2.53-2.21,3.45-.99.92-2.19,1.38-3.6,1.38-1.12,0-1.92-.23-2.41-.7s-.73-1.05-.73-1.75c0-1.19.5-2.39,1.51-3.62s2.43-2.52,4.26-3.9c-.41,0-.75.11-1.03.3-.28.18-.57.44-.89.77-.26.26-.49.46-.67.58-.18.12-.39.19-.61.19-.14,0-.34-.05-.57-.16-.18-.09-.34-.14-.47-.14-.16,0-.29.06-.39.18s-.19.31-.27.57l-.14.42h-.38l.43-1.44c.4-1.42,1.01-2.14,1.86-2.14.15,0,.29.02.44.07.14.05.28.1.42.17.21.11.42.19.61.25.2.06.43.09.71.09.46,0,.89-.1,1.29-.3l.2-.38.42.2c-.86,1.38-1.57,2.88-2.12,4.48-.56,1.6-.84,2.89-.84,3.87,0,.46.07.8.21,1.02s.37.33.7.33c.96,0,1.82-.49,2.58-1.48.76-.99,1.31-2.19,1.67-3.6-.67-.3-1.22-.73-1.64-1.28h-.03,0Z" fill="#ded9c3"/>
      <path d="M166.58,41.74c.51-1.15,1.29-2.12,2.32-2.89,1.04-.77,2.3-1.16,3.79-1.16,1.15,0,2.02.29,2.62.87s.9,1.41.9,2.49-.26,2.26-.77,3.41c-.51,1.15-1.29,2.12-2.32,2.89-1.04.77-2.3,1.16-3.79,1.16-1.15,0-2.02-.29-2.62-.87-.6-.58-.9-1.41-.9-2.49s.26-2.26.77-3.41ZM171.19,39.57c-.57.99-1.06,2.18-1.47,3.59-.42,1.4-.62,2.69-.62,3.85,0,.41.03.7.09.86.06.17.15.25.29.25.36,0,.81-.48,1.37-1.43.56-.96,1.05-2.13,1.46-3.51.42-1.38.62-2.7.62-3.93,0-.46-.03-.77-.09-.92-.06-.15-.14-.23-.25-.23-.37,0-.84.49-1.4,1.48h0Z" fill="#ded9c3"/>
      <path d="M186.63,38.24c.34.36.51.82.51,1.37,0,.67-.21,1.25-.63,1.74s-.96.73-1.6.73c-.49,0-.86-.13-1.11-.38s-.38-.62-.38-1.11c0-.58.21-1.11.63-1.58s.93-.76,1.52-.87c-.16-.04-.25-.06-.28-.06-.42,0-.8.09-1.15.26-.34.17-.72.59-1.14,1.27s-.85,1.7-1.31,3.08l-1.44,5.54h-3.5l2.41-8.58c.05-.2.08-.37.08-.51,0-.21-.09-.32-.26-.32-.21,0-.4.09-.57.28-.17.18-.34.51-.51.97l-.45,1.21h-.38l.55-1.54c.49-1.36,1.47-2.04,2.95-2.04.63,0,1.09.17,1.38.51s.43.78.43,1.32c0,.18,0,.32-.02.42.38-.83.79-1.41,1.24-1.75.44-.34.98-.5,1.61-.5.59,0,1.06.18,1.4.54,0,0,.02,0,.02,0Z" fill="#ded9c3"/>
      <path d="M189.18,39.16c0-.22-.09-.34-.28-.34-.21,0-.4.09-.57.28s-.34.51-.51.97l-.46,1.21h-.38l.55-1.54c.49-1.36,1.47-2.04,2.95-2.04.71,0,1.23.17,1.56.51s.49.78.49,1.3c0,.29-.05.61-.16.95l-2.06,6.09c-.07.22-.1.38-.1.47,0,.24.11.36.34.36.38,0,.73-.42,1.05-1.25l.42-1.11h.38l-.49,1.44c-.47,1.36-1.42,2.04-2.83,2.04-.67,0-1.19-.16-1.56-.47s-.55-.78-.55-1.4c0-.42.1-.93.3-1.52l1.82-5.46c.07-.17.1-.34.1-.49h0ZM190.57,33.31c.44-.36,1.03-.53,1.75-.53.58,0,1.02.11,1.31.34.3.22.45.56.45,1.01,0,.61-.23,1.1-.69,1.48s-1.04.57-1.74.57c-.57,0-1-.11-1.3-.34-.3-.22-.44-.55-.44-.97,0-.69.22-1.21.66-1.56h0Z" fill="#ded9c3"/>
      <path d="M197.03,46.55c-.04.13-.06.26-.06.38,0,.3.14.46.42.46s.53-.14.79-.43c.26-.28.47-.64.63-1.08l.32-.85h.38l-.38,1.09c-.26.76-.67,1.35-1.21,1.77-.54.42-1.19.62-1.94.62s-1.29-.19-1.65-.57-.54-.9-.54-1.56c0-.34.07-.76.2-1.27l1.94-6.74h-1.8l.1-.4h1.82l.83-2.91c1.38,0,2.58-.11,3.6-.28l-.93,3.18h1.98l-.06.4h-2.04l-2.39,8.19h-.01Z" fill="#ded9c3"/>
      <path d="M208.53,42.33c-1.23.82-2.7,1.43-4.4,1.83-.04.36-.06.69-.06,1.01,0,.73.14,1.23.42,1.5.28.28.68.42,1.23.42.33,0,.75-.11,1.28-.34s1.02-.57,1.49-1.05l.32.16c-.5.75-1.18,1.38-2.04,1.89s-1.85.76-2.97.76c-.98,0-1.79-.24-2.44-.73-.65-.49-.98-1.17-.98-2.06,0-1.29.33-2.56,1-3.81s1.58-2.26,2.73-3.04c1.15-.78,2.43-1.18,3.83-1.18.74,0,1.33.15,1.78.44.45.3.67.73.67,1.3,0,1.11-.62,2.07-1.85,2.9h-.01ZM206.25,38.92c-.46.57-.87,1.3-1.26,2.19-.38.9-.65,1.79-.81,2.69.7-.41,1.3-.86,1.82-1.34.55-.54.99-1.14,1.31-1.8.32-.66.48-1.36.48-2.1,0-.33-.11-.49-.32-.49-.37,0-.78.28-1.24.85,0,0,.02,0,.02,0Z" fill="#ded9c3"/>
      <path d="M226.98,38.13h-.39c.08-.38.12-.74.12-1.09,0-.8-.25-1.43-.75-1.88s-1.2-.67-2.1-.67c-.62,0-1.13.16-1.53.46-.4.31-.6.79-.6,1.45,0,.58.17,1.14.5,1.67.34.53.85,1.21,1.55,2.03.51.59.93,1.1,1.24,1.51s.57.87.79,1.36.33,1.01.33,1.53c0,.9-.31,1.64-.92,2.24-.61.6-1.36,1.04-2.25,1.32s-1.75.43-2.58.43c-.96,0-1.69-.07-2.18-.2s-1.04-.37-1.65-.71c-.34-.2-.57-.3-.67-.3-.17,0-.31.07-.42.21s-.25.43-.44.86h-.4c.21-.5.42-1.1.62-1.81.2-.71.45-1.68.72-2.94h.4c-.12.33-.18.78-.18,1.36,0,1.02.28,1.78.84,2.29.56.51,1.35.77,2.38.77.86,0,1.46-.16,1.8-.48s.51-.77.51-1.33c0-.75-.17-1.44-.5-2.06-.34-.62-.84-1.34-1.51-2.17-.65-.8-1.13-1.5-1.46-2.1-.33-.59-.49-1.24-.49-1.94,0-.87.27-1.61.8-2.21.53-.61,1.2-1.06,2-1.35s1.6-.44,2.4-.44c.57,0,1.07.05,1.52.16s.77.2.98.29c.2.09.54.24,1,.46.07.03.17.08.33.16s.26.12.33.12c.11,0,.21-.08.31-.25.1-.16.21-.43.35-.8h.4c-.5,1.27-.89,2.61-1.17,4.03,0,0-.03.02-.03.02Z" fill="#ded9c3"/>
      <path d="M231.17,46.55c-.04.13-.06.26-.06.38,0,.3.14.46.42.46s.53-.14.79-.43c.26-.28.47-.64.63-1.08l.32-.85h.38l-.38,1.09c-.26.76-.67,1.35-1.21,1.77-.54.42-1.19.62-1.94.62s-1.29-.19-1.65-.57-.54-.9-.54-1.56c0-.34.07-.76.2-1.27l1.94-6.74h-1.8l.1-.4h1.82l.83-2.91c1.38,0,2.58-.11,3.6-.28l-.93,3.18h1.98l-.06.4h-2.04l-2.39,8.19h-.01Z" fill="#ded9c3"/>
      <path d="M243.97,39.61c0,1.15-.38,2.53-1.14,4.16s-1.68,3.09-2.76,4.38c-.83.99-1.7,1.79-2.6,2.4s-1.8,1.02-2.7,1.24c-.45.11-.84.16-1.17.16-.53,0-.93-.12-1.22-.35-.28-.23-.43-.55-.43-.96s.15-.73.44-1.02c.29-.28.67-.43,1.15-.43.95,0,1.76.58,2.43,1.74.86-.38,1.62-.88,2.29-1.48l-1.6-9.79c-.07-.34-.12-.57-.17-.68s-.13-.17-.25-.17c-.13,0-.25.08-.35.24s-.25.49-.45,1.01l-.42,1.11h-.38l.49-1.44c.26-.75.6-1.28,1.02-1.58.42-.3.93-.45,1.53-.45.66,0,1.18.17,1.56.52.38.35.64.96.77,1.83l.85,6.33c.87-1.27,1.56-2.62,2.08-4.07-.62-.34-1.12-.78-1.49-1.31-.38-.53-.56-1.09-.56-1.68,0-.5.13-.9.41-1.19s.65-.44,1.14-.44c1,0,1.5.64,1.5,1.92,0,0,.03,0,.03,0Z" fill="#ded9c3"/>
      <path d="M247.41,46.93c0,.16.04.27.11.35.07.07.16.11.27.11.13,0,.29-.08.46-.25.18-.17.36-.5.54-1l.42-1.11h.38l-.49,1.44c-.26.76-.65,1.29-1.17,1.59-.51.3-1.06.44-1.64.44-.66,0-1.17-.17-1.54-.51s-.55-.84-.55-1.48c0-.41.08-.88.24-1.4l3.02-10.06c.07-.24.1-.42.1-.55,0-.26-.1-.45-.31-.57-.21-.12-.55-.18-1.04-.18l.14-.42c1.04,0,1.98-.09,2.83-.22s1.67-.33,2.47-.59l-4.17,14.04c-.04.13-.06.26-.06.38h-.01Z" fill="#ded9c3"/>
      <path d="M258.47,42.33c-1.23.82-2.7,1.43-4.4,1.83-.04.36-.06.69-.06,1.01,0,.73.14,1.23.42,1.5.28.28.68.42,1.23.42.33,0,.75-.11,1.28-.34.52-.22,1.02-.57,1.49-1.05l.32.16c-.5.75-1.18,1.38-2.04,1.89-.86.51-1.85.76-2.97.76-.98,0-1.79-.24-2.44-.73-.65-.49-.98-1.17-.98-2.06,0-1.29.33-2.56,1-3.81s1.57-2.26,2.73-3.04c1.15-.78,2.43-1.18,3.83-1.18.74,0,1.33.15,1.78.44.45.3.67.73.67,1.3,0,1.11-.62,2.07-1.85,2.9h0ZM256.2,38.92c-.46.57-.87,1.3-1.26,2.19-.38.9-.65,1.79-.81,2.69.7-.41,1.3-.86,1.82-1.34.55-.54.99-1.14,1.31-1.8s.48-1.36.48-2.1c0-.33-.11-.49-.32-.49-.37,0-.78.28-1.24.85h.02,0Z" fill="#ded9c3"/>
    </g>
  </g>
  <g>
    <g>
      <path d="M47.04,7.35h-.85c-1.31,0-2.37-1.06-2.37-2.37v-2.62C43.82,1.05,44.88,0,46.19,0h.85c1.31,0,2.37,1.06,2.37,2.37v2.62c0,1.31-1.06,2.37-2.37,2.37ZM46.18,1c-.75,0-1.37.61-1.37,1.37v2.62c0,.75.61,1.37,1.37,1.37h.85c.75,0,1.37-.61,1.37-1.37v-2.62c0-.75-.61-1.37-1.37-1.37,0,0-.85,0-.85,0Z" fill="#ded9c3"/>
      <path d="M47.04,19.45h-.85c-1.31,0-2.37-1.06-2.37-2.37v-2.62c0-1.31,1.06-2.37,2.37-2.37h.85c1.31,0,2.37,1.06,2.37,2.37v2.62c0,1.31-1.06,2.37-2.37,2.37ZM46.18,13.09c-.75,0-1.37.61-1.37,1.37v2.62c0,.75.61,1.37,1.37,1.37h.85c.75,0,1.37-.61,1.37-1.37v-2.62c0-.75-.61-1.37-1.37-1.37h-.85Z" fill="#ded9c3"/>
    </g>
    <path d="M46.61,13.99c-.28,0-.5-.22-.5-.5v-7.54c0-.28.22-.5.5-.5s.5.22.5.5v7.54c0,.28-.22.5-.5.5Z" fill="#ded9c3"/>
  </g>
  <g>
    <g>
      <path d="M234.97,7.35h-.85c-1.31,0-2.37-1.06-2.37-2.37v-2.62c0-1.31,1.06-2.37,2.37-2.37h.85c1.31,0,2.37,1.06,2.37,2.37v2.62c0,1.31-1.06,2.37-2.37,2.37ZM234.12,1c-.75,0-1.37.61-1.37,1.37v2.62c0,.75.61,1.37,1.37,1.37h.85c.75,0,1.37-.61,1.37-1.37v-2.62c0-.75-.61-1.37-1.37-1.37,0,0-.85,0-.85,0Z" fill="#ded9c3"/>
      <path d="M234.97,19.45h-.85c-1.31,0-2.37-1.06-2.37-2.37v-2.62c0-1.31,1.06-2.37,2.37-2.37h.85c1.31,0,2.37,1.06,2.37,2.37v2.62c0,1.31-1.06,2.37-2.37,2.37ZM234.12,13.09c-.75,0-1.37.61-1.37,1.37v2.62c0,.75.61,1.37,1.37,1.37h.85c.75,0,1.37-.61,1.37-1.37v-2.62c0-.75-.61-1.37-1.37-1.37h-.85Z" fill="#ded9c3"/>
    </g>
    <path d="M234.55,13.99c-.28,0-.5-.22-.5-.5v-7.54c0-.28.22-.5.5-.5s.5.22.5.5v7.54c0,.28-.22.5-.5.5Z" fill="#ded9c3"/>
  </g>
</svg>