<?xml version="1.0" encoding="UTF-8"?>
<svg id="_レイヤー_2" xmlns="http://www.w3.org/2000/svg" width="257.59" height="64.56" version="1.1" viewBox="0 0 257.59 64.56">
  <!-- Generator: Adobe Illustrator 29.4.0, SVG Export Plug-In . SVG Version: 2.1.0 Build 152)  -->
  <g>
    <rect x=".96" y=".97" width="255.67" height="62.63" rx="4.1" ry="4.1" fill="#212a37"/>
    <path d="M252.53,64.1H5.06c-2.54,0-4.6-2.06-4.6-4.6V5.07C.46,2.53,2.52.47,5.06.47h247.47c2.54,0,4.6,2.06,4.6,4.6v54.43c0,2.54-2.06,4.6-4.6,4.6ZM5.06,1.47c-1.99,0-3.6,1.62-3.6,3.6v54.43c0,1.98,1.61,3.6,3.6,3.6h247.47c1.99,0,3.6-1.62,3.6-3.6V5.07c0-1.98-1.62-3.6-3.6-3.6,0,0-247.47,0-247.47,0Z" fill="#414e5b"/>
  </g>
  <g>
    <path d="M240.01,9.24c-.04-.14-.17-.21-.31-.21H60.94v.02H17.68c-.14,0-.26.09-.31.21-1.21,3.87-4.26,6.92-8.13,8.13-.14.04-.21.17-.21.31v29.22c0,.14.09.26.21.31,3.87,1.21,6.92,4.26,8.13,8.13.04.14.17.21.31.21h178.76v-.02h43.26c.14,0,.26-.09.31-.21,1.21-3.87,4.26-6.92,8.13-8.13.14-.04.21-.17.21-.31v-29.22c0-.14-.09-.26-.21-.31-3.87-1.21-6.92-4.26-8.13-8.13h0ZM247.74,46.67c-3.89,1.28-6.97,4.35-8.25,8.23H60.95v.02H17.92c-1.28-3.89-4.36-6.96-8.25-8.25v-28.78c3.89-1.28,6.97-4.35,8.25-8.23h178.53v-.02h43.04c1.28,3.89,4.36,6.96,8.25,8.25v28.78h0Z" fill="#c0b68a"/>
    <path d="M252.09,14.19c-.08-.08-.19-.12-.31-.12-2.34,0-4.45-.94-6-2.49s-2.49-3.64-2.49-6c0-.11-.04-.23-.12-.31s-.19-.12-.31-.12H14.51c-.11,0-.23.04-.31.12s-.12.19-.12.31c0,2.34-.94,4.45-2.49,6s-3.64,2.49-6,2.49c-.11,0-.23.04-.31.12s-.12.19-.12.31v35.58c0,.11.04.23.12.31s.19.12.31.12c2.34,0,4.45.94,6,2.49s2.49,3.64,2.49,6c0,.11.04.23.12.31s.19.12.31.12h228.37c.11,0,.23-.04.31-.12s.12-.19.12-.31c0-2.34.94-4.45,2.49-6s3.64-2.49,6-2.49c.11,0,.23-.04.31-.12s.12-.19.12-.31V14.49c0-.11-.04-.23-.12-.31h-.02,0ZM251.36,49.65c-2.41.11-4.58,1.13-6.16,2.73-1.6,1.59-2.63,3.76-2.73,6.16H14.93c-.11-2.41-1.13-4.58-2.73-6.16-1.59-1.59-3.76-2.61-6.16-2.73V14.92c2.41-.11,4.58-1.13,6.16-2.73,1.6-1.59,2.63-3.76,2.73-6.16h227.55c.11,2.41,1.13,4.58,2.73,6.16,1.59,1.59,3.76,2.61,6.16,2.73v34.72h-.01Z" fill="#c0b68a"/>
  </g>
  <g>
    <g>
      <circle cx="7.75" cy="8.15" r="1.98" fill="#c0b68a"/>
      <circle cx="7.75" cy="56.43" r="1.98" fill="#c0b68a"/>
    </g>
    <g>
      <circle cx="249.85" cy="8.15" r="1.98" fill="#c0b68a"/>
      <circle cx="249.85" cy="56.43" r="1.98" fill="#c0b68a"/>
    </g>
  </g>
  <g>
    <path d="M77.08,29.34c.24.36.53.67.87.94.34.27.81.59,1.4.98.64.41,1.15.76,1.53,1.07.38.31.71.68.97,1.12.27.44.4.95.4,1.52,0,.66-.18,1.25-.54,1.77-.36.52-.85.92-1.48,1.2-.63.29-1.33.43-2.11.43-.57,0-1.17-.08-1.8-.24-.62-.16-1.04-.33-1.26-.53-.06-.05-.11-.1-.14-.14-.03-.04-.05-.12-.05-.22l-.06-3.04v-.02c0-.05.03-.08.1-.09.06,0,.1.02.11.07.38.78.72,1.41,1,1.89s.65.91,1.09,1.28c.44.37.94.55,1.5.55.51,0,.93-.14,1.26-.41.33-.27.5-.74.5-1.41,0-.56-.12-1.05-.37-1.47-.25-.42-.55-.78-.91-1.07-.36-.29-.85-.64-1.47-1.05-.61-.39-1.09-.73-1.42-1.01-.34-.28-.63-.62-.87-1.01s-.36-.86-.36-1.4c0-.67.19-1.25.58-1.71.39-.46.89-.81,1.5-1.03.61-.22,1.25-.33,1.93-.33.45,0,.9.04,1.36.12.46.08.83.18,1.11.3.11.05.19.1.23.16.04.06.06.13.06.22v2.81s-.03.07-.1.09c-.06.02-.1,0-.11-.03l-.15-.36c-.32-.8-.69-1.48-1.12-2.04-.43-.56-1.02-.84-1.79-.84-.51,0-.93.15-1.25.44-.32.29-.49.72-.49,1.28,0,.46.12.87.35,1.22Z" fill="#131f2b"/>
    <path d="M89.43,36.79c.05,0,.09.03.12.08.03.05.03.09,0,.12-.47.47-.93.82-1.38,1.04-.45.22-.92.33-1.41.33-.56,0-1.04-.13-1.43-.4s-.59-.72-.59-1.36v-4.24c0-.4-.07-.67-.21-.82-.14-.15-.4-.23-.76-.23-.01,0-.03-.02-.05-.06-.02-.04-.03-.08-.03-.11,0-.05,0-.09.02-.12.01-.03.03-.05.06-.05.65-.03,1.18-.17,1.58-.42.4-.25.71-.64.93-1.17.03-.05.08-.08.16-.08s.12.03.12.08v1.53c.74-.01,1.57-.07,2.48-.17.03,0,.05.05.09.14.03.1.05.2.05.32,0,.13-.02.25-.07.37-.04.12-.09.18-.14.16-.83-.18-1.63-.27-2.41-.29v4.53c0,.48.12.84.37,1.07.25.23.58.34.98.34.51,0,1.01-.19,1.49-.57l.04-.02Z" fill="#131f2b"/>
    <path d="M97.08,36.87s.05.03.09.08c.03.05.03.09,0,.11-.47.46-.95.79-1.43.99-.48.2-1.01.31-1.59.31-.8,0-1.5-.17-2.08-.51-.59-.34-1.03-.79-1.34-1.36-.31-.57-.46-1.18-.46-1.84,0-.74.18-1.42.55-2.05.37-.62.88-1.12,1.54-1.48s1.4-.54,2.23-.54,1.4.18,1.83.54c.43.36.65.91.65,1.66,0,.4-.07.59-.21.59l-4.64.02c-.01.09-.02.24-.02.44,0,1.12.26,2,.77,2.64.52.64,1.26.96,2.23.96.34,0,.64-.04.88-.12.24-.08.56-.22.96-.42l.04-.02ZM92.82,31.51c-.28.36-.47.86-.55,1.5l2.77-.04c-.01-.65-.11-1.15-.29-1.49-.18-.34-.47-.52-.88-.52s-.77.18-1.05.54Z" fill="#131f2b"/>
    <path d="M98.28,38.01c0-.08.01-.12.04-.12.39,0,.67-.09.81-.28.15-.18.22-.53.22-1.04l.02-9.71c0-.45-.04-.76-.12-.96-.08-.19-.23-.29-.43-.29-.17,0-.41.07-.73.21h-.02s-.07-.04-.1-.1c-.03-.07-.04-.11,0-.12l2.81-1.32.08-.02c.06,0,.13.03.21.09.08.06.11.11.11.16v12.06c0,.51.07.86.21,1.04.14.19.41.28.8.28.05,0,.08.04.08.12s-.03.11-.08.11c-.32,0-.57,0-.76-.02l-1.17-.02-1.15.02c-.19.01-.45.02-.78.02-.03,0-.04-.04-.04-.11Z" fill="#131f2b"/>
    <path d="M103.4,38.01c0-.08.01-.12.04-.12.39,0,.67-.09.81-.28.15-.18.22-.53.22-1.04l.02-9.71c0-.45-.04-.76-.12-.96-.08-.19-.23-.29-.43-.29-.17,0-.41.07-.73.21h-.02s-.07-.04-.1-.1c-.03-.07-.04-.11,0-.12l2.81-1.32.08-.02c.06,0,.13.03.21.09.08.06.11.11.11.16v12.06c0,.51.07.86.21,1.04.14.19.41.28.8.28.05,0,.08.04.08.12s-.03.11-.08.11c-.32,0-.57,0-.76-.02l-1.17-.02-1.15.02c-.19.01-.45.02-.78.02-.03,0-.04-.04-.04-.11Z" fill="#131f2b"/>
    <path d="M115.9,37.1c.05,0,.09.03.1.09.02.06,0,.1-.05.12l-1.97.94c-.05.03-.11.04-.19.04-.2,0-.4-.11-.58-.33-.19-.22-.32-.51-.39-.88l-.82.57c-.29.22-.57.37-.82.47s-.54.14-.86.14c-.55,0-.96-.12-1.24-.36-.28-.24-.42-.58-.42-1.01,0-.34.08-.62.25-.83.17-.21.37-.38.62-.5.25-.12.6-.26,1.04-.41l.48-.17,1.72-.63v-1.09c0-.81-.07-1.41-.2-1.78-.13-.37-.36-.55-.68-.55-.68,0-1.06.52-1.15,1.57-.04.38-.15.66-.33.82-.19.17-.44.25-.77.25s-.55-.07-.7-.2c-.15-.13-.22-.31-.22-.53,0-.38.22-.75.67-1.1.45-.35.98-.63,1.61-.85.63-.22,1.19-.33,1.67-.33.56,0,1.02.18,1.37.53.35.35.53.88.53,1.6v3.38c0,.37.07.66.2.86.13.2.32.31.56.31.18,0,.36-.04.55-.13h.02ZM112.79,36.75c-.01-.05-.02-.13-.02-.25v-1.83l-.82.38s-.17.06-.38.14c-.22.08-.4.22-.56.41-.16.19-.24.41-.24.67,0,.31.1.54.3.72.2.17.42.26.68.26.2,0,.41-.07.63-.21l.42-.29Z" fill="#131f2b"/>
    <path d="M122.5,30.88c.27.21.41.46.41.75,0,.27-.08.49-.25.66-.17.17-.38.26-.65.26-.19,0-.35-.04-.47-.11-.12-.08-.25-.19-.37-.34-.11-.13-.21-.22-.3-.28-.08-.06-.18-.09-.3-.09-.13,0-.26.05-.41.14-.15.1-.37.3-.68.6v4.11c0,.51.12.86.36,1.04.24.19.69.28,1.34.28.05,0,.08.04.08.12s-.03.11-.08.11c-.45,0-.8,0-1.05-.02l-1.55-.02-1.13.02c-.19.01-.45.02-.78.02-.04,0-.06-.04-.06-.11s.02-.12.06-.12c.4,0,.66-.09.8-.28.14-.18.21-.53.21-1.04v-3.59c0-.39-.05-.68-.14-.87-.1-.18-.25-.28-.45-.28-.22,0-.52.09-.92.27h-.04s-.07-.03-.09-.1c-.02-.06-.02-.1,0-.11l2.66-1.3c.08-.03.12-.04.13-.04.14,0,.27.13.39.39s.19.61.22,1.06c.52-.54.95-.91,1.29-1.13.34-.22.63-.33.89-.33.29,0,.58.11.85.32Z" fill="#131f2b"/>
    <path d="M132.43,38.15c-.2-.01-.46-.03-.75-.04-.3-.01-.63-.02-1-.02l-1.41.02c-.25.01-.6.02-1.03.02-.03,0-.04-.04-.04-.11s.01-.12.04-.12c.41,0,.71-.03.9-.1.19-.06.32-.19.39-.37.07-.18.1-.47.1-.85v-8.85c0-.38-.04-.66-.1-.84-.07-.18-.2-.3-.38-.37-.18-.07-.47-.1-.87-.1-.04,0-.06-.04-.06-.11s.02-.11.06-.11l1.01.02c.59.03,1.05.04,1.39.04.52,0,1.06-.02,1.61-.06.66-.03,1.11-.04,1.34-.04,1.29,0,2.43.25,3.43.76s1.77,1.2,2.32,2.08.82,1.87.82,2.96c0,1.24-.28,2.33-.85,3.28-.57.95-1.33,1.68-2.29,2.2-.96.52-2.02.77-3.16.77-.41,0-.89-.02-1.45-.06ZM135.85,37.14c.62-.41,1.11-1.03,1.46-1.84s.53-1.79.53-2.92-.17-2.07-.5-2.95-.8-1.58-1.41-2.09-1.32-.76-2.12-.76-1.33.08-1.62.23-.44.48-.44.97v8.6c0,.51.13.87.4,1.08.27.21.78.32,1.55.32.82,0,1.54-.21,2.16-.62Z" fill="#131f2b"/>
    <path d="M147.69,30.88c.27.21.41.46.41.75,0,.27-.08.49-.25.66-.17.17-.38.26-.65.26-.19,0-.35-.04-.47-.11-.12-.08-.25-.19-.37-.34-.11-.13-.21-.22-.3-.28-.08-.06-.18-.09-.3-.09-.13,0-.26.05-.41.14-.15.1-.37.3-.68.6v4.11c0,.51.12.86.36,1.04.24.19.69.28,1.34.28.05,0,.08.04.08.12s-.03.11-.08.11c-.45,0-.8,0-1.05-.02l-1.55-.02-1.13.02c-.19.01-.45.02-.78.02-.04,0-.06-.04-.06-.11s.02-.12.06-.12c.4,0,.66-.09.8-.28.14-.18.21-.53.21-1.04v-3.59c0-.39-.05-.68-.14-.87-.1-.18-.25-.28-.45-.28-.22,0-.52.09-.92.27h-.04s-.07-.03-.09-.1c-.02-.06-.02-.1,0-.11l2.66-1.3c.08-.03.12-.04.13-.04.14,0,.27.13.39.39s.19.61.22,1.06c.52-.54.95-.91,1.29-1.13.34-.22.63-.33.89-.33.29,0,.58.11.85.32Z" fill="#131f2b"/>
    <path d="M155.56,36.87s.05.03.09.08c.03.05.03.09,0,.11-.47.46-.95.79-1.43.99-.48.2-1.01.31-1.59.31-.8,0-1.5-.17-2.08-.51-.59-.34-1.03-.79-1.34-1.36-.31-.57-.46-1.18-.46-1.84,0-.74.18-1.42.55-2.05.37-.62.88-1.12,1.54-1.48s1.4-.54,2.23-.54,1.4.18,1.83.54c.43.36.65.91.65,1.66,0,.4-.07.59-.21.59l-4.64.02c-.01.09-.02.24-.02.44,0,1.12.26,2,.77,2.64.52.64,1.26.96,2.23.96.34,0,.64-.04.88-.12.24-.08.56-.22.96-.42l.04-.02ZM151.29,31.51c-.28.36-.46.86-.55,1.5l2.77-.04c-.01-.65-.11-1.15-.29-1.49-.18-.34-.47-.52-.88-.52s-.77.18-1.05.54Z" fill="#131f2b"/>
    <path d="M164.1,37.1c.05,0,.09.03.1.09.02.06,0,.1-.05.12l-1.97.94c-.05.03-.12.04-.19.04-.2,0-.4-.11-.58-.33s-.32-.51-.39-.88l-.82.57c-.29.22-.57.37-.82.47s-.54.14-.86.14c-.55,0-.96-.12-1.24-.36s-.42-.58-.42-1.01c0-.34.08-.62.25-.83.17-.21.37-.38.62-.5s.6-.26,1.04-.41l.48-.17,1.72-.63v-1.09c0-.81-.07-1.41-.2-1.78-.13-.37-.36-.55-.68-.55-.68,0-1.06.52-1.15,1.57-.04.38-.15.66-.33.82s-.44.25-.77.25-.55-.07-.7-.2c-.15-.13-.22-.31-.22-.53,0-.38.22-.75.67-1.1s.98-.63,1.62-.85,1.19-.33,1.67-.33c.56,0,1.02.18,1.37.53.35.35.53.88.53,1.6v3.38c0,.37.07.66.2.86.13.2.32.31.56.31.18,0,.36-.04.55-.13h.02ZM160.98,36.75c-.01-.05-.02-.13-.02-.25v-1.83l-.82.38s-.17.06-.38.14-.4.22-.56.41c-.16.19-.24.41-.24.67,0,.31.1.54.3.72.2.17.42.26.68.26.2,0,.41-.07.63-.21l.42-.29Z" fill="#131f2b"/>
    <path d="M178.72,38.01c0,.08-.03.11-.08.11-.33,0-.59,0-.78-.02l-1.15-.02-1.11.02c-.2.01-.47.02-.8.02-.04,0-.06-.04-.06-.11s.02-.12.06-.12c.4,0,.67-.09.81-.28.15-.18.22-.53.22-1.04v-2.75c0-.69-.12-1.2-.35-1.53-.24-.33-.6-.5-1.08-.5-.33,0-.66.07-.97.21-.32.14-.59.33-.82.57v4c0,.51.07.86.22,1.04.15.19.42.28.81.28.05,0,.08.04.08.12s-.03.11-.08.11c-.33,0-.59,0-.78-.02l-1.15-.02-1.11.02c-.2.01-.47.02-.8.02-.04,0-.06-.04-.06-.11s.02-.12.06-.12c.39,0,.67-.09.81-.28.15-.18.22-.53.22-1.04v-2.75c0-.69-.12-1.2-.35-1.53-.24-.33-.6-.5-1.08-.5-.31,0-.61.06-.91.18-.3.12-.56.29-.79.51v4.09c0,.51.07.86.22,1.04.15.19.42.28.81.28.04,0,.06.04.06.12s-.02.11-.06.11c-.33,0-.59,0-.78-.02l-1.15-.02-1.13.02c-.19.01-.45.02-.78.02-.04,0-.06-.04-.06-.11s.02-.12.06-.12c.4,0,.66-.09.8-.28.14-.18.21-.53.21-1.04v-3.59c0-.39-.05-.68-.14-.87-.1-.18-.25-.28-.45-.28-.22,0-.52.09-.92.27h-.04s-.07-.03-.09-.1c-.02-.06-.02-.1,0-.11l2.66-1.3c.08-.03.12-.04.13-.04.14,0,.27.14.4.41.13.27.2.64.23,1.1.87-1.03,1.8-1.55,2.79-1.55.6,0,1.08.15,1.43.44.36.29.57.71.65,1.26.88-1.13,1.85-1.7,2.92-1.7.69,0,1.21.2,1.58.59.36.4.54.99.54,1.8v3.67c0,.51.07.86.22,1.04.15.19.42.28.81.28.05,0,.08.04.08.12Z" fill="#131f2b"/>
    <path d="M181.63,32.62c.26.27.64.55,1.14.84.48.28.84.5,1.08.66.24.16.45.38.64.67.19.29.29.63.29,1.04,0,.43-.11.84-.33,1.22s-.54.69-.97.93c-.43.24-.95.35-1.55.35-.7,0-1.36-.17-1.99-.52-.08-.08-.12-.15-.12-.23l-.04-1.89s.04-.06.11-.07c.07,0,.11,0,.12.03.2.64.54,1.18,1.01,1.62s.95.67,1.43.67c.27,0,.48-.08.64-.25.16-.17.24-.41.24-.73,0-.47-.13-.84-.4-1.12-.27-.27-.66-.56-1.18-.85-.45-.24-.78-.44-1.01-.59-.23-.15-.43-.37-.61-.65-.18-.28-.27-.62-.27-1.03,0-.75.27-1.3.8-1.65s1.19-.53,1.97-.53c.29,0,.56.02.79.06.24.04.5.11.79.23.12.04.17.11.17.21,0,.32,0,.57-.02.75l-.02.96s-.04.06-.11.06-.11-.02-.11-.06c0-.24-.1-.51-.31-.79-.2-.29-.47-.53-.79-.74-.32-.2-.66-.31-1-.31-.52,0-.78.25-.78.75,0,.37.13.69.39.96Z" fill="#131f2b"/>
  </g>
  <g>
    <path d="M76.08,28.34c.24.36.53.67.87.94.34.27.81.59,1.4.98.64.41,1.15.76,1.53,1.07.38.31.71.68.97,1.12.27.44.4.95.4,1.52,0,.66-.18,1.25-.54,1.77-.36.52-.85.92-1.48,1.2-.63.29-1.33.43-2.11.43-.57,0-1.17-.08-1.8-.24-.62-.16-1.04-.33-1.26-.53-.06-.05-.11-.1-.14-.14-.03-.04-.05-.12-.05-.22l-.06-3.04v-.02c0-.05.03-.08.1-.09.06,0,.1.02.11.07.38.78.72,1.41,1,1.89s.65.91,1.09,1.28c.44.37.94.55,1.5.55.51,0,.93-.14,1.26-.41.33-.27.5-.74.5-1.41,0-.56-.12-1.05-.37-1.47-.25-.42-.55-.78-.91-1.07-.36-.29-.85-.64-1.47-1.05-.61-.39-1.09-.73-1.42-1.01-.34-.28-.63-.62-.87-1.01s-.36-.86-.36-1.4c0-.67.19-1.25.58-1.71.39-.46.89-.81,1.5-1.03.61-.22,1.25-.33,1.93-.33.45,0,.9.04,1.36.12.46.08.83.18,1.11.3.11.05.19.1.23.16.04.06.06.13.06.22v2.81s-.03.07-.1.09c-.06.02-.1,0-.11-.03l-.15-.36c-.32-.8-.69-1.48-1.12-2.04-.43-.56-1.02-.84-1.79-.84-.51,0-.93.15-1.25.44-.32.29-.49.72-.49,1.28,0,.46.12.87.35,1.22Z" fill="#c0b68a"/>
    <path d="M88.43,35.79c.05,0,.09.03.12.08.03.05.03.09,0,.12-.47.47-.93.82-1.38,1.04-.45.22-.92.33-1.41.33-.56,0-1.04-.13-1.43-.4s-.59-.72-.59-1.36v-4.24c0-.4-.07-.67-.21-.82-.14-.15-.4-.23-.76-.23-.01,0-.03-.02-.05-.06-.02-.04-.03-.08-.03-.11,0-.05,0-.09.02-.12.01-.03.03-.05.06-.05.65-.03,1.18-.17,1.58-.42.4-.25.71-.64.93-1.17.03-.05.08-.08.16-.08s.12.03.12.08v1.53c.74-.01,1.57-.07,2.48-.17.03,0,.05.05.09.14.03.1.05.2.05.32,0,.13-.02.25-.07.37-.04.12-.09.18-.14.16-.83-.18-1.63-.27-2.41-.29v4.53c0,.48.12.84.37,1.07.25.23.58.34.98.34.51,0,1.01-.19,1.49-.57l.04-.02Z" fill="#c0b68a"/>
    <path d="M96.08,35.87s.05.03.09.08c.03.05.03.09,0,.11-.47.46-.95.79-1.43.99-.48.2-1.01.31-1.59.31-.8,0-1.5-.17-2.08-.51-.59-.34-1.03-.79-1.34-1.36-.31-.57-.46-1.18-.46-1.84,0-.74.18-1.42.55-2.05.37-.62.88-1.12,1.54-1.48s1.4-.54,2.23-.54,1.4.18,1.83.54c.43.36.65.91.65,1.66,0,.4-.07.59-.21.59l-4.64.02c-.01.09-.02.24-.02.44,0,1.12.26,2,.77,2.64.52.64,1.26.96,2.23.96.34,0,.64-.04.88-.12.24-.08.56-.22.96-.42l.04-.02ZM91.82,30.51c-.28.36-.47.86-.55,1.5l2.77-.04c-.01-.65-.11-1.15-.29-1.49-.18-.34-.47-.52-.88-.52s-.77.18-1.05.54Z" fill="#c0b68a"/>
    <path d="M97.28,37.01c0-.08.01-.12.04-.12.39,0,.67-.09.81-.28.15-.18.22-.53.22-1.04l.02-9.71c0-.45-.04-.76-.12-.96-.08-.19-.23-.29-.43-.29-.17,0-.41.07-.73.21h-.02s-.07-.04-.1-.1c-.03-.07-.04-.11,0-.12l2.81-1.32.08-.02c.06,0,.13.03.21.09.08.06.11.11.11.16v12.06c0,.51.07.86.21,1.04.14.19.41.28.8.28.05,0,.08.04.08.12s-.03.11-.08.11c-.32,0-.57,0-.76-.02l-1.17-.02-1.15.02c-.19.01-.45.02-.78.02-.03,0-.04-.04-.04-.11Z" fill="#c0b68a"/>
    <path d="M102.4,37.01c0-.08.01-.12.04-.12.39,0,.67-.09.81-.28.15-.18.22-.53.22-1.04l.02-9.71c0-.45-.04-.76-.12-.96-.08-.19-.23-.29-.43-.29-.17,0-.41.07-.73.21h-.02s-.07-.04-.1-.1c-.03-.07-.04-.11,0-.12l2.81-1.32.08-.02c.06,0,.13.03.21.09.08.06.11.11.11.16v12.06c0,.51.07.86.21,1.04.14.19.41.28.8.28.05,0,.08.04.08.12s-.03.11-.08.11c-.32,0-.57,0-.76-.02l-1.17-.02-1.15.02c-.19.01-.45.02-.78.02-.03,0-.04-.04-.04-.11Z" fill="#c0b68a"/>
    <path d="M114.9,36.1c.05,0,.09.03.1.09.02.06,0,.1-.05.12l-1.97.94c-.05.03-.11.04-.19.04-.2,0-.4-.11-.58-.33-.19-.22-.32-.51-.39-.88l-.82.57c-.29.22-.57.37-.82.47s-.54.14-.86.14c-.55,0-.96-.12-1.24-.36-.28-.24-.42-.58-.42-1.01,0-.34.08-.62.25-.83.17-.21.37-.38.62-.5.25-.12.6-.26,1.04-.41l.48-.17,1.72-.63v-1.09c0-.81-.07-1.41-.2-1.78-.13-.37-.36-.55-.68-.55-.68,0-1.06.52-1.15,1.57-.04.38-.15.66-.33.82-.19.17-.44.25-.77.25s-.55-.07-.7-.2c-.15-.13-.22-.31-.22-.53,0-.38.22-.75.67-1.1.45-.35.98-.63,1.61-.85.63-.22,1.19-.33,1.67-.33.56,0,1.02.18,1.37.53.35.35.53.88.53,1.6v3.38c0,.37.07.66.2.86.13.2.32.31.56.31.18,0,.36-.04.55-.13h.02ZM111.79,35.75c-.01-.05-.02-.13-.02-.25v-1.83l-.82.38s-.17.06-.38.14c-.22.08-.4.22-.56.41-.16.19-.24.41-.24.67,0,.31.1.54.3.72.2.17.42.26.68.26.2,0,.41-.07.63-.21l.42-.29Z" fill="#c0b68a"/>
    <path d="M121.5,29.88c.27.21.41.46.41.75,0,.27-.08.49-.25.66-.17.17-.38.26-.65.26-.19,0-.35-.04-.47-.11-.12-.08-.25-.19-.37-.34-.11-.13-.21-.22-.3-.28-.08-.06-.18-.09-.3-.09-.13,0-.26.05-.41.14-.15.1-.37.3-.68.6v4.11c0,.51.12.86.36,1.04.24.19.69.28,1.34.28.05,0,.08.04.08.12s-.03.11-.08.11c-.45,0-.8,0-1.05-.02l-1.55-.02-1.13.02c-.19.01-.45.02-.78.02-.04,0-.06-.04-.06-.11s.02-.12.06-.12c.4,0,.66-.09.8-.28.14-.18.21-.53.21-1.04v-3.59c0-.39-.05-.68-.14-.87-.1-.18-.25-.28-.45-.28-.22,0-.52.09-.92.27h-.04s-.07-.03-.09-.1c-.02-.06-.02-.1,0-.11l2.66-1.3c.08-.03.12-.04.13-.04.14,0,.27.13.39.39s.19.61.22,1.06c.52-.54.95-.91,1.29-1.13.34-.22.63-.33.89-.33.29,0,.58.11.85.32Z" fill="#c0b68a"/>
    <path d="M131.43,37.15c-.2-.01-.46-.03-.75-.04-.3-.01-.63-.02-1-.02l-1.41.02c-.25.01-.6.02-1.03.02-.03,0-.04-.04-.04-.11s.01-.12.04-.12c.41,0,.71-.03.9-.1.19-.06.32-.19.39-.37.07-.18.1-.47.1-.85v-8.85c0-.38-.04-.66-.1-.84-.07-.18-.2-.3-.38-.37-.18-.07-.47-.1-.87-.1-.04,0-.06-.04-.06-.11s.02-.11.06-.11l1.01.02c.59.03,1.05.04,1.39.04.52,0,1.06-.02,1.61-.06.66-.03,1.11-.04,1.34-.04,1.29,0,2.43.25,3.43.76s1.77,1.2,2.32,2.08.82,1.87.82,2.96c0,1.24-.28,2.33-.85,3.28-.57.95-1.33,1.68-2.29,2.2-.96.52-2.02.77-3.16.77-.41,0-.89-.02-1.45-.06ZM134.85,36.14c.62-.41,1.11-1.03,1.46-1.84s.53-1.79.53-2.92-.17-2.07-.5-2.95-.8-1.58-1.41-2.09-1.32-.76-2.12-.76-1.33.08-1.62.23-.44.48-.44.97v8.6c0,.51.13.87.4,1.08.27.21.78.32,1.55.32.82,0,1.54-.21,2.16-.62Z" fill="#c0b68a"/>
    <path d="M146.69,29.88c.27.21.41.46.41.75,0,.27-.08.49-.25.66-.17.17-.38.26-.65.26-.19,0-.35-.04-.47-.11-.12-.08-.25-.19-.37-.34-.11-.13-.21-.22-.3-.28-.08-.06-.18-.09-.3-.09-.13,0-.26.05-.41.14-.15.1-.37.3-.68.6v4.11c0,.51.12.86.36,1.04.24.19.69.28,1.34.28.05,0,.08.04.08.12s-.03.11-.08.11c-.45,0-.8,0-1.05-.02l-1.55-.02-1.13.02c-.19.01-.45.02-.78.02-.04,0-.06-.04-.06-.11s.02-.12.06-.12c.4,0,.66-.09.8-.28.14-.18.21-.53.21-1.04v-3.59c0-.39-.05-.68-.14-.87-.1-.18-.25-.28-.45-.28-.22,0-.52.09-.92.27h-.04s-.07-.03-.09-.1c-.02-.06-.02-.1,0-.11l2.66-1.3c.08-.03.12-.04.13-.04.14,0,.27.13.39.39s.19.61.22,1.06c.52-.54.95-.91,1.29-1.13.34-.22.63-.33.89-.33.29,0,.58.11.85.32Z" fill="#c0b68a"/>
    <path d="M154.56,35.87s.05.03.09.08c.03.05.03.09,0,.11-.47.46-.95.79-1.43.99-.48.2-1.01.31-1.59.31-.8,0-1.5-.17-2.08-.51-.59-.34-1.03-.79-1.34-1.36-.31-.57-.46-1.18-.46-1.84,0-.74.18-1.42.55-2.05.37-.62.88-1.12,1.54-1.48s1.4-.54,2.23-.54,1.4.18,1.83.54c.43.36.65.91.65,1.66,0,.4-.07.59-.21.59l-4.64.02c-.01.09-.02.24-.02.44,0,1.12.26,2,.77,2.64.52.64,1.26.96,2.23.96.34,0,.64-.04.88-.12.24-.08.56-.22.96-.42l.04-.02ZM150.29,30.51c-.28.36-.46.86-.55,1.5l2.77-.04c-.01-.65-.11-1.15-.29-1.49-.18-.34-.47-.52-.88-.52s-.77.18-1.05.54Z" fill="#c0b68a"/>
    <path d="M163.1,36.1c.05,0,.09.03.1.09.02.06,0,.1-.05.12l-1.97.94c-.05.03-.12.04-.19.04-.2,0-.4-.11-.58-.33s-.32-.51-.39-.88l-.82.57c-.29.22-.57.37-.82.47s-.54.14-.86.14c-.55,0-.96-.12-1.24-.36s-.42-.58-.42-1.01c0-.34.08-.62.25-.83.17-.21.37-.38.62-.5s.6-.26,1.04-.41l.48-.17,1.72-.63v-1.09c0-.81-.07-1.41-.2-1.78-.13-.37-.36-.55-.68-.55-.68,0-1.06.52-1.15,1.57-.04.38-.15.66-.33.82s-.44.25-.77.25-.55-.07-.7-.2c-.15-.13-.22-.31-.22-.53,0-.38.22-.75.67-1.1s.98-.63,1.62-.85,1.19-.33,1.67-.33c.56,0,1.02.18,1.37.53.35.35.53.88.53,1.6v3.38c0,.37.07.66.2.86.13.2.32.31.56.31.18,0,.36-.04.55-.13h.02ZM159.98,35.75c-.01-.05-.02-.13-.02-.25v-1.83l-.82.38s-.17.06-.38.14-.4.22-.56.41c-.16.19-.24.41-.24.67,0,.31.1.54.3.72.2.17.42.26.68.26.2,0,.41-.07.63-.21l.42-.29Z" fill="#c0b68a"/>
    <path d="M177.72,37.01c0,.08-.03.11-.08.11-.33,0-.59,0-.78-.02l-1.15-.02-1.11.02c-.2.01-.47.02-.8.02-.04,0-.06-.04-.06-.11s.02-.12.06-.12c.4,0,.67-.09.81-.28.15-.18.22-.53.22-1.04v-2.75c0-.69-.12-1.2-.35-1.53-.24-.33-.6-.5-1.08-.5-.33,0-.66.07-.97.21-.32.14-.59.33-.82.57v4c0,.51.07.86.22,1.04.15.19.42.28.81.28.05,0,.08.04.08.12s-.03.11-.08.11c-.33,0-.59,0-.78-.02l-1.15-.02-1.11.02c-.2.01-.47.02-.8.02-.04,0-.06-.04-.06-.11s.02-.12.06-.12c.39,0,.67-.09.81-.28.15-.18.22-.53.22-1.04v-2.75c0-.69-.12-1.2-.35-1.53-.24-.33-.6-.5-1.08-.5-.31,0-.61.06-.91.18-.3.12-.56.29-.79.51v4.09c0,.51.07.86.22,1.04.15.19.42.28.81.28.04,0,.06.04.06.12s-.02.11-.06.11c-.33,0-.59,0-.78-.02l-1.15-.02-1.13.02c-.19.01-.45.02-.78.02-.04,0-.06-.04-.06-.11s.02-.12.06-.12c.4,0,.66-.09.8-.28.14-.18.21-.53.21-1.04v-3.59c0-.39-.05-.68-.14-.87-.1-.18-.25-.28-.45-.28-.22,0-.52.09-.92.27h-.04s-.07-.03-.09-.1c-.02-.06-.02-.1,0-.11l2.66-1.3c.08-.03.12-.04.13-.04.14,0,.27.14.4.41.13.27.2.64.23,1.1.87-1.03,1.8-1.55,2.79-1.55.6,0,1.08.15,1.43.44.36.29.57.71.65,1.26.88-1.13,1.85-1.7,2.92-1.7.69,0,1.21.2,1.58.59.36.4.54.99.54,1.8v3.67c0,.51.07.86.22,1.04.15.19.42.28.81.28.05,0,.08.04.08.12Z" fill="#c0b68a"/>
    <path d="M180.63,31.62c.26.27.64.55,1.14.84.48.28.84.5,1.08.66.24.16.45.38.64.67.19.29.29.63.29,1.04,0,.43-.11.84-.33,1.22s-.54.69-.97.93c-.43.24-.95.35-1.55.35-.7,0-1.36-.17-1.99-.52-.08-.08-.12-.15-.12-.23l-.04-1.89s.04-.06.11-.07c.07,0,.11,0,.12.03.2.64.54,1.18,1.01,1.62s.95.67,1.43.67c.27,0,.48-.08.64-.25.16-.17.24-.41.24-.73,0-.47-.13-.84-.4-1.12-.27-.27-.66-.56-1.18-.85-.45-.24-.78-.44-1.01-.59-.23-.15-.43-.37-.61-.65-.18-.28-.27-.62-.27-1.03,0-.75.27-1.3.8-1.65s1.19-.53,1.97-.53c.29,0,.56.02.79.06.24.04.5.11.79.23.12.04.17.11.17.21,0,.32,0,.57-.02.75l-.02.96s-.04.06-.11.06-.11-.02-.11-.06c0-.24-.1-.51-.31-.79-.2-.29-.47-.53-.79-.74-.32-.2-.66-.31-1-.31-.52,0-.78.25-.78.75,0,.37.13.69.39.96Z" fill="#c0b68a"/>
  </g>
</svg>