<?xml version="1.0" encoding="UTF-8"?>
<svg id="_レイヤー_2" xmlns="http://www.w3.org/2000/svg" width="257.59" height="64.56" version="1.1" viewBox="0 0 257.59 64.56">
  <!-- Generator: Adobe Illustrator 29.4.0, SVG Export Plug-In . SVG Version: 2.1.0 Build 152)  -->
  <g>
    <rect x=".96" y=".97" width="255.67" height="62.63" rx="4.1" ry="4.1" fill="#212a37"/>
    <path d="M252.53,64.1H5.06c-2.54,0-4.6-2.06-4.6-4.6V5.07c0-2.54,2.06-4.6,4.6-4.6h247.47c2.54,0,4.6,2.06,4.6,4.6v54.43c0,2.54-2.06,4.6-4.6,4.6ZM5.06,1.47c-1.99,0-3.6,1.62-3.6,3.6v54.43c0,1.98,1.61,3.6,3.6,3.6h247.47c1.99,0,3.6-1.62,3.6-3.6V5.07c0-1.98-1.62-3.6-3.6-3.6,0,0-247.47,0-247.47,0Z" fill="#414e5b"/>
  </g>
  <g>
    <path d="M240.01,9.24c-.04-.14-.17-.21-.31-.21H60.94v.02H17.68c-.14,0-.26.09-.31.21-1.21,3.87-4.26,6.92-8.13,8.13-.14.04-.21.17-.21.31v29.22c0,.14.09.26.21.31,3.87,1.21,6.92,4.26,8.13,8.13.04.14.17.21.31.21h178.76v-.02h43.26c.14,0,.26-.09.31-.21,1.21-3.87,4.26-6.92,8.13-8.13.14-.04.21-.17.21-.31v-29.22c0-.14-.09-.26-.21-.31-3.87-1.21-6.92-4.26-8.13-8.13h0ZM247.74,46.67c-3.89,1.28-6.97,4.35-8.25,8.23H60.95v.02H17.92c-1.28-3.89-4.36-6.96-8.25-8.25v-28.78c3.89-1.28,6.97-4.35,8.25-8.23h178.53v-.02h43.04c1.28,3.89,4.36,6.96,8.25,8.25v28.78h0Z" fill="#c0b68a"/>
    <path d="M252.09,14.19c-.08-.08-.19-.12-.31-.12-2.34,0-4.45-.94-6-2.49s-2.49-3.64-2.49-6c0-.11-.04-.23-.12-.31s-.19-.12-.31-.12H14.51c-.11,0-.23.04-.31.12s-.12.19-.12.31c0,2.34-.94,4.45-2.49,6s-3.64,2.49-6,2.49c-.11,0-.23.04-.31.12s-.12.19-.12.31v35.58c0,.11.04.23.12.31s.19.12.31.12c2.34,0,4.45.94,6,2.49s2.49,3.64,2.49,6c0,.11.04.23.12.31s.19.12.31.12h228.37c.11,0,.23-.04.31-.12s.12-.19.12-.31c0-2.34.94-4.45,2.49-6s3.64-2.49,6-2.49c.11,0,.23-.04.31-.12s.12-.19.12-.31V14.49c0-.11-.04-.23-.12-.31h-.02,0ZM251.36,49.65c-2.41.11-4.58,1.13-6.16,2.73-1.6,1.59-2.63,3.76-2.73,6.16H14.93c-.11-2.41-1.13-4.58-2.73-6.16-1.59-1.59-3.76-2.61-6.16-2.73V14.92c2.41-.11,4.58-1.13,6.16-2.73,1.6-1.59,2.63-3.76,2.73-6.16h227.55c.11,2.41,1.13,4.58,2.73,6.16,1.59,1.59,3.76,2.61,6.16,2.73v34.72h-.01Z" fill="#c0b68a"/>
  </g>
  <g>
    <g>
      <circle cx="7.75" cy="8.15" r="1.98" fill="#c0b68a"/>
      <circle cx="7.75" cy="56.43" r="1.98" fill="#c0b68a"/>
    </g>
    <g>
      <circle cx="249.85" cy="8.15" r="1.98" fill="#c0b68a"/>
      <circle cx="249.85" cy="56.43" r="1.98" fill="#c0b68a"/>
    </g>
  </g>
  <g>
    <path d="M64.45,38.4c0,.08-.03.11-.1.11-.26,0-.65-.01-1.19-.04-.56-.03-.96-.04-1.2-.04-.32,0-.71.01-1.17.04-.43.03-.78.04-1.03.04-.05,0-.08-.04-.08-.11s.03-.12.08-.12c.33,0,.57-.04.72-.1.15-.07.22-.19.22-.37,0-.22-.13-.58-.38-1.09l-1.3-2.58h-4.7l-.75,1.66c-.17.37-.25.71-.25,1.03,0,.46.16.82.49,1.07.32.25.76.38,1.31.38.06,0,.1.04.1.12s-.03.11-.1.11c-.23,0-.56-.01-.99-.04-.48-.03-.91-.04-1.26-.04s-.76.01-1.24.04c-.43.03-.78.04-1.05.04-.05,0-.08-.04-.08-.11s.03-.12.08-.12c.36,0,.66-.07.9-.22.24-.15.48-.41.73-.78s.53-.93.86-1.67l4.15-9.12s.08-.06.17-.06c.1,0,.16.02.17.06l4.78,9.4c.45.9.81,1.53,1.11,1.87.29.34.6.52.92.52.06,0,.1.04.1.12ZM54.57,33.61h4.17l-2.2-4.36-1.97,4.36Z" fill="#131f2b"/>
    <path d="M74.56,26.69c0,.08-.02.11-.06.11-.33,0-.58.04-.74.12-.16.08-.26.21-.32.39-.05.18-.08.47-.08.85v10.43c0,1.43-.35,2.54-1.06,3.34s-1.69,1.2-2.95,1.2c-.48,0-.88-.1-1.19-.31-.31-.2-.46-.48-.46-.84,0-.25.08-.48.25-.68s.41-.3.75-.3.56.1.74.29c.17.19.33.46.47.8.08.2.15.36.23.47.08.11.17.16.29.16.27,0,.46-.22.59-.65.13-.43.19-1.15.19-2.16v-11.81c0-.38-.04-.66-.12-.84-.08-.18-.23-.3-.45-.37s-.56-.11-1.03-.11c-.03,0-.04-.04-.04-.11s.01-.12.04-.12l1.19.02c.61.03,1.1.04,1.47.04s.8-.01,1.34-.04l.9-.02s.06.04.06.12Z" fill="#131f2b"/>
    <path d="M83.07,37.49c.05,0,.09.03.1.09.02.06,0,.1-.05.12l-1.97.94c-.05.03-.11.04-.19.04-.2,0-.4-.11-.58-.33-.19-.22-.32-.51-.39-.88l-.82.57c-.29.22-.57.37-.82.47s-.54.14-.86.14c-.55,0-.96-.12-1.24-.36-.28-.24-.42-.58-.42-1.01,0-.34.08-.62.25-.83.17-.21.37-.38.62-.5.25-.12.6-.26,1.04-.41l.48-.17,1.72-.63v-1.09c0-.81-.07-1.41-.2-1.78-.13-.37-.36-.55-.68-.55-.68,0-1.06.52-1.15,1.57-.04.38-.15.66-.33.82-.19.17-.44.25-.77.25s-.55-.07-.7-.2-.22-.31-.22-.53c0-.38.22-.75.67-1.1.45-.35.98-.63,1.61-.85.63-.22,1.19-.33,1.67-.33.56,0,1.02.17,1.37.53.35.35.53.88.53,1.6v3.38c0,.37.07.66.2.86.13.2.32.31.56.31.18,0,.36-.04.55-.13h.02ZM79.95,37.14c-.01-.05-.02-.13-.02-.25v-1.83l-.82.38s-.17.06-.38.14c-.22.08-.4.22-.56.41-.16.19-.24.41-.24.67,0,.31.1.54.3.72.2.17.42.26.68.26.2,0,.41-.07.63-.21l.42-.29Z" fill="#131f2b"/>
    <path d="M86.45,38.56v3.67c0,.38.04.66.12.84.08.18.24.3.48.37s.6.11,1.1.11c.04,0,.06.04.06.11s-.02.12-.06.12c-.47,0-.84,0-1.11-.02l-1.51-.02-1.13.02c-.19.01-.46.02-.8.02-.04,0-.06-.04-.06-.12s.02-.11.06-.11c.31,0,.53-.04.68-.11s.25-.19.31-.37c.06-.18.09-.46.09-.84v-8.85c0-.41-.04-.7-.13-.88-.09-.18-.25-.27-.48-.27-.2,0-.5.09-.88.27h-.04s-.07-.03-.1-.1c-.03-.06-.04-.1,0-.11l2.71-1.32s.06-.02.1-.02c.13,0,.25.11.35.33s.18.51.22.88c.93-.84,1.89-1.26,2.87-1.26.54,0,1.04.14,1.5.42.46.28.84.69,1.12,1.22.28.54.42,1.16.42,1.87,0,1.02-.21,1.86-.63,2.51s-.95,1.13-1.6,1.41c-.64.29-1.31.43-2,.43-.62,0-1.17-.07-1.64-.21ZM86.45,32.57v4.76c.28.32.57.56.88.72s.68.24,1.13.24c1.29,0,1.93-1.1,1.93-3.29,0-.97-.23-1.72-.68-2.25-.45-.53-1.02-.79-1.69-.79-.57,0-1.1.2-1.57.61Z" fill="#131f2b"/>
    <path d="M100.92,37.49c.05,0,.09.03.1.09.02.06,0,.1-.05.12l-1.97.94c-.05.03-.11.04-.19.04-.2,0-.4-.11-.58-.33-.19-.22-.32-.51-.39-.88l-.82.57c-.29.22-.57.37-.82.47s-.54.14-.86.14c-.55,0-.96-.12-1.24-.36-.28-.24-.42-.58-.42-1.01,0-.34.08-.62.25-.83.17-.21.37-.38.62-.5.25-.12.6-.26,1.04-.41l.48-.17,1.72-.63v-1.09c0-.81-.07-1.41-.2-1.78-.13-.37-.36-.55-.68-.55-.68,0-1.06.52-1.15,1.57-.04.38-.15.66-.33.82-.19.17-.44.25-.77.25s-.55-.07-.7-.2-.22-.31-.22-.53c0-.38.22-.75.67-1.1.45-.35.98-.63,1.61-.85.63-.22,1.19-.33,1.67-.33.56,0,1.02.17,1.37.53.35.35.53.88.53,1.6v3.38c0,.37.07.66.2.86.13.2.32.31.56.31.18,0,.36-.04.55-.13h.02ZM97.8,37.14c-.01-.05-.02-.13-.02-.25v-1.83l-.82.38s-.17.06-.38.14c-.22.08-.4.22-.56.41-.16.19-.24.41-.24.67,0,.31.1.54.3.72.2.17.42.26.68.26.2,0,.41-.07.63-.21l.42-.29Z" fill="#131f2b"/>
    <path d="M110.74,38.4c0,.08-.02.11-.06.11-.33,0-.59,0-.78-.02l-1.15-.02-1.11.02c-.2.01-.47.02-.8.02-.04,0-.06-.04-.06-.11s.02-.12.06-.12c.4,0,.66-.09.8-.28.14-.18.21-.53.21-1.04v-2.75c0-.69-.12-1.2-.37-1.53-.25-.33-.64-.5-1.18-.5-.31,0-.62.06-.95.19-.33.13-.61.3-.85.52v4.07c0,.51.07.86.22,1.04.15.19.42.28.81.28.04,0,.06.04.06.12s-.02.11-.06.11c-.33,0-.59,0-.78-.02l-1.15-.02-1.13.02c-.19.01-.45.02-.78.02-.04,0-.06-.04-.06-.11s.02-.12.06-.12c.4,0,.66-.09.8-.28.14-.18.21-.53.21-1.04v-3.59c0-.39-.05-.68-.14-.87-.1-.18-.25-.28-.45-.28-.22,0-.52.09-.92.27h-.04s-.07-.03-.09-.1c-.02-.06-.02-.1,0-.11l2.66-1.3c.08-.03.12-.04.13-.04.14,0,.27.14.4.41.13.27.2.65.23,1.12.88-1.04,1.85-1.57,2.9-1.57.69,0,1.23.22,1.63.66s.6,1.02.6,1.73v3.67c0,.51.07.86.22,1.04.15.19.42.28.81.28.04,0,.06.04.06.12Z" fill="#131f2b"/>
    <path d="M118.42,37.26s.05.03.09.08c.03.05.03.09,0,.11-.47.46-.95.79-1.43.99-.48.2-1.01.31-1.59.31-.8,0-1.5-.17-2.08-.51-.59-.34-1.03-.79-1.34-1.36-.31-.57-.46-1.18-.46-1.84,0-.74.18-1.42.55-2.04.37-.62.88-1.12,1.54-1.48s1.4-.54,2.23-.54,1.4.18,1.83.54c.43.36.65.91.65,1.66,0,.4-.07.59-.21.59l-4.64.02c-.01.09-.02.24-.02.44,0,1.12.26,2,.77,2.64.52.64,1.26.96,2.23.96.34,0,.64-.04.88-.12.24-.08.56-.22.96-.42l.04-.02ZM114.16,31.9c-.28.36-.47.86-.55,1.5l2.77-.04c-.01-.65-.11-1.15-.29-1.49-.18-.34-.47-.52-.88-.52s-.77.18-1.05.54Z" fill="#131f2b"/>
    <path d="M121.64,33.01c.26.27.64.55,1.14.84.48.28.84.5,1.08.66s.45.38.64.67c.19.29.29.63.29,1.04,0,.43-.11.84-.32,1.22-.22.38-.54.69-.97.93s-.95.35-1.55.35c-.7,0-1.36-.17-1.99-.52-.08-.08-.11-.15-.11-.23l-.04-1.89s.03-.06.1-.07c.07,0,.11,0,.12.03.2.64.54,1.18,1.01,1.62.47.45.95.67,1.43.67.27,0,.48-.08.64-.25.16-.17.24-.41.24-.73,0-.47-.13-.84-.4-1.12-.27-.27-.66-.56-1.19-.85-.45-.24-.78-.44-1.01-.59-.23-.15-.43-.37-.61-.65-.18-.28-.27-.62-.27-1.03,0-.75.27-1.3.8-1.65s1.19-.53,1.97-.53c.29,0,.56.02.79.06s.5.11.79.23c.11.04.17.11.17.21,0,.32,0,.57-.02.75l-.02.96s-.04.06-.11.06-.11-.02-.11-.06c0-.24-.1-.51-.31-.79-.2-.29-.47-.53-.79-.74-.32-.2-.66-.31-1-.31-.52,0-.78.25-.78.75,0,.37.13.69.39.96Z" fill="#131f2b"/>
    <path d="M132.85,37.26s.05.03.09.08c.03.05.04.09,0,.11-.47.46-.95.79-1.43.99-.48.2-1.01.31-1.59.31-.8,0-1.5-.17-2.08-.51-.59-.34-1.03-.79-1.34-1.36-.31-.57-.46-1.18-.46-1.84,0-.74.18-1.42.55-2.04.37-.62.88-1.12,1.54-1.48s1.4-.54,2.23-.54,1.4.18,1.84.54c.43.36.65.91.65,1.66,0,.4-.07.59-.21.59l-4.64.02c-.01.09-.02.24-.02.44,0,1.12.26,2,.77,2.64.52.64,1.26.96,2.23.96.34,0,.64-.04.88-.12.24-.08.56-.22.96-.42l.04-.02ZM128.59,31.9c-.28.36-.47.86-.55,1.5l2.77-.04c-.01-.65-.11-1.15-.29-1.49-.18-.34-.47-.52-.88-.52s-.77.18-1.05.54Z" fill="#131f2b"/>
    <path d="M151.75,26.69c0,.08-.01.11-.04.11-.51,0-.91.2-1.2.6-.29.4-.44.94-.44,1.61v9.79s-.03.06-.09.08c-.06.01-.1,0-.12-.02l-8.96-10.21v7.43c0,.67.14,1.21.42,1.6.28.4.67.59,1.17.59.03,0,.04.04.04.12s-.01.11-.04.11c-.36,0-.63,0-.82-.02l-1.03-.02-1.19.02c-.22.01-.53.02-.94.02-.04,0-.06-.04-.06-.11s.02-.12.06-.12c.56,0,1-.2,1.33-.59.32-.39.49-.93.49-1.6v-8.08c-.42-.46-.78-.77-1.08-.95-.3-.17-.61-.26-.93-.26-.03,0-.04-.04-.04-.11s.01-.12.04-.12l.8.02c.17.01.41.02.73.02l1.45-.02c.18-.01.39-.02.65-.02.1,0,.18.03.23.08s.14.16.27.32c.22.29.37.49.46.59l6.61,7.63v-6.17c0-.69-.14-1.23-.42-1.62s-.67-.59-1.17-.59c-.03,0-.04-.04-.04-.11s.01-.12.04-.12l.82.02c.41.03.75.04,1.03.04.25,0,.61-.01,1.07-.04l.86-.02s.04.04.04.12Z" fill="#131f2b"/>
    <path d="M154.4,38.22c-.59-.36-1.05-.85-1.37-1.47-.32-.62-.48-1.29-.48-2.02,0-.83.21-1.53.63-2.11.42-.58.96-1.01,1.61-1.3.65-.29,1.32-.43,2.01-.43.79,0,1.48.19,2.06.55.59.37,1.03.86,1.35,1.46s.47,1.25.47,1.94c0,.76-.19,1.44-.57,2.04-.38.59-.9,1.05-1.54,1.39-.64.33-1.34.5-2.09.5-.79,0-1.48-.18-2.07-.54ZM158.19,37.63c.26-.49.39-1.19.39-2.11s-.11-1.66-.34-2.29-.53-1.12-.9-1.44c-.37-.32-.76-.49-1.18-.49-1.02,0-1.53.91-1.53,2.73,0,.85.11,1.61.33,2.26.22.66.51,1.17.88,1.53.37.36.78.54,1.22.54.5,0,.88-.25,1.14-.74Z" fill="#131f2b"/>
    <path d="M163.94,33.01c.26.27.64.55,1.14.84.48.28.84.5,1.08.66.24.16.45.38.64.67s.29.63.29,1.04c0,.43-.11.84-.33,1.22s-.54.69-.97.93c-.43.24-.95.35-1.55.35-.7,0-1.36-.17-1.99-.52-.08-.08-.11-.15-.11-.23l-.04-1.89s.04-.06.11-.07c.07,0,.11,0,.12.03.2.64.54,1.18,1.01,1.62s.95.67,1.43.67c.27,0,.48-.08.64-.25.16-.17.24-.41.24-.73,0-.47-.13-.84-.4-1.12-.27-.27-.66-.56-1.18-.85-.45-.24-.78-.44-1.01-.59-.23-.15-.43-.37-.61-.65-.18-.28-.27-.62-.27-1.03,0-.75.27-1.3.8-1.65s1.19-.53,1.97-.53c.29,0,.56.02.79.06.24.04.5.11.79.23.12.04.17.11.17.21,0,.32,0,.57-.02.75l-.02.96s-.04.06-.11.06-.12-.02-.12-.06c0-.24-.1-.51-.31-.79-.2-.29-.47-.53-.79-.74s-.66-.31-1-.31c-.52,0-.78.25-.78.75,0,.37.13.69.39.96Z" fill="#131f2b"/>
    <path d="M173.92,37.18c.05,0,.09.03.12.08.03.05.03.09,0,.12-.47.47-.93.82-1.38,1.04s-.92.33-1.41.33c-.56,0-1.04-.13-1.43-.4s-.59-.72-.59-1.36v-4.24c0-.4-.07-.67-.21-.82s-.39-.23-.76-.23c-.01,0-.03-.02-.05-.06-.02-.04-.03-.08-.03-.12,0-.05,0-.09.02-.12s.03-.05.06-.05c.65-.03,1.18-.17,1.58-.42.4-.25.71-.64.93-1.17.03-.05.08-.08.16-.08s.12.03.12.08v1.53c.74-.01,1.57-.07,2.48-.17.03,0,.05.05.09.14.03.1.05.2.05.32,0,.13-.02.25-.07.37-.04.12-.09.18-.14.16-.83-.18-1.63-.27-2.41-.29v4.53c0,.48.12.84.37,1.07.25.23.58.34.98.34.51,0,1.01-.19,1.49-.57l.04-.02Z" fill="#131f2b"/>
    <path d="M182.16,37.49c.05,0,.09.03.11.09.02.06,0,.1-.05.12l-1.97.94c-.05.03-.12.04-.19.04-.2,0-.4-.11-.58-.33s-.32-.51-.39-.88l-.82.57c-.29.22-.57.37-.82.47s-.54.14-.86.14c-.55,0-.96-.12-1.24-.36s-.42-.58-.42-1.01c0-.34.08-.62.25-.83.17-.21.37-.38.62-.5.25-.12.6-.26,1.04-.41l.48-.17,1.72-.63v-1.09c0-.81-.07-1.41-.2-1.78-.13-.37-.36-.55-.68-.55-.68,0-1.06.52-1.15,1.57-.04.38-.15.66-.33.82-.18.17-.44.25-.77.25s-.55-.07-.7-.2c-.15-.13-.22-.31-.22-.53,0-.38.22-.75.67-1.1.45-.35.98-.63,1.62-.85s1.19-.33,1.67-.33c.56,0,1.02.17,1.37.53.35.35.53.88.53,1.6v3.38c0,.37.07.66.2.86.13.2.32.31.56.31.18,0,.36-.04.55-.13h.02ZM179.05,37.14c-.01-.05-.02-.13-.02-.25v-1.83l-.82.38s-.17.06-.38.14-.4.22-.56.41c-.16.19-.24.41-.24.67,0,.31.1.54.3.72.2.17.42.26.68.26.2,0,.41-.07.63-.21l.42-.29Z" fill="#131f2b"/>
    <path d="M182.83,38.4c0-.08.01-.12.04-.12.39,0,.67-.09.81-.28.15-.18.22-.53.22-1.04l.02-9.71c0-.45-.04-.76-.12-.96-.08-.19-.23-.29-.43-.29-.17,0-.41.07-.73.21h-.02s-.07-.04-.11-.1c-.03-.07-.04-.11,0-.12l2.81-1.32.08-.02c.06,0,.13.03.21.09.08.06.12.11.12.16v12.06c0,.51.07.86.21,1.04.14.19.41.28.8.28.05,0,.08.04.08.12s-.03.11-.08.11c-.32,0-.57,0-.76-.02l-1.17-.02-1.15.02c-.19.01-.45.02-.78.02-.03,0-.04-.04-.04-.11Z" fill="#131f2b"/>
    <path d="M193.94,37.87c.48.08.88.26,1.2.56s.49.75.49,1.37c0,.71-.22,1.39-.66,2.02s-1.03,1.14-1.78,1.52c-.75.38-1.54.57-2.4.57s-1.6-.2-2.16-.6-.84-.93-.84-1.58c0-.89.64-1.76,1.93-2.6-.92-.18-1.38-.64-1.38-1.38,0-.79.45-1.48,1.34-2.08-.48-.23-.86-.55-1.14-.96-.27-.41-.41-.85-.41-1.31,0-.51.17-.94.5-1.3.33-.36.75-.63,1.27-.81.52-.18,1.04-.28,1.58-.28.8,0,1.49.2,2.06.61.66-.45,1.35-.67,2.06-.67.1,0,.15.18.15.54,0,.19-.03.39-.08.6-.05.21-.1.3-.15.26-.52-.22-.99-.33-1.41-.33h-.15c.34.41.52.87.52,1.38s-.17.96-.5,1.36-.75.7-1.27.91c-.52.21-1.05.32-1.6.32-.39,0-.76-.06-1.09-.17-.2.22-.31.49-.31.82s.09.59.28.75c.18.15.43.25.74.29s.76.06,1.36.08c.75.01,1.37.06,1.84.13ZM193.49,42.68c.38-.41.57-.96.57-1.66,0-.55-.12-.95-.35-1.19-.24-.25-.54-.4-.92-.46s-.92-.09-1.63-.11c-.12,0-.27,0-.48-.02s-.38-.03-.52-.04c-.43.32-.65.83-.65,1.53,0,.82.24,1.45.72,1.89.48.45,1.05.67,1.71.67s1.17-.2,1.55-.61ZM190,32.82c0,.54.08,1.02.23,1.44.15.43.35.76.6,1,.25.24.51.36.79.36s.52-.14.71-.42c.19-.28.29-.71.29-1.28s-.09-1.02-.27-1.4c-.18-.39-.4-.68-.68-.87s-.54-.29-.81-.29c-.57,0-.86.48-.86,1.45Z" fill="#131f2b"/>
    <path d="M196.63,38.4c0-.08.02-.12.06-.12.39,0,.66-.09.8-.28.14-.18.21-.53.21-1.04v-3.42c0-.43-.04-.75-.13-.94-.09-.19-.24-.29-.44-.29-.17,0-.4.07-.71.21h-.02c-.05,0-.09-.03-.12-.1s-.02-.11.02-.12l2.89-1.34.06-.02c.06,0,.13.03.19.1s.1.12.1.17v.42c-.03.51-.04,1.13-.04,1.87v3.46c0,.51.07.86.22,1.04.15.19.42.28.81.28.04,0,.06.04.06.12s-.02.11-.06.11c-.33,0-.59,0-.78-.02l-1.15-.02-1.13.02c-.19.01-.45.02-.78.02-.04,0-.06-.04-.06-.11ZM197.66,28.75c-.2-.2-.31-.49-.31-.86,0-.33.11-.6.32-.79.21-.2.49-.3.85-.3s.63.1.82.29c.19.19.29.46.29.8,0,.37-.1.66-.29.86-.19.2-.46.31-.82.31s-.66-.1-.86-.31Z" fill="#131f2b"/>
    <path d="M208.97,37.49c.05,0,.09.03.11.09.02.06,0,.1-.05.12l-1.97.94c-.05.03-.12.04-.19.04-.2,0-.4-.11-.58-.33s-.32-.51-.39-.88l-.82.57c-.29.22-.57.37-.82.47s-.54.14-.86.14c-.55,0-.96-.12-1.24-.36s-.42-.58-.42-1.01c0-.34.08-.62.25-.83.17-.21.37-.38.62-.5.25-.12.6-.26,1.04-.41l.48-.17,1.72-.63v-1.09c0-.81-.07-1.41-.2-1.78-.13-.37-.36-.55-.68-.55-.68,0-1.06.52-1.15,1.57-.04.38-.15.66-.33.82-.18.17-.44.25-.77.25s-.55-.07-.7-.2c-.15-.13-.22-.31-.22-.53,0-.38.22-.75.67-1.1.45-.35.98-.63,1.62-.85s1.19-.33,1.67-.33c.56,0,1.02.17,1.37.53.35.35.53.88.53,1.6v3.38c0,.37.07.66.2.86.13.2.32.31.56.31.18,0,.36-.04.55-.13h.02ZM205.86,37.14c-.01-.05-.02-.13-.02-.25v-1.83l-.82.38s-.17.06-.38.14-.4.22-.56.41c-.16.19-.24.41-.24.67,0,.31.1.54.3.72.2.17.42.26.68.26.2,0,.41-.07.63-.21l.42-.29Z" fill="#131f2b"/>
  </g>
  <g>
    <path d="M63.45,37.4c0,.08-.03.11-.1.11-.26,0-.65-.01-1.19-.04-.56-.03-.96-.04-1.2-.04-.32,0-.71.01-1.17.04-.43.03-.78.04-1.03.04-.05,0-.08-.04-.08-.11s.03-.12.08-.12c.33,0,.57-.04.72-.1.15-.07.22-.19.22-.37,0-.22-.13-.58-.38-1.09l-1.3-2.58h-4.7l-.75,1.66c-.17.37-.25.71-.25,1.03,0,.46.16.82.49,1.07.32.25.76.38,1.31.38.06,0,.1.04.1.12s-.03.11-.1.11c-.23,0-.56-.01-.99-.04-.48-.03-.91-.04-1.26-.04s-.76.01-1.24.04c-.43.03-.78.04-1.05.04-.05,0-.08-.04-.08-.11s.03-.12.08-.12c.36,0,.66-.07.9-.22.24-.15.48-.41.73-.78s.53-.93.86-1.67l4.15-9.12s.08-.06.17-.06c.1,0,.16.02.17.06l4.78,9.4c.45.9.81,1.53,1.11,1.87.29.34.6.52.92.52.06,0,.1.04.1.12ZM53.57,32.61h4.17l-2.2-4.36-1.97,4.36Z" fill="#c0b68a"/>
    <path d="M73.56,25.69c0,.08-.02.11-.06.11-.33,0-.58.04-.74.12-.16.08-.26.21-.32.39-.05.18-.08.47-.08.85v10.43c0,1.43-.35,2.54-1.06,3.34s-1.69,1.2-2.95,1.2c-.48,0-.88-.1-1.19-.31-.31-.2-.46-.48-.46-.84,0-.25.08-.48.25-.68s.41-.3.75-.3.56.1.74.29c.17.19.33.46.47.8.08.2.15.36.23.47.08.11.17.16.29.16.27,0,.46-.22.59-.65.13-.43.19-1.15.19-2.16v-11.81c0-.38-.04-.66-.12-.84-.08-.18-.23-.3-.45-.37s-.56-.11-1.03-.11c-.03,0-.04-.04-.04-.11s.01-.12.04-.12l1.19.02c.61.03,1.1.04,1.47.04s.8-.01,1.34-.04l.9-.02s.06.04.06.12Z" fill="#c0b68a"/>
    <path d="M82.07,36.49c.05,0,.09.03.1.09.02.06,0,.1-.05.12l-1.97.94c-.05.03-.11.04-.19.04-.2,0-.4-.11-.58-.33-.19-.22-.32-.51-.39-.88l-.82.57c-.29.22-.57.37-.82.47s-.54.14-.86.14c-.55,0-.96-.12-1.24-.36-.28-.24-.42-.58-.42-1.01,0-.34.08-.62.25-.83.17-.21.37-.38.62-.5.25-.12.6-.26,1.04-.41l.48-.17,1.72-.63v-1.09c0-.81-.07-1.41-.2-1.78-.13-.37-.36-.55-.68-.55-.68,0-1.06.52-1.15,1.57-.04.38-.15.66-.33.82-.19.17-.44.25-.77.25s-.55-.07-.7-.2-.22-.31-.22-.53c0-.38.22-.75.67-1.1.45-.35.98-.63,1.61-.85.63-.22,1.19-.33,1.67-.33.56,0,1.02.17,1.37.53.35.35.53.88.53,1.6v3.38c0,.37.07.66.2.86.13.2.32.31.56.31.18,0,.36-.04.55-.13h.02ZM78.95,36.14c-.01-.05-.02-.13-.02-.25v-1.83l-.82.38s-.17.06-.38.14c-.22.08-.4.22-.56.41-.16.19-.24.41-.24.67,0,.31.1.54.3.72.2.17.42.26.68.26.2,0,.41-.07.63-.21l.42-.29Z" fill="#c0b68a"/>
    <path d="M85.45,37.56v3.67c0,.38.04.66.12.84.08.18.24.3.48.37s.6.11,1.1.11c.04,0,.06.04.06.11s-.02.12-.06.12c-.47,0-.84,0-1.11-.02l-1.51-.02-1.13.02c-.19.01-.46.02-.8.02-.04,0-.06-.04-.06-.12s.02-.11.06-.11c.31,0,.53-.04.68-.11s.25-.19.31-.37c.06-.18.09-.46.09-.84v-8.85c0-.41-.04-.7-.13-.88-.09-.18-.25-.27-.48-.27-.2,0-.5.09-.88.27h-.04s-.07-.03-.1-.1c-.03-.06-.04-.1,0-.11l2.71-1.32s.06-.02.1-.02c.13,0,.25.11.35.33s.18.51.22.88c.93-.84,1.89-1.26,2.87-1.26.54,0,1.04.14,1.5.42.46.28.84.69,1.12,1.22.28.54.42,1.16.42,1.87,0,1.02-.21,1.86-.63,2.51s-.95,1.13-1.6,1.41c-.64.29-1.31.43-2,.43-.62,0-1.17-.07-1.64-.21ZM85.45,31.57v4.76c.28.32.57.56.88.72s.68.24,1.13.24c1.29,0,1.93-1.1,1.93-3.29,0-.97-.23-1.72-.68-2.25-.45-.53-1.02-.79-1.69-.79-.57,0-1.1.2-1.57.61Z" fill="#c0b68a"/>
    <path d="M99.92,36.49c.05,0,.09.03.1.09.02.06,0,.1-.05.12l-1.97.94c-.05.03-.11.04-.19.04-.2,0-.4-.11-.58-.33-.19-.22-.32-.51-.39-.88l-.82.57c-.29.22-.57.37-.82.47s-.54.14-.86.14c-.55,0-.96-.12-1.24-.36-.28-.24-.42-.58-.42-1.01,0-.34.08-.62.25-.83.17-.21.37-.38.62-.5.25-.12.6-.26,1.04-.41l.48-.17,1.72-.63v-1.09c0-.81-.07-1.41-.2-1.78-.13-.37-.36-.55-.68-.55-.68,0-1.06.52-1.15,1.57-.04.38-.15.66-.33.82-.19.17-.44.25-.77.25s-.55-.07-.7-.2-.22-.31-.22-.53c0-.38.22-.75.67-1.1.45-.35.98-.63,1.61-.85.63-.22,1.19-.33,1.67-.33.56,0,1.02.17,1.37.53.35.35.53.88.53,1.6v3.38c0,.37.07.66.2.86.13.2.32.31.56.31.18,0,.36-.04.55-.13h.02ZM96.8,36.14c-.01-.05-.02-.13-.02-.25v-1.83l-.82.38s-.17.06-.38.14c-.22.08-.4.22-.56.41-.16.19-.24.41-.24.67,0,.31.1.54.3.72.2.17.42.26.68.26.2,0,.41-.07.63-.21l.42-.29Z" fill="#c0b68a"/>
    <path d="M109.74,37.4c0,.08-.02.11-.06.11-.33,0-.59,0-.78-.02l-1.15-.02-1.11.02c-.2.01-.47.02-.8.02-.04,0-.06-.04-.06-.11s.02-.12.06-.12c.4,0,.66-.09.8-.28.14-.18.21-.53.21-1.04v-2.75c0-.69-.12-1.2-.37-1.53-.25-.33-.64-.5-1.18-.5-.31,0-.62.06-.95.19-.33.13-.61.3-.85.52v4.07c0,.51.07.86.22,1.04.15.19.42.28.81.28.04,0,.06.04.06.12s-.02.11-.06.11c-.33,0-.59,0-.78-.02l-1.15-.02-1.13.02c-.19.01-.45.02-.78.02-.04,0-.06-.04-.06-.11s.02-.12.06-.12c.4,0,.66-.09.8-.28.14-.18.21-.53.21-1.04v-3.59c0-.39-.05-.68-.14-.87-.1-.18-.25-.28-.45-.28-.22,0-.52.09-.92.27h-.04s-.07-.03-.09-.1c-.02-.06-.02-.1,0-.11l2.66-1.3c.08-.03.12-.04.13-.04.14,0,.27.14.4.41.13.27.2.65.23,1.12.88-1.04,1.85-1.57,2.9-1.57.69,0,1.23.22,1.63.66s.6,1.02.6,1.73v3.67c0,.51.07.86.22,1.04.15.19.42.28.81.28.04,0,.06.04.06.12Z" fill="#c0b68a"/>
    <path d="M117.42,36.26s.05.03.09.08c.03.05.03.09,0,.11-.47.46-.95.79-1.43.99-.48.2-1.01.31-1.59.31-.8,0-1.5-.17-2.08-.51-.59-.34-1.03-.79-1.34-1.36-.31-.57-.46-1.18-.46-1.84,0-.74.18-1.42.55-2.04.37-.62.88-1.12,1.54-1.48s1.4-.54,2.23-.54,1.4.18,1.83.54c.43.36.65.91.65,1.66,0,.4-.07.59-.21.59l-4.64.02c-.01.09-.02.24-.02.44,0,1.12.26,2,.77,2.64.52.64,1.26.96,2.23.96.34,0,.64-.04.88-.12.24-.08.56-.22.96-.42l.04-.02ZM113.16,30.9c-.28.36-.47.86-.55,1.5l2.77-.04c-.01-.65-.11-1.15-.29-1.49-.18-.34-.47-.52-.88-.52s-.77.18-1.05.54Z" fill="#c0b68a"/>
    <path d="M120.64,32.01c.26.27.64.55,1.14.84.48.28.84.5,1.08.66s.45.38.64.67c.19.29.29.63.29,1.04,0,.43-.11.84-.32,1.22-.22.38-.54.69-.97.93s-.95.35-1.55.35c-.7,0-1.36-.17-1.99-.52-.08-.08-.11-.15-.11-.23l-.04-1.89s.03-.06.1-.07c.07,0,.11,0,.12.03.2.64.54,1.18,1.01,1.62.47.45.95.67,1.43.67.27,0,.48-.08.64-.25.16-.17.24-.41.24-.73,0-.47-.13-.84-.4-1.12-.27-.27-.66-.56-1.19-.85-.45-.24-.78-.44-1.01-.59-.23-.15-.43-.37-.61-.65-.18-.28-.27-.62-.27-1.03,0-.75.27-1.3.8-1.65s1.19-.53,1.97-.53c.29,0,.56.02.79.06s.5.11.79.23c.11.04.17.11.17.21,0,.32,0,.57-.02.75l-.02.96s-.04.06-.11.06-.11-.02-.11-.06c0-.24-.1-.51-.31-.79-.2-.29-.47-.53-.79-.74-.32-.2-.66-.31-1-.31-.52,0-.78.25-.78.75,0,.37.13.69.39.96Z" fill="#c0b68a"/>
    <path d="M131.85,36.26s.05.03.09.08c.03.05.04.09,0,.11-.47.46-.95.79-1.43.99-.48.2-1.01.31-1.59.31-.8,0-1.5-.17-2.08-.51-.59-.34-1.03-.79-1.34-1.36-.31-.57-.46-1.18-.46-1.84,0-.74.18-1.42.55-2.04.37-.62.88-1.12,1.54-1.48s1.4-.54,2.23-.54,1.4.18,1.84.54c.43.36.65.91.65,1.66,0,.4-.07.59-.21.59l-4.64.02c-.01.09-.02.24-.02.44,0,1.12.26,2,.77,2.64.52.64,1.26.96,2.23.96.34,0,.64-.04.88-.12.24-.08.56-.22.96-.42l.04-.02ZM127.59,30.9c-.28.36-.47.86-.55,1.5l2.77-.04c-.01-.65-.11-1.15-.29-1.49-.18-.34-.47-.52-.88-.52s-.77.18-1.05.54Z" fill="#c0b68a"/>
    <path d="M150.75,25.69c0,.08-.01.11-.04.11-.51,0-.91.2-1.2.6-.29.4-.44.94-.44,1.61v9.79s-.03.06-.09.08c-.06.01-.1,0-.12-.02l-8.96-10.21v7.43c0,.67.14,1.21.42,1.6.28.4.67.59,1.17.59.03,0,.04.04.04.12s-.01.11-.04.11c-.36,0-.63,0-.82-.02l-1.03-.02-1.19.02c-.22.01-.53.02-.94.02-.04,0-.06-.04-.06-.11s.02-.12.06-.12c.56,0,1-.2,1.33-.59.32-.39.49-.93.49-1.6v-8.08c-.42-.46-.78-.77-1.08-.95-.3-.17-.61-.26-.93-.26-.03,0-.04-.04-.04-.11s.01-.12.04-.12l.8.02c.17.01.41.02.73.02l1.45-.02c.18-.01.39-.02.65-.02.1,0,.18.03.23.08s.14.16.27.32c.22.29.37.49.46.59l6.61,7.63v-6.17c0-.69-.14-1.23-.42-1.62s-.67-.59-1.17-.59c-.03,0-.04-.04-.04-.11s.01-.12.04-.12l.82.02c.41.03.75.04,1.03.04.25,0,.61-.01,1.07-.04l.86-.02s.04.04.04.12Z" fill="#c0b68a"/>
    <path d="M153.4,37.22c-.59-.36-1.05-.85-1.37-1.47-.32-.62-.48-1.29-.48-2.02,0-.83.21-1.53.63-2.11.42-.58.96-1.01,1.61-1.3.65-.29,1.32-.43,2.01-.43.79,0,1.48.19,2.06.55.59.37,1.03.86,1.35,1.46s.47,1.25.47,1.94c0,.76-.19,1.44-.57,2.04-.38.59-.9,1.05-1.54,1.39-.64.33-1.34.5-2.09.5-.79,0-1.48-.18-2.07-.54ZM157.19,36.63c.26-.49.39-1.19.39-2.11s-.11-1.66-.34-2.29-.53-1.12-.9-1.44c-.37-.32-.76-.49-1.18-.49-1.02,0-1.53.91-1.53,2.73,0,.85.11,1.61.33,2.26.22.66.51,1.17.88,1.53.37.36.78.54,1.22.54.5,0,.88-.25,1.14-.74Z" fill="#c0b68a"/>
    <path d="M162.94,32.01c.26.27.64.55,1.14.84.48.28.84.5,1.08.66.24.16.45.38.64.67s.29.63.29,1.04c0,.43-.11.84-.33,1.22s-.54.69-.97.93c-.43.24-.95.35-1.55.35-.7,0-1.36-.17-1.99-.52-.08-.08-.11-.15-.11-.23l-.04-1.89s.04-.06.11-.07c.07,0,.11,0,.12.03.2.64.54,1.18,1.01,1.62s.95.67,1.43.67c.27,0,.48-.08.64-.25.16-.17.24-.41.24-.73,0-.47-.13-.84-.4-1.12-.27-.27-.66-.56-1.18-.85-.45-.24-.78-.44-1.01-.59-.23-.15-.43-.37-.61-.65-.18-.28-.27-.62-.27-1.03,0-.75.27-1.3.8-1.65s1.19-.53,1.97-.53c.29,0,.56.02.79.06.24.04.5.11.79.23.12.04.17.11.17.21,0,.32,0,.57-.02.75l-.02.96s-.04.06-.11.06-.12-.02-.12-.06c0-.24-.1-.51-.31-.79-.2-.29-.47-.53-.79-.74s-.66-.31-1-.31c-.52,0-.78.25-.78.75,0,.37.13.69.39.96Z" fill="#c0b68a"/>
    <path d="M172.92,36.18c.05,0,.09.03.12.08.03.05.03.09,0,.12-.47.47-.93.82-1.38,1.04s-.92.33-1.41.33c-.56,0-1.04-.13-1.43-.4s-.59-.72-.59-1.36v-4.24c0-.4-.07-.67-.21-.82s-.39-.23-.76-.23c-.01,0-.03-.02-.05-.06-.02-.04-.03-.08-.03-.12,0-.05,0-.09.02-.12s.03-.05.06-.05c.65-.03,1.18-.17,1.58-.42.4-.25.71-.64.93-1.17.03-.05.08-.08.16-.08s.12.03.12.08v1.53c.74-.01,1.57-.07,2.48-.17.03,0,.05.05.09.14.03.1.05.2.05.32,0,.13-.02.25-.07.37-.04.12-.09.18-.14.16-.83-.18-1.63-.27-2.41-.29v4.53c0,.48.12.84.37,1.07.25.23.58.34.98.34.51,0,1.01-.19,1.49-.57l.04-.02Z" fill="#c0b68a"/>
    <path d="M181.16,36.49c.05,0,.09.03.11.09.02.06,0,.1-.05.12l-1.97.94c-.05.03-.12.04-.19.04-.2,0-.4-.11-.58-.33s-.32-.51-.39-.88l-.82.57c-.29.22-.57.37-.82.47s-.54.14-.86.14c-.55,0-.96-.12-1.24-.36s-.42-.58-.42-1.01c0-.34.08-.62.25-.83.17-.21.37-.38.62-.5.25-.12.6-.26,1.04-.41l.48-.17,1.72-.63v-1.09c0-.81-.07-1.41-.2-1.78-.13-.37-.36-.55-.68-.55-.68,0-1.06.52-1.15,1.57-.04.38-.15.66-.33.82-.18.17-.44.25-.77.25s-.55-.07-.7-.2c-.15-.13-.22-.31-.22-.53,0-.38.22-.75.67-1.1.45-.35.98-.63,1.62-.85s1.19-.33,1.67-.33c.56,0,1.02.17,1.37.53.35.35.53.88.53,1.6v3.38c0,.37.07.66.2.86.13.2.32.31.56.31.18,0,.36-.04.55-.13h.02ZM178.05,36.14c-.01-.05-.02-.13-.02-.25v-1.83l-.82.38s-.17.06-.38.14-.4.22-.56.41c-.16.19-.24.41-.24.67,0,.31.1.54.3.72.2.17.42.26.68.26.2,0,.41-.07.63-.21l.42-.29Z" fill="#c0b68a"/>
    <path d="M181.83,37.4c0-.08.01-.12.04-.12.39,0,.67-.09.81-.28.15-.18.22-.53.22-1.04l.02-9.71c0-.45-.04-.76-.12-.96-.08-.19-.23-.29-.43-.29-.17,0-.41.07-.73.21h-.02s-.07-.04-.11-.1c-.03-.07-.04-.11,0-.12l2.81-1.32.08-.02c.06,0,.13.03.21.09.08.06.12.11.12.16v12.06c0,.51.07.86.21,1.04.14.19.41.28.8.28.05,0,.08.04.08.12s-.03.11-.08.11c-.32,0-.57,0-.76-.02l-1.17-.02-1.15.02c-.19.01-.45.02-.78.02-.03,0-.04-.04-.04-.11Z" fill="#c0b68a"/>
    <path d="M192.94,36.87c.48.08.88.26,1.2.56s.49.75.49,1.37c0,.71-.22,1.39-.66,2.02s-1.03,1.14-1.78,1.52c-.75.38-1.54.57-2.4.57s-1.6-.2-2.16-.6-.84-.93-.84-1.58c0-.89.64-1.76,1.93-2.6-.92-.18-1.38-.64-1.38-1.38,0-.79.45-1.48,1.34-2.08-.48-.23-.86-.55-1.14-.96-.27-.41-.41-.85-.41-1.31,0-.51.17-.94.5-1.3.33-.36.75-.63,1.27-.81.52-.18,1.04-.28,1.58-.28.8,0,1.49.2,2.06.61.66-.45,1.35-.67,2.06-.67.1,0,.15.18.15.54,0,.19-.03.39-.08.6-.05.21-.1.3-.15.26-.52-.22-.99-.33-1.41-.33h-.15c.34.41.52.87.52,1.38s-.17.96-.5,1.36-.75.7-1.27.91c-.52.21-1.05.32-1.6.32-.39,0-.76-.06-1.09-.17-.2.22-.31.49-.31.82s.09.59.28.75c.18.15.43.25.74.29s.76.06,1.36.08c.75.01,1.37.06,1.84.13ZM192.49,41.68c.38-.41.57-.96.57-1.66,0-.55-.12-.95-.35-1.19-.24-.25-.54-.4-.92-.46s-.92-.09-1.63-.11c-.12,0-.27,0-.48-.02s-.38-.03-.52-.04c-.43.32-.65.83-.65,1.53,0,.82.24,1.45.72,1.89.48.45,1.05.67,1.71.67s1.17-.2,1.55-.61ZM189,31.82c0,.54.08,1.02.23,1.44.15.43.35.76.6,1,.25.24.51.36.79.36s.52-.14.71-.42c.19-.28.29-.71.29-1.28s-.09-1.02-.27-1.4c-.18-.39-.4-.68-.68-.87s-.54-.29-.81-.29c-.57,0-.86.48-.86,1.45Z" fill="#c0b68a"/>
    <path d="M195.63,37.4c0-.08.02-.12.06-.12.39,0,.66-.09.8-.28.14-.18.21-.53.21-1.04v-3.42c0-.43-.04-.75-.13-.94-.09-.19-.24-.29-.44-.29-.17,0-.4.07-.71.21h-.02c-.05,0-.09-.03-.12-.1s-.02-.11.02-.12l2.89-1.34.06-.02c.06,0,.13.03.19.1s.1.12.1.17v.42c-.03.51-.04,1.13-.04,1.87v3.46c0,.51.07.86.22,1.04.15.19.42.28.81.28.04,0,.06.04.06.12s-.02.11-.06.11c-.33,0-.59,0-.78-.02l-1.15-.02-1.13.02c-.19.01-.45.02-.78.02-.04,0-.06-.04-.06-.11ZM196.66,27.75c-.2-.2-.31-.49-.31-.86,0-.33.11-.6.32-.79.21-.2.49-.3.85-.3s.63.1.82.29c.19.19.29.46.29.8,0,.37-.1.66-.29.86-.19.2-.46.31-.82.31s-.66-.1-.86-.31Z" fill="#c0b68a"/>
    <path d="M207.97,36.49c.05,0,.09.03.11.09.02.06,0,.1-.05.12l-1.97.94c-.05.03-.12.04-.19.04-.2,0-.4-.11-.58-.33s-.32-.51-.39-.88l-.82.57c-.29.22-.57.37-.82.47s-.54.14-.86.14c-.55,0-.96-.12-1.24-.36s-.42-.58-.42-1.01c0-.34.08-.62.25-.83.17-.21.37-.38.62-.5.25-.12.6-.26,1.04-.41l.48-.17,1.72-.63v-1.09c0-.81-.07-1.41-.2-1.78-.13-.37-.36-.55-.68-.55-.68,0-1.06.52-1.15,1.57-.04.38-.15.66-.33.82-.18.17-.44.25-.77.25s-.55-.07-.7-.2c-.15-.13-.22-.31-.22-.53,0-.38.22-.75.67-1.1.45-.35.98-.63,1.62-.85s1.19-.33,1.67-.33c.56,0,1.02.17,1.37.53.35.35.53.88.53,1.6v3.38c0,.37.07.66.2.86.13.2.32.31.56.31.18,0,.36-.04.55-.13h.02ZM204.86,36.14c-.01-.05-.02-.13-.02-.25v-1.83l-.82.38s-.17.06-.38.14-.4.22-.56.41c-.16.19-.24.41-.24.67,0,.31.1.54.3.72.2.17.42.26.68.26.2,0,.41-.07.63-.21l.42-.29Z" fill="#c0b68a"/>
  </g>
</svg>