<?xml version="1.0" encoding="UTF-8"?>
<svg id="_レイヤー_2" xmlns="http://www.w3.org/2000/svg" width="257.59" height="64.56" version="1.1" viewBox="0 0 257.59 64.56">
  <!-- Generator: Adobe Illustrator 29.4.0, SVG Export Plug-In . SVG Version: 2.1.0 Build 152)  -->
  <g>
    <rect x=".96" y=".97" width="255.67" height="62.63" rx="4.1" ry="4.1" fill="#212a37"/>
    <path d="M252.53,64.1H5.06c-2.54,0-4.6-2.06-4.6-4.6V5.07c0-2.54,2.06-4.6,4.6-4.6h247.47c2.54,0,4.6,2.06,4.6,4.6v54.43c0,2.54-2.06,4.6-4.6,4.6ZM5.06,1.47c-1.99,0-3.6,1.62-3.6,3.6v54.43c0,1.98,1.61,3.6,3.6,3.6h247.47c1.99,0,3.6-1.62,3.6-3.6V5.07c0-1.98-1.62-3.6-3.6-3.6,0,0-247.47,0-247.47,0Z" fill="#414e5b"/>
  </g>
  <g>
    <path d="M240.01,9.24c-.04-.14-.17-.21-.31-.21H60.94v.02H17.68c-.14,0-.26.09-.31.21-1.21,3.87-4.26,6.92-8.13,8.13-.14.04-.21.17-.21.31v29.22c0,.14.09.26.21.31,3.87,1.21,6.92,4.26,8.13,8.13.04.14.17.21.31.21h178.76v-.02h43.26c.14,0,.26-.09.31-.21,1.21-3.87,4.26-6.92,8.13-8.13.14-.04.21-.17.21-.31v-29.22c0-.14-.09-.26-.21-.31-3.87-1.21-6.92-4.26-8.13-8.13h0ZM247.74,46.67c-3.89,1.28-6.97,4.35-8.25,8.23H60.95v.02H17.92c-1.28-3.89-4.36-6.96-8.25-8.25v-28.78c3.89-1.28,6.97-4.35,8.25-8.23h178.53v-.02h43.04c1.28,3.89,4.36,6.96,8.25,8.25v28.78h0Z" fill="#c0b68a"/>
    <path d="M252.09,14.19c-.08-.08-.19-.12-.31-.12-2.34,0-4.45-.94-6-2.49s-2.49-3.64-2.49-6c0-.11-.04-.23-.12-.31s-.19-.12-.31-.12H14.51c-.11,0-.23.04-.31.12s-.12.19-.12.31c0,2.34-.94,4.45-2.49,6s-3.64,2.49-6,2.49c-.11,0-.23.04-.31.12s-.12.19-.12.31v35.58c0,.11.04.23.12.31s.19.12.31.12c2.34,0,4.45.94,6,2.49s2.49,3.64,2.49,6c0,.11.04.23.12.31s.19.12.31.12h228.37c.11,0,.23-.04.31-.12s.12-.19.12-.31c0-2.34.94-4.45,2.49-6s3.64-2.49,6-2.49c.11,0,.23-.04.31-.12s.12-.19.12-.31V14.49c0-.11-.04-.23-.12-.31h-.02,0ZM251.36,49.65c-2.41.11-4.58,1.13-6.16,2.73-1.6,1.59-2.63,3.76-2.73,6.16H14.93c-.11-2.41-1.13-4.58-2.73-6.16-1.59-1.59-3.76-2.61-6.16-2.73V14.92c2.41-.11,4.58-1.13,6.16-2.73,1.6-1.59,2.63-3.76,2.73-6.16h227.55c.11,2.41,1.13,4.58,2.73,6.16,1.59,1.59,3.76,2.61,6.16,2.73v34.72h-.01Z" fill="#c0b68a"/>
  </g>
  <g>
    <g>
      <circle cx="7.75" cy="8.15" r="1.98" fill="#c0b68a"/>
      <circle cx="7.75" cy="56.43" r="1.98" fill="#c0b68a"/>
    </g>
    <g>
      <circle cx="249.85" cy="8.15" r="1.98" fill="#c0b68a"/>
      <circle cx="249.85" cy="56.43" r="1.98" fill="#c0b68a"/>
    </g>
  </g>
  <g>
    <path d="M107.74,38.52c-1.07-.54-1.89-1.28-2.47-2.21s-.86-1.96-.86-3.1c0-1.21.32-2.29.96-3.25.64-.96,1.53-1.7,2.67-2.23,1.13-.53,2.41-.79,3.82-.79.61,0,1.22.05,1.83.14.61.1,1.1.22,1.47.37.14.05.22.09.24.12.02.03.04.14.05.32l.25,2.66s-.04.06-.11.08c-.07.01-.11,0-.12-.06-.17-.42-.43-.88-.8-1.38-.37-.5-.85-.93-1.45-1.3-.6-.37-1.29-.55-2.08-.55s-1.56.22-2.24.67c-.68.45-1.21,1.08-1.6,1.91-.39.83-.58,1.79-.58,2.89,0,1.2.23,2.27.68,3.21.45.94,1.08,1.68,1.88,2.2s1.71.78,2.71.78c.52,0,.92-.06,1.2-.17s.48-.34.61-.67c.13-.33.19-.82.19-1.47s-.04-1.12-.11-1.39c-.08-.26-.24-.44-.49-.53-.25-.09-.69-.13-1.31-.13-.08,0-.11-.05-.11-.15,0-.04,0-.07.03-.1.02-.03.04-.05.07-.05,1.08.06,1.96.1,2.64.1s1.33-.02,2.03-.06c.05,0,.08.04.09.13s-.02.13-.09.13c-.23-.01-.39.03-.49.12-.1.1-.16.29-.18.58-.03.29-.04.8-.04,1.53,0,.57.02.98.07,1.22.04.24.07.4.07.46,0,.08-.01.13-.04.15-.03.03-.08.05-.17.08-1.64.36-3.12.54-4.43.54-1.45,0-2.71-.27-3.78-.81Z" fill="#131f2b"/>
    <path d="M126.91,38.99c0,.08-.03.11-.08.11-.33,0-.6,0-.8-.02l-1.11-.02-1.15.02c-.19.01-.45.02-.78.02-.03,0-.04-.04-.04-.11s.01-.12.04-.12c.39,0,.67-.09.81-.28.15-.18.22-.53.22-1.04v-2.75c0-.69-.13-1.2-.38-1.53s-.65-.5-1.18-.5c-.31,0-.62.06-.95.19-.32.13-.61.3-.85.52v4.07c0,.51.07.86.22,1.04.15.19.42.28.81.28.05,0,.08.04.08.12s-.03.11-.08.11c-.33,0-.6,0-.8-.02l-1.11-.02-1.15.02c-.19.01-.45.02-.78.02-.03,0-.04-.04-.04-.11s.01-.12.04-.12c.39,0,.67-.09.81-.28.15-.18.22-.53.22-1.04v-9.71c0-.45-.04-.76-.12-.96-.08-.19-.23-.29-.43-.29-.18,0-.42.07-.73.21h-.02s-.07-.04-.1-.1c-.03-.07-.04-.11,0-.12l2.79-1.32.1-.02c.06,0,.13.03.2.09.07.06.11.11.11.16v7.57c.9-1.04,1.87-1.57,2.9-1.57.69,0,1.23.22,1.63.66s.6,1.02.6,1.73v3.67c0,.51.07.86.22,1.04.15.19.42.28.81.28.05,0,.08.04.08.12Z" fill="#131f2b"/>
    <path d="M129.63,38.81c-.59-.36-1.05-.85-1.37-1.47-.32-.62-.48-1.29-.48-2.02,0-.83.21-1.53.63-2.11.42-.58.96-1.01,1.61-1.3.65-.29,1.32-.43,2.01-.43.79,0,1.48.19,2.06.55.59.37,1.03.86,1.35,1.46s.47,1.25.47,1.94c0,.76-.19,1.44-.57,2.04-.38.59-.9,1.05-1.54,1.39-.64.33-1.34.5-2.09.5-.79,0-1.48-.18-2.07-.54ZM133.42,38.21c.26-.49.39-1.19.39-2.11s-.11-1.66-.34-2.29-.53-1.12-.9-1.44c-.37-.32-.76-.49-1.18-.49-1.02,0-1.53.91-1.53,2.73,0,.85.11,1.61.32,2.26.22.66.51,1.17.88,1.53.37.36.78.54,1.22.54.5,0,.88-.25,1.14-.74Z" fill="#131f2b"/>
    <path d="M139.17,33.6c.26.27.64.55,1.14.84.48.28.84.5,1.08.66.24.16.45.38.64.67s.29.63.29,1.04c0,.43-.11.84-.32,1.22-.22.38-.54.69-.97.93-.43.24-.95.35-1.55.35-.7,0-1.36-.17-1.99-.52-.08-.08-.11-.15-.11-.23l-.04-1.89s.03-.06.1-.07c.07,0,.11,0,.12.03.2.64.54,1.18,1.01,1.62.47.45.95.67,1.43.67.27,0,.48-.08.64-.25.16-.17.24-.41.24-.73,0-.47-.13-.84-.4-1.12-.27-.27-.66-.56-1.19-.85-.45-.24-.78-.44-1.01-.59-.23-.15-.43-.37-.61-.65s-.27-.62-.27-1.03c0-.75.27-1.3.8-1.65s1.19-.53,1.97-.53c.29,0,.56.02.79.06.24.04.5.11.79.23.11.04.17.11.17.21,0,.32,0,.57-.02.75l-.02.96s-.04.06-.11.06-.12-.02-.12-.06c0-.24-.1-.51-.31-.79-.2-.29-.47-.53-.79-.74s-.66-.31-1-.31c-.52,0-.78.25-.78.75,0,.37.13.69.39.96Z" fill="#131f2b"/>
    <path d="M149.15,37.76c.05,0,.09.03.12.08.03.05.03.09,0,.12-.47.47-.93.82-1.38,1.04-.45.22-.92.33-1.41.33-.56,0-1.04-.13-1.43-.4-.4-.27-.59-.72-.59-1.36v-4.24c0-.4-.07-.67-.21-.82-.14-.15-.4-.23-.76-.23-.01,0-.03-.02-.05-.06-.02-.04-.03-.08-.03-.12,0-.05,0-.09.02-.12s.03-.05.06-.05c.65-.03,1.18-.17,1.58-.42.4-.25.71-.64.93-1.17.03-.05.08-.08.16-.08s.12.03.12.08v1.53c.74-.01,1.57-.07,2.48-.17.03,0,.05.05.09.14.03.1.05.2.05.32,0,.13-.02.25-.07.37-.04.12-.09.18-.14.16-.83-.18-1.63-.27-2.41-.29v4.53c0,.48.12.84.37,1.07.25.23.58.34.98.34.51,0,1.01-.19,1.49-.57l.04-.02Z" fill="#131f2b"/>
    <path d="M152.03,33.6c.26.27.64.55,1.14.84.48.28.84.5,1.08.66.24.16.45.38.64.67.19.29.29.63.29,1.04,0,.43-.11.84-.33,1.22s-.54.69-.97.93c-.43.24-.95.35-1.55.35-.7,0-1.36-.17-1.99-.52-.08-.08-.12-.15-.12-.23l-.04-1.89s.04-.06.11-.07c.07,0,.11,0,.12.03.2.64.54,1.18,1.01,1.62s.95.67,1.43.67c.27,0,.48-.08.64-.25.16-.17.24-.41.24-.73,0-.47-.13-.84-.4-1.12-.27-.27-.66-.56-1.18-.85-.45-.24-.78-.44-1.01-.59-.23-.15-.43-.37-.61-.65-.18-.28-.27-.62-.27-1.03,0-.75.27-1.3.8-1.65s1.19-.53,1.97-.53c.29,0,.56.02.79.06.24.04.5.11.79.23.12.04.17.11.17.21,0,.32,0,.57-.02.75l-.02.96s-.04.06-.11.06-.11-.02-.11-.06c0-.24-.1-.51-.31-.79-.2-.29-.47-.53-.79-.74-.32-.2-.66-.31-1-.31-.52,0-.78.25-.78.75,0,.37.13.69.39.96Z" fill="#131f2b"/>
  </g>
  <g>
    <path d="M106.74,37.52c-1.07-.54-1.89-1.28-2.47-2.21s-.86-1.96-.86-3.1c0-1.21.32-2.29.96-3.25.64-.96,1.53-1.7,2.67-2.23,1.13-.53,2.41-.79,3.82-.79.61,0,1.22.05,1.83.14.61.1,1.1.22,1.47.37.14.05.22.09.24.12.02.03.04.14.05.32l.25,2.66s-.04.06-.11.08c-.07.01-.11,0-.12-.06-.17-.42-.43-.88-.8-1.38-.37-.5-.85-.93-1.45-1.3-.6-.37-1.29-.55-2.08-.55s-1.56.22-2.24.67c-.68.45-1.21,1.08-1.6,1.91-.39.83-.58,1.79-.58,2.89,0,1.2.23,2.27.68,3.21.45.94,1.08,1.68,1.88,2.2s1.71.78,2.71.78c.52,0,.92-.06,1.2-.17s.48-.34.61-.67c.13-.33.19-.82.19-1.47s-.04-1.12-.11-1.39c-.08-.26-.24-.44-.49-.53-.25-.09-.69-.13-1.31-.13-.08,0-.11-.05-.11-.15,0-.04,0-.07.03-.1.02-.03.04-.05.07-.05,1.08.06,1.96.1,2.64.1s1.33-.02,2.03-.06c.05,0,.08.04.09.13s-.02.13-.09.13c-.23-.01-.39.03-.49.12-.1.1-.16.29-.18.58-.03.29-.04.8-.04,1.53,0,.57.02.98.07,1.22.04.24.07.4.07.46,0,.08-.01.13-.04.15-.03.03-.08.05-.17.08-1.64.36-3.12.54-4.43.54-1.45,0-2.71-.27-3.78-.81Z" fill="#c0b68a"/>
    <path d="M125.91,37.99c0,.08-.03.11-.08.11-.33,0-.6,0-.8-.02l-1.11-.02-1.15.02c-.19.01-.45.02-.78.02-.03,0-.04-.04-.04-.11s.01-.12.04-.12c.39,0,.67-.09.81-.28.15-.18.22-.53.22-1.04v-2.75c0-.69-.13-1.2-.38-1.53s-.65-.5-1.18-.5c-.31,0-.62.06-.95.19-.32.13-.61.3-.85.52v4.07c0,.51.07.86.22,1.04.15.19.42.28.81.28.05,0,.08.04.08.12s-.03.11-.08.11c-.33,0-.6,0-.8-.02l-1.11-.02-1.15.02c-.19.01-.45.02-.78.02-.03,0-.04-.04-.04-.11s.01-.12.04-.12c.39,0,.67-.09.81-.28.15-.18.22-.53.22-1.04v-9.71c0-.45-.04-.76-.12-.96-.08-.19-.23-.29-.43-.29-.18,0-.42.07-.73.21h-.02s-.07-.04-.1-.1c-.03-.07-.04-.11,0-.12l2.79-1.32.1-.02c.06,0,.13.03.2.09.07.06.11.11.11.16v7.57c.9-1.04,1.87-1.57,2.9-1.57.69,0,1.23.22,1.63.66s.6,1.02.6,1.73v3.67c0,.51.07.86.22,1.04.15.19.42.28.81.28.05,0,.08.04.08.12Z" fill="#c0b68a"/>
    <path d="M128.63,37.81c-.59-.36-1.05-.85-1.37-1.47-.32-.62-.48-1.29-.48-2.02,0-.83.21-1.53.63-2.11.42-.58.96-1.01,1.61-1.3.65-.29,1.32-.43,2.01-.43.79,0,1.48.19,2.06.55.59.37,1.03.86,1.35,1.46s.47,1.25.47,1.94c0,.76-.19,1.44-.57,2.04-.38.59-.9,1.05-1.54,1.39-.64.33-1.34.5-2.09.5-.79,0-1.48-.18-2.07-.54ZM132.42,37.21c.26-.49.39-1.19.39-2.11s-.11-1.66-.34-2.29-.53-1.12-.9-1.44c-.37-.32-.76-.49-1.18-.49-1.02,0-1.53.91-1.53,2.73,0,.85.11,1.61.32,2.26.22.66.51,1.17.88,1.53.37.36.78.54,1.22.54.5,0,.88-.25,1.14-.74Z" fill="#c0b68a"/>
    <path d="M138.17,32.6c.26.27.64.55,1.14.84.48.28.84.5,1.08.66.24.16.45.38.64.67s.29.63.29,1.04c0,.43-.11.84-.32,1.22-.22.38-.54.69-.97.93-.43.24-.95.35-1.55.35-.7,0-1.36-.17-1.99-.52-.08-.08-.11-.15-.11-.23l-.04-1.89s.03-.06.1-.07c.07,0,.11,0,.12.03.2.64.54,1.18,1.01,1.62.47.45.95.67,1.43.67.27,0,.48-.08.64-.25.16-.17.24-.41.24-.73,0-.47-.13-.84-.4-1.12-.27-.27-.66-.56-1.19-.85-.45-.24-.78-.44-1.01-.59-.23-.15-.43-.37-.61-.65s-.27-.62-.27-1.03c0-.75.27-1.3.8-1.65s1.19-.53,1.97-.53c.29,0,.56.02.79.06.24.04.5.11.79.23.11.04.17.11.17.21,0,.32,0,.57-.02.75l-.02.96s-.04.06-.11.06-.12-.02-.12-.06c0-.24-.1-.51-.31-.79-.2-.29-.47-.53-.79-.74s-.66-.31-1-.31c-.52,0-.78.25-.78.75,0,.37.13.69.39.96Z" fill="#c0b68a"/>
    <path d="M148.15,36.76c.05,0,.09.03.12.08.03.05.03.09,0,.12-.47.47-.93.82-1.38,1.04-.45.22-.92.33-1.41.33-.56,0-1.04-.13-1.43-.4-.4-.27-.59-.72-.59-1.36v-4.24c0-.4-.07-.67-.21-.82-.14-.15-.4-.23-.76-.23-.01,0-.03-.02-.05-.06-.02-.04-.03-.08-.03-.12,0-.05,0-.09.02-.12s.03-.05.06-.05c.65-.03,1.18-.17,1.58-.42.4-.25.71-.64.93-1.17.03-.05.08-.08.16-.08s.12.03.12.08v1.53c.74-.01,1.57-.07,2.48-.17.03,0,.05.05.09.14.03.1.05.2.05.32,0,.13-.02.25-.07.37-.04.12-.09.18-.14.16-.83-.18-1.63-.27-2.41-.29v4.53c0,.48.12.84.37,1.07.25.23.58.34.98.34.51,0,1.01-.19,1.49-.57l.04-.02Z" fill="#c0b68a"/>
    <path d="M151.03,32.6c.26.27.64.55,1.14.84.48.28.84.5,1.08.66.24.16.45.38.64.67.19.29.29.63.29,1.04,0,.43-.11.84-.33,1.22s-.54.69-.97.93c-.43.24-.95.35-1.55.35-.7,0-1.36-.17-1.99-.52-.08-.08-.12-.15-.12-.23l-.04-1.89s.04-.06.11-.07c.07,0,.11,0,.12.03.2.64.54,1.18,1.01,1.62s.95.67,1.43.67c.27,0,.48-.08.64-.25.16-.17.24-.41.24-.73,0-.47-.13-.84-.4-1.12-.27-.27-.66-.56-1.18-.85-.45-.24-.78-.44-1.01-.59-.23-.15-.43-.37-.61-.65-.18-.28-.27-.62-.27-1.03,0-.75.27-1.3.8-1.65s1.19-.53,1.97-.53c.29,0,.56.02.79.06.24.04.5.11.79.23.12.04.17.11.17.21,0,.32,0,.57-.02.75l-.02.96s-.04.06-.11.06-.11-.02-.11-.06c0-.24-.1-.51-.31-.79-.2-.29-.47-.53-.79-.74-.32-.2-.66-.31-1-.31-.52,0-.78.25-.78.75,0,.37.13.69.39.96Z" fill="#c0b68a"/>
  </g>
</svg>