<?xml version="1.0" encoding="UTF-8"?>
<svg id="_レイヤー_2" xmlns="http://www.w3.org/2000/svg" width="257.59" height="64.56" version="1.1" viewBox="0 0 257.59 64.56">
  <!-- Generator: Adobe Illustrator 29.4.0, SVG Export Plug-In . SVG Version: 2.1.0 Build 152)  -->
  <g>
    <rect x=".96" y=".97" width="255.67" height="62.63" rx="4.1" ry="4.1" fill="#212a37"/>
    <path d="M252.53,64.1H5.06c-2.54,0-4.6-2.06-4.6-4.6V5.07c0-2.54,2.06-4.6,4.6-4.6h247.47c2.54,0,4.6,2.06,4.6,4.6v54.43c0,2.54-2.06,4.6-4.6,4.6ZM5.06,1.47c-1.99,0-3.6,1.62-3.6,3.6v54.43c0,1.98,1.61,3.6,3.6,3.6h247.47c1.99,0,3.6-1.62,3.6-3.6V5.07c0-1.98-1.62-3.6-3.6-3.6,0,0-247.47,0-247.47,0Z" fill="#414e5b"/>
  </g>
  <g>
    <path d="M240.01,9.24c-.04-.14-.17-.21-.31-.21H60.94v.02H17.68c-.14,0-.26.09-.31.21-1.21,3.87-4.26,6.92-8.13,8.13-.14.04-.21.17-.21.31v29.22c0,.14.09.26.21.31,3.87,1.21,6.92,4.26,8.13,8.13.04.14.17.21.31.21h178.76v-.02h43.26c.14,0,.26-.09.31-.21,1.21-3.87,4.26-6.92,8.13-8.13.14-.04.21-.17.21-.31v-29.22c0-.14-.09-.26-.21-.31-3.87-1.21-6.92-4.26-8.13-8.13h0ZM247.74,46.67c-3.89,1.28-6.97,4.35-8.25,8.23H60.95v.02H17.92c-1.28-3.89-4.36-6.96-8.25-8.25v-28.78c3.89-1.28,6.97-4.35,8.25-8.23h178.53v-.02h43.04c1.28,3.89,4.36,6.96,8.25,8.25v28.78h0Z" fill="#c0b68a"/>
    <path d="M252.09,14.19c-.08-.08-.19-.12-.31-.12-2.34,0-4.45-.94-6-2.49s-2.49-3.64-2.49-6c0-.11-.04-.23-.12-.31s-.19-.12-.31-.12H14.51c-.11,0-.23.04-.31.12s-.12.19-.12.31c0,2.34-.94,4.45-2.49,6s-3.64,2.49-6,2.49c-.11,0-.23.04-.31.12s-.12.19-.12.31v35.58c0,.11.04.23.12.31s.19.12.31.12c2.34,0,4.45.94,6,2.49s2.49,3.64,2.49,6c0,.11.04.23.12.31s.19.12.31.12h228.37c.11,0,.23-.04.31-.12s.12-.19.12-.31c0-2.34.94-4.45,2.49-6s3.64-2.49,6-2.49c.11,0,.23-.04.31-.12s.12-.19.12-.31V14.49c0-.11-.04-.23-.12-.31h-.02,0ZM251.36,49.65c-2.41.11-4.58,1.13-6.16,2.73-1.6,1.59-2.63,3.76-2.73,6.16H14.93c-.11-2.41-1.13-4.58-2.73-6.16-1.59-1.59-3.76-2.61-6.16-2.73V14.92c2.41-.11,4.58-1.13,6.16-2.73,1.6-1.59,2.63-3.76,2.73-6.16h227.55c.11,2.41,1.13,4.58,2.73,6.16,1.59,1.59,3.76,2.61,6.16,2.73v34.72h-.01Z" fill="#c0b68a"/>
  </g>
  <g>
    <g>
      <circle cx="7.75" cy="8.15" r="1.98" fill="#c0b68a"/>
      <circle cx="7.75" cy="56.43" r="1.98" fill="#c0b68a"/>
    </g>
    <g>
      <circle cx="249.85" cy="8.15" r="1.98" fill="#c0b68a"/>
      <circle cx="249.85" cy="56.43" r="1.98" fill="#c0b68a"/>
    </g>
  </g>
  <g>
    <path d="M84.17,39.13c0,.08-.03.11-.08.11-.33,0-.59,0-.78-.02l-1.13-.02-1.15.02c-.19.01-.45.02-.78.02-.03,0-.04-.04-.04-.11s.01-.12.04-.12c.4,0,.67-.09.81-.28.15-.18.22-.53.22-1.04v-2.75c0-.69-.13-1.2-.38-1.53-.25-.33-.65-.5-1.19-.5-.31,0-.62.06-.94.18-.32.12-.6.29-.84.51v4.09c0,.51.07.86.21,1.04.14.19.41.28.8.28.05,0,.08.04.08.12s-.03.11-.08.11c-.33,0-.59,0-.78-.02l-1.13-.02-1.15.02c-.19.01-.45.02-.78.02-.03,0-.04-.04-.04-.11s.01-.12.04-.12c.39,0,.67-.09.81-.28.15-.18.22-.53.22-1.04v-9.63c0-.13-.03-.21-.09-.26-.06-.04-.16-.07-.32-.07h-3.15c-.37,0-.61.08-.74.24s-.18.46-.18.91v8.81c0,.39.04.68.11.86.08.18.22.3.44.36.22.06.56.1,1.03.1.04,0,.06.04.06.12s-.02.11-.06.11c-.46,0-.82,0-1.09-.02l-1.59-.02-1.55.02c-.27.01-.64.02-1.11.02-.04,0-.06-.04-.06-.11s.02-.12.06-.12c.46,0,.8-.03,1.02-.1.22-.06.38-.19.46-.37s.12-.47.12-.85v-8.85c0-.43-.06-.73-.17-.88-.11-.15-.35-.23-.71-.23-1.52,0-2.61.99-3.27,2.96-.01.04-.05.05-.11.05-.06,0-.1-.03-.1-.07.05-.51.11-1.17.17-1.98.06-.81.1-1.42.1-1.83,0-.06.03-.09.1-.09s.1.03.1.09c0,.28.36.42,1.09.42,1.1.04,2.38.06,3.84.06,1.95,0,3.19-.02,3.71-.06.78-.04,1.45-.24,2.02-.59.57-.36.99-.8,1.27-1.32.03-.04.08-.06.15-.06.14,0,.21.03.21.1v7.76c.41-.5.86-.88,1.35-1.15.49-.27,1.01-.4,1.56-.4.69,0,1.23.22,1.63.66.4.44.6,1.02.6,1.73v3.67c0,.51.07.86.21,1.04.14.19.41.28.8.28.05,0,.08.04.08.12Z" fill="#131f2b"/>
    <path d="M91.85,37.98s.05.03.09.08c.03.05.03.09,0,.11-.47.46-.95.79-1.43.99-.48.2-1.01.31-1.59.31-.8,0-1.5-.17-2.08-.51-.59-.34-1.03-.79-1.34-1.36-.31-.57-.46-1.18-.46-1.84,0-.74.18-1.42.55-2.04.37-.62.88-1.12,1.54-1.48s1.4-.54,2.23-.54,1.4.18,1.83.54c.43.36.65.91.65,1.66,0,.39-.07.59-.21.59l-4.64.02c-.01.09-.02.24-.02.44,0,1.12.26,2,.77,2.64.52.64,1.26.96,2.23.96.34,0,.64-.04.88-.12.24-.08.56-.22.96-.42l.04-.02ZM87.59,32.62c-.28.36-.47.86-.55,1.5l2.77-.04c-.01-.65-.11-1.15-.29-1.49s-.47-.52-.88-.52-.77.18-1.05.54Z" fill="#131f2b"/>
    <path d="M100.97,37.62c0,.33.03.57.08.72.05.15.15.25.3.3s.39.08.72.08h.65c.99,0,1.85-.26,2.58-.79.73-.53,1.21-1.25,1.45-2.15,0-.03.03-.04.08-.04.03,0,.05,0,.09.03.03.02.05.04.05.05-.11,1.26-.17,2.31-.17,3.15,0,.1-.02.18-.07.22-.04.04-.12.07-.22.07h-9.02s-.04-.04-.04-.11.01-.12.04-.12c.41,0,.7-.03.89-.1.18-.06.31-.19.38-.37.07-.18.1-.47.1-.85v-8.85c0-.38-.04-.66-.1-.84-.07-.18-.2-.3-.39-.37-.19-.07-.48-.1-.88-.1-.03,0-.04-.04-.04-.12s.01-.11.04-.11l.97.02c.59.03,1.07.04,1.45.04s.87-.01,1.45-.04l.97-.02s.06.04.06.11-.02.12-.06.12c-.4,0-.69.04-.88.1-.19.07-.32.2-.38.38-.06.18-.1.47-.1.85v8.75Z" fill="#131f2b"/>
    <path d="M108,39.13c0-.08.02-.12.06-.12.4,0,.66-.09.8-.28.14-.18.21-.53.21-1.04v-3.42c0-.43-.04-.75-.13-.94-.09-.19-.24-.29-.44-.29-.17,0-.4.07-.71.21h-.02c-.05,0-.09-.04-.11-.11-.03-.07-.02-.11.02-.12l2.89-1.34.06-.02c.06,0,.13.03.19.1.06.06.1.12.1.17v.42c-.03.51-.04,1.13-.04,1.87v3.46c0,.51.07.86.22,1.04.15.19.42.28.81.28.04,0,.06.04.06.12s-.02.11-.06.11c-.33,0-.59,0-.78-.02l-1.15-.02-1.13.02c-.19.01-.45.02-.78.02-.04,0-.06-.04-.06-.11ZM109.03,29.48c-.2-.2-.31-.49-.31-.86,0-.33.11-.59.32-.79.21-.2.49-.3.85-.3s.63.1.82.29c.19.19.29.46.29.8,0,.37-.1.66-.29.86s-.47.31-.82.31-.66-.1-.86-.31Z" fill="#131f2b"/>
    <path d="M118.96,38.6c.48.08.88.26,1.2.56s.49.75.49,1.37c0,.71-.22,1.39-.66,2.02-.44.63-1.03,1.14-1.78,1.52-.75.38-1.55.57-2.4.57s-1.6-.2-2.16-.6c-.56-.4-.84-.93-.84-1.58,0-.89.64-1.76,1.93-2.6-.92-.18-1.38-.64-1.38-1.38,0-.79.45-1.48,1.34-2.08-.48-.23-.86-.55-1.14-.96-.27-.41-.41-.85-.41-1.31,0-.51.17-.94.5-1.3.33-.36.75-.63,1.27-.81.52-.18,1.04-.28,1.58-.28.8,0,1.49.2,2.06.61.66-.45,1.35-.67,2.06-.67.1,0,.15.18.15.54,0,.19-.03.39-.08.6s-.1.3-.15.26c-.52-.22-.99-.33-1.41-.33h-.15c.34.41.52.87.52,1.38s-.17.96-.5,1.36c-.33.39-.75.7-1.27.91-.52.21-1.05.32-1.6.32-.4,0-.76-.06-1.09-.17-.2.22-.31.49-.31.82s.09.59.28.75c.18.15.43.25.74.29s.76.06,1.36.08c.75.01,1.37.06,1.84.13ZM118.51,43.41c.38-.41.57-.96.57-1.66,0-.55-.12-.95-.35-1.19-.24-.25-.54-.4-.92-.46-.38-.06-.92-.09-1.63-.11-.11,0-.27,0-.48-.02-.2-.01-.38-.03-.52-.04-.43.32-.65.83-.65,1.53,0,.82.24,1.45.72,1.89.48.45,1.05.67,1.71.67s1.17-.2,1.55-.61ZM115.01,33.55c0,.54.08,1.02.23,1.44.15.43.35.76.6,1s.51.36.79.36.52-.14.71-.42c.19-.28.29-.71.29-1.28s-.09-1.02-.27-1.4c-.18-.39-.4-.68-.68-.87-.27-.19-.54-.29-.81-.29-.57,0-.86.48-.86,1.45Z" fill="#131f2b"/>
    <path d="M130.42,39.13c0,.08-.03.11-.08.11-.33,0-.6,0-.8-.02l-1.11-.02-1.15.02c-.19.01-.45.02-.78.02-.03,0-.04-.04-.04-.11s.01-.12.04-.12c.39,0,.67-.09.81-.28.15-.18.22-.53.22-1.04v-2.75c0-.69-.13-1.2-.38-1.53-.25-.33-.65-.5-1.18-.5-.31,0-.62.06-.95.19-.32.13-.61.3-.85.52v4.07c0,.51.07.86.22,1.04.15.19.42.28.81.28.05,0,.08.04.08.12s-.03.11-.08.11c-.33,0-.6,0-.8-.02l-1.11-.02-1.15.02c-.19.01-.45.02-.78.02-.03,0-.04-.04-.04-.11s.01-.12.04-.12c.39,0,.67-.09.81-.28.15-.18.22-.53.22-1.04v-9.71c0-.45-.04-.76-.12-.96s-.23-.29-.43-.29c-.18,0-.42.07-.73.21h-.02s-.07-.04-.1-.11-.04-.11,0-.12l2.79-1.32.1-.02c.06,0,.13.03.2.09s.11.11.11.16v7.57c.9-1.04,1.87-1.57,2.9-1.57.69,0,1.23.22,1.63.66.4.44.6,1.02.6,1.73v3.67c0,.51.07.86.22,1.04.15.19.42.28.81.28.05,0,.08.04.08.12Z" fill="#131f2b"/>
    <path d="M136.88,37.91c.05,0,.09.03.12.08.03.05.03.09,0,.12-.47.47-.93.82-1.38,1.04s-.92.33-1.41.33c-.56,0-1.04-.13-1.43-.4-.39-.27-.59-.72-.59-1.36v-4.24c0-.39-.07-.67-.21-.82-.14-.15-.39-.23-.76-.23-.01,0-.03-.02-.05-.06-.02-.04-.03-.08-.03-.11,0-.05,0-.09.02-.12.01-.03.03-.05.06-.05.65-.03,1.17-.17,1.58-.42s.71-.64.93-1.17c.03-.05.08-.08.16-.08s.12.03.12.08v1.53c.74-.01,1.57-.07,2.48-.17.03,0,.05.05.09.14.03.1.05.2.05.32,0,.13-.02.25-.07.37-.04.12-.09.17-.14.16-.83-.18-1.63-.27-2.41-.29v4.53c0,.48.12.84.37,1.07.25.23.58.34.98.34.51,0,1.01-.19,1.49-.57l.04-.02Z" fill="#131f2b"/>
    <path d="M159.14,27.41c0,.08-.01.12-.04.12-.47,0-.92.2-1.33.6s-.75.95-1.02,1.65l-3.54,9.44c-.01.05-.08.08-.21.08s-.2-.03-.21-.08l-2.45-5.18-1.93,5.18c-.01.05-.08.08-.21.08s-.2-.03-.21-.08l-4.87-10.34c-.19-.41-.35-.7-.47-.88s-.25-.3-.4-.37c-.15-.07-.34-.1-.58-.1-.04,0-.06-.04-.06-.12s.02-.11.06-.11c.19,0,.32,0,.4.02.25.03.59.04.99.04.85,0,1.57-.01,2.16-.04.17-.01.37-.02.61-.02.04,0,.06.04.06.11s-.02.12-.06.12c-.32,0-.54.03-.68.1-.13.06-.2.18-.2.34,0,.22.15.64.44,1.26l3.44,7.3,1.2-3.15-2.12-4.49c-.22-.46-.42-.8-.61-1.02-.19-.22-.4-.33-.61-.33-.04,0-.06-.04-.06-.12s.02-.11.06-.11c.13,0,.28,0,.45.03.17.02.42.03.74.03.73,0,1.33-.01,1.82-.04.13-.01.29-.02.5-.02.04,0,.06.04.06.11s-.02.12-.06.12c-.18,0-.31.02-.39.07-.08.04-.12.12-.12.24,0,.22.17.68.52,1.4l.84,1.78.48-1.28c.28-.73.42-1.27.42-1.64s-.16-.55-.48-.55c-.04,0-.06-.04-.06-.12s.02-.11.06-.11c.1,0,.21,0,.33.03.12.02.42.03.91.03.22,0,.48-.01.78-.04l.71-.02s.04.04.04.11-.01.12-.04.12c-.85,0-1.56.75-2.12,2.25l-.71,1.89,2.29,4.83,2.47-6.59c.15-.41.23-.78.23-1.11,0-.39-.1-.71-.3-.94s-.46-.34-.79-.34c-.04,0-.06-.04-.06-.12s.02-.11.06-.11l.88.02c.46.03.88.04,1.26.04.25,0,.55-.01.88-.04l.82-.02s.04.04.04.11Z" fill="#131f2b"/>
    <path d="M159.12,39.13c0-.08.02-.12.06-.12.39,0,.66-.09.8-.28.14-.18.21-.53.21-1.04v-3.42c0-.43-.04-.75-.13-.94s-.24-.29-.44-.29c-.17,0-.4.07-.71.21h-.02c-.05,0-.09-.04-.11-.11-.03-.07-.02-.11.02-.12l2.89-1.34.06-.02c.06,0,.13.03.19.1.06.06.1.12.1.17v.42c-.03.51-.04,1.13-.04,1.87v3.46c0,.51.07.86.22,1.04.15.19.42.28.81.28.04,0,.06.04.06.12s-.02.11-.06.11c-.33,0-.59,0-.78-.02l-1.15-.02-1.13.02c-.19.01-.45.02-.78.02-.04,0-.06-.04-.06-.11ZM160.15,29.48c-.2-.2-.31-.49-.31-.86,0-.33.11-.59.32-.79.21-.2.49-.3.85-.3s.63.1.82.29.29.46.29.8c0,.37-.1.66-.29.86-.19.2-.46.31-.82.31s-.66-.1-.86-.31Z" fill="#131f2b"/>
    <path d="M169.65,37.91c.05,0,.09.03.12.08.03.05.03.09,0,.12-.47.47-.93.82-1.38,1.04-.45.22-.92.33-1.41.33-.56,0-1.04-.13-1.43-.4-.4-.27-.59-.72-.59-1.36v-4.24c0-.39-.07-.67-.21-.82-.14-.15-.4-.23-.76-.23-.01,0-.03-.02-.05-.06-.02-.04-.03-.08-.03-.11,0-.05,0-.09.02-.12.01-.03.03-.05.06-.05.65-.03,1.18-.17,1.58-.42s.71-.64.93-1.17c.03-.05.08-.08.16-.08s.12.03.12.08v1.53c.74-.01,1.57-.07,2.48-.17.03,0,.05.05.09.14.03.1.05.2.05.32,0,.13-.02.25-.07.37s-.09.17-.14.16c-.83-.18-1.63-.27-2.41-.29v4.53c0,.48.12.84.37,1.07.25.23.58.34.98.34.51,0,1.01-.19,1.49-.57l.04-.02Z" fill="#131f2b"/>
    <path d="M179.34,39.13c0,.08-.03.11-.08.11-.33,0-.6,0-.8-.02l-1.11-.02-1.15.02c-.19.01-.45.02-.78.02-.03,0-.04-.04-.04-.11s.01-.12.04-.12c.39,0,.67-.09.81-.28.15-.18.22-.53.22-1.04v-2.75c0-.69-.13-1.2-.38-1.53-.25-.33-.65-.5-1.18-.5-.31,0-.62.06-.95.19-.33.13-.61.3-.85.52v4.07c0,.51.07.86.22,1.04.15.19.42.28.81.28.05,0,.08.04.08.12s-.03.11-.08.11c-.33,0-.6,0-.8-.02l-1.11-.02-1.15.02c-.19.01-.45.02-.78.02-.03,0-.04-.04-.04-.11s.01-.12.04-.12c.39,0,.67-.09.81-.28.15-.18.22-.53.22-1.04v-9.71c0-.45-.04-.76-.12-.96s-.23-.29-.43-.29c-.18,0-.42.07-.73.21h-.02s-.07-.04-.1-.11c-.03-.07-.04-.11,0-.12l2.79-1.32.1-.02c.06,0,.13.03.2.09.07.06.11.11.11.16v7.57c.9-1.04,1.87-1.57,2.9-1.57.69,0,1.23.22,1.63.66.4.44.6,1.02.6,1.73v3.67c0,.51.07.86.22,1.04.15.19.42.28.81.28.05,0,.08.04.08.12Z" fill="#131f2b"/>
    <path d="M180.3,39.13c0-.08.02-.12.06-.12.39,0,.66-.09.8-.28.14-.18.21-.53.21-1.04v-3.42c0-.43-.04-.75-.13-.94-.09-.19-.24-.29-.44-.29-.17,0-.4.07-.71.21h-.02c-.05,0-.09-.04-.12-.11-.03-.07-.02-.11.02-.12l2.89-1.34.06-.02c.06,0,.13.03.19.1.06.06.1.12.1.17v.42c-.03.51-.04,1.13-.04,1.87v3.46c0,.51.07.86.22,1.04.15.19.42.28.81.28.04,0,.06.04.06.12s-.02.11-.06.11c-.33,0-.59,0-.78-.02l-1.15-.02-1.13.02c-.19.01-.45.02-.78.02-.04,0-.06-.04-.06-.11ZM181.33,29.48c-.2-.2-.31-.49-.31-.86,0-.33.11-.59.32-.79.21-.2.49-.3.85-.3s.63.1.82.29.29.46.29.8c0,.37-.1.66-.29.86-.19.2-.46.31-.82.31s-.66-.1-.86-.31Z" fill="#131f2b"/>
    <path d="M194.42,39.13c0,.08-.02.11-.06.11-.33,0-.59,0-.78-.02l-1.15-.02-1.11.02c-.2.01-.47.02-.8.02-.04,0-.06-.04-.06-.11s.02-.12.06-.12c.39,0,.66-.09.8-.28.14-.18.21-.53.21-1.04v-2.75c0-.69-.12-1.2-.37-1.53-.25-.33-.64-.5-1.17-.5-.31,0-.62.06-.95.19-.33.13-.61.3-.85.52v4.07c0,.51.07.86.22,1.04.15.19.42.28.81.28.04,0,.06.04.06.12s-.02.11-.06.11c-.33,0-.59,0-.78-.02l-1.15-.02-1.13.02c-.19.01-.45.02-.78.02-.04,0-.06-.04-.06-.11s.02-.12.06-.12c.39,0,.66-.09.8-.28.14-.18.21-.53.21-1.04v-3.59c0-.39-.05-.68-.14-.87-.1-.18-.25-.28-.45-.28-.22,0-.52.09-.92.27h-.04s-.07-.03-.09-.1c-.02-.06-.02-.1,0-.12l2.66-1.3c.08-.03.12-.04.13-.04.14,0,.27.14.4.41.13.27.2.65.23,1.12.88-1.04,1.85-1.57,2.91-1.57.69,0,1.23.22,1.63.66.4.44.6,1.02.6,1.73v3.67c0,.51.07.86.22,1.04.15.19.42.28.81.28.04,0,.06.04.06.12Z" fill="#131f2b"/>
  </g>
  <g>
    <path d="M83.17,38.13c0,.08-.03.11-.08.11-.33,0-.59,0-.78-.02l-1.13-.02-1.15.02c-.19.01-.45.02-.78.02-.03,0-.04-.04-.04-.11s.01-.12.04-.12c.4,0,.67-.09.81-.28.15-.18.22-.53.22-1.04v-2.75c0-.69-.13-1.2-.38-1.53-.25-.33-.65-.5-1.19-.5-.31,0-.62.06-.94.18-.32.12-.6.29-.84.51v4.09c0,.51.07.86.21,1.04.14.19.41.28.8.28.05,0,.08.04.08.12s-.03.11-.08.11c-.33,0-.59,0-.78-.02l-1.13-.02-1.15.02c-.19.01-.45.02-.78.02-.03,0-.04-.04-.04-.11s.01-.12.04-.12c.39,0,.67-.09.81-.28.15-.18.22-.53.22-1.04v-9.63c0-.13-.03-.21-.09-.26-.06-.04-.16-.07-.32-.07h-3.15c-.37,0-.61.08-.74.24s-.18.46-.18.91v8.81c0,.39.04.68.11.86.08.18.22.3.44.36.22.06.56.1,1.03.1.04,0,.06.04.06.12s-.02.11-.06.11c-.46,0-.82,0-1.09-.02l-1.59-.02-1.55.02c-.27.01-.64.02-1.11.02-.04,0-.06-.04-.06-.11s.02-.12.06-.12c.46,0,.8-.03,1.02-.1.22-.06.38-.19.46-.37s.12-.47.12-.85v-8.85c0-.43-.06-.73-.17-.88-.11-.15-.35-.23-.71-.23-1.52,0-2.61.99-3.27,2.96-.01.04-.05.05-.11.05-.06,0-.1-.03-.1-.07.05-.51.11-1.17.17-1.98.06-.81.1-1.42.1-1.83,0-.06.03-.09.1-.09s.1.03.1.09c0,.28.36.42,1.09.42,1.1.04,2.38.06,3.84.06,1.95,0,3.19-.02,3.71-.06.78-.04,1.45-.24,2.02-.59.57-.36.99-.8,1.27-1.32.03-.04.08-.06.15-.06.14,0,.21.03.21.1v7.76c.41-.5.86-.88,1.35-1.15.49-.27,1.01-.4,1.56-.4.69,0,1.23.22,1.63.66.4.44.6,1.02.6,1.73v3.67c0,.51.07.86.21,1.04.14.19.41.28.8.28.05,0,.08.04.08.12Z" fill="#c0b68a"/>
    <path d="M90.85,36.98s.05.03.09.08c.03.05.03.09,0,.11-.47.46-.95.79-1.43.99-.48.2-1.01.31-1.59.31-.8,0-1.5-.17-2.08-.51-.59-.34-1.03-.79-1.34-1.36-.31-.57-.46-1.18-.46-1.84,0-.74.18-1.42.55-2.04.37-.62.88-1.12,1.54-1.48s1.4-.54,2.23-.54,1.4.18,1.83.54c.43.36.65.91.65,1.66,0,.39-.07.59-.21.59l-4.64.02c-.01.09-.02.24-.02.44,0,1.12.26,2,.77,2.64.52.64,1.26.96,2.23.96.34,0,.64-.04.88-.12.24-.08.56-.22.96-.42l.04-.02ZM86.59,31.62c-.28.36-.47.86-.55,1.5l2.77-.04c-.01-.65-.11-1.15-.29-1.49s-.47-.52-.88-.52-.77.18-1.05.54Z" fill="#c0b68a"/>
    <path d="M99.97,36.62c0,.33.03.57.08.72.05.15.15.25.3.3s.39.08.72.08h.65c.99,0,1.85-.26,2.58-.79.73-.53,1.21-1.25,1.45-2.15,0-.03.03-.04.08-.04.03,0,.05,0,.09.03.03.02.05.04.05.05-.11,1.26-.17,2.31-.17,3.15,0,.1-.02.18-.07.22-.04.04-.12.07-.22.07h-9.02s-.04-.04-.04-.11.01-.12.04-.12c.41,0,.7-.03.89-.1.18-.06.31-.19.38-.37.07-.18.1-.47.1-.85v-8.85c0-.38-.04-.66-.1-.84-.07-.18-.2-.3-.39-.37-.19-.07-.48-.1-.88-.1-.03,0-.04-.04-.04-.12s.01-.11.04-.11l.97.02c.59.03,1.07.04,1.45.04s.87-.01,1.45-.04l.97-.02s.06.04.06.11-.02.12-.06.12c-.4,0-.69.04-.88.1-.19.07-.32.2-.38.38-.06.18-.1.47-.1.85v8.75Z" fill="#c0b68a"/>
    <path d="M107,38.13c0-.08.02-.12.06-.12.4,0,.66-.09.8-.28.14-.18.21-.53.21-1.04v-3.42c0-.43-.04-.75-.13-.94-.09-.19-.24-.29-.44-.29-.17,0-.4.07-.71.21h-.02c-.05,0-.09-.04-.11-.11-.03-.07-.02-.11.02-.12l2.89-1.34.06-.02c.06,0,.13.03.19.1.06.06.1.12.1.17v.42c-.03.51-.04,1.13-.04,1.87v3.46c0,.51.07.86.22,1.04.15.19.42.28.81.28.04,0,.06.04.06.12s-.02.11-.06.11c-.33,0-.59,0-.78-.02l-1.15-.02-1.13.02c-.19.01-.45.02-.78.02-.04,0-.06-.04-.06-.11ZM108.03,28.48c-.2-.2-.31-.49-.31-.86,0-.33.11-.59.32-.79.21-.2.49-.3.85-.3s.63.1.82.29c.19.19.29.46.29.8,0,.37-.1.66-.29.86s-.47.31-.82.31-.66-.1-.86-.31Z" fill="#c0b68a"/>
    <path d="M117.96,37.6c.48.08.88.26,1.2.56s.49.75.49,1.37c0,.71-.22,1.39-.66,2.02-.44.63-1.03,1.14-1.78,1.52-.75.38-1.55.57-2.4.57s-1.6-.2-2.16-.6c-.56-.4-.84-.93-.84-1.58,0-.89.64-1.76,1.93-2.6-.92-.18-1.38-.64-1.38-1.38,0-.79.45-1.48,1.34-2.08-.48-.23-.86-.55-1.14-.96-.27-.41-.41-.85-.41-1.31,0-.51.17-.94.5-1.3.33-.36.75-.63,1.27-.81.52-.18,1.04-.28,1.58-.28.8,0,1.49.2,2.06.61.66-.45,1.35-.67,2.06-.67.1,0,.15.18.15.54,0,.19-.03.39-.08.6s-.1.3-.15.26c-.52-.22-.99-.33-1.41-.33h-.15c.34.41.52.87.52,1.38s-.17.96-.5,1.36c-.33.39-.75.7-1.27.91-.52.21-1.05.32-1.6.32-.4,0-.76-.06-1.09-.17-.2.22-.31.49-.31.82s.09.59.28.75c.18.15.43.25.74.29s.76.06,1.36.08c.75.01,1.37.06,1.84.13ZM117.51,42.41c.38-.41.57-.96.57-1.66,0-.55-.12-.95-.35-1.19-.24-.25-.54-.4-.92-.46-.38-.06-.92-.09-1.63-.11-.11,0-.27,0-.48-.02-.2-.01-.38-.03-.52-.04-.43.32-.65.83-.65,1.53,0,.82.24,1.45.72,1.89.48.45,1.05.67,1.71.67s1.17-.2,1.55-.61ZM114.01,32.55c0,.54.08,1.02.23,1.44.15.43.35.76.6,1s.51.36.79.36.52-.14.71-.42c.19-.28.29-.71.29-1.28s-.09-1.02-.27-1.4c-.18-.39-.4-.68-.68-.87-.27-.19-.54-.29-.81-.29-.57,0-.86.48-.86,1.45Z" fill="#c0b68a"/>
    <path d="M129.42,38.13c0,.08-.03.11-.08.11-.33,0-.6,0-.8-.02l-1.11-.02-1.15.02c-.19.01-.45.02-.78.02-.03,0-.04-.04-.04-.11s.01-.12.04-.12c.39,0,.67-.09.81-.28.15-.18.22-.53.22-1.04v-2.75c0-.69-.13-1.2-.38-1.53-.25-.33-.65-.5-1.18-.5-.31,0-.62.06-.95.19-.32.13-.61.3-.85.52v4.07c0,.51.07.86.22,1.04.15.19.42.28.81.28.05,0,.08.04.08.12s-.03.11-.08.11c-.33,0-.6,0-.8-.02l-1.11-.02-1.15.02c-.19.01-.45.02-.78.02-.03,0-.04-.04-.04-.11s.01-.12.04-.12c.39,0,.67-.09.81-.28.15-.18.22-.53.22-1.04v-9.71c0-.45-.04-.76-.12-.96s-.23-.29-.43-.29c-.18,0-.42.07-.73.21h-.02s-.07-.04-.1-.11-.04-.11,0-.12l2.79-1.32.1-.02c.06,0,.13.03.2.09s.11.11.11.16v7.57c.9-1.04,1.87-1.57,2.9-1.57.69,0,1.23.22,1.63.66.4.44.6,1.02.6,1.73v3.67c0,.51.07.86.22,1.04.15.19.42.28.81.28.05,0,.08.04.08.12Z" fill="#c0b68a"/>
    <path d="M135.88,36.91c.05,0,.09.03.12.08.03.05.03.09,0,.12-.47.47-.93.82-1.38,1.04s-.92.33-1.41.33c-.56,0-1.04-.13-1.43-.4-.39-.27-.59-.72-.59-1.36v-4.24c0-.39-.07-.67-.21-.82-.14-.15-.39-.23-.76-.23-.01,0-.03-.02-.05-.06-.02-.04-.03-.08-.03-.11,0-.05,0-.09.02-.12.01-.03.03-.05.06-.05.65-.03,1.17-.17,1.58-.42s.71-.64.93-1.17c.03-.05.08-.08.16-.08s.12.03.12.08v1.53c.74-.01,1.57-.07,2.48-.17.03,0,.05.05.09.14.03.1.05.2.05.32,0,.13-.02.25-.07.37-.04.12-.09.17-.14.16-.83-.18-1.63-.27-2.41-.29v4.53c0,.48.12.84.37,1.07.25.23.58.34.98.34.51,0,1.01-.19,1.49-.57l.04-.02Z" fill="#c0b68a"/>
    <path d="M158.14,26.41c0,.08-.01.12-.04.12-.47,0-.92.2-1.33.6s-.75.95-1.02,1.65l-3.54,9.44c-.01.05-.08.08-.21.08s-.2-.03-.21-.08l-2.45-5.18-1.93,5.18c-.01.05-.08.08-.21.08s-.2-.03-.21-.08l-4.87-10.34c-.19-.41-.35-.7-.47-.88s-.25-.3-.4-.37c-.15-.07-.34-.1-.58-.1-.04,0-.06-.04-.06-.12s.02-.11.06-.11c.19,0,.32,0,.4.02.25.03.59.04.99.04.85,0,1.57-.01,2.16-.04.17-.01.37-.02.61-.02.04,0,.06.04.06.11s-.02.12-.06.12c-.32,0-.54.03-.68.1-.13.06-.2.18-.2.34,0,.22.15.64.44,1.26l3.44,7.3,1.2-3.15-2.12-4.49c-.22-.46-.42-.8-.61-1.02-.19-.22-.4-.33-.61-.33-.04,0-.06-.04-.06-.12s.02-.11.06-.11c.13,0,.28,0,.45.03.17.02.42.03.74.03.73,0,1.33-.01,1.82-.04.13-.01.29-.02.5-.02.04,0,.06.04.06.11s-.02.12-.06.12c-.18,0-.31.02-.39.07-.08.04-.12.12-.12.24,0,.22.17.68.52,1.4l.84,1.78.48-1.28c.28-.73.42-1.27.42-1.64s-.16-.55-.48-.55c-.04,0-.06-.04-.06-.12s.02-.11.06-.11c.1,0,.21,0,.33.03.12.02.42.03.91.03.22,0,.48-.01.78-.04l.71-.02s.04.04.04.11-.01.12-.04.12c-.85,0-1.56.75-2.12,2.25l-.71,1.89,2.29,4.83,2.47-6.59c.15-.41.23-.78.23-1.11,0-.39-.1-.71-.3-.94s-.46-.34-.79-.34c-.04,0-.06-.04-.06-.12s.02-.11.06-.11l.88.02c.46.03.88.04,1.26.04.25,0,.55-.01.88-.04l.82-.02s.04.04.04.11Z" fill="#c0b68a"/>
    <path d="M158.12,38.13c0-.08.02-.12.06-.12.39,0,.66-.09.8-.28.14-.18.21-.53.21-1.04v-3.42c0-.43-.04-.75-.13-.94s-.24-.29-.44-.29c-.17,0-.4.07-.71.21h-.02c-.05,0-.09-.04-.11-.11-.03-.07-.02-.11.02-.12l2.89-1.34.06-.02c.06,0,.13.03.19.1.06.06.1.12.1.17v.42c-.03.51-.04,1.13-.04,1.87v3.46c0,.51.07.86.22,1.04.15.19.42.28.81.28.04,0,.06.04.06.12s-.02.11-.06.11c-.33,0-.59,0-.78-.02l-1.15-.02-1.13.02c-.19.01-.45.02-.78.02-.04,0-.06-.04-.06-.11ZM159.15,28.48c-.2-.2-.31-.49-.31-.86,0-.33.11-.59.32-.79.21-.2.49-.3.85-.3s.63.1.82.29.29.46.29.8c0,.37-.1.66-.29.86-.19.2-.46.31-.82.31s-.66-.1-.86-.31Z" fill="#c0b68a"/>
    <path d="M168.65,36.91c.05,0,.09.03.12.08.03.05.03.09,0,.12-.47.47-.93.82-1.38,1.04-.45.22-.92.33-1.41.33-.56,0-1.04-.13-1.43-.4-.4-.27-.59-.72-.59-1.36v-4.24c0-.39-.07-.67-.21-.82-.14-.15-.4-.23-.76-.23-.01,0-.03-.02-.05-.06-.02-.04-.03-.08-.03-.11,0-.05,0-.09.02-.12.01-.03.03-.05.06-.05.65-.03,1.18-.17,1.58-.42s.71-.64.93-1.17c.03-.05.08-.08.16-.08s.12.03.12.08v1.53c.74-.01,1.57-.07,2.48-.17.03,0,.05.05.09.14.03.1.05.2.05.32,0,.13-.02.25-.07.37s-.09.17-.14.16c-.83-.18-1.63-.27-2.41-.29v4.53c0,.48.12.84.37,1.07.25.23.58.34.98.34.51,0,1.01-.19,1.49-.57l.04-.02Z" fill="#c0b68a"/>
    <path d="M178.34,38.13c0,.08-.03.11-.08.11-.33,0-.6,0-.8-.02l-1.11-.02-1.15.02c-.19.01-.45.02-.78.02-.03,0-.04-.04-.04-.11s.01-.12.04-.12c.39,0,.67-.09.81-.28.15-.18.22-.53.22-1.04v-2.75c0-.69-.13-1.2-.38-1.53-.25-.33-.65-.5-1.18-.5-.31,0-.62.06-.95.19-.33.13-.61.3-.85.52v4.07c0,.51.07.86.22,1.04.15.19.42.28.81.28.05,0,.08.04.08.12s-.03.11-.08.11c-.33,0-.6,0-.8-.02l-1.11-.02-1.15.02c-.19.01-.45.02-.78.02-.03,0-.04-.04-.04-.11s.01-.12.04-.12c.39,0,.67-.09.81-.28.15-.18.22-.53.22-1.04v-9.71c0-.45-.04-.76-.12-.96s-.23-.29-.43-.29c-.18,0-.42.07-.73.21h-.02s-.07-.04-.1-.11c-.03-.07-.04-.11,0-.12l2.79-1.32.1-.02c.06,0,.13.03.2.09.07.06.11.11.11.16v7.57c.9-1.04,1.87-1.57,2.9-1.57.69,0,1.23.22,1.63.66.4.44.6,1.02.6,1.73v3.67c0,.51.07.86.22,1.04.15.19.42.28.81.28.05,0,.08.04.08.12Z" fill="#c0b68a"/>
    <path d="M179.3,38.13c0-.08.02-.12.06-.12.39,0,.66-.09.8-.28.14-.18.21-.53.21-1.04v-3.42c0-.43-.04-.75-.13-.94-.09-.19-.24-.29-.44-.29-.17,0-.4.07-.71.21h-.02c-.05,0-.09-.04-.12-.11-.03-.07-.02-.11.02-.12l2.89-1.34.06-.02c.06,0,.13.03.19.1.06.06.1.12.1.17v.42c-.03.51-.04,1.13-.04,1.87v3.46c0,.51.07.86.22,1.04.15.19.42.28.81.28.04,0,.06.04.06.12s-.02.11-.06.11c-.33,0-.59,0-.78-.02l-1.15-.02-1.13.02c-.19.01-.45.02-.78.02-.04,0-.06-.04-.06-.11ZM180.33,28.48c-.2-.2-.31-.49-.31-.86,0-.33.11-.59.32-.79.21-.2.49-.3.85-.3s.63.1.82.29.29.46.29.8c0,.37-.1.66-.29.86-.19.2-.46.31-.82.31s-.66-.1-.86-.31Z" fill="#c0b68a"/>
    <path d="M193.42,38.13c0,.08-.02.11-.06.11-.33,0-.59,0-.78-.02l-1.15-.02-1.11.02c-.2.01-.47.02-.8.02-.04,0-.06-.04-.06-.11s.02-.12.06-.12c.39,0,.66-.09.8-.28.14-.18.21-.53.21-1.04v-2.75c0-.69-.12-1.2-.37-1.53-.25-.33-.64-.5-1.17-.5-.31,0-.62.06-.95.19-.33.13-.61.3-.85.52v4.07c0,.51.07.86.22,1.04.15.19.42.28.81.28.04,0,.06.04.06.12s-.02.11-.06.11c-.33,0-.59,0-.78-.02l-1.15-.02-1.13.02c-.19.01-.45.02-.78.02-.04,0-.06-.04-.06-.11s.02-.12.06-.12c.39,0,.66-.09.8-.28.14-.18.21-.53.21-1.04v-3.59c0-.39-.05-.68-.14-.87-.1-.18-.25-.28-.45-.28-.22,0-.52.09-.92.27h-.04s-.07-.03-.09-.1c-.02-.06-.02-.1,0-.12l2.66-1.3c.08-.03.12-.04.13-.04.14,0,.27.14.4.41.13.27.2.65.23,1.12.88-1.04,1.85-1.57,2.91-1.57.69,0,1.23.22,1.63.66.4.44.6,1.02.6,1.73v3.67c0,.51.07.86.22,1.04.15.19.42.28.81.28.04,0,.06.04.06.12Z" fill="#c0b68a"/>
  </g>
</svg>