<?xml version="1.0" encoding="UTF-8"?>
<svg id="_レイヤー_2" xmlns="http://www.w3.org/2000/svg" width="257.59" height="64.56" version="1.1" viewBox="0 0 257.59 64.56">
  <!-- Generator: Adobe Illustrator 29.4.0, SVG Export Plug-In . SVG Version: 2.1.0 Build 152)  -->
  <g>
    <rect x=".96" y=".97" width="255.67" height="62.63" rx="4.1" ry="4.1" fill="#212a37"/>
    <path d="M252.53,64.1H5.06c-2.54,0-4.6-2.06-4.6-4.6V5.07c0-2.54,2.06-4.6,4.6-4.6h247.47c2.54,0,4.6,2.06,4.6,4.6v54.43c0,2.54-2.06,4.6-4.6,4.6ZM5.06,1.47c-1.99,0-3.6,1.62-3.6,3.6v54.43c0,1.98,1.61,3.6,3.6,3.6h247.47c1.99,0,3.6-1.62,3.6-3.6V5.07c0-1.98-1.62-3.6-3.6-3.6,0,0-247.47,0-247.47,0Z" fill="#414e5b"/>
  </g>
  <g>
    <path d="M240.01,9.24c-.04-.14-.17-.21-.31-.21H60.94v.02H17.68c-.14,0-.26.09-.31.21-1.21,3.87-4.26,6.92-8.13,8.13-.14.04-.21.17-.21.31v29.22c0,.14.09.26.21.31,3.87,1.21,6.92,4.26,8.13,8.13.04.14.17.21.31.21h178.76v-.02h43.26c.14,0,.26-.09.31-.21,1.21-3.87,4.26-6.92,8.13-8.13.14-.04.21-.17.21-.31v-29.22c0-.14-.09-.26-.21-.31-3.87-1.21-6.92-4.26-8.13-8.13h0ZM247.74,46.67c-3.89,1.28-6.97,4.35-8.25,8.23H60.95v.02H17.92c-1.28-3.89-4.36-6.96-8.25-8.25v-28.78c3.89-1.28,6.97-4.35,8.25-8.23h178.53v-.02h43.04c1.28,3.89,4.36,6.96,8.25,8.25v28.78h0Z" fill="#c0b68a"/>
    <path d="M252.09,14.19c-.08-.08-.19-.12-.31-.12-2.34,0-4.45-.94-6-2.49s-2.49-3.64-2.49-6c0-.11-.04-.23-.12-.31s-.19-.12-.31-.12H14.51c-.11,0-.23.04-.31.12s-.12.19-.12.31c0,2.34-.94,4.45-2.49,6s-3.64,2.49-6,2.49c-.11,0-.23.04-.31.12s-.12.19-.12.31v35.58c0,.11.04.23.12.31s.19.12.31.12c2.34,0,4.45.94,6,2.49s2.49,3.64,2.49,6c0,.11.04.23.12.31s.19.12.31.12h228.37c.11,0,.23-.04.31-.12s.12-.19.12-.31c0-2.34.94-4.45,2.49-6s3.64-2.49,6-2.49c.11,0,.23-.04.31-.12s.12-.19.12-.31V14.49c0-.11-.04-.23-.12-.31h-.02,0ZM251.36,49.65c-2.41.11-4.58,1.13-6.16,2.73-1.6,1.59-2.63,3.76-2.73,6.16H14.93c-.11-2.41-1.13-4.58-2.73-6.16-1.59-1.59-3.76-2.61-6.16-2.73V14.92c2.41-.11,4.58-1.13,6.16-2.73,1.6-1.59,2.63-3.76,2.73-6.16h227.55c.11,2.41,1.13,4.58,2.73,6.16,1.59,1.59,3.76,2.61,6.16,2.73v34.72h-.01Z" fill="#c0b68a"/>
  </g>
  <g>
    <g>
      <circle cx="7.75" cy="8.15" r="1.98" fill="#c0b68a"/>
      <circle cx="7.75" cy="56.43" r="1.98" fill="#c0b68a"/>
    </g>
    <g>
      <circle cx="249.85" cy="8.15" r="1.98" fill="#c0b68a"/>
      <circle cx="249.85" cy="56.43" r="1.98" fill="#c0b68a"/>
    </g>
  </g>
  <g>
    <path d="M82.41,39.13c0,.08-.03.11-.08.11-.33,0-.59,0-.78-.02l-1.13-.02-1.15.02c-.19.01-.45.02-.78.02-.03,0-.04-.04-.04-.11s.01-.12.04-.12c.4,0,.67-.09.81-.28.15-.18.22-.53.22-1.04v-2.75c0-.69-.13-1.2-.38-1.53s-.65-.5-1.19-.5c-.31,0-.62.06-.94.18s-.6.29-.84.51v4.09c0,.51.07.86.21,1.04.14.19.41.28.8.28.05,0,.08.04.08.12s-.03.11-.08.11c-.33,0-.59,0-.78-.02l-1.13-.02-1.15.02c-.19.01-.45.02-.78.02-.03,0-.04-.04-.04-.11s.01-.12.04-.12c.39,0,.67-.09.81-.28.15-.18.22-.53.22-1.04v-9.63c0-.13-.03-.21-.09-.26s-.16-.07-.32-.07h-3.15c-.37,0-.61.08-.74.24s-.18.46-.18.91v8.81c0,.39.04.68.11.86.08.18.22.3.44.36.22.06.56.1,1.03.1.04,0,.06.04.06.12s-.02.11-.06.11c-.46,0-.82,0-1.09-.02l-1.59-.02-1.55.02c-.27.01-.64.02-1.11.02-.04,0-.06-.04-.06-.11s.02-.12.06-.12c.46,0,.8-.03,1.02-.1.22-.06.38-.19.46-.37s.12-.47.12-.85v-8.85c0-.43-.06-.73-.17-.88-.11-.15-.35-.23-.71-.23-1.52,0-2.61.99-3.27,2.96-.01.04-.05.05-.11.05s-.1-.03-.1-.07c.05-.51.11-1.17.17-1.98.06-.81.1-1.42.1-1.83,0-.06.03-.1.1-.1s.1.03.1.1c0,.28.36.42,1.09.42,1.1.04,2.38.06,3.84.06,1.95,0,3.19-.02,3.71-.06.78-.04,1.45-.24,2.02-.59.57-.36.99-.8,1.27-1.32.03-.04.08-.06.15-.06.14,0,.21.03.21.1v7.76c.41-.5.86-.88,1.35-1.15.49-.27,1.01-.4,1.56-.4.69,0,1.23.22,1.63.66s.6,1.02.6,1.73v3.67c0,.51.07.86.21,1.04.14.19.41.28.8.28.05,0,.08.04.08.12Z" fill="#131f2b"/>
    <path d="M90.09,37.98s.05.03.09.08c.03.05.03.09,0,.11-.47.46-.95.79-1.43.99-.48.2-1.01.31-1.59.31-.8,0-1.5-.17-2.08-.51-.59-.34-1.03-.79-1.34-1.36-.31-.57-.46-1.18-.46-1.84,0-.74.18-1.42.55-2.04.37-.62.88-1.12,1.54-1.48s1.4-.54,2.23-.54,1.4.18,1.83.54c.43.36.65.91.65,1.66,0,.4-.07.59-.21.59l-4.64.02c-.01.09-.02.24-.02.44,0,1.12.26,2,.77,2.64.52.64,1.26.96,2.23.96.34,0,.64-.04.88-.12.24-.08.56-.22.96-.42l.04-.02ZM85.83,32.62c-.28.36-.47.86-.55,1.5l2.77-.04c-.01-.65-.11-1.15-.29-1.49-.18-.34-.47-.52-.88-.52s-.77.18-1.05.54Z" fill="#131f2b"/>
    <path d="M109.46,42.74c.02.06.02.1,0,.12-.52.15-1.04.23-1.55.23-.98,0-1.99-.32-3.04-.96-1.04-.64-1.94-1.52-2.69-2.66h-.04c-1.18,0-2.24-.28-3.16-.83-.92-.55-1.64-1.31-2.14-2.26-.5-.95-.75-1.98-.75-3.11,0-1.31.33-2.44.99-3.37s1.51-1.64,2.55-2.11c1.04-.47,2.1-.71,3.18-.71,1.21,0,2.27.28,3.19.85.92.57,1.62,1.32,2.11,2.25.49.93.74,1.92.74,2.96,0,1.34-.4,2.54-1.19,3.61s-1.83,1.83-3.11,2.29c.5,1.07,1.14,1.95,1.92,2.63.78.68,1.53,1.02,2.25,1.02.22,0,.44-.01.67-.04.04-.01.07.01.09.08ZM98.99,35.89c.38.98.89,1.74,1.55,2.28s1.4.82,2.23.82c.71,0,1.35-.21,1.92-.62.57-.41,1.01-1.02,1.33-1.82.32-.8.48-1.75.48-2.86,0-1.17-.18-2.22-.54-3.14-.36-.92-.87-1.65-1.55-2.17s-1.47-.78-2.37-.78c-1.16,0-2.05.44-2.68,1.31-.62.87-.94,2.09-.94,3.66,0,1.24.19,2.34.56,3.32Z" fill="#131f2b"/>
    <path d="M119.31,38s.07.03.1.1.03.1,0,.11l-2.64,1.28s-.06.02-.1.02c-.13,0-.24-.14-.33-.41-.1-.27-.15-.65-.16-1.12-.84.99-1.75,1.49-2.73,1.49-.7,0-1.25-.22-1.65-.66s-.6-1.02-.6-1.73v-2.81c0-.83-.2-1.24-.59-1.24-.14,0-.3.04-.48.13h-.02c-.05,0-.09-.03-.11-.1-.03-.07-.02-.11.02-.12l2.56-1.22.1-.02c.06,0,.13.03.2.09.07.06.1.11.1.16v4.22c0,1.38.53,2.06,1.59,2.06.28,0,.56-.06.85-.18s.54-.29.77-.51v-3.27c0-.83-.2-1.24-.59-1.24-.14,0-.31.04-.5.13h-.02s-.07-.03-.1-.1-.02-.11.02-.12l2.56-1.22s.06-.02.1-.02c.06,0,.13.03.2.09.07.06.1.11.1.16v5.08c0,.43.04.74.12.92.08.18.22.27.41.27.18,0,.44-.07.78-.21h.04Z" fill="#131f2b"/>
    <path d="M120.12,39.13c0-.08.02-.12.06-.12.4,0,.66-.09.8-.28.14-.18.21-.53.21-1.04v-3.42c0-.43-.04-.75-.13-.94-.09-.19-.24-.29-.44-.29-.17,0-.4.07-.71.21h-.02c-.05,0-.09-.03-.11-.1-.03-.07-.02-.11.02-.12l2.89-1.34.06-.02c.06,0,.13.03.19.1.06.06.1.12.1.17v.42c-.03.51-.04,1.13-.04,1.87v3.46c0,.51.07.86.22,1.04.15.19.42.28.81.28.04,0,.06.04.06.12s-.02.11-.06.11c-.33,0-.59,0-.78-.02l-1.15-.02-1.13.02c-.19.01-.45.02-.78.02-.04,0-.06-.04-.06-.11ZM121.15,29.48c-.2-.2-.31-.49-.31-.86,0-.33.11-.6.32-.79.21-.2.49-.3.85-.3s.63.1.82.29.29.46.29.8c0,.37-.1.66-.29.86-.19.2-.47.31-.82.31s-.66-.1-.86-.31Z" fill="#131f2b"/>
    <path d="M131.87,37.98s.05.03.09.08c.03.05.03.09,0,.11-.47.46-.95.79-1.43.99-.48.2-1.01.31-1.59.31-.8,0-1.5-.17-2.08-.51-.59-.34-1.03-.79-1.34-1.36-.31-.57-.46-1.18-.46-1.84,0-.74.18-1.42.55-2.04.37-.62.88-1.12,1.54-1.48s1.4-.54,2.23-.54,1.4.18,1.83.54c.43.36.65.91.65,1.66,0,.4-.07.59-.21.59l-4.64.02c-.01.09-.02.24-.02.44,0,1.12.26,2,.77,2.64.52.64,1.26.96,2.23.96.34,0,.64-.04.88-.12.24-.08.56-.22.96-.42l.04-.02ZM127.61,32.62c-.28.36-.47.86-.55,1.5l2.77-.04c-.01-.65-.11-1.15-.29-1.49-.18-.34-.47-.52-.88-.52s-.77.18-1.05.54Z" fill="#131f2b"/>
    <path d="M138.63,37.91c.05,0,.09.03.12.08.03.05.03.09,0,.12-.47.47-.93.82-1.38,1.04-.45.22-.92.33-1.41.33-.56,0-1.04-.13-1.43-.4-.4-.27-.59-.72-.59-1.36v-4.24c0-.4-.07-.67-.21-.82-.14-.15-.4-.23-.76-.23-.01,0-.03-.02-.05-.06-.02-.04-.03-.08-.03-.12,0-.05,0-.09.02-.12s.03-.05.06-.05c.65-.03,1.18-.17,1.58-.42.4-.25.71-.64.93-1.17.03-.05.08-.08.16-.08s.12.03.12.08v1.53c.74-.01,1.57-.07,2.48-.17.03,0,.05.05.09.14.03.1.05.2.05.32,0,.13-.02.25-.07.37-.04.12-.09.18-.14.16-.83-.18-1.63-.27-2.41-.29v4.53c0,.48.12.84.37,1.07.25.23.58.34.98.34.51,0,1.01-.19,1.49-.57l.04-.02Z" fill="#131f2b"/>
    <path d="M160.9,27.41c0,.08-.01.11-.04.11-.47,0-.91.2-1.33.6s-.75.95-1.02,1.65l-3.54,9.44c-.01.05-.08.08-.21.08s-.2-.03-.21-.08l-2.45-5.18-1.93,5.18c-.01.05-.08.08-.21.08s-.2-.03-.21-.08l-4.87-10.34c-.19-.41-.35-.7-.47-.88-.12-.18-.25-.3-.4-.37s-.34-.11-.58-.11c-.04,0-.06-.04-.06-.11s.02-.12.06-.12c.19,0,.33,0,.4.02.25.03.59.04.99.04.85,0,1.57-.01,2.16-.04.17-.01.37-.02.61-.02.04,0,.06.04.06.12s-.02.11-.06.11c-.32,0-.54.03-.68.1-.13.06-.2.18-.2.34,0,.22.15.64.44,1.26l3.44,7.3,1.2-3.15-2.12-4.49c-.22-.46-.42-.8-.61-1.02-.19-.22-.39-.33-.61-.33-.04,0-.06-.04-.06-.11s.02-.12.06-.12c.13,0,.28,0,.45.03.17.02.42.03.74.03.73,0,1.33-.01,1.82-.04.13-.01.29-.02.5-.02.04,0,.06.04.06.12s-.02.11-.06.11c-.18,0-.31.02-.39.07s-.12.12-.12.24c0,.22.17.68.52,1.4l.84,1.78.48-1.28c.28-.73.42-1.27.42-1.64s-.16-.55-.48-.55c-.04,0-.06-.04-.06-.11s.02-.12.06-.12c.1,0,.21,0,.33.03.12.02.42.03.91.03.22,0,.48-.01.78-.04l.71-.02s.04.04.04.12-.01.11-.04.11c-.85,0-1.56.75-2.12,2.26l-.71,1.89,2.29,4.83,2.46-6.59c.15-.41.23-.78.23-1.11,0-.39-.1-.71-.3-.94-.2-.23-.46-.34-.79-.34-.04,0-.06-.04-.06-.11s.02-.12.06-.12l.88.02c.46.03.88.04,1.26.04.25,0,.55-.01.88-.04l.82-.02s.04.04.04.12Z" fill="#131f2b"/>
    <path d="M160.88,39.13c0-.08.02-.12.06-.12.4,0,.66-.09.8-.28.14-.18.21-.53.21-1.04v-3.42c0-.43-.04-.75-.13-.94-.09-.19-.24-.29-.44-.29-.17,0-.4.07-.71.21h-.02c-.05,0-.09-.03-.11-.1-.03-.07-.02-.11.02-.12l2.89-1.34.06-.02c.06,0,.13.03.19.1.06.06.09.12.09.17v.42c-.03.51-.04,1.13-.04,1.87v3.46c0,.51.07.86.22,1.04.15.19.42.28.81.28.04,0,.06.04.06.12s-.02.11-.06.11c-.33,0-.59,0-.78-.02l-1.15-.02-1.13.02c-.19.01-.45.02-.78.02-.04,0-.06-.04-.06-.11ZM161.91,29.48c-.2-.2-.31-.49-.31-.86,0-.33.11-.6.32-.79.21-.2.49-.3.85-.3s.63.1.82.29c.19.19.29.46.29.8,0,.37-.1.66-.29.86-.19.2-.47.31-.82.31s-.66-.1-.86-.31Z" fill="#131f2b"/>
    <path d="M171.41,37.91c.05,0,.09.03.12.08.03.05.03.09,0,.12-.47.47-.93.82-1.38,1.04s-.92.33-1.41.33c-.56,0-1.04-.13-1.43-.4-.39-.27-.59-.72-.59-1.36v-4.24c0-.4-.07-.67-.21-.82-.14-.15-.39-.23-.76-.23-.01,0-.03-.02-.05-.06-.02-.04-.03-.08-.03-.12,0-.05,0-.09.02-.12s.03-.05.06-.05c.65-.03,1.17-.17,1.58-.42.4-.25.71-.64.93-1.17.03-.05.08-.08.16-.08s.12.03.12.08v1.53c.74-.01,1.57-.07,2.48-.17.03,0,.05.05.09.14.03.1.05.2.05.32,0,.13-.02.25-.07.37-.04.12-.09.18-.14.16-.83-.18-1.63-.27-2.41-.29v4.53c0,.48.12.84.37,1.07.25.23.58.34.98.34.51,0,1.01-.19,1.49-.57l.04-.02Z" fill="#131f2b"/>
    <path d="M181.1,39.13c0,.08-.03.11-.08.11-.33,0-.6,0-.8-.02l-1.11-.02-1.15.02c-.19.01-.45.02-.78.02-.03,0-.04-.04-.04-.11s.01-.12.04-.12c.4,0,.67-.09.81-.28.15-.18.22-.53.22-1.04v-2.75c0-.69-.13-1.2-.38-1.53s-.65-.5-1.19-.5c-.31,0-.62.06-.95.19-.33.13-.61.3-.85.52v4.07c0,.51.07.86.22,1.04.15.19.42.28.81.28.05,0,.08.04.08.12s-.03.11-.08.11c-.33,0-.6,0-.8-.02l-1.11-.02-1.15.02c-.19.01-.45.02-.78.02-.03,0-.04-.04-.04-.11s.01-.12.04-.12c.39,0,.67-.09.81-.28.15-.18.22-.53.22-1.04v-9.71c0-.45-.04-.76-.12-.96-.08-.19-.23-.29-.43-.29-.18,0-.42.07-.73.21h-.02s-.07-.04-.11-.1c-.03-.07-.04-.11,0-.12l2.79-1.32.09-.02c.06,0,.13.03.2.09.07.06.11.11.11.16v7.57c.9-1.04,1.87-1.57,2.9-1.57.69,0,1.23.22,1.63.66s.6,1.02.6,1.73v3.67c0,.51.07.86.22,1.04.15.19.42.28.81.28.05,0,.08.04.08.12Z" fill="#131f2b"/>
    <path d="M182.06,39.13c0-.08.02-.12.06-.12.39,0,.66-.09.8-.28.14-.18.21-.53.21-1.04v-3.42c0-.43-.04-.75-.13-.94-.09-.19-.24-.29-.44-.29-.17,0-.4.07-.71.21h-.02c-.05,0-.09-.03-.12-.1s-.02-.11.02-.12l2.89-1.34.06-.02c.06,0,.13.03.19.1s.1.12.1.17v.42c-.03.51-.04,1.13-.04,1.87v3.46c0,.51.07.86.22,1.04.15.19.42.28.81.28.04,0,.06.04.06.12s-.02.11-.06.11c-.33,0-.59,0-.78-.02l-1.15-.02-1.13.02c-.19.01-.45.02-.78.02-.04,0-.06-.04-.06-.11ZM183.09,29.48c-.2-.2-.31-.49-.31-.86,0-.33.11-.6.32-.79.21-.2.49-.3.85-.3s.63.1.82.29c.19.19.29.46.29.8,0,.37-.1.66-.29.86-.19.2-.46.31-.82.31s-.66-.1-.86-.31Z" fill="#131f2b"/>
    <path d="M196.18,39.13c0,.08-.02.11-.06.11-.33,0-.59,0-.78-.02l-1.15-.02-1.11.02c-.2.01-.47.02-.8.02-.04,0-.06-.04-.06-.11s.02-.12.06-.12c.39,0,.66-.09.8-.28.14-.18.21-.53.21-1.04v-2.75c0-.69-.12-1.2-.37-1.53-.25-.33-.64-.5-1.17-.5-.31,0-.62.06-.95.19-.33.13-.61.3-.85.52v4.07c0,.51.07.86.22,1.04.15.19.42.28.81.28.04,0,.06.04.06.12s-.02.11-.06.11c-.33,0-.59,0-.78-.02l-1.15-.02-1.13.02c-.19.01-.45.02-.78.02-.04,0-.06-.04-.06-.11s.02-.12.06-.12c.39,0,.66-.09.8-.28.14-.18.21-.53.21-1.04v-3.59c0-.39-.05-.68-.14-.87s-.25-.28-.45-.28c-.22,0-.52.09-.92.27h-.04s-.07-.03-.09-.1c-.02-.06-.02-.1,0-.11l2.66-1.3c.08-.03.12-.04.13-.04.14,0,.27.14.4.41.13.27.2.65.23,1.12.88-1.04,1.85-1.57,2.91-1.57.69,0,1.23.22,1.63.66s.6,1.02.6,1.73v3.67c0,.51.07.86.22,1.04.15.19.42.28.81.28.04,0,.06.04.06.12Z" fill="#131f2b"/>
  </g>
  <g>
    <path d="M81.41,38.13c0,.08-.03.11-.08.11-.33,0-.59,0-.78-.02l-1.13-.02-1.15.02c-.19.01-.45.02-.78.02-.03,0-.04-.04-.04-.11s.01-.12.04-.12c.4,0,.67-.09.81-.28.15-.18.22-.53.22-1.04v-2.75c0-.69-.13-1.2-.38-1.53s-.65-.5-1.19-.5c-.31,0-.62.06-.94.18s-.6.29-.84.51v4.09c0,.51.07.86.21,1.04.14.19.41.28.8.28.05,0,.08.04.08.12s-.03.11-.08.11c-.33,0-.59,0-.78-.02l-1.13-.02-1.15.02c-.19.01-.45.02-.78.02-.03,0-.04-.04-.04-.11s.01-.12.04-.12c.39,0,.67-.09.81-.28.15-.18.22-.53.22-1.04v-9.63c0-.13-.03-.21-.09-.26s-.16-.07-.32-.07h-3.15c-.37,0-.61.08-.74.24s-.18.46-.18.91v8.81c0,.39.04.68.11.86.08.18.22.3.44.36.22.06.56.1,1.03.1.04,0,.06.04.06.12s-.02.11-.06.11c-.46,0-.82,0-1.09-.02l-1.59-.02-1.55.02c-.27.01-.64.02-1.11.02-.04,0-.06-.04-.06-.11s.02-.12.06-.12c.46,0,.8-.03,1.02-.1.22-.06.38-.19.46-.37s.12-.47.12-.85v-8.85c0-.43-.06-.73-.17-.88-.11-.15-.35-.23-.71-.23-1.52,0-2.61.99-3.27,2.96-.01.04-.05.05-.11.05s-.1-.03-.1-.07c.05-.51.11-1.17.17-1.98.06-.81.1-1.42.1-1.83,0-.06.03-.1.1-.1s.1.03.1.1c0,.28.36.42,1.09.42,1.1.04,2.38.06,3.84.06,1.95,0,3.19-.02,3.71-.06.78-.04,1.45-.24,2.02-.59.57-.36.99-.8,1.27-1.32.03-.04.08-.06.15-.06.14,0,.21.03.21.1v7.76c.41-.5.86-.88,1.35-1.15.49-.27,1.01-.4,1.56-.4.69,0,1.23.22,1.63.66s.6,1.02.6,1.73v3.67c0,.51.07.86.21,1.04.14.19.41.28.8.28.05,0,.08.04.08.12Z" fill="#c0b68a"/>
    <path d="M89.09,36.98s.05.03.09.08c.03.05.03.09,0,.11-.47.46-.95.79-1.43.99-.48.2-1.01.31-1.59.31-.8,0-1.5-.17-2.08-.51-.59-.34-1.03-.79-1.34-1.36-.31-.57-.46-1.18-.46-1.84,0-.74.18-1.42.55-2.04.37-.62.88-1.12,1.54-1.48s1.4-.54,2.23-.54,1.4.18,1.83.54c.43.36.65.91.65,1.66,0,.4-.07.59-.21.59l-4.64.02c-.01.09-.02.24-.02.44,0,1.12.26,2,.77,2.64.52.64,1.26.96,2.23.96.34,0,.64-.04.88-.12.24-.08.56-.22.96-.42l.04-.02ZM84.83,31.62c-.28.36-.47.86-.55,1.5l2.77-.04c-.01-.65-.11-1.15-.29-1.49-.18-.34-.47-.52-.88-.52s-.77.18-1.05.54Z" fill="#c0b68a"/>
    <path d="M108.46,41.74c.02.06.02.1,0,.12-.52.15-1.04.23-1.55.23-.98,0-1.99-.32-3.04-.96-1.04-.64-1.94-1.52-2.69-2.66h-.04c-1.18,0-2.24-.28-3.16-.83-.92-.55-1.64-1.31-2.14-2.26-.5-.95-.75-1.98-.75-3.11,0-1.31.33-2.44.99-3.37s1.51-1.64,2.55-2.11c1.04-.47,2.1-.71,3.18-.71,1.21,0,2.27.28,3.19.85.92.57,1.62,1.32,2.11,2.25.49.93.74,1.92.74,2.96,0,1.34-.4,2.54-1.19,3.61s-1.83,1.83-3.11,2.29c.5,1.07,1.14,1.95,1.92,2.63.78.68,1.53,1.02,2.25,1.02.22,0,.44-.01.67-.04.04-.01.07.01.09.08ZM97.99,34.89c.38.98.89,1.74,1.55,2.28s1.4.82,2.23.82c.71,0,1.35-.21,1.92-.62.57-.41,1.01-1.02,1.33-1.82.32-.8.48-1.75.48-2.86,0-1.17-.18-2.22-.54-3.14-.36-.92-.87-1.65-1.55-2.17s-1.47-.78-2.37-.78c-1.16,0-2.05.44-2.68,1.31-.62.87-.94,2.09-.94,3.66,0,1.24.19,2.34.56,3.32Z" fill="#c0b68a"/>
    <path d="M118.31,37s.07.03.1.1.03.1,0,.11l-2.64,1.28s-.06.02-.1.02c-.13,0-.24-.14-.33-.41-.1-.27-.15-.65-.16-1.12-.84.99-1.75,1.49-2.73,1.49-.7,0-1.25-.22-1.65-.66s-.6-1.02-.6-1.73v-2.81c0-.83-.2-1.24-.59-1.24-.14,0-.3.04-.48.13h-.02c-.05,0-.09-.03-.11-.1-.03-.07-.02-.11.02-.12l2.56-1.22.1-.02c.06,0,.13.03.2.09.07.06.1.11.1.16v4.22c0,1.38.53,2.06,1.59,2.06.28,0,.56-.06.85-.18s.54-.29.77-.51v-3.27c0-.83-.2-1.24-.59-1.24-.14,0-.31.04-.5.13h-.02s-.07-.03-.1-.1-.02-.11.02-.12l2.56-1.22s.06-.02.1-.02c.06,0,.13.03.2.09.07.06.1.11.1.16v5.08c0,.43.04.74.12.92.08.18.22.27.41.27.18,0,.44-.07.78-.21h.04Z" fill="#c0b68a"/>
    <path d="M119.12,38.13c0-.08.02-.12.06-.12.4,0,.66-.09.8-.28.14-.18.21-.53.21-1.04v-3.42c0-.43-.04-.75-.13-.94-.09-.19-.24-.29-.44-.29-.17,0-.4.07-.71.21h-.02c-.05,0-.09-.03-.11-.1-.03-.07-.02-.11.02-.12l2.89-1.34.06-.02c.06,0,.13.03.19.1.06.06.1.12.1.17v.42c-.03.51-.04,1.13-.04,1.87v3.46c0,.51.07.86.22,1.04.15.19.42.28.81.28.04,0,.06.04.06.12s-.02.11-.06.11c-.33,0-.59,0-.78-.02l-1.15-.02-1.13.02c-.19.01-.45.02-.78.02-.04,0-.06-.04-.06-.11ZM120.15,28.48c-.2-.2-.31-.49-.31-.86,0-.33.11-.6.32-.79.21-.2.49-.3.85-.3s.63.1.82.29.29.46.29.8c0,.37-.1.66-.29.86-.19.2-.47.31-.82.31s-.66-.1-.86-.31Z" fill="#c0b68a"/>
    <path d="M130.87,36.98s.05.03.09.08c.03.05.03.09,0,.11-.47.46-.95.79-1.43.99-.48.2-1.01.31-1.59.31-.8,0-1.5-.17-2.08-.51-.59-.34-1.03-.79-1.34-1.36-.31-.57-.46-1.18-.46-1.84,0-.74.18-1.42.55-2.04.37-.62.88-1.12,1.54-1.48s1.4-.54,2.23-.54,1.4.18,1.83.54c.43.36.65.91.65,1.66,0,.4-.07.59-.21.59l-4.64.02c-.01.09-.02.24-.02.44,0,1.12.26,2,.77,2.64.52.64,1.26.96,2.23.96.34,0,.64-.04.88-.12.24-.08.56-.22.96-.42l.04-.02ZM126.61,31.62c-.28.36-.47.86-.55,1.5l2.77-.04c-.01-.65-.11-1.15-.29-1.49-.18-.34-.47-.52-.88-.52s-.77.18-1.05.54Z" fill="#c0b68a"/>
    <path d="M137.63,36.91c.05,0,.09.03.12.08.03.05.03.09,0,.12-.47.47-.93.82-1.38,1.04-.45.22-.92.33-1.41.33-.56,0-1.04-.13-1.43-.4-.4-.27-.59-.72-.59-1.36v-4.24c0-.4-.07-.67-.21-.82-.14-.15-.4-.23-.76-.23-.01,0-.03-.02-.05-.06-.02-.04-.03-.08-.03-.12,0-.05,0-.09.02-.12s.03-.05.06-.05c.65-.03,1.18-.17,1.58-.42.4-.25.71-.64.93-1.17.03-.05.08-.08.16-.08s.12.03.12.08v1.53c.74-.01,1.57-.07,2.48-.17.03,0,.05.05.09.14.03.1.05.2.05.32,0,.13-.02.25-.07.37-.04.12-.09.18-.14.16-.83-.18-1.63-.27-2.41-.29v4.53c0,.48.12.84.37,1.07.25.23.58.34.98.34.51,0,1.01-.19,1.49-.57l.04-.02Z" fill="#c0b68a"/>
    <path d="M159.9,26.41c0,.08-.01.11-.04.11-.47,0-.91.2-1.33.6s-.75.95-1.02,1.65l-3.54,9.44c-.01.05-.08.08-.21.08s-.2-.03-.21-.08l-2.45-5.18-1.93,5.18c-.01.05-.08.08-.21.08s-.2-.03-.21-.08l-4.87-10.34c-.19-.41-.35-.7-.47-.88-.12-.18-.25-.3-.4-.37s-.34-.11-.58-.11c-.04,0-.06-.04-.06-.11s.02-.12.06-.12c.19,0,.33,0,.4.02.25.03.59.04.99.04.85,0,1.57-.01,2.16-.04.17-.01.37-.02.61-.02.04,0,.06.04.06.12s-.02.11-.06.11c-.32,0-.54.03-.68.1-.13.06-.2.18-.2.34,0,.22.15.64.44,1.26l3.44,7.3,1.2-3.15-2.12-4.49c-.22-.46-.42-.8-.61-1.02-.19-.22-.39-.33-.61-.33-.04,0-.06-.04-.06-.11s.02-.12.06-.12c.13,0,.28,0,.45.03.17.02.42.03.74.03.73,0,1.33-.01,1.82-.04.13-.01.29-.02.5-.02.04,0,.06.04.06.12s-.02.11-.06.11c-.18,0-.31.02-.39.07s-.12.12-.12.24c0,.22.17.68.52,1.4l.84,1.78.48-1.28c.28-.73.42-1.27.42-1.64s-.16-.55-.48-.55c-.04,0-.06-.04-.06-.11s.02-.12.06-.12c.1,0,.21,0,.33.03.12.02.42.03.91.03.22,0,.48-.01.78-.04l.71-.02s.04.04.04.12-.01.11-.04.11c-.85,0-1.56.75-2.12,2.26l-.71,1.89,2.29,4.83,2.46-6.59c.15-.41.23-.78.23-1.11,0-.39-.1-.71-.3-.94-.2-.23-.46-.34-.79-.34-.04,0-.06-.04-.06-.11s.02-.12.06-.12l.88.02c.46.03.88.04,1.26.04.25,0,.55-.01.88-.04l.82-.02s.04.04.04.12Z" fill="#c0b68a"/>
    <path d="M159.88,38.13c0-.08.02-.12.06-.12.4,0,.66-.09.8-.28.14-.18.21-.53.21-1.04v-3.42c0-.43-.04-.75-.13-.94-.09-.19-.24-.29-.44-.29-.17,0-.4.07-.71.21h-.02c-.05,0-.09-.03-.11-.1-.03-.07-.02-.11.02-.12l2.89-1.34.06-.02c.06,0,.13.03.19.1.06.06.09.12.09.17v.42c-.03.51-.04,1.13-.04,1.87v3.46c0,.51.07.86.22,1.04.15.19.42.28.81.28.04,0,.06.04.06.12s-.02.11-.06.11c-.33,0-.59,0-.78-.02l-1.15-.02-1.13.02c-.19.01-.45.02-.78.02-.04,0-.06-.04-.06-.11ZM160.91,28.48c-.2-.2-.31-.49-.31-.86,0-.33.11-.6.32-.79.21-.2.49-.3.85-.3s.63.1.82.29c.19.19.29.46.29.8,0,.37-.1.66-.29.86-.19.2-.47.31-.82.31s-.66-.1-.86-.31Z" fill="#c0b68a"/>
    <path d="M170.41,36.91c.05,0,.09.03.12.08.03.05.03.09,0,.12-.47.47-.93.82-1.38,1.04s-.92.33-1.41.33c-.56,0-1.04-.13-1.43-.4-.39-.27-.59-.72-.59-1.36v-4.24c0-.4-.07-.67-.21-.82-.14-.15-.39-.23-.76-.23-.01,0-.03-.02-.05-.06-.02-.04-.03-.08-.03-.12,0-.05,0-.09.02-.12s.03-.05.06-.05c.65-.03,1.17-.17,1.58-.42.4-.25.71-.64.93-1.17.03-.05.08-.08.16-.08s.12.03.12.08v1.53c.74-.01,1.57-.07,2.48-.17.03,0,.05.05.09.14.03.1.05.2.05.32,0,.13-.02.25-.07.37-.04.12-.09.18-.14.16-.83-.18-1.63-.27-2.41-.29v4.53c0,.48.12.84.37,1.07.25.23.58.34.98.34.51,0,1.01-.19,1.49-.57l.04-.02Z" fill="#c0b68a"/>
    <path d="M180.1,38.13c0,.08-.03.11-.08.11-.33,0-.6,0-.8-.02l-1.11-.02-1.15.02c-.19.01-.45.02-.78.02-.03,0-.04-.04-.04-.11s.01-.12.04-.12c.4,0,.67-.09.81-.28.15-.18.22-.53.22-1.04v-2.75c0-.69-.13-1.2-.38-1.53s-.65-.5-1.19-.5c-.31,0-.62.06-.95.19-.33.13-.61.3-.85.52v4.07c0,.51.07.86.22,1.04.15.19.42.28.81.28.05,0,.08.04.08.12s-.03.11-.08.11c-.33,0-.6,0-.8-.02l-1.11-.02-1.15.02c-.19.01-.45.02-.78.02-.03,0-.04-.04-.04-.11s.01-.12.04-.12c.39,0,.67-.09.81-.28.15-.18.22-.53.22-1.04v-9.71c0-.45-.04-.76-.12-.96-.08-.19-.23-.29-.43-.29-.18,0-.42.07-.73.21h-.02s-.07-.04-.11-.1c-.03-.07-.04-.11,0-.12l2.79-1.32.09-.02c.06,0,.13.03.2.09.07.06.11.11.11.16v7.57c.9-1.04,1.87-1.57,2.9-1.57.69,0,1.23.22,1.63.66s.6,1.02.6,1.73v3.67c0,.51.07.86.22,1.04.15.19.42.28.81.28.05,0,.08.04.08.12Z" fill="#c0b68a"/>
    <path d="M181.06,38.13c0-.08.02-.12.06-.12.39,0,.66-.09.8-.28.14-.18.21-.53.21-1.04v-3.42c0-.43-.04-.75-.13-.94-.09-.19-.24-.29-.44-.29-.17,0-.4.07-.71.21h-.02c-.05,0-.09-.03-.12-.1s-.02-.11.02-.12l2.89-1.34.06-.02c.06,0,.13.03.19.1s.1.12.1.17v.42c-.03.51-.04,1.13-.04,1.87v3.46c0,.51.07.86.22,1.04.15.19.42.28.81.28.04,0,.06.04.06.12s-.02.11-.06.11c-.33,0-.59,0-.78-.02l-1.15-.02-1.13.02c-.19.01-.45.02-.78.02-.04,0-.06-.04-.06-.11ZM182.09,28.48c-.2-.2-.31-.49-.31-.86,0-.33.11-.6.32-.79.21-.2.49-.3.85-.3s.63.1.82.29c.19.19.29.46.29.8,0,.37-.1.66-.29.86-.19.2-.46.31-.82.31s-.66-.1-.86-.31Z" fill="#c0b68a"/>
    <path d="M195.18,38.13c0,.08-.02.11-.06.11-.33,0-.59,0-.78-.02l-1.15-.02-1.11.02c-.2.01-.47.02-.8.02-.04,0-.06-.04-.06-.11s.02-.12.06-.12c.39,0,.66-.09.8-.28.14-.18.21-.53.21-1.04v-2.75c0-.69-.12-1.2-.37-1.53-.25-.33-.64-.5-1.17-.5-.31,0-.62.06-.95.19-.33.13-.61.3-.85.52v4.07c0,.51.07.86.22,1.04.15.19.42.28.81.28.04,0,.06.04.06.12s-.02.11-.06.11c-.33,0-.59,0-.78-.02l-1.15-.02-1.13.02c-.19.01-.45.02-.78.02-.04,0-.06-.04-.06-.11s.02-.12.06-.12c.39,0,.66-.09.8-.28.14-.18.21-.53.21-1.04v-3.59c0-.39-.05-.68-.14-.87s-.25-.28-.45-.28c-.22,0-.52.09-.92.27h-.04s-.07-.03-.09-.1c-.02-.06-.02-.1,0-.11l2.66-1.3c.08-.03.12-.04.13-.04.14,0,.27.14.4.41.13.27.2.65.23,1.12.88-1.04,1.85-1.57,2.91-1.57.69,0,1.23.22,1.63.66s.6,1.02.6,1.73v3.67c0,.51.07.86.22,1.04.15.19.42.28.81.28.04,0,.06.04.06.12Z" fill="#c0b68a"/>
  </g>
</svg>